<?xml version="1.0" encoding="iso-8859-1"?>
<!-- Generator: Adobe Illustrator 19.0.0, SVG Export Plug-In . SVG Version: 6.00 Build 0)  -->
<svg xmlns="http://www.w3.org/2000/svg" xmlns:xlink="http://www.w3.org/1999/xlink" version="1.1" id="Capa_1" x="0px" y="0px" viewBox="0 0 512 512" style="enable-background:new 0 0 512 512;" xml:space="preserve">
<g>
	<g>
		<path d="M487.372,250.182c-2.575-3.302-7.34-3.877-10.631-1.313c-3.301,2.575-3.887,7.34-1.313,10.631    c30.92,39.577,28.473,96.481-8.289,133.262c-35.032,34.995-76.962,28.989-80.912,29.663V220.458    c4.937,0.644,36.616-4.266,69.029,19.476c1.343,0.989,2.908,1.464,4.463,1.464c7.28,0,10.397-9.342,4.483-13.681    c-14.367-10.52-30.602-17.477-47.756-20.576c0,0-0.001,0-0.002,0c8.097-17.889,21.183-37.992,41.328-47.841    c12.869,12.8,34.55,8.67,41.788-7.948c1.67-3.835-0.084-8.296-3.918-9.966c-3.835-1.671-8.296,0.084-9.966,3.918    c-1.622,3.73-5.348,6.371-9.736,6.371c-8.941,0-13.781-10.398-8.238-17.262c2.864-3.547,7.507-4.735,11.534-3.425    c3.976,1.296,8.25-0.876,9.546-4.853c1.295-3.976-0.876-8.25-4.853-9.546c-18.512-6.034-36.946,9.982-33.258,29.338    c-25.532,12.689-41.022,38.165-49.949,59.386h-69.69h-27.462l41.112-77.055c5.179-9.693,7.805-20.112,7.805-30.966    c0-64.821-83.883-89.436-120.167-38.306c-5.573-1.605-11.439-2.464-17.487-2.464c-30.814,0-63.658,25.272-63.658,63.375    c0,21.657,10.833,41.577,28.987,53.289l31.894,20.576c3.514,2.262,8.198,1.252,10.47-2.262c2.272-3.514,1.252-8.198-2.262-10.47    l-31.894-20.576c-13.802-8.905-22.05-24.07-22.05-40.557c0-35.934,40.482-60.493,72.664-41.708    c11.843,6.916,20.546,18.82,23.111,33.177l16.81,93.947h-21c-0.004-0.002-0.011-0.007-0.02-0.013    c-0.215-0.138-2.149-1.387-12.166-7.852c-5.658-3.642-12.853,1.375-11.52,7.865h-25.029h-17.164    c-13.206,0-26.17,2.231-38.548,6.613c-3.948,1.403-6.007,5.725-4.604,9.672c1.393,3.938,5.725,5.997,9.662,4.604    c21.131-7.48,36.999-5.38,43.081-5.745v142.116c0,4.18,3.392,7.572,7.572,7.572c4.18,0,7.572-3.392,7.572-7.572V220.458h32.49    v201.968c-18.05,0-14.167,0-32.49,0v-29.562c0-4.18-3.392-7.572-7.572-7.572c-4.18,0-7.572,3.392-7.572,7.572v29.562h-9.592    c-35.408,0-66.616-18.315-84.648-45.979c-29.283-44.891-18.477-105.339,26.251-137.26c3.413-2.433,4.2-7.158,1.777-10.561    c-2.433-3.413-7.158-4.2-10.561-1.777c-5.27,3.756-10.268,7.986-14.852,12.57c-10.763,10.773-19.153,23.242-24.908,36.791    L7.3,310.275c-4.432,1.949-7.3,6.33-7.3,11.167s2.867,9.218,7.3,11.167l77.742,34.065c17.669,41.627,58.963,70.897,106.961,70.897    c12.653,0,22.771,0,35.779,0v35.317c0,4.183,3.39,7.572,7.572,7.572c4.182,0,7.572-3.389,7.572-7.572V437.57h23.894v35.317    c0,4.183,3.389,7.572,7.572,7.572s7.572-3.389,7.572-7.572V437.57h23.894v35.317c0,4.183,3.389,7.572,7.572,7.572    c4.183,0,7.572-3.389,7.572-7.572V437.57c8.831,0,15.977,0,23.895,0v35.317c0,4.183,3.389,7.572,7.572,7.572    s7.572-3.389,7.572-7.572V437.57c12.685,0,23.337,0,35.785,0C492.044,437.57,546.702,326.16,487.372,250.182z M78.802,347.4    l-59.246-25.958l59.246-25.958C74.919,312.349,74.875,330.305,78.802,347.4z M277.004,108.701    c-3.372-18.85-14.801-34.479-30.36-43.576c29.237-36.03,90.696-16.2,90.696,32.167c0,8.34-2.029,16.356-6.017,23.838    l-39.012,73.118L277.004,108.701z M338.602,422.426v-29.572c0-4.18-3.382-7.572-7.572-7.572c-4.18,0-7.572,3.392-7.572,7.572    v29.572h-59.084c0-2.758,0-191.584,0-201.968h31.107h27.977v142.106c0,4.18,3.392,7.572,7.572,7.572    c4.19,0,7.572-3.392,7.572-7.572V220.458h32.48v201.968H338.602z"/>
	</g>
</g>
<g>
	<g>
		<circle cx="432.821" cy="287.272" r="14.058"/>
	</g>
</g>
<g>
</g>
<g>
</g>
<g>
</g>
<g>
</g>
<g>
</g>
<g>
</g>
<g>
</g>
<g>
</g>
<g>
</g>
<g>
</g>
<g>
</g>
<g>
</g>
<g>
</g>
<g>
</g>
<g>
</g>
</svg>
