<?xml version="1.0" encoding="iso-8859-1"?>
<!-- Generator: Adobe Illustrator 19.0.0, SVG Export Plug-In . SVG Version: 6.00 Build 0)  -->
<svg xmlns="http://www.w3.org/2000/svg" xmlns:xlink="http://www.w3.org/1999/xlink" version="1.1" id="Capa_1" x="0px" y="0px" viewBox="0 0 512.001 512.001" style="enable-background:new 0 0 512.001 512.001;" xml:space="preserve">
<g>
	<g>
		<path d="M140.727,383.408c-2.079-3.643-6.716-4.911-10.361-2.832C78.987,409.886,15.19,372.698,15.19,313.71    c0-24.698,12.111-48.917,33.614-63.549c3.468-2.359,4.368-7.083,2.007-10.552c-2.359-3.466-7.084-4.368-10.552-2.006    C15.495,254.455,0,282.885,0,313.71c0,70.531,76.315,115.189,137.894,80.058C141.537,391.69,142.806,387.051,140.727,383.408z"/>
	</g>
</g>
<g>
	<g>
		<path d="M474.179,238.876c-3.39-2.468-8.142-1.72-10.611,1.671c-2.468,3.391-1.719,8.142,1.672,10.611    c19.768,14.388,31.57,37.552,31.57,61.965c0,59.719-65.307,95.788-115.633,65.891c-3.606-2.142-8.265-0.956-10.408,2.651    c-2.142,3.606-0.955,8.266,2.651,10.409c14.118,8.387,30.305,12.82,46.81,12.82c50.603,0,91.771-41.168,91.771-91.771    C512,283.867,497.862,256.111,474.179,238.876z"/>
	</g>
</g>
<g>
	<g>
		<path d="M409.536,278.074l-19.575-35.287c16.554-7.151,34.498-7.925,50.523-3.542c4.04,1.107,8.222-1.277,9.33-5.323    c1.107-4.046-1.277-8.223-5.323-9.33c-19.673-5.38-41.75-4.273-61.934,4.849l-31.653-57.062v-51.199h32.911    c0.141,0,0.28-0.004,0.421-0.012c0.037-0.002,4.775-0.043,7.574,2.605c1.751,1.657,2.638,4.361,2.638,8.04    c0,3.641-0.868,6.328-2.581,7.986c-2.384,2.307-6.376,2.688-7.63,2.659c-4.165-0.235-7.772,2.973-8.004,7.161    c-0.232,4.188,2.974,7.772,7.161,8.004c1.134,0.065,11.302,0.409,18.854-6.735c3.371-3.189,7.39-9.088,7.39-19.075    c0-9.988-4.019-15.886-7.39-19.075c-7.137-6.751-16.606-6.813-18.586-6.747h-40.353c-4.195,0-7.595,3.4-7.595,7.595v54.035    l-158.758,19.394l-12.895-20.439h4.87c27.499,0,45.266-14.788,45.266-37.672c0-7.909-6.434-14.342-14.342-14.342h-84.903    c-7.909,0-14.342,6.434-14.342,14.342v19.956c0,9.768,7.948,17.716,17.716,17.716H146.1l17.513,27.759l-26.479,38.997    c-21.232-11.863-45.029-14.435-66.803-9.109c-4.074,0.996-6.569,5.107-5.573,9.182c0.996,4.075,5.106,6.571,9.182,5.573    c17.967-4.395,37.337-2.301,54.625,6.972l-22.556,33.22c-10.681-4.193-22.223-3.08-31.647,2.36    c-11.298,6.523-18.318,18.686-18.318,31.745c0,6.397,1.699,12.72,4.913,18.286c1.09,1.886,2.349,3.681,3.744,5.334    c2.704,3.206,7.495,3.612,10.702,0.908c3.206-2.705,3.612-7.497,0.907-10.703c-0.818-0.97-1.558-2.025-2.201-3.136    c-5.934-10.278-2.365-23.385,7.846-29.28c4.471-2.581,9.81-3.538,15.147-2.4l-11.221,16.526    c-2.885,4.25-0.806,10.117,4.175,11.558c2.273,0.835,2.124,0.311,22.64,0.472c-1.733,4.551-4.977,8.469-9.305,10.967    c-2.167,1.251-4.498,2.106-6.931,2.543c-4.128,0.74-6.875,4.688-6.135,8.816c0.735,4.101,4.655,6.879,8.816,6.136    c14.729-2.642,26.245-13.973,29.343-28.461h40.324c-1.427,15.495-7.597,30.242-17.39,42.061    c-2.676,3.229-2.227,8.017,1.003,10.694c3.23,2.676,8.018,2.227,10.695-1.003c11.949-14.42,19.49-32.614,20.954-51.753h23.603    c2.72,11.344,10.437,20.762,20.693,25.781l-7.686,25.864h-27.244c-4.195,0-7.595,3.4-7.595,7.595s3.399,7.595,7.595,7.595h32.911    c3.361,0,6.323-2.21,7.28-5.432l9.441-31.771c0.75,0.044,1.505,0.072,2.265,0.072c21.358,0,38.734-17.376,38.734-38.734    c0-6.231-1.488-12.118-4.113-17.339l81.038-72.59l8.29,14.943c-24.599,16.48-40.828,44.526-40.828,76.295    c0,20.788,7.145,41.154,20.119,57.346c1.5,1.872,3.705,2.847,5.931,2.847c6.282,0,9.934-7.339,5.922-12.344    c-10.979-13.703-16.783-30.25-16.783-47.849c0.004-26.062,13.1-49.112,33.046-62.95l19.573,35.285    c-6.374,5.505-10.589,12.829-12.105,21.057c-0.76,4.126,1.968,8.085,6.093,8.845c4.126,0.756,8.085-1.968,8.845-6.093    c0.685-3.715,2.293-7.119,4.801-10.048l9.732,17.544c2.046,3.686,6.674,4.982,10.325,2.957c3.669-2.034,4.992-6.658,2.958-10.326    l-9.724-17.531c13.086-1.908,24.528,8.446,24.528,21.264c0,18.217-21.543,28.207-35.442,16.332    c-3.19-2.726-7.984-2.348-10.708,0.84c-2.724,3.189-2.348,7.983,0.841,10.708c23.734,20.283,60.499,3.207,60.499-27.879    C456.904,288.754,433.14,270.783,409.536,278.074z M106.393,305.653l3.502-5.156c1.146,1.544,2.032,3.091,2.817,5.156H106.393z     M118.329,151.386v0.001c-1.37,0-2.527-1.157-2.527-2.527v-19.109h83.194c-0.577,19.506-21.148,21.634-30.064,21.634H118.329z     M128.498,305.653c-1.419-6.669-4.647-12.96-9.786-18.143l22.467-33.088c15.385,12.708,25.4,31.054,27.54,51.231H128.498z     M207.098,305.653H183.97c-2.234-25.271-14.764-48.276-34.226-63.848l22.714-33.453l47.07,74.609    C213.054,288.76,208.536,296.697,207.098,305.653z M232.797,331.725c-4.083-2.58-7.323-6.378-9.201-10.882h12.434L232.797,331.725    z M222.616,305.653c0.976-3.597,2.783-6.854,5.203-9.55l6.025,9.55H222.616z M245.105,295.036l-4.021-6.374    c1.381-0.253,2.801-0.392,4.253-0.392c0.591,0,1.176,0.029,1.757,0.073L245.105,295.036z M247.597,335.247l4.78-16.086    c0.039-0.032,0.076-0.067,0.115-0.1c0.063-0.053,0.129-0.1,0.19-0.155l15.258-13.667c0.609,2.088,0.941,4.293,0.941,6.574    C268.881,324.033,259.523,334.105,247.597,335.247z M270.586,282.477c-1.518-1.308-3.134-2.502-4.843-3.566l8.805-29.629h27.244    c4.195,0,7.595-3.4,7.595-7.595s-3.399-7.595-7.595-7.595h-32.911c-3.361,0-6.323,2.21-7.28,5.432l-10.118,34.048    c-2.003-0.321-4.055-0.493-6.146-0.493c-4.457,0-8.735,0.766-12.723,2.157l-46.692-74.012l153.231-18.719l14.288,25.756    L270.586,282.477z"/>
	</g>
</g>
<g>
</g>
<g>
</g>
<g>
</g>
<g>
</g>
<g>
</g>
<g>
</g>
<g>
</g>
<g>
</g>
<g>
</g>
<g>
</g>
<g>
</g>
<g>
</g>
<g>
</g>
<g>
</g>
<g>
</g>
</svg>
