<?xml version="1.0" encoding="iso-8859-1"?>
<!-- Generator: Adobe Illustrator 19.0.0, SVG Export Plug-In . SVG Version: 6.00 Build 0)  -->
<svg xmlns="http://www.w3.org/2000/svg" xmlns:xlink="http://www.w3.org/1999/xlink" version="1.1" id="Capa_1" x="0px" y="0px" viewBox="0 0 512 512" style="enable-background:new 0 0 512 512;" xml:space="preserve">
<g>
	<g>
		<g>
			<path d="M342.85,234.013c-0.554,0.472-1.093,0.93-1.582,1.346C341.713,234.981,342.24,234.532,342.85,234.013z"/>
			<path d="M506.746,415.096c-19.338-20.786-150.683-161.97-156.117-167.811l39.799-33.861     c50.676-43.122,56.816-119.418,13.694-170.083c-1.293-1.535-3.151-2.484-5.15-2.646c-2-0.162-3.989,0.485-5.524,1.787     L263.002,153.488c-11.218-11.2-37.876-44.471-87.172-80.043l-10.775-7.776c-56.476-40.765-135.906,1.18-133.394,69.126     C13.412,145.378,0,165.99,0,198.548c0,12.411,2.03,21.51,2.121,21.894c1.132,5.051,6.79,7.37,11.129,4.918l45.677-25.944     c12.724,12.815,28.862,21.722,46.424,25.61c4.54,37.309,13.769,78.728,30.852,112.894v0.01     c13.184,24.64,29.311,44.135,51.867,59.492c0.19,0.064,10.009,7.102,24.49,13.229c0,0,0,0,0.01,0     c55.779,23.827,124.567,11.842,181.525-8.998l58.866,63.39c7.374,7.959,19.879,8.424,27.822,1.03l24.934-23.146     C513.673,435.546,514.138,423.054,506.746,415.096z M261.8,174.392C274.753,163.37,387.028,67.831,397.295,59.094     c13.694,18.632,20.41,40.547,20.41,62.36c0,29.882-12.603,59.583-37.093,80.427c-21.61,18.388-32.676,27.805-37.762,32.133     c6.376-5.425,14.702-12.508-30.091,25.612c-33.314,28.356-84.011,1.886-80.538-41.223     C234.412,191.202,255.493,181.239,261.8,174.392z M15.471,206.668c-1.616-20.24,2.273-41.757,18.067-54.665     c2.626,12.785,7.877,24.934,15.471,35.628L15.471,206.668z M325.685,404.694c-3.299-42.573-28.6-78.419-63.663-95.706     c-3.747-1.848-8.291-0.313-10.139,3.444c-1.848,3.747-0.313,8.291,3.444,10.139c31.619,15.593,52.817,48.211,55.331,84.325     c-68.908,7.376-124.631-11.275-158.248-70.924c22.075-18.975,49.909-26.057,76.326-21.874c4.13,0.667,8.008-2.161,8.675-6.292     c0.656-4.13-2.161-8.008-6.292-8.665c-29.739-4.743-60.842,2.929-85.738,22.995c-11.826-26.307-21.238-64.38-25.621-104.34     c-0.364-3.393-2.969-6.13-6.352-6.655c-59.693-9.334-84.678-78.384-52.695-119.549c21.221-27.298,62.572-37.373,95.474-13.643     l10.775,7.776c47.918,34.597,74.034,67.155,84.486,77.589l-11.977,10.19c-44.96,38.273-18.154,112.914,41.607,112.914     c32.323,0,47.792-22.4,57.997-29.307c0.095,0.101,98.732,105.563,98.998,106.289c0.402,1.141-0.013,2.61-1.303,3.262     C403.009,383.798,363.347,398.168,325.685,404.694z M495.405,431.829l-24.924,23.146c-1.964,1.829-4.851,1.455-6.423-0.232     l-54.745-58.967c13.997-5.686,25.732-11.26,34.305-15.603c2.272-1.141,4.211-2.717,5.756-4.605l46.273,49.837     C497.323,427.214,497.212,430.153,495.405,431.829z"/>
			<path d="M341.268,235.359c-0.13,0.111-0.254,0.216-0.371,0.316C341.016,235.574,341.141,235.467,341.268,235.359z"/>
		</g>
	</g>
</g>
<g>
	<g>
		<path d="M86.829,120.343c-7.079,0-12.815,5.746-12.815,12.815c0,7.079,5.736,12.825,12.815,12.825    c7.079,0,12.815-5.746,12.815-12.825C99.644,126.09,93.908,120.343,86.829,120.343z"/>
	</g>
</g>
<g>
</g>
<g>
</g>
<g>
</g>
<g>
</g>
<g>
</g>
<g>
</g>
<g>
</g>
<g>
</g>
<g>
</g>
<g>
</g>
<g>
</g>
<g>
</g>
<g>
</g>
<g>
</g>
<g>
</g>
</svg>
