<?xml version="1.0" encoding="iso-8859-1"?>
<!-- Generator: Adobe Illustrator 19.0.0, SVG Export Plug-In . SVG Version: 6.00 Build 0)  -->
<svg xmlns="http://www.w3.org/2000/svg" xmlns:xlink="http://www.w3.org/1999/xlink" version="1.1" id="Capa_1" x="0px" y="0px" viewBox="0 0 512.001 512.001" style="enable-background:new 0 0 512.001 512.001;" xml:space="preserve">
<g>
	<g>
		<g>
			<path d="M425.09,77.599c-56.32,15.798-104.957,45.934-137.12,94.774c-0.828-1.787-1.359-2.814-1.962-4.013     c0.25-0.764,29.629-94.793,36.544-116.917c1.254-4.01-0.982-8.276-4.991-9.53c-4.009-1.25-8.277,0.983-9.53,4.991     l-32.977,105.525c-11.599-11.999-26.092-12.432-38.109,0L203.968,46.903c-1.253-4.008-5.511-6.245-9.53-4.991     c-4.009,1.254-6.245,5.52-4.991,9.53c6.915,22.124,36.295,116.154,36.544,116.917c-0.669,1.334-1.121,2.2-1.962,4.013     c-32.168-48.849-80.814-78.979-137.12-94.774C35.052,63.026-12.597,111.546,3.01,163.062     c12.861,42.478,36.514,76.872,70.309,102.249c28.674,21.523,64.396,36.199,106.712,43.898     c-27.304,7.201-50.46,18.754-69.214,34.577c-67.37,56.844,15.466,160.231,85.645,106.681c8.692-6.623,16.218-13.723,22.73-21.036     c9.615,26.878,22.243,41.007,36.808,41.007c14.545,0,27.162-14.088,36.778-40.906c17.391,19.51,38.025,35.753,63.909,35.753     c56.907,0,97.729-76.481,44.374-121.5c-18.744-15.813-41.879-27.355-69.163-34.556c86.761-15.773,151.761-62.5,177.092-146.167     C524.607,111.516,476.91,63.036,425.09,77.599z M187.243,438.366c-54.529,41.605-118.912-38.817-66.617-82.947     c20.985-17.709,48.29-29.586,81.507-35.489c0.822,34.252,4.909,66.344,11.755,92.248     C206.261,421.904,197.376,430.647,187.243,438.366z M202.062,297.189C81.14,282.056,34.778,215.49,17.565,158.65     C6.909,123.441,34.298,90.207,68.198,90.207c4.838,0,9.737,0.669,14.606,2.039c61.779,17.334,106.864,50.206,134.401,97.898     C206.782,222.6,202.67,262.969,202.062,297.189z M281.449,415.281c-8.824,29.465-19.21,39.942-25.448,39.942     c-6.248,0-16.654-10.508-25.489-40.074c-16.912-50.683-19.736-163.142,3.256-226.467c8.033-22.071,16.736-30.185,22.233-30.185     c5.497,0,14.2,8.114,22.233,30.185C299.874,248.287,299.702,354.512,281.449,415.281z M391.244,355.419     c52.322,44.137-12.119,124.488-66.607,82.947c-10.082-7.688-18.947-16.391-26.554-26.067     c6.867-25.915,10.954-58.057,11.786-92.35C343.035,325.863,370.289,337.73,391.244,355.419z M494.436,158.65     c-17.212,56.84-63.575,123.407-184.496,138.54c-0.609-34.221-4.72-74.59-15.143-107.046     c27.538-47.691,72.622-80.564,134.401-97.898C469.446,80.925,506.555,118.606,494.436,158.65z"/>
			<path d="M97.2,135.298c-15.67,0-29.766,9.901-35.076,24.639c-1.421,3.951,0.625,8.311,4.578,9.735     c3.953,1.424,8.311-0.625,9.735-4.578c3.142-8.722,11.486-14.581,20.761-14.581c12.163,0,22.059,9.896,22.059,22.059     s-9.895,22.058-22.059,22.058c-6.691,0-12.946-2.988-17.161-8.198c-2.642-3.267-7.433-3.773-10.699-1.13     c-3.266,2.642-3.772,7.433-1.13,10.699c7.118,8.799,17.684,13.844,28.99,13.844c20.552,0,37.273-16.72,37.273-37.273     C134.474,152.018,117.753,135.298,97.2,135.298z"/>
			<path d="M141.447,205.38c-11.271,11.271-11.271,29.609,0,40.879c3.933,3.933,8.876,6.633,14.295,7.808     c4.106,0.891,8.158-1.718,9.046-5.822c0.891-4.106-1.716-8.157-5.822-9.046c-2.559-0.555-4.897-1.834-6.761-3.698     c-5.338-5.338-5.338-14.024,0-19.364c10.342-10.341,27.636,0.718,22.513,14.475c-1.467,3.937,0.537,8.317,4.473,9.785     c3.937,1.467,8.317-0.536,9.784-4.473c3.94-10.576,1.331-22.566-6.648-30.544C171.055,194.11,152.717,194.11,141.447,205.38z"/>
			<path d="M175.014,373.621c-3.533,2.274-4.554,6.98-2.28,10.514c5.772,8.967-0.62,21.088-11.525,21.088     c-14.626,0-19.034-20.049-5.684-26.154c3.822-1.747,5.502-6.26,3.756-10.081c-1.748-3.821-6.26-5.503-10.081-3.755     c-10.264,4.692-16.897,15.015-16.897,26.298c0,15.938,12.966,28.906,28.906,28.906c22.887,0,36.609-25.441,24.319-44.536     C183.254,372.367,178.545,371.346,175.014,373.621z"/>
			<path d="M436.42,142.707c-3.269-2.644-8.056-2.136-10.7,1.129c-2.641,3.266-2.136,8.056,1.129,10.699     c16.201,13.106,6.733,39.221-13.86,39.221c-12.163,0-22.058-9.895-22.058-22.059c0-9.276,5.859-17.62,14.58-20.761     c3.953-1.424,6.002-5.782,4.578-9.735c-1.423-3.953-5.78-5.999-9.735-4.578c-14.736,5.309-24.638,19.405-24.638,35.076     c0,20.552,16.72,37.273,37.272,37.273C447.947,208.971,463.687,164.768,436.42,142.707z"/>
			<path d="M328.737,205.379c-7.977,7.978-10.587,19.967-6.649,30.544c1.466,3.939,5.847,5.941,9.784,4.473     c3.936-1.466,5.94-5.846,4.474-9.783c-5.123-13.753,12.164-24.823,22.512-14.476c7.707,7.707,3.668,20.801-6.76,23.062     c-4.107,0.891-6.712,4.941-5.822,9.046c0.891,4.105,4.939,6.712,9.045,5.822c22.19-4.814,30.479-32.502,14.294-48.688     C358.345,194.109,340.008,194.109,328.737,205.379z"/>
			<path d="M349.853,420.436c15.939,0,28.906-12.967,28.906-28.906c0-11.283-6.632-21.605-16.896-26.299     c-3.822-1.749-8.335-0.065-10.081,3.755c-1.748,3.821-0.066,8.334,3.754,10.081c13.347,6.103,8.951,26.154-5.683,26.154     c-10.9,0-17.302-12.114-11.526-21.087c2.274-3.533,1.253-8.24-2.28-10.514c-3.532-2.273-8.239-1.254-10.513,2.28     C313.246,394.996,326.965,420.436,349.853,420.436z"/>
		</g>
	</g>
</g>
<g>
</g>
<g>
</g>
<g>
</g>
<g>
</g>
<g>
</g>
<g>
</g>
<g>
</g>
<g>
</g>
<g>
</g>
<g>
</g>
<g>
</g>
<g>
</g>
<g>
</g>
<g>
</g>
<g>
</g>
</svg>
