<?xml version="1.0" encoding="iso-8859-1"?>
<!-- Generator: Adobe Illustrator 19.0.0, SVG Export Plug-In . SVG Version: 6.00 Build 0)  -->
<svg xmlns="http://www.w3.org/2000/svg" xmlns:xlink="http://www.w3.org/1999/xlink" version="1.1" id="Capa_1" x="0px" y="0px" viewBox="0 0 512 512" style="enable-background:new 0 0 512 512;" xml:space="preserve">
<g>
	<g>
		<polygon points="202.27,334.318 202.266,334.322 202.274,334.315   "/>
	</g>
</g>
<g>
	<g>
		<path d="M353.93,234.269l-21.655-4.267c-4.128-0.815-8.134,1.873-8.947,6.002c-0.814,4.127,1.873,8.133,6.001,8.946    c19.639,3.87,23.496,4.14,21.785,5.25c-0.367,0.242-10.825,7.147-189.852,125.35c-0.211-0.046-0.564-0.466-0.576-0.648    c36.749-35.864,41.139-40.147,41.554-40.553c0,0,0.003-0.003,0.008-0.008c0.004-0.004,0.01-0.01,0.018-0.017    c0.001-0.001,0.003-0.003,0.004-0.004c3.013-2.935,3.078-7.759,0.142-10.772c-2.936-3.014-7.759-3.078-10.772-0.142    c-43.535,42.404-41.634,40.538-41.861,40.782c-9.645,10.332-1.908,26.595,11.46,26.595c8.835,0,1.003,1.306,198.216-127.835    C371.215,255.323,367.961,237.034,353.93,234.269z"/>
	</g>
</g>
<g>
	<g>
		<path d="M202.239,334.348c0,0,0.003-0.003,0.009-0.009l0,0C202.245,334.342,202.242,334.345,202.239,334.348z"/>
	</g>
</g>
<g>
	<g>
		<path d="M202.274,334.315C202.28,334.309,202.279,334.31,202.274,334.315L202.274,334.315z"/>
	</g>
</g>
<g>
	<g>
		<path d="M343.395,121.248c-7.047,0,0.023-1.542-170.464,104.194c-12.258,7.67-8.501,26.326,5.557,28.862l69.96,12.634    c0.393,0.071,0.436,0.408,0.436,0.55c0,0.07-0.008,0.142-0.088,0.249l-35.327,34.406c-4.889,4.763-1.481,13.075,5.315,13.075    c5.56,0,4.436-2.381,40.836-36.756c0.086-0.084,0.171-0.171,0.254-0.259c8.515-9.123,3.516-24.047-8.718-26.256    c-66.483-12.555-72.539-12.09-70.147-13.588l147.44-92.153c-52.761,50.842-63.782,61.431-64.097,61.789    c-8.07,9.155-3.074,23.545,8.772,25.878l26.31,5.184c4.127,0.813,8.133-1.873,8.947-6.001c0.814-4.128-1.873-8.134-6.001-8.947    c-25.74-5.412-27.35-4.766-26.69-5.919c53.328-51.386,77.308-74.462,77.626-74.823C361.1,134.542,354.389,121.248,343.395,121.248    z"/>
	</g>
</g>
<g>
	<g>
		<path d="M364.877,24.289C232.809-37.842,72.445,23.346,17.77,162.378c-1.54,3.915,0.386,8.338,4.301,9.878    c3.924,1.543,8.341-0.394,9.876-4.301C84.363,34.676,235.995-19.507,358.392,38.075c3.807,1.79,8.344,0.156,10.135-3.65    C370.318,30.618,368.684,26.08,364.877,24.289z"/>
	</g>
</g>
<g>
	<g>
		<path d="M392.408,39.373c-3.558-2.245-8.263-1.179-10.507,2.38c-2.244,3.558-1.179,8.263,2.38,10.507    c70.434,44.423,112.485,120.593,112.484,203.756c0,138.335-117.058,249.092-256.247,240.222c-4.184-0.257-7.819,2.92-8.086,7.118    c-0.267,4.198,2.92,7.819,7.118,8.086c72.04,4.59,143.731-20.69,197.484-74.442C552.71,321.322,531.969,127.394,392.408,39.373z"/>
	</g>
</g>
<g>
	<g>
		<path d="M211.237,492.567C75.241,466.968-11.782,331.162,22.863,196.042c1.045-4.075-1.412-8.226-5.487-9.271    c-4.076-1.046-8.226,1.412-9.271,5.487C-28.732,335.923,63.808,480.318,208.42,507.539c4.117,0.776,8.113-1.927,8.895-6.077    C218.093,497.329,215.372,493.345,211.237,492.567z"/>
	</g>
</g>
<g>
	<g>
		<path d="M185.354,73.237c-1.671-3.861-6.152-5.637-10.017-3.965C33.601,130.612,9.104,321.848,131.468,416.795    c1.389,1.079,3.033,1.6,4.664,1.6c7.212,0,10.421-9.179,4.675-13.636C27.483,316.826,50.414,139.936,181.389,83.254    C185.249,81.582,187.025,77.098,185.354,73.237z"/>
	</g>
</g>
<g>
	<g>
		<path d="M205.253,59.023c-4.075,1.048-6.529,5.2-5.481,9.274c1.047,4.074,5.201,6.528,9.274,5.481    c119.229-30.657,235.156,59.773,235.156,182.238c0,143.34-154.52,233.537-278.959,164.833c-3.683-2.032-8.316-0.697-10.351,2.987    c-2.033,3.682-0.696,8.315,2.987,10.35c134.461,74.238,301.558-23.15,301.558-178.17    C459.438,123.757,334.237,25.854,205.253,59.023z"/>
	</g>
</g>
<g>
</g>
<g>
</g>
<g>
</g>
<g>
</g>
<g>
</g>
<g>
</g>
<g>
</g>
<g>
</g>
<g>
</g>
<g>
</g>
<g>
</g>
<g>
</g>
<g>
</g>
<g>
</g>
<g>
</g>
</svg>
