<?xml version="1.0" encoding="iso-8859-1"?>
<!-- Generator: Adobe Illustrator 19.0.0, SVG Export Plug-In . SVG Version: 6.00 Build 0)  -->
<svg xmlns="http://www.w3.org/2000/svg" xmlns:xlink="http://www.w3.org/1999/xlink" version="1.1" id="Capa_1" x="0px" y="0px" viewBox="0 0 511.999 511.999" style="enable-background:new 0 0 511.999 511.999;" xml:space="preserve">
<g>
	<g>
		<path d="M290.225,425.377c-0.193-4.053-3.546-7.243-7.61-7.243c-4.226,0-7.63,3.434-7.63,7.63c0,0.122,0,0.244,0.01,0.376    l3.515,70.62h-33.466l7.15-143.778c0.216-4.352-3.254-8-7.612-8c-4.062,0-7.409,3.185-7.611,7.242l-7.554,151.778    c-0.142,2.896,1.372,5.7,4.104,7.142c1.128,0.599,2.408,0.853,3.688,0.853h49.315c2.083,0,4.074-0.853,5.517-2.367    c1.433-1.514,2.195-3.546,2.093-5.628L290.225,425.377z"/>
	</g>
</g>
<g>
	<g>
		<path d="M442.235,311.894c-93.652-54.07-105.184-60.725-106.301-61.365c-0.01,0-0.01-0.01-0.01-0.01    c-0.02-0.01-0.03-0.02-0.061-0.03c0-0.01-0.01-0.01-0.02-0.01l-0.01-0.01l-26.649-15.392c2.997-6.563,4.663-13.848,4.663-21.518    c0-25.796-18.857-47.273-43.514-51.368v-24.617c15.362-1.89,29.565-8.869,40.588-20.055C353.51,74.288,323.183,0.945,262.824,0    c-2.032-0.02-4.003,0.762-5.456,2.195c-3.211,3.139-2.022,6.888-2.276,9.377v150.344c-25.562,3.292-45.384,25.196-45.384,51.642    c0,5.984,1.016,11.745,2.896,17.099l-22.524,13.004c-33.832-44.815-106.2-32.511-121.612,23.347    c-4.856,17.576-2.642,36.016,6.218,51.937c1.331,2.367,3.851,3.911,6.655,3.911c3.678,0-2.083,1.961,110.213-62.452    c0.01,0,0.01-0.01,0.02-0.01l28.112-16.235c5.517,7.589,13.055,13.634,21.803,17.343l-3.026,60.751c-0.216,4.352,3.253,8,7.611,8    c4.062,0,7.408-3.185,7.611-7.242l2.87-57.648c3.414,0.345,6.858,0.366,10.454,0l6.502,130.796    c0.193,4.054,3.546,7.244,7.61,7.244c4.226,0,7.63-3.434,7.63-7.63c0-0.122,0-0.244-0.01-0.376l-6.665-133.895    c7.264-3.078,13.685-7.772,18.816-13.614l21.183,12.232c-6.045,14.254-7.102,30.042-2.926,45.17    c16.154,58.53,94.78,68.985,125.818,17.119C447.132,318.803,445.964,314.058,442.235,311.894z M270.332,15.921    c25.542,4.166,45.211,26.547,45.211,53.135c0,26.578-19.669,48.96-45.211,53.125V15.921z M84.724,304.488    c-13.106-34.604,12.242-72.866,50.128-72.866c15.89,0,31.485,7,41.889,19.74L84.724,304.488z M242.312,244.82    c-34.817-21.823-12.943-76.95,28.021-67.085c16.195,3.861,28.275,18.46,28.275,35.823    C298.607,242.351,266.776,260.12,242.312,244.82z M358.814,333.534c-23.022-13.289-32.572-41.523-23.408-65.713l92.017,53.125    C410.994,341.042,381.754,346.783,358.814,333.534z"/>
	</g>
</g>
<g>
</g>
<g>
</g>
<g>
</g>
<g>
</g>
<g>
</g>
<g>
</g>
<g>
</g>
<g>
</g>
<g>
</g>
<g>
</g>
<g>
</g>
<g>
</g>
<g>
</g>
<g>
</g>
<g>
</g>
</svg>
