<?xml version="1.0" encoding="iso-8859-1"?>
<!-- Generator: Adobe Illustrator 19.0.0, SVG Export Plug-In . SVG Version: 6.00 Build 0)  -->
<svg xmlns="http://www.w3.org/2000/svg" xmlns:xlink="http://www.w3.org/1999/xlink" version="1.1" id="Capa_1" x="0px" y="0px" viewBox="0 0 512 512" style="enable-background:new 0 0 512 512;" xml:space="preserve">
<g>
	<g>
		<path d="M135.803,236.576c-0.486-3.17-3.068-5.631-5.165-6.056c-0.01-0.01-0.02-0.02-0.03-0.01    c-0.841-0.557-3.798-0.841-6.198,0.456c-2.015,1.094-38.3,21.084-57.643,50.048c-0.03,0.041-0.061,0.081-0.091,0.122    c-0.294,0.375-0.557,0.77-0.78,1.195c0,0.01-0.01,0.02-0.02,0.041c-5.762,8.942-9.854,18.715-10.826,29.034    c-1.792,19.079,7.079,36.741,26.371,52.498c0.749,0.618,2.096,1.235,2.491,1.347c1.013,0.679,38.057,2.714,55.678-24.487    C161.92,306.301,140.431,248.091,135.803,236.576z M120.653,282.918l7.464-21.5c1.377,4.851,2.734,10.289,3.828,16.031    l-11.292,5.479V282.918z M114.03,255.666l-7.848,22.624l-5.782-11.94C105.078,262.319,109.756,258.734,114.03,255.666z     M83.072,344.814c-9.722-10.228-13.945-20.75-12.902-31.961c0.314-3.382,1.094-6.714,2.258-9.995l14.684,30.32L83.072,344.814z     M81.37,286.472c2.289-3.139,4.82-6.167,7.514-9.054l10.249,21.165l-4.972,14.299L81.37,286.472z M126.83,332.519    c-6.036,9.317-15.677,14.927-29.307,16.993l3.919-11.281l29.601-14.34C129.96,326.95,128.562,329.846,126.83,332.519z     M134.375,305.399l-25.885,12.537l5.114-14.715l20.517-9.945c0.213,2.765,0.334,5.539,0.334,8.284    C134.456,302.847,134.426,304.123,134.375,305.399z"/>
	</g>
</g>
<g>
	<g>
		<path d="M257.175,337.391h-28.973c-7.818,0-14.178,6.36-14.178,14.178v26.968c0,7.818,6.36,14.178,14.178,14.178h28.973    c7.818,0,14.178-6.36,14.178-14.178v-26.968C271.353,343.75,264.993,337.391,257.175,337.391z M256.162,377.524h-26.948v-24.943    h26.948V377.524z"/>
	</g>
</g>
<g>
	<g>
		<path d="M361.756,337.391h-28.963c-7.818,0-14.178,6.36-14.178,14.178v26.968c0,7.818,6.36,14.178,14.178,14.178h28.963    c7.818,0,14.178-6.36,14.178-14.178v-26.968C375.934,343.75,369.574,337.391,361.756,337.391z M360.743,377.524h-26.938v-24.943    h26.938V377.524z"/>
	</g>
</g>
<g>
	<g>
		<path d="M478.895,181.162l-71.476,43.769v-28.143c0-15.474-19.292-24.102-33.105-15.626l-71.486,43.769v-28.143    c0-15.423-19.231-24.122-33.105-15.626l-84.165,51.536l-5.094-48.731h18.593c9.229,0,16.71-7.481,16.71-16.71v-42.118    c0-9.216-7.504-16.71-16.71-16.71H58.887c-4.039,0-7.583,3.031-7.859,7.06c-0.158,2.308,0.716,4.409,2.21,5.903    c1.367,1.377,3.271,2.228,5.367,2.228h140.451c0.835,0,1.519,0.684,1.519,1.519v42.118c0,0.835-0.684,1.519-1.519,1.519H16.71    c-0.836,0-1.519-0.684-1.519-1.519v-42.118c0-0.836,0.684-1.519,1.519-1.519h11.739c4.038,0,7.582-3.031,7.859-7.059    c0.159-2.308-0.715-4.41-2.21-5.904c-1.367-1.377-3.271-2.228-5.367-2.228H16.71c-9.205,0-16.71,7.494-16.71,16.71v42.118    c0,9.229,7.481,16.71,16.71,16.71h16.851L14.04,370.913c-0.468,4.482,3.047,8.383,7.554,8.383c3.889,0,7.15-2.938,7.554-6.805    l19.695-188.524h116.349c0,0.02,0,0.051,0.01,0.101c0.01,0.041,0.01,0.071,0.01,0.091c0,0.01,0,0.01,0,0.02s0,0.01,0.01,0.02v0.01    c0.172,1.661,1.377,13.185,8.193,78.464l20.315,194.499c0.577,6.664-1.6,13.054-6.117,17.996    c-3.788,4.142-8.75,6.724-14.198,7.453c-1.063,0.152-2.147,0.223-3.241,0.223H43.85c-6.714,0-12.902-2.724-17.439-7.676    c-4.517-4.942-6.694-11.332-6.117-17.996l5.727-54.809c0.469-4.482-3.046-8.383-7.553-8.383c-3.889,0-7.15,2.938-7.553,6.805    l-5.731,54.868l-0.02,0.122c-0.952,10.826,2.704,21.631,10.046,29.652c7.332,8.01,17.773,12.608,28.639,12.608h438.569    c16.337,0,29.581-13.244,29.581-29.581V196.788C512,181.354,492.769,172.665,478.895,181.162z M200.98,482.844    c5.884-7.676,8.729-17.368,7.879-27.069l-21.56-206.337l90.353-55.324c4.425-2.714,9.985,0.03,9.985,2.674v286.057H200.98z     M392.228,482.844h-89.401V242.744l79.416-48.63c4.425-2.714,9.985,0.03,9.985,2.674V482.844z M496.81,468.454    c0,7.929-6.451,14.39-14.39,14.39h-75V242.744l79.416-48.63c4.405-2.694,9.975,0.02,9.975,2.674V468.454z"/>
	</g>
</g>
<g>
	<g>
		<path d="M466.348,337.391h-28.973c-7.818,0-14.178,6.36-14.178,14.178v26.968c0,7.818,6.36,14.178,14.178,14.178h28.973    c7.818,0,14.178-6.36,14.178-14.178v-26.968C480.525,343.75,474.166,337.391,466.348,337.391z M465.335,377.524h-26.948v-24.943    h26.948V377.524z"/>
	</g>
</g>
<g>
	<g>
		<path d="M222.579,56.548c-0.416-4.174-4.144-7.221-8.312-6.803c-4.174,0.417-7.221,4.139-6.803,8.312    c0.065,0.65,0.098,1.321,0.099,1.986c0,10.888-8.859,19.748-19.748,19.748c-10.889,0-19.748-8.859-19.748-19.748    c0-10.889,8.859-19.748,19.748-19.748c2.398,0,4.737,0.422,6.951,1.257c3.921,1.474,8.306-0.506,9.784-4.433    c1.479-3.926-0.505-8.306-4.432-9.784c-3.931-1.481-8.071-2.231-12.303-2.231c-19.265,0-34.938,15.674-34.938,34.938    c0,19.265,15.674,34.938,34.938,34.938c19.265,0,34.938-15.674,34.938-34.946C222.752,58.865,222.693,57.691,222.579,56.548z"/>
	</g>
</g>
<g>
	<g>
		<path d="M293.4,37.19c-1.785-13.24-13.219-23.225-26.594-23.225c-14.798,0-26.836,12.039-26.836,26.837    s12.039,26.836,26.846,26.836c1.137-0.001,2.281-0.074,3.397-0.216c4.161-0.528,7.108-4.329,6.58-8.49    c-0.528-4.162-4.337-7.11-8.49-6.579c-0.492,0.063-0.997,0.094-1.496,0.095c-6.422,0-11.646-5.224-11.646-11.646    s5.225-11.646,11.646-11.646c5.805,0,10.767,4.327,11.541,10.066c0.562,4.157,4.388,7.075,8.543,6.512    C291.044,45.172,293.96,41.348,293.4,37.19z"/>
	</g>
</g>
<g>
</g>
<g>
</g>
<g>
</g>
<g>
</g>
<g>
</g>
<g>
</g>
<g>
</g>
<g>
</g>
<g>
</g>
<g>
</g>
<g>
</g>
<g>
</g>
<g>
</g>
<g>
</g>
<g>
</g>
</svg>
