<?xml version="1.0" encoding="iso-8859-1"?>
<!-- Generator: Adobe Illustrator 19.0.0, SVG Export Plug-In . SVG Version: 6.00 Build 0)  -->
<svg xmlns="http://www.w3.org/2000/svg" xmlns:xlink="http://www.w3.org/1999/xlink" version="1.1" id="Capa_1" x="0px" y="0px" viewBox="0 0 512 512" style="enable-background:new 0 0 512 512;" xml:space="preserve">
<g>
	<g>
		<polygon points="291.054,53.482 291.054,53.482 291.053,53.485   "/>
	</g>
</g>
<g>
	<g>
		<path d="M339.138,301.98h-23.085c-4.195,0-7.6,3.405-7.6,7.6c0,4.195,3.405,7.6,7.6,7.6h23.085c6.698,0,12.14,5.442,12.14,12.13    c-0.389,3.037,1.558,9.548-4.084,14.572c-2.138,1.905-4.955,3.06-8.056,3.06c-48.78,0-117.572,0-166.284,0    c-3.091,0-5.918-1.165-8.056-3.07c-5.625-5.01-3.689-11.537-4.074-14.562c0-6.688,5.442-12.13,12.13-12.13h112.798    c4.206,0,7.6-3.405,7.6-7.6c0-4.195-3.395-7.6-7.6-7.6h-23.003v-50.553c47.009,7.56,70.658-15.216,70.658-48.569    c0-2.278-0.14-3.716-0.168-3.982c-0.408-3.866-3.669-6.801-7.558-6.801c-35.15,0-53.585,12.83-62.932,23.827v-27.209    c16.058-2.772,28.09-17.057,28.293-34.504c5.28,2.898,11.269,4.449,17.531,4.449c35.22,0,47.206-46.499,16.619-64.521    c10.458-6.323,17.329-17.633,17.329-30.249c0-24.61-27.493-43.363-52.3-29.347C289.67,15.44,274.958-0.749,254.015,0.027    c-18.342,0.557-32.732,15.879-32.955,34.971c-5.29-2.898-11.279-4.449-17.531-4.449c-34.291,0-48.291,45.866-16.629,64.521    c-10.448,6.334-17.318,17.633-17.318,30.259c0,25.854,28.478,42.77,52.3,29.337c0.383,16.239,11.028,29.657,25.566,33.443v113.87    h-74.594c-15.069,0-27.331,12.262-27.331,27.331v5.503c0,13.407,9.708,24.594,22.466,26.885l14.775,82.721    c2.392,13.387,8.847,24.919,17.704,33.046c-5.462,3.233-9.13,9.191-9.13,16.011c0,10.215,8.31,18.524,18.524,18.524h92.267    c10.215,0,18.524-8.31,18.524-18.575c0-6.79-3.668-12.738-9.13-15.961c8.867-8.127,15.322-19.659,17.714-33.046l7.651-42.855    c0.74-4.135-2.017-8.087-6.141-8.826c-4.135-0.74-8.087,2.017-8.816,6.151l-7.661,42.855    c-3.435,19.213-17.754,33.157-34.049,33.157h-48.449c-16.295,0-30.614-13.944-34.049-33.157l-14.218-79.6h144.982l-1.216,6.81    c-0.74,4.135,2.017,8.087,6.141,8.826s8.087-2.017,8.826-6.151l1.773-9.931c12.758-2.29,22.466-13.478,22.466-26.885v-5.503    C366.479,314.242,354.217,301.98,339.138,301.98z M317.889,207.518c-2.481,26.193-23.878,32.97-50.339,29.278    C271.477,226.979,283.27,209.751,317.889,207.518z M324.383,134.906c-6.848,11.102-24.125,11.611-32.924,0.112    c-0.078-0.101-4.56-5.972-14.066-18.423c3.871-4.175,6.556-9.455,7.509-15.322c0.102,0.013,24.664,3.187,23.871,3.085    C323.659,106.288,332.721,122.035,324.383,134.906z M291.054,53.482c8.069-10.566,25.279-12.524,33.755,1.51    c6.684,12.034-1.551,27.243-16.468,29.155c-0.002,0-0.004,0-0.004,0c-1.339,0.172-6.608,0.851-24.468,3.151    c-1.662-5.128-4.672-9.637-8.624-13.113C275.694,73.598,291.232,53.25,291.054,53.482z M220.939,135.718    c-4.084,5.351-10.286,8.42-17.003,8.42c-12.102,0-19.153-10.028-19.153-18.808c0-8.776,6.911-18.737,18.484-20.227h-0.003    c9.326-1.203,14.258-1.839,16.702-2.154c0.008-0.001,0.013-0.002,0.024-0.003c-0.008,0.001-0.014,0.002-0.021,0.003    c0.02-0.003,0.043-0.005,0.063-0.008c0.041-0.005,0.091-0.012,0.16-0.02c-0.008,0.001-0.017,0.002-0.025,0.003    c0.475-0.062,0.847-0.109,1.132-0.146c-0.032,0.004-0.066,0.008-0.098,0.013c0.105-0.013,0.219-0.028,0.341-0.044    c-0.021,0.003-0.045,0.006-0.067,0.008c0.228-0.029,0.385-0.05,0.484-0.063c-0.006,0.001-0.012,0.002-0.019,0.002    c0.029-0.004,0.061-0.008,0.091-0.012c-0.002,0-0.004,0.001-0.006,0.001c0.057-0.007,0.076-0.01,0.07-0.009    c0.998-0.129,2.401-0.31,4.348-0.56c1.155,5.999,4.124,11.36,8.33,15.484C234.687,117.709,220.702,136.028,220.939,135.718z     M227.13,87.926c-0.103-0.013-22.81-2.944-24.274-3.132c-11.571-1.502-18.48-11.461-18.48-20.226    c0-8.46,6.975-18.818,19.153-18.818c6.455,0,12.684,2.782,17.164,8.641c0.66,0.864,3.704,4.85,15.172,19.865    C231.792,77.864,228.732,82.576,227.13,87.926z M256.711,15.217c11.248,0.334,18.22,10.762,18.22,20.217    c0,5.854-1.263,7.28-11.694,32.296c-4.874-1.314-10.253-1.362-15.282,0l-2.473-5.918c-6.514-16.635-9.222-19.527-9.222-26.378    C236.261,24.83,244.316,14.565,256.711,15.217z M259.457,110.423c-7.727,2.171-15.818-2.489-17.886-10.265    c-3.831-14.456,14.135-24.432,24.402-13.843C273.736,94.169,270.041,107.504,259.457,110.423z M237.072,153.755    c0-5.704,1.256-7.289,10.225-28.79c5.765,1.685,12.091,1.611,18.018-0.456l1.216,2.908c6.552,16.723,9.212,19.485,9.212,26.337    c0,10.2-7.687,20.237-18.828,20.237C244.242,173.792,237.072,163.953,237.072,153.755z M209.863,490.103    c29.925,0,65.107,0,92.267,0c1.804,0,3.324,1.52,3.324,3.374c0,1.804-1.52,3.324-3.324,3.324h-92.267    c-1.804,0-3.324-1.52-3.324-3.375C206.539,491.623,208.059,490.103,209.863,490.103z"/>
	</g>
</g>
<g>
	<g>
		<path d="M219.965,102.948c-0.006,0.001-0.013,0.002-0.017,0.002c0.005,0,0.013-0.001,0.021-0.002    C219.968,102.948,219.966,102.948,219.965,102.948z"/>
	</g>
</g>
<g>
	<g>
		<path d="M227.95,449.438l-9.852-70.604c-0.581-4.159-4.438-7.066-8.577-6.477c-4.158,0.58-7.057,4.419-6.477,8.577l9.852,70.604    c0.53,3.801,3.785,6.551,7.517,6.551c0.351,0,0.704-0.024,1.06-0.074C225.631,457.436,228.53,453.596,227.95,449.438z"/>
	</g>
</g>
<g>
	<g>
		<path d="M302.476,372.355c-4.152-0.588-7.998,2.32-8.577,6.477l-9.852,70.604c-0.58,4.158,2.32,7.997,6.477,8.577    c0.357,0.051,0.709,0.074,1.06,0.074c3.731,0,6.987-2.75,7.517-6.551l9.852-70.604    C309.533,376.775,306.634,372.935,302.476,372.355z"/>
	</g>
</g>
<g>
	<g>
		<path d="M255.998,372.283c-4.197,0-7.6,3.403-7.6,7.6v70.876c0,4.198,3.402,7.6,7.6,7.6c4.198,0,7.6-3.402,7.6-7.6v-70.876    C263.598,375.685,260.197,372.283,255.998,372.283z"/>
	</g>
</g>
<g>
</g>
<g>
</g>
<g>
</g>
<g>
</g>
<g>
</g>
<g>
</g>
<g>
</g>
<g>
</g>
<g>
</g>
<g>
</g>
<g>
</g>
<g>
</g>
<g>
</g>
<g>
</g>
<g>
</g>
</svg>
