<?xml version="1.0" encoding="iso-8859-1"?>
<!-- Generator: Adobe Illustrator 19.0.0, SVG Export Plug-In . SVG Version: 6.00 Build 0)  -->
<svg xmlns="http://www.w3.org/2000/svg" xmlns:xlink="http://www.w3.org/1999/xlink" version="1.1" id="Capa_1" x="0px" y="0px" viewBox="0 0 512 512" style="enable-background:new 0 0 512 512;" xml:space="preserve">
<g>
	<g>
		<path d="M423.103,503.827c-0.273-4.193-3.899-7.384-8.072-7.09c-1.9,0.115,13.582,0.039-236.508,0.061    c-4.203,0-7.596,3.403-7.596,7.596s3.393,7.596,7.596,7.596c249.766-0.032,234.798,0.089,237.491-0.101    C420.196,511.626,423.377,508.01,423.103,503.827z"/>
	</g>
</g>
<g>
	<g>
		<path d="M148.137,496.798h-17.775c-16.631,0-30.162-13.532-30.162-30.162V306.739c0-4.203-3.393-7.596-7.596-7.596    c-4.193,0-7.596,3.393-7.596,7.596v159.897c0,25.007,20.348,45.355,45.355,45.355h17.775c4.193,0,7.596-3.403,7.596-7.596    S152.33,496.798,148.137,496.798z"/>
	</g>
</g>
<g>
	<g>
		<path d="M450.774,248.48c-4.193,0-7.596,3.403-7.596,7.596v210.559c0,7.11-2.512,14.008-7.09,19.426    c-2.704,3.211-2.299,8.001,0.912,10.706c3.226,2.723,8.018,2.286,10.706-0.912c6.877-8.153,10.665-18.535,10.665-29.22V256.076    C458.37,251.883,454.977,248.48,450.774,248.48z"/>
	</g>
</g>
<g>
	<g>
		<path d="M422.506,79.346v-51.25C422.506,12.6,409.896,0,394.409,0H260.097C244.6,0,232,12.6,232,28.096v51.199h-0.456    c-9.906,0-18.109,4.637-26.597,10.939l-12.762,9.571l-13.39-18.464c3.555-4.71,5.56-10.503,5.56-16.53    c0-5.804-1.803-11.344-5.216-16.054l-6.948-9.561c-2.461-3.393-7.211-4.153-10.604-1.681c-3.403,2.461-4.153,7.211-1.691,10.604    c5.305,8.082,9.268,10.559,9.268,16.692c0,8.426-7.121,10.875-10.898,14.119c-7.562,5.49-50.363,36.56-54.693,39.703    c-2.593,1.879-5.725,2.553-8.153,2.269c-3.504-0.294-6.746-2.097-8.822-4.963C72.732,95.787,68.822,94.104,68.822,87.53    c0-3.889,1.874-7.576,5.014-9.855c64.239-45.667,61.551-47.315,69.39-46.175c4.153,0.577,7.991-2.319,8.569-6.472    c0.577-4.153-2.319-7.991-6.472-8.579c-6.999-0.967-14.023,0.744-19.831,4.963L64.912,65.379    c-12.014,8.727-15.071,25.796-6.067,38.194l15.456,21.29c5.125,7.07,13.41,11.283,22.141,11.283c3.089,0,6.107-0.506,8.953-1.509    l14.21,19.588c-24.418,18.339-23.195,17.303-23.822,17.978c-6.948,7.1-10.777,16.489-10.777,26.425v77.725    c0,4.193,3.403,7.596,7.596,7.596c4.203,0,7.596-3.403,7.596-7.596v-77.725c0-5.763,2.157-11.212,6.067-15.415    c0.102-0.076,96.312-72.218,94.853-71.112c0,0,20.13-16.388,30.426-17.613c29.65,0,52.433,0,77.695,0    c4.193,0,7.596-3.403,7.596-7.596c0-4.193-3.403-7.596-7.596-7.596h-27.256V51.331h55.848c4.193,0,7.596-3.403,7.596-7.596    c0-4.193-3.403-7.596-7.596-7.596H280.05c-7.313,0-13.258,5.945-13.258,13.258v29.899h-19.598V28.096    c0-7.12,5.793-12.904,12.904-12.904h134.313c7.11,0,12.904,5.783,12.904,12.904v51.199h-19.599V49.396    c0-7.313-5.956-13.258-13.268-13.258h-6.229c-4.203,0-7.596,3.403-7.596,7.596c0,4.193,3.393,7.596,7.596,7.596h4.305v27.965    h-32.897c-4.193,0-7.596,3.403-7.596,7.596s3.403,7.596,7.596,7.596c87.492,0,81.394-0.051,82.881,0.091    c11.567,0.972,20.672,10.696,20.672,22.515v108.597c0,4.193,3.403,7.596,7.596,7.596c4.203,0,7.596-3.403,7.596-7.596V117.094    C458.37,96.898,442.448,80.349,422.506,79.346z M131.76,145.11l-13.39-18.444l48.819-35.439l12.843,17.684L131.76,145.11z"/>
	</g>
</g>
<g>
	<g>
		<path d="M315.338,210.326c-1.358-4.415-6.35-6.6-10.523-4.598c-3.504,1.671-85.869,41.618-95.967,99.562    c-4.051,23.255,3.97,45.821,23.852,67.141c0.001,0.001,0.003,0.003,0.004,0.004c-6.533,25.697-10.421,48.686-12.68,67.918    c-0.489,4.168,2.491,7.942,6.658,8.432c0.301,0.034,0.6,0.053,0.895,0.053c3.799,0,7.081-2.846,7.534-6.711    c2.138-18.211,5.777-39.885,11.84-64.094c1.546,0.071,3.061,0.1,4.566,0.1c24.723,0,43.765-8.062,56.679-24.045    C345.156,308.38,316.574,214.307,315.338,210.326z M305.557,233.556c2.136,9.863,4.433,22.77,5.588,36.617l-29.282,9.242    C288.765,264.465,296.629,249.138,305.557,233.556z M288.79,232.305c0.007-0.005,0.014-0.009,0.022-0.014    c-7.349,13.183-13.963,26.182-19.897,38.918l-6.861-19.4C271.199,244.083,280.648,237.49,288.79,232.305z M237.52,354.688    c-11.84-15.335-16.449-31.024-13.714-46.764c0.587-3.362,1.479-6.664,2.653-9.904l17.248,36.718    C241.468,341.523,239.405,348.181,237.52,354.688z M235.212,280.921c4.203-6.32,9.236-12.296,14.704-17.865l10.039,28.389    c-3.259,7.74-6.277,15.363-9.065,22.854L235.212,280.921z M296.387,344.538c-9.952,12.311-25.209,18.479-45.413,18.393    c2.039-7.247,4.295-14.685,6.79-22.3l48.213-13.58C303.638,333.511,300.508,339.444,296.387,344.538z M310.232,310.069    l-46.426,13.077c3.006-8.242,6.31-16.664,9.905-25.227l38.171-12.048c0.001,0.001,0.001,0.002,0.001,0.003    C311.954,294.016,311.488,302.22,310.232,310.069z"/>
	</g>
</g>
<g>
</g>
<g>
</g>
<g>
</g>
<g>
</g>
<g>
</g>
<g>
</g>
<g>
</g>
<g>
</g>
<g>
</g>
<g>
</g>
<g>
</g>
<g>
</g>
<g>
</g>
<g>
</g>
<g>
</g>
</svg>
