<?xml version="1.0" encoding="iso-8859-1"?>
<!-- Generator: Adobe Illustrator 19.0.0, SVG Export Plug-In . SVG Version: 6.00 Build 0)  -->
<svg xmlns="http://www.w3.org/2000/svg" xmlns:xlink="http://www.w3.org/1999/xlink" version="1.1" id="Capa_1" x="0px" y="0px" viewBox="0 0 512.003 512.003" style="enable-background:new 0 0 512.003 512.003;" xml:space="preserve">
<g>
	<g>
		<path d="M469.777,162.111c-2.29-14.197-0.536-19.067-5.192-22.288l-79.078-54.747c-3.064-2.123-7.215-1.708-9.802,0.974    l-39.114,40.57L285.57,33.903c-2.332-4.237-7.989-5.252-11.646-2.076l-33.235,28.847l-12.902-15.832    c-2.653-3.256-7.443-3.744-10.698-1.09c-3.256,2.652-3.744,7.443-1.091,10.698c17.472,20.343,17.572,24.206,23.098,24.684    c5.63,0.477,5.196-2.455,37.688-29.652l51.456,93.51c2.469,4.484,8.585,5.297,12.136,1.611l41.789-43.344l70.935,49.11    l1.57,13.499c0.45,3.873,3.737,6.727,7.543,6.727C466.788,170.595,470.3,166.613,469.777,162.111z"/>
	</g>
</g>
<g>
	<g>
		<path d="M396.441,345.171c-3.591-2.181-8.267-1.037-10.447,2.552l-41.207,67.841l-23.512-24.228    c-3.438-3.544-9.292-2.916-11.906,1.266l-60.099,96.201l-13.129-26.57c-1.86-3.765-6.421-5.311-10.185-3.448    c-3.766,1.86-5.31,6.42-3.449,10.185l19.169,38.796c1.27,2.57,3.897,4.236,6.818,4.236c2.613,0,5.054-1.344,6.448-3.575    l62.179-99.531l23.6,24.319c3.463,3.57,9.373,2.905,11.956-1.347l46.313-76.248C401.173,352.029,400.03,347.351,396.441,345.171z"/>
	</g>
</g>
<g>
	<g>
		<path d="M473.291,192.325c-0.486-4.171-4.263-7.156-8.431-6.675c-4.172,0.486-7.16,4.26-6.674,8.431l2.71,23.309    c-17.91,0-389.305,0-406.893,0l27.793-66.348l54.144,27.781c2.018,1.036,4.39,1.117,6.473,0.221    c2.083-0.894,3.657-2.672,4.295-4.846l44.155-150.592l5.92,7.265c2.652,3.256,7.443,3.744,10.698,1.09    c3.256-2.652,3.744-7.443,1.091-10.698L193.524,2.798c-3.862-4.738-11.472-3.2-13.192,2.664L134.7,161.095L81.427,133.76    c-1.886-0.968-4.089-1.105-6.079-0.377c-1.99,0.727-3.588,2.251-4.406,4.205l-35.383,84.469c-0.416,0.992-0.638,2.219-0.565,3.4    c0.004,0.069,0.045,0.939,0.361,1.903c0.614,1.876-1.993-2.891,93.194,147.274c1.752,2.76,5.069,4.09,8.243,3.307l36.31-8.965    l35.933,72.723c1.325,2.683,4.021,4.238,6.823,4.238c5.577,0,9.323-5.893,6.811-10.974l-38.64-78.201    c-1.582-3.2-5.174-4.872-8.64-4.014l-36.931,9.118L56.406,232.599c84.811,0,312.747,0,399.513,0l-54.135,89.127    c-2.18,3.589-1.037,8.266,2.552,10.447c3.581,2.176,8.262,1.045,10.447-2.552c63.753-105.306,61.368-100.256,62.006-102.731    C477.565,223.877,476.413,222.553,473.291,192.325z"/>
	</g>
</g>
<g>
</g>
<g>
</g>
<g>
</g>
<g>
</g>
<g>
</g>
<g>
</g>
<g>
</g>
<g>
</g>
<g>
</g>
<g>
</g>
<g>
</g>
<g>
</g>
<g>
</g>
<g>
</g>
<g>
</g>
</svg>
