<?xml version="1.0" encoding="iso-8859-1"?>
<!-- Generator: Adobe Illustrator 19.0.0, SVG Export Plug-In . SVG Version: 6.00 Build 0)  -->
<svg xmlns="http://www.w3.org/2000/svg" xmlns:xlink="http://www.w3.org/1999/xlink" version="1.1" id="Capa_1" x="0px" y="0px" viewBox="0 0 512 512" style="enable-background:new 0 0 512 512;" xml:space="preserve">
<g>
	<g>
		<path d="M489.001,414.396c-4.797-10.089-93.396-196.424-97.995-206.095c-8.65-18.176-34.51-18.175-43.159,0    c-20.403,42.909-10.613,22.307-28.979,60.948c-1.804,3.791-0.182,8.322,3.608,10.126c3.781,1.804,8.322,0.193,10.126-3.598    l3.142-6.609c22.256,7.499,45.047,6.687,66.239-2.362l73.283,154.118c1.297,2.747,4.024,4.348,6.872,4.348    C487.661,425.271,491.402,419.467,489.001,414.396z M342.334,255.311l19.248-40.483c3.131-6.609,12.523-6.638,15.69,0    l18.204,38.284C377.926,260.487,359.825,260.851,342.334,255.311z"/>
	</g>
</g>
<g>
	<g>
		<path d="M502.058,441.864c-1.804-3.791-6.345-5.402-10.136-3.608c-3.791,1.804-5.402,6.345-3.598,10.136    c6.711,14.81,8.474,16.131,8.474,20.444c0,5.707-4.541,11.869-11.89,11.869H361.735c3.492-7.123,3.8-15.713,0.102-23.49    l-57.75-121.459c9.564-20.119,5.897-12.405,15.46-32.522c1.804-3.791,0.193-8.322-3.598-10.126    c-3.801-1.804-8.332-0.193-10.136,3.598c-6.281,13.209-3.865,8.128-10.147,21.338l-12.256-25.779    c-1.802-3.792-6.338-5.404-10.13-3.601c-3.791,1.803-5.404,6.338-3.601,10.129c0.007,0.015,0.013,0.027,0.019,0.042    c0.004,0.008,0.008,0.016,0.012,0.025c0.021,0.046,0.041,0.086,0.057,0.119c-0.004-0.008-0.008-0.017-0.012-0.025    c0.007,0.015,0.016,0.035,0.025,0.054c-0.005-0.01-0.008-0.017-0.013-0.027c0.013,0.026,0.023,0.05,0.032,0.068    c0.003,0.006,0.005,0.011,0.008,0.016c0.003,0.007,0.006,0.013,0.01,0.02c0.008,0.017,0.016,0.035,0.018,0.04    c0.835,1.758,5.367,11.288,25.832,54.333l0.001-0.002c54.206,114.903,53.61,110.486,53.61,115.382    c0,5.707-4.545,11.867-11.888,11.867c-0.102,0-2.251,0-2.115,0c-5.565,0-298.655,0-308.182,0c-7.344,0-11.888-6.16-11.888-11.867    c0-4.551,1.663-5.348,13.884-31.83c1.802-3.792,0.191-8.327-3.601-10.13c-3.792-1.803-8.328-0.192-10.13,3.601    C4.205,455.414,0,459.032,0,468.837c0,14.927,12.154,27.071,27.092,27.071h457.814c14.94,0,27.094-12.143,27.094-27.073    C512,459.48,507.661,454.803,502.058,441.864z"/>
	</g>
</g>
<g>
	<g>
		<path d="M451.426,56.734c-4.346,0-8.579,0.717-12.579,2.11c-6.376-24.706-28.81-42.753-55.283-42.753    c-20.392,0-39.098,10.892-49.265,28.221c-2.495-0.427-5.029-0.642-7.581-0.642c-29.125,0-50.715,27.609-43.325,56.033    c1.054,4.062,5.207,6.505,9.267,5.444c4.065-1.056,6.502-5.206,5.446-9.269c-4.878-18.766,9.373-37.004,28.611-37.004    c3.15,0,6.254,0.494,9.223,1.468c3.704,1.216,7.733-0.572,9.317-4.138c6.721-15.132,21.758-24.909,38.307-24.909    c22.272,0,40.647,17.402,41.832,39.62c0.149,2.808,1.837,5.302,4.385,6.488c2.548,1.186,5.543,0.868,7.789-0.826    c4.018-3.035,8.809-4.639,13.857-4.639c12.695,0,23.025,10.329,23.025,23.025c0,8.763-4.874,16.652-12.721,20.589    c-0.321,0.162-0.631,0.346-0.927,0.551c-1.775,1.233-3.846,1.884-5.987,1.884H322.664c-3.801-0.382-10.061-3.582-10.061-3.582    c-3.686-2.011-8.302-0.65-10.313,3.036c-2.009,3.686-0.651,8.303,3.036,10.313c0,0,7.856,4.421,17.338,5.437h132.153    c5.072,0,9.97-1.481,14.2-4.288c12.746-6.609,20.64-19.565,20.64-33.94C489.655,73.884,472.506,56.734,451.426,56.734z"/>
	</g>
</g>
<g>
	<g>
		<path d="M267.307,258.398l-63.488-133.528c-8.651-18.186-34.517-18.164-43.155,0.001l-16.912,35.568    c-1.802,3.791-0.19,8.326,3.601,10.129c3.79,1.8,8.327,0.191,10.13-3.601l16.912-35.568c3.148-6.623,12.54-6.63,15.694,0    l38.179,80.3c-42.368,32.404-80.941,10.48-92.981,1.951l6.093-12.814c1.802-3.792,0.191-8.327-3.601-10.13    c-3.792-1.802-8.328-0.191-10.13,3.601L31.461,396.61c-1.802,3.792-0.191,8.327,3.601,10.13c3.801,1.806,8.331,0.183,10.13-3.601    l83.506-175.63c32.984,21.742,72.131,22.828,106.228-1.806l18.649,39.223c1.301,2.739,4.029,4.34,6.87,4.34    C265.977,269.265,269.718,263.469,267.307,258.398z"/>
	</g>
</g>
<g>
	<g>
		<path d="M113.004,79.428c-1.289,0-2.574,0.075-3.847,0.226c-7.456-11.588-20.391-18.801-34.441-18.801    c-18.09,0-33.549,11.752-38.918,28.191c-2.197-0.541-4.472-0.817-6.789-0.817c-15.566,0-28.231,12.664-28.231,28.231    c0,9.858,5.028,18.813,13.284,23.949c0,0,4.22,2.763,8.741,3.888c4.076,1.014,8.127-1.828,8.959-5.942    c0.794-3.919-1.583-7.736-5.364-8.812l0.004-0.006l-1.429-0.554c-0.31-0.26-8.991-3.064-8.991-12.523    c0-7.182,5.844-13.027,13.027-13.027c2.854,0,5.566,0.907,7.838,2.623c2.243,1.694,5.238,2.012,7.787,0.826    c2.549-1.185,4.236-3.68,4.385-6.488c0.728-13.646,12.015-24.335,25.697-24.335c10.166,0,19.404,6.007,23.533,15.302    c1.584,3.566,5.61,5.353,9.315,4.139c1.752-0.574,3.581-0.866,5.44-0.866c9.608,0,17.425,7.817,17.425,17.425    c0,7.277-4.586,13.852-11.413,16.363c-0.367,0.135-0.723,0.298-1.065,0.488c-0.688,0.381-1.433,0.575-2.217,0.575H54.704    c-4.199,0-7.602,3.404-7.602,7.602s3.403,7.602,7.602,7.602h61.031c3.141,0,6.256-0.757,9.048-2.193    c12.494-4.839,20.85-16.999,20.85-30.435C145.633,94.065,130.995,79.428,113.004,79.428z"/>
	</g>
</g>
<g>
</g>
<g>
</g>
<g>
</g>
<g>
</g>
<g>
</g>
<g>
</g>
<g>
</g>
<g>
</g>
<g>
</g>
<g>
</g>
<g>
</g>
<g>
</g>
<g>
</g>
<g>
</g>
<g>
</g>
</svg>
