<?xml version="1.0" encoding="iso-8859-1"?>
<!-- Generator: Adobe Illustrator 19.0.0, SVG Export Plug-In . SVG Version: 6.00 Build 0)  -->
<svg xmlns="http://www.w3.org/2000/svg" xmlns:xlink="http://www.w3.org/1999/xlink" version="1.1" id="Capa_1" x="0px" y="0px" viewBox="0 0 512 512" style="enable-background:new 0 0 512 512;" xml:space="preserve">
<g>
	<g>
		<path d="M367.373,256.116H265.81c4.858-11.572,10.558-23.976,17.221-37.019c9.442,2.586,18.367,3.874,26.734,3.874    c15.801,0,29.635-4.594,41.37-13.783c48.307-37.83,41.278-140.356,40.954-144.697c-0.162-2.211-1.278-4.229-3.053-5.548    c-1.775-1.318-4.026-1.795-6.187-1.318c-3.955,0.882-97.222,22.242-121.086,78.814c-9.574,22.718-6.674,47.576,8.621,73.976    c-7.089,13.763-13.144,26.856-18.286,39.057c-5.13-29.195-14.109-59.002-25.517-87.019c22.262-28.327,29.331-55.274,21.014-80.143    c-19.3-57.708-115.143-81.137-119.21-82.1c-2.099-0.507-4.31-0.091-6.085,1.136c-1.775,1.227-2.951,3.154-3.225,5.294    c-0.517,4.057-12.221,99.828,31.511,142.892c16.837,16.589,38.501,22.194,62.313,19.949    c13.864,34.463,21.146,63.824,24.878,86.634h-24.919c-4.199,0-7.607,3.398-7.607,7.607c0,4.199,3.408,7.607,7.607,7.607h154.514    c6.694,0,12.14,5.446,12.14,12.14v16.055c0,5.822-4.118,10.69-9.584,11.866c-2.125,0.473-217.294,0.407-219.809,0    c-5.467-1.187-9.574-6.045-9.574-11.866v-16.055c0-6.694,5.446-12.14,12.14-12.14h29.747c4.199,0,7.607-3.408,7.607-7.607    c0-4.209-3.408-7.607-7.607-7.607h-29.747c-15.081,0-27.353,12.272-27.353,27.353v16.055c0,15.081,12.272,27.353,27.353,27.353    h0.203l18.418,103.104c3.053,17.12,11.613,31.704,23.276,41.542c-7.434,3.266-12.647,10.71-12.647,19.341    c0,11.653,9.483,21.136,21.126,21.136h113.936c11.643,0,21.126-9.483,21.126-21.136c0-8.58-5.152-15.994-12.525-19.29    c5.943-5.02,11.106-11.349,15.183-18.783c2.018-3.692,0.669-8.306-3.012-10.335c-3.692-2.018-8.306-0.669-10.335,3.022    c-8.327,15.193-22.333,24.26-37.475,24.26H230.1c-20.994,0-39.422-17.84-43.814-42.424l-17.941-100.437h183.369l-16.42,91.938    c-0.74,4.128,2.008,8.083,6.146,8.824c4.138,0.74,8.083-2.018,8.824-6.156l16.907-94.605h0.203    c15.081,0,27.353-12.272,27.353-27.353v-16.055C394.726,268.388,382.454,256.116,367.373,256.116z M341.754,197.211    c-13.235,10.365-30.497,13.063-51.41,8.053c3.873-7.097,8.03-14.347,12.491-21.728l53.238-2.56    C352.087,187.284,347.352,192.82,341.754,197.211z M363.996,165.365l-51.321,2.468c0-0.001,0.001-0.002,0.002-0.002    c5.132-7.931,10.619-15.984,16.481-24.118l42.414-3.366C369.695,148.925,367.231,157.435,363.996,165.365z M374.371,124.857    c0,0.001,0,0.003-0.001,0.005l-33.108,2.628c0.001-0.002,0.003-0.004,0.004-0.006c10.862-14.057,22.84-28.296,36.065-42.526    C377.221,95.719,376.551,109.928,374.371,124.857z M327.94,94.056c11.765-6.065,23.57-10.771,33.449-14.209    c-11.166,12.282-21.43,24.554-30.883,36.694c-0.002,0.002-0.003,0.004-0.005,0.007L327.94,94.056L327.94,94.056z M313.559,102.291    c0.002-0.001,0.004-0.003,0.007-0.004l3.645,32.001v0.001c-5.345,7.394-10.385,14.716-15.152,21.957l-8.359-38.719    C299.651,111.871,306.433,106.802,313.559,102.291z M275.78,142.373c1.501-3.56,3.357-6.968,5.507-10.233    c0.001-0.001,0.002-0.002,0.003-0.004l9.171,42.477c-4.035,6.64-7.826,13.179-11.405,19.596    C270.283,175.456,269.167,158.062,275.78,142.373z M189.822,41.305c2.328,1.48,10.732,6.148,20.096,14.079l-11.41,48.347    c-7.24-13.18-12.539-21.681-15.034-25.856L189.822,41.305z M175.745,33.76c-0.256,0.871,0.038-0.403-4.4,25.031    c-8.337-12.626-17.23-25.243-26.703-37.808C153.517,24.015,164.499,28.254,175.745,33.76z M132.705,30.404    c9.747,12.972,18.641,25.659,26.734,38.012l-25.861-4.996C133.544,62.705,132.17,49.272,132.705,30.404z M141.539,104.786    c-3.541-10.674-4.55-17.713-6.045-25.501l35.127,6.786c5.94,9.731,11.394,19.241,16.402,28.506l-45.261-9.756    C141.688,104.806,141.614,104.799,141.539,104.786z M161.276,138.711c-4.899-4.818-8.996-10.517-12.404-16.795l47.23,10.18    c0,0.001,0.001,0.002,0.001,0.002c3.834,7.719,7.343,15.255,10.558,22.577C187.888,155.487,172.969,150.223,161.276,138.711z     M209.29,124.273l13.24-56.104c1.263,1.837,7.054,8.298,10.633,18.97c5.964,17.83,1.42,37.658-13.499,59.088    C216.419,138.916,212.952,131.595,209.29,124.273z M203.061,484.951H230.1c10.587,0,76.413,0,86.897,0    c3.256,0,5.913,2.657,5.913,5.913c0,3.266-2.657,5.923-5.913,5.923H203.061c-3.256,0-5.913-2.657-5.913-5.923    C197.148,487.609,199.805,484.951,203.061,484.951z"/>
	</g>
</g>
<g>
	<g>
		<path d="M223.614,436.74l-12.17-87.222c-0.58-4.16-4.42-7.065-8.585-6.483c-4.16,0.581-7.063,4.424-6.483,8.585l12.17,87.222    c0.578,4.141,4.403,7.063,8.585,6.483C221.291,444.744,224.194,440.901,223.614,436.74z"/>
	</g>
</g>
<g>
	<g>
		<path d="M317.201,343.037c-4.165-0.584-8.005,2.321-8.585,6.482l-12.17,87.222c-0.58,4.161,2.323,8.004,6.483,8.585    c0.357,0.05,0.711,0.074,1.061,0.074c3.735,0,6.994-2.753,7.524-6.556l12.171-87.222    C324.264,347.461,321.361,343.618,317.201,343.037z"/>
	</g>
</g>
<g>
	<g>
		<path d="M260.029,342.964c-4.201,0-7.607,3.406-7.607,7.607v87.559c0,4.201,3.406,7.607,7.607,7.607    c4.201,0,7.607-3.406,7.607-7.607V350.57C267.635,346.369,264.23,342.964,260.029,342.964z"/>
	</g>
</g>
<g>
</g>
<g>
</g>
<g>
</g>
<g>
</g>
<g>
</g>
<g>
</g>
<g>
</g>
<g>
</g>
<g>
</g>
<g>
</g>
<g>
</g>
<g>
</g>
<g>
</g>
<g>
</g>
<g>
</g>
</svg>
