<?xml version="1.0" encoding="iso-8859-1"?>
<!-- Generator: Adobe Illustrator 19.0.0, SVG Export Plug-In . SVG Version: 6.00 Build 0)  -->
<svg xmlns="http://www.w3.org/2000/svg" xmlns:xlink="http://www.w3.org/1999/xlink" version="1.1" id="Capa_1" x="0px" y="0px" viewBox="0 0 511.999 511.999" style="enable-background:new 0 0 511.999 511.999;" xml:space="preserve">
<g>
	<g>
		<path d="M284.96,354.906c-1.265-4-5.537-6.218-9.537-4.948c-4.001,1.268-6.217,5.538-4.949,9.539    c1.969,6.217,2.181,8.788,2.181,9.605c0,9.073-7.381,16.455-16.454,16.455c-9.073,0-16.454-7.382-16.454-16.455    c0-5.669,8.16-23.841,17.702-41.893c0.689,1.514,1.406,3.107,2.138,4.758c1.702,3.837,6.196,5.565,10.027,3.863    c3.836-1.702,5.565-6.191,3.863-10.027c-4.597-10.361-8.523-18.364-8.688-18.699c-2.659-5.412-10.376-5.766-13.424-0.408    c-4.478,7.867-26.818,47.848-26.818,62.407c0,17.453,14.2,31.653,31.652,31.653c17.452,0,31.652-14.2,31.652-31.653    C287.852,365.645,286.933,361.134,284.96,354.906z"/>
	</g>
</g>
<g>
	<g>
		<path d="M130.217,307.105c-2.658-5.412-10.375-5.766-13.423-0.408c-0.174,0.306-4.32,7.598-9.332,17.275    c-1.93,3.726-0.475,8.312,3.251,10.242c3.727,1.928,8.311,0.474,10.242-3.252c0.667-1.288,1.32-2.534,1.951-3.729    c7.578,16.696,15.176,35.699,15.176,41.87c0,9.073-7.381,16.455-16.454,16.455c-9.073,0-16.454-7.382-16.454-16.455    c0-0.698,0.233-3.576,3.235-11.294c1.521-3.911-0.416-8.315-4.327-9.836c-3.912-1.522-8.315,0.415-9.837,4.327    c-2.912,7.487-4.268,12.827-4.268,16.802c0,17.453,14.2,31.653,31.652,31.653c17.452,0,31.652-14.2,31.652-31.653    C153.281,354.778,134.069,314.944,130.217,307.105z"/>
	</g>
</g>
<g>
	<g>
		<path d="M329.383,418.349c-2.7-5.497-10.484-5.692-13.462-0.338c-0.567,0.999-4.568,8.086-9.294,17.206    c-1.93,3.726-0.475,8.312,3.251,10.242c3.724,1.931,8.311,0.475,10.242-3.251c0.669-1.29,1.322-2.538,1.951-3.732    c7.579,16.697,15.177,35.7,15.177,41.871c0,9.073-7.382,16.454-16.455,16.454c-9.073,0-16.454-7.381-16.454-16.454    c0-0.698,0.233-3.576,3.235-11.294c1.521-3.911-0.416-8.315-4.327-9.836c-3.91-1.523-8.315,0.416-9.837,4.327    c-2.912,7.488-4.268,12.827-4.268,16.802c0,17.453,14.2,31.652,31.652,31.652c17.454,0,31.653-14.199,31.653-31.652    C352.447,466.023,333.235,426.189,329.383,418.349z"/>
	</g>
</g>
<g>
	<g>
		<path d="M214.746,466.586c-1.418-3.949-5.769-6.001-9.719-4.585c-3.949,1.417-6.003,5.769-4.586,9.718    c2.076,5.783,2.237,8.066,2.237,8.628c0,9.073-7.381,16.454-16.454,16.454c-9.073,0-16.454-7.381-16.454-16.454    c0-6.17,7.599-25.174,15.176-41.87c1.055,1.998,2.175,4.15,3.324,6.4c1.909,3.738,6.483,5.221,10.224,3.312    c3.737-1.909,5.22-6.485,3.312-10.223c-5.302-10.384-10.034-18.769-10.707-19.956c-2.97-5.346-10.757-5.168-13.463,0.338    c-3.852,7.84-23.064,47.674-23.064,61.998c0,17.453,14.2,31.652,31.652,31.652c17.452,0,31.652-14.199,31.652-31.652    C217.876,476.909,216.882,472.536,214.746,466.586z"/>
	</g>
</g>
<g>
	<g>
		<path d="M399.36,307.105c-2.704-5.511-10.491-5.681-13.461-0.339c-0.567,0.999-4.568,8.086-9.294,17.206    c-1.93,3.726-0.475,8.312,3.251,10.242c3.723,1.931,8.312,0.475,10.242-3.251c0.669-1.29,1.322-2.537,1.951-3.731    c7.578,16.696,15.176,35.699,15.176,41.87c0,9.073-7.381,16.455-16.454,16.455c-9.073,0-16.454-7.382-16.454-16.455    c0-0.698,0.233-3.577,3.235-11.293c1.522-3.911-0.414-8.315-4.326-9.837c-3.911-1.523-8.315,0.415-9.837,4.326    c-2.914,7.487-4.271,12.827-4.271,16.803c0,17.453,14.2,31.653,31.652,31.653s31.652-14.2,31.652-31.653    C422.423,354.778,403.211,314.945,399.36,307.105z"/>
	</g>
</g>
<g>
	<g>
		<path d="M473.031,119.375c-27.349-18.281-61.776-18.998-89.086-4.135C372.14,35.419,292.826-16.557,214.54,4.826    c-4.048,1.105-6.434,5.284-5.328,9.332c1.106,4.049,5.283,6.433,9.333,5.328c73.642-20.113,147.417,32.831,151.495,109.252    c0.323,6.072,7.316,9.32,12.168,5.659c23.982-18.115,56.982-19.363,82.376-2.388c3.488,2.333,8.209,1.394,10.54-2.094    C477.456,126.426,476.519,121.706,473.031,119.375z"/>
	</g>
</g>
<g>
	<g>
		<path d="M195.104,19.905c-2.036-3.67-6.662-4.996-10.33-2.959c-23.664,13.125-43.087,33.368-55.271,57.453    C56.821,55.709-10.616,118.413,1.782,191.861c0.704,4.164,4.651,6.924,8.759,6.227c4.137-0.699,6.925-4.62,6.227-8.758    C5.729,124.039,68.212,70.049,131.221,90.726c3.703,1.216,7.731-0.57,9.313-4.136c10.54-23.729,28.869-43.742,51.61-56.355    C195.814,28.2,197.139,23.575,195.104,19.905z"/>
	</g>
</g>
<g>
	<g>
		<path d="M281.503,254.524c-5.755,0,11.687,0-193.981,0.002c-17.06,0-30.066-3.874-39.762-11.844    c-9.123-7.497-16.539-16.575-22.046-26.98c-1.964-3.709-6.56-5.127-10.271-3.162c-3.709,1.964-5.126,6.561-3.162,10.271    c6.453,12.194,15.142,22.829,25.827,31.611c12.527,10.297,28.689,15.302,49.414,15.302l193.981-0.002    c4.198,0,7.599-3.402,7.599-7.599C289.102,257.926,285.7,254.524,281.503,254.524z"/>
	</g>
</g>
<g>
	<g>
		<path d="M496.564,142.618c-2.375-3.459-7.104-4.339-10.565-1.965c-3.46,2.375-4.339,7.105-1.965,10.565    c31.056,45.241,0.505,102.972-51.241,103.304H311.899c-4.198,0-7.599,3.402-7.599,7.599c0,4.197,3.401,7.599,7.599,7.599h120.942    c43.408-0.279,78.783-35.363,78.857-78.223C511.276,188.834,512.823,166.305,496.564,142.618z"/>
	</g>
</g>
<g>
</g>
<g>
</g>
<g>
</g>
<g>
</g>
<g>
</g>
<g>
</g>
<g>
</g>
<g>
</g>
<g>
</g>
<g>
</g>
<g>
</g>
<g>
</g>
<g>
</g>
<g>
</g>
<g>
</g>
</svg>
