<?xml version="1.0" encoding="iso-8859-1"?>
<!-- Generator: Adobe Illustrator 19.0.0, SVG Export Plug-In . SVG Version: 6.00 Build 0)  -->
<svg xmlns="http://www.w3.org/2000/svg" xmlns:xlink="http://www.w3.org/1999/xlink" version="1.1" id="Capa_1" x="0px" y="0px" viewBox="0 0 512.002 512.002" style="enable-background:new 0 0 512.002 512.002;" xml:space="preserve">
<g>
	<g>
		<path d="M500.64,326.529l-67.838-117.178l7.592-28.268c1.085-4.054-1.318-8.23-5.372-9.315c-4.054-1.095-8.22,1.318-9.315,5.372    c-3.193,11.896-13.57,50.554-18.65,69.48c-2.08,7.803-10.279,12.225-17.93,9.832c-0.001,0-0.002-0.001-0.003-0.001    c-0.009-0.003-0.027-0.009-0.055-0.017c0.009,0.003,0.016,0.005,0.024,0.008c-0.087-0.027-0.15-0.048-0.195-0.062    c0.01,0.003,0.02,0.006,0.03,0.01c-1.37-0.433-10.877-3.432-62.055-19.58l-32.738-10.338    c-11.756-3.718-13.606-19.859-2.544-25.907c0.002-0.001,0.007-0.004,0.012-0.006c0.012-0.007,0.021-0.012,0.033-0.018    c-0.006,0.003-0.012,0.006-0.016,0.009c0.015-0.008,0.041-0.023,0.071-0.039c0.007-0.004,0.013-0.007,0.02-0.011    c0.027-0.015,0.063-0.034,0.101-0.056c0.036-0.019,0.052-0.028,0.057-0.031c0.926-0.508,4.6-2.522,17.137-9.397    c3.723-2.04,5.069-6.763,2.929-10.47c-39.9-70.764-45.784-81.197-46.467-82.41c0.004,0.008,0.008,0.013,0.01,0.018    c-0.004-0.007-0.011-0.02-0.022-0.039c0.001,0.001,0.002,0.003,0.002,0.004c-0.007-0.012-0.012-0.021-0.018-0.031    c-0.001-0.001-0.002-0.003-0.002-0.004c0-0.001-0.001-0.002-0.001-0.002c0,0,0,0,0,0.001c-0.048-0.085-0.056-0.099-0.046-0.081    c-3.823-6.802-13.614-6.804-17.441-0.004c-1.52,2.703-24.431,43.436-25.969,46.172c-2.88,5.12,0.907,11.332,6.619,11.332    c2.656,0,5.23-1.399,6.629-3.882l21.437-38.12c0.001,0.002,0.002,0.003,0.003,0.004c0.001,0.002,0.002,0.004,0.003,0.006    c-0.001-0.001-0.001-0.002-0.002-0.004c0.003,0.005,0.005,0.01,0.008,0.015c0.001,0.003,0.003,0.006,0.005,0.008    c0.001,0.001,0.001,0.002,0.002,0.003c0-0.001-0.001-0.002-0.001-0.003c0.001,0.002,0.002,0.004,0.004,0.006    c-0.001-0.001-0.001-0.002-0.002-0.004c0.005,0.008,0.006,0.01,0.004,0.007c0.308,0.547,3.976,7.067,38.199,67.879l-10.602,5.808    c-22.735,12.478-19.278,45.995,5.271,53.739l48.58,15.335l31.704,54.884c1.409,2.433,3.963,3.801,6.588,3.801    c5.786,0,9.519-6.315,6.578-11.403l-23.403-40.512c23.392,7.02,26.383,9.244,33.792,9.244c13.412,0,24.949-9.079,28.349-21.751    l5.494-20.474l60.246,104.052c4.348,7.51,6.72,16.024,6.892,24.67c0,0,0.005,17.286-12.315,34.319l-39.569,46.218    c-6.198,7.303-15.041,11.321-15.041,11.321c-14.45,6.537-14.667,2.6-133.881,3.852c-4.198,0-7.602,3.404-7.602,7.602v20.474    c0,12.498-14.904,18.856-23.95,10.237c-37.521-35.935,6.798,6.516-71.943-68.902c-5.843-5.591-5.818-14.897,0-20.444    c3.113-2.98,57.301-54.867,60.155-57.601c3.031-2.899,3.132-7.713,0.233-10.744c-2.909-3.031-7.723-3.142-10.754-0.233    l-24.964,23.9h-32.553c-3.865,0-7.31,2.776-7.795,6.61c-0.588,4.638,3.016,8.593,7.539,8.593h16.937l-19.308,18.487    c-12.088,11.543-12.102,30.851,0,42.407l20.474,19.612h-96.957c-12.659,0-24.66-5.575-32.92-15.274    c-44.024-53.471-51.819-53.575-52.472-80.723c0.326-7.238,2.38-14.321,5.99-20.613c0.07-0.112,67.119-115.943,67.179-116.063    c2.037-3.578,0.841-8.119-2.686-10.257c-19.348-11.658-23.469-14.141-24.19-14.575c0.004,0.002,0.007,0.004,0.01,0.006    c-0.005-0.003-0.016-0.009-0.029-0.017c0.005,0.003,0.009,0.006,0.014,0.008c-0.009-0.005-0.016-0.01-0.024-0.014    c-0.009-0.006-0.019-0.011-0.032-0.019c0.003,0.002,0.007,0.004,0.01,0.006c-0.015-0.009-0.028-0.017-0.04-0.023    c0.002,0.001,0.004,0.003,0.007,0.004c-0.008-0.005-0.016-0.01-0.025-0.015c-0.001,0-0.001-0.001-0.002-0.001    c-0.075-0.046-0.19-0.115-0.359-0.216c-8.608-5.197-8.699-16.464-2.544-22.369c3.031-2.909,3.132-7.713,0.233-10.744    c-2.909-3.031-7.723-3.132-10.754-0.233c-13.451,12.926-11.886,36.053,5.22,46.36l18.254,11.017L10.646,330.078    c-11.554,18.457-11.895,47.29,5.108,68.496c0.068,0.101-0.525-0.606,42.823,50.516c11.169,13.115,27.386,20.636,44.505,20.636    h112.84l35.586,34.086c18.727,17.903,49.665,4.485,49.665-21.214v-12.872c3.646,0,105.354,0,108.481,0    c15.364,0,24.529-5.33,31.594-9.311c8.418-4.743,12.936-11.433,52.359-57.392C512.044,381.507,514.712,350.845,500.64,326.529z"/>
	</g>
</g>
<g>
	<g>
		<polygon points="389.125,256.45 389.118,256.448 389.128,256.451   "/>
	</g>
</g>
<g>
	<g>
		<path d="M405.102,120.989l-17.788,9.761c-61.375-106.018-59.12-102.941-64.331-108.907c-4.52-5.24-9.892-9.72-15.893-13.217    C297.462,2.98,286.454,0,275.275,0h-45.803c-8.93,0-17.642,2.615-24.356,6.619h-0.01c-8.011,4.812-14.367,12.04-16.014,15.335    c-0.377,0.556-0.966,1.541-1.267,2.058l-22.329,38.566c-2.098,3.639-0.862,8.291,2.767,10.389    c3.639,2.108,8.291,0.862,10.389-2.767l16.558-28.593h0.004c5.411-9.328,8.378-16.487,17.606-21.883    c4.781-2.817,14.465-4.52,20.555-4.52h41.901c11.477,0,22.301,4.19,30.508,10.987c8.247,6.829,11.411,14.055,12.355,15.416    l59.739,103.18c2.068,3.578,6.608,4.845,10.227,2.858c0.172-0.091,24.204-13.268,24.305-13.328    c10.592-5.787,22.461,3.335,20.849,14.301c-0.598,4.156,2.281,8.007,6.436,8.615c4.145,0.598,8.007-2.281,8.605-6.436    C451.705,127.161,426.488,109.272,405.102,120.989z"/>
	</g>
</g>
<g>
	<g>
		<path d="M417.102,362.62l-18.893-32.717c-2.098-3.628-6.75-4.875-10.379-2.777c-3.639,2.098-4.885,6.75-2.787,10.389    l12.294,21.295h-96.167v-13.997c0-29.549-39.78-37.348-39.528-21.568c0.073,4.57,4.034,7.976,8.462,7.459    c7.49-0.851,15.862,4.561,15.862,14.109c0,5.814,0,13.184,0,21.599c0,4.198,3.404,7.602,7.602,7.602c36.432,0,83.009,0,116.955,0    C416.371,374.014,420.026,367.684,417.102,362.62z"/>
	</g>
</g>
<g>
	<g>
		<path d="M206.972,201.314c0.726-1.262,3.595-6.247,13.346-23.19c2.068-3.659,0.76-8.291-2.899-10.348    c-3.659-2.058-8.291-0.76-10.349,2.899c-3.779,6.577-4.881,8.498-5.158,8.98v0.001c-0.001,0.002-0.004,0.007-0.006,0.011    c0.002-0.003,0.004-0.006,0.006-0.01c0.002-0.004,0.001-0.001-0.007,0.013c-0.001,0.001-0.001,0.002-0.002,0.003    c-0.005,0.008-0.01,0.018-0.018,0.032c0.002-0.003,0.003-0.005,0.005-0.008c-0.002,0.003-0.003,0.005-0.004,0.008    c-0.021,0.037-0.046,0.081-0.052,0.091l-6.213-27.66c-3.752-16.728-20.417-26.208-36.316-21.913l-18.264,4.946l22.379-38.657    c2.108-3.629,0.862-8.281-2.767-10.389c-3.629-2.098-8.281-0.862-10.389,2.777l-30.052,51.925L81.97,151.184    c-4.054,1.095-6.456,5.271-5.352,9.325c1.094,4.053,5.269,6.445,9.324,5.351c68.758-18.636,58.545-15.868,77.335-20.96    c7.816-2.13,15.764,2.817,17.504,10.561c7.996,35.544,12.705,56.493,19.187,85.321c0.791,3.537,3.933,5.94,7.409,5.94    c4.916,0,8.48-4.561,7.419-9.274l-8.038-35.758c0.002-0.004,0.004-0.007,0.006-0.011c0.002-0.003,0.005-0.009,0.008-0.013    c0.005-0.008,0.013-0.022,0.02-0.034c0.061-0.105,0.107-0.188,0.136-0.236c-0.004,0.007-0.009,0.015-0.013,0.023    c0.012-0.02,0.023-0.041,0.036-0.064c0.007-0.013,0.013-0.023,0.017-0.03l-0.001,0.001c0-0.001,0.001-0.001,0.001-0.002    c0,0,0,0.001-0.001,0.001c0.001-0.001,0.001-0.001,0.001-0.002C206.976,201.308,206.977,201.307,206.972,201.314z"/>
	</g>
</g>
<g>
	<g>
		<path d="M211.045,262.157c-3.406-2.443-8.159-1.662-10.612,1.743c-4.032,5.614-11.958,8.158-18.923,3.973    c-16.719-10.084-17.738-11.584-21.842-10.511c-1.976,0.507-3.659,1.794-4.683,3.558c-18.366,31.743-41.818,72.277-58.785,101.601    c-2.954,5.104,0.73,11.492,6.628,11.492c14.563,0,34.384,0,48.385,0c4.16,0,7.786-3.203,7.915-7.36    c0.133-4.306-3.311-7.843-7.598-7.843h-35.535l48.276-83.578c6.885,3.551,13.039,9.943,24.527,9.943    c9.446,0,18.406-4.642,23.991-12.406C215.231,269.364,214.461,264.61,211.045,262.157z"/>
	</g>
</g>
<g>
</g>
<g>
</g>
<g>
</g>
<g>
</g>
<g>
</g>
<g>
</g>
<g>
</g>
<g>
</g>
<g>
</g>
<g>
</g>
<g>
</g>
<g>
</g>
<g>
</g>
<g>
</g>
<g>
</g>
</svg>
