<?xml version="1.0" encoding="iso-8859-1"?>
<!-- Generator: Adobe Illustrator 19.0.0, SVG Export Plug-In . SVG Version: 6.00 Build 0)  -->
<svg xmlns="http://www.w3.org/2000/svg" xmlns:xlink="http://www.w3.org/1999/xlink" version="1.1" id="Capa_1" x="0px" y="0px" viewBox="0 0 512 512" style="enable-background:new 0 0 512 512;" xml:space="preserve">
<g>
	<g>
		<path d="M311.761,496.797H154.609c-11.565,0-22.531-5.656-29.332-15.143c-2.453-3.406-7.206-4.186-10.612-1.743    c-3.416,2.453-4.196,7.196-1.743,10.612C122.58,503.973,138.158,512,154.609,512h157.153c4.196,0,7.602-3.406,7.602-7.602    C319.363,500.202,315.957,496.797,311.761,496.797z"/>
	</g>
</g>
<g>
	<g>
		<path d="M110.914,251.15c-4.196,0-7.602,3.406-7.602,7.602V457.41c0,4.196,3.406,7.602,7.602,7.602    c4.196,0,7.602-3.406,7.602-7.602V258.752C118.516,254.556,115.11,251.15,110.914,251.15z"/>
	</g>
</g>
<g>
	<g>
		<path d="M234.224,44.333h-33.316c1.318-4.5,3.436-8.757,6.304-12.629c2.503-3.375,1.794-8.129-1.581-10.632    c-3.375-2.503-8.129-1.794-10.632,1.581c-4.845,6.537-8.149,13.896-9.771,21.68H156.98c-19.93,0-35.444,16.024-35.444,35.454    v12.345h-17.92c-8.848,0-17.17,3.446-23.433,9.7c-20.714,20.714-6.042,56.284,23.129,56.549v69.964    c0,4.196,3.406,7.602,7.602,7.602c4.196,0,7.602-3.406,7.602-7.602v-69.956h55.3c4.196,0,7.602-3.406,7.602-7.602    c0-4.196-3.406-7.602-7.602-7.602c-11.64,0-52.623,0-70.199,0c-15.927,0-23.908-19.405-12.68-30.599    c3.385-3.385,7.885-5.25,12.68-5.25c11.37,0,79.675,0,93.835,0c0.041,0,0.091,0,0.132-0.01c4.027-0.049,7.47-3.352,7.47-7.592    c0-4.231-3.443-7.602-7.602-7.602c-11.953,0-45.046,0-60.712,0c0.076-12.011-0.185-12.852,0.274-15.609    c1.571-9.842,9.973-16.987,19.967-16.987c15.41,0,61.589,0,77.243,0c4.196,0,7.602-3.406,7.602-7.602    C241.825,47.739,238.42,44.333,234.224,44.333z"/>
	</g>
</g>
<g>
	<g>
		<path d="M401.086,338.276c-4.206,0-7.602,3.406-7.602,7.602v114.836c0,5.189-1.095,10.207-3.233,14.869    c-0.122,0.264-0.243,0.507-0.355,0.74c-6.021,12.436-18.781,20.474-32.505,20.474h-15.224c-4.196,0-7.602,3.406-7.602,7.602    s3.406,7.602,7.602,7.602h15.224c19.511,0,37.644-11.403,46.198-29.069c0.152-0.304,0.294-0.618,0.466-0.973    c3.071-6.7,4.632-13.845,4.632-21.244V345.878C408.688,341.681,405.282,338.276,401.086,338.276z"/>
	</g>
</g>
<g>
	<g>
		<path d="M408.384,92.133h-17.93c-0.104-11.071,0.277-13.542-0.456-18.011c-2.757-17.261-17.474-29.789-34.988-29.789h-33.255    C316.484,19.055,294.024,0,267.205,0h-27.417c-5.666,0-11.25,0.862-16.622,2.544c-4.014,1.267-6.233,5.534-4.977,9.538    c1.257,4.004,5.524,6.233,9.538,4.966c3.892-1.226,7.946-1.845,12.061-1.845h27.417c18.386,0,33.954,12.315,38.89,29.13h-41.465    c-4.196,0-7.602,3.406-7.602,7.602c0,4.196,3.406,7.602,7.602,7.602c10.744,0,79.697,0,90.379,0    c11.246,0,20.241,8.991,20.241,20.251v12.345c-30.184,0-117.542,0-147.392,0c-4.196,0-7.602,3.395-7.602,7.602    c0,4.262,3.49,7.602,7.602,7.602c21.1,0,158.153,0,180.525,0c15.956,0,23.892,19.387,12.68,30.599    c-3.385,3.385-7.896,5.25-12.68,5.25c-7.025,0-196.446,0-204.161,0c-4.196,0-7.602,3.406-7.602,7.602    c0,4.196,3.406,7.602,7.602,7.602h189.262v157.082c0,4.196,3.395,7.602,7.602,7.602c4.196,0,7.602-3.406,7.602-7.602V158.382    c8.734-0.078,16.938-3.511,23.119-9.693C452.639,127.858,437.696,92.133,408.384,92.133z"/>
	</g>
</g>
<g>
	<g>
		<path d="M253.446,260.477c-0.001,0.002-0.002,0.004-0.003,0.006c0.002-0.006,0.005-0.01,0.008-0.015    C253.449,260.472,253.448,260.473,253.446,260.477z"/>
	</g>
</g>
<g>
	<g>
		<g>
			<path d="M364.179,341.701l-28.695-49.586c6.188-23.114,6.807-24.393,6.529-27.454c-0.18-0.531,0.146-6.444-5.134-11.598     c0,0-4.263-4.159-9.502-4.803c-5.538-1.179-10.118,1.252-14.91,4.095c-22.661-39.007-25.174-46.117-34.468-51.181     c-4.848-2.641-10.492-4.387-16.181-4.387c-19.108,0.206-21.235-0.513-26.299,0.792c-6.751,1.703-12.404,6.085-15.796,11.941     l-28.622,49.44l-23.142,6.273c-0.101,0.073-12.224,2.956-12.785,16.015c-0.549,12.785,11.086,16.74,12.566,18.057     c-26.995,46.651-27.931,46.859-29.107,53.862c-0.913,5.339-0.339,9.072-0.339,9.072c0.735,6.671,4.076,13.484,6.762,16.171     l18.662,22.017c5.731,6.731,14.066,10.597,22.861,10.597h47.503l14.254,13.639c6.095,5.846,14.786,5.892,19.882,2.897l1.04-0.573     c0-0.01,0-0.01,0.01-0.01c4.47-2.657,7.418-7.065,8.169-12.191c0,0,0.32-2.882,0.198-3.761h42.907     c8.764-0.001,17.078-3.835,22.809-10.525l17.275-20.193C369.764,369.647,371.426,354.182,364.179,341.701z M236.811,213.77     c1.548-0.908,3.352-1.354,5.001-1.354h20.006c6.096,0,10.707,3.006,14.16,8.117c0.031,0.052,0.063,0.104,0.094,0.156     l22.683,39.188l4.012,6.919c2.084,3.605,6.617,4.928,10.305,3.053l10.826-5.939c0,0,0.76-0.506,1.619-0.001     c0,0,0.52,0.315,0.701,0.674c0,0,0.367,0.59,0.139,1.256l-6.846,25.507c-4.749,17.186-4.185,16.824-5.085,17.463     c-0.429,0.215-0.836,0.446-1.5,0.239l-18.995-5.992c-23.77-7.513-23.09-7.097-23.423-7.763     c-2.539-3.81,9.987-4.319,11.982-11.357c0.563-2.032,0.292-4.199-0.76-6.012c-0.083-0.148-18.44-32.716-20.936-37.144     c-0.001-0.001,0,0,0-0.001c-0.185-0.329-0.293-0.519-0.288-0.512c-2.995-5.314-10.635-5.311-13.628,0l-15.307,27.226     l-0.166-0.719c-1.956-8.75-10.087-14.476-19.005-13.409C234.173,216.592,232.874,216.072,236.811,213.77z M277.448,349.349     c-0.11-0.22-0.601-8.134-8.773-12.566c-0.101-0.029-4.389-2.92-10.692-2.023c-5.737,0.576-9.647,4.681-9.647,4.681     l-14.765,14.129H200.01l14.911-25.809c0.201,0.104,1.935,1.264,4.574,2.001c0,0,9.862,3.774,18.401-6.283     c5.218-6.215,3.053-14.244,3.053-14.244l-4.292-19.11c12.235-21.603,15.844-27.977,16.761-29.597c0,0,0-0.001,0.002-0.003     l-0.001,0.002c0.004-0.006,0.008-0.013,0.011-0.02c0.004-0.007,0.01-0.018,0.017-0.029c0.017-0.03,0.032-0.058,0.048-0.084     c-0.001,0.002-0.002,0.004-0.003,0.005c0.003-0.005,0.005-0.009,0.008-0.015c0.001-0.001,0.001-0.002,0.002-0.003     c0,0,0,0.001-0.001,0.001c0.002-0.004,0.005-0.008,0.007-0.013c0.014-0.024,0.028-0.05,0.044-0.076     c0.019-0.033,0.039-0.07,0.064-0.112c-0.007,0.013-0.015,0.026-0.023,0.041c0.05-0.087,0.078-0.139,0.092-0.163     c-0.002,0.003-0.004,0.007-0.006,0.01c0.004-0.006,0.006-0.011,0.01-0.018c0.001-0.001,0.002-0.004,0.003-0.005l10.555,18.745     c0,0-6.711,2.771-9.201,11.527c-2.156,7.58,2.391,17.607,11.66,20.534l19.568,6.179l21.11,36.541h-29.748     C277.551,351.447,277.795,352.361,277.448,349.349z M186.579,395.393L186.579,395.393c-4.209,0-8.211-1.865-10.951-5.095     c-16.078-20.117-20.94-21.85-21.798-29.768c0,0-0.694-5.082,2.062-9.552c0-0.001,0.001-0.001,0.001-0.001     c0.002-0.003,0.004-0.006,0.006-0.01c-0.002,0.003-0.003,0.006-0.005,0.008c0.5-0.864,0.157-0.273,0.067-0.118     c0.287-0.496,4.025-6.95,29.159-50.365c2.115-3.668,0.927-8.357-2.668-10.565c-11.6-6.943-11.895-6.788-11.649-8.151     c0.224-1.237,1.24-1.467,1.24-1.467c44.928-12.165,42.107-11.441,42.47-11.441c0.667,0,1.438,0.448,1.636,1.324l4.584,20.391     c6.118,27.198,5.468,22.422,3.897,24.038c-0.901,0.5-1.334-0.114-8.46-4.365c-3.769-2.265-8.62-0.983-10.806,2.782     c-20.279,35.117-24.746,42.851-25.52,44.193c0.002-0.004,0.005-0.008,0.007-0.012c-0.025,0.044-0.056,0.097-0.094,0.164     c0.003-0.005,0.006-0.01,0.009-0.016c-0.011,0.019-0.02,0.035-0.028,0.049c0.001-0.002,0.002-0.004,0.003-0.006     c-0.003,0.004-0.005,0.009-0.008,0.013c-0.007,0.012-0.012,0.021-0.017,0.029c-0.004,0.007-0.008,0.013-0.012,0.021     c-0.001,0.002-0.002,0.003-0.003,0.004c-3.004,5.201,0.757,11.722,6.773,11.722h30.759l-0.344,0.333     c-7.117,6.811-7.12,18.214,0,25.028l0.876,0.833H186.579z M348.76,370.136l-17.286,20.193c-2.752,3.219-6.742,5.064-10.931,5.064     c-10.626,0-40.348,0-50.722,0c-4.324,0-7.815,3.491-7.815,7.815c0.074,9.78,0.111,9.46-0.392,10.054     c-0.101,0.029-1.248,1.289-2.473,0.116l-16.525-15.817c-14.94-14.689-15.442-14.097-15.442-15.515     c0-1.403,0.612-0.924,14.91-14.983l17.057-16.338c1.003-0.923,2.221-0.366,2.657,0.365v0.01     c0.408,0.511,0.106,1.719,0.209,10.284c0,4.314,3.491,7.815,7.815,7.815c10.357,0,40.375,0,51.098,0     c2.792,0,5.377-1.49,6.773-3.907c1.397-2.417,1.397-5.397-0.01-7.815l-19.339-33.478c9.087,2.743,18.3-2.192,21.37-10.648     l20.943,36.187C354.512,356.189,353.662,364.429,348.76,370.136z"/>
			<path d="M253.562,260.272c-0.004,0.006-0.007,0.013-0.011,0.019c-0.014,0.024-0.026,0.047-0.038,0.067     C253.532,260.327,253.548,260.299,253.562,260.272z"/>
		</g>
	</g>
</g>
<g>
	<g>
		<polygon points="253.429,260.506 253.43,260.506 253.432,260.501   "/>
	</g>
</g>
<g>
	<g>
		<path d="M155.926,350.918c0.006-0.009,0.011-0.018,0.017-0.029C155.976,350.833,155.958,350.863,155.926,350.918z"/>
	</g>
</g>
<g>
</g>
<g>
</g>
<g>
</g>
<g>
</g>
<g>
</g>
<g>
</g>
<g>
</g>
<g>
</g>
<g>
</g>
<g>
</g>
<g>
</g>
<g>
</g>
<g>
</g>
<g>
</g>
<g>
</g>
</svg>
