<?xml version="1.0" encoding="iso-8859-1"?>
<!-- Generator: Adobe Illustrator 19.0.0, SVG Export Plug-In . SVG Version: 6.00 Build 0)  -->
<svg xmlns="http://www.w3.org/2000/svg" xmlns:xlink="http://www.w3.org/1999/xlink" version="1.1" id="Capa_1" x="0px" y="0px" viewBox="0 0 512 512" style="enable-background:new 0 0 512 512;" xml:space="preserve">
<g>
	<g>
		<path d="M462.426,10.472h-31.437C428.606,4.349,422.645,0,415.681,0h-41.565c-9.063,0-16.433,7.37-16.433,16.423v11.8    c-13.5-0.603-22.912,1.92-36.01-3.994c-18.332-7.239-31.616-17.832-56.528-17.832c-16.404,0.848-30.345-2.779-48.621,6.042    c-3.382,1.607,0.796-0.275-29.298,12.094c-3.883,1.592-5.748,6.032-4.156,9.915c1.592,3.893,6.032,5.758,9.915,4.167    c27.581-11.351,26.631-10.774,30.15-12.48c14.103-6.807,24.711-3.774,42.011-4.532c30.915,0,45.81,21.827,75.04,21.827h17.498    v23.033c0,4.197,3.406,7.603,7.603,7.603c4.207,0,7.603-3.406,7.603-7.603c0-22.799,0-28.163,0-50.04    c0-0.649,0.578-1.217,1.227-1.217h9.59h31.975c0.649,0,1.227,0.568,1.227,1.217c0,18.783,0,79.865,0,108.14    c0,0.659-0.578,1.227-1.227,1.227c-5.911,0-23.672,0-41.565,0c-0.649,0-1.227-0.568-1.227-1.227c0-9.48,0-19.224,0-27.686    c0-1.805-0.629-3.457-1.673-4.755c-1.389-1.734-3.528-2.849-5.931-2.849c-2.413,0-4.562,1.125-5.941,2.879    c-12.713,0.223-26.622,1.957-37.621,12.368c-7.35,6.965-16.981,10.797-27.098,10.797c-1.632,0-3.274-0.101-4.907-0.304    c-65.656-8.423-68.563-7.97-70.914-9.246c-0.819-7.412,6.134-16.352,15.967-16.352c13.255,0.032,19.071,0.21,21.948,0.228    l5.856,0.06c5.169,0.243,9.058-2.62,8.986-7.597C271.359,67.65,259.427,55.89,244.97,55.89    c-19.481,0.751-31.333-2.326-48.651,4.684c-65.011,26.033-62.924,26.135-66.626,26.135c-11.198,0-14.809-14.756-5.251-20.063    c0.01-0.01,0.01-0.01,0.01-0.01l40.379-16.514c3.893-1.592,5.748-6.022,4.156-9.915c-1.581-3.883-6.022-5.748-9.915-4.156    c-32.046,13.143-41.249,16.795-41.464,17.011c-23.728,11.863-15.324,48.854,12.084,48.854c3.325,0,6.579-0.639,9.661-1.886    l62.672-25.365c5.839-2.362,11.993-3.569,18.279-3.569h24.665c3.072,0,5.88,1.247,7.938,3.254l-5.9-0.142h-12.236    c-17.204,0-31.194,13.99-31.194,31.194c0,5.322,2.23,14.538,17.123,16.403l67.143,8.303c2.24,0.274,4.521,0.416,6.782,0.416    c14.031,0,27.362-5.312,37.55-14.963c6.255-5.921,14.527-7.755,25.507-8.151v17.153c0,9.063,7.37,16.433,16.433,16.433h41.565    c6.965,0,12.926-4.349,15.308-10.472h31.437c4.197,0,7.603-3.396,7.603-7.603V18.076    C470.029,13.869,466.623,10.472,462.426,10.472z M454.823,115.318h-22.709V25.679h22.709V115.318z"/>
	</g>
</g>
<g>
	<g>
		<path d="M250.667,287.701h-56.356c-4.197,0-7.603,3.406-7.603,7.603c0,4.197,3.406,7.603,7.603,7.603h56.356    c6.691,0,12.135,5.444,12.135,12.135v8.779c0,4.4-2.352,8.262-5.87,10.391c-1.825,1.115-3.974,1.754-6.265,1.754    c-8.313,0-168.647,0-181.345,0c-2.291,0-4.43-0.639-6.265-1.744c-3.518-2.129-5.88-6.002-5.88-10.401v-8.779    c0-6.691,5.444-12.135,12.145-12.135h94.576c4.207,0,7.603-3.406,7.603-7.603c0-4.197-3.396-7.603-7.603-7.603H69.322    c-15.085,0-27.352,12.267-27.352,27.342v8.779c0,13.97,10.533,25.537,24.077,27.149l15.886,88.959    c2.575,14.416,9.58,26.815,19.181,35.472C84.206,484.234,89.876,512,109.681,512h100.618c19.872,0,25.428-27.791,8.566-36.597    c9.601-8.648,16.606-21.046,19.181-35.472l4.096-22.891c0.73-4.136-2.017-8.09-6.154-8.83c-4.126-0.73-8.08,2.017-8.82,6.154    l-4.086,22.891c-3.731,20.884-19.333,36.04-37.094,36.04h-51.997c-17.761,0-33.353-15.156-37.084-36.04l-15.379-86.08h156.933    l-5.941,33.252c-0.74,4.126,2.007,8.08,6.144,8.82c4.126,0.75,8.08-2.017,8.82-6.154l6.458-36.121    c13.534-1.612,24.067-13.179,24.067-27.149v-8.779C278.009,299.968,265.742,287.701,250.667,287.701z M106.356,491.826    c0-1.805,1.521-3.325,3.325-3.325h24.31h51.997h24.31c1.805,0,3.325,1.521,3.325,3.325v1.642c0,1.805-1.521,3.325-3.325,3.325    H109.681c-1.805,0-3.325-1.521-3.325-3.325V491.826z"/>
	</g>
</g>
<g>
	<g>
		<path d="M129.342,445.483l-10.574-75.775c-0.58-4.16-4.42-7.066-8.582-6.48c-4.159,0.58-7.06,4.422-6.48,8.581l10.574,75.775    c0.53,3.803,3.787,6.554,7.521,6.554c0.35,0,0.704-0.023,1.06-0.074C127.021,453.484,129.922,449.641,129.342,445.483z"/>
	</g>
</g>
<g>
	<g>
		<path d="M209.799,363.228c-4.167-0.587-8.002,2.321-8.582,6.48l-10.574,75.775c-0.58,4.159,2.322,8.001,6.48,8.581    c0.357,0.051,0.711,0.074,1.06,0.074c3.734,0,6.991-2.751,7.521-6.554l10.574-75.775    C216.859,367.65,213.958,363.807,209.799,363.228z"/>
	</g>
</g>
<g>
	<g>
		<path d="M159.993,363.156c-4.199,0-7.603,3.403-7.603,7.603v76.068c0,4.2,3.404,7.603,7.603,7.603    c4.199,0,7.603-3.403,7.603-7.603v-76.068C167.596,366.559,164.192,363.156,159.993,363.156z"/>
	</g>
</g>
<g>
	<g>
		<path d="M147.235,127.058c-1.163-4.004-5.336-6.322-9.35-5.202c-0.356,0.1-8.817,2.512-18.008,8.898    c-3.449,2.397-4.302,7.135-1.905,10.583c2.397,3.447,7.135,4.3,10.582,1.905c2.104-1.462,4.156-2.654,5.999-3.608    c0.52,3.116,0.782,6.108,0.782,8.953c0,21.337-15.055,31.304-24.53,35.463c-0.271-2.259-0.406-4.456-0.406-6.577    c0-5.163,0.807-10.021,2.4-14.436c1.424-3.95-0.623-8.307-4.573-9.732c-3.951-1.423-8.308,0.623-9.731,4.574    c-2.191,6.075-3.301,12.667-3.301,19.594c0,5.84,0.793,12.033,2.358,18.406c0.845,3.462,3.946,5.794,7.374,5.793    c0.534,0,1.078-0.057,1.621-0.174c15.217-3.307,43.995-18.619,43.995-52.909C150.54,141.85,149.428,134.607,147.235,127.058z"/>
	</g>
</g>
<g>
	<g>
		<path d="M198.633,237.144c-4.203-0.154-7.709,3.159-7.843,7.356c-0.081,2.539-0.345,4.878-0.674,6.909    c-15.105-7.732-22.751-19.316-22.751-34.521c0-4.129,0.576-7.922,1.267-10.989c6.76,3.874,12.015,8.61,15.681,14.141    c2.318,3.501,7.036,4.458,10.538,2.138c3.501-2.319,4.458-7.037,2.138-10.538c-6.618-9.989-16.712-17.882-30.003-23.461    c-3.801-1.595-8.176,0.127-9.872,3.882c-0.203,0.447-4.955,11.128-4.955,24.828c0,13.881,5.263,39.12,40.507,52.198    c0.872,0.323,1.765,0.477,2.644,0.477c3.063,0,5.946-1.863,7.103-4.889c0.131-0.344,3.221-8.54,3.577-19.687    C206.123,240.788,202.83,237.277,198.633,237.144z"/>
	</g>
</g>
<g>
</g>
<g>
</g>
<g>
</g>
<g>
</g>
<g>
</g>
<g>
</g>
<g>
</g>
<g>
</g>
<g>
</g>
<g>
</g>
<g>
</g>
<g>
</g>
<g>
</g>
<g>
</g>
<g>
</g>
</svg>
