<?xml version="1.0" encoding="iso-8859-1"?>
<!-- Generator: Adobe Illustrator 19.0.0, SVG Export Plug-In . SVG Version: 6.00 Build 0)  -->
<svg xmlns="http://www.w3.org/2000/svg" xmlns:xlink="http://www.w3.org/1999/xlink" version="1.1" id="Capa_1" x="0px" y="0px" viewBox="0 0 511.999 511.999" style="enable-background:new 0 0 511.999 511.999;" xml:space="preserve">
<g>
	<g>
		<path d="M508.096,174.902c-2.333-1.298-57.535-31.668-94.518-14.089c-17.427,8.287-26.536,25.136-29.589,43.973    c-20.034,9.271-34.722,18.188-36.446,19.151c2.566-15.834,9.231-43.993,26.455-76.97c14.059,3.652,27.712,2.637,39.794-5.407    c34.103-22.691,34.701-90.299,34.711-93.169c0.02-4.605-4.088-8.216-8.683-7.557c-2.647,0.375-64.96,9.667-83.736,46.062    c-8.024,15.56-6.999,33.322,3.043,52.798c0.233,0.446,0.507,0.872,0.822,1.258c-17.822,34.306-27.144,68.774-29.021,93.261    c-9.321,6.032-18.279,12.306-27.034,18.844c-0.058-2.016-0.092-4.032-0.093-6.052c0-0.3,0-0.616,0-0.952v-14.082    c0.002-16.744,0.008-47.89,0.003-106.761c0-9.829-8.003-17.833-17.822-17.833h-73.399v0.004H112.002    c-15.37,0-27.875,12.505-27.875,27.875v16.73c0,4.203,3.405,7.608,7.608,7.608s7.608-3.405,7.608-7.608v-16.729    c0-6.981,5.679-12.659,12.659-12.659h23.182v66.913c0,4.203,3.405,7.608,7.608,7.608s7.608-3.405,7.608-7.608v-66.913h125.524    c6.981,0,12.659,5.679,12.659,12.659v82.326c-0.156,34.039-1.321,59.58,9.153,94.594h0.398    c11.335,37.952,27.21,57.664,42.779,86.215c1.413,2.43,3.962,3.785,6.583,3.785c5.781,0,9.542-6.318,6.57-11.433    c-13.096-26.026-41.861-58.621-48.872-119.521c26.336-20.554,55.26-38.833,85.477-52.773    c9.819,12.933,21.778,19.932,35.685,20.825c0.974,0.061,1.948,0.091,2.921,0.091c39.915,0,79.445-50.972,81.149-53.193    C513.249,182.499,512.153,177.164,508.096,174.902z M431.663,69.418c-0.609,4.514-1.42,9.312-2.475,14.171l-11.006,0.02    C422.423,78.882,426.906,74.145,431.663,69.418z M417.939,61.648h0.01c-4.118,4.189-8.034,8.389-11.767,12.578l-0.304-8.287    C409.997,64.275,414.074,62.845,417.939,61.648z M405.331,98.845l19.699-0.03c-1.197,3.53-2.546,6.969-4.078,10.215    c0,0,0,0,0,0.01l-22.884-0.669C400.38,105.205,402.805,102.03,405.331,98.845z M390.916,73.232l0.669,18.299    c0,0.061,0.01,0.132,0.01,0.193c-2.039,2.637-4.017,5.254-5.924,7.851l-2.84-20.886C385.368,76.721,388.086,74.906,390.916,73.232    z M387.802,123.291l23.341,0.68c-1.785,1.897-3.723,3.56-5.802,4.94c-6.664,4.433-14.465,5.833-23.625,4.199    C383.643,129.864,385.672,126.588,387.802,123.291z M369.554,93.955c3.307,23.726,2.921,22.671,3.5,24.182    c-1.39,2.191-2.719,4.362-4.007,6.512C368.661,122.581,361.977,108.775,369.554,93.955z M439.819,170.509    c3.216-0.03,6.472,0.172,9.738,0.558l-9.393,13.308c-3.276,0.862-6.532,1.775-9.748,2.729L439.819,170.509z M420.008,174.607    l-11.199,19.77c-2.455,0.923-4.889,1.877-7.303,2.84C405.158,186.252,411.254,178.807,420.008,174.607z M427.312,224.088    c-8.358-0.538-15.682-4.473-22.184-11.939c3.449-1.41,6.959-2.769,10.499-4.078l19.283,15.591    C432.343,224.078,429.807,224.24,427.312,224.088z M451.768,217.728l-19.08-15.429c3.763-1.146,7.557-2.221,11.391-3.226    l17.133,12.994C458.118,214.157,454.953,216.065,451.768,217.728z M465.888,174.323c3.479,0.943,6.837,2.008,10.022,3.104    c-4.605,0.578-9.17,1.278-13.684,2.079L465.888,174.323z M473.739,202.472l-10.215-7.75c7.151-1.309,14.394-2.313,21.728-2.992    C481.783,195.25,477.908,198.912,473.739,202.472z"/>
	</g>
</g>
<g>
	<g>
		<path d="M385.521,444.841l-16.157-27.791c-2.113-3.634-6.772-4.865-10.4-2.753c-3.632,2.112-4.865,6.769-2.753,10.4l16.158,27.791    c1.078,1.851-0.211,3.54-2.082,3.54c-0.936,0,3.931,1.695-77.393-30.67c-14.706-7.139-32.284-6.645-46.761,1.888l-36.71,21.634    c-14.504,8.549-32.737,8.201-46.976-1.211l-27.096-17.91c-14.062-9.295-31.805-10.772-47.146-4.06    c-3.85,1.684-5.604,6.169-3.921,10.019c1.684,3.849,6.169,5.601,10.019,3.92c10.632-4.651,22.924-3.619,32.657,2.814l27.095,17.91    c19.134,12.648,43.622,13.103,63.091,1.626l36.709-21.633c5.274-3.108,11.297-4.751,17.418-4.751    c8.503,0,14.011,3.099,16.014,3.903c80.929,31.815,76.985,31.737,82.997,31.737C383.731,471.244,392.511,456.865,385.521,444.841z    "/>
	</g>
</g>
<g>
	<g>
		<path d="M15.557,452.489l52.901-90.983c20.204-34.748,30.883-74.362,30.883-114.559v-64.53c0-4.203-3.405-7.608-7.608-7.608    s-7.608,3.405-7.608,7.608v64.53c0,37.513-9.966,74.484-28.821,106.911L2.4,444.848c-0.244,0.42-0.47,0.845-0.67,1.263    C0.582,448.494,0,451.004,0,453.576c0,9.499,8.138,17.523,17.773,17.523c2.394,0,4.746-0.487,6.993-1.451l41.591-17.844    c3.862-1.656,5.648-6.13,3.992-9.991c-1.658-3.861-6.131-5.646-9.992-3.992l-41.588,17.843c-0.344,0.148-0.669,0.219-0.996,0.219    c-1.376,0-2.557-1.269-2.557-2.308c0-0.269,0.072-0.55,0.226-0.867C15.478,452.632,15.519,452.558,15.557,452.489z"/>
	</g>
</g>
<g>
	<g>
		<path d="M142.793,212.331c-4.203,0-7.608,3.405-7.608,7.608v75.063c0,4.203,3.405,7.608,7.608,7.608s7.608-3.405,7.608-7.608    v-75.063C150.401,215.736,146.995,212.331,142.793,212.331z"/>
	</g>
</g>
<g>
	<g>
		<path d="M231.039,296.51c-4.203,0-7.608,3.405-7.608,7.608v75.063c0,4.203,3.405,7.608,7.608,7.608s7.608-3.405,7.608-7.608    v-75.063C238.646,299.915,235.241,296.51,231.039,296.51z"/>
	</g>
</g>
<g>
	<g>
		<path d="M231.039,237.684c-4.203,0-7.608,3.405-7.608,7.608v28.395c0,4.201,3.405,7.608,7.608,7.608s7.608-3.405,7.608-7.608    v-28.395C238.646,241.089,235.241,237.684,231.039,237.684z"/>
	</g>
</g>
<g>
</g>
<g>
</g>
<g>
</g>
<g>
</g>
<g>
</g>
<g>
</g>
<g>
</g>
<g>
</g>
<g>
</g>
<g>
</g>
<g>
</g>
<g>
</g>
<g>
</g>
<g>
</g>
<g>
</g>
</svg>
