<?xml version="1.0" encoding="iso-8859-1"?>
<!-- Generator: Adobe Illustrator 19.0.0, SVG Export Plug-In . SVG Version: 6.00 Build 0)  -->
<svg xmlns="http://www.w3.org/2000/svg" xmlns:xlink="http://www.w3.org/1999/xlink" version="1.1" id="Capa_1" x="0px" y="0px" viewBox="0 0 512 512" style="enable-background:new 0 0 512 512;" xml:space="preserve">
<g>
	<g>
		<path d="M204.159,366.598c-69.733-33.795-91.996-124.576-42.944-186.67c2.604-3.297,2.043-8.082-1.254-10.686    c-3.296-2.603-8.081-2.043-10.686,1.254c-54.505,68.998-31.289,171.248,48.249,209.795c3.773,1.829,8.329,0.261,10.165-3.528    C209.521,372.982,207.941,368.431,204.159,366.598z"/>
	</g>
</g>
<g>
	<g>
		<path d="M392.423,225.99c-0.909-4.102-4.973-6.691-9.074-5.781c-4.102,0.91-6.69,4.973-5.781,9.075    c19.458,87.755-58.93,165.908-146.405,146.68c-4.102-0.901-8.162,1.693-9.064,5.798c-0.902,4.103,1.693,8.162,5.798,9.064    C326.178,412.427,414.29,324.613,392.423,225.99z"/>
	</g>
</g>
<g>
	<g>
		<path d="M381.837,195.644c-38.558-79.19-140.732-102.684-209.871-47.878c-3.293,2.61-3.847,7.396-1.236,10.689    c2.611,3.294,7.397,3.846,10.689,1.236c60.486-47.948,151.729-29.285,186.736,42.615c1.317,2.706,4.026,4.28,6.846,4.279    C380.545,206.584,384.319,200.74,381.837,195.644z"/>
	</g>
</g>
<g>
	<g>
		<path d="M257.654,0c-4.202,0-7.608,3.406-7.608,7.608v74.858c0,4.202,3.406,7.608,7.608,7.608s7.608-3.406,7.608-7.608V7.608    C265.262,3.406,261.856,0,257.654,0z"/>
	</g>
</g>
<g>
	<g>
		<path d="M110.606,161.662l-64.828-37.429c-3.64-2.102-8.292-0.854-10.393,2.785c-2.101,3.639-0.854,8.292,2.785,10.393    c66.875,38.187,64.793,38.449,68.625,38.449C114.56,175.861,117.328,165.542,110.606,161.662z"/>
	</g>
</g>
<g>
	<g>
		<path d="M112.258,337.98c-2.101-3.639-6.755-4.886-10.393-2.785l-64.829,37.429c-3.639,2.101-4.886,6.754-2.785,10.393    c2.107,3.651,6.764,4.88,10.393,2.785l64.829-37.429C113.112,346.272,114.359,341.619,112.258,337.98z"/>
	</g>
</g>
<g>
	<g>
		<path d="M255.387,421.926c-4.202,0-7.608,3.406-7.608,7.608v74.858c0,4.202,3.406,7.608,7.608,7.608    c4.202,0,7.608-3.406,7.608-7.608v-74.858C262.995,425.332,259.589,421.926,255.387,421.926z"/>
	</g>
</g>
<g>
	<g>
		<path d="M474.871,374.59l-64.829-37.429c-3.639-2.103-8.292-0.854-10.393,2.785c-2.101,3.639-0.854,8.292,2.785,10.393    l64.829,37.429c3.625,2.093,8.283,0.868,10.393-2.785C479.756,381.344,478.51,376.69,474.871,374.59z"/>
	</g>
</g>
<g>
	<g>
		<path d="M478.79,128.982c-2.101-3.639-6.754-4.886-10.393-2.785l-64.829,37.429c-6.723,3.88-3.951,14.198,3.811,14.198    c3.727,0,1.335-0.025,68.626-38.449C479.644,137.275,480.891,132.621,478.79,128.982z"/>
	</g>
</g>
<g>
	<g>
		<path d="M83.222,247.872H34.829c-4.202,0-7.608,3.407-7.608,7.608c0,4.202,3.406,7.608,7.608,7.608h48.393    c4.202,0,7.608-3.406,7.608-7.608C90.831,251.279,87.424,247.872,83.222,247.872z"/>
	</g>
</g>
<g>
	<g>
		<path d="M172.849,397.539c-3.639-2.102-8.292-0.855-10.393,2.785l-24.197,41.91c-2.101,3.639-0.854,8.292,2.785,10.393    c3.623,2.093,8.283,0.87,10.393-2.785l24.197-41.91C177.735,404.293,176.488,399.64,172.849,397.539z"/>
	</g>
</g>
<g>
	<g>
		<path d="M372.041,445.353l-24.197-41.91c-2.101-3.64-6.754-4.886-10.393-2.785c-3.639,2.101-4.886,6.754-2.785,10.393    l24.197,41.91c2.107,3.651,6.764,4.88,10.393,2.785C372.895,453.645,374.142,448.992,372.041,445.353z"/>
	</g>
</g>
<g>
	<g>
		<path d="M477.171,249.573h-48.393c-4.202,0-7.608,3.407-7.608,7.608c0,4.202,3.406,7.608,7.608,7.608h48.393    c4.202,0,7.608-3.406,7.608-7.608C484.779,252.98,481.373,249.573,477.171,249.573z"/>
	</g>
</g>
<g>
	<g>
		<path d="M371.099,57.768c-3.639-2.103-8.292-0.855-10.393,2.785l-24.197,41.91c-2.939,5.086,0.774,11.413,6.582,11.413    c2.629,0,5.187-1.364,6.596-3.805l24.197-41.91C375.985,64.522,374.738,59.868,371.099,57.768z"/>
	</g>
</g>
<g>
	<g>
		<path d="M175.633,103.029l-24.197-41.91c-2.102-3.639-6.755-4.887-10.393-2.785c-3.639,2.101-4.886,6.754-2.785,10.393    l24.196,41.91c1.409,2.441,3.966,3.805,6.596,3.805C174.852,114.442,178.574,108.12,175.633,103.029z"/>
	</g>
</g>
<g>
</g>
<g>
</g>
<g>
</g>
<g>
</g>
<g>
</g>
<g>
</g>
<g>
</g>
<g>
</g>
<g>
</g>
<g>
</g>
<g>
</g>
<g>
</g>
<g>
</g>
<g>
</g>
<g>
</g>
</svg>
