<?xml version="1.0" encoding="iso-8859-1"?>
<!-- Generator: Adobe Illustrator 19.0.0, SVG Export Plug-In . SVG Version: 6.00 Build 0)  -->
<svg xmlns="http://www.w3.org/2000/svg" xmlns:xlink="http://www.w3.org/1999/xlink" version="1.1" id="Capa_1" x="0px" y="0px" viewBox="0 0 512.005 512.005" style="enable-background:new 0 0 512.005 512.005;" xml:space="preserve">
<g>
	<g>
		<path d="M510.205,379.748c-6.8-30.846-27.652-56.535-56.246-69.654v-228.8c0-4.211-3.414-7.625-7.625-7.625    s-7.625,3.414-7.625,7.625v30.301h-23.019c-4.211,0-7.625,3.414-7.625,7.625s3.414,7.625,7.625,7.625h23.019v31.907h-23.019    c-4.211,0-7.625,3.414-7.625,7.625c0,4.211,3.414,7.625,7.625,7.625h23.019v31.915h-23.019c-4.211,0-7.625,3.414-7.625,7.625    c0,4.211,3.414,7.625,7.625,7.625h23.019v31.907h-23.019c-4.211,0-7.625,3.414-7.625,7.625c0,4.211,3.414,7.625,7.625,7.625    h23.019v46.799c0,3.123,1.904,5.93,4.807,7.085c26.348,10.483,45.711,33.221,51.797,60.825c0.905,4.106,4.966,6.711,9.088,5.804    C508.513,387.929,511.112,383.86,510.205,379.748z"/>
	</g>
</g>
<g>
	<g>
		<path d="M377.685,201.959c-4.211,0-7.625,3.414-7.625,7.625v100.51c-41.47,19.033-65.549,64.101-56.851,110.152    c0.781,4.131,4.763,6.86,8.908,6.077c4.138-0.783,6.858-4.771,6.076-8.908c-7.501-39.707,13.534-79.781,52.309-95.209    c2.901-1.155,4.807-3.962,4.807-7.085V209.584C385.31,205.373,381.896,201.959,377.685,201.959z"/>
	</g>
</g>
<g>
	<g>
		<path d="M505.209,404.122c-4.18-0.458-7.951,2.563-8.41,6.749c-4.739,43.271-41.19,75.901-84.79,75.901    c-30.625,0-59.063-16.559-74.215-43.214c-2.081-3.66-6.735-4.941-10.397-2.86c-3.661,2.081-4.942,6.735-2.86,10.397    c17.855,31.412,51.373,50.928,87.472,50.928c51.393,0,94.362-38.473,99.949-89.491    C512.417,408.346,509.395,404.581,505.209,404.122z"/>
	</g>
</g>
<g>
	<g>
		<path d="M412.011,9.981c-23.131,0-41.95,18.818-41.95,41.95v127.155c-0.001,4.21,3.413,7.624,7.624,7.624    c4.211,0,7.625-3.414,7.625-7.625V51.93c0-14.722,11.978-26.7,26.7-26.7c14.246,0,26.217,11.581,26.685,25.817    c0.138,4.208,3.664,7.488,7.872,7.371c4.209-0.138,7.509-3.663,7.371-7.872C453.201,28.178,434.393,9.98,412.011,9.981z"/>
	</g>
</g>
<g>
	<g>
		<path d="M420.354,343.889v-53.265c0-4.473-3.66-8.133-8.133-8.133h-0.318c-4.473,0-8.133,3.66-8.133,8.133v53.252    c-28.035,4.013-49.658,28.174-49.658,57.3c0,31.924,25.972,57.897,57.897,57.897s57.897-25.972,57.897-57.897    C469.905,372.086,448.337,347.948,420.354,343.889z M412.01,443.823c-23.516,0-42.647-19.131-42.647-42.647    c0-23.515,19.131-42.647,42.647-42.647c23.515,0,42.647,19.132,42.647,42.647C454.657,424.692,435.526,443.823,412.01,443.823z"/>
	</g>
</g>
<g>
	<g>
		<path d="M334.709,139.671c-1.325-2.671-4.002-4.33-6.984-4.33c-5.685,0-9.548,6.034-6.967,11.243    c25.58,51.627,21.047,111.125-8.007,157.229c-0.506,0.803-1.747,0.53-1.869-0.414c-3.292-25.786,0.575-34.555,0.684-35.366    c6.716-21.914,10.391-46.93-11.458-55.01c-8.978-3.308-17.622-0.508-26.479,2.736c-4.837,1.403-30.467,12.059-58.646,12.06    c-21.047,0-38.564-6.126-52.063-18.209c-7.414-6.636-12.534-19.954-10.148-26.384c1.911-5.043,9.457-4.396,9.799-4.518    c5.096,0,13.431,2.771,20.874,2.771c16.31,0,24.302-16.082,24.573-30.754c0.191-10.734-2.892-20.812-2.155-29.663    c1.44-16.996,13.62-27.735,26.021-53.177c0.226-0.463,0.783-0.689,1.271-0.507c26.79,10.031,51.023,27.226,69.689,50.877    c2.688,3.415,7.572,3.935,10.929,1.285c3.37-2.655,3.954-7.558,1.298-10.928C252.796,29.756,136.126,18.075,59.481,85.85    c-3.226,2.843-3.534,7.758-0.686,10.99c2.845,3.204,7.764,3.529,10.993,0.675c40.018-35.374,94.711-48.672,146.283-35.486    c0.628,0.162,0.943,0.858,0.66,1.434c-10.283,20.875-24.577,34.877-26.373,56.303c-0.94,11.175,2.26,21.342,2.091,30.678    c-0.114,6.213-2.932,13.991-6.796,15.219c-4.01,1.284-15.259-2.526-23.181-2.526c-0.186,0.078-18.431-1.092-24.299,14.69    c-5.251,14.164,3.371,33.549,14.369,43.387c34.532,30.918,82.766,25.16,126.322,9.201c4.456-1.703,11.51-4.389,15.853-2.779    c11.33,4.129,5.428,24.552,1.892,36.081c-3.953,12.941-3.414,32.258,1.646,59.056c0.518,2.748-53.083,63.884-137.315,55.485    c-0.641-0.064-1.055-0.694-0.873-1.303c8.557-28.574,21.49-71.755,7.632-97.992c-16.019-30.313-49.5-56.628-89.564-70.39    c-46.703-15.967-42.374-14.075-58.687-22.063c-0.418-0.204-0.643-0.665-0.549-1.12c3.122-15.032,8.537-30.162,16.154-44.224    c10.279-18.953,14.369-19.028,13.517-24.741c-1.017-6.814-9.814-9.063-13.953-3.483c-60.813,82.2-38.818,197.732,44.957,252.661    c3.528,2.335,8.387,1.39,10.768-2.232c2.353-3.597,1.353-8.435-2.229-10.786c-50.056-32.851-77.309-90.176-71.944-148.834    c0.065-0.713,0.819-1.124,1.45-0.827c11.81,5.621,9.085,4.506,55.458,20.375c36.421,12.511,66.648,36.035,80.857,62.927    c10.881,20.615-0.816,59.665-9.364,88.199c-0.201,0.739-0.555,1.265-1.31,1.103c-18.488-3.93-24.634-8.123-28.171-8.123    c-8.577,0-10.827,11.932-2.827,15.04c49.192,19.086,102.926,15.523,148.786-9.462    C344.338,327.607,376.767,224.565,334.709,139.671z"/>
	</g>
</g>
<g>
</g>
<g>
</g>
<g>
</g>
<g>
</g>
<g>
</g>
<g>
</g>
<g>
</g>
<g>
</g>
<g>
</g>
<g>
</g>
<g>
</g>
<g>
</g>
<g>
</g>
<g>
</g>
<g>
</g>
</svg>
