<?xml version="1.0" encoding="iso-8859-1"?>
<!-- Generator: Adobe Illustrator 19.0.0, SVG Export Plug-In . SVG Version: 6.00 Build 0)  -->
<svg xmlns="http://www.w3.org/2000/svg" xmlns:xlink="http://www.w3.org/1999/xlink" version="1.1" id="Capa_1" x="0px" y="0px" viewBox="0 0 511.999 511.999" style="enable-background:new 0 0 511.999 511.999;" xml:space="preserve">
<g>
	<g>
		<path d="M266.546,100.396c-0.305-14.133-12.051-25.632-26.183-25.632c-0.191,0-0.382,0.002-0.571,0.006    c-5.429,0.116-10.604,1.877-14.966,5.091c-3.382,2.493-4.103,7.253-1.611,10.635c2.493,3.382,7.254,4.103,10.635,1.61    c1.823-1.344,3.991-2.08,6.27-2.129l0.243-0.002c5.924,0,10.847,4.822,10.975,10.751l0.003,0.241    c0,5.924-4.822,10.849-10.751,10.977l-0.243,0.002c-3.244,0-6.309-1.429-8.405-3.918c-2.704-3.214-7.502-3.625-10.716-0.92    s-3.625,7.503-0.92,10.716c4.993,5.932,12.298,9.334,20.041,9.334c0.19,0,0.382-0.002,0.573-0.006    c14.134-0.305,25.632-12.051,25.632-26.185C266.553,100.777,266.55,100.586,266.546,100.396z"/>
	</g>
</g>
<g>
	<g>
		<path d="M291.606,167.099c-3.532-1.669-7.293-2.516-11.179-2.516c-10.088,0-19.391,5.892-23.698,15.008    c-1.67,3.533-2.517,7.294-2.517,11.188c0.001,1.49,0.131,2.99,0.385,4.456c0.717,4.139,4.653,6.91,8.791,6.196    c4.139-0.717,6.913-4.653,6.196-8.792c-0.105-0.617-0.16-1.247-0.161-1.867c0-1.62,0.356-3.195,1.059-4.681    c1.807-3.825,5.711-6.296,9.946-6.296c1.622,0,3.194,0.356,4.68,1.057c3.824,1.808,6.296,5.712,6.296,9.946    c0,1.62-0.356,3.196-1.057,4.68c-1.431,3.023-4.118,5.206-7.375,5.99c-4.084,0.983-6.598,5.091-5.615,9.174    c0.839,3.486,3.954,5.828,7.389,5.828c0.589,0,1.188-0.069,1.786-0.213c7.757-1.867,14.161-7.072,17.569-14.283    c1.668-3.533,2.514-7.293,2.514-11.176C306.615,180.71,300.723,171.408,291.606,167.099z"/>
	</g>
</g>
<g>
	<g>
		<path d="M322.888,305.188c-4.138-0.728-8.08,2.04-8.806,6.178c-0.39,2.227-1.447,4.253-3.056,5.86    c-2.075,2.072-4.832,3.213-7.764,3.213c-2.937,0-5.697-1.145-7.773-3.223c-2.071-2.074-3.212-4.831-3.212-7.763    c0-2.937,1.145-5.698,3.222-7.774c2.359-2.355,5.653-3.51,8.969-3.148c4.182,0.452,7.93-2.564,8.384-6.739    c0.454-4.176-2.562-7.929-6.739-8.384c-0.943-0.102-1.901-0.154-2.85-0.154c-6.991,0-13.565,2.721-18.514,7.661    c-4.955,4.95-7.684,11.533-7.684,18.536c0,6.991,2.721,13.565,7.66,18.512c4.951,4.956,11.533,7.685,18.535,7.685    c6.992,0,13.566-2.721,18.513-7.66c3.835-3.83,6.356-8.669,7.29-13.996C329.79,309.854,327.025,305.913,322.888,305.188z"/>
	</g>
</g>
<g>
	<g>
		<path d="M228.556,259.602c-4.021-3.635-8.981-5.907-14.345-6.57c-4.162-0.515-7.966,2.445-8.481,6.615    c-0.515,4.169,2.446,7.966,6.615,8.482c2.243,0.277,4.322,1.231,6.007,2.755c2.299,2.079,3.616,5.05,3.616,8.152    c0,2.726-1.008,5.341-2.839,7.365c-2.109,2.331-5.005,3.615-8.152,3.615c-2.726,0-5.342-1.009-7.365-2.838    c-2.331-2.109-3.615-5.005-3.615-8.153c0-0.215,0.007-0.43,0.019-0.644c0.242-4.195-2.961-7.79-7.155-8.033    c-4.191-0.244-7.789,2.961-8.031,7.155c-0.029,0.507-0.045,1.014-0.045,1.521c0,7.393,3.143,14.475,8.623,19.434    c4.826,4.366,11.066,6.769,17.569,6.769c7.392,0,14.474-3.143,19.433-8.622c4.366-4.827,6.77-11.067,6.77-17.57    C237.179,271.644,234.037,264.561,228.556,259.602z"/>
	</g>
</g>
<g>
	<g>
		<path d="M322.429,381.031c-2.403-3.448-7.139-4.3-10.587-1.896c-72.752,50.583-170.974-14.106-153.4-103.071l2.657-11.074    c0.974-4.087-1.541-8.184-5.628-9.167c-4.097-0.974-8.194,1.541-9.167,5.628l-2.687,11.216c-1.523,7.605-2.343,15.31-2.343,23.253    c0,51.707,34.227,96.265,81.684,111.143v75.529c0,16.215,13.193,29.408,29.408,29.408h7.291c16.215,0,29.408-13.193,29.408-29.408    v-21.265c0-4.198-3.407-7.606-7.606-7.606s-7.606,3.407-7.606,7.606v21.265c0,7.829-6.368,14.197-14.197,14.197h-7.291    c-7.829,0-14.197-6.368-14.197-14.197v-71.888c12.106,2.1,21.693,2.397,35.686,0.01v20.19c0,4.198,3.407,7.606,7.606,7.606    s7.606-3.407,7.606-7.606v-23.861c11.155-3.499,21.762-8.681,31.457-15.424C323.971,389.214,324.822,384.479,322.429,381.031z"/>
	</g>
</g>
<g>
	<g>
		<path d="M262.608,0.354c-30.625-3.275-57.713,16.484-64.648,45.431l-44.569,186.074c-1.146,4.759,2.444,9.38,7.403,9.38    c3.438,0,6.551-2.343,7.383-5.831l44.579-186.084c5.319-22.232,26.199-36.322,48.179-33.85c4.178,0.456,7.93-2.545,8.397-6.723    C269.788,4.573,266.776,0.821,262.608,0.354z"/>
	</g>
</g>
<g>
	<g>
		<path d="M368.418,272.666L314.073,45.785c-3.022-12.615-9.887-23.669-19.846-31.964c-3.235-2.687-8.032-2.251-10.719,0.984    c-2.687,3.225-2.251,8.021,0.984,10.709c7.423,6.176,12.534,14.42,14.785,23.811l54.314,226.739    c6.124,31.244-2.698,61.495-21.042,83.905c-2.657,3.245-2.18,8.042,1.075,10.699c3.274,2.685,8.062,2.159,10.699-1.065    C365.967,343.153,375.496,308.015,368.418,272.666z"/>
	</g>
</g>
<g>
</g>
<g>
</g>
<g>
</g>
<g>
</g>
<g>
</g>
<g>
</g>
<g>
</g>
<g>
</g>
<g>
</g>
<g>
</g>
<g>
</g>
<g>
</g>
<g>
</g>
<g>
</g>
<g>
</g>
</svg>
