<?xml version="1.0" encoding="iso-8859-1"?>
<!-- Generator: Adobe Illustrator 19.0.0, SVG Export Plug-In . SVG Version: 6.00 Build 0)  -->
<svg xmlns="http://www.w3.org/2000/svg" xmlns:xlink="http://www.w3.org/1999/xlink" version="1.1" id="Capa_1" x="0px" y="0px" viewBox="0 0 512 512" style="enable-background:new 0 0 512 512;" xml:space="preserve">
<g>
	<g>
		<path d="M89.647,125.948c-0.001-0.006-0.003-0.014-0.004-0.019c0.003,0.015,0.006,0.032,0.009,0.05    C89.65,125.969,89.648,125.958,89.647,125.948z"/>
	</g>
</g>
<g>
	<g>
		<g>
			<path d="M362.156,90.204c0.001,0.003,0.003,0.006,0.004,0.008c0.002,0.004,0.002,0.004,0.004,0.009     C362.161,90.215,362.159,90.209,362.156,90.204z"/>
			<path d="M508.934,172.697c0,0-0.01,0,0-0.01c-1.712-2.817-4.073-5.177-6.89-6.89c-0.01,0.01-0.01,0-0.01,0     c-7.287-4.424-13.222-2.496-22.452-2.969c0.324-10.243-1.722-20.344-5.491-29.189c9.311-9.787,14.053-22.969,13.637-34.995     c-0.071-4.154-3.455-7.477-7.599-7.477c-0.041,0-0.081,0-0.122,0.01c-3.88,0.061-7.467,2.918-7.467,8.308     c0,7.406-2.381,14.387-6.494,20.091c-14.134-19.068-37.396-29.838-61.469-27.791c1.084-4.823,3.212-9.301,6.14-13.151     c12.989-17.072,38.298-18.278,52.827-2.371c2.837,3.1,7.639,3.313,10.74,0.476c3.1-2.827,3.313-7.629,0.476-10.729     c-18.906-20.679-51.023-21.591-71.074-2.28L385.47,25.119c-3.944-8.35-13.913-11.911-22.249-7.994l-10.152,4.792     c2.036-11.773-7.173-21.712-18.521-21.712c-12.026,0-16.636,10.851-17.092,11.337c-2.148,3.607-0.963,8.267,2.644,10.415     c3.607,2.138,8.278,0.952,10.415-2.655c1.104-1.51,1.57-3.901,4.032-3.901c1.925,0,3.972,1.388,3.526,4.063l-1.935,10.446     l-0.608,0.284c-4.032,1.895-7.082,5.268-8.592,9.473c-1.51,4.215-1.297,8.744,0.608,12.776l3.161,6.707l-6.454,34.802     c-4.64,2.442-8.794,5.572-12.34,9.23c-10.051-2.523-20.821-2.675-30.962-0.436l34.042-57.315     c2.148-3.607,0.952-8.267-2.654-10.415c-3.607-2.138-8.267-0.952-10.415,2.655l-23.921,40.263     c-6.866-28.467-36.36-45.76-64.529-38.196C189.281,8.463,145.166,2.594,113.677,24.39c-3.445,2.391-4.306,7.123-1.925,10.567     c2.391,3.455,7.123,4.316,10.577,1.925c26.87-18.569,65.938-12.017,83.9,19.412c17.863,31.853-2.259,60.575-2.259,60.679     c-16.384,25.002-42.762,25.444-45.349,26.15c-0.01,0-0.02,0-0.03,0.01c-0.223,0.061-0.426,0.132-0.638,0.213     c-0.01-0.01-0.02,0.01-0.02,0.01c-1.37,0.457-2.807,1.766-2.908,1.966c-0.379,0.404-0.734,0.877-1.155,1.641     c0,0.01,0,0.01,0,0.01c-0.367,0.666-0.719,1.746-0.811,2.705c-0.01,0.02-0.01,0.04,0,0.061c-0.42,3.357,1.81,6.975,5.42,8.014     c4.317,1.277,17.288-2.12,22.999-4.276c0.251,4.316-0.187,6.727-0.598,9.352h-69.007l-3.313-18.055     c0.284-0.912,0.598-1.803,0.942-2.675c4.143,3.329,16.381,11.388,21.337,11.388c8.335,0,10.549-11.522,2.847-14.65     c-32.521-13.122-46.077-51.663-29.22-82.178c2.026-3.668,0.699-8.298-2.979-10.324c-3.668-2.026-8.298-0.699-10.324,2.979     c-4.124,7.467-6.91,15.593-8.247,23.961c-6.396-4.401-14.199-7.127-22.371-7.396c-8.401-40.745-7.131-42.339-11.722-46.93     c-4.073-4.195-10.253-5.572-15.734-3.526l-20.03,7.487C4.475,26.12,0.762,36.399,5.603,44.41L26.14,78.26     c-5.42,4.752-9.574,10.871-11.986,17.862c-4.032,11.672-2.746,24.458,3.536,35.086l18.703,31.621     c-9.594,0.556-17.286-1.241-23.87,1.611h-0.01c-0.922,0.385-1.803,0.841-2.644,1.358c0,0,0,0.01-0.01,0     c-2.817,1.712-5.177,4.073-6.89,6.89c0.01,0.01,0,0.01,0,0.01C0.978,175.977,0,179.635,0,183.315c0,6.689,0,40.875,0,47.558     c0,11.297,9.189,20.486,20.486,20.486h1.591c0,44.893,0,185.671,0,231.043c0,16.211,13.181,29.392,29.392,29.392     c212.997,0,287.691,0,410.799,0c16.211,0,29.392-13.181,29.392-29.392c0-75.85,0-142.852,0-231.053     c11.185-0.122,20.243-9.26,20.243-20.476C511.903,179.613,512.833,179.12,508.934,172.697z M424.801,108.685     c24.286,6.768,40.517,29.149,39.584,54.144c-33.814,0-75.733,0-107.842,0C355.044,126.872,389.239,98.858,424.801,108.685z      M341.245,44.805c0.101-0.274,0.314-0.648,0.77-0.871c21.793-10.273,26.393-12.452,27.183-12.817c0,0,0.01-0.01,0.02-0.01     c0.071-0.041,0.101-0.051,0.111-0.061h0.01c0.091-0.041,0.203-0.091,0.365-0.172c0.75-0.355,1.682,0,2.016,0.729l21.773,46.15     c-2.594,5.329-4.255,11.175-4.792,17.285c-3.516,1.165-6.9,2.584-10.142,4.265c-4.813-3.88-10.324-6.859-16.231-8.734     c0,0,0-0.001-0.001-0.001c-0.001-0.001-0.006-0.013-0.017-0.036c-0.018-0.038-0.032-0.069-0.048-0.1     c0.001,0.002,0.002,0.005,0.003,0.007c-0.007-0.015-0.015-0.032-0.024-0.051c-0.001-0.004-0.003-0.007-0.004-0.01     c-0.001-0.003-0.003-0.005-0.004-0.008c-0.026-0.057-0.049-0.104-0.066-0.14c-0.003-0.005-0.005-0.012-0.008-0.018     c-0.009-0.02-0.016-0.035-0.023-0.048c-0.822-1.742-4.795-10.165-20.852-44.203C341.073,45.504,341.143,45.079,341.245,44.805z      M341.812,82.667l2.665,5.654c-1.256,0.081-2.523,0.203-3.789,0.385L341.812,82.667z M351.731,103.701     c5.795,0.74,11.55,3.303,13.414,4.701c-6.049,5.238-11.347,11.722-15.552,19.443c-5.978-7.761-13.495-14.032-21.611-18.419     C334.801,104.744,343.352,102.647,351.731,103.701z M342.927,145.666c2.665,5.279,4.468,11.064,5.228,17.163H242.856     C249.24,111.588,319.264,98.432,342.927,145.666z M221.894,53.559c17.48-2.542,35.402,7.931,40.993,26.717     c8.343,27.982-18.388,54.664-46.798,45.947C230.673,104.741,233.045,77.216,221.894,53.559z M205.582,138.472     c6.16,2.746,12.817,4.286,19.584,4.529l5.187,6.059c-1.388,4.417-2.33,9.017-2.786,13.769h-31.287     c0.796-5.68,0.616-11.31-0.405-16.727C199.425,143.781,202.499,141.335,205.582,138.472z M18.865,36.973l19.068-7.133     l7.578,38.308l-6.312,2.32L18.865,36.973z M30.78,123.467c-8.663-14.635-1.47-33.215,13.505-38.673     c3.793-1.209,13.874-6.964,25.795-1.368c6.915,3.119,11.817,9.012,13.141,13.283c0.669,2.138,1.986,6.768,3.485,13.951     l-18.115,7.042c-3.921,1.52-5.856,5.917-4.336,9.838c1.165,2.999,4.043,4.843,7.082,4.843c0.922,0,1.854-0.162,2.756-0.517     l15.532-6.038c0.002,0.013,0.007,0.039,0.015,0.082c0.002,0.012,0.004,0.025,0.007,0.038c0.005,0.029,0.011,0.062,0.019,0.104     c-0.001-0.005-0.002-0.01-0.003-0.015c0.004,0.023,0.009,0.047,0.012,0.068c0-0.001,0-0.002,0-0.002     c0.004,0.023,0.009,0.049,0.014,0.075c0.01,0.054,0.018,0.102,0.025,0.137c-0.002-0.013-0.005-0.028-0.008-0.044     c0.003,0.018,0.006,0.035,0.01,0.056c0.004,0.023,0.008,0.042,0.01,0.056c-0.002-0.009-0.003-0.018-0.005-0.029     c0.002,0.012,0.005,0.026,0.007,0.039c0.001,0.008,0.003,0.015,0.004,0.02c-0.001-0.004-0.002-0.009-0.003-0.014     c0.358,1.948,1.787,9.741,6.684,36.431H54.052L30.78,123.467z M51.469,496.597c-7.832,0-14.195-6.363-14.195-14.194v-42.654     l53.029-53.029l50.375,50.375l-59.503,59.503H51.469z M151.428,281.278l11.408,11.408l-50.375,50.375l-11.408-11.408     L151.428,281.278z M143.009,251.36h16.839l-8.419,8.419L143.009,251.36z M195.744,281.278l50.375,50.375l-11.408,11.408     l-50.375-50.375L195.744,281.278z M187.324,251.36h16.839l-8.419,8.419L187.324,251.36z M317.993,281.278l11.408,11.408     l-50.375,50.375l-11.408-11.408L317.993,281.278z M309.573,251.36h16.839l-8.419,8.419L309.573,251.36z M362.309,281.278     l50.375,50.375l-11.408,11.408L350.9,292.687L362.309,281.278z M353.889,251.36h16.839l-8.419,8.419L353.889,251.36z      M162.836,414.935l-11.408,11.408l-50.375-50.375l11.408-11.408L162.836,414.935z M123.211,353.811l50.375-50.375l50.375,50.375     l-50.375,50.375L123.211,353.811z M173.586,425.685l11.408,11.408l-11.408,11.408l-11.408-11.408L173.586,425.685z      M184.336,414.935l50.375-50.375l11.408,11.408l-50.375,50.375L184.336,414.935z M245.46,353.811l11.408-11.408l11.408,11.408     l-11.408,11.408L245.46,353.811z M279.026,364.561l50.375,50.375l-11.408,11.408l-50.375-50.375L279.026,364.561z      M289.776,353.811l50.375-50.375l50.375,50.375l-50.375,50.375L289.776,353.811z M340.151,425.685l11.408,11.408l-11.408,11.408     l-11.408-11.408L340.151,425.685z M350.9,414.935l50.375-50.375l11.408,11.408l-50.375,50.375L350.9,414.935z M412.025,353.811     l11.408-11.408l11.408,11.408l-11.408,11.408L412.025,353.811z M340.151,281.937l-11.408-11.408l11.408-11.408l11.408,11.408     L340.151,281.937z M256.868,320.903l-50.375-50.375l19.169-19.169h62.411l19.169,19.169L256.868,320.903z M173.586,281.937     l-11.408-11.408l11.408-11.408l11.408,11.408L173.586,281.937z M101.712,353.811l-11.408,11.408l-11.408-11.408l11.408-11.408     L101.712,353.811z M68.146,343.061L37.274,312.19v-22.817l42.279,42.279L68.146,343.061z M57.396,353.811l-20.122,20.122v-40.243     L57.396,353.811z M68.146,364.561l11.408,11.408l-42.279,42.279v-22.817L68.146,364.561z M102.674,496.597l48.754-48.754     l11.408,11.408l-37.345,37.345H102.674z M146.99,496.597l26.596-26.596l26.596,26.596H146.99z M221.681,496.597l-37.345-37.345     l11.408-11.408l48.754,48.754H221.681z M206.494,437.093l50.375-50.375l50.375,50.375l-50.375,50.375L206.494,437.093z      M269.239,496.597l48.754-48.754l11.408,11.408l-37.345,37.345H269.239z M313.555,496.597l26.596-26.596l26.596,26.596H313.555z      M388.246,496.597L350.9,459.251l11.408-11.408l48.754,48.754H388.246z M476.462,482.402c0,7.832-6.363,14.194-14.194,14.194     h-29.706l-59.503-59.503l50.375-50.375l53.029,53.029V482.402z M476.462,418.248l-42.279-42.279l11.408-11.408l30.871,30.871     V418.248z M476.462,373.933l-20.122-20.122l20.122-20.121V373.933z M476.462,312.19l-30.871,30.871l-11.408-11.408l42.279-42.279     V312.19z M476.462,267.874L476.462,267.874l-53.029,53.029l-50.375-50.375l19.169-19.169h84.235V267.874z M496.705,230.873     c0,2.837-2.239,5.157-5.046,5.279c-0.081,0.01-0.162,0.01-0.243,0.01H89.189c-4.205,0-7.599,3.404-7.599,7.599     s3.394,7.599,7.599,7.599h32.32l19.169,19.169l-50.375,50.375l-53.029-53.029V251.36h21.52c4.195,0,7.599-3.404,7.599-7.599     s-3.404-7.599-7.599-7.599c-12.292,0-25.891,0-38.308,0c-2.918,0-5.289-2.371-5.289-5.289c0-6.686,0-40.87,0-47.558     c0-2.918,2.371-5.289,5.289-5.289c13.066,0,445.574,0,470.93,0c2.918,0,5.289,2.371,5.289,5.289     C496.705,190.004,496.705,224.189,496.705,230.873z"/>
			<polygon points="362.236,90.374 362.237,90.378 362.241,90.386    "/>
		</g>
	</g>
</g>
<g>
	<g>
		<path d="M89.714,126.313c0.001,0.005,0.001,0.008,0.002,0.012c0.002,0.009,0.003,0.017,0.005,0.026    C89.719,126.341,89.716,126.328,89.714,126.313z"/>
	</g>
</g>
<g>
	<g>
		<path d="M362.305,90.518c0.002,0.005,0.004,0.009,0.006,0.013c0.003,0.006,0.005,0.011,0.009,0.018    C362.316,90.542,362.311,90.531,362.305,90.518z"/>
	</g>
</g>
<g>
</g>
<g>
</g>
<g>
</g>
<g>
</g>
<g>
</g>
<g>
</g>
<g>
</g>
<g>
</g>
<g>
</g>
<g>
</g>
<g>
</g>
<g>
</g>
<g>
</g>
<g>
</g>
<g>
</g>
</svg>
