<?xml version="1.0" encoding="iso-8859-1"?>
<!-- Generator: Adobe Illustrator 19.0.0, SVG Export Plug-In . SVG Version: 6.00 Build 0)  -->
<svg xmlns="http://www.w3.org/2000/svg" xmlns:xlink="http://www.w3.org/1999/xlink" version="1.1" id="Capa_1" x="0px" y="0px" viewBox="0 0 512 512" style="enable-background:new 0 0 512 512;" xml:space="preserve">
<g>
	<g>
		<g>
			<path d="M459.995,39.565L422.828,6.937c-3.231-2.836-7.405-4.234-11.7-3.961c-4.315,0.294-8.246,2.229-11.123,5.521     l-79.975,93.154l-30.116,34.583c-21.897-6.5-64.226-7.404-87.552,13.28c-2.928,2.593-5.612,5.5-8.063,8.732l-15.671-13.665     c0.193-0.203,0.395-0.395,0.588-0.608l32.628-37.146c0.01,0,0.01-0.01,0.01-0.01c2.836-3.242,4.234-7.395,3.941-11.71     c-0.284-4.305-2.229-8.236-5.521-11.112L118.407,5.134L117.1,3.989c-3.231-2.836-7.395-4.244-11.7-3.951     c-4.305,0.284-8.236,2.218-11.072,5.45L61.7,42.654c-2.836,3.231-4.244,7.395-3.961,11.7c0.294,4.315,2.229,8.246,5.521,11.123     l90.723,77.888l32.304,28.141c-2.776,5.835-5.085,12.369-6.929,19.632c-4.505,17.648-4.44,30.142-10.302,81.991l-15.711-13.797     c-3.231-2.836-7.385-4.244-11.7-3.961c-4.315,0.294-8.246,2.229-11.122,5.521c-1.084,1.262-73.407,85.499-80.005,93.184     c-5.865,6.686-5.197,16.897,1.499,22.762l37.166,32.659c3.049,2.664,6.828,3.971,10.596,3.971c4.508,0,9.005-1.874,12.227-5.551     l48.836-56.869l-3.966,37.535c-0.474,4.486,3.043,8.394,7.553,8.394c3.886,0,7.146-2.934,7.554-6.798l6.272-59.41l13.787-16.066     c0.081-0.091,0.152-0.192,0.223-0.294l52.077-59.857c17.826,4.698,37.351-1.733,48.785-17.423l38.017,33.135l1.98,1.828     l-33.261,37.648c-2.836,3.231-4.244,7.385-3.961,11.7c0.294,4.305,2.229,8.236,5.521,11.123l37.916,32.537l8.864,102.686     c1.356,15.556-10.72,29.022-27.195,29.022h-24.032v-58.581c0-21.908-17.761-39.668-39.668-39.668h-1.155     c-21.914,0-39.679,17.765-39.679,39.679v58.571H190.43c-4.153,0-8.114-0.922-11.781-2.735     c-10.029-4.933-15.975-15.701-14.81-26.804l4.988-47.209c0.474-4.485-3.043-8.394-7.554-8.394c-3.886,0-7.146,2.934-7.554,6.797     l-4.985,47.205c-1.844,17.413,7.486,34.31,23.187,42.029c5.774,2.857,12.004,4.305,18.507,4.305H321.58     c24.561,0,43.867-21.055,41.765-45.534l-7.537-87.228c0.501,0.431,31.114,26.736,38.797,33.337     c3.059,2.664,6.848,3.981,10.616,3.981c4.498,0,8.965-1.864,12.146-5.49l32.628-37.166l0.01-0.01     c2.836-3.231,4.234-7.385,3.951-11.7c-0.284-4.305-2.229-8.236-5.521-11.112c-0.006-0.005-0.014-0.012-0.023-0.02     c0.001,0.001,0.002,0.002,0.003,0.002c-0.006-0.005-0.012-0.01-0.016-0.014c-0.759-0.652-10.506-9.039-102.65-88.321     l-2.988-34.553c-0.334-3.93-3.626-6.949-7.567-6.949c-4.478,0-7.977,3.855-7.577,8.256l1.631,18.902l-29.164-25.385     c5.782-19.746-2.331-41.144-20.189-52.067l14.567-16.704c6.139,3.049,11.183,7.182,15.397,12.47     c6.524,8.175,11.204,19.297,14.172,33.783c0.729,3.525,3.839,6.058,7.435,6.058c4.882,0,8.436-4.531,7.445-9.127     c-3.475-16.897-9.147-30.136-17.18-40.185c-4.802-6.037-10.444-10.93-17.038-14.729l16.228-18.608     c0.192,0.192,0.375,0.385,0.577,0.567l37.166,32.648c2.958,2.583,6.686,3.971,10.596,3.971c0.365,0,0.74-0.01,1.104-0.03     c4.315-0.294,8.246-2.239,11.123-5.521c0.001-0.001,0.001-0.001,0.001-0.001c0.003-0.004,0.007-0.008,0.011-0.013     c0.013-0.015,0.024-0.028,0.033-0.039c-0.001,0.001-0.001,0.002-0.002,0.003c0.001-0.002,0.003-0.003,0.004-0.005     c0.011-0.013,0.018-0.021,0.023-0.026c-0.003,0.003-0.007,0.008-0.011,0.013c0.759-0.883,9.105-10.604,79.947-93.115     c0,0,0,0,0-0.01C467.349,55.641,466.67,45.42,459.995,39.565z M167.131,134.279c-0.182,0-0.436-0.02-0.729-0.273L73.208,53.99     c-0.233-0.203-0.294-0.456-0.304-0.638c-0.01-0.182,0.02-0.456,0.213-0.679l32.638-37.166c0.203-0.233,0.466-0.304,0.648-0.314     h0.071c0.182,0,0.405,0.041,0.618,0.223l1.357,1.195l91.878,78.871c0.233,0.203,0.294,0.466,0.314,0.648     c0.01,0.182-0.02,0.446-0.223,0.679l-32.638,37.156C167.577,134.198,167.314,134.269,167.131,134.279z M281.781,496.805h-50.112     v-58.581c0-13.503,10.981-24.474,24.484-24.474h1.145c13.493,0,24.484,10.971,24.484,24.474V496.805z M343.669,282.896     c0.49-0.558,1.342-0.611,1.897-0.115c0.106,0.095,2.544,2.252,2.394,2.118l90.53,77.665c0.233,0.203,0.294,0.456,0.314,0.638     c0.01,0.182-0.02,0.436-0.223,0.669l-32.628,37.176c-0.334,0.375-0.962,0.415-1.317,0.111c-0.104-0.092-1.306-1.117-1.378-1.226     l-49.312-42.322l-0.011-0.133l-42.554-36.395c-0.385-0.334-0.425-0.952-0.101-1.327L343.669,282.896z M212.452,160.88     c10.302-9.137,24.909-13.422,45.939-13.483c7.567,0.02,14.313,0.577,20.31,1.712l-13.888,15.954     c-16.516-3.221-33.505,2.794-44.348,16.005l-14.688-12.814C207.803,165.479,210.031,163.027,212.452,160.88z M180.776,304.338     l-0.304,0.355l-3.606,4.346c-6.731,7.841-69.33,80.746-76.349,88.92c-0.334,0.385-0.952,0.425-1.317,0.111l-37.166-32.648     c-0.375-0.334-0.425-0.952-0.091-1.337c70.386-81.974,79.118-92.143,79.977-93.144c-0.006,0.007,0.038-0.045,0.066-0.076     c-0.007,0.008-0.014,0.016-0.02,0.023c0.009-0.01,0.017-0.019,0.022-0.026c-0.001,0.001-0.002,0.002-0.002,0.002     c0.004-0.004,0.007-0.008,0.012-0.014c0.203-0.233,0.466-0.304,0.648-0.314h0.071c0.182,0,0.405,0.041,0.608,0.213     c0.007,0.007,0.012,0.011,0.019,0.016c0.005,0.005,0.01,0.009,0.018,0.015c0.007,0.006,0.014,0.012,0.022,0.02     c-0.002-0.001-0.002-0.002-0.004-0.003c0.009,0.008,0.019,0.017,0.028,0.025c-0.008-0.007-0.017-0.015-0.024-0.021     c0.02,0.018,0.048,0.042,0.081,0.071c0.014,0.013,0.028,0.025,0.042,0.036c-0.002-0.001-0.003-0.003-0.005-0.004     c0.004,0.003,0.008,0.007,0.012,0.011c0.006,0.005,0.011,0.01,0.017,0.015c0.01,0.009,0.02,0.018,0.03,0.026l-0.001-0.001     c0.007,0.006,0.012,0.01,0.019,0.017c0.009,0.008,0.017,0.015,0.025,0.022c1.322,1.161,8.148,7.158,36.886,32.401     c0.233,0.203,0.294,0.456,0.314,0.638C180.807,304.126,180.807,304.227,180.776,304.338z M191.078,292.517     c-0.203-0.192-0.385-0.395-0.598-0.577l-7.445-6.534c7.022-58.062,6.132-81.244,15.225-103.476l14.526,12.652     c-0.871,2.421-1.55,4.953-2.006,7.547c-3.1,17.249,4.031,35.338,19.156,45.787L191.078,292.517z M281.993,193.761     c9.366,14.808,4.391,34.689-11.143,43.254c-9.256,5.159-21.132,5.29-30.835-0.658c-15.868-9.699-19.481-30.924-8.094-45.29     C245.016,174.536,270.597,175.741,281.993,193.761z M450.057,52.328c-70.881,82.559-79.24,92.294-79.996,93.175     c0.029-0.034,0.02-0.023-0.001,0c-0.002,0.002-0.004,0.005-0.006,0.007c-0.003,0.004-0.005,0.006-0.009,0.01     c0.002-0.002,0.003-0.004,0.005-0.005c-0.025,0.029-0.042,0.049-0.05,0.058c-0.334,0.375-0.952,0.415-1.317,0.091     c-0.007-0.006-0.012-0.01-0.019-0.016c-0.023-0.02-0.068-0.06-0.142-0.125c-0.028-0.025-0.055-0.048-0.077-0.068     c0.006,0.005,0.013,0.011,0.019,0.017c-0.016-0.014-0.031-0.027-0.05-0.044c-0.057-0.05-0.088-0.077-0.1-0.088l-0.001-0.001     c-0.002-0.002-0.007-0.006-0.003-0.003c-1.536-1.348-8.683-7.625-36.804-32.32c-0.233-0.203-0.294-0.456-0.304-0.638     c-0.01-0.122,0.01-0.284,0.091-0.456l0.466-0.547l-0.03-0.03l79.752-92.891c0.203-0.233,0.466-0.304,0.648-0.314h0.071     c0.182,0,0.405,0.041,0.608,0.223l37.156,32.628C450.351,51.326,450.392,51.954,450.057,52.328z"/>
			<path d="M381.537,155.465c0.004-0.005,0.007-0.008,0.011-0.013c-0.004,0.005-0.008,0.01-0.013,0.015     C381.535,155.466,381.536,155.466,381.537,155.465z"/>
			<path d="M368.665,145.648c0.052,0.045-0.006-0.006-0.089-0.079C368.604,145.593,368.634,145.62,368.665,145.648z"/>
			<path d="M368.524,145.524c0.007,0.006,0.014,0.012,0.021,0.018c-0.026-0.022-0.053-0.046-0.079-0.069     C368.487,145.491,368.507,145.509,368.524,145.524z"/>
			<circle cx="255.464" cy="208.543" r="12.247"/>
		</g>
	</g>
</g>
<g>
</g>
<g>
</g>
<g>
</g>
<g>
</g>
<g>
</g>
<g>
</g>
<g>
</g>
<g>
</g>
<g>
</g>
<g>
</g>
<g>
</g>
<g>
</g>
<g>
</g>
<g>
</g>
<g>
</g>
</svg>
