<?xml version="1.0" encoding="iso-8859-1"?>
<!-- Generator: Adobe Illustrator 19.0.0, SVG Export Plug-In . SVG Version: 6.00 Build 0)  -->
<svg xmlns="http://www.w3.org/2000/svg" xmlns:xlink="http://www.w3.org/1999/xlink" version="1.1" id="Capa_1" x="0px" y="0px" viewBox="0 0 512.001 512.001" style="enable-background:new 0 0 512.001 512.001;" xml:space="preserve">
<g>
	<g>
		<path d="M97.53,361.165H7.604c-4.2,0-7.604,3.404-7.604,7.604c0,4.201,3.405,7.604,7.604,7.604H97.53    c4.199,0,7.604-3.404,7.604-7.604C105.134,364.569,101.729,361.165,97.53,361.165z"/>
	</g>
</g>
<g>
	<g>
		<path d="M336.158,253.952c-8.104-4.261-17.184-6.514-26.261-6.514c-20.41,0-39.083,11.09-48.734,28.944    c-3.612,6.682-5.521,14.208-5.521,21.761c0,16.875,9.214,32.339,24.046,40.358c5.566,3.009,11.836,4.6,18.133,4.6    c14.059,0,26.942-7.677,33.623-20.037c2.527-4.674,3.862-9.941,3.862-15.229c0-11.807-6.447-22.626-16.826-28.238    c-3.961-2.139-8.424-3.272-12.906-3.272c-10.005,0-19.174,5.464-23.928,14.258c-1.997,3.695-0.622,8.308,3.073,10.305    c3.694,1.997,8.308,0.62,10.305-3.073c2.095-3.874,6.137-6.281,10.548-6.281c1.993,0,3.903,0.486,5.674,1.443    c5.459,2.95,8.85,8.643,8.85,14.857c0,2.81-0.684,5.501-2.033,7.998c-4.021,7.439-11.778,12.06-20.244,12.06    c-3.78,0-7.548-0.957-10.9-2.77c-9.913-5.358-16.071-15.696-16.071-26.979c0-5.038,1.276-10.062,3.692-14.529    c6.992-12.933,20.539-20.968,35.356-20.968c6.62,0,13.253,1.648,19.182,4.765c16.013,8.422,24.832,22.561,24.832,39.813    c0,26.05-21.082,53.941-52.467,53.941H127.946c-4.2,0-7.604,3.404-7.604,7.604c0,4.201,3.405,7.604,7.604,7.604h173.499    c18.78-0.001,36.199-7.774,49.046-21.888c11.838-13.006,18.628-30.232,18.628-47.262    C369.119,284.387,357.106,264.969,336.158,253.952z"/>
	</g>
</g>
<g>
	<g>
		<path d="M391.484,441.011H200.242c-4.2,0-7.604,3.404-7.604,7.604c0,4.201,3.405,7.604,7.604,7.604h191.242    c4.2,0,7.604-3.404,7.604-7.604C399.089,444.414,395.684,441.011,391.484,441.011z"/>
	</g>
</g>
<g>
	<g>
		<path d="M479.04,333.797c-8.104-4.262-17.185-6.516-26.263-6.516c-20.409,0-39.082,11.091-48.732,28.946    c-3.612,6.682-5.522,14.209-5.522,21.763c0,16.875,9.214,32.339,24.046,40.356c5.566,3.009,11.836,4.6,18.133,4.6    c14.06,0,26.943-7.677,33.623-20.035c2.528-4.675,3.864-9.942,3.864-15.23c0-11.807-6.447-22.625-16.828-28.238    c-3.962-2.14-8.425-3.273-12.906-3.273c-10.004,0-19.173,5.464-23.927,14.258c-1.996,3.696-0.62,8.308,3.074,10.305    c3.697,1.999,8.309,0.62,10.306-3.073c2.094-3.875,6.136-6.282,10.546-6.282c1.993,0,3.902,0.486,5.676,1.444    c5.459,2.951,8.85,8.644,8.85,14.857c0,2.811-0.684,5.501-2.034,7.998c-4.021,7.439-11.778,12.06-20.245,12.06    c-3.78,0-7.548-0.957-10.9-2.77c-9.913-5.358-16.071-15.695-16.071-26.976c0-5.038,1.276-10.063,3.692-14.531    c6.992-12.935,20.538-20.97,35.354-20.97c6.62,0,13.253,1.649,19.183,4.767c16.013,8.422,24.833,22.562,24.833,39.813    c0,26.05-21.082,53.941-52.467,53.941h-22.425c-4.199,0-7.604,3.404-7.604,7.604c0,4.201,3.405,7.604,7.604,7.604h22.425    c18.781,0,36.2-7.773,49.047-21.887c11.838-13.006,18.628-30.232,18.628-47.262C512,364.231,499.987,344.814,479.04,333.797z"/>
	</g>
</g>
<g>
	<g>
		<path d="M253.574,228.622c-1.501-3.923-5.897-5.883-9.82-4.384c-14.88,5.695-32.986,11.63-53.998,16.741    c-10.32-21.327-25.11-34.048-44.038-37.834c-51.235-10.26-113.278,50.81-115.895,53.414c-3.282,3.268-2.905,8.697,0.807,11.477    c30.295,22.686,80.959,46.091,117.708,34.325c19.951-6.386,34.417-21.903,43.052-46.134c22.563-5.389,41.954-11.72,57.802-17.786    C253.112,236.941,255.075,232.545,253.574,228.622z M110.091,221.481l27.543,29.155c-6.959,0.903-14.122,1.68-21.482,2.313    l-23.825-23.695C98.102,226.224,104.075,223.544,110.091,221.481z M84.362,280.744c-8.161-3.356-15.769-7.182-22.312-10.82    c10.203,0.198,20.321,0.159,32.698-0.363L84.362,280.744z M55.02,254.525c6.417-5.27,14.585-11.495,23.715-17.34l17.195,17.102    C82.835,254.886,69.183,254.996,55.02,254.525z M117.861,289.913c-5.954-0.658-11.963-1.942-17.868-3.653l16.81-18.102    c6.504-0.552,12.86-1.213,19.064-1.971L117.861,289.913z M137.29,289.469l20.007-26.361c5.465-0.906,10.784-1.885,15.969-2.919    C165.72,275.67,154.344,286.372,137.29,289.469z M155.974,247.905l-28.715-30.396c22.136-2.378,36.98,7.723,47.195,26.918    C168.494,245.669,162.331,246.834,155.974,247.905z"/>
	</g>
</g>
<g>
	<g>
		<path d="M432.299,210.529c-0.378-3.736-9.827-91.818-59.334-119.993c-19.862-11.305-43.047-11.396-68.959-0.304    c-21.2-14.303-40.806-25.328-57.537-33.652c-3.761-1.873-8.325-0.341-10.196,3.421c-1.87,3.759-0.338,8.324,3.422,10.196    c15.805,7.864,34.252,18.205,54.206,31.558c-9.698,24.177-9.08,45.537,1.877,63.564c29.573,48.655,124.589,53.395,128.619,53.574    C429.02,219.096,432.767,215.148,432.299,210.529z M321.092,171.457c-4.92-4.135-9.128-8.791-12.318-14.037    c-7.853-12.919-8.492-28.619-1.979-46.745c5.79,4.132,11.68,8.513,17.648,13.155L321.092,171.457z M319.139,100.819    c17.525-5.551,33.057-4.597,46.284,2.923c2.661,1.513,5.176,3.278,7.582,5.215l-38.259,3.622    C329.482,108.465,324.274,104.545,319.139,100.819z M356.59,190.448c-7.25-2.552-14.367-5.584-20.942-9.187l3.223-45.809    c6.352,5.302,12.766,10.912,19.211,16.822L356.59,190.448z M351.56,126.262l34.686-3.282c4.25,5.737,7.958,12.072,11.168,18.662    l-28.579-0.139C363.045,136.183,357.281,131.104,351.56,126.262z M371.629,195.067l1.128-28.847    c11.042,10.891,22.112,22.733,33.072,35.565C396.319,200.506,384.203,198.42,371.629,195.067z M384.845,156.789l19.054,0.093    c3.864,10.387,6.691,20.665,8.714,29.493C403.395,175.849,394.114,165.993,384.845,156.789z"/>
	</g>
</g>
<g>
</g>
<g>
</g>
<g>
</g>
<g>
</g>
<g>
</g>
<g>
</g>
<g>
</g>
<g>
</g>
<g>
</g>
<g>
</g>
<g>
</g>
<g>
</g>
<g>
</g>
<g>
</g>
<g>
</g>
</svg>
