<?xml version="1.0" encoding="iso-8859-1"?>
<!-- Generator: Adobe Illustrator 19.0.0, SVG Export Plug-In . SVG Version: 6.00 Build 0)  -->
<svg version="1.1" id="Layer_1" xmlns="http://www.w3.org/2000/svg" xmlns:xlink="http://www.w3.org/1999/xlink" x="0px" y="0px"
	 viewBox="0 0 210.132 210.132" style="enable-background:new 0 0 210.132 210.132;" xml:space="preserve">
<g>
	<g>
		<g>
			<path d="M125.498,44.527l-0.657-1.137l-1.034,0.597c-16.518-5.048-34.986-3.574-51.092,5.724
				C56.613,59.009,46.1,74.265,42.212,91.094l-1.036,0.598l0.658,1.14c-3.011,14.873-0.894,30.843,7.271,44.987
				c11.935,20.671,33.659,32.235,55.971,32.235c10.933,0,22.01-2.778,32.138-8.625c30.795-17.78,41.39-57.305,23.61-88.108
				C152.658,59.177,139.886,49.357,125.498,44.527z M76.833,56.844c8.838-5.103,18.5-7.527,28.037-7.527
				c2.866,0,5.716,0.245,8.535,0.676l-60.779,35.09C57.111,73.592,65.345,63.478,76.833,56.844z M49.482,96.408l75.266-43.453
				c5.912,2.217,11.47,5.417,16.397,9.548l-91.524,52.84C48.513,109.024,48.45,102.624,49.482,96.408z M133.097,154.296
				c-13.99,8.076-30.029,9.387-44.396,5.047l70.967-40.975C156.245,132.983,147.09,146.219,133.097,154.296z M161.107,108.027
				L79.023,155.42c-5.278-2.735-10.138-6.332-14.389-10.709l94.393-54.496C160.692,96.084,161.377,102.089,161.107,108.027z
				 M156.198,82.339l-96.97,55.984c-1.057-1.479-2.062-3.014-2.989-4.62c-1.878-3.253-3.376-6.621-4.541-10.049l95.566-55.173
				c2.386,2.723,4.55,5.707,6.428,8.958C154.619,79.046,155.446,80.683,156.198,82.339z"/>
			<rect x="0.149" y="14.485" width="209.983" height="8.235"/>
			<rect x="152.34" y="43.306" width="57.791" height="8.235"/>
			<rect x="152.34" y="158.591" width="57.791" height="8.235"/>
			<rect y="43.306" width="57.791" height="8.235"/>
			<rect x="173.075" y="72.127" width="37.056" height="8.235"/>
			<rect x="173.075" y="129.769" width="37.056" height="8.235"/>
			<rect x="0.149" y="72.127" width="37.056" height="8.235"/>
			<rect x="177.193" y="100.948" width="32.938" height="8.235"/>
			<rect x="0.149" y="187.412" width="209.983" height="8.235"/>
			<rect x="0.149" y="158.591" width="57.787" height="8.235"/>
			<rect x="0.149" y="129.769" width="37.056" height="8.235"/>
			<rect x="0.149" y="100.948" width="32.938" height="8.235"/>
		</g>
	</g>
</g>
<g>
</g>
<g>
</g>
<g>
</g>
<g>
</g>
<g>
</g>
<g>
</g>
<g>
</g>
<g>
</g>
<g>
</g>
<g>
</g>
<g>
</g>
<g>
</g>
<g>
</g>
<g>
</g>
<g>
</g>
</svg>
