<?xml version="1.0" encoding="iso-8859-1"?>
<!-- Generator: Adobe Illustrator 19.0.0, SVG Export Plug-In . SVG Version: 6.00 Build 0)  -->
<svg version="1.1" id="Layer_1" xmlns="http://www.w3.org/2000/svg" xmlns:xlink="http://www.w3.org/1999/xlink" x="0px" y="0px"
	 viewBox="0 0 230.57 230.57" style="enable-background:new 0 0 230.57 230.57;" xml:space="preserve">
<g>
	<g>
		<g>
			<path d="M115.286,0C66.475,0,26.763,40.041,26.763,89.26c0,48.099,82.025,136.275,85.516,140.007
				c0.778,0.83,1.866,1.303,3.006,1.303s2.227-0.472,3.006-1.303c3.492-3.732,85.516-91.908,85.516-140.007
				C203.808,40.041,164.096,0,115.286,0z M115.286,220.35c-14.931-16.526-80.287-91.15-80.287-131.09
				c0-44.677,36.017-81.025,80.287-81.025c44.27,0,80.287,36.348,80.287,81.025C195.573,129.201,130.217,203.825,115.286,220.35z"/>
			<rect x="104.992" y="131.754" width="8.235" height="12.352"/>
			<rect x="117.344" y="131.754" width="8.235" height="12.352"/>
			<path d="M184.624,66.245c-1.021-0.464-25.188-11.212-42.576-1.176c-17.386,10.038-20.162,36.346-20.271,37.462
				c-0.173,1.753,0.792,3.424,2.396,4.151c0.7,0.317,12.223,5.444,25.002,5.444c5.907,0,12.083-1.096,17.577-4.268
				c17.386-10.038,20.162-36.346,20.271-37.462C187.196,68.641,186.231,66.972,184.624,66.245z M162.635,100.725
				c-10.697,6.182-25.932,1.827-32.203-0.424c1.186-6.556,5.036-21.923,15.733-28.099c10.697-6.182,25.932-1.826,32.203,0.424
				C177.182,79.182,173.332,94.549,162.635,100.725z"/>
			<path d="M108.794,102.53c-0.109-1.116-2.885-27.424-20.271-37.462C71.139,55.036,46.97,65.78,45.947,66.244
				c-1.606,0.728-2.571,2.396-2.398,4.151c0.108,1.116,2.885,27.424,20.271,37.462c5.497,3.172,11.67,4.268,17.577,4.268
				c12.778,0,24.302-5.126,25.002-5.444C108.002,105.954,108.967,104.284,108.794,102.53z M67.937,100.725
				c-10.702-6.178-14.55-21.553-15.734-28.105c6.258-2.26,21.463-6.62,32.203-0.418c10.697,6.176,14.547,21.543,15.733,28.099
				C93.869,102.555,78.64,106.907,67.937,100.725z"/>
		</g>
	</g>
</g>
<g>
</g>
<g>
</g>
<g>
</g>
<g>
</g>
<g>
</g>
<g>
</g>
<g>
</g>
<g>
</g>
<g>
</g>
<g>
</g>
<g>
</g>
<g>
</g>
<g>
</g>
<g>
</g>
<g>
</g>
</svg>
