<?xml version="1.0" encoding="iso-8859-1"?>
<!-- Generator: Adobe Illustrator 19.0.0, SVG Export Plug-In . SVG Version: 6.00 Build 0)  -->
<svg version="1.1" id="Layer_1" xmlns="http://www.w3.org/2000/svg" xmlns:xlink="http://www.w3.org/1999/xlink" x="0px" y="0px"
	 viewBox="0 0 222.334 222.334" style="enable-background:new 0 0 222.334 222.334;" xml:space="preserve">
<g>
	<g>
		<g>
			<path d="M197.59,8.234H24.744C11.099,8.234,0,19.327,0,32.963v107.002c0,13.634,11.099,24.728,24.744,24.728h65.837v45.29
				c0,2.274,1.844,4.117,4.117,4.117h32.938c2.274,0,4.117-1.844,4.117-4.117v-45.29h65.837c13.645,0,24.744-11.093,24.744-24.728
				V32.963C222.334,19.327,211.235,8.234,197.59,8.234z M123.519,205.864H98.815v-41.173h24.704V205.864z M214.1,139.963
				c0,9.095-7.406,16.493-16.51,16.493h-69.954H94.698H24.744c-9.103,0-16.51-7.398-16.51-16.493V32.963
				c0-9.095,7.406-16.494,16.51-16.494h172.847c9.103,0,16.509,7.398,16.509,16.494V139.963z"/>
			<path d="M160.575,45.289c-22.704,0-41.173,18.469-41.173,41.173c0,22.704,18.469,41.173,41.173,41.173
				c22.704,0,41.173-18.469,41.173-41.173C201.748,63.758,183.279,45.289,160.575,45.289z M160.575,119.401
				c-18.162,0-32.938-14.777-32.938-32.938s14.777-32.938,32.938-32.938s32.938,14.777,32.938,32.938
				S178.737,119.401,160.575,119.401z"/>
			<polygon points="32.938,61.76 32.938,69.994 32.938,82.346 32.938,90.58 41.173,90.58 57.642,90.58 57.642,102.932 
				32.938,102.932 32.938,111.166 57.642,111.166 65.877,111.166 65.877,102.932 65.877,90.58 65.877,82.346 57.642,82.346 
				41.173,82.346 41.173,69.994 65.877,69.994 65.877,61.76 41.173,61.76 			"/>
			<polygon points="78.229,61.76 78.229,69.994 86.463,69.994 86.463,111.166 94.698,111.166 94.698,69.994 94.698,61.76 
				86.463,61.76 			"/>
			<polygon points="178.043,73.963 172.221,68.14 160.148,80.213 147.473,67.538 141.651,73.361 154.326,86.036 140.195,100.166 
				146.018,105.989 160.148,91.857 173.677,105.387 179.499,99.564 165.97,86.036 			"/>
		</g>
	</g>
</g>
<g>
</g>
<g>
</g>
<g>
</g>
<g>
</g>
<g>
</g>
<g>
</g>
<g>
</g>
<g>
</g>
<g>
</g>
<g>
</g>
<g>
</g>
<g>
</g>
<g>
</g>
<g>
</g>
<g>
</g>
</svg>
