<?xml version="1.0" encoding="iso-8859-1"?>
<!-- Generator: Adobe Illustrator 19.0.0, SVG Export Plug-In . SVG Version: 6.00 Build 0)  -->
<svg version="1.1" id="Layer_1" xmlns="http://www.w3.org/2000/svg" xmlns:xlink="http://www.w3.org/1999/xlink" x="0px" y="0px"
	 viewBox="0 0 226.953 226.953" style="enable-background:new 0 0 226.953 226.953;" xml:space="preserve">
<g>
	<g>
		<g>
			<path d="M195.141,110.55c-0.212-1.924-0.503-3.831-0.875-5.716c-0.089-0.453-0.195-0.898-0.293-1.348
				c-0.385-1.763-0.826-3.51-1.348-5.229c-0.06-0.198-0.106-0.4-0.168-0.597c-0.587-1.873-1.28-3.706-2.024-5.517
				c-0.148-0.358-0.293-0.716-0.447-1.072c-0.793-1.838-1.657-3.642-2.607-5.402c-0.047-0.087-0.098-0.17-0.146-0.257
				c-5.073-9.296-12.297-17.431-21.301-23.602l-3.08-2.111l-0.137,0.163c-10.307-6.272-22.358-9.953-35.282-9.953H82.552
				c-37.575,0-68.141,30.558-68.141,68.116v43.051v8.235v57.642h181.161v-24.704v-84.224c0-2.083-0.127-4.148-0.314-6.2
				C195.22,111.397,195.188,110.972,195.141,110.55z M22.646,118.022c0-33.019,26.875-59.882,59.906-59.882h44.88
				c10.908,0,21.113,2.977,29.932,8.09L92.64,143.305v17.768h-8.606c-1.969-11.665-12.115-20.587-24.332-20.587
				c-12.217,0-22.362,8.922-24.332,20.587H22.646V118.022z M76.171,165.19c0,9.083-7.386,16.469-16.469,16.469
				s-16.469-7.386-16.469-16.469s7.386-16.469,16.469-16.469S76.171,156.107,76.171,165.19z M187.338,218.715H22.646v-49.408H35.37
				c1.969,11.665,12.115,20.587,24.332,20.587c12.217,0,22.362-8.922,24.332-20.587h8.606v9.972l23.57,22.967h71.128V218.715z
				 M187.339,194.011h-67.783l-18.681-18.206v-6.498h0v-8.235v-14.768l63.353-75.436c0.292,0.229,0.604,0.433,0.892,0.667
				c0.689,0.558,1.332,1.161,1.992,1.747c3.161,2.805,6.015,5.932,8.526,9.339c0.595,0.81,1.208,1.608,1.761,2.445
				c0.555,0.837,1.056,1.712,1.569,2.578c0.579,0.982,1.151,1.968,1.673,2.982c0.42,0.812,0.811,1.642,1.194,2.475
				c0.525,1.145,1.014,2.305,1.467,3.482c0.299,0.777,0.594,1.556,0.861,2.347c0.439,1.304,0.816,2.631,1.165,3.966
				c0.19,0.726,0.399,1.444,0.562,2.18c0.331,1.495,0.572,3.013,0.788,4.538c0.088,0.621,0.216,1.23,0.284,1.857
				c0.238,2.163,0.377,4.347,0.377,6.551V194.011z"/>
			<path d="M23.354,45.08c0.804,0.804,1.858,1.206,2.911,1.206c1.053,0,2.107-0.402,2.911-1.206l5.822-5.822l5.822,5.822
				c0.804,0.804,1.858,1.206,2.911,1.206c1.053,0,2.107-0.402,2.911-1.206c1.608-1.608,1.608-4.214,0-5.822l-5.822-5.822
				l5.822-5.822c1.608-1.608,1.608-4.214,0-5.822c-1.608-1.608-4.214-1.608-5.822,0l-5.822,5.822l-5.822-5.822
				c-1.608-1.608-4.214-1.608-5.822,0c-1.608,1.608-1.608,4.214,0,5.822l5.822,5.822l-5.822,5.822
				C21.745,40.867,21.745,43.472,23.354,45.08z"/>
			<path d="M146.873,24.494c0.804,0.804,1.858,1.206,2.911,1.206c1.053,0,2.107-0.402,2.911-1.206l5.822-5.822l5.822,5.822
				c0.804,0.804,1.858,1.206,2.911,1.206c1.053,0,2.107-0.402,2.911-1.206c1.608-1.608,1.608-4.214,0-5.822l-5.822-5.822
				l5.822-5.822c1.608-1.608,1.608-4.214,0-5.822c-1.608-1.608-4.214-1.608-5.822,0l-5.822,5.822l-5.822-5.822
				c-1.608-1.608-4.214-1.608-5.822,0c-1.608,1.608-1.608,4.214,0,5.822l5.822,5.822l-5.822,5.822
				C145.264,20.28,145.264,22.886,146.873,24.494z"/>
			<path d="M211.336,59.845l-5.823-5.822l5.822-5.822c1.608-1.608,1.608-4.214,0-5.822c-1.608-1.608-4.214-1.608-5.822,0
				l-5.822,5.822l-5.822-5.822c-1.608-1.608-4.214-1.608-5.822,0c-1.608,1.608-1.608,4.214,0,5.822l5.822,5.822l-5.822,5.822
				c-1.608,1.608-1.608,4.214,0,5.822c0.804,0.804,1.858,1.206,2.911,1.206s2.107-0.402,2.911-1.206l5.823-5.822l5.822,5.822
				c0.804,0.804,1.858,1.206,2.911,1.206c1.053,0,2.107-0.402,2.911-1.206C212.944,64.059,212.944,61.453,211.336,59.845z"/>
		</g>
	</g>
</g>
<g>
</g>
<g>
</g>
<g>
</g>
<g>
</g>
<g>
</g>
<g>
</g>
<g>
</g>
<g>
</g>
<g>
</g>
<g>
</g>
<g>
</g>
<g>
</g>
<g>
</g>
<g>
</g>
<g>
</g>
</svg>
