<?xml version="1.0" encoding="iso-8859-1"?>
<!-- Generator: Adobe Illustrator 19.0.0, SVG Export Plug-In . SVG Version: 6.00 Build 0)  -->
<svg version="1.1" id="Layer_1" xmlns="http://www.w3.org/2000/svg" xmlns:xlink="http://www.w3.org/1999/xlink" x="0px" y="0px"
	 viewBox="0 0 222.335 222.335" style="enable-background:new 0 0 222.335 222.335;" xml:space="preserve">
<g>
	<g>
		<g>
			<path d="M222.334,111.167c0-13.224-11.143-25.072-29.551-33.854c6.766-19.178,6.323-35.42-3.01-44.753
				c-9.109-9.112-24.932-10.066-44.756-3.013C136.237,11.142,124.389,0,111.167,0S86.097,11.143,77.315,29.551
				c-19.181-6.769-35.424-6.326-44.754,3.008c-9.333,9.333-9.777,25.576-3.009,44.755C11.144,86.095,0,97.943,0,111.167
				s11.143,25.072,29.551,33.854c-6.766,19.178-6.323,35.42,3.01,44.753c5.143,5.145,12.408,7.722,21.331,7.722
				c6.88,0,14.794-1.629,23.429-4.7c8.781,18.401,20.627,29.539,33.847,29.539c13.221,0,25.067-11.139,33.848-29.541
				c8.634,3.072,16.549,4.7,23.428,4.7c8.922,0,16.188-2.577,21.331-7.722c9.332-9.332,9.777-25.573,3.011-44.751
				C211.193,136.24,222.334,124.391,222.334,111.167z M168.399,33.089c6.691,0,12.022,1.763,15.552,5.293
				c6.968,6.968,6.941,19.964,1.364,35.693c-8.519-3.354-18.241-6.119-28.882-8.176c-2.05-10.607-4.805-20.3-8.145-28.8
				C155.8,34.478,162.628,33.089,168.399,33.089z M160.5,105.003c1.586,2.057,3.088,4.111,4.557,6.163
				c-1.469,2.052-2.971,4.107-4.557,6.163c0.047-2.039,0.075-4.092,0.075-6.162C160.576,109.096,160.547,107.043,160.5,105.003z
				 M170.01,118.409c4.989,7.645,9.105,15.129,12.235,22.214c-7.211,2.788-15.399,5.169-24.312,7.043
				c0.793-5.289,1.415-10.768,1.855-16.409C163.445,126.977,166.846,122.691,170.01,118.409z M159.789,91.075
				c-0.441-5.64-1.062-11.118-1.854-16.408c8.913,1.874,17.101,4.255,24.311,7.043c-3.131,7.084-7.246,14.567-12.235,22.212
				C166.846,99.642,163.445,95.354,159.789,91.075z M140.282,140.282c-4.037,4.037-8.171,7.834-12.342,11.475
				c-5.476,0.376-11.076,0.583-16.773,0.583c-5.696,0-11.295-0.206-16.77-0.583c-4.171-3.643-8.306-7.44-12.345-11.477
				c-4.056-4.056-7.85-8.198-11.477-12.365c-0.375-5.468-0.581-11.059-0.581-16.748s0.206-11.281,0.581-16.75
				c3.627-4.167,7.421-8.309,11.477-12.365c4.037-4.037,8.172-7.834,12.342-11.475c5.476-0.376,11.076-0.583,16.773-0.583
				c5.71,0,11.322,0.207,16.809,0.586c4.149,3.614,8.267,7.431,12.306,11.47c4.056,4.056,7.85,8.198,11.477,12.365
				c0.375,5.47,0.581,11.062,0.581,16.752c0,5.689-0.206,11.281-0.581,16.75C148.133,132.084,144.339,136.226,140.282,140.282z
				 M150.425,141.591c-0.336,2.612-0.721,5.173-1.137,7.697c-2.52,0.416-5.077,0.8-7.685,1.135c1.504-1.433,3.019-2.837,4.501-4.319
				C147.597,144.61,148.99,143.096,150.425,141.591z M117.402,160.497c-2.073,1.605-4.154,3.113-6.233,4.606
				c-2.08-1.492-4.16-3-6.233-4.606c2.062,0.049,4.138,0.077,6.232,0.077C113.263,160.574,115.339,160.545,117.402,160.497z
				 M80.735,150.424c-2.609-0.335-5.167-0.72-7.687-1.136c-0.417-2.525-0.802-5.087-1.138-7.699c1.436,1.506,2.827,3.02,4.321,4.513
				C77.714,147.585,79.229,148.989,80.735,150.424z M71.911,80.744c0.336-2.612,0.721-5.173,1.137-7.697
				c2.52-0.416,5.077-0.8,7.685-1.135c-1.504,1.433-3.019,2.837-4.501,4.319C74.739,77.725,73.347,79.239,71.911,80.744z
				 M104.933,61.837c2.071-1.604,4.149-3.11,6.226-4.601c2.055,1.472,4.114,3.01,6.173,4.599c-2.04-0.047-4.094-0.075-6.165-0.075
				C109.073,61.76,106.997,61.789,104.933,61.837z M141.594,71.911c2.611,0.336,5.171,0.721,7.694,1.137
				c0.417,2.523,0.801,5.083,1.137,7.694c-1.435-1.506-2.826-3.02-4.32-4.513C144.612,74.736,143.099,73.346,141.594,71.911z
				 M147.669,64.401c-5.29-0.793-10.769-1.414-16.41-1.854c-4.291-3.666-8.588-7.075-12.88-10.245
				c7.536-4.915,15.008-9.004,22.261-12.174C143.422,47.33,145.797,55.504,147.669,64.401z M111.167,8.235
				c9.867,0,19.053,9.224,26.236,24.325c-8.541,3.729-17.356,8.665-26.2,14.64c-9.009-6.094-17.849-10.984-26.271-14.643
				C92.115,17.457,101.302,8.235,111.167,8.235z M81.716,40.078c7.092,3.134,14.587,7.257,22.239,12.252
				c-4.326,3.195-8.635,6.58-12.897,10.218c-5.633,0.44-11.106,1.061-16.39,1.854C76.542,55.484,78.925,47.291,81.716,40.078z
				 M38.383,38.381c3.675-3.675,9.027-5.41,15.568-5.41c5.857,0,12.693,1.434,20.119,4.065c-3.351,8.514-6.114,18.23-8.17,28.864
				c-10.641,2.056-20.363,4.822-28.882,8.176C31.443,58.346,31.415,45.349,38.383,38.381z M61.836,117.326
				c-1.586-2.056-3.086-4.11-4.556-6.16c1.469-2.05,2.97-4.105,4.556-6.161c-0.047,2.039-0.075,4.092-0.075,6.162
				C61.761,113.236,61.789,115.288,61.836,117.326z M62.547,131.255c0.441,5.641,1.063,11.121,1.855,16.412
				c-8.913-1.874-17.101-4.255-24.311-7.043c3.131-7.085,7.247-14.568,12.236-22.214C55.49,122.69,58.891,126.976,62.547,131.255z
				 M62.547,91.077c-3.656,4.279-7.057,8.565-10.221,12.846c-4.989-7.645-9.104-15.128-12.235-22.213
				c7.211-2.788,15.398-5.168,24.311-7.042C63.61,79.958,62.987,85.437,62.547,91.077z M32.557,137.401
				c-15.099-7.182-24.321-16.368-24.321-26.234c0-9.866,9.223-19.052,24.322-26.235c3.654,8.41,8.537,17.237,14.619,26.234
				C41.094,120.164,36.211,128.991,32.557,137.401z M38.383,183.952c-6.968-6.968-6.941-19.964-1.364-35.693
				c8.519,3.354,18.241,6.119,28.882,8.176c2.05,10.608,4.806,20.302,8.146,28.803C57.826,190.897,44.956,190.527,38.383,183.952z
				 M74.667,157.933c5.285,0.792,10.759,1.413,16.393,1.854c4.268,3.643,8.583,7.034,12.917,10.233
				c-7.543,4.921-15.022,9.014-22.281,12.186C78.914,175.004,76.539,166.831,74.667,157.933z M111.167,214.1
				c-9.867,0-19.053-9.224-26.236-24.325c8.552-3.734,17.381-8.678,26.238-14.664c8.856,5.985,17.684,10.929,26.235,14.663
				C130.221,204.875,121.036,214.1,111.167,214.1z M140.641,182.205c-7.258-3.172-14.737-7.265-22.279-12.185
				c4.333-3.2,8.648-6.59,12.916-10.233c5.634-0.44,11.106-1.061,16.39-1.854C145.797,166.83,143.422,175.004,140.641,182.205z
				 M183.953,183.95c-6.577,6.579-19.445,6.95-35.663,1.287c3.34-8.499,6.095-18.193,8.146-28.801
				c10.641-2.057,20.364-4.823,28.883-8.176C190.893,163.987,190.919,176.983,183.953,183.95z M189.779,137.401
				c-3.654-8.41-8.537-17.238-14.619-26.235c6.082-8.997,10.964-17.823,14.618-26.233c15.099,7.183,24.322,16.368,24.322,26.234
				S204.878,130.218,189.779,137.401z"/>
			<path d="M111.167,94.698c-9.083,0-16.469,7.388-16.469,16.469s7.386,16.469,16.469,16.469s16.469-7.388,16.469-16.469
				S120.25,94.698,111.167,94.698z M111.167,119.402c-4.539,0-8.235-3.693-8.235-8.235s3.695-8.235,8.235-8.235
				c4.539,0,8.235,3.693,8.235,8.235S115.708,119.402,111.167,119.402z"/>
		</g>
	</g>
</g>
<g>
</g>
<g>
</g>
<g>
</g>
<g>
</g>
<g>
</g>
<g>
</g>
<g>
</g>
<g>
</g>
<g>
</g>
<g>
</g>
<g>
</g>
<g>
</g>
<g>
</g>
<g>
</g>
<g>
</g>
</svg>
