<?xml version="1.0" encoding="iso-8859-1"?>
<!-- Generator: Adobe Illustrator 19.0.0, SVG Export Plug-In . SVG Version: 6.00 Build 0)  -->
<svg version="1.1" id="Layer_1" xmlns="http://www.w3.org/2000/svg" xmlns:xlink="http://www.w3.org/1999/xlink" x="0px" y="0px"
	 viewBox="0 0 234.203 234.203" style="enable-background:new 0 0 234.203 234.203;" xml:space="preserve">
<g>
	<g>
		<path d="M227.679,21.833l-3.8-3.8c-3.969-3.965-9.115-5.947-14.367-5.609c-5.292,0.346-10.08,2.976-13.413,7.31L169.94,51.76
			c-5.919,6.622-16.164,16.699-22.854,22.866l-32.054,26.191c-1.192,0.923-2.228,1.959-3.149,3.064
			c-7.081-2.043-27.091-6.979-44.755-3.442c-21.728,4.347-34.715,19.252-35.254,19.887c-1.483,1.726-1.282,4.323,0.447,5.803
			c0.776,0.667,1.729,0.993,2.678,0.993c1.158,0,2.312-0.487,3.124-1.439c0.117-0.133,11.648-13.373,30.622-17.169
			c14.684-2.943,31.938,0.878,39.406,2.89c-0.124,0.527-0.203,1.064-0.279,1.604c-0.96,0.303-1.826,0.93-2.373,1.847
			c-0.064,0.105-6.735,10.627-42.11,14.35c-40.775,4.29-61.988,41.675-62.869,43.268c-1.106,1.986-0.39,4.487,1.596,5.593
			c0.635,0.354,1.319,0.523,1.999,0.523c1.444,0,2.847-0.764,3.603-2.115c0.193-0.35,20.084-35.242,56.533-39.082
			c27.581-2.902,39.816-9.942,45.02-14.551c0.448,0.991,0.941,1.965,1.569,2.886c-1.721,5.683-9.455,25.958-33.67,32.416
			c-31.406,8.371-32.669,17.788-31.752,21.443c0.466,1.874,2.143,3.12,3.989,3.12c0.33,0,0.667-0.04,1.001-0.125
			c1.954-0.487,3.229-2.292,3.116-4.23c0.338-0.82,3.398-6.288,25.769-12.256c23.857-6.36,33.972-23.869,37.858-33.547
			c1.211,1.195,2.574,2.187,4.014,3.051c-1.098,7.533-5.995,29.958-26.131,39.249c-28.27,13.047-34.953,40.755-35.226,41.929
			c-0.511,2.211,0.868,4.415,3.08,4.93c0.314,0.072,0.627,0.109,0.937,0.109c1.866,0,3.559-1.283,4.005-3.176
			c0.06-0.249,6.144-25.002,30.655-36.312c22.486-10.377,28.82-33.538,30.558-43.762c1.411,0.251,2.843,0.394,4.278,0.394
			c4.958,0,9.924-1.508,13.936-4.596l32.307-26.396c6.852-6.124,17.229-16.682,23.679-23.691l26.405-32.319
			C236.42,43.208,235.539,29.697,227.679,21.833z M223.199,46.83l-23.686,29.002l-5.147-5.147c-1.608-1.608-4.214-1.608-5.822,0
			c-1.609,1.608-1.608,4.214,0,5.822l5.528,5.528c-6.111,6.463-14.295,14.694-19.862,19.674l-8.182,6.684
			c-0.044-0.067-0.052-0.146-0.101-0.211l-6.176-8.235c-1.367-1.826-3.944-2.191-5.762-0.824c-1.822,1.363-2.191,3.944-0.824,5.762
			l6.176,8.235c0.122,0.163,0.307,0.232,0.447,0.371l-17.648,14.417c-5.513,4.246-14.338,3.659-19.272-1.266l-3.8-3.8
			c-2.256-2.256-3.393-5.087-3.213-7.973c0.185-2.899,1.681-5.577,4.302-7.608l5.844-4.775l6.958,6.958
			c0.804,0.804,1.858,1.206,2.911,1.206c1.053,0,2.107-0.402,2.911-1.206c1.608-1.608,1.608-4.214,0-5.822l-6.372-6.372
			l19.982-16.326c0.064-0.052,0.125-0.105,0.185-0.161c1.152-1.061,2.434-2.269,3.759-3.527l9.562,9.562
			c0.804,0.804,1.858,1.206,2.911,1.206c1.053,0,2.107-0.402,2.911-1.206c1.608-1.608,1.608-4.214,0-5.822l-9.462-9.462
			c5.049-4.961,10.251-10.276,13.941-14.409l11.2-13.711c0.048,0.053,0.064,0.121,0.114,0.173l10.293,10.293
			c0.804,0.804,1.858,1.206,2.911,1.206c1.053,0,2.107-0.402,2.911-1.206c1.608-1.608,1.608-4.214,0-5.822l-10.293-10.293
			c-0.253-0.253-0.562-0.396-0.856-0.569l10.072-12.33c1.942-2.525,4.604-4.017,7.495-4.206c0.205-0.016,0.414-0.02,0.619-0.02
			c2.686,0,5.287,1.134,7.39,3.233l3.8,3.8C226.802,32.605,227.385,41.422,223.199,46.83z"/>
	</g>
</g>
<g>
</g>
<g>
</g>
<g>
</g>
<g>
</g>
<g>
</g>
<g>
</g>
<g>
</g>
<g>
</g>
<g>
</g>
<g>
</g>
<g>
</g>
<g>
</g>
<g>
</g>
<g>
</g>
<g>
</g>
</svg>
