<?xml version="1.0" encoding="iso-8859-1"?>
<!-- Generator: Adobe Illustrator 19.0.0, SVG Export Plug-In . SVG Version: 6.00 Build 0)  -->
<svg version="1.1" id="Layer_1" xmlns="http://www.w3.org/2000/svg" xmlns:xlink="http://www.w3.org/1999/xlink" x="0px" y="0px"
	 viewBox="0 0 209.983 209.983" style="enable-background:new 0 0 209.983 209.983;" xml:space="preserve">
<g>
	<g>
		<g>
			<path d="M189.397,61.76V37.056h-20.587V24.704h20.586V0H20.586v24.704h20.587v12.352H20.586V61.76h20.587v86.463H20.586v24.704
				h20.587v12.352H20.586v24.704h168.81v-24.704h-20.587v-12.352h20.587v-24.704h-20.587V61.76H189.397z M28.82,16.47V8.235h152.34
				v8.235H28.82z M160.575,24.704v12.352H49.408V24.704H160.575z M181.161,193.513v8.235H28.82v-8.235H181.161z M49.408,185.279
				v-12.352h111.167v12.352H49.408z M181.161,156.458v8.235H28.82v-8.235h12.352h127.637H181.161z M49.408,148.223V61.76h111.167
				v86.463H49.408z M41.172,53.525H28.82V45.29h152.34v8.235h-12.351H41.172z"/>
			<path d="M107.049,74.112c-18.161,0-32.939,14.776-32.939,32.938s14.777,32.938,32.939,32.938
				c18.162,0,32.938-14.777,32.938-32.938S125.21,74.112,107.049,74.112z M107.049,131.754c-13.623,0-24.704-11.081-24.704-24.704
				s11.081-24.704,24.704-24.704c13.623,0,24.704,11.081,24.704,24.704S120.672,131.754,107.049,131.754z"/>
			<polygon points="111.166,94.698 102.932,94.698 102.932,104.672 92.51,110.689 96.627,117.822 106.71,112.001 116.791,117.822 
				120.91,110.689 111.166,105.065 			"/>
		</g>
	</g>
</g>
<g>
</g>
<g>
</g>
<g>
</g>
<g>
</g>
<g>
</g>
<g>
</g>
<g>
</g>
<g>
</g>
<g>
</g>
<g>
</g>
<g>
</g>
<g>
</g>
<g>
</g>
<g>
</g>
<g>
</g>
</svg>
