<?xml version="1.0" encoding="iso-8859-1"?>
<!-- Generator: Adobe Illustrator 19.0.0, SVG Export Plug-In . SVG Version: 6.00 Build 0)  -->
<svg version="1.1" id="Layer_1" xmlns="http://www.w3.org/2000/svg" xmlns:xlink="http://www.w3.org/1999/xlink" x="0px" y="0px"
	 viewBox="0 0 230.566 230.566" style="enable-background:new 0 0 230.566 230.566;" xml:space="preserve">
<g>
	<g>
		<g>
			<path d="M116.33,99.356l-22.661,12.947v-9.372c0-1.508-0.824-2.895-2.149-3.619c-1.327-0.72-2.937-0.655-4.206,0.161
				l-34.997,22.645c-1.908,1.238-2.455,3.783-1.218,5.693c0.788,1.218,2.109,1.882,3.46,1.882c0.766,0,1.542-0.213,2.234-0.66
				l28.642-18.536v8.902c0,1.467,0.782,2.822,2.05,3.562c1.269,0.732,2.833,0.736,4.109,0.012l28.821-16.469
				c1.974-1.13,2.66-3.643,1.532-5.617C120.821,98.914,118.304,98.222,116.33,99.356z"/>
			<path d="M218.217,100.872c-5.36,0-9.888,3.452-11.593,8.235h-4.981c-0.409-9.043-2.424-28.821-12.247-28.821
				c-9.824,0-11.839,19.778-12.247,28.821h-6.324c-7.069-8.899-41.609-49.408-84.362-49.408c-5.094,0-10.063,0.603-14.891,1.632
				l-0.639-5.749h36.152c9.061,0,16.433-7.386,16.433-16.469s-7.372-16.469-16.433-16.469H32.902
				c-9.061,0-16.433,7.386-16.433,16.469s7.372,16.469,16.433,16.469H62.65l0.878,7.903c-35.621,11.509-61.419,45.546-62.71,47.279
				c-1.091,1.46-1.091,3.462,0,4.921c1.006,1.35,16.905,22.33,40.73,36.973l-26.642,49.185c-0.692,1.278-0.66,2.822,0.082,4.069
				c0.744,1.247,2.087,2.01,3.538,2.01h45.29c2.123,0,3.898-1.612,4.099-3.727l3.234-33.955l12.061,15.507
				c0.812,1.042,2.027,1.588,3.253,1.588c0.884,0,1.775-0.282,2.525-0.868c1.795-1.395,2.119-3.981,0.724-5.778l-11.217-14.422
				c2.621,0.303,5.275,0.481,7.966,0.481c42.752,0,77.293-40.509,84.361-49.408h6.324c0.409,9.043,2.424,28.821,12.247,28.821
				s11.838-19.778,12.247-28.821h4.981c1.705,4.782,6.232,8.235,11.593,8.235c6.811,0,12.352-5.541,12.352-12.352
				C230.569,106.412,225.029,100.872,218.217,100.872z M61.826,47.347H32.902c-4.521,0-8.198-3.695-8.198-8.235
				c0-4.54,3.677-8.235,8.198-8.235h74.184c4.521,0,8.198,3.695,8.198,8.235c0,4.54-3.677,8.235-8.198,8.235H70.019H61.826z
				 M60.075,199.686H25.441l23.274-42.965c4.715,2.453,9.681,4.587,14.855,6.255L60.075,199.686z M86.464,158.514
				c-37.136,0-69.013-35.516-77.081-45.294c8.06-9.779,39.886-45.286,77.081-45.286c37.136,0,69.013,35.516,77.081,45.294
				C155.485,123.006,123.658,158.514,86.464,158.514z M189.396,89.224c1.521,2.466,3.58,9.326,4.022,19.883h-8.045
				C185.816,98.55,187.876,91.689,189.396,89.224z M189.396,137.224c-1.52-2.466-3.58-9.326-4.022-19.883h8.045
				C192.977,127.898,190.917,134.758,189.396,137.224z M218.217,117.341c-2.27,0-4.117-1.845-4.117-4.117
				c0-2.272,1.847-4.117,4.117-4.117c2.27,0,4.117,1.845,4.117,4.117C222.334,115.496,220.487,117.341,218.217,117.341z"/>
		</g>
	</g>
</g>
<g>
</g>
<g>
</g>
<g>
</g>
<g>
</g>
<g>
</g>
<g>
</g>
<g>
</g>
<g>
</g>
<g>
</g>
<g>
</g>
<g>
</g>
<g>
</g>
<g>
</g>
<g>
</g>
<g>
</g>
</svg>
