<?xml version="1.0" encoding="iso-8859-1"?>
<!-- Generator: Adobe Illustrator 19.0.0, SVG Export Plug-In . SVG Version: 6.00 Build 0)  -->
<svg version="1.1" id="Layer_1" xmlns="http://www.w3.org/2000/svg" xmlns:xlink="http://www.w3.org/1999/xlink" x="0px" y="0px"
	 viewBox="0 0 232.661 232.661" style="enable-background:new 0 0 232.661 232.661;" xml:space="preserve">
<g>
	<g>
		<g>
			<path d="M222.148,109.758c-17.25-29.876-51.36-44.014-83.439-37.47l-8.205-14.212c-1.14-1.97-3.663-2.646-5.625-1.508
				l-14.369,8.296c-6.998-10.875-17.59-18.693-30.167-22.063C66.94,39.208,52.941,41.05,40.917,47.99
				c-1.97,1.138-2.644,3.655-1.508,5.625c1.136,1.966,3.651,2.642,5.625,1.508c10.115-5.84,21.895-7.388,33.178-4.368
				c10.453,2.801,19.276,9.254,25.166,18.228l-14.155,8.172c-0.945,0.547-1.637,1.446-1.918,2.501
				c-0.283,1.055-0.135,2.179,0.41,3.124l8.195,14.194c-7.981,8.977-13.874,19.711-17.074,31.651
				c-5.408,20.184-2.633,41.266,7.814,59.361c10.447,18.095,27.317,31.041,47.502,36.448c6.739,1.807,13.578,2.7,20.373,2.7
				c13.554,0,26.933-3.557,38.988-10.514c18.096-10.448,31.041-27.317,36.448-47.502
				C235.37,148.937,232.596,127.854,222.148,109.758z M125.429,65.76l4.117,7.129l-28.523,16.469l-4.117-7.129L125.429,65.76z
				 M222.009,166.988c-4.839,18.06-16.421,33.154-32.613,42.5c-16.196,9.348-35.057,11.825-53.113,6.994
				c-18.059-4.839-33.153-16.421-42.5-32.613c-9.348-16.19-11.833-35.053-6.994-53.113c4.839-18.057,16.421-33.152,32.613-42.5
				c10.995-6.349,23.011-9.364,34.879-9.364c24.207,0,47.785,12.555,60.734,34.983C224.363,130.067,226.848,148.929,222.009,166.988
				z"/>
			<path d="M124.548,97.169c-28.509,16.461-38.312,53.044-21.853,81.554c0.764,1.321,2.147,2.059,3.571,2.059
				c0.697,0,1.407-0.177,2.055-0.551c1.97-1.138,2.644-3.655,1.508-5.625c-14.189-24.577-5.74-56.114,18.837-70.304
				c1.97-1.138,2.644-3.655,1.508-5.625C129.034,96.706,126.511,96.029,124.548,97.169z"/>
			<rect x="1.622" y="15.355" transform="matrix(-0.8321 -0.5547 0.5547 -0.8321 26.9145 47.0931)" width="37.928" height="8.235"/>
			
				<rect x="16.471" y="58.46" transform="matrix(-0.8683 -0.4961 0.4961 -0.8683 -0.8168 158.1268)" width="8.233" height="41.424"/>
			<rect y="38.001" width="28.821" height="8.235"/>
		</g>
	</g>
</g>
<g>
</g>
<g>
</g>
<g>
</g>
<g>
</g>
<g>
</g>
<g>
</g>
<g>
</g>
<g>
</g>
<g>
</g>
<g>
</g>
<g>
</g>
<g>
</g>
<g>
</g>
<g>
</g>
<g>
</g>
</svg>
