<?xml version="1.0" encoding="iso-8859-1"?>
<!-- Generator: Adobe Illustrator 19.0.0, SVG Export Plug-In . SVG Version: 6.00 Build 0)  -->
<svg version="1.1" id="Layer_1" xmlns="http://www.w3.org/2000/svg" xmlns:xlink="http://www.w3.org/1999/xlink" x="0px" y="0px"
	 viewBox="0 0 226.397 226.397" style="enable-background:new 0 0 226.397 226.397;" xml:space="preserve">
<g>
	<g>
		<g>
			<path d="M117.047,72.059c15.922,0,28.873-12.953,28.873-28.873c0-14.913-23.269-39.265-25.922-41.993
				c-1.556-1.592-4.354-1.588-5.903,0c-2.654,2.728-25.918,27.082-25.918,41.993C88.178,59.106,101.129,72.059,117.047,72.059z
				 M117.047,10.075c8.982,9.861,20.639,25.275,20.639,33.109c0,11.381-9.26,20.639-20.639,20.639
				c-11.379,0-20.635-9.258-20.635-20.639C96.412,35.351,108.064,19.937,117.047,10.075z"/>
			<path d="M212.014,185.224h-53.525v-8.235h37.056v-2.059v-6.176v-27.102h-8.235v27.102h-29.238
				c-1.916-9.385-10.242-16.469-20.194-16.469h-16.445v-12.352h0.008c15.886,0,28.813-12.929,28.813-28.821V86.409
				c0-2.274-1.842-4.117-4.117-4.117H88.495c-2.276,0-4.117,1.844-4.117,4.117v24.704c0,15.892,12.927,28.821,28.813,28.821h0.008
				v12.352H92.637c-11.363,0-20.611,9.236-20.611,20.587v12.352H14.383c-2.276,0-4.117,1.844-4.117,4.117v32.938
				c0,2.274,1.842,4.117,4.117,4.117h197.631c2.276,0,4.117-1.844,4.117-4.117v-32.938
				C216.131,187.067,214.29,185.224,212.014,185.224z M113.191,131.7c-11.347-0.001-20.579-9.237-20.579-20.588V90.526h49.408
				v20.587c0,11.351-9.232,20.587-20.578,20.587H113.191z M80.26,172.872c0-6.811,5.553-12.352,12.376-12.352h20.562h8.235h16.445
				c5.37,0,9.907,3.452,11.616,8.235h-21.885v8.235h22.645v8.235H80.26V172.872z M207.897,218.162H18.501v-24.704h57.642h78.229
				h53.525V218.162z"/>
		</g>
	</g>
</g>
<g>
</g>
<g>
</g>
<g>
</g>
<g>
</g>
<g>
</g>
<g>
</g>
<g>
</g>
<g>
</g>
<g>
</g>
<g>
</g>
<g>
</g>
<g>
</g>
<g>
</g>
<g>
</g>
<g>
</g>
</svg>
