<?xml version="1.0" encoding="iso-8859-1"?>
<!-- Generator: Adobe Illustrator 19.0.0, SVG Export Plug-In . SVG Version: 6.00 Build 0)  -->
<svg version="1.1" id="Layer_1" xmlns="http://www.w3.org/2000/svg" xmlns:xlink="http://www.w3.org/1999/xlink" x="0px" y="0px"
	 viewBox="0 0 226.454 226.454" style="enable-background:new 0 0 226.454 226.454;" xml:space="preserve">
<g>
	<g>
		<path d="M213.669,149.782c0.261-2.57,0.431-5.157,0.431-7.734c0-23.01-10.297-43.624-26.477-57.602
			c-5.744-26.562-25.433-48.57-52-56.736c-1.551-10.986-10.99-19.475-22.396-19.475c-11.405,0-20.844,8.488-22.396,19.472
			c-26.565,8.17-46.255,30.178-52,56.739c-16.18,13.978-26.478,34.592-26.478,57.602c0,2.583,0.178,5.164,0.436,7.732
			C5.297,152.862,0,160.221,0,168.811c0,11.351,9.236,20.587,20.587,20.587c2.555,0,4.975-0.526,7.235-1.381
			c14.379,18.956,36.821,30.202,60.701,30.202c8.655,0,16.944-1.521,24.704-4.192c7.759,2.671,16.049,4.192,24.704,4.192
			c23.836,0,46.325-11.26,60.699-30.202c2.26,0.855,4.681,1.381,7.237,1.381c11.351,0,20.587-9.236,20.587-20.587
			C226.452,160.223,221.157,152.865,213.669,149.782z M181.161,100.469c0,16.963-6.292,32.455-16.611,44.373
			c0.034-0.935,0.142-1.851,0.142-2.794c0-28.696-15.962-53.717-39.462-66.702c4.12-0.783,8.356-1.234,12.7-1.234
			c15.96,0,30.623,5.569,42.231,14.818C180.812,92.697,181.161,96.552,181.161,100.469z M156.458,142.048
			c0,3.957-0.411,7.813-1.063,11.586c-11.598,9.219-26.237,14.771-42.169,14.771s-30.57-5.551-42.169-14.771
			c-0.653-3.773-1.063-7.629-1.063-11.586c0-28.736,17.966-53.306,43.232-63.217C138.492,88.742,156.458,113.311,156.458,142.048z
			 M113.226,16.47c7.945,0,14.411,6.465,14.411,14.411s-6.465,14.411-14.411,14.411s-14.411-6.466-14.411-14.411
			S105.281,16.47,113.226,16.47z M91.242,36.214c2.409,9.916,11.339,17.312,21.984,17.312c10.644,0,19.574-7.395,21.984-17.309
			c19.467,6.652,34.537,21.731,41.571,40.432c-11.392-6.794-24.65-10.771-38.85-10.771c-8.655,0-16.944,1.521-24.704,4.192
			c-7.759-2.671-16.049-4.192-24.704-4.192c-14.2,0-27.457,3.977-38.85,10.77C56.707,57.948,71.777,42.87,91.242,36.214z
			 M46.291,88.93c11.608-9.248,26.271-14.817,42.231-14.817c4.344,0,8.58,0.45,12.7,1.234c-23.5,12.985-39.462,38.006-39.462,66.702
			c0,0.943,0.107,1.859,0.142,2.794c-10.318-11.918-16.611-27.41-16.611-44.373C45.29,96.552,45.64,92.697,46.291,88.93z
			 M20.587,181.163c-6.811,0-12.352-5.541-12.352-12.352c0-5.672,3.864-10.413,9.082-11.857c0.196,0.002,0.38,0.062,0.58,0.036
			c0.359-0.054,0.663-0.22,0.982-0.358c0.563-0.079,1.123-0.173,1.708-0.173c6.811,0,12.352,5.541,12.352,12.352
			C32.939,175.622,27.398,181.163,20.587,181.163z M88.522,209.984c-21.055,0-40.869-9.796-53.71-26.356
			c3.904-3.749,6.361-8.991,6.361-14.817c0-11.244-9.071-20.384-20.275-20.555c-0.187-2.063-0.312-4.135-0.312-6.207
			c0-16.949,6.282-32.431,16.585-44.345c-0.033,0.923-0.116,1.836-0.116,2.766c0,22.982,10.273,43.571,26.418,57.548
			c4.68,21.839,18.735,40.228,37.748,50.733C97.102,209.533,92.866,209.984,88.522,209.984z M113.226,205.264
			c-17.886-7.016-32.056-21.383-38.833-39.386c11.388,6.788,24.639,10.761,38.833,10.761c14.194,0,27.445-3.973,38.833-10.761
			C145.282,183.881,131.112,198.248,113.226,205.264z M137.93,209.984c-4.344,0-8.58-0.45-12.7-1.234
			c19.013-10.505,33.068-28.894,37.748-50.733c16.145-13.977,26.418-34.566,26.418-57.548c0-0.929-0.082-1.842-0.116-2.766
			c10.303,11.914,16.585,27.396,16.585,44.345c0,2.066-0.128,4.141-0.315,6.208c-11.203,0.173-20.272,9.311-20.272,20.554
			c0,5.822,2.453,11.062,6.352,14.81C178.795,200.17,158.947,209.984,137.93,209.984z M205.865,181.162
			c-6.811,0-12.352-5.541-12.352-12.352c0-6.811,5.541-12.352,12.352-12.352c6.811,0,12.352,5.541,12.352,12.352
			C218.217,175.622,212.677,181.162,205.865,181.162z"/>
	</g>
</g>
<g>
</g>
<g>
</g>
<g>
</g>
<g>
</g>
<g>
</g>
<g>
</g>
<g>
</g>
<g>
</g>
<g>
</g>
<g>
</g>
<g>
</g>
<g>
</g>
<g>
</g>
<g>
</g>
<g>
</g>
</svg>
