<?xml version="1.0" encoding="iso-8859-1"?>
<!-- Generator: Adobe Illustrator 19.0.0, SVG Export Plug-In . SVG Version: 6.00 Build 0)  -->
<svg version="1.1" id="Layer_1" xmlns="http://www.w3.org/2000/svg" xmlns:xlink="http://www.w3.org/1999/xlink" x="0px" y="0px"
	 viewBox="0 0 226.453 226.453" style="enable-background:new 0 0 226.453 226.453;" xml:space="preserve">
<g>
	<g>
		<g>
			<path d="M148.224,69.994c-36.324,0-65.877,29.553-65.877,65.877c0,36.324,29.553,65.877,65.877,65.877
				c36.324,0,65.877-29.553,65.877-65.877C214.101,99.547,184.548,69.994,148.224,69.994z M148.224,193.513
				c-31.784,0-57.642-25.858-57.642-57.642s25.858-57.642,57.642-57.642s57.642,25.858,57.642,57.642
				S180.008,193.513,148.224,193.513z"/>
			<path d="M185.279,57.642c15.892,0,28.821-12.929,28.821-28.821C214.101,12.929,201.172,0,185.279,0
				c-15.892,0-28.821,12.929-28.821,28.821C156.459,44.713,169.386,57.642,185.279,57.642z M185.279,8.235
				c11.351,0,20.587,9.236,20.587,20.587c0,11.351-9.236,20.587-20.587,20.587c-11.351,0-20.587-9.236-20.587-20.587
				C164.693,17.471,173.928,8.235,185.279,8.235z"/>
			<path d="M98.816,49.408c11.351,0,20.587-9.236,20.587-20.587S110.167,8.235,98.816,8.235s-20.587,9.236-20.587,20.587
				C78.229,40.173,87.466,49.408,98.816,49.408z M98.816,16.469c6.811,0,12.352,5.541,12.352,12.352
				c0,6.811-5.541,12.352-12.352,12.352s-12.352-5.541-12.352-12.352C86.464,22.01,92.005,16.469,98.816,16.469z"/>
			<path d="M65.878,185.279c-11.351,0-20.587,9.236-20.587,20.587c0,11.351,9.236,20.587,20.587,20.587s20.587-9.236,20.587-20.587
				C86.464,194.515,77.227,185.279,65.878,185.279z M65.878,218.217c-6.811,0-12.352-5.541-12.352-12.352
				c0-6.811,5.541-12.352,12.352-12.352c6.811,0,12.352,5.541,12.352,12.352C78.23,212.676,72.688,218.217,65.878,218.217z"/>
			<path d="M28.821,102.933c-9.081,0-16.469,7.388-16.469,16.469c0,9.083,7.388,16.469,16.469,16.469s16.469-7.386,16.469-16.469
				C45.29,110.321,37.902,102.933,28.821,102.933z M28.821,127.636c-4.541,0-8.235-3.695-8.235-8.235
				c0-4.541,3.693-8.235,8.235-8.235s8.235,3.693,8.235,8.235C37.057,123.941,33.363,127.636,28.821,127.636z"/>
			<path d="M160.576,94.698h-24.704v28.821H107.05v24.704h28.821v28.821h24.704v-28.821h28.821v-24.704h-28.821V94.698z
				 M181.162,131.754v8.235h-28.821v28.821h-8.235v-28.821h-28.821v-8.235h28.821v-28.821h8.235v28.821H181.162z"/>
		</g>
	</g>
</g>
<g>
</g>
<g>
</g>
<g>
</g>
<g>
</g>
<g>
</g>
<g>
</g>
<g>
</g>
<g>
</g>
<g>
</g>
<g>
</g>
<g>
</g>
<g>
</g>
<g>
</g>
<g>
</g>
<g>
</g>
</svg>
