<?xml version="1.0" encoding="iso-8859-1"?>
<!-- Generator: Adobe Illustrator 19.0.0, SVG Export Plug-In . SVG Version: 6.00 Build 0)  -->
<svg version="1.1" id="Layer_1" xmlns="http://www.w3.org/2000/svg" xmlns:xlink="http://www.w3.org/1999/xlink" x="0px" y="0px"
	 viewBox="0 0 219.509 219.509" style="enable-background:new 0 0 219.509 219.509;" xml:space="preserve">
<g>
	<g>
		<g>
			<path d="M75.218,13.654c-0.591-1.628-2.139-2.714-3.872-2.714c-1.733,0-3.281,1.086-3.872,2.714L10.563,170.65
				c-1.957,2.841-3.035,5.889-3.035,9.1c0,0.048,0.014,0.094,0.015,0.143c0.002,0.066,0.014,0.127,0.02,0.192
				c0.375,16.262,27.651,28.486,63.783,28.486s63.408-12.224,63.783-28.486c0.005-0.065,0.018-0.126,0.02-0.192
				c0.001-0.049,0.015-0.095,0.015-0.143c0.001-3.211-1.077-6.259-3.035-9.1L75.218,13.654z M71.346,27.138l48.373,133.446
				c-11.52-5.978-28.602-9.656-48.373-9.656s-36.854,3.678-48.373,9.656L71.346,27.138z M71.346,200.336
				c-32.178,0-54.719-10.467-55.509-20.067l2.123-5.855c6.431-7.979,26.57-15.251,53.386-15.251s46.955,7.272,53.386,15.251
				l2.123,5.855C126.065,189.869,103.524,200.336,71.346,200.336z"/>
			<path d="M164.19,30.321l16.264-16.264v79.23c0,2.274,1.842,4.117,4.117,4.117c2.275,0,4.117-1.844,4.117-4.117v-79.23
				l16.264,16.264c0.804,0.804,1.858,1.206,2.911,1.206s2.107-0.402,2.911-1.206c1.608-1.608,1.608-4.214,0-5.822L187.483,1.206
				c-1.608-1.608-4.214-1.608-5.822,0l-23.292,23.292c-1.608,1.608-1.608,4.214,0,5.822
				C159.977,31.929,162.583,31.929,164.19,30.321z"/>
			<path d="M210.776,189.191c-1.609-1.609-4.214-1.608-5.822,0l-16.264,16.263v-79.228c0-2.274-1.842-4.117-4.117-4.117
				s-4.117,1.844-4.117,4.117v79.228l-16.264-16.263c-1.608-1.608-4.214-1.608-5.822,0c-1.609,1.608-1.608,4.214,0,5.822
				l23.292,23.29c0.804,0.804,1.858,1.206,2.911,1.206s2.107-0.402,2.911-1.206l23.292-23.29
				C212.383,193.405,212.383,190.799,210.776,189.191z"/>
		</g>
	</g>
</g>
<g>
</g>
<g>
</g>
<g>
</g>
<g>
</g>
<g>
</g>
<g>
</g>
<g>
</g>
<g>
</g>
<g>
</g>
<g>
</g>
<g>
</g>
<g>
</g>
<g>
</g>
<g>
</g>
<g>
</g>
</svg>
