<?xml version="1.0" encoding="iso-8859-1"?>
<!-- Generator: Adobe Illustrator 19.0.0, SVG Export Plug-In . SVG Version: 6.00 Build 0)  -->
<svg version="1.1" id="Layer_1" xmlns="http://www.w3.org/2000/svg" xmlns:xlink="http://www.w3.org/1999/xlink" x="0px" y="0px"
	 viewBox="0 0 239.768 239.768" style="enable-background:new 0 0 239.768 239.768;" xml:space="preserve">
<g>
	<g>
		<g>
			<path d="M199.746,105.854c1.757-0.513,2.967-2.123,2.967-3.954c0-1.831-1.21-3.442-2.967-3.954l-20.16-5.859l-5.859-20.158
				c-0.511-1.757-2.123-2.967-3.953-2.967c-1.83,0-3.442,1.21-3.953,2.967l-4.548,15.649l-44.14-44.139l15.649-4.548
				c1.757-0.513,2.967-2.123,2.967-3.954s-1.21-3.442-2.967-3.954l-20.16-5.859l-5.859-20.158c-0.511-1.757-2.123-2.967-3.952-2.967
				c-1.829,0-3.442,1.21-3.953,2.967l-5.859,20.158l-20.16,5.859c-1.757,0.513-2.967,2.123-2.967,3.954s1.21,3.442,2.967,3.954
				l15.66,4.55L41.438,90.487l-4.547-15.647c-0.511-1.757-2.123-2.967-3.953-2.967s-3.442,1.21-3.953,2.967L23.127,95l-20.16,5.859
				C1.21,101.37,0,102.981,0,104.812c0,1.832,1.21,3.442,2.967,3.954l20.16,5.859l5.859,20.158c0.511,1.757,2.123,2.967,3.953,2.967
				c1.83,0,3.442-1.21,3.953-2.967l4.547-15.647l44.142,44.139l-15.65,4.548c-1.757,0.513-2.967,2.123-2.967,3.954
				s1.21,3.442,2.967,3.954l20.16,5.859l5.859,20.158c0.511,1.757,2.123,2.967,3.953,2.967c1.83,0,3.442-1.21,3.953-2.967
				l5.859-20.158l20.16-5.859c1.757-0.513,2.967-2.123,2.967-3.954s-1.21-3.442-2.967-3.954l-15.648-4.547l47.053-47.038
				l4.543,15.633c0.511,1.757,2.123,2.967,3.953,2.967s3.442-1.21,3.953-2.967l5.859-20.158L199.746,105.854z M97.472,32.401
				c1.351-0.394,2.412-1.451,2.803-2.805l2.537-8.727l2.537,8.727c0.39,1.353,1.451,2.41,2.803,2.805l8.729,2.535l-8.729,2.535
				c-1.351,0.394-2.412,1.451-2.803,2.805l-2.537,8.727l-2.537-8.727c-0.39-1.353-1.451-2.41-2.803-2.805l-8.729-2.535
				L97.472,32.401z M38.278,107.346c-1.351,0.394-2.412,1.451-2.803,2.805l-2.537,8.727l-2.537-8.727
				c-0.39-1.353-1.451-2.41-2.803-2.805l-8.729-2.535l8.729-2.535c1.351-0.394,2.412-1.451,2.803-2.805l2.537-8.727l2.537,8.727
				c0.39,1.353,1.451,2.41,2.803,2.805l8.729,2.535L38.278,107.346z M105.24,174.312c-1.351,0.394-2.412,1.451-2.803,2.805
				l-2.537,8.727l-2.537-8.727c-0.39-1.353-1.451-2.41-2.803-2.805l-8.729-2.535l8.729-2.537c1.351-0.394,2.412-1.451,2.803-2.805
				l2.537-8.727l2.537,8.727c0.39,1.353,1.451,2.41,2.803,2.805l8.729,2.537L105.24,174.312z M108.401,157.453l-4.547-15.647
				c-0.511-1.757-2.123-2.967-3.953-2.967s-3.442,1.21-3.953,2.967l-4.547,15.646L47.26,113.314l15.649-4.548
				c1.758-0.512,2.968-2.122,2.968-3.954c0-1.832-1.21-3.442-2.967-3.954L47.262,96.31l47.054-47.038l4.544,15.635
				c0.511,1.757,2.123,2.967,3.952,2.967s3.442-1.21,3.953-2.967l4.547-15.647l44.139,44.137l-15.647,4.547
				c-1.757,0.513-2.967,2.123-2.967,3.954s1.209,3.442,2.967,3.955l15.661,4.551L108.401,157.453z M172.312,107.239l-2.537,8.727
				l-2.537-8.727c-0.39-1.353-1.451-2.41-2.803-2.805l-8.729-2.535l8.729-2.535c1.351-0.394,2.412-1.451,2.803-2.805l2.537-8.727
				l2.537,8.727c0.39,1.353,1.451,2.41,2.803,2.805l8.729,2.535l-8.729,2.535C173.763,104.828,172.702,105.885,172.312,107.239z"/>
			<path d="M236.801,200.878l-20.16-5.859l-5.859-20.158c-0.511-1.757-2.123-2.967-3.953-2.967c-1.83,0-3.442,1.21-3.953,2.967
				l-5.859,20.158l-20.16,5.859c-1.757,0.513-2.967,2.123-2.967,3.954s1.21,3.442,2.967,3.954l20.16,5.859l5.859,20.158
				c0.511,1.757,2.123,2.967,3.953,2.967c1.83,0,3.442-1.21,3.953-2.967l5.859-20.158l20.16-5.859
				c1.757-0.513,2.967-2.123,2.967-3.954C239.769,203,238.558,201.39,236.801,200.878z M212.17,207.367
				c-1.351,0.394-2.412,1.451-2.803,2.805l-2.537,8.727l-2.537-8.727c-0.39-1.353-1.451-2.41-2.803-2.805l-8.729-2.535l8.729-2.535
				c1.351-0.394,2.412-1.451,2.803-2.805l2.537-8.727l2.537,8.727c0.39,1.353,1.451,2.41,2.803,2.805l8.729,2.535L212.17,207.367z"
				/>
		</g>
	</g>
</g>
<g>
</g>
<g>
</g>
<g>
</g>
<g>
</g>
<g>
</g>
<g>
</g>
<g>
</g>
<g>
</g>
<g>
</g>
<g>
</g>
<g>
</g>
<g>
</g>
<g>
</g>
<g>
</g>
<g>
</g>
</svg>
