<?xml version="1.0" encoding="iso-8859-1"?>
<!-- Generator: Adobe Illustrator 19.0.0, SVG Export Plug-In . SVG Version: 6.00 Build 0)  -->
<svg version="1.1" id="Layer_1" xmlns="http://www.w3.org/2000/svg" xmlns:xlink="http://www.w3.org/1999/xlink" x="0px" y="0px"
	 viewBox="0 0 218.257 218.257" style="enable-background:new 0 0 218.257 218.257;" xml:space="preserve">
<g>
	<g>
		<path d="M218.228,3.989c-0.018-0.484-0.099-0.966-0.287-1.42c-0.206-0.499-0.504-0.95-0.878-1.328
			c-0.003-0.003-0.004-0.008-0.007-0.011c-0.379-0.38-0.834-0.683-1.338-0.892c-0.503-0.209-1.037-0.317-1.574-0.317L214.14,0.02
			H65.918c-0.055,0-0.101,0.029-0.155,0.031c-0.481,0.019-0.961,0.099-1.414,0.285c-0.492,0.203-0.933,0.499-1.307,0.865
			c-0.009,0.009-0.022,0.011-0.031,0.02L63.01,1.223c-0.002,0.002-0.004,0.004-0.006,0.007L1.147,62.913
			c-0.947,0.942-1.269,2.22-1.106,3.449v147.15c-0.164,1.226,0.157,2.503,1.098,3.447c0.031,0.03,0.074,0.04,0.106,0.07
			c0.745,0.746,1.775,1.208,2.913,1.208h148.223c1.368,0,2.521-0.711,3.27-1.736l61.397-61.226v-0.001
			c0.38-0.379,0.682-0.833,0.892-1.336c0.209-0.503,0.317-1.038,0.317-1.574c0-0.001,0-0.002,0-0.002V4.137
			C218.258,4.084,218.23,4.041,218.228,3.989z M61.8,14.057v47.722H13.945L61.8,14.057z M8.276,70.014H61.8v80.638L8.276,204.027
			V70.014z M148.263,210.002H13.945l53.674-53.525h80.644V210.002z M148.264,148.243H70.035V70.014h78.229V148.243z M150.507,61.779
			H70.035V8.254h134.147L150.507,61.779z M156.498,204.027v-47.55h47.683L156.498,204.027z M210.023,148.242h-53.525v-80.81
			l53.525-53.376V148.242z"/>
	</g>
</g>
<g>
</g>
<g>
</g>
<g>
</g>
<g>
</g>
<g>
</g>
<g>
</g>
<g>
</g>
<g>
</g>
<g>
</g>
<g>
</g>
<g>
</g>
<g>
</g>
<g>
</g>
<g>
</g>
<g>
</g>
</svg>
