<?xml version="1.0" encoding="iso-8859-1"?>
<!-- Generator: Adobe Illustrator 19.0.0, SVG Export Plug-In . SVG Version: 6.00 Build 0)  -->
<svg version="1.1" id="Layer_1" xmlns="http://www.w3.org/2000/svg" xmlns:xlink="http://www.w3.org/1999/xlink" x="0px" y="0px"
	 viewBox="0 0 230.516 230.516" style="enable-background:new 0 0 230.516 230.516;" xml:space="preserve">
<g>
	<g>
		<g>
			<path d="M153.26,42.918c-1.552-1.592-4.35-1.592-5.903,0c-2.907,2.988-71.16,73.617-71.16,113.487
				c0,40.865,33.248,74.111,74.111,74.111c40.863,0,74.111-33.246,74.111-74.111C224.419,116.535,156.167,45.905,153.26,42.918z
				 M150.308,222.282c-36.324,0-65.877-29.553-65.877-65.877c0-32.138,52.705-90.537,65.877-104.629
				c13.176,14.089,65.877,72.475,65.877,104.629C216.185,192.729,186.633,222.282,150.308,222.282z"/>
			<path d="M88.654,62.791c0-21.572-34.402-57.564-38.326-61.597c-1.552-1.592-4.35-1.592-5.903,0
				C40.5,5.227,6.097,41.219,6.097,62.791c0,22.76,18.516,41.276,41.278,41.276S88.654,85.55,88.654,62.791z M47.375,95.832
				c-18.218,0-33.043-14.823-33.043-33.041c0-14.103,21.656-40.425,33.043-52.737c11.391,12.308,33.043,38.62,33.043,52.737
				C80.419,81.009,65.594,95.832,47.375,95.832z"/>
			<path d="M43.258,78.176c-6.811,0-12.352-5.541-12.352-12.352c0-2.274-1.842-4.117-4.117-4.117s-4.117,1.844-4.117,4.117
				c0,11.351,9.236,20.587,20.587,20.587c2.276,0,4.117-1.844,4.117-4.117S45.534,78.176,43.258,78.176z"/>
			<path d="M150.308,197.578c-22.702,0-41.173-18.469-41.173-41.173c0-2.274-1.842-4.117-4.117-4.117
				c-2.275,0-4.117,1.844-4.117,4.117c0,27.243,22.163,49.408,49.408,49.408c2.276,0,4.117-1.844,4.117-4.117
				S152.583,197.578,150.308,197.578z"/>
		</g>
	</g>
</g>
<g>
</g>
<g>
</g>
<g>
</g>
<g>
</g>
<g>
</g>
<g>
</g>
<g>
</g>
<g>
</g>
<g>
</g>
<g>
</g>
<g>
</g>
<g>
</g>
<g>
</g>
<g>
</g>
<g>
</g>
</svg>
