<?xml version="1.0" encoding="iso-8859-1"?>
<!-- Generator: Adobe Illustrator 19.0.0, SVG Export Plug-In . SVG Version: 6.00 Build 0)  -->
<svg version="1.1" id="Layer_1" xmlns="http://www.w3.org/2000/svg" xmlns:xlink="http://www.w3.org/1999/xlink" x="0px" y="0px"
	 viewBox="0 0 230.549 230.549" style="enable-background:new 0 0 230.549 230.549;" xml:space="preserve">
<g>
	<g>
		<g>
			<path d="M213.049,32.918c-0.006-8.795-3.432-17.06-9.644-23.272C197.187,3.426,188.916,0,180.115,0c-0.002,0-0.004,0-0.004,0
				c-8.795,0-17.06,3.418-23.269,9.628l-32.044,32.044l-2.911-2.911c-1.608-1.608-4.214-1.608-5.822,0
				c-1.609,1.608-1.608,4.214,0,5.822l5.822,5.822l2.912,2.912l-66.958,66.955c-6.285,6.285-8.661,15.404-6.397,23.866l-19.81,19.81
				c-0.772,0.772-1.206,1.819-1.206,2.911c0,1.092,0.434,2.139,1.206,2.911l11.646,11.644c0.804,0.804,1.858,1.206,2.911,1.206
				c1.053,0,2.107-0.402,2.911-1.206l19.806-19.805c8.46,2.262,17.581-0.112,23.87-6.403l66.956-66.956l2.912,2.912l5.824,5.824
				c0.804,0.804,1.858,1.206,2.911,1.206c1.053,0,2.107-0.402,2.911-1.206c1.608-1.608,1.608-4.214,0-5.822l-2.913-2.913
				l32.044-32.044C209.64,49.995,213.057,41.724,213.049,32.918z M86.957,149.385c-4.634,4.632-11.566,6.094-17.671,3.693
				c-1.522-0.599-3.257-0.235-4.413,0.923l-18.681,18.681l-5.824-5.822l18.685-18.685c1.156-1.156,1.52-2.887,0.923-4.411
				c-2.386-6.106-0.939-13.042,3.689-17.669l66.958-66.956l23.29,23.29L86.957,149.385z M165.558,82.431l-2.907-2.907
				c-0.002-0.002-0.002-0.004-0.002-0.004l-29.114-29.115c0,0-0.004-0.002-0.006-0.004l-2.907-2.907l32.044-32.044
				c4.654-4.653,10.848-7.215,17.446-7.215h0.002c6.602,0,12.806,2.569,17.471,7.233c4.658,4.658,7.228,10.858,7.231,17.458
				c0.006,6.602-2.555,12.802-7.214,17.46L165.558,82.431z"/>
			<path d="M33.969,189.376c-9.081,0-16.469,7.039-16.469,15.691c0,7.265,9.807,20.152,12.81,23.928
				c0.766,0.963,1.922,1.532,3.15,1.554c0.024,0,0.048,0,0.072,0c1.204,0,2.348-0.527,3.13-1.444
				c3.233-3.783,13.775-16.698,13.775-24.038C50.438,196.414,43.05,189.376,33.969,189.376z M33.649,219.747
				c-4.22-5.895-7.915-12.294-7.915-14.68c0-4.111,3.693-7.456,8.235-7.456s8.235,3.345,8.235,7.456
				C42.203,207.423,38.2,213.843,33.649,219.747z"/>
		</g>
	</g>
</g>
<g>
</g>
<g>
</g>
<g>
</g>
<g>
</g>
<g>
</g>
<g>
</g>
<g>
</g>
<g>
</g>
<g>
</g>
<g>
</g>
<g>
</g>
<g>
</g>
<g>
</g>
<g>
</g>
<g>
</g>
</svg>
