<?xml version="1.0" encoding="iso-8859-1"?>
<!-- Generator: Adobe Illustrator 19.0.0, SVG Export Plug-In . SVG Version: 6.00 Build 0)  -->
<svg version="1.1" id="Layer_1" xmlns="http://www.w3.org/2000/svg" xmlns:xlink="http://www.w3.org/1999/xlink" x="0px" y="0px"
	 viewBox="0 0 227.792 227.792" style="enable-background:new 0 0 227.792 227.792;" xml:space="preserve">
<g>
	<g>
		<g>
			<path d="M203.833,161.988c-1.455-30.658-19.159-57.184-44.913-71.376l43.638-59.505c2.4,1.369,5.138,2.214,8.094,2.214
				c9.083,0,16.469-7.386,16.469-16.469s-7.386-16.469-16.469-16.469c-9.083,0-16.469,7.386-16.469,16.469
				c0,3.106,0.914,5.982,2.414,8.463L151.41,86.931c-10.85-4.703-22.814-7.363-35.416-7.363c-12.831,0-24.993,2.772-35.997,7.638
				L35.311,26.271c1.5-2.482,2.414-5.357,2.414-8.463c0-9.083-7.386-16.469-16.469-16.469S4.787,8.725,4.787,17.808
				s7.386,16.469,16.469,16.469c2.956,0,5.693-0.845,8.094-2.214l43.174,58.873c-25.433,14.255-42.896,40.572-44.365,70.978h-2.745
				c-13.643,0-24.744,11.073-24.744,24.684v16.51c0,13.611,11.101,24.684,24.744,24.684h176.964
				c13.643,0,24.744-11.074,24.744-24.684v-16.51C227.121,173.477,216.797,162.746,203.833,161.988z M210.652,8.617
				c4.539,0,8.235,3.695,8.235,8.235s-3.695,8.235-8.235,8.235c-4.539,0-8.235-3.695-8.235-8.235S206.113,8.617,210.652,8.617z
				 M21.256,26.043c-4.54,0-8.235-3.696-8.235-8.235s3.695-8.235,8.235-8.235c4.54,0,8.235,3.695,8.235,8.235
				C29.491,22.348,25.796,26.043,21.256,26.043z M115.994,87.802c42.601,0,77.509,32.882,79.704,74.111h-17.047
				c-2.173-32.135-29.405-57.642-62.657-57.642s-60.484,25.507-62.657,57.642H36.29C38.485,120.684,73.394,87.802,115.994,87.802z
				 M77.186,128.47c8.995-8.919,21.129-14.763,34.651-15.766v16.273h8.235V112.7c15.475,1.127,29.145,8.587,38.365,19.748
				l-5.177-5.177l-13.1,13.1l5.822,5.822l13.041-13.041c6.438,8.069,10.603,17.958,11.445,28.763H61.52
				c0.789-10.124,4.486-19.452,10.241-27.226l11.504,11.504l5.822-5.822L77.186,128.47z M218.887,203.107h-0.001
				c0,9.071-7.406,16.449-16.51,16.449H25.413c-9.103,0-16.51-7.378-16.51-16.449v-16.51c0-9.071,7.406-16.449,16.51-16.449h2.533
				h25.178h125.739h23.514c9.103,0,16.51,7.378,16.51,16.449V203.107z"/>
			<path d="M176.841,174.266c-11.524,0-20.9,9.236-20.9,20.587c0,11.351,9.376,20.587,20.9,20.587
				c11.528,0,20.904-9.236,20.904-20.587C197.745,183.502,188.369,174.266,176.841,174.266z M176.841,207.204
				c-6.984,0-12.666-5.541-12.666-12.352c0-6.811,5.681-12.352,12.666-12.352c6.984,0,12.669,5.541,12.669,12.352
				C189.51,201.663,183.825,207.204,176.841,207.204z"/>
			<path d="M45.96,174.266c-11.351,0-20.587,9.236-20.587,20.587c0,11.351,9.236,20.587,20.587,20.587
				c11.351,0,20.587-9.236,20.587-20.587C66.546,183.502,57.31,174.266,45.96,174.266z M45.96,207.204
				c-6.811,0-12.352-5.541-12.352-12.352c0-6.811,5.54-12.352,12.352-12.352c6.812,0,12.352,5.541,12.352,12.352
				C58.312,201.663,52.771,207.204,45.96,207.204z"/>
			<polygon points="80.342,11.773 112.472,67.546 134.518,22.328 158.409,51.531 184.283,25.363 178.429,19.573 158.988,39.235 
				132.749,7.161 111.869,49.999 83.059,0 45.835,25.13 50.443,31.957 			"/>
		</g>
	</g>
</g>
<g>
</g>
<g>
</g>
<g>
</g>
<g>
</g>
<g>
</g>
<g>
</g>
<g>
</g>
<g>
</g>
<g>
</g>
<g>
</g>
<g>
</g>
<g>
</g>
<g>
</g>
<g>
</g>
<g>
</g>
</svg>
