<?xml version="1.0" encoding="iso-8859-1"?>
<!-- Generator: Adobe Illustrator 19.0.0, SVG Export Plug-In . SVG Version: 6.00 Build 0)  -->
<svg version="1.1" id="Layer_1" xmlns="http://www.w3.org/2000/svg" xmlns:xlink="http://www.w3.org/1999/xlink" x="0px" y="0px"
	 viewBox="0 0 230.573 230.573" style="enable-background:new 0 0 230.573 230.573;" xml:space="preserve">
<g>
	<g>
		<g>
			<path d="M128.935,162.448c-2.696,0-5.322,0.406-7.839,1.21c-4.216-4.555-10.199-7.197-16.562-7.197
				c-10.973,0-20.13,7.808-22.048,18.082c-10.476,1.098-18.667,9.859-18.667,20.47c0,9.682,6.932,17.985,16.264,20.08
				c2.871,9.127,11.433,15.48,21.401,15.48c11.127,0,20.388-8.025,22.124-18.512c1.737,0.362,3.514,0.547,5.326,0.547
				c14.042,0,25.466-11.25,25.466-25.078C154.4,173.698,142.977,162.448,128.935,162.448z M128.935,204.373
				c-2.63,0-5.155-0.563-7.509-1.681l-6.701-3.172l0.85,7.366c0.06,0.527,0.093,1.061,0.093,1.604
				c0,7.636-6.363,13.848-14.183,13.848c-6.98,0-12.865-4.869-13.992-11.584l-0.535-3.184l-3.221-0.237
				c-6.552-0.487-11.682-5.898-11.682-12.32c0-6.811,5.677-12.352,12.657-12.352c0.392,0,0.78,0.02,1.162,0.052l4.479,0.326v-4.495
				c0-7.636,6.361-13.848,14.181-13.848c4.769,0,9.191,2.32,11.831,6.208l1.97,2.903l3.181-1.484c2.324-1.089,4.821-1.64,7.419-1.64
				c9.501,0,17.231,7.559,17.231,16.847C146.167,196.818,138.436,204.373,128.935,204.373z"/>
			<path d="M62.28,102.875c0.752,1.355,2.155,2.119,3.603,2.119c0.676,0,1.363-0.165,1.996-0.519
				c1.986-1.106,2.704-3.611,1.598-5.597L28.304,24.767c-1.1-1.986-3.607-2.71-5.599-1.6c-1.986,1.106-2.704,3.611-1.598,5.597
				L62.28,102.875z"/>
			<path d="M90.691,142.987c0.442,1.898,2.135,3.181,4.005,3.181c0.31,0,0.625-0.036,0.939-0.109
				c2.216-0.515,3.591-2.73,3.074-4.946L69.887,17.594c-0.517-2.211-2.738-3.587-4.944-3.072c-2.216,0.515-3.591,2.73-3.074,4.946
				L90.691,142.987z"/>
			<path d="M100.872,90.584c0.086,0,0.173-0.004,0.261-0.008c2.27-0.141,3.995-2.095,3.852-4.366l-4.117-65.877
				c-0.143-2.272-2.067-3.916-4.366-3.852c-2.27,0.141-3.995,2.095-3.852,4.367l4.117,65.877
				C96.903,88.907,98.714,90.584,100.872,90.584z"/>
			<path d="M110.688,137.905c0.163,0.02,0.326,0.028,0.487,0.028c2.059,0,3.836-1.54,4.083-3.635l8.235-69.994
				c0.266-2.26-1.349-4.306-3.609-4.572c-2.246-0.285-4.302,1.347-4.57,3.607l-8.235,69.994
				C106.814,135.593,108.429,137.639,110.688,137.905z"/>
			<path d="M148.868,98.665l-28.821,45.29c-1.22,1.918-0.655,4.463,1.262,5.686c0.686,0.434,1.451,0.643,2.207,0.643
				c1.361,0,2.692-0.676,3.478-1.906l28.821-45.29c1.22-1.918,0.655-4.463-1.262-5.686C152.635,96.189,150.09,96.752,148.868,98.665
				z"/>
			<path d="M197.889,33.654c-1.882-1.278-4.441-0.788-5.721,1.09L157.171,86.21c-1.279,1.881-0.79,4.442,1.089,5.721
				c0.71,0.483,1.516,0.712,2.312,0.712c1.317,0,2.612-0.631,3.41-1.801l34.997-51.466
				C200.257,37.494,199.769,34.933,197.889,33.654z"/>
			<path d="M130.211,104.693c0.506,0.205,1.029,0.301,1.542,0.301c1.628,0,3.17-0.973,3.82-2.573l39.114-96.757
				c0.852-2.111-0.167-4.507-2.274-5.36c-2.113-0.861-4.507,0.169-5.362,2.272l-39.114,96.757
				C127.085,101.444,128.104,103.841,130.211,104.693z"/>
			<path d="M192.439,92.031l-47.349,55.584c-1.474,1.729-1.266,4.331,0.464,5.806c0.774,0.66,1.723,0.981,2.668,0.981
				c1.164,0,2.322-0.49,3.136-1.448l47.349-55.584c1.474-1.729,1.266-4.331-0.464-5.806
				C196.516,90.089,193.915,90.298,192.439,92.031z"/>
			<path d="M191.044,138.757l-32.938,24.704c-1.819,1.363-2.187,3.944-0.822,5.762c0.808,1.082,2.045,1.649,3.297,1.649
				c0.858,0,1.725-0.269,2.467-0.824l32.938-24.704c1.819-1.363,2.187-3.944,0.822-5.762
				C195.447,137.76,192.87,137.394,191.044,138.757z"/>
			<path d="M227.646,116.876c-1.399-1.793-3.99-2.123-5.778-0.72l-18.528,14.411c-1.795,1.395-2.119,3.981-0.724,5.778
				c0.812,1.041,2.027,1.588,3.253,1.588c0.884,0,1.775-0.282,2.525-0.868l18.528-14.411
				C228.717,121.258,229.041,118.673,227.646,116.876z"/>
			<path d="M42.87,105.783c-1.838,1.335-2.246,3.912-0.907,5.75l32.938,45.29c0.806,1.11,2.061,1.697,3.333,1.697
				c0.838,0,1.687-0.257,2.419-0.788c1.838-1.335,2.246-3.912,0.907-5.75l-32.938-45.29C47.282,104.85,44.709,104.444,42.87,105.783
				z"/>
			<path d="M29.828,99.458c0.814,0.937,1.96,1.419,3.114,1.419c0.955,0,1.916-0.33,2.694-1.005c1.719-1.492,1.904-4.089,0.416-5.81
				L9.29,63.182c-1.488-1.709-4.089-1.906-5.808-0.414c-1.719,1.492-1.904,4.089-0.416,5.81L29.828,99.458z"/>
			<path d="M64.558,159.617L8.974,108.151c-1.669-1.548-4.272-1.448-5.818,0.221c-1.544,1.669-1.444,4.274,0.225,5.818
				l55.584,51.466c0.792,0.736,1.795,1.098,2.796,1.098c1.106,0,2.209-0.442,3.022-1.319
				C66.327,163.767,66.226,161.161,64.558,159.617z"/>
			<path d="M50.887,171.145l-26.762-10.293c-2.119-0.808-4.501,0.241-5.322,2.364c-0.816,2.123,0.243,4.507,2.366,5.324
				l26.762,10.293c0.487,0.185,0.985,0.273,1.478,0.273c1.653,0,3.213-1.001,3.844-2.638
				C54.07,174.345,53.01,171.961,50.887,171.145z"/>
		</g>
	</g>
</g>
<g>
</g>
<g>
</g>
<g>
</g>
<g>
</g>
<g>
</g>
<g>
</g>
<g>
</g>
<g>
</g>
<g>
</g>
<g>
</g>
<g>
</g>
<g>
</g>
<g>
</g>
<g>
</g>
<g>
</g>
</svg>
