<?xml version="1.0" encoding="iso-8859-1"?>
<!-- Generator: Adobe Illustrator 19.0.0, SVG Export Plug-In . SVG Version: 6.00 Build 0)  -->
<svg version="1.1" id="Layer_1" xmlns="http://www.w3.org/2000/svg" xmlns:xlink="http://www.w3.org/1999/xlink" x="0px" y="0px"
	 viewBox="0 0 222.335 222.335" style="enable-background:new 0 0 222.335 222.335;" xml:space="preserve">
<g>
	<g>
		<g>
			<path d="M218.217,24.704H168.81c-2.276,0-4.117,1.842-4.117,4.117V45.29c0,2.276,1.842,4.117,4.117,4.117h8.235V61.76h-49.408
				H4.117C1.842,61.76,0,63.601,0,65.877v14.704c0,2.095,1.572,3.852,3.651,4.089l119.868,13.7v4.563v51.442
				c0,23.852,19.393,43.256,43.232,43.256s43.232-19.404,43.232-43.256v-51.442V49.408h8.235c2.276,0,4.117-1.842,4.117-4.117
				v-16.47C222.334,26.546,220.493,24.704,218.217,24.704z M123.52,90.082L8.235,76.906v-6.912H123.52V90.082z M201.748,154.375
				c0,19.312-15.701,35.021-34.997,35.021c-19.296,0-34.997-15.709-34.997-35.021V107.05h69.994V154.375z M201.748,98.815h-69.994
				v-4.117V69.994h49.408c2.276,0,4.117-1.842,4.117-4.117V49.408h16.469V98.815z M214.1,41.173h-8.235h-24.704h-8.235v-8.235H214.1
				V41.173z"/>
			<path d="M148.223,144.106c6.811,0,12.352-5.541,12.352-12.352c0-6.811-5.541-12.352-12.352-12.352
				c-6.811,0-12.352,5.541-12.352,12.352C135.871,138.565,141.412,144.106,148.223,144.106z M148.223,127.636
				c2.272,0,4.117,1.845,4.117,4.117c0,2.272-1.845,4.117-4.117,4.117c-2.272,0-4.117-1.845-4.117-4.117
				C144.106,129.481,145.951,127.636,148.223,127.636z"/>
			<path d="M156.458,170.868c0,5.677,4.616,10.293,10.293,10.293s10.293-4.616,10.293-10.293s-4.616-10.293-10.293-10.293
				C161.074,160.575,156.458,165.191,156.458,170.868z M166.751,168.81c1.134,0,2.059,0.925,2.059,2.059
				c0,1.134-0.925,2.059-2.059,2.059c-1.134,0-2.059-0.925-2.059-2.059C164.692,169.735,165.617,168.81,166.751,168.81z"/>
			<circle cx="181.161" cy="86.463" r="8.235"/>
		</g>
	</g>
</g>
<g>
</g>
<g>
</g>
<g>
</g>
<g>
</g>
<g>
</g>
<g>
</g>
<g>
</g>
<g>
</g>
<g>
</g>
<g>
</g>
<g>
</g>
<g>
</g>
<g>
</g>
<g>
</g>
<g>
</g>
</svg>
