<?xml version="1.0" encoding="iso-8859-1"?>
<!-- Generator: Adobe Illustrator 19.0.0, SVG Export Plug-In . SVG Version: 6.00 Build 0)  -->
<svg version="1.1" id="Layer_1" xmlns="http://www.w3.org/2000/svg" xmlns:xlink="http://www.w3.org/1999/xlink" x="0px" y="0px"
	 viewBox="0 0 238.804 238.804" style="enable-background:new 0 0 238.804 238.804;" xml:space="preserve">
<g>
	<g>
		<path d="M119.402,0C53.564,0,0,53.563,0,119.402c0,64.458,51.349,117.116,115.285,119.297v0.105h8.235v-0.105
			c63.935-2.181,115.284-54.839,115.284-119.297C238.804,53.563,185.24,0,119.402,0z M8.235,119.403
			c0-35.829,17.054-67.732,43.452-88.076c0.871,4.701,2.766,11.885,6.619,23.109c3.593,10.468-1.88,14.348-11.862,20.307
			c-7.748,4.624-16.529,9.865-16.137,20.753c0.661,18.246,1.098,30.299,18.87,37.504c2.159,0.875,2.837,1.689,2.899,2.033
			c0.489,2.76-7.378,9.889-11.606,13.719c-2.248,2.036-4.433,4.021-6.24,5.875c-5.608,5.749-9.092,14.011-11.09,20.269
			C13.68,158.552,8.235,139.607,8.235,119.403z M115.284,230.464c-35.428-1.298-66.661-19.245-86.111-46.244
			c0.751-3.55,3.904-16.621,10.951-23.845c1.701-1.743,3.76-3.605,5.876-5.523c7.603-6.892,15.468-14.017,14.183-21.26
			c-0.637-3.587-3.299-6.353-7.915-8.225c-12.282-4.98-13.03-10.788-13.731-30.17c-0.207-5.728,4.473-8.818,12.127-13.385
			c9.019-5.382,21.368-12.752,15.43-30.051c-5.953-17.341-6.749-23.832-6.822-25.788c16.267-10.506,35.429-16.88,56.012-17.634
			v57.926c-6.712,0.902-19.859,3.857-24.308,13.417c-1.669,3.587-4.373,6.361-6.759,8.811c-3.796,3.894-8.995,9.23-3.928,15.961
			c4.83,6.413,25.147,11.819,34.995,14.119V230.464z M115.285,110.102c-12.837-3.142-26.217-7.679-28.417-10.601
			c-0.613-0.814-0.818-1.088,3.247-5.261c2.704-2.774,6.069-6.228,8.329-11.083c2.378-5.11,10.968-7.571,16.841-8.544V110.102z
			 M123.519,193.31c38.937-2.099,69.994-34.394,69.994-73.909s-31.058-71.81-69.994-73.909V28.926
			c48.042,2.161,86.463,41.91,86.463,90.476c0,48.566-38.421,88.315-86.463,90.476V193.31z M123.64,185.15V53.653
			c34.348,2.135,61.639,30.81,61.639,65.748S157.988,183.015,123.64,185.15z M123.519,230.465v-12.352
			c52.583-2.168,94.698-45.605,94.698-98.711s-42.116-96.543-94.698-98.711V8.339c59.394,2.177,107.05,51.146,107.05,111.063
			S182.913,228.288,123.519,230.465z"/>
	</g>
</g>
<g>
</g>
<g>
</g>
<g>
</g>
<g>
</g>
<g>
</g>
<g>
</g>
<g>
</g>
<g>
</g>
<g>
</g>
<g>
</g>
<g>
</g>
<g>
</g>
<g>
</g>
<g>
</g>
<g>
</g>
</svg>
