<?xml version="1.0" encoding="iso-8859-1"?>
<!-- Generator: Adobe Illustrator 19.0.0, SVG Export Plug-In . SVG Version: 6.00 Build 0)  -->
<svg version="1.1" id="Layer_1" xmlns="http://www.w3.org/2000/svg" xmlns:xlink="http://www.w3.org/1999/xlink" x="0px" y="0px"
	 viewBox="0 0 228.711 228.711" style="enable-background:new 0 0 228.711 228.711;" xml:space="preserve">
<g>
	<g>
		<g>
			<path d="M180.618,76.994c-5.516-13.305-15.146-22.275-27.116-25.259c-13.18-3.277-27.551,1.391-39.147,12.557
				C102.76,53.119,88.397,48.45,75.209,51.736c-11.97,2.983-21.6,11.954-27.116,25.259c-5.344,12.875-6.192,28.367-2.388,43.626
				c3.804,15.255,11.825,28.54,22.589,37.402c11.118,9.152,23.827,12.541,35.801,9.569c3.184-0.796,8.319-1.822,10.261-2.207
				c1.946,0.386,7.077,1.411,10.261,2.207c2.831,0.704,5.705,1.054,8.588,1.054c9.308,0,18.725-3.635,27.213-10.623
				c10.764-8.862,18.785-22.147,22.589-37.402C186.81,105.361,185.962,89.869,180.618,76.994z M175.013,118.626
				c-3.377,13.558-10.422,25.291-19.831,33.039c-9.059,7.458-19.227,10.273-28.572,7.933c-4.19-1.041-11.182-2.393-11.475-2.449
				l-0.78-0.153l-0.78,0.153c-0.294,0.056-7.286,1.407-11.475,2.449c-9.376,2.34-19.517-0.474-28.572-7.933
				c-9.409-7.748-16.453-19.481-19.831-33.039c-3.382-13.554-2.67-27.221,1.999-38.479c4.495-10.832,12.131-18.082,21.507-20.418
				c2.111-0.527,4.266-0.788,6.442-0.788c9.553,0,19.517,4.966,27.647,14.028l3.064,3.414l3.064-3.414
				c9.988-11.125,22.725-16.087,34.088-13.24c9.376,2.336,17.012,9.585,21.507,20.418
				C177.683,91.405,178.395,105.072,175.013,118.626z"/>
			<path d="M108.011,50.517l2.425-0.024c11.946-0.109,22.488-6.08,28.202-15.971c5.709-9.891,5.609-22.006-0.273-32.408L137.17,0
				l-2.425,0.024c-11.946,0.109-22.488,6.08-28.202,15.971c-5.709,9.891-5.609,22.006,0.273,32.408L108.011,50.517z M113.676,20.112
				c3.84-6.654,10.696-10.917,18.649-11.717c3.285,7.286,3.02,15.355-0.82,22.01c-3.84,6.654-10.696,10.917-18.649,11.717
				C109.571,34.836,109.836,26.767,113.676,20.112z"/>
			<polygon points="118.473,212.95 118.473,179.658 110.238,179.658 110.238,212.95 92.418,195.13 86.596,200.952 110.238,224.594 
				110.238,225.177 110.821,225.177 114.356,228.711 117.89,225.177 118.473,225.177 118.473,224.594 142.115,200.952 
				136.293,195.13 			"/>
		</g>
	</g>
</g>
<g>
</g>
<g>
</g>
<g>
</g>
<g>
</g>
<g>
</g>
<g>
</g>
<g>
</g>
<g>
</g>
<g>
</g>
<g>
</g>
<g>
</g>
<g>
</g>
<g>
</g>
<g>
</g>
<g>
</g>
</svg>
