<?xml version="1.0" encoding="iso-8859-1"?>
<!-- Generator: Adobe Illustrator 19.0.0, SVG Export Plug-In . SVG Version: 6.00 Build 0)  -->
<svg version="1.1" id="Layer_1" xmlns="http://www.w3.org/2000/svg" xmlns:xlink="http://www.w3.org/1999/xlink" x="0px" y="0px"
	 viewBox="0 0 242.921 242.921" style="enable-background:new 0 0 242.921 242.921;" xml:space="preserve">
<g>
	<g>
		<g>
			<rect x="125.578" y="87.72" width="32.938" height="8.235"/>
			<rect x="125.578" y="104.189" width="32.938" height="8.235"/>
			<path d="M218.217,124.776c13.623,0,24.704-11.081,24.704-24.704c0-13.623-11.081-24.704-24.704-24.704
				c-0.324,0-0.611,0.114-0.914,0.185c-3.468-2.659-7.752-4.302-12.451-4.302h-56.629v-8.235h60.755
				c6.803,0,12.34-5.541,12.34-12.352c0-6.811-5.537-12.352-12.34-12.352h-90.605c-6.803,0-12.34,5.541-12.34,12.352
				c0,6.811,5.537,12.352,12.34,12.352h21.616v8.235h-25.725c-5.827,0-11.068,2.456-14.816,6.356
				c-2.593-3.832-6.979-6.356-11.943-6.356c-4.034,0-7.675,1.677-10.293,4.358c-2.619-2.681-6.259-4.358-10.293-4.358
				c-7.945,0-14.411,6.465-14.411,14.415v10.289H32.354c-1.841-7.083-8.232-12.352-15.885-12.352C7.386,83.602,0,90.991,0,100.072
				c0,9.081,7.386,16.469,16.469,16.469c7.653,0,14.043-5.269,15.885-12.352h20.154v10.289c0,7.949,6.465,14.415,14.411,14.415
				c4.034,0,7.675-1.677,10.293-4.358c2.619,2.681,6.26,4.358,10.293,4.358c4.964,0,9.35-2.524,11.942-6.356
				c3.748,3.901,8.989,6.356,14.816,6.356h17.49c6.811,0,12.352,5.541,12.352,12.352c0,6.811-5.541,12.352-12.352,12.352v8.235
				c11.351,0,20.587-9.236,20.587-20.587c0-4.652-1.61-8.9-4.223-12.352h10.017l26.815,63.171
				c3.325,7.836,10.965,12.549,18.986,12.545c2.678,0,5.396-0.523,8.014-1.633l9.184-3.904c10.45-4.435,15.339-16.546,10.908-26.996
				l-19.034-44.844c1.598-0.68,3.057-1.586,4.405-2.619C217.68,124.669,217.931,124.776,218.217,124.776z M234.686,100.072
				c0,6.983-4.385,12.928-10.533,15.319c0.802-2.213,1.281-4.578,1.281-7.066V91.821c0-2.5-0.515-4.867-1.335-7.085
				C230.275,87.114,234.686,93.069,234.686,100.072z M23.686,103.952c-1.392,2.579-4.088,4.354-7.217,4.354
				c-4.539,0-8.235-3.693-8.235-8.235s3.695-8.235,8.235-8.235c3.129,0,5.824,1.775,7.217,4.353V103.952z M73.094,114.478
				c0,3.406-2.77,6.18-6.176,6.18c-3.405,0-6.176-2.774-6.176-6.18V85.665c0-3.407,2.771-6.18,6.176-6.18
				c3.405,0,6.176,2.772,6.176,6.18V114.478z M93.681,91.821v16.503v6.154c0,3.405-2.771,6.18-6.176,6.18s-6.176-2.774-6.176-6.18
				V85.665c0-3.407,2.771-6.18,6.176-6.18s6.176,2.772,6.176,6.18V91.821z M118.372,54.781c-2.263,0-4.105-1.847-4.105-4.117
				s1.842-4.117,4.105-4.117h90.605c2.264,0,4.105,1.847,4.105,4.117s-1.842,4.117-4.105,4.117H118.372z M217.2,108.324
				c0,6.126-4.383,11.248-10.426,12.185l-5.227,0.808l22.91,53.976c2.662,6.269-0.273,13.538-6.542,16.2l-9.184,3.9
				c-6.288,2.674-13.538-0.282-16.2-6.546l-28.945-68.189h-49.323c-6.807,0-12.348-5.533-12.348-12.334V91.821
				c0-6.801,5.541-12.336,12.348-12.336h90.589c6.807,0,12.348,5.534,12.348,12.336V108.324z"/>
		</g>
	</g>
</g>
<g>
</g>
<g>
</g>
<g>
</g>
<g>
</g>
<g>
</g>
<g>
</g>
<g>
</g>
<g>
</g>
<g>
</g>
<g>
</g>
<g>
</g>
<g>
</g>
<g>
</g>
<g>
</g>
<g>
</g>
</svg>
