<?xml version="1.0" encoding="iso-8859-1"?>
<!-- Generator: Adobe Illustrator 19.0.0, SVG Export Plug-In . SVG Version: 6.00 Build 0)  -->
<svg version="1.1" id="Layer_1" xmlns="http://www.w3.org/2000/svg" xmlns:xlink="http://www.w3.org/1999/xlink" x="0px" y="0px"
	 viewBox="0 0 230.57 230.57" style="enable-background:new 0 0 230.57 230.57;" xml:space="preserve">
<g>
	<g>
		<g>
			<path d="M177.045,59.701V0H53.526v59.701c0,25.284,15.835,46.895,38.092,55.584c-22.257,8.689-38.092,30.3-38.092,55.584v59.701
				h123.519v-59.701c0-25.284-15.835-46.895-38.092-55.584C161.209,106.596,177.045,84.985,177.045,59.701z M168.811,170.868v51.466
				H61.761v-51.466c0-28.379,23.101-51.466,51.498-51.466h4.053C145.709,119.402,168.811,142.489,168.811,170.868z M117.311,111.167
				h-4.053c-28.397,0-51.498-23.087-51.498-51.466V8.235h107.05v51.466C168.811,88.08,145.709,111.167,117.311,111.167z"/>
			<path d="M156.459,20.587H74.112c-2.274,0-4.117,1.844-4.117,4.117s1.844,4.117,4.117,4.117h82.346
				c2.274,0,4.117-1.844,4.117-4.117S158.732,20.587,156.459,20.587z"/>
			<path d="M156.459,41.173H74.112c-2.274,0-4.117,1.844-4.117,4.117c0,2.274,1.844,4.117,4.117,4.117h82.346
				c2.274,0,4.117-1.844,4.117-4.117C160.576,43.017,158.732,41.173,156.459,41.173z"/>
			<path d="M156.459,61.76H74.112c-2.274,0-4.117,1.844-4.117,4.117c0,2.274,1.844,4.117,4.117,4.117h82.346
				c2.274,0,4.117-1.844,4.117-4.117C160.576,63.603,158.732,61.76,156.459,61.76z"/>
			<path d="M139.989,82.346H90.581c-2.274,0-4.117,1.844-4.117,4.117c0,2.273,1.844,4.117,4.117,4.117h49.408
				c2.274,0,4.117-1.844,4.117-4.117C144.107,84.19,142.263,82.346,139.989,82.346z"/>
			<path d="M156.459,201.748H74.112c-2.274,0-4.117,1.844-4.117,4.117s1.844,4.117,4.117,4.117h82.346
				c2.274,0,4.117-1.844,4.117-4.117S158.732,201.748,156.459,201.748z"/>
			<path d="M156.459,181.161H74.112c-2.274,0-4.117,1.844-4.117,4.117s1.844,4.117,4.117,4.117h82.346
				c2.274,0,4.117-1.844,4.117-4.117S158.732,181.161,156.459,181.161z"/>
			<path d="M69.995,164.692c0,2.274,1.844,4.117,4.117,4.117h82.346c2.274,0,4.117-1.844,4.117-4.117s-1.844-4.117-4.117-4.117
				H74.112C71.839,160.575,69.995,162.419,69.995,164.692z"/>
			<path d="M86.464,144.106c0,2.274,1.844,4.117,4.117,4.117h49.408c2.274,0,4.117-1.844,4.117-4.117s-1.844-4.117-4.117-4.117
				H90.581C88.308,139.988,86.464,141.832,86.464,144.106z"/>
		</g>
	</g>
</g>
<g>
</g>
<g>
</g>
<g>
</g>
<g>
</g>
<g>
</g>
<g>
</g>
<g>
</g>
<g>
</g>
<g>
</g>
<g>
</g>
<g>
</g>
<g>
</g>
<g>
</g>
<g>
</g>
<g>
</g>
</svg>
