<?xml version="1.0" encoding="iso-8859-1"?>
<!-- Generator: Adobe Illustrator 19.0.0, SVG Export Plug-In . SVG Version: 6.00 Build 0)  -->
<svg version="1.1" id="Layer_1" xmlns="http://www.w3.org/2000/svg" xmlns:xlink="http://www.w3.org/1999/xlink" x="0px" y="0px"
	 viewBox="0 0 230.569 230.569" style="enable-background:new 0 0 230.569 230.569;" xml:space="preserve">
<g>
	<g>
		<g>
			<path d="M142.047,24.704C142.047,11.081,130.966,0,117.343,0S92.639,11.081,92.639,24.704H26.762v41.173h8.235v152.352
				c0,6.805,5.545,12.34,12.362,12.34H183.21c6.817,0,12.362-5.534,12.362-12.34V65.877h8.235V24.704H142.047z M117.343,8.235
				c9.081,0,16.469,7.388,16.469,16.469h-32.938C100.874,15.623,108.262,8.235,117.343,8.235z M187.338,218.229L187.338,218.229
				c-0.001,2.264-1.853,4.105-4.128,4.105H47.359c-2.276,0-4.127-1.842-4.127-4.105V65.877h144.106V218.229z M195.572,57.642H34.997
				V32.938h160.575V57.642z"/>
			<path d="M67.515,164.871c2.197,0.587,4.455-0.72,5.04-2.913l10.277-38.431l14.609,22.957c0.834,1.315,2.324,2.067,3.892,1.886
				c1.55-0.157,2.877-1.176,3.432-2.633l14.62-38.487l16.477,89.336c0.356,1.93,2.022,3.339,3.983,3.371c0.022,0,0.044,0,0.066,0
				c1.934,0,3.611-1.347,4.023-3.243l17.535-80.579c0.485-2.222-0.925-4.415-3.148-4.898c-2.211-0.487-4.415,0.925-4.898,3.148
				l-13.178,60.559l-15.432-83.667c-0.336-1.817-1.838-3.188-3.677-3.355c-1.872-0.161-3.564,0.909-4.222,2.64l-16.932,44.575
				l-15.233-23.936c-0.879-1.379-2.473-2.111-4.101-1.86c-1.614,0.247-2.929,1.427-3.349,3.006l-12.698,47.484
				C64.013,162.028,65.318,164.284,67.515,164.871z"/>
		</g>
	</g>
</g>
<g>
</g>
<g>
</g>
<g>
</g>
<g>
</g>
<g>
</g>
<g>
</g>
<g>
</g>
<g>
</g>
<g>
</g>
<g>
</g>
<g>
</g>
<g>
</g>
<g>
</g>
<g>
</g>
<g>
</g>
</svg>
