<?xml version="1.0" encoding="iso-8859-1"?>
<!-- Generator: Adobe Illustrator 19.0.0, SVG Export Plug-In . SVG Version: 6.00 Build 0)  -->
<svg version="1.1" id="Layer_1" xmlns="http://www.w3.org/2000/svg" xmlns:xlink="http://www.w3.org/1999/xlink" x="0px" y="0px"
	 viewBox="0 0 228.596 228.596" style="enable-background:new 0 0 228.596 228.596;" xml:space="preserve">
<g>
	<g>
		<g>
			<path d="M150.367,0c-42.001,0-76.17,34.169-76.17,76.17c0,20.266,8.006,38.661,20.957,52.321l-46.432,48.282l-4.698-4.698
				c-0.772-0.772-1.817-1.206-2.911-1.206c-1.094,0-2.139,0.434-2.911,1.206L3.265,207.011c-1.608,1.608-1.608,4.214,0,5.822
				L17.82,227.39c0.772,0.772,1.817,1.206,2.911,1.206s2.139-0.434,2.911-1.206l34.937-34.937c1.608-1.608,1.608-4.214,0-5.822
				l-4.035-4.035l46.57-48.424c13.293,11.306,30.474,18.168,49.252,18.168c42.001,0,76.17-34.169,76.17-76.17
				C226.536,34.169,192.367,0,150.367,0z M20.731,218.657l-8.733-8.735l29.115-29.115l8.733,8.735L20.731,218.657z M150.367,144.106
				c-37.458,0-67.936-30.476-67.936-67.936c0-37.46,30.478-67.936,67.936-67.936s67.936,30.476,67.936,67.936
				C218.303,113.63,187.825,144.106,150.367,144.106z"/>
			<path d="M150.367,16.469c-32.918,0-59.701,26.783-59.701,59.701c0,32.918,26.783,59.701,59.701,59.701
				c32.918,0,59.701-26.783,59.701-59.701C210.067,43.252,183.285,16.469,150.367,16.469z M150.367,127.636
				c-28.379,0-51.466-23.087-51.466-51.466c0-28.379,23.087-51.466,51.466-51.466s51.466,23.087,51.466,51.466
				C201.833,104.549,178.746,127.636,150.367,127.636z"/>
			<path d="M176.859,50.33c0.334-2.248-1.214-4.345-3.462-4.68c-1.753-0.278-3.354,0.589-4.174,2.002
				c-0.921-0.455-2.614-1.54-5.271-4.117c-10.474-10.155-25.15-3.412-31.439,1.572c-1.785,1.411-2.087,4.001-0.676,5.784
				s3.997,2.091,5.782,0.674c0.128-0.096,12.637-9.829,20.598-2.119c3.124,3.03,7.543,6.767,11.865,6.767
				c0.752,0,1.5-0.112,2.239-0.362C175.208,54.876,176.57,52.268,176.859,50.33z"/>
			<path d="M196.996,72.047c-0.808-2.127-3.184-3.197-5.304-2.386c-0.82,0.31-20.108,7.778-19.742,22.124
				c0.06,2.236,1.89,4.011,4.117,4.011c0.032,0,0.068,0,0.105-0.002c2.276-0.058,4.069-1.948,4.013-4.222
				c-0.181-7.062,10.353-12.655,14.431-14.213C196.739,76.548,197.804,74.17,196.996,72.047z"/>
			<path d="M113.994,69.309c-2.067-0.945-4.495-0.036-5.444,2.027c-0.945,2.061-0.044,4.504,2.015,5.458
				c0.615,0.287,15.042,7.161,13.643,21.722c-0.217,2.264,1.439,4.274,3.703,4.493c0.133,0.012,0.266,0.018,0.398,0.018
				c2.099,0,3.888-1.594,4.093-3.723C134.372,78.844,114.827,69.689,113.994,69.309z"/>
			<path d="M151.234,85.993c-1.982,1.118-2.682,3.629-1.564,5.609c1.206,2.137,1.492,4.238,0.868,6.421
				c-1.604,5.651-8.793,10.663-11.431,12.117c-1.986,1.096-2.718,3.599-1.624,5.589c0.752,1.365,2.159,2.137,3.615,2.137
				c0.663,0,1.339-0.163,1.966-0.505c0.511-0.278,12.493-6.928,15.388-17.056c1.246-4.357,0.704-8.645-1.608-12.748
				C155.731,85.579,153.221,84.873,151.234,85.993z"/>
		</g>
	</g>
</g>
<g>
</g>
<g>
</g>
<g>
</g>
<g>
</g>
<g>
</g>
<g>
</g>
<g>
</g>
<g>
</g>
<g>
</g>
<g>
</g>
<g>
</g>
<g>
</g>
<g>
</g>
<g>
</g>
<g>
</g>
</svg>
