<?xml version="1.0" encoding="iso-8859-1"?>
<!-- Generator: Adobe Illustrator 19.0.0, SVG Export Plug-In . SVG Version: 6.00 Build 0)  -->
<svg version="1.1" id="Layer_1" xmlns="http://www.w3.org/2000/svg" xmlns:xlink="http://www.w3.org/1999/xlink" x="0px" y="0px"
	 viewBox="0 0 239.863 239.863" style="enable-background:new 0 0 239.863 239.863;" xml:space="preserve">
<g>
	<g>
		<g>
			<path d="M212.936,92.292l-72.77-72.77l-32.024,32.024l69.862,69.866c16.059,16.059,16.063,42.182,0.01,58.237
				c-7.774,7.776-18.11,12.054-29.106,12.054h-0.01c-10.999,0-21.342-4.286-29.123-12.067l-69.862-69.861L17.889,141.8l72.77,72.768
				c16.863,16.863,39.01,25.295,61.158,25.295c20.848,0,41.64-7.572,58.074-22.515l0.147,0.147l2.911-2.911l2.911-2.911
				l-0.147-0.147C246.535,177.632,245.673,125.028,212.936,92.292z M96.481,208.746L29.533,141.8l20.379-20.381l64.039,64.039
				c9.336,9.336,21.744,14.479,34.943,14.479c0.004,0,0.008,0,0.012,0c11.813,0,22.993-4.117,31.899-11.673l23.335,23.333
				C173.468,239.232,126.014,238.271,96.481,208.746z M209.962,205.776l-23.335-23.337c16.422-19.393,15.487-48.564-2.802-66.853
				l-64.039-64.041l20.379-20.379l66.948,66.949C236.644,127.648,237.593,175.101,209.962,205.776z"/>
			<path d="M123.493,14.493c0.804,0.804,1.858,1.206,2.911,1.206c1.053,0,2.107-0.402,2.911-1.206c1.608-1.608,1.608-4.214,0-5.822
				l-7.465-7.465c-1.608-1.608-4.214-1.608-5.822,0c-1.609,1.608-1.608,4.214,0,5.822L123.493,14.493z"/>
			<path d="M103.52,41.103c0.804,0.804,1.858,1.206,2.911,1.206c1.053,0,2.107-0.402,2.911-1.206c1.608-1.606,1.608-4.214,0-5.822
				l-7.465-7.467c-1.608-1.608-4.214-1.608-5.822,0c-1.608,1.606-1.608,4.214,0,5.822L103.52,41.103z"/>
			<path d="M109.782,18.251c0.804,0.804,1.858,1.206,2.911,1.206c1.053,0,2.107-0.402,2.911-1.206c1.608-1.608,1.608-4.214,0-5.822
				l-7.465-7.465c-1.608-1.608-4.214-1.608-5.822,0c-1.608,1.608-1.608,4.214,0,5.822L109.782,18.251z"/>
			<path d="M36.153,101.835c0.804,0.804,1.858,1.206,2.911,1.206c1.053,0,2.107-0.402,2.911-1.206c1.608-1.608,1.608-4.216,0-5.822
				l-7.467-7.465c-1.608-1.608-4.214-1.608-5.822,0c-1.609,1.608-1.608,4.216,0,5.822L36.153,101.835z"/>
			<path d="M8.713,120.98c-1.608-1.608-4.214-1.608-5.822,0c-1.608,1.608-1.608,4.214,0,5.822l7.465,7.463
				c0.804,0.804,1.858,1.206,2.911,1.206c1.053,0,2.107-0.402,2.911-1.206c1.608-1.608,1.608-4.214,0-5.822L8.713,120.98z"/>
			<path d="M19.531,108.504c0.804,0.804,1.858,1.206,2.911,1.206c1.053,0,2.107-0.402,2.911-1.206c1.608-1.608,1.608-4.216,0-5.822
				l-7.467-7.465c-1.608-1.608-4.214-1.608-5.822,0c-1.608,1.608-1.608,4.216,0,5.822L19.531,108.504z"/>
		</g>
	</g>
</g>
<g>
</g>
<g>
</g>
<g>
</g>
<g>
</g>
<g>
</g>
<g>
</g>
<g>
</g>
<g>
</g>
<g>
</g>
<g>
</g>
<g>
</g>
<g>
</g>
<g>
</g>
<g>
</g>
<g>
</g>
</svg>
