<?xml version="1.0" encoding="iso-8859-1"?>
<!-- Generator: Adobe Illustrator 19.0.0, SVG Export Plug-In . SVG Version: 6.00 Build 0)  -->
<svg version="1.1" id="Layer_1" xmlns="http://www.w3.org/2000/svg" xmlns:xlink="http://www.w3.org/1999/xlink" x="0px" y="0px"
	 viewBox="0 0 222.333 222.333" style="enable-background:new 0 0 222.333 222.333;" xml:space="preserve">
<g>
	<g>
		<path d="M207.927,0H14.405C7.596,0,2.058,5.549,2.058,12.372v4.077c0,6.823,5.539,12.372,12.348,12.372h4.121V152.34
			c0,15.89,12.929,28.821,28.821,28.821c13.833,0,25.412-9.8,28.183-22.819l0.142,0.077l37.988-70.132
			c2.748,20.826,19.662,37.229,40.737,39.14v53.733h-16.469v41.173h41.173V181.16h-16.469v-53.734
			c21.69-1.966,38.998-19.274,40.964-40.964h0.209V28.821h4.121c6.809,0,12.348-5.549,12.348-12.372v-4.077
			C220.275,5.549,214.736,0,207.927,0z M47.348,172.927c-11.351,0-20.587-9.236-20.587-20.587c0-11.351,9.236-20.587,20.587-20.587
			s20.587,9.236,20.587,20.587S58.699,172.927,47.348,172.927z M170.867,189.396V214.1h-24.704v-24.704h8.235h8.235H170.867z
			 M158.515,119.402c-20.432,0-37.056-16.622-37.056-37.056c0-4.447,0.828-8.694,2.27-12.647l5.143-9.496
			c6.764-9.032,17.516-14.913,29.642-14.913c20.432,0,37.056,16.622,37.056,37.056C195.57,102.78,178.947,119.402,158.515,119.402z
			 M195.571,56.388c-8.201-11.671-21.74-19.332-37.056-19.332c-15.005,0-28.29,7.365-36.536,18.637l-0.023-0.013l-0.086,0.159
			c-2.308,3.182-4.205,6.667-5.63,10.394L74.614,143.08c-3.869-11.357-14.617-19.561-27.266-19.561
			c-8.061,0-15.351,3.337-20.587,8.69V28.821h168.81V56.388z M212.04,16.449c0,2.28-1.845,4.137-4.113,4.137H14.405
			c-2.268,0-4.113-1.858-4.113-4.137v-4.077c0-2.28,1.845-4.137,4.113-4.137h193.522c2.268,0,4.113,1.858,4.113,4.137V16.449z"/>
	</g>
</g>
<g>
</g>
<g>
</g>
<g>
</g>
<g>
</g>
<g>
</g>
<g>
</g>
<g>
</g>
<g>
</g>
<g>
</g>
<g>
</g>
<g>
</g>
<g>
</g>
<g>
</g>
<g>
</g>
<g>
</g>
</svg>
