<?xml version="1.0" encoding="iso-8859-1"?>
<!-- Generator: Adobe Illustrator 19.0.0, SVG Export Plug-In . SVG Version: 6.00 Build 0)  -->
<svg version="1.1" id="Layer_1" xmlns="http://www.w3.org/2000/svg" xmlns:xlink="http://www.w3.org/1999/xlink" x="0px" y="0px"
	 viewBox="0 0 230.725 230.725" style="enable-background:new 0 0 230.725 230.725;" xml:space="preserve">
<g>
	<g>
		<g>
			<path d="M226.337,173.97l-13.088-20.948l-13.092-20.953c-8.419-13.47-26.228-17.595-39.718-9.163
				c-13.474,8.419-17.587,26.232-9.163,39.713l13.092,20.948c0.003,0.005,0.007,0.008,0.011,0.013l13.077,20.94
				c5.46,8.737,14.869,13.538,24.487,13.538c5.215,0,10.49-1.411,15.231-4.375c6.518-4.073,11.061-10.446,12.798-17.949
				C231.709,188.228,230.418,180.496,226.337,173.97z M158.254,158.253c-6.009-9.626-3.073-22.352,6.552-28.367
				c3.382-2.111,7.149-3.12,10.876-3.12c6.868,0,13.59,3.43,17.494,9.67l10.908,17.458l-34.917,21.817L158.254,158.253z
				 M221.95,193.882c-1.243,5.36-4.487,9.911-9.143,12.823c-9.634,6.015-22.356,3.068-28.371-6.546l-10.904-17.462l34.917-21.817
				l10.908,17.458C222.268,182.997,223.189,188.518,221.95,193.882z"/>
			<path d="M123.251,36.001c-1.468-7.563-5.79-14.101-12.167-18.403c-6.373-4.298-14.033-5.859-21.608-4.395
				c-7.563,1.467-14.101,5.79-18.403,12.171L57.258,45.852L43.446,66.334c-4.298,6.373-5.859,14.045-4.395,21.608
				c1.467,7.563,5.79,14.101,12.167,18.403c4.933,3.325,10.53,4.917,16.075,4.917c9.268,0,18.379-4.451,23.94-12.694l13.811-20.478
				l13.816-20.482C123.159,51.231,124.719,43.56,123.251,36.001z M84.407,93.96c-6.349,9.413-19.179,11.901-28.58,5.557
				c-4.555-3.072-7.643-7.74-8.689-13.144c-1.049-5.404,0.064-10.885,3.136-15.432l11.507-17.068l7.699,5.192l26.436,17.834
				L84.407,93.96z M112.033,53.001l-11.512,17.068L83.456,58.557L66.39,47.045l11.511-17.068c3.072-4.555,7.74-7.643,13.144-8.689
				c5.42-1.05,10.885,0.068,15.432,3.136c4.555,3.072,7.643,7.74,8.693,13.144C116.219,42.968,115.105,48.449,112.033,53.001z"/>
			<path d="M99.453,160.344l-7.953,2.131l-2.131-7.953c-0.587-2.199-2.839-3.498-5.042-2.911c-2.195,0.587-3.498,2.847-2.911,5.042
				l2.131,7.953l-7.953,2.131c-2.195,0.587-3.498,2.847-2.911,5.042c0.49,1.842,2.155,3.052,3.972,3.052
				c0.354,0,0.712-0.044,1.07-0.141l7.953-2.131l2.131,7.953c0.49,1.842,2.155,3.052,3.972,3.052c0.354,0,0.712-0.044,1.07-0.141
				c2.195-0.587,3.498-2.847,2.911-5.042l-2.131-7.953l7.953-2.131c2.195-0.587,3.498-2.847,2.911-5.042
				C103.907,161.056,101.656,159.761,99.453,160.344z"/>
			<path d="M179.732,72.674c-0.587,2.195,0.716,4.455,2.911,5.042l7.953,2.131l-2.131,7.953c-0.587,2.195,0.716,4.455,2.911,5.042
				c0.358,0.096,0.716,0.141,1.07,0.141c1.817,0,3.482-1.21,3.972-3.052l2.131-7.953l7.953,2.131
				c0.358,0.096,0.716,0.141,1.07,0.141c1.817,0,3.482-1.21,3.972-3.052c0.587-2.195-0.716-4.455-2.911-5.042l-7.953-2.131
				l2.131-7.953c0.587-2.195-0.716-4.455-2.911-5.042c-2.187-0.587-4.455,0.712-5.042,2.911l-2.131,7.953l-7.953-2.131
				C182.587,69.176,180.319,70.479,179.732,72.674z"/>
			<path d="M22.591,87.342l-6.903,4.483l-4.484-6.903c-1.238-1.906-3.78-2.453-5.698-1.21C3.6,84.95,3.057,87.5,4.296,89.41
				l4.483,6.903l-6.904,4.484c-1.906,1.238-2.449,3.788-1.21,5.698c0.788,1.214,2.111,1.874,3.458,1.874
				c0.768,0,1.544-0.213,2.239-0.663l6.903-4.483l4.484,6.904c0.788,1.214,2.111,1.874,3.458,1.874c0.768,0,1.544-0.213,2.239-0.663
				c1.906-1.238,2.449-3.788,1.21-5.698l-4.483-6.903l6.904-4.484c1.906-1.238,2.449-3.788,1.21-5.698
				C27.05,86.646,24.504,86.1,22.591,87.342z"/>
			<path d="M121.527,118.109c2.276,0,4.117-1.842,4.117-4.117c0-9.083,7.386-16.469,16.469-16.469c2.276,0,4.117-1.842,4.117-4.117
				c0-2.275-1.842-4.117-4.117-4.117c-13.623,0-24.704,11.081-24.704,24.704C117.409,116.268,119.251,118.109,121.527,118.109z"/>
			<path d="M139.053,198.598c-5.842,6.956-16.248,7.873-23.208,2.031c-1.745-1.464-4.338-1.222-5.802,0.511
				c-1.46,1.741-1.23,4.338,0.511,5.802c4.62,3.872,10.253,5.766,15.858,5.766c7.057,0,14.069-2.999,18.946-8.818
				c1.464-1.741,1.234-4.338-0.506-5.798C143.106,196.628,140.509,196.857,139.053,198.598z"/>
			<path d="M149.339,42.414c3.37,1.572,6.912,2.312,10.402,2.312c9.308,0,18.243-5.283,22.428-14.258
				c0.961-2.063,0.068-4.511-1.99-5.472c-2.059-0.949-4.507-0.068-5.472,1.99c-3.836,8.226-13.651,11.805-21.885,7.965
				c-2.063-0.953-4.507-0.068-5.472,1.99C146.387,39.004,147.28,41.453,149.339,42.414z"/>
		</g>
	</g>
</g>
<g>
</g>
<g>
</g>
<g>
</g>
<g>
</g>
<g>
</g>
<g>
</g>
<g>
</g>
<g>
</g>
<g>
</g>
<g>
</g>
<g>
</g>
<g>
</g>
<g>
</g>
<g>
</g>
<g>
</g>
</svg>
