<?xml version="1.0" encoding="iso-8859-1"?>
<!-- Generator: Adobe Illustrator 19.0.0, SVG Export Plug-In . SVG Version: 6.00 Build 0)  -->
<svg version="1.1" id="Layer_1" xmlns="http://www.w3.org/2000/svg" xmlns:xlink="http://www.w3.org/1999/xlink" x="0px" y="0px"
	 viewBox="0 0 247.002 247.002" style="enable-background:new 0 0 247.002 247.002;" xml:space="preserve">
<g>
	<g>
		<g>
			<path d="M137.421,82.155c12.491,3.168,25.41,6.433,38.021,1.218c10.607-4.387,16.123-10.217,16.399-17.318
				c0.398-10.261-10.724-18.673-16.658-21.684c-1.969-1-3.996-2.004-6.059-3.003l9.422-16.96c1.106-1.986,0.388-4.491-1.598-5.597
				c-1.99-1.114-4.495-0.386-5.599,1.6l-9.7,17.461c-9.004-4.051-18.676-7.794-28.658-10.516l8.5-15.3
				c1.106-1.986,0.388-4.491-1.598-5.597c-1.992-1.114-4.499-0.39-5.599,1.6l-9.613,17.301c-6.147-1.275-12.368-2.091-18.589-2.296
				l-3.26-18.591c-0.394-2.239-2.525-3.735-4.767-3.345c-2.239,0.394-3.737,2.529-3.343,4.769l3.03,17.28
				c-9.933,0.608-19.763,2.976-29.16,7.792l-2.816-16.058c-0.392-2.24-2.524-3.727-4.766-3.345
				c-2.239,0.394-3.737,2.529-3.343,4.769l3.355,19.131c-3.994,2.708-7.892,5.9-11.658,9.666c-0.98,0.98-1.832,2.038-2.757,3.051
				L33.439,37.114c-1.739-1.46-4.338-1.235-5.802,0.502c-1.462,1.741-1.238,4.338,0.503,5.802l13.188,11.087
				c-3.864,5.103-7.1,10.516-9.727,16.159l-17.466-6.378c-2.131-0.772-4.499,0.317-5.28,2.456c-0.78,2.135,0.32,4.499,2.457,5.279
				l17.156,6.264c-2.98,8.342-4.686,17.016-5.123,25.767l-19.08-0.685c-2.218-0.077-4.177,1.697-4.262,3.965
				c-0.08,2.272,1.695,4.182,3.969,4.262l19.336,0.694c0.232,5.622,0.986,11.212,2.267,16.718l-18.879,8.386
				c-2.079,0.925-3.016,3.357-2.093,5.436c0.681,1.532,2.187,2.445,3.766,2.445c0.559,0,1.126-0.112,1.669-0.354l17.795-7.904
				c2.433,7.306,5.739,14.383,10.099,20.982l-18.499,8.216c-2.079,0.925-3.016,3.357-2.093,5.436
				c0.681,1.532,2.187,2.445,3.766,2.445c0.559,0,1.126-0.112,1.669-0.354l19.372-8.604c0.264-0.117,0.45-0.318,0.676-0.48
				c2.032,2.532,4.194,4.992,6.541,7.34l1.401,1.419c2.412,2.46,4.964,4.984,7.606,7.453l-11.993,15.32
				c-1.401,1.789-1.086,4.379,0.706,5.778c0.752,0.591,1.647,0.877,2.535,0.877c1.222,0,2.433-0.543,3.245-1.58l11.68-14.921
				c8.921,7.466,18.466,13.336,27.165,13.336c0.287,0,0.575-0.008,0.858-0.02c4.795-0.217,8.981-2.356,12.107-6.18
				c7.215-8.834,0.828-24.808-6.57-43.308c-9.057-22.649-19.324-48.326-5.673-61.977C106.345,74.286,121.439,78.102,137.421,82.155z
				 M90.458,153.231c5.891,14.732,11.982,29.963,7.839,35.037c-1.671,2.047-3.611,3.052-6.101,3.165
				c-11.733,0.679-29.655-17.768-35.552-23.783l-1.458-1.476c-29.935-29.937-31.634-77.544-5.15-109.52
				c0.038-0.042,0.093-0.055,0.13-0.099c0.029-0.035,0.034-0.078,0.062-0.113c1.567-1.879,3.195-3.725,4.958-5.488
				c13.065-13.064,28.716-19.597,47.63-19.597c19.268,0,41.919,6.787,68.639,20.357c5.022,2.549,12.36,8.769,12.157,14.021
				c-0.173,4.491-6.25,7.933-11.318,10.032c-10.088,4.177-21.144,1.375-32.85-1.592c-16.688-4.238-35.61-9.031-52.835,8.198
				C69.118,99.863,80.951,129.452,90.458,153.231z"/>
			<path d="M243.03,176.004l-18.936-0.679c-0.847-8.604-3.435-16.809-7.689-24.15l16.342-6.919c2.095-0.889,3.074-3.301,2.187-5.396
				c-0.887-2.095-3.309-3.072-5.396-2.187l-17.906,7.581c-1.924-2.451-3.993-4.808-6.315-6.973c-3.596-3.352-7.56-6.158-11.745-8.51
				l10.959-11.731c1.552-1.661,1.464-4.266-0.199-5.818c-1.663-1.552-4.262-1.467-5.82,0.197l-12.735,13.632
				c-4.862-1.868-9.97-3.041-15.204-3.572l-0.293-17.747c-0.038-2.28-1.94-4.041-4.186-4.049c-2.274,0.036-4.085,1.91-4.049,4.186
				l0.285,17.287c-0.053,0.002-0.104-0.004-0.156-0.002l-1.291,0.036c-11.801,0.294-26.135,1.564-32.293,8.797
				c-2.308,2.71-3.267,6.055-2.774,9.674c1.12,8.235,11.99,12.448,24.573,17.33c14.489,5.621,30.912,11.994,31.32,23.695
				c0.422,12.074-7.445,17.141-16.554,23.007c-7.292,4.696-14.831,9.553-18.13,18.367c-2.849,7.608-2.412,13.361,1.295,17.093
				c2.7,2.722,6.574,3.607,10.299,3.607c3.514,0,6.894-0.788,9.025-1.568c5.385-1.968,11.142-4.301,16.853-7.071l14.544,10.983
				c0.742,0.563,1.614,0.832,2.477,0.832c1.248,0,2.481-0.563,3.289-1.637c1.371-1.813,1.011-4.395-0.804-5.766l-11.465-8.658
				c7.228-4.204,13.989-9.328,19.444-15.589l14.679,11.083c0.742,0.563,1.614,0.832,2.477,0.832c1.248,0,2.481-0.563,3.289-1.637
				c1.371-1.813,1.011-4.395-0.804-5.766l-14.67-11.076c4.285-6.787,6.964-14.784,7.365-24.152l18.42,0.661
				c0.05,0.004,0.098,0.004,0.149,0.004c2.205,0,4.033-1.749,4.113-3.969C247.079,177.995,245.304,176.085,243.03,176.004z
				 M184.283,224.975c-1.036,0.082-2.009,0.555-2.736,1.385c-5.013,2.472-10.553,4.836-16.732,7.094
				c-3.653,1.339-8.986,1.58-10.651-0.105c-1.17-1.178-0.955-4.318,0.573-8.403c2.342-6.256,8.43-10.177,14.875-14.33
				c9.803-6.313,20.912-13.466,20.327-30.22c-0.599-17.125-20.544-24.865-36.571-31.081c-7.987-3.1-18.928-7.342-19.394-10.764
				c-0.177-1.303,0.096-2.3,0.886-3.225c3.028-3.559,11.853-5.545,26.23-5.907l1.369-0.04h0.002
				c13.848-0.466,27.09,4.459,37.239,13.924c10.149,9.465,16.005,22.311,16.487,36.179
				C216.858,198.678,206.85,213.152,184.283,224.975z"/>
		</g>
	</g>
</g>
<g>
</g>
<g>
</g>
<g>
</g>
<g>
</g>
<g>
</g>
<g>
</g>
<g>
</g>
<g>
</g>
<g>
</g>
<g>
</g>
<g>
</g>
<g>
</g>
<g>
</g>
<g>
</g>
<g>
</g>
</svg>
