<?xml version="1.0" encoding="iso-8859-1"?>
<!-- Generator: Adobe Illustrator 19.0.0, SVG Export Plug-In . SVG Version: 6.00 Build 0)  -->
<svg version="1.1" id="Layer_1" xmlns="http://www.w3.org/2000/svg" xmlns:xlink="http://www.w3.org/1999/xlink" x="0px" y="0px"
	 viewBox="0 0 216.668 216.668" style="enable-background:new 0 0 216.668 216.668;" xml:space="preserve">
<g>
	<g>
		<g>
			<path d="M188.621,187.847h-31.444c33.051-14.795,56.148-47.972,56.148-86.463c0-52.216-42.482-94.698-94.698-94.698
				c-1.162,0-2.202,0.49-2.951,1.265L102.858,0.55c-0.945-0.543-2.067-0.692-3.124-0.41c-1.055,0.282-1.954,0.973-2.501,1.918
				L39.59,101.896c-1.136,1.97-0.462,4.487,1.508,5.625l35.657,20.587c0.631,0.364,1.343,0.551,2.059,0.551
				c0.358,0,0.716-0.046,1.066-0.141c1.055-0.282,1.954-0.973,2.501-1.918l57.642-99.838c1.136-1.97,0.462-4.487-1.508-5.625
				l-9.607-5.547c42.84,5.108,76.183,41.601,76.183,85.794c0,47.677-38.787,86.463-86.463,86.463h-4.117v-12.352
				c0-2.274-1.844-4.117-4.117-4.117H23.929c-2.274,0-4.117,1.844-4.117,4.117v12.352H7.46c-2.274,0-4.117,1.844-4.117,4.117v20.587
				c0,2.274,1.844,4.117,4.117,4.117h181.161c2.274,0,4.117-1.844,4.117-4.117v-20.587
				C192.739,189.69,190.895,187.847,188.621,187.847z M130.83,26.21l-53.525,92.706l-28.523-16.469l53.525-92.706L130.83,26.21z
				 M28.046,179.612h78.229v8.235H28.046V179.612z M11.577,208.433v-12.352h12.352h86.463h74.111v12.352H11.577z"/>
			<rect x="30.22" y="126.086" transform="matrix(0.8944 0.4472 -0.4472 0.8944 63.7978 -9.8444)" width="45.059" height="8.235"/>
			<path d="M196.856,97.266c0-9.081-7.388-16.469-16.469-16.469s-16.469,7.388-16.469,16.469s7.388,16.469,16.469,16.469
				S196.856,106.347,196.856,97.266z M172.152,97.266c0-4.541,3.693-8.235,8.235-8.235c4.541,0,8.235,3.693,8.235,8.235
				c0,4.541-3.693,8.235-8.235,8.235C175.845,105.5,172.152,101.807,172.152,97.266z"/>
		</g>
	</g>
</g>
<g>
</g>
<g>
</g>
<g>
</g>
<g>
</g>
<g>
</g>
<g>
</g>
<g>
</g>
<g>
</g>
<g>
</g>
<g>
</g>
<g>
</g>
<g>
</g>
<g>
</g>
<g>
</g>
<g>
</g>
</svg>
