<?xml version="1.0" encoding="iso-8859-1"?>
<!-- Generator: Adobe Illustrator 19.0.0, SVG Export Plug-In . SVG Version: 6.00 Build 0)  -->
<svg version="1.1" id="Layer_1" xmlns="http://www.w3.org/2000/svg" xmlns:xlink="http://www.w3.org/1999/xlink" x="0px" y="0px"
	 viewBox="0 0 210.937 210.937" style="enable-background:new 0 0 210.937 210.937;" xml:space="preserve">
<g>
	<g>
		<g>
			<path d="M37.947,81.221l-0.43-8.226l-14.744,0.773L61.262,31.02c2.376,1.234,4.961,1.904,7.561,1.904
				c4.509,0,9-1.838,12.245-5.44c2.945-3.269,4.441-7.491,4.21-11.881c-0.229-4.395-2.157-8.436-5.426-11.379
				c-3.269-2.943-7.499-4.383-11.881-4.21c-4.393,0.229-8.433,2.159-11.377,5.428c-2.944,3.269-4.439,7.491-4.208,11.881
				c0.156,2.981,1.149,5.767,2.755,8.189L16.653,68.258L15.88,53.514l-8.223,0.434l1.508,28.777L37.947,81.221z M62.713,10.949
				c1.472-1.633,3.49-2.598,5.687-2.71c2.189-0.145,4.306,0.631,5.943,2.103c1.633,1.472,2.598,3.49,2.712,5.689
				c0.114,2.195-0.633,4.302-2.105,5.939c-3.04,3.377-8.255,3.647-11.63,0.611c-1.633-1.472-2.598-3.49-2.712-5.689
				C60.493,14.697,61.241,12.586,62.713,10.949z"/>
			<path d="M159.355,38.633c2.562,1.537,5.429,2.33,8.344,2.349l13.899,55.752l-12.653-7.603l-4.242,7.06l24.706,14.841
				l14.843-24.704l-7.057-4.238l-7.605,12.653l-13.914-55.812c2.556-1.385,4.74-3.378,6.277-5.936
				c2.266-3.771,2.929-8.198,1.863-12.468c-1.064-4.266-3.727-7.865-7.497-10.132c-3.771-2.26-8.196-2.919-12.466-1.861
				c-4.268,1.066-7.867,3.727-10.132,7.499c-2.266,3.767-2.929,8.198-1.863,12.468C152.92,32.766,155.584,36.365,159.355,38.633z
				 M160.778,20.274c1.132-1.886,2.931-3.216,5.066-3.748c0.665-0.169,1.339-0.249,2.008-0.249c1.476,0,2.927,0.398,4.224,1.178
				c1.886,1.134,3.216,2.931,3.749,5.066c0.533,2.131,0.201,4.347-0.933,6.232c-1.132,1.886-2.931,3.216-5.064,3.748h-0.002
				c-2.127,0.543-4.345,0.205-6.232-0.929c-1.886-1.134-3.216-2.931-3.749-5.066C159.312,24.371,159.645,22.155,160.778,20.274z"/>
			<path d="M209.625,192.754c-0.458-4.375-2.596-8.311-6.013-11.077s-7.712-4.037-12.086-3.582
				c-2.968,0.314-5.699,1.452-8.036,3.185l-44.701-36.201l14.686-1.543l-0.861-8.186l-28.664,3.011l3.011,28.664l8.191-0.861
				l-1.543-14.688l44.702,36.202c-3.027,6.663-1.375,14.782,4.574,19.6c3.042,2.461,6.705,3.659,10.343,3.659
				c4.803,0,9.567-2.083,12.816-6.096C208.813,201.419,210.086,197.129,209.625,192.754z M199.645,199.658
				c-2.857,3.526-8.054,4.073-11.58,1.218c-3.53-2.859-4.077-8.054-1.22-11.58l0.002-0.004c1.383-1.709,3.351-2.778,5.539-3.008
				c0.294-0.028,0.585-0.044,0.874-0.044c1.88,0,3.689,0.635,5.171,1.838c1.707,1.383,2.774,3.349,3.006,5.537
				C201.666,195.802,201.03,197.949,199.645,199.658z"/>
			<path d="M75.079,101.409c-1.295-2.603-3.21-4.856-5.712-6.481c-3.689-2.393-8.088-3.204-12.392-2.296
				c-4.302,0.913-7.993,3.45-10.39,7.141c-2.394,3.687-3.211,8.09-2.296,12.392c0.913,4.302,3.45,7.993,7.139,10.39
				c2.702,1.753,5.788,2.662,8.934,2.662c1.15,0,2.308-0.121,3.458-0.366c4.304-0.913,7.993-3.45,10.39-7.141
				c1.626-2.501,2.46-5.339,2.583-8.244l56.261-11.957l-8.041,12.381l6.908,4.487l15.697-24.173l-24.171-15.701l-4.487,6.908
				l12.387,8.044L75.079,101.409z M67.304,113.227c-1.198,1.845-3.042,3.112-5.195,3.566c-2.157,0.458-4.354,0.048-6.196-1.146
				c-1.845-1.198-3.112-3.044-3.571-5.195c-0.456-2.151-0.048-4.35,1.15-6.196c1.196-1.845,3.042-3.112,5.193-3.566
				c0.577-0.125,1.156-0.185,1.731-0.185c1.572,0,3.116,0.455,4.465,1.331c1.845,1.198,3.112,3.044,3.571,5.195
				C68.909,109.182,68.503,111.381,67.304,113.227z"/>
			<path d="M81.697,164.066l6.005,13.488l-53.697-20.611c0.332-2.888-0.047-5.823-1.261-8.55c-1.789-4.021-5.036-7.101-9.143-8.677
				c-4.111-1.58-8.586-1.46-12.601,0.33c-4.019,1.789-7.101,5.038-8.677,9.143c-1.576,4.105-1.46,8.58,0.33,12.601
				c1.79,4.021,5.035,7.101,9.143,8.677c1.918,0.736,3.914,1.102,5.909,1.102c2.278,0,4.55-0.478,6.693-1.432
				c2.725-1.213,4.97-3.139,6.656-5.507l53.701,20.612l-13.489,6.008l3.349,7.519l26.328-11.721L89.22,160.72L81.697,164.066z
				 M25.386,158.043c-1.627,4.237-6.403,6.357-10.639,4.736c-4.24-1.628-6.363-6.401-4.737-10.639
				c1.257-3.273,4.385-5.283,7.698-5.283c0.979,0,1.974,0.177,2.941,0.547C24.889,149.032,27.012,153.805,25.386,158.043z"/>
		</g>
	</g>
</g>
<g>
</g>
<g>
</g>
<g>
</g>
<g>
</g>
<g>
</g>
<g>
</g>
<g>
</g>
<g>
</g>
<g>
</g>
<g>
</g>
<g>
</g>
<g>
</g>
<g>
</g>
<g>
</g>
<g>
</g>
</svg>
