<?xml version="1.0" encoding="iso-8859-1"?>
<!-- Generator: Adobe Illustrator 19.0.0, SVG Export Plug-In . SVG Version: 6.00 Build 0)  -->
<svg version="1.1" id="Layer_1" xmlns="http://www.w3.org/2000/svg" xmlns:xlink="http://www.w3.org/1999/xlink" x="0px" y="0px"
	 viewBox="0 0 222.334 222.334" style="enable-background:new 0 0 222.334 222.334;" xml:space="preserve">
<g>
	<g>
		<g>
			<path d="M28.821,32.938c-9.083,0-16.469,7.386-16.469,16.469s7.386,16.469,16.469,16.469S45.29,58.491,45.29,49.408
				S37.904,32.938,28.821,32.938z M28.821,57.641c-4.539,0-8.235-3.695-8.235-8.235c0-4.54,3.695-8.235,8.235-8.235
				c4.54,0,8.235,3.695,8.235,8.235C37.056,53.947,33.36,57.641,28.821,57.641z"/>
			<path d="M168.81,8.234c-25.256,0-46.43,17.605-52.029,41.173H73.869c-2.056-18.501-17.772-32.938-36.813-32.938
				C16.622,16.469,0,33.091,0,53.525c0,20.434,16.622,37.056,37.056,37.056c1.083,0,2.149-0.071,3.209-0.163l34.062,96.173
				c-2.664,2.927-4.333,6.778-4.333,11.04c0,9.083,7.386,16.469,16.469,16.469s16.469-7.386,16.469-16.469
				c0-3.608-1.199-6.919-3.173-9.635c0.085-0.093,0.205-0.13,0.282-0.232l56.052-74.069c4.084,1.001,8.328,1.59,12.716,1.59
				c29.513,0,53.525-24.012,53.525-53.525S198.322,8.234,168.81,8.234z M37.056,82.346c-15.89,0-28.821-12.931-28.821-28.821
				c0-15.89,12.931-28.821,28.821-28.821c15.89,0,28.821,12.931,28.821,28.821C65.877,69.414,52.946,82.346,37.056,82.346z
				 M86.463,205.865c-4.539,0-8.235-3.695-8.235-8.235c0-4.539,3.695-8.235,8.235-8.235c4.539,0,8.235,3.695,8.235,8.235
				S91.003,205.865,86.463,205.865z M93.476,182.787c-2.136-1.014-4.495-1.626-7.013-1.626c-1.762,0-3.427,0.351-5.019,0.865
				L48.42,88.781c13.628-4.403,23.821-16.491,25.449-31.139h41.624c-0.105,1.363-0.209,2.728-0.209,4.117
				c0,22.063,13.424,41.044,32.53,49.224L93.476,182.787z M168.81,107.049c-24.973,0-45.29-20.317-45.29-45.29
				c0-24.973,20.317-45.29,45.29-45.29s45.29,20.317,45.29,45.29C214.1,86.732,193.783,107.049,168.81,107.049z"/>
			<path d="M156.458,28.82c-13.623,0-24.704,11.081-24.704,24.704c0,13.623,11.081,24.704,24.704,24.704
				s24.704-11.081,24.704-24.704C181.162,39.901,170.08,28.82,156.458,28.82z M156.458,69.994c-9.083,0-16.469-7.386-16.469-16.469
				c0-9.083,7.386-16.469,16.469-16.469s16.469,7.386,16.469,16.469C172.927,62.607,165.541,69.994,156.458,69.994z"/>
		</g>
	</g>
</g>
<g>
</g>
<g>
</g>
<g>
</g>
<g>
</g>
<g>
</g>
<g>
</g>
<g>
</g>
<g>
</g>
<g>
</g>
<g>
</g>
<g>
</g>
<g>
</g>
<g>
</g>
<g>
</g>
<g>
</g>
</svg>
