<?xml version="1.0" encoding="iso-8859-1"?>
<!-- Generator: Adobe Illustrator 19.0.0, SVG Export Plug-In . SVG Version: 6.00 Build 0)  -->
<svg version="1.1" id="Layer_1" xmlns="http://www.w3.org/2000/svg" xmlns:xlink="http://www.w3.org/1999/xlink" x="0px" y="0px"
	 viewBox="0 0 222.51 222.51" style="enable-background:new 0 0 222.51 222.51;" xml:space="preserve">
<g>
	<g>
		<g>
			<path d="M122.771,89.124c0-9.658,0.438-19.404,1.301-28.966l0.404-4.487H23.747l0.404,4.487
				c0.863,9.562,1.301,19.308,1.301,28.966c0,42.958-8.456,84.863-25.13,124.553L0,214.445v5.919h148.223v-5.919l-0.322-0.768
				C131.227,173.987,122.771,132.083,122.771,89.124z M9.863,212.129c15.812-39.295,23.823-80.649,23.823-123.004
				c0-8.399-0.322-16.859-0.961-25.218h82.772c-0.639,8.359-0.961,16.819-0.961,25.218c0,42.355,8.011,83.709,23.823,123.004H9.863z
				"/>
			<rect x="24.704" y="39.202" width="98.815" height="8.235"/>
			<rect x="172.927" y="2.146" width="41.173" height="8.235"/>
			<path d="M213.931,14.498h-40.835l-8.578,205.865h57.992L213.931,14.498z M173.102,212.129l7.891-189.396h25.041l7.891,189.396
				H173.102z"/>
			<path d="M74.111,109.196c-18.162,0-32.938,14.777-32.938,32.938c0,18.161,14.777,32.938,32.938,32.938
				s32.938-14.777,32.938-32.938S92.273,109.196,74.111,109.196z M74.111,166.838c-13.623,0-24.704-11.081-24.704-24.704
				c0-13.623,11.081-24.704,24.704-24.704c13.623,0,24.704,11.081,24.704,24.704C98.815,155.757,87.734,166.838,74.111,166.838z"/>
			<polygon points="78.229,129.783 69.994,129.783 69.994,139.757 59.572,145.773 63.69,152.906 73.772,147.086 83.854,152.906 
				87.971,145.773 78.229,140.149 			"/>
		</g>
	</g>
</g>
<g>
</g>
<g>
</g>
<g>
</g>
<g>
</g>
<g>
</g>
<g>
</g>
<g>
</g>
<g>
</g>
<g>
</g>
<g>
</g>
<g>
</g>
<g>
</g>
<g>
</g>
<g>
</g>
<g>
</g>
</svg>
