<?xml version="1.0" encoding="iso-8859-1"?>
<!-- Generator: Adobe Illustrator 19.0.0, SVG Export Plug-In . SVG Version: 6.00 Build 0)  -->
<svg version="1.1" id="Layer_1" xmlns="http://www.w3.org/2000/svg" xmlns:xlink="http://www.w3.org/1999/xlink" x="0px" y="0px"
	 viewBox="0 0 234.686 234.686" style="enable-background:new 0 0 234.686 234.686;" xml:space="preserve">
<g>
	<g>
		<g>
			<path d="M234.686,125.578c0-16.095-10.04-30.594-24.806-36.413c0.068-0.9,0.103-1.801,0.103-2.702
				c0.002-18.413-14.368-33.383-31.59-32.93c-4.192-8.854-12.621-14.973-22.317-16.236c0.254-1.427,0.382-2.883,0.382-4.359
				c0-13.623-11.081-24.704-24.704-24.704c-5.237,0-10.237,1.624-14.411,4.632c-4.174-3.008-9.173-4.632-14.411-4.632
				c-13.623,0-24.704,11.081-24.704,24.704c0,1.395,0.112,2.771,0.34,4.119C67.022,36.9,56.813,43.55,52.085,53.729
				c-15.561,1.835-27.382,15.693-27.382,32.733c0,0.901,0.034,1.801,0.103,2.702C10.04,94.983,0,109.482,0,125.578
				c0,19.054,13.946,35.172,32.162,38.489c-2.197,5.4-3.341,11.212-3.341,17.095c0,24.973,20.317,45.29,45.29,45.29
				c12.334,0,24.055-5.006,32.572-13.823c6.912,1.954,14.406,1.954,21.318,0c8.518,8.818,20.239,13.823,32.573,13.823
				c24.973,0,45.29-20.317,45.29-45.29c0-5.882-1.144-11.694-3.341-17.095C220.74,160.75,234.686,144.632,234.686,125.578z
				 M196.159,156.451c-1.458,0.028-2.792,0.824-3.51,2.095c-0.716,1.269-0.708,2.822,0.024,4.085
				c3.242,5.605,4.957,12.012,4.957,18.53c0,20.432-16.624,37.056-37.056,37.056c-10.85,0-21.121-4.737-28.18-12.993
				c-0.798-0.933-1.95-1.441-3.13-1.441c-0.471,0-0.943,0.08-1.401,0.245c-6.735,2.441-14.306,2.441-21.041,0
				c-1.608-0.579-3.416-0.107-4.532,1.196c-7.058,8.257-17.329,12.993-28.18,12.993c-20.432,0-37.056-16.624-37.056-37.056
				c0-6.518,1.715-12.925,4.958-18.53c0.732-1.262,0.74-2.817,0.024-4.085c-0.718-1.271-2.052-2.067-3.51-2.095
				c-16.703-0.31-30.293-14.159-30.293-30.874c0-13.647,9.139-25.842,22.227-29.653c2.02-0.589,3.273-2.607,2.901-4.678
				c-0.281-1.57-0.424-3.179-0.424-4.783c0-13.301,9.913-24.38,22.096-24.698c1.707-0.044,3.209-1.136,3.776-2.744
				C61.708,50.808,69.51,45.29,78.227,45.29c1.751,0,3.488,0.219,5.163,0.651c1.562,0.398,3.204-0.141,4.218-1.383
				c1.017-1.244,1.216-2.965,0.511-4.409c-1.099-2.254-1.656-4.681-1.656-7.211c0-9.081,7.388-16.469,16.469-16.469
				c4.338,0,8.432,1.672,11.528,4.706c1.6,1.572,4.165,1.572,5.766,0c3.096-3.034,7.189-4.706,11.528-4.706
				c9.081,0,16.469,7.388,16.469,16.469c0,2.31-0.469,4.541-1.389,6.634c-0.581,1.321-0.43,2.849,0.4,4.029
				c0.828,1.178,2.195,1.827,3.655,1.739c0.48-0.034,0.963-0.05,1.451-0.05c8.804,0,16.632,5.591,19.481,13.914
				c0.637,1.86,2.469,3.018,4.451,2.746c0.927-0.125,1.872-0.191,2.831-0.191c12.487,0,22.645,11.081,22.645,24.704
				c0,1.604-0.143,3.213-0.424,4.783c-0.372,2.071,0.881,4.089,2.901,4.678c13.088,3.812,22.227,16.007,22.227,29.654
				C226.452,142.292,212.861,156.142,196.159,156.451z"/>
			<path d="M76.797,105.058l4.101,0.171l0.342-8.226l-4.113-0.171c-7.847-0.324-23.317,3.026-26.193,18.005
				c-0.411,2.145-0.763,4.156-1.081,6.078c-0.998,0.526-11.397,5.796-22.835,2.676l-3.972-1.082l-2.163,7.945l3.972,1.082
				c3.331,0.907,6.574,1.262,9.616,1.262c5.628,0,10.525-1.218,14.021-2.421c-0.768,6.365-0.913,10.143-0.921,10.393l-0.137,4.113
				l8.226,0.275l0.141-4.113c0.002-0.073,0.215-5.677,1.566-14.887l0.191-0.107l-0.136-0.244c0.42-2.834,0.935-5.967,1.598-9.418
				C61.273,104.652,76.178,105.053,76.797,105.058z"/>
			<path d="M86.532,143.002l-3.227-2.497l-5.022,6.435l3.182,2.553c1.317,1.055,7.577,6.795,1.536,16.077
				c-8.261,12.696-14.445,20.204-14.507,20.279l-2.624,3.172l6.343,5.249l2.624-3.17c0.264-0.316,6.524-7.911,15.066-21.039
				C98.276,157.2,91.359,146.737,86.532,143.002z"/>
			<path d="M111.973,139.381l3.112-7.624l-3.812-1.556c-8.534-3.486-11.172-12.955-11.24-13.21l-1.003-3.979l-7.986,2.015
				l1.007,3.993c0.141,0.557,3.585,13.691,16.109,18.805L111.973,139.381z"/>
			<path d="M110.558,51.404l-7.929-2.223c-4.827,17.217-17.111,23.087-33.94,29.499l2.931,7.696
				C89.467,79.576,104.714,72.25,110.558,51.404z"/>
			<path d="M207.669,123.59c-11.297,3.075-21.762-2.122-22.835-2.678c-0.317-1.92-0.67-3.93-1.081-6.075
				c-2.875-14.982-18.321-18.327-26.193-18.005l-4.113,0.171l0.342,8.226l4.113-0.171c0.141-0.012,15.492-0.505,17.766,11.331
				c0.662,3.451,1.177,6.584,1.598,9.418l-0.136,0.244l0.191,0.107c1.351,9.21,1.565,14.814,1.566,14.887l0.141,4.113l8.226-0.275
				l-0.137-4.113c-0.009-0.25-0.154-4.028-0.921-10.392c3.496,1.204,8.392,2.421,14.021,2.421c3.04,0,6.285-0.356,9.616-1.262
				l3.972-1.082l-2.163-7.945L207.669,123.59z"/>
			<path d="M151.683,165.571c-6.027-9.262,0.193-14.996,1.53-16.069l3.237-2.505l-5.038-6.514l-3.257,2.519
				c-4.827,3.735-11.745,14.197-3.373,27.06c8.544,13.128,14.805,20.723,15.068,21.039l2.626,3.172l6.343-5.253l-2.628-3.17
				C166.13,185.775,159.972,178.306,151.683,165.571z"/>
			<path d="M143.641,115.027l-7.986-2.015l-1.007,3.993c-0.024,0.096-2.523,9.638-11.236,13.196l-3.812,1.556l3.112,7.624
				l3.812-1.556c12.525-5.115,15.969-18.248,16.109-18.805L143.641,115.027z"/>
			<path d="M163.066,86.375l2.931-7.696c-16.829-6.411-29.113-12.282-33.94-29.499l-7.929,2.223
				C129.973,72.25,145.219,79.576,163.066,86.375z"/>
			<path d="M105.496,177.45l4.73,6.739c10.454-7.34,12.215-5.233,16.925,0.394l6.313-5.287
				C125.958,170.328,119.569,167.573,105.496,177.45z"/>
		</g>
	</g>
</g>
<g>
</g>
<g>
</g>
<g>
</g>
<g>
</g>
<g>
</g>
<g>
</g>
<g>
</g>
<g>
</g>
<g>
</g>
<g>
</g>
<g>
</g>
<g>
</g>
<g>
</g>
<g>
</g>
<g>
</g>
</svg>
