<?xml version="1.0" encoding="iso-8859-1"?>
<!-- Generator: Adobe Illustrator 19.0.0, SVG Export Plug-In . SVG Version: 6.00 Build 0)  -->
<svg version="1.1" id="Layer_1" xmlns="http://www.w3.org/2000/svg" xmlns:xlink="http://www.w3.org/1999/xlink" x="0px" y="0px"
	 viewBox="0 0 230.569 230.569" style="enable-background:new 0 0 230.569 230.569;" xml:space="preserve">
<g>
	<g>
		<g>
			<path d="M220.276,28.821h-78.229V4.117c0-2.274-1.842-4.117-4.117-4.117H96.757c-2.276,0-4.117,1.844-4.117,4.117v24.704H10.293
				c-2.276,0-4.117,1.844-4.117,4.117v123.519c0,2.274,1.842,4.117,4.117,4.117h100.396l-30.812,61.76H55.584v8.235h29.392
				l28.25-56.636v52.519h8.235v-52.519l28.25,56.636h29.392v-8.235h-24.294l-30.812-61.76h96.279c2.276,0,4.117-1.844,4.117-4.117
				V32.938C224.393,30.665,222.551,28.821,220.276,28.821z M100.874,8.235h32.938v20.587h-32.938V8.235z M216.159,152.34H14.411
				V37.056h82.346h41.173h78.229V152.34z"/>
			<rect x="72.053" y="86.463" width="24.704" height="8.235"/>
			<rect x="72.053" y="102.933" width="24.704" height="8.235"/>
			<polygon points="32.424,69.994 30.88,69.994 30.88,127.636 32.424,127.636 39.114,127.636 59.701,127.636 59.701,119.402 
				39.114,119.402 39.114,102.933 59.701,102.933 59.701,94.698 39.114,94.698 39.114,78.229 59.701,78.229 59.701,69.994 
				39.114,69.994 			"/>
			<polygon points="158.516,127.636 179.103,127.636 179.103,119.402 158.516,119.402 158.516,78.229 179.103,78.229 
				179.103,69.994 158.516,69.994 151.826,69.994 150.282,69.994 150.282,127.636 151.826,127.636 			"/>
			<polygon points="129.695,69.994 121.461,69.994 117.343,69.994 109.109,69.994 109.109,78.229 109.109,127.636 117.343,127.636 
				117.343,78.229 121.461,78.229 121.461,90.581 129.695,90.581 129.695,78.229 133.812,78.229 133.812,127.636 142.047,127.636 
				142.047,78.229 142.047,69.994 133.812,69.994 			"/>
			<polygon points="203.807,74.111 191.455,74.111 191.455,69.994 203.807,69.994 203.807,67.936 203.807,61.76 203.807,57.642 
				203.807,53.525 203.807,49.408 183.22,49.408 183.22,57.642 195.572,57.642 195.572,61.76 183.22,61.76 183.22,63.818 
				183.22,69.994 183.22,74.111 183.22,80.287 183.22,82.346 203.807,82.346 			"/>
		</g>
	</g>
</g>
<g>
</g>
<g>
</g>
<g>
</g>
<g>
</g>
<g>
</g>
<g>
</g>
<g>
</g>
<g>
</g>
<g>
</g>
<g>
</g>
<g>
</g>
<g>
</g>
<g>
</g>
<g>
</g>
<g>
</g>
</svg>
