<?xml version="1.0" encoding="iso-8859-1"?>
<!-- Generator: Adobe Illustrator 19.0.0, SVG Export Plug-In . SVG Version: 6.00 Build 0)  -->
<svg version="1.1" id="Layer_1" xmlns="http://www.w3.org/2000/svg" xmlns:xlink="http://www.w3.org/1999/xlink" x="0px" y="0px"
	 viewBox="0 0 210.979 210.979" style="enable-background:new 0 0 210.979 210.979;" xml:space="preserve">
<g>
	<g>
		<g>
			<path d="M84.903,37.554c-40.863,0-74.111,33.248-74.111,74.111c0,40.863,33.248,74.111,74.111,74.111
				c40.863,0,74.112-33.248,74.112-74.111C159.015,70.802,125.766,37.554,84.903,37.554z M19.025,111.665
				c0.001-13.693,4.208-26.418,11.387-36.966c2.515,1.496,9.324,5.73,14.435,10.683c3.571,3.462,5.215,5.987,5.179,7.941
				c-0.028,1.661-1.307,3.639-3.792,5.878c-3.405,3.068-4.861,6.936-4.093,10.896c1.536,7.941,11.415,14.181,20.144,17.378
				c5.89,2.151,8.335,3.86,9.32,4.748c-6.045,2.323-28.892,1.545-49.549-0.816C20.092,125.171,19.025,118.541,19.025,111.665z
				 M84.903,177.542c-26.137,0.001-48.701-15.339-59.339-37.454c8.608,0.913,19.651,1.822,29.524,1.822
				c10.466,0,19.605-1.021,23.096-4.142c1.496-1.335,2.304-3.108,2.284-4.99c-0.084-6.687-8.802-10.643-15.351-13.04
				c-8.894-3.249-14.31-8.202-14.889-11.206c-0.093-0.471-0.306-1.572,1.516-3.213c4.31-3.884,6.442-7.756,6.518-11.845
				c0.105-5.677-3.824-10.265-7.68-14.005c-5.183-5.021-11.711-9.265-15.033-11.291c12.08-13.693,29.701-22.39,49.354-22.39
				c15.301,0,29.365,5.29,40.56,14.075c-0.985,3.593-4.513,12.708-15.824,17.83c-14.137,6.401-16.686,7.555-16.188,18.118
				c0.056,1.202,0.121,2.598,0.137,4.242c0.089,9.485,6.248,13.067,11.685,16.228c3.45,2.006,7.016,4.081,9.959,7.797
				c5.066,6.393,5.38,11.479,5.714,16.867c0.153,2.485,0.314,5.05,0.981,7.615c1.379,5.296,4.797,9.303,7.321,11.679
				C117.529,170.947,101.991,177.542,84.903,177.542z M134.986,154.349c-1.725-1.599-4.183-4.375-5.091-7.863
				c-0.467-1.793-0.591-3.767-0.732-6.048c-0.358-5.818-0.808-13.056-7.475-21.475c-3.912-4.933-8.552-7.631-12.279-9.799
				c-5.364-3.12-7.543-4.572-7.587-9.191c-0.016-1.761-0.084-3.257-0.145-4.548c-0.237-4.982-0.237-4.982,11.355-10.229
				c11.403-5.161,16.681-13.589,19.067-19.39c11.538,11.871,18.68,28.037,18.68,45.859
				C150.78,127.948,144.81,142.84,134.986,154.349z"/>
			<path d="M19.026,31.025l5.822,5.822c0.804,0.804,1.858,1.206,2.911,1.206s2.107-0.402,2.911-1.206
				c1.608-1.608,1.608-4.214,0-5.822l-5.822-5.822l5.822-5.822c1.608-1.608,1.608-4.214,0-5.822c-1.608-1.608-4.214-1.608-5.822,0
				l-5.822,5.822l-5.822-5.822c-1.608-1.608-4.214-1.608-5.822,0c-1.608,1.608-1.608,4.214,0,5.822l5.822,5.822l-5.822,5.822
				c-1.608,1.608-1.608,4.214,0,5.822c0.804,0.804,1.857,1.206,2.911,1.206s2.107-0.402,2.911-1.206L19.026,31.025z"/>
			<path d="M156.602,1.206l-5.822,5.822l-5.822-5.822c-1.608-1.608-4.214-1.608-5.822,0c-1.608,1.608-1.608,4.214,0,5.822
				l5.822,5.822l-5.822,5.822c-1.608,1.608-1.608,4.214,0,5.822c0.804,0.804,1.858,1.206,2.911,1.206s2.107-0.402,2.911-1.206
				l5.822-5.822l5.822,5.822c0.804,0.804,1.858,1.206,2.911,1.206s2.107-0.402,2.911-1.206c1.608-1.608,1.608-4.214,0-5.822
				l-5.822-5.822l5.822-5.822c1.608-1.608,1.608-4.214,0-5.822C160.816-0.402,158.21-0.402,156.602,1.206z"/>
			<path d="M197.775,54.023l5.822-5.822c1.608-1.608,1.608-4.214,0-5.822c-1.608-1.608-4.214-1.608-5.822,0l-5.822,5.822
				l-5.822-5.822c-1.608-1.608-4.214-1.608-5.822,0c-1.608,1.608-1.608,4.214,0,5.822l5.822,5.822l-5.822,5.822
				c-1.608,1.608-1.608,4.214,0,5.822c0.804,0.804,1.858,1.206,2.911,1.206c1.053,0,2.107-0.402,2.911-1.206l5.822-5.822
				l5.822,5.822c0.804,0.804,1.858,1.206,2.911,1.206c1.053,0,2.107-0.402,2.911-1.206c1.608-1.608,1.608-4.214,0-5.822
				L197.775,54.023z"/>
			<path d="M162.424,186.485c-1.608-1.608-4.214-1.608-5.822,0l-5.822,5.822l-5.822-5.822c-1.608-1.608-4.214-1.608-5.822,0
				c-1.608,1.608-1.608,4.214,0,5.822l5.822,5.822l-5.822,5.822c-1.608,1.608-1.608,4.214,0,5.822
				c0.804,0.804,1.858,1.206,2.911,1.206s2.107-0.402,2.911-1.206l5.822-5.822l5.822,5.822c0.804,0.804,1.858,1.206,2.911,1.206
				s2.107-0.402,2.911-1.206c1.608-1.608,1.608-4.214,0-5.822l-5.822-5.822l5.822-5.822
				C164.032,190.699,164.032,188.093,162.424,186.485z"/>
		</g>
	</g>
</g>
<g>
</g>
<g>
</g>
<g>
</g>
<g>
</g>
<g>
</g>
<g>
</g>
<g>
</g>
<g>
</g>
<g>
</g>
<g>
</g>
<g>
</g>
<g>
</g>
<g>
</g>
<g>
</g>
<g>
</g>
</svg>
