<?xml version="1.0" encoding="iso-8859-1"?>
<!-- Generator: Adobe Illustrator 19.0.0, SVG Export Plug-In . SVG Version: 6.00 Build 0)  -->
<svg version="1.1" id="Layer_1" xmlns="http://www.w3.org/2000/svg" xmlns:xlink="http://www.w3.org/1999/xlink" x="0px" y="0px"
	 viewBox="0 0 222.334 222.334" style="enable-background:new 0 0 222.334 222.334;" xml:space="preserve">
<g>
	<g>
		<g>
			<path d="M111.167,82.346c-24.973,0-45.29,20.317-45.29,45.29c0,15.311,7.829,29.643,20.587,37.964v19.678
				c0,2.274,1.842,4.117,4.117,4.117h16.469h8.235h16.469c2.276,0,4.117-1.844,4.117-4.117V165.6
				c12.758-8.321,20.587-22.653,20.587-37.964C156.458,102.663,136.14,82.346,111.167,82.346z M129.691,159.737
				c-1.271,0.736-2.055,2.095-2.055,3.564v17.86h-12.352v-10.293h-8.235v10.293H94.698v-17.86c0-1.469-0.784-2.829-2.055-3.564
				c-11.431-6.61-18.532-18.912-18.532-32.1c0-20.432,16.622-37.056,37.056-37.056c20.434,0,37.056,16.624,37.056,37.056
				C148.223,140.825,141.122,153.126,129.691,159.737z"/>
			<path d="M94.698,111.167c-6.811,0-12.352,5.541-12.352,12.352s5.541,12.352,12.352,12.352s12.352-5.541,12.352-12.352
				C107.05,116.708,101.509,111.167,94.698,111.167z M94.698,127.636c-2.272,0-4.117-1.847-4.117-4.117
				c0-2.27,1.845-4.117,4.117-4.117s4.117,1.847,4.117,4.117C98.815,125.789,96.97,127.636,94.698,127.636z"/>
			<path d="M127.636,111.167c-6.811,0-12.352,5.541-12.352,12.352s5.541,12.352,12.352,12.352c6.811,0,12.352-5.541,12.352-12.352
				C139.988,116.708,134.448,111.167,127.636,111.167z M127.636,127.636c-2.272,0-4.117-1.847-4.117-4.117
				c0-2.27,1.845-4.117,4.117-4.117c2.272,0,4.117,1.847,4.117,4.117C131.754,125.789,129.908,127.636,127.636,127.636z"/>
			<path d="M177.044,69.994c-19.04,0-34.756-14.44-36.813-32.938h24.461c2.276,0,4.117-1.844,4.117-4.117V4.117
				c0-2.274-1.842-4.117-4.117-4.117H57.642c-2.276,0-4.117,1.844-4.117,4.117v28.821c0,2.274,1.842,4.117,4.117,4.117h24.461
				C80.047,55.554,64.331,69.994,45.29,69.994c-2.276,0-4.117,1.844-4.117,4.117v144.106c0,2.274,1.842,4.117,4.117,4.117h131.754
				c2.276,0,4.117-1.844,4.117-4.117V74.111C181.161,71.838,179.32,69.994,177.044,69.994z M61.76,28.822V8.235h98.815v20.587
				h-24.704H86.463H61.76z M172.927,214.1H49.408V78.044c21.696-1.964,39.026-19.292,40.988-40.988h41.543
				c1.962,21.696,19.292,39.024,40.988,40.988V214.1z"/>
		</g>
	</g>
</g>
<g>
</g>
<g>
</g>
<g>
</g>
<g>
</g>
<g>
</g>
<g>
</g>
<g>
</g>
<g>
</g>
<g>
</g>
<g>
</g>
<g>
</g>
<g>
</g>
<g>
</g>
<g>
</g>
<g>
</g>
</svg>
