<?xml version="1.0" encoding="iso-8859-1"?>
<!-- Generator: Adobe Illustrator 19.0.0, SVG Export Plug-In . SVG Version: 6.00 Build 0)  -->
<svg version="1.1" id="Layer_1" xmlns="http://www.w3.org/2000/svg" xmlns:xlink="http://www.w3.org/1999/xlink" x="0px" y="0px"
	 viewBox="0 0 230.568 230.568" style="enable-background:new 0 0 230.568 230.568;" xml:space="preserve">
<g>
	<g>
		<g>
			<path d="M209.991,47.348h-16.477v-8.235H152.34v8.235h-4.117V18.528H82.346v28.821h-4.117v-8.235H37.056v8.235H20.578
				C9.232,47.348,0,56.158,0,66.986v104.83c0,10.829,9.222,19.638,20.556,19.638h16.499v20.587h37.056v-20.587h82.346v20.587h37.056
				v-20.587h16.499c11.335,0,20.556-8.809,20.556-19.637V66.986C230.569,56.158,221.337,47.348,209.991,47.348z M160.575,47.348
				h24.704v8.235h-24.704V47.348z M90.581,26.762h49.408v20.587H90.581V26.762z M45.29,47.348h24.704v8.235H45.29V47.348z
				 M65.877,203.807H45.29v-12.352h20.587V203.807z M185.279,203.807h-20.587v-12.352h20.587V203.807z M210.012,183.219h-16.499
				h-37.056H74.111H37.056h-16.5c-6.795,0-12.322-5.115-12.322-11.403V66.986c0-6.288,5.537-11.403,12.344-11.403h16.477v8.235
				h41.173v-8.235h4.117h65.877h4.117v8.235h41.173v-8.235h16.477c6.807,0,12.344,5.115,12.344,11.403v104.831h0.001
				C222.334,178.104,216.807,183.219,210.012,183.219z"/>
			<path d="M115.285,92.638c-18.162,0-32.938,14.777-32.938,32.938c0,18.161,14.777,32.938,32.938,32.938
				s32.938-14.777,32.938-32.938S133.446,92.638,115.285,92.638z M115.285,150.281c-13.623,0-24.704-11.081-24.704-24.704
				c0-13.623,11.081-24.704,24.704-24.704c13.623,0,24.704,11.081,24.704,24.704S128.907,150.281,115.285,150.281z"/>
			<polygon points="119.402,113.226 111.167,113.226 111.167,123.2 100.746,129.216 104.863,136.349 114.945,130.528 
				125.027,136.349 129.144,129.216 119.402,123.591 			"/>
		</g>
	</g>
</g>
<g>
</g>
<g>
</g>
<g>
</g>
<g>
</g>
<g>
</g>
<g>
</g>
<g>
</g>
<g>
</g>
<g>
</g>
<g>
</g>
<g>
</g>
<g>
</g>
<g>
</g>
<g>
</g>
<g>
</g>
</svg>
