<?xml version="1.0" encoding="iso-8859-1"?>
<!-- Generator: Adobe Illustrator 19.0.0, SVG Export Plug-In . SVG Version: 6.00 Build 0)  -->
<svg version="1.1" id="Layer_1" xmlns="http://www.w3.org/2000/svg" xmlns:xlink="http://www.w3.org/1999/xlink" x="0px" y="0px"
	 viewBox="0 0 236.745 236.745" style="enable-background:new 0 0 236.745 236.745;" xml:space="preserve">
<g>
	<g>
		<g>
			<path d="M178.078,53.525h-20.591V32.354c7.084-1.841,12.352-8.233,12.352-15.885C169.839,7.388,162.453,0,153.37,0
				c-9.084,0-16.47,7.388-16.47,16.469c0,7.652,5.268,14.044,12.352,15.885v21.171H58.667c-13.618,0-24.7,11.079-24.7,24.698v98.827
				c0,13.619,11.081,24.698,24.7,24.698h41.177v34.997h8.235v-34.997h20.587v34.997h8.235v-34.997h41.177
				c13.618,0,24.7-11.079,24.7-24.698V78.223C202.777,64.604,191.696,53.525,178.078,53.525z M145.135,16.469
				c0-4.541,3.695-8.235,8.235-8.235c4.539,0,8.235,3.693,8.235,8.235s-3.695,8.235-8.235,8.235S145.135,21.011,145.135,16.469z
				 M178.078,193.513H58.667c-9.079,0-16.465-7.386-16.465-16.463V78.223c0-9.077,7.386-16.463,16.465-16.463h119.41
				c9.079,0,16.465,7.386,16.465,16.463v98.827h0.001C194.543,186.127,187.157,193.513,178.078,193.513z"/>
			<path d="M153.37,144.106H83.375c-2.276,0-4.117,1.844-4.117,4.117v28.821c0,2.274,1.842,4.117,4.117,4.117h69.994
				c2.276,0,4.117-1.844,4.117-4.117v-28.821C157.487,145.949,155.645,144.106,153.37,144.106z M95.728,172.927h-8.235V152.34h8.235
				V172.927z M132.783,172.927h-28.821V152.34h28.821V172.927z M149.252,172.927h-8.235V152.34h8.235V172.927z"/>
			<rect x="60.73" y="90.581" width="115.285" height="8.235"/>
			<rect x="83.375" y="107.05" width="24.704" height="8.235"/>
			<rect x="128.666" y="107.05" width="24.704" height="8.235"/>
		</g>
	</g>
</g>
<g>
</g>
<g>
</g>
<g>
</g>
<g>
</g>
<g>
</g>
<g>
</g>
<g>
</g>
<g>
</g>
<g>
</g>
<g>
</g>
<g>
</g>
<g>
</g>
<g>
</g>
<g>
</g>
<g>
</g>
</svg>
