<?xml version="1.0" encoding="iso-8859-1"?>
<!-- Generator: Adobe Illustrator 19.0.0, SVG Export Plug-In . SVG Version: 6.00 Build 0)  -->
<svg version="1.1" id="Layer_1" xmlns="http://www.w3.org/2000/svg" xmlns:xlink="http://www.w3.org/1999/xlink" x="0px" y="0px"
	 viewBox="0 0 219.835 219.835" style="enable-background:new 0 0 219.835 219.835;" xml:space="preserve">
<g>
	<g>
		<g>
			<path d="M216.85,11.757c-0.358-1.53-1.552-2.724-3.084-3.08c-38.375-8.908-77.919,2.396-105.751,30.226
				C95.305,51.617,85.768,67.218,80.3,84.205c-1.508-0.165-3.028-0.261-4.539-0.287c-17.032-0.257-32.601,7.933-41.993,22.012
				c-0.969,1.458-0.917,3.37,0.141,4.767c1.054,1.393,2.875,1.972,4.543,1.439c3.82-1.227,7.813-1.884,11.873-1.952
				c0.245-0.004,0.49-0.008,0.732-0.008c16.312,0,31.041,9.567,37.655,24.533c0.418,0.937,1.166,1.687,2.103,2.101
				c15.191,6.717,24.82,21.787,24.527,38.397c-0.068,4.041-0.724,8.036-1.95,11.873c-0.535,1.667,0.044,3.488,1.444,4.541
				c0.732,0.553,1.604,0.83,2.477,0.83c0.796,0,1.592-0.229,2.284-0.692c14.077-9.392,22.308-25.09,22.014-41.991
				c-0.028-1.518-0.121-3.036-0.285-4.541c16.996-5.476,32.597-15.012,45.299-27.719C214.454,89.678,225.756,50.143,216.85,11.757z
				 M135.602,138.362c-2.043,0.585-3.301,2.626-2.915,4.712c0.418,2.238,0.647,4.538,0.688,6.836
				c0.177,10.243-3.402,19.955-9.875,27.504c0.04-0.688,0.064-1.377,0.077-2.067c0.342-19.396-10.599-37.048-27.993-45.405
				c-8.359-17.392-25.882-28.242-45.403-27.993c-0.688,0.012-1.379,0.038-2.067,0.078c7.547-6.477,17.338-10.072,27.502-9.875
				c2.296,0.038,4.596,0.269,6.843,0.686c2.059,0.386,4.121-0.875,4.704-2.915c4.869-16.984,14.093-32.615,26.674-45.198
				c25.202-25.2,60.75-35.775,95.542-28.582c7.205,34.802-3.382,70.344-28.58,95.542
				C168.226,124.263,152.598,133.489,135.602,138.362z"/>
			<path d="M176.433,30.562c-4.946,0-9.602,1.928-13.1,5.428c-3.502,3.498-5.428,8.15-5.428,13.1c0,4.95,1.926,9.602,5.428,13.102
				c3.502,3.5,8.154,5.426,13.1,5.426c4.949,0,9.602-1.926,13.1-5.426c3.502-3.5,5.428-8.152,5.428-13.102
				c0-4.95-1.926-9.602-5.428-13.1C186.035,32.49,181.382,30.562,176.433,30.562z M183.711,56.37c-3.88,3.888-10.659,3.892-14.555,0
				c-1.946-1.946-3.016-4.529-3.016-7.28c0-2.748,1.07-5.334,3.016-7.278c3.896-3.89,10.667-3.886,14.556,0
				c1.946,1.944,3.016,4.529,3.016,7.278C186.726,51.84,185.657,54.424,183.711,56.37z"/>
			<path d="M116.752,70.925c-5.054,5.054-7.841,11.775-7.841,18.924s2.787,13.87,7.841,18.924
				c5.054,5.056,11.773,7.839,18.922,7.839s13.872-2.782,18.926-7.839c10.434-10.434,10.434-27.414,0-37.848
				C144.162,60.493,127.182,60.485,116.752,70.925z M148.778,102.951c-3.502,3.5-8.154,5.426-13.104,5.426
				c-4.949,0-9.602-1.926-13.1-5.426c-3.502-3.5-5.428-8.152-5.428-13.102s1.926-9.602,5.428-13.102
				c3.611-3.611,8.355-5.416,13.1-5.416s9.489,1.805,13.104,5.416C155.999,83.97,155.999,95.727,148.778,102.951z"/>
			<path d="M61.321,137.437c-7.149,0-13.868,2.785-18.922,7.839c-9.469,9.465-16.735,46.386-17.535,50.565
				c-0.253,1.339,0.169,2.72,1.134,3.683c0.78,0.78,1.829,1.206,2.911,1.206c0.257,0,0.515-0.024,0.772-0.072
				c4.177-0.798,41.096-8.068,50.565-17.535c10.434-10.434,10.434-27.414,0-37.848C75.193,140.22,68.47,137.437,61.321,137.437z
				 M74.425,177.301c-5.058,5.056-25.307,10.774-40.228,14.024c3.249-14.919,8.963-35.168,14.024-40.228
				c3.498-3.5,8.15-5.426,13.1-5.426c4.95,0,9.602,1.926,13.104,5.426C81.646,158.321,81.646,170.078,74.425,177.301z"/>
			
				<rect x="4.973" y="165.04" transform="matrix(-0.9721 -0.2344 0.2344 -0.9721 -25.8484 370.4164)" width="8.234" height="43.408"/>
			
				<rect x="62.343" y="195.901" transform="matrix(-0.0952 -0.9955 0.9955 -0.0952 -135.0793 294.8516)" width="8.234" height="25.827"/>
		</g>
	</g>
</g>
<g>
</g>
<g>
</g>
<g>
</g>
<g>
</g>
<g>
</g>
<g>
</g>
<g>
</g>
<g>
</g>
<g>
</g>
<g>
</g>
<g>
</g>
<g>
</g>
<g>
</g>
<g>
</g>
<g>
</g>
</svg>
