<?xml version="1.0" encoding="iso-8859-1"?>
<!-- Generator: Adobe Illustrator 19.0.0, SVG Export Plug-In . SVG Version: 6.00 Build 0)  -->
<svg version="1.1" id="Layer_1" xmlns="http://www.w3.org/2000/svg" xmlns:xlink="http://www.w3.org/1999/xlink" x="0px" y="0px"
	 viewBox="0 0 235.735 235.735" style="enable-background:new 0 0 235.735 235.735;" xml:space="preserve">
<g>
	<g>
		<g>
			<path d="M71.493,100.192c0.804,0.804,1.858,1.206,2.911,1.206c1.053,0,2.107-0.402,2.911-1.206l17.468-17.468l5.822-5.822
				l11.646-11.646c1.608-1.608,1.608-4.214,0-5.822L86.048,33.229l-5.822-5.822L54.024,1.206c-1.608-1.608-4.214-1.608-5.822,0
				L36.557,12.851l-0.001-0.001l-5.822,5.822l0.001,0.001l-17.469,17.47c-1.608,1.608-1.608,4.214,0,5.822L71.493,100.192z
				 M74.404,91.459L51.112,68.168L65.669,53.61l23.292,23.292L74.404,91.459z M80.227,39.052l23.292,23.292l-8.735,8.735
				L71.492,47.787L80.227,39.052z M51.114,9.939l23.29,23.291l-8.734,8.735L42.38,18.674L51.114,9.939z M36.557,24.496l23.29,23.292
				L45.29,62.346L21.999,39.054L36.557,24.496z"/>
			<path d="M234.528,181.71l-58.227-58.227c-1.608-1.608-4.214-1.608-5.822,0l-34.937,34.937c-0.772,0.772-1.206,1.819-1.206,2.911
				s0.434,2.139,1.206,2.911l58.229,58.227c0.772,0.772,1.819,1.206,2.911,1.206s2.139-0.434,2.911-1.206L217.061,205l5.822-5.822
				l-0.001-0.001l11.645-11.645C236.137,185.924,236.137,183.318,234.528,181.71z M173.39,132.216l23.292,23.292l-8.734,8.734
				l-23.292-23.292L173.39,132.216z M144.276,161.331l14.558-14.559l23.292,23.292l-14.558,14.558L144.276,161.331z
				 M196.683,213.736l-23.293-23.292l14.558-14.557l23.292,23.292L196.683,213.736z M217.062,193.355l-23.291-23.291l8.734-8.734
				l23.29,23.29L217.062,193.355z"/>
			<path d="M138.455,138.038l40.761-40.761c11.236-11.232,11.236-29.517-0.002-40.755c-5.436-5.436-12.669-8.432-20.37-8.436
				c-0.006,0-0.01,0-0.016,0c-7.7,0-14.933,2.994-20.37,8.432L97.696,97.282L138.455,138.038z M144.282,62.34
				c3.882-3.882,9.047-6.019,14.547-6.019c5.326,0.075,10.677,2.137,14.563,6.023c8.025,8.028,8.027,21.087,0.002,29.111
				l-34.939,34.939L109.34,97.281L144.282,62.34z"/>
			<path d="M94.783,100.192l-26.202,26.202l17.468,17.468L54.004,175.91l5.822,5.822l32.046-32.047l17.468,17.468l26.202-26.202
				L94.783,100.192z M97.695,143.863l-5.823-5.823l-11.646-11.646l14.557-14.557l29.115,29.115l-14.557,14.557L97.695,143.863z"/>
			<path d="M28.114,145.861c-2.274,0-4.117,1.844-4.117,4.117c0,34.054,27.705,61.76,61.76,61.76c2.274,0,4.117-1.844,4.117-4.117
				s-1.844-4.117-4.117-4.117c-29.515,0-53.525-24.01-53.525-53.525C32.232,147.704,30.388,145.861,28.114,145.861z"/>
			<path d="M86.464,227.501c-43.135,0-78.229-35.093-78.229-78.229c0-2.274-1.844-4.117-4.117-4.117s-4.117,1.844-4.117,4.117
				c0,47.677,38.787,86.463,86.463,86.463c2.274,0,4.117-1.844,4.117-4.117C90.582,229.345,88.738,227.501,86.464,227.501z"/>
		</g>
	</g>
</g>
<g>
</g>
<g>
</g>
<g>
</g>
<g>
</g>
<g>
</g>
<g>
</g>
<g>
</g>
<g>
</g>
<g>
</g>
<g>
</g>
<g>
</g>
<g>
</g>
<g>
</g>
<g>
</g>
<g>
</g>
</svg>
