<?xml version="1.0" encoding="iso-8859-1"?>
<!-- Generator: Adobe Illustrator 19.0.0, SVG Export Plug-In . SVG Version: 6.00 Build 0)  -->
<svg version="1.1" id="Layer_1" xmlns="http://www.w3.org/2000/svg" xmlns:xlink="http://www.w3.org/1999/xlink" x="0px" y="0px"
	 viewBox="0 0 232.398 232.398" style="enable-background:new 0 0 232.398 232.398;" xml:space="preserve">
<g>
	<g>
		<g>
			<path d="M116.171,83.261c-36.324,0-65.877,29.553-65.877,65.877c0,2.274,1.844,4.117,4.117,4.117
				c2.274,0,4.117-1.844,4.117-4.117c0.001-31.785,25.859-57.643,57.643-57.643c2.274,0,4.117-1.844,4.117-4.117
				C120.288,85.104,118.444,83.261,116.171,83.261z"/>
			<path d="M230.273,79.143c-11.041-19.127-55.522-5.372-75.524,2.024c-11.398-6.496-24.547-10.259-38.578-10.259
				c-43.135,0-78.229,35.093-78.229,78.229c0,0.142,0.021,0.28,0.021,0.422C7.66,175.566-5.429,197.907,2.069,210.897
				c3.91,6.769,12.314,9.728,23.634,9.728c11.952,0,27.154-3.301,43.744-8.895c13.056,9.772,29.199,15.635,46.724,15.635
				c43.135,0,78.229-35.093,78.229-78.229c0-2.808-0.164-5.576-0.454-8.308c6.047-5.174,11.602-10.33,16.459-15.393
				C229.435,105.598,236.305,89.591,230.273,79.143z M9.202,206.78c-3.954-6.848,3.853-23.825,29.557-46.964
				c2.454,17.854,10.911,33.79,23.32,45.7C33.696,214.396,13.761,214.676,9.202,206.78z M46.178,149.137
				c-0.001-38.595,31.397-69.994,69.993-69.994c34.618,0,63.368,25.285,68.943,58.342c-14.883,12.326-32.802,24.704-52.473,36.061
				c-22.374,12.917-43.418,22.533-61.626,28.983C55.846,189.68,46.178,170.528,46.178,149.137z M116.171,219.131
				c-13.682,0-26.419-4.005-37.214-10.819c18.84-7.098,38.936-16.743,57.801-27.635c18.185-10.5,34.965-21.885,49.317-33.337
				c0.015,0.604,0.09,1.191,0.09,1.797C186.165,187.733,154.766,219.131,116.171,219.131z M204.462,119.736
				c-3.667,3.821-7.79,7.708-12.181,11.612c-4.217-18.035-14.674-33.649-28.981-44.501c35.574-12.308,55.631-10.887,59.841-3.586
				C226.979,89.908,219.997,103.544,204.462,119.736z"/>
			<path d="M37.943,79.143c20.432,0,37.056-16.624,37.056-37.056S58.374,5.032,37.943,5.032c-20.431,0-37.056,16.624-37.056,37.055
				C0.887,62.518,17.511,79.143,37.943,79.143z M37.943,13.266c15.892,0,28.821,12.929,28.821,28.821
				c0,15.892-12.929,28.822-28.821,28.822c-15.892,0-28.822-12.929-28.822-28.822C9.121,26.194,22.05,13.266,37.943,13.266z"/>
		</g>
	</g>
</g>
<g>
</g>
<g>
</g>
<g>
</g>
<g>
</g>
<g>
</g>
<g>
</g>
<g>
</g>
<g>
</g>
<g>
</g>
<g>
</g>
<g>
</g>
<g>
</g>
<g>
</g>
<g>
</g>
<g>
</g>
</svg>
