<?xml version="1.0" encoding="iso-8859-1"?>
<!-- Generator: Adobe Illustrator 19.0.0, SVG Export Plug-In . SVG Version: 6.00 Build 0)  -->
<svg version="1.1" id="Layer_1" xmlns="http://www.w3.org/2000/svg" xmlns:xlink="http://www.w3.org/1999/xlink" x="0px" y="0px"
	 viewBox="0 0 234.686 234.686" style="enable-background:new 0 0 234.686 234.686;" xml:space="preserve">
<g>
	<g>
		<g>
			<path d="M231.305,179.171L4.854,137.998c-2.254-0.43-4.379,1.077-4.787,3.313c-0.406,2.236,1.077,4.379,3.315,4.785
				l108.976,19.814l-25.304,27.604H67.908c-4.525,0-8.207,3.711-8.207,8.275v8.154c0,4.564,3.681,8.275,8.207,8.275h102.989
				c4.525,0,8.207-3.711,8.207-8.275v-8.154c0-4.564-3.681-8.275-8.207-8.275H151.75l-22.485-24.529l100.568,18.285
				c0.249,0.048,0.496,0.068,0.739,0.068c1.952,0,3.685-1.391,4.047-3.382C235.027,181.72,233.543,179.577,231.305,179.171z
				 M170.869,201.789l0.028,8.194l-102.961-0.04v-8.154l-0.028-0.04L170.869,201.789z M140.578,193.514H98.227l21.176-23.103
				L140.578,193.514z"/>
			<path d="M43.232,74.112c15.892,0,28.821-12.931,28.821-28.821c0-15.89-12.929-28.822-28.821-28.822
				c-15.892,0-28.821,12.931-28.821,28.822S27.34,74.112,43.232,74.112z M43.232,24.704c11.351,0,20.587,9.236,20.587,20.587
				c0,11.351-9.236,20.587-20.587,20.587s-20.587-9.236-20.587-20.587C22.645,33.94,31.881,24.704,43.232,24.704z"/>
			<path d="M195.572,148.223c20.432,0,37.056-16.622,37.056-37.056s-16.624-37.056-37.056-37.056s-37.056,16.622-37.056,37.056
				C158.516,131.601,175.14,148.223,195.572,148.223z M195.572,82.346c15.892,0,28.821,12.931,28.821,28.821
				s-12.929,28.821-28.821,28.821c-15.892,0-28.821-12.931-28.821-28.821S179.68,82.346,195.572,82.346z"/>
			<path d="M183.926,126.077c1.054,0,2.107-0.402,2.911-1.206l8.308-8.307l7.705,7.704c0.804,0.804,1.858,1.206,2.911,1.206
				s2.107-0.402,2.911-1.206c1.608-1.608,1.608-4.214,0-5.822l-7.705-7.704l6.249-6.248c1.608-1.608,1.608-4.214,0-5.822
				c-1.608-1.608-4.214-1.608-5.822,0l-6.249,6.248l-6.852-6.852c-1.608-1.608-4.214-1.608-5.822,0
				c-1.609,1.608-1.608,4.214,0,5.822l6.852,6.852l-8.308,8.307c-1.608,1.608-1.608,4.214,0,5.822
				C181.819,125.674,182.873,126.077,183.926,126.077z"/>
		</g>
	</g>
</g>
<g>
</g>
<g>
</g>
<g>
</g>
<g>
</g>
<g>
</g>
<g>
</g>
<g>
</g>
<g>
</g>
<g>
</g>
<g>
</g>
<g>
</g>
<g>
</g>
<g>
</g>
<g>
</g>
<g>
</g>
</svg>
