<?xml version="1.0" encoding="iso-8859-1"?>
<!-- Generator: Adobe Illustrator 19.0.0, SVG Export Plug-In . SVG Version: 6.00 Build 0)  -->
<svg version="1.1" id="Layer_1" xmlns="http://www.w3.org/2000/svg" xmlns:xlink="http://www.w3.org/1999/xlink" x="0px" y="0px"
	 viewBox="0 0 228.511 228.511" style="enable-background:new 0 0 228.511 228.511;" xml:space="preserve">
<g>
	<g>
		<g>
			<path d="M160.145,110.645l-1.5-12.211c-0.407-3.298-2.059-6.233-4.658-8.263c-2.591-2.022-5.818-2.923-9.103-2.513l-16.358,2.01
				c-3.291,0.402-6.218,2.059-8.244,4.672c-2.016,2.598-2.905,5.834-2.503,9.115l0.189,1.536h-7.418l0.189-1.536
				c0.402-3.281-0.487-6.518-2.503-9.115c-2.027-2.614-4.954-4.27-8.241-4.672l-16.363-2.01c-3.273-0.418-6.51,0.49-9.103,2.513
				c-2.599,2.031-4.252,4.966-4.658,8.263l-1.5,12.211c-0.402,3.281,0.487,6.518,2.503,9.115c2.027,2.614,4.954,4.27,8.241,4.672
				l16.363,2.01c0.515,0.064,1.027,0.096,1.538,0.096c2.74,0,5.38-0.905,7.565-2.61c2.599-2.031,4.252-4.966,4.658-8.263l0.3-2.441
				h9.44l0.3,2.441c0.406,3.297,2.059,6.232,4.658,8.263c2.185,1.705,4.825,2.61,7.565,2.61c0.508,0,1.023-0.032,1.538-0.096
				l16.358-2.01c3.291-0.402,6.218-2.059,8.244-4.672C159.658,117.162,160.548,113.926,160.145,110.645z M102.563,102.449
				l-1.5,12.212c-0.137,1.114-0.688,2.103-1.552,2.778c-0.858,0.672-1.926,0.969-3.03,0.832l-16.367-2.01
				c-1.094-0.137-2.067-0.683-2.736-1.548c-0.674-0.868-0.971-1.958-0.834-3.064l1.5-12.211c0.137-1.114,0.688-2.103,1.552-2.778
				c0.724-0.563,1.6-0.865,2.513-0.865c0.171,0,0.344,0.012,0.517,0.032l16.367,2.01c1.094,0.137,2.067,0.683,2.736,1.548
				C102.403,100.253,102.7,101.343,102.563,102.449z M151.137,114.713c-0.669,0.865-1.642,1.411-2.74,1.548l-16.363,2.01
				c-1.089,0.133-2.171-0.161-3.03-0.832c-0.865-0.676-1.416-1.665-1.552-2.778l-1.5-12.211c-0.137-1.106,0.161-2.195,0.834-3.064
				c0.669-0.865,1.642-1.411,2.74-1.548l16.363-2.01c1.106-0.128,2.171,0.165,3.03,0.832c0.865,0.676,1.416,1.665,1.552,2.778
				l1.5,12.211C152.107,112.755,151.809,113.845,151.137,114.713z"/>
			<path d="M192.482,150.282h-28.817c-1.337,0-2.591,0.651-3.363,1.741l-46.044,65.229l-46.044-65.229
				c-0.772-1.09-2.027-1.741-3.363-1.741H36.033c-13.625,0-24.708,11.081-24.708,24.7c0,2.276,1.844,4.117,4.117,4.117
				c2.273,0,4.117-1.842,4.117-4.117c0-9.079,7.39-16.465,16.473-16.465h26.684l48.177,68.253c0.772,1.09,2.026,1.741,3.363,1.741
				c1.337,0,2.591-0.651,3.363-1.741l48.177-68.253h26.684c9.083,0,16.473,7.386,16.473,16.465c0,2.276,1.844,4.117,4.117,4.117
				s4.117-1.842,4.117-4.117C217.19,161.363,206.106,150.282,192.482,150.282z"/>
			<path d="M29.924,139.739c4.177,0,9.053-0.712,14.447-1.504c6.697-0.981,14.286-2.091,22.086-2.091
				c0.093,0,0.17-0.047,0.261-0.053c12.329,16.983,28.923,26.541,48.107,26.541c18.753,0,35.113-9.105,47.344-25.006
				c0.466,0.183,0.966,0.302,1.497,0.302c7.8,0,15.39,1.11,22.086,2.091c5.394,0.792,10.269,1.504,14.447,1.504
				c4.966,0,8.948-1.009,11.648-4.093c4.421-5.05,2.726-13.353,1.068-19.159c-7.272-25.454-24.019-29.221-30.522-29.695
				c0.457-2.544,0.888-5.113,1.23-7.758c0.14-1.082,0.192-2.146,0.285-3.218c0.296-0.107,0.599-0.181,0.893-0.292
				c1.604-0.603,2.664-2.139,2.664-3.852V52.038C187.465,23.345,162.286,0,131.34,0H98.309C67.364,0,42.184,23.345,42.184,52.037
				v22.042c0,1.451,0.762,2.794,2.008,3.534c0.484,0.292,1.02,0.441,1.563,0.515c0.105,0.926,0.144,1.858,0.282,2.774
				c0.307,2.032,0.694,3.981,1.062,5.951c-6.887,0.67-22.839,4.941-29.893,29.633c-1.658,5.806-3.354,14.109,1.068,19.159
				C20.976,138.73,24.958,139.739,29.924,139.739z M114.825,154.399c-36.38,0-55.181-38.6-60.644-74.727
				c-0.231-1.521-0.344-3.064-0.469-4.602c2.717-1.197,5.43-2.263,8.088-3.291c9.357-3.611,18.982-7.33,26.113-17.088
				c17.675,25.403,43.919,27.655,69.443,27.655c6.094,0,12.123-0.794,18.042-2.22C169.445,125.252,145.702,154.399,114.825,154.399z
				 M204.997,120.532c2.376,8.319,1.248,10.796,0.653,11.475c-2.02,2.312-10.504,1.07-18.705-0.133
				c-5.887-0.862-12.461-1.778-19.411-2.057c5.68-9.362,10.143-20.49,13.147-33.093C182.059,96.616,198.067,96.28,204.997,120.532z
				 M50.419,52.037c0-24.153,21.483-43.803,47.89-43.803h33.031c26.407,0,47.89,19.65,47.89,43.803V70.49
				c-0.353,0.077-0.679,0.184-0.996,0.347c-6.793,2.152-13.795,3.274-20.877,3.274c-31.935,0-51.899-4.664-65.921-29.263
				c-0.734-1.287-2.101-2.079-3.577-2.079c-0.034,0-0.068,0-0.105,0c-1.516,0.04-2.887,0.909-3.571,2.26
				C78.364,56.557,69.744,59.886,58.834,64.1c-2.752,1.061-5.559,2.147-8.415,3.405V52.037z M25.124,118.746
				c6.343-22.201,20.251-23.784,23.697-23.812c3.015,12.596,7.293,23.74,12.697,33.132c-6.556,0.328-12.755,1.204-18.343,2.022
				c-8.196,1.202-16.68,2.449-18.705,0.133C23.875,129.542,22.747,127.065,25.124,118.746z"/>
			<path d="M124.55,133.812h-22.645c-2.274,0-4.117,1.842-4.117,4.117c0,2.275,1.844,4.117,4.117,4.117h22.645
				c2.274,0,4.117-1.842,4.117-4.117C128.668,135.654,126.825,133.812,124.55,133.812z"/>
		</g>
	</g>
</g>
<g>
</g>
<g>
</g>
<g>
</g>
<g>
</g>
<g>
</g>
<g>
</g>
<g>
</g>
<g>
</g>
<g>
</g>
<g>
</g>
<g>
</g>
<g>
</g>
<g>
</g>
<g>
</g>
<g>
</g>
</svg>
