<?xml version="1.0" encoding="iso-8859-1"?>
<!-- Generator: Adobe Illustrator 19.0.0, SVG Export Plug-In . SVG Version: 6.00 Build 0)  -->
<svg version="1.1" id="Layer_1" xmlns="http://www.w3.org/2000/svg" xmlns:xlink="http://www.w3.org/1999/xlink" x="0px" y="0px"
	 viewBox="0 0 227.143 227.143" style="enable-background:new 0 0 227.143 227.143;" xml:space="preserve">
<g>
	<g>
		<path d="M226.942,53.519c-0.487-1.49-1.773-2.577-3.325-2.803l-43.855-6.371L160.149,4.606c-1.383-2.81-5.999-2.81-7.382,0
			l-19.614,39.74l-43.855,6.371c-1.552,0.225-2.839,1.313-3.325,2.803c-0.483,1.492-0.08,3.126,1.041,4.222l18.355,17.89
			C44.288,95.48,0,152.915,0,220.527c0,2.274,1.842,4.117,4.117,4.117s4.117-1.844,4.117-4.117
			c0-65.49,43.93-120.879,103.858-138.344l6.658,6.49l-0.215,1.255c-44.816,14.341-77.362,56.382-77.362,105.895
			c0,2.274,1.842,4.117,4.117,4.117c2.275,0,4.117-1.844,4.117-4.117c0-44.329,28.168-82.202,67.544-96.663l-5.693,33.193
			c-0.266,1.544,0.37,3.106,1.637,4.027c1.275,0.923,2.955,1.041,4.338,0.314l39.223-20.623l39.223,20.623
			c0.603,0.316,1.262,0.472,1.918,0.472c0.852,0,1.701-0.266,2.421-0.786c1.266-0.921,1.902-2.483,1.637-4.027l-7.491-43.68
			L225.9,57.741C227.023,56.645,227.425,55.011,226.942,53.519z M186.867,84.286c-0.969,0.947-1.411,2.31-1.182,3.645l6.445,37.591
			l-33.755-17.748c-0.603-0.316-1.259-0.472-1.918-0.472s-1.315,0.157-1.918,0.472l-33.754,17.748l4.996-29.138
			c8.478-2.266,17.376-3.493,26.559-3.493c2.276,0,4.117-1.844,4.117-4.117c0-2.274-1.842-4.117-4.117-4.117
			c-8.63,0-17.022,1.021-25.091,2.891c0.092-1.208-0.325-2.405-1.201-3.261l-4.609-4.493c9.961-2.185,20.293-3.371,30.901-3.371
			c2.276,0,4.117-1.844,4.117-4.117c0-2.273-1.842-4.117-4.117-4.117c-13.083,0-25.785,1.66-37.908,4.777L98.739,57.667
			l37.739-5.482c1.343-0.195,2.501-1.038,3.1-2.254l16.879-34.2l16.879,34.199c0.599,1.216,1.757,2.059,3.1,2.254l37.739,5.482
			L186.867,84.286z"/>
	</g>
</g>
<g>
</g>
<g>
</g>
<g>
</g>
<g>
</g>
<g>
</g>
<g>
</g>
<g>
</g>
<g>
</g>
<g>
</g>
<g>
</g>
<g>
</g>
<g>
</g>
<g>
</g>
<g>
</g>
<g>
</g>
</svg>
