<?xml version="1.0" encoding="iso-8859-1"?>
<!-- Generator: Adobe Illustrator 19.0.0, SVG Export Plug-In . SVG Version: 6.00 Build 0)  -->
<svg version="1.1" id="Layer_1" xmlns="http://www.w3.org/2000/svg" xmlns:xlink="http://www.w3.org/1999/xlink" x="0px" y="0px"
	 viewBox="0 0 230.57 230.57" style="enable-background:new 0 0 230.57 230.57;" xml:space="preserve">
<g>
	<g>
		<path d="M205.867,86.464c-12.357,0-22.592,9.127-24.393,20.989h-17.833l-16.53-51.306c-0.555-1.719-2.227-2.845-3.969-2.855
			c-1.805,0.022-3.386,1.216-3.9,2.947l-18.536,62.54l-16.71-45.52c-0.623-1.695-2.175-2.806-4.089-2.692
			c-1.805,0.098-3.337,1.365-3.771,3.122l-23.932,96.672L56.864,36.588c-0.221-1.956-1.797-3.478-3.76-3.635
			c-1.954-0.159-3.764,1.091-4.294,2.99L19.748,139.402L8.072,99.473c-0.639-2.183-2.919-3.44-5.106-2.796
			c-2.183,0.639-3.438,2.925-2.799,5.108l15.709,53.714c0.515,1.755,2.123,2.961,3.953,2.961c0.008,0,0.016,0,0.02,0
			c1.838-0.01,3.446-1.234,3.944-3.004l27.277-97.11l15.552,135.636c0.225,1.98,1.838,3.512,3.824,3.641
			c0.089,0.006,0.181,0.008,0.269,0.008c1.878,0,3.534-1.28,3.993-3.128l26.191-105.788l16.361,44.564
			c0.611,1.667,2.292,2.827,3.997,2.696c1.773-0.056,3.309-1.244,3.816-2.945l18.282-61.685l13.365,41.487
			c0.551,1.701,2.131,2.855,3.92,2.855h20.956c2.132,11.469,12.193,20.184,24.27,20.184c13.623,0,24.704-11.081,24.704-24.704
			S219.49,86.464,205.867,86.464z M205.867,127.637c-9.083,0-16.469-7.388-16.469-16.469c0-9.081,7.386-16.469,16.469-16.469
			s16.469,7.388,16.469,16.469C222.336,120.249,214.95,127.637,205.867,127.637z"/>
	</g>
</g>
<g>
</g>
<g>
</g>
<g>
</g>
<g>
</g>
<g>
</g>
<g>
</g>
<g>
</g>
<g>
</g>
<g>
</g>
<g>
</g>
<g>
</g>
<g>
</g>
<g>
</g>
<g>
</g>
<g>
</g>
</svg>
