<?xml version="1.0" encoding="iso-8859-1"?>
<!-- Generator: Adobe Illustrator 19.0.0, SVG Export Plug-In . SVG Version: 6.00 Build 0)  -->
<svg version="1.1" id="Layer_1" xmlns="http://www.w3.org/2000/svg" xmlns:xlink="http://www.w3.org/1999/xlink" x="0px" y="0px"
	 viewBox="0 0 218.217 218.217" style="enable-background:new 0 0 218.217 218.217;" xml:space="preserve">
<g>
	<g>
		<g>
			<path d="M109.108,6.176C52.351,6.176,6.176,52.351,6.176,109.108c0,56.757,46.175,102.933,102.933,102.933
				c12.087,0,23.168-1.943,33.825-5.742c4.513,5.974,11.652,9.859,19.7,9.859c13.623,0,24.704-11.081,24.704-24.704
				c0-4.354-1.142-8.443-3.128-11.999c17.95-19.14,27.831-44.011,27.831-70.347C212.041,52.351,165.866,6.176,109.108,6.176z
				 M162.633,207.924c-9.081,0-16.469-7.388-16.469-16.469s7.388-16.469,16.469-16.469s16.469,7.388,16.469,16.469
				S171.714,207.924,162.633,207.924z M178.926,172.933c-4.354-3.835-10.048-6.183-16.293-6.183
				c-13.623,0-24.704,11.081-24.704,24.704c0,2.6,0.409,5.104,1.157,7.46c-9.433,3.224-19.262,4.892-29.978,4.892
				c-52.216,0-94.698-42.482-94.698-94.698S56.892,14.41,109.108,14.41s94.698,42.482,94.698,94.698
				C203.806,132.95,194.94,155.439,178.926,172.933z"/>
			<path d="M164.691,67.935c-1.4,0-2.753,0.186-4.065,0.481c-0.152-0.369-0.3-0.742-0.567-1.066
				c-12.575-15.327-31.147-24.119-50.952-24.119c-36.324,0-65.877,29.553-65.877,65.877c0,36.324,29.553,65.877,65.877,65.877
				c36.324,0,65.878-29.552,65.878-65.877c0-2.871-0.197-4.646-0.548-6.956c5.252-3.274,8.782-9.058,8.782-15.689
				C183.219,76.246,174.908,67.935,164.691,67.935z M109.108,166.751c-31.784,0-57.642-25.858-57.642-57.642
				s25.858-57.642,57.642-57.642c17.087,0,33.101,7.507,44.098,20.573c-4.256,3.398-7.042,8.566-7.042,14.424
				c0,10.217,8.311,18.528,18.528,18.528c0.617,0,1.2-0.123,1.801-0.182c0.167,1.316,0.257,2.518,0.257,4.299
				C166.751,140.893,140.893,166.751,109.108,166.751z M164.692,96.756c-5.675,0-10.293-4.618-10.293-10.293
				c0-5.675,4.618-10.293,10.293-10.293s10.293,4.618,10.293,10.293S170.367,96.756,164.692,96.756z"/>
			<path d="M109.108,76.17c-18.162,0-32.938,14.777-32.938,32.938c0,18.161,14.777,32.938,32.938,32.938
				c18.161,0,32.938-14.777,32.938-32.938C142.046,90.947,127.27,76.17,109.108,76.17z M109.108,133.812
				c-13.623,0-24.704-11.081-24.704-24.704c0-13.623,11.081-24.704,24.704-24.704c13.623,0,24.704,11.081,24.704,24.704
				C133.812,122.731,122.731,133.812,109.108,133.812z"/>
			<path d="M217.011,1.206c-1.608-1.608-4.214-1.608-5.822,0L186.484,25.91c-1.608,1.608-1.608,4.214,0,5.822
				c0.805,0.804,1.858,1.206,2.911,1.206c1.054,0,2.107-0.402,2.911-1.206L217.01,7.028C218.619,5.42,218.619,2.814,217.011,1.206z"
				/>
			<path d="M25.91,186.485L1.206,211.189c-1.608,1.608-1.608,4.214,0,5.822c0.804,0.804,1.857,1.206,2.911,1.206
				s2.107-0.402,2.911-1.206l24.704-24.704c1.608-1.608,1.608-4.214,0-5.822C30.124,184.876,27.518,184.876,25.91,186.485z"/>
		</g>
	</g>
</g>
<g>
</g>
<g>
</g>
<g>
</g>
<g>
</g>
<g>
</g>
<g>
</g>
<g>
</g>
<g>
</g>
<g>
</g>
<g>
</g>
<g>
</g>
<g>
</g>
<g>
</g>
<g>
</g>
<g>
</g>
</svg>
