<?xml version="1.0" encoding="iso-8859-1"?>
<!-- Generator: Adobe Illustrator 19.0.0, SVG Export Plug-In . SVG Version: 6.00 Build 0)  -->
<svg version="1.1" id="Layer_1" xmlns="http://www.w3.org/2000/svg" xmlns:xlink="http://www.w3.org/1999/xlink" x="0px" y="0px"
	 viewBox="0 0 226.452 226.452" style="enable-background:new 0 0 226.452 226.452;" xml:space="preserve">
<g>
	<g>
		<g>
			<path d="M211.38,174l-67.274-59.147V30.852C144.106,13.84,130.254,0,113.226,0s-30.88,13.839-30.88,30.852v84.002L15.072,174
				c-1.287,1.132-1.739,2.941-1.134,4.546c0.603,1.602,2.139,2.664,3.852,2.664h64.556v12.304c0,0.734,0.244,1.387,0.581,1.983
				l-12.498,24.996c-0.637,1.277-0.569,2.792,0.181,4.007c0.75,1.213,2.075,1.952,3.503,1.952h28.821
				c1.427,0,2.752-0.74,3.502-1.952c0.75-1.214,0.818-2.73,0.181-4.007L95.186,197.63h36.083l-11.431,22.862
				c-0.637,1.277-0.569,2.792,0.181,4.007c0.75,1.213,2.075,1.952,3.503,1.952h28.821c1.427,0,2.752-0.74,3.502-1.952
				c0.75-1.214,0.818-2.73,0.181-4.007l-12.498-24.996c0.336-0.596,0.581-1.25,0.581-1.983V181.21h64.556
				c1.713,0,3.249-1.061,3.852-2.664C213.119,176.942,212.666,175.132,211.38,174z M82.347,172.976
				c-0.001-0.001-53.638-0.001-53.638-0.001l53.254-46.82l0.384,27.432V172.976z M96.27,218.217H80.774l7.748-15.498L96.27,218.217z
				 M90.581,189.396v-10.719c0.217-0.517,0.337-1.072,0.33-1.642l-0.33-23.57V30.852c0-12.471,10.158-22.617,22.645-22.617
				s22.645,10.147,22.645,22.617v122.613l-0.33,23.57c-0.007,0.571,0.113,1.126,0.33,1.642v10.719H90.581z M145.678,218.217h-15.496
				l7.748-15.498L145.678,218.217z M144.106,172.974v-19.388l0.384-27.432l53.254,46.82H144.106z"/>
			<path d="M113.226,16.469c-10.217,0-18.528,8.311-18.528,18.528c0,2.125,0.935,6.035,7.197,8.341
				c3.058,1.126,7.083,1.745,11.331,1.745c11.429,0,18.528-3.864,18.528-10.086C131.754,24.78,123.443,16.469,113.226,16.469z
				 M113.226,36.849c-5.743,0-9.411-1.361-10.289-2.169c0.168-5.529,4.72-9.976,10.289-9.976c5.569,0,10.12,4.447,10.289,9.976
				C122.636,35.488,118.969,36.849,113.226,36.849z"/>
		</g>
	</g>
</g>
<g>
</g>
<g>
</g>
<g>
</g>
<g>
</g>
<g>
</g>
<g>
</g>
<g>
</g>
<g>
</g>
<g>
</g>
<g>
</g>
<g>
</g>
<g>
</g>
<g>
</g>
<g>
</g>
<g>
</g>
</svg>
