<?xml version="1.0" encoding="iso-8859-1"?>
<!-- Generator: Adobe Illustrator 19.0.0, SVG Export Plug-In . SVG Version: 6.00 Build 0)  -->
<svg version="1.1" id="Layer_1" xmlns="http://www.w3.org/2000/svg" xmlns:xlink="http://www.w3.org/1999/xlink" x="0px" y="0px"
	 viewBox="0 0 230.57 230.57" style="enable-background:new 0 0 230.57 230.57;" xml:space="preserve">
<g>
	<g>
		<g>
			<path d="M115.285,0C51.715,0,0,51.715,0,115.285S51.715,230.57,115.285,230.57S230.57,178.855,230.57,115.285
				S178.854,0,115.285,0z M115.285,222.334c-59.027,0-107.05-48.021-107.05-107.05S56.257,8.235,115.285,8.235
				c59.028,0,107.05,48.021,107.05,107.05C222.335,174.314,174.312,222.334,115.285,222.334z"/>
			<path d="M115.285,134.347l22.408,11.781l-4.28-24.953l18.128-17.671l-25.052-3.643l-11.204-22.702l-11.204,22.702l-25.052,3.643
				l18.128,17.671l-4.28,24.953L115.285,134.347z M96.72,109.254l12.828-1.866l5.736-11.62l5.736,11.62l12.828,1.866l-9.284,9.051
				l2.191,12.77l-11.471-6.031l-11.471,6.031l2.191-12.77L96.72,109.254z"/>
			<path d="M209.983,113.226c-2.274,0-4.117,1.842-4.117,4.117c0,48.813-39.711,88.522-88.522,88.522
				c-2.274,0-4.117,1.842-4.117,4.117s1.844,4.117,4.117,4.117c53.352,0,96.757-43.405,96.757-96.757
				C214.1,115.068,212.256,113.226,209.983,113.226z"/>
			<path d="M115.285,28.821c2.274,0,4.117-1.842,4.117-4.117c0-2.275-1.844-4.117-4.117-4.117c-52.216,0-94.698,42.48-94.698,94.698
				c0,2.276,1.844,4.117,4.117,4.117c2.273,0,4.117-1.842,4.117-4.117C28.821,67.61,67.608,28.821,115.285,28.821z"/>
			<path d="M141.639,93.045c1.054,0,2.107-0.402,2.911-1.206l37.52-37.518c1.608-1.608,1.608-4.214,0-5.822
				c-1.608-1.609-4.214-1.608-5.822,0l-37.52,37.518c-1.608,1.608-1.608,4.214,0,5.822
				C139.532,92.643,140.585,93.045,141.639,93.045z"/>
			<path d="M80.873,146.341l-33.268,33.268c-1.608,1.608-1.608,4.214,0,5.822c0.804,0.804,1.858,1.206,2.911,1.206
				c1.053,0,2.107-0.402,2.911-1.206l33.268-33.268c1.608-1.608,1.608-4.214,0-5.822C85.086,144.732,82.481,144.733,80.873,146.341z
				"/>
		</g>
	</g>
</g>
<g>
</g>
<g>
</g>
<g>
</g>
<g>
</g>
<g>
</g>
<g>
</g>
<g>
</g>
<g>
</g>
<g>
</g>
<g>
</g>
<g>
</g>
<g>
</g>
<g>
</g>
<g>
</g>
<g>
</g>
</svg>
