<?xml version="1.0" encoding="iso-8859-1"?>
<!-- Generator: Adobe Illustrator 19.0.0, SVG Export Plug-In . SVG Version: 6.00 Build 0)  -->
<svg version="1.1" id="Layer_1" xmlns="http://www.w3.org/2000/svg" xmlns:xlink="http://www.w3.org/1999/xlink" x="0px" y="0px"
	 viewBox="0 0 226.45 226.45" style="enable-background:new 0 0 226.45 226.45;" xml:space="preserve">
<g>
	<g>
		<g>
			<path d="M113.225,82.346c-17.028,0-30.88,13.852-30.88,30.88c0,17.028,13.852,30.88,30.88,30.88s30.88-13.852,30.88-30.88
				C144.105,96.198,130.253,82.346,113.225,82.346z M113.225,135.871c-12.487,0-22.645-10.159-22.645-22.645
				c0-12.486,10.159-22.645,22.645-22.645s22.645,10.159,22.645,22.645C135.87,125.712,125.71,135.871,113.225,135.871z"/>
			<path d="M197.504,136.717c0.009-0.11,0.064-0.205,0.064-0.317V89.718c9.521-2.677,16.529-11.417,16.529-21.783
				c0-12.487-10.159-22.645-22.645-22.645c-6.204,0-11.83,2.511-15.924,6.566c-6.597-3.829-13.682-8.011-20.619-12.109
				c-7.013-4.144-13.812-8.156-19.747-11.594c0.444-1.767,0.706-3.606,0.706-5.509C135.87,10.159,125.71,0,113.225,0
				c-12.486,0-22.645,10.159-22.645,22.645c0,2.062,0.301,4.051,0.82,5.95L50.891,51.83c-4.092-4.039-9.705-6.54-15.894-6.54
				c-12.487,0-22.645,10.159-22.645,22.645c0,10.365,7.008,19.106,16.529,21.783v46.609c0,0.137,0.065,0.252,0.078,0.386
				c-9.56,2.652-16.607,11.409-16.607,21.803c0,12.487,10.159,22.645,22.645,22.645c6.105,0,11.644-2.439,15.721-6.382
				c6.826,3.947,14.233,8.253,21.494,12.475c6.733,3.914,13.266,7.712,19.068,11.069c-0.439,1.759-0.699,3.588-0.699,5.482
				c0,12.487,10.159,22.645,22.645,22.645c12.486,0,22.645-10.159,22.645-22.645c0-2.01-0.289-3.95-0.783-5.807
				c6.684-3.851,14.088-8.096,21.331-12.244c6.901-3.955,13.555-7.769,19.239-11.044c4.084,3.984,9.654,6.451,15.796,6.451
				c12.487,0,22.645-10.159,22.645-22.645C214.099,148.128,207.059,139.373,197.504,136.717z M191.454,53.525
				c7.945,0,14.411,6.465,14.411,14.411c0,7.946-6.465,14.411-14.411,14.411s-14.411-6.465-14.411-14.411
				C177.043,59.99,183.509,53.525,191.454,53.525z M113.225,8.235c7.945,0,14.411,6.465,14.411,14.411s-6.465,14.411-14.411,14.411
				S98.813,30.59,98.813,22.645S105.28,8.235,113.225,8.235z M20.585,67.936c0-7.945,6.465-14.411,14.411-14.411
				c7.946,0,14.411,6.465,14.411,14.411c0,7.946-6.465,14.411-14.411,14.411C27.05,82.347,20.585,75.881,20.585,67.936z
				 M34.996,172.927c-7.945,0-14.411-6.465-14.411-14.411s6.465-14.411,14.411-14.411s14.411,6.465,14.411,14.411
				S42.941,172.927,34.996,172.927z M113.225,218.217c-7.945,0-14.411-6.465-14.411-14.411c0-7.946,6.465-14.411,14.411-14.411
				s14.411,6.465,14.411,14.411C127.636,211.752,121.17,218.217,113.225,218.217z M168.806,158.516c0,3.37,0.76,6.558,2.085,9.435
				c-5.535,3.19-11.936,6.857-18.569,10.659c-7.046,4.037-14.243,8.162-20.785,11.93c-4.119-5.671-10.784-9.379-18.313-9.379
				c-7.645,0-14.404,3.819-18.507,9.638c-5.626-3.256-11.905-6.906-18.368-10.663c-7.028-4.088-14.19-8.251-20.837-12.097
				c1.351-2.9,2.128-6.119,2.128-9.523c0-11.771-9.03-21.465-20.526-22.538V90.473C48.61,89.4,57.641,79.707,57.641,67.935
				c0-3.324-0.738-6.472-2.03-9.319l39.386-22.59c4.126,5.605,10.749,9.264,18.227,9.264c7.636,0,14.386-3.809,18.49-9.616
				c5.758,3.34,12.277,7.188,19.005,11.162c6.756,3.99,13.651,8.059,20.103,11.81c-1.283,2.838-2.015,5.977-2.015,9.289
				c0,11.771,9.03,21.465,20.526,22.538v45.505C177.837,137.051,168.806,146.744,168.806,158.516z M191.454,172.927
				c-7.945,0-14.411-6.465-14.411-14.411s6.465-14.411,14.411-14.411s14.411,6.465,14.411,14.411S199.399,172.927,191.454,172.927z"
				/>
		</g>
	</g>
</g>
<g>
</g>
<g>
</g>
<g>
</g>
<g>
</g>
<g>
</g>
<g>
</g>
<g>
</g>
<g>
</g>
<g>
</g>
<g>
</g>
<g>
</g>
<g>
</g>
<g>
</g>
<g>
</g>
<g>
</g>
</svg>
