<?xml version="1.0" encoding="iso-8859-1"?>
<!-- Generator: Adobe Illustrator 19.0.0, SVG Export Plug-In . SVG Version: 6.00 Build 0)  -->
<svg version="1.1" id="Layer_1" xmlns="http://www.w3.org/2000/svg" xmlns:xlink="http://www.w3.org/1999/xlink" x="0px" y="0px"
	 viewBox="0 0 220.275 220.275" style="enable-background:new 0 0 220.275 220.275;" xml:space="preserve">
<g>
	<g>
		<g>
			<path d="M130.47,67.936c-11.351,0-20.587,9.236-20.587,20.587c0,11.351,9.236,20.587,20.587,20.587s20.587-9.236,20.587-20.587
				C151.057,77.172,141.821,67.936,130.47,67.936z M130.47,100.874c-6.811,0-12.352-5.541-12.352-12.352
				c0-6.811,5.541-12.352,12.352-12.352c6.811,0,12.352,5.541,12.352,12.352C142.822,95.333,137.281,100.874,130.47,100.874z"/>
			<path d="M91.356,125.578c-7.945,0-14.411,6.465-14.411,14.411c0,7.946,6.465,14.411,14.411,14.411
				c7.946,0,14.411-6.465,14.411-14.411C105.767,132.043,99.301,125.578,91.356,125.578z M91.356,146.164
				c-3.405,0-6.176-2.771-6.176-6.176c0-3.405,2.771-6.176,6.176-6.176c3.405,0,6.176,2.771,6.176,6.176
				C97.532,143.394,94.761,146.164,91.356,146.164z"/>
			<path d="M89.297,100.874c0-9.083-7.386-16.469-16.469-16.469s-16.469,7.386-16.469,16.469c0,9.083,7.386,16.469,16.469,16.469
				C81.911,117.343,89.297,109.957,89.297,100.874z M72.828,109.109c-4.539,0-8.235-3.695-8.235-8.235
				c0-4.539,3.695-8.235,8.235-8.235c4.54,0,8.235,3.695,8.235,8.235C81.063,105.413,77.367,109.109,72.828,109.109z"/>
			<path d="M198.912,96.757h-15.403c-2.013-18.104-10.599-34.211-23.279-45.992l30.057-30.061c1.608-1.608,1.608-4.214,0-5.822
				c-1.608-1.608-4.214-1.608-5.822,0l-30.598,30.602C142.586,37.123,128.886,31.913,114,31.089V4.117
				C114,1.841,112.158,0,109.883,0c-2.275,0-4.117,1.842-4.117,4.117v26.971c-16.347,0.905-31.314,7.046-43.162,16.887
				c-0.138-0.199-0.222-0.424-0.4-0.602L50.198,35.367c-1.608-1.608-4.214-1.608-5.822,0c-1.609,1.608-1.608,4.214,0,5.822
				l12.006,12.006c0.109,0.109,0.251,0.151,0.368,0.245C45.595,64.934,38.12,80.001,36.257,96.757H21.362
				c-2.276,0-4.117,1.842-4.117,4.117c0,2.275,1.842,4.117,4.117,4.117h14.411c0,18.952,7.213,36.211,18.96,49.33l-19.088,19.088
				c-1.608,1.608-1.608,4.214,0,5.822c0.804,0.804,1.858,1.206,2.911,1.206s2.107-0.402,2.911-1.206l19.088-19.088
				c12.157,10.885,27.885,17.792,45.213,18.751v37.264c0,2.276,1.842,4.117,4.117,4.117c2.275,0,4.117-1.842,4.117-4.117v-37.264
				c18.427-1.02,35.076-8.739,47.509-20.839c0.166,0.271,0.293,0.56,0.528,0.794l12.006,12.006c0.804,0.804,1.858,1.206,2.911,1.206
				c1.053,0,2.107-0.402,2.911-1.206c1.608-1.608,1.608-4.214,0-5.822l-12.006-12.006c-0.303-0.303-0.667-0.494-1.028-0.683
				c10.705-12.852,17.163-29.359,17.163-47.354h14.917c2.276,0,4.117-1.842,4.117-4.117
				C203.03,98.598,201.188,96.757,198.912,96.757z M109.884,170.868c-36.324,0-65.877-29.553-65.877-65.877
				c0-36.324,29.553-65.877,65.877-65.877s65.877,29.553,65.877,65.877C175.761,141.315,146.208,170.868,109.884,170.868z"/>
		</g>
	</g>
</g>
<g>
</g>
<g>
</g>
<g>
</g>
<g>
</g>
<g>
</g>
<g>
</g>
<g>
</g>
<g>
</g>
<g>
</g>
<g>
</g>
<g>
</g>
<g>
</g>
<g>
</g>
<g>
</g>
<g>
</g>
</svg>
