<?xml version="1.0" encoding="iso-8859-1"?>
<!-- Generator: Adobe Illustrator 19.0.0, SVG Export Plug-In . SVG Version: 6.00 Build 0)  -->
<svg version="1.1" id="Layer_1" xmlns="http://www.w3.org/2000/svg" xmlns:xlink="http://www.w3.org/1999/xlink" x="0px" y="0px"
	 viewBox="0 0 243.526 243.526" style="enable-background:new 0 0 243.526 243.526;" xml:space="preserve">
<g>
	<g>
		<g>
			<path d="M235.467,71.437l-2.14,10.068L152.78,64.383l0.856-4.026c0.471-2.225-0.949-4.411-3.172-4.883L73.948,39.211l0.856-4.027
				c0.225-1.068,0.02-2.183-0.575-3.098c-0.595-0.917-1.528-1.558-2.598-1.785L15.248,18.316c-2.22-0.476-4.411,0.943-4.885,3.17
				L0.089,69.815c-0.225,1.068-0.02,2.183,0.575,3.098c0.595,0.917,1.528,1.558,2.598,1.785l56.384,11.984
				c0.289,0.062,0.575,0.091,0.861,0.091c1.902,0,3.611-1.325,4.025-3.261l0.856-4.029l76.516,16.264
				c0.285,0.06,0.571,0.091,0.856,0.091c0.788,0,1.568-0.227,2.244-0.663c0.913-0.595,1.556-1.53,1.785-2.598l0.856-4.029
				l80.546,17.121l-2.14,10.068l8.058,1.713l9.417-44.299L235.467,71.437z M65.034,41.522l-0.001,0.002l-5.734,26.98l-1.97,9.268
				L9.004,67.501l8.56-40.274L65.89,37.498L65.034,41.522z M143.87,66.698L143.87,66.698l-3.426,16.11v0.002l-0.856,4.027
				L67.099,71.43l5.137-24.166l72.49,15.408L143.87,66.698z M230.759,93.587l-0.856,4.028l-80.545-17.121l1.713-8.056l80.544,17.121
				L230.759,93.587z"/>
			<path d="M136.81,134.515c3.544-3.7,5.753-8.69,5.753-14.206c0-11.351-9.236-20.587-20.587-20.587s-20.587,9.236-20.587,20.587
				c0,5.516,2.209,10.506,5.753,14.206L63.9,217.067H46.69v8.235h22.195l45.065-86.036c1.245,0.529,2.553,0.939,3.909,1.216v82.762
				h8.235v-82.763c1.356-0.276,2.663-0.686,3.909-1.216l45.064,86.037h22.195v-8.235h-17.209L136.81,134.515z M121.976,132.662
				c-6.811,0-12.352-5.541-12.352-12.352c0-6.811,5.541-12.352,12.352-12.352c6.811,0,12.352,5.541,12.352,12.352
				C134.328,127.121,128.787,132.662,121.976,132.662z"/>
		</g>
	</g>
</g>
<g>
</g>
<g>
</g>
<g>
</g>
<g>
</g>
<g>
</g>
<g>
</g>
<g>
</g>
<g>
</g>
<g>
</g>
<g>
</g>
<g>
</g>
<g>
</g>
<g>
</g>
<g>
</g>
<g>
</g>
</svg>
