<?xml version="1.0" encoding="iso-8859-1"?>
<!-- Generator: Adobe Illustrator 19.0.0, SVG Export Plug-In . SVG Version: 6.00 Build 0)  -->
<svg version="1.1" id="Layer_1" xmlns="http://www.w3.org/2000/svg" xmlns:xlink="http://www.w3.org/1999/xlink" x="0px" y="0px"
	 viewBox="0 0 238.804 238.804" style="enable-background:new 0 0 238.804 238.804;" xml:space="preserve">
<g>
	<g>
		<g>
			<path d="M181.162,90.546V70.995c0-24.988-20.299-45.317-45.25-45.317h-33.019c-24.951,0-45.25,20.329-45.25,45.316v18.494
				c-0.031,0.203-0.121,0.385-0.121,0.597v0.494C21.429,99.797,0,116.2,0,134.787c0,26.427,43.988,47.597,102.812,50.981v23.241
				c0,2.274,1.844,4.117,4.117,4.117c2.273,0,4.117-1.844,4.117-4.117v-22.888c2.761,0.079,5.54,0.133,8.355,0.133
				c4.136,0,8.215-0.087,12.231-0.257v23.012c0,2.274,1.844,4.117,4.117,4.117c2.274,0,4.117-1.844,4.117-4.117v-23.492
				c56.87-4.072,98.938-24.887,98.938-50.73C238.804,116.179,217.329,99.758,181.162,90.546z M119.402,178.019
				c-66.498,0-111.167-22.354-111.167-43.232c0-13.837,19.175-27.584,49.287-35.682v15.206c0,2.274,1.844,4.117,4.117,4.117
				c2.273,0,4.117-1.844,4.117-4.117V94.479c0.042-0.236,0.121-0.46,0.121-0.706V70.995c0-20.448,16.606-37.082,37.015-37.082
				h33.019c20.41,0,37.016,16.634,37.016,37.082v18.494c-0.031,0.203-0.121,0.385-0.121,0.597v24.225
				c0,2.274,1.844,4.117,4.117,4.117c2.274,0,4.117-1.844,4.117-4.117V99.044c30.249,8.089,49.528,21.869,49.528,35.743
				C230.569,155.665,185.9,178.019,119.402,178.019z"/>
			<path d="M156.458,66.852H82.346c-2.274,0-4.117,1.844-4.117,4.117v24.7c0,13.625,11.063,24.708,24.663,24.708h33.019
				c13.601,0,24.664-11.083,24.664-24.708v-24.7C160.575,68.696,158.731,66.852,156.458,66.852z M113.93,112.142h-11.037
				c-9.059,0-16.429-7.39-16.429-16.473V75.086h32.937c-9.08,0.001-16.468,7.388-16.468,16.469c0,7.153,4.612,13.194,10.997,15.463
				V112.142z M111.167,91.555c0-4.542,3.693-8.235,8.235-8.235c4.542,0,8.235,3.693,8.235,8.235s-3.694,8.235-8.235,8.235
				C114.861,99.79,111.167,96.097,111.167,91.555z M135.911,112.142h-13.747v-4.397c7.764-1.323,13.707-8.055,13.707-16.19
				c0-9.081-7.387-16.468-16.468-16.469h32.937v20.583h0C152.34,104.752,144.97,112.142,135.911,112.142z"/>
		</g>
	</g>
</g>
<g>
</g>
<g>
</g>
<g>
</g>
<g>
</g>
<g>
</g>
<g>
</g>
<g>
</g>
<g>
</g>
<g>
</g>
<g>
</g>
<g>
</g>
<g>
</g>
<g>
</g>
<g>
</g>
<g>
</g>
</svg>
