<?xml version="1.0" encoding="iso-8859-1"?>
<!-- Generator: Adobe Illustrator 19.0.0, SVG Export Plug-In . SVG Version: 6.00 Build 0)  -->
<svg version="1.1" id="Layer_1" xmlns="http://www.w3.org/2000/svg" xmlns:xlink="http://www.w3.org/1999/xlink" x="0px" y="0px"
	 viewBox="0 0 228.129 228.129" style="enable-background:new 0 0 228.129 228.129;" xml:space="preserve">
<g>
	<g>
		<g>
			<path d="M227.551,204.651L117.477,19.272c-0.74-1.249-2.087-2.015-3.538-2.015c0,0,0,0-0.004,0c-1.451,0-2.799,0.768-3.538,2.018
				L0.576,204.655c-0.756,1.273-0.768,2.853-0.036,4.137s2.099,2.079,3.578,2.079h219.894c1.48,0,2.847-0.794,3.578-2.081
				C228.322,207.504,228.307,205.924,227.551,204.651z M11.344,202.637l102.599-173.19l102.836,173.19H11.344z"/>
			<path d="M110.376,57.713L34.833,188.154c-0.74,1.273-0.74,2.843-0.004,4.119c0.736,1.275,2.095,2.061,3.566,2.061h151.086
				c1.472,0,2.831-0.786,3.566-2.061c0.736-1.277,0.736-2.847-0.004-4.119L117.501,57.713
				C116.029,55.167,111.848,55.167,110.376,57.713z M182.341,186.099H45.537l68.402-118.107L182.341,186.099z"/>
			<path d="M94.418,138.876c0.736,1.277,2.099,2.065,3.571,2.065h27.603l-19.183,29.818c-1.23,1.912-0.679,4.459,1.234,5.689
				c0.688,0.444,1.46,0.655,2.223,0.655c1.355,0,2.678-0.667,3.466-1.89l23.269-36.163c0.816-1.266,0.872-2.877,0.153-4.2
				c-0.724-1.323-2.107-2.145-3.615-2.145h-27.993l13.916-23.918c1.142-1.966,0.478-4.485-1.488-5.629
				c-1.967-1.146-4.488-0.476-5.629,1.49L94.43,134.753C93.69,136.028,93.686,137.6,94.418,138.876z"/>
		</g>
	</g>
</g>
<g>
</g>
<g>
</g>
<g>
</g>
<g>
</g>
<g>
</g>
<g>
</g>
<g>
</g>
<g>
</g>
<g>
</g>
<g>
</g>
<g>
</g>
<g>
</g>
<g>
</g>
<g>
</g>
<g>
</g>
</svg>
