<?xml version="1.0" encoding="iso-8859-1"?>
<!-- Generator: Adobe Illustrator 19.0.0, SVG Export Plug-In . SVG Version: 6.00 Build 0)  -->
<svg xmlns="http://www.w3.org/2000/svg" xmlns:xlink="http://www.w3.org/1999/xlink" version="1.1" id="Layer_1" x="0px" y="0px" viewBox="0 0 512.002 512.002" style="enable-background:new 0 0 512.002 512.002;" xml:space="preserve">
<g>
	<g>
		<path d="M386.746,0.021c-0.567-0.015-1.133-0.02-1.698-0.021H58.302C29.14,0.001,5.389,23.616,5.166,52.728    c-0.001,0.059-0.001,0.119-0.001,0.179V474.54c0,20.657,16.806,37.462,37.462,37.462h272.031    c20.657,0,37.462-16.806,37.462-37.462V162.061h61.522c13.649,0,24.754-11.104,24.754-24.753V54.036    C438.397,25.033,415.226,0.803,386.746,0.021z M332.122,52.73c-0.001,0.059-0.001,0.118-0.001,0.177V474.54    c0,9.628-7.833,17.462-17.462,17.462H42.627c-9.628,0-17.462-7.833-17.462-17.462V53.139c0-18.273,14.865-33.137,33.136-33.137    h285.404C336.278,29.271,332.212,40.662,332.122,52.73z M418.396,137.31c0,2.62-2.132,4.752-4.752,4.752h-61.522V53.139    c0-9.023,3.563-17.46,10.032-23.754c6.221-6.053,14.361-9.362,23.02-9.383h0.085c0.32,0,0.625,0.005,0.938,0.013    c17.755,0.487,32.199,15.75,32.199,34.022V137.31z"/>
	</g>
</g>
<g>
	<g>
		<path d="M137.709,58.586c-43.597,0-79.067,35.468-79.067,79.066s35.469,79.068,79.067,79.068s79.067-35.469,79.067-79.067    C216.775,94.055,181.306,58.586,137.709,58.586z M137.709,196.718c-32.569,0-59.066-26.497-59.066-59.066    s26.497-59.066,59.066-59.066s59.066,26.497,59.066,59.066S170.278,196.718,137.709,196.718z"/>
	</g>
</g>
<g>
	<g>
		<path d="M137.709,151.553c-7.665,0-13.9-6.235-13.9-13.9c0-7.665,6.236-13.901,13.9-13.901c5.523,0,10-4.478,10-10    c0-5.522-4.477-10-10-10c-18.694,0-33.901,15.209-33.901,33.901c0,18.693,15.208,33.901,33.901,33.901c5.523,0,10-4.478,10-10    C147.709,156.031,143.232,151.553,137.709,151.553z"/>
	</g>
</g>
<g>
	<g>
		<path d="M280.526,255.618H68.642c-5.523,0-10,4.478-10,10c0,5.522,4.477,10,10,10h211.884c5.523,0,10-4.478,10-10    C290.527,260.096,286.049,255.618,280.526,255.618z"/>
	</g>
</g>
<g>
	<g>
		<path d="M280.526,298.02H68.642c-5.523,0-10,4.478-10,10c0,5.522,4.477,10,10,10h211.884c5.523,0,10-4.478,10-10    C290.527,302.498,286.049,298.02,280.526,298.02z"/>
	</g>
</g>
<g>
	<g>
		<path d="M178.643,342.788H68.642c-5.523,0-10,4.478-10,10c0,5.522,4.477,10,10,10h110.001c5.523,0,10-4.478,10-10    C188.643,347.267,184.166,342.788,178.643,342.788z"/>
	</g>
</g>
<g>
	<g>
		<path d="M478.78,366.042v-30.063l16.888-33.044c1.445-2.829,1.461-6.177,0.042-9.02l-44.003-88.102    c-1.693-3.39-5.157-5.531-8.946-5.531c-0.005,0-0.012,0-0.017,0c-3.795,0.007-7.26,2.161-8.944,5.563l-44.005,88.866    c-1.418,2.864-1.382,6.234,0.098,9.067l16.862,32.277v29.986c-16.027,3.524-28.059,17.829-28.059,34.897    c0,0.331,0.017,0.661,0.049,0.99l10.06,101.062c0.509,5.114,4.812,9.01,9.951,9.01h88.007c5.139,0,9.441-3.895,9.951-9.008    l10.075-101.062c0.033-0.33,0.049-0.661,0.049-0.992C506.838,383.871,494.805,369.566,478.78,366.042z M432.757,253.014v41.777    c0,5.522,4.477,10,10,10s10-4.478,10-10v-42.107l22.8,45.648l-12.906,25.254h-39.848l-12.829-24.559L432.757,253.014z     M458.778,343.586v21.616h-32.025v-21.616H458.778z M477.709,492H407.81l-9.108-91.498c0.232-8.476,7.199-15.3,15.729-15.3h2.323    h52.026h2.322c8.53,0,15.497,6.823,15.729,15.299L477.709,492z"/>
	</g>
</g>
<g>
	<g>
		<path d="M180.469,442.313c-2.656-4.843-8.734-6.612-13.576-3.958c-2.187,1.198-4.917,0.9-6.793-0.743    c-7.12-6.241-17.072-8.11-25.973-4.88l-16.908,6.14c-1.152,0.276-2.332-0.132-3.262-1.134l-2.219-2.394    c-6.244-6.734-15.469-9.255-24.073-6.576l-19.746,6.142c-5.273,1.641-8.219,7.245-6.579,12.519    c1.64,5.274,7.242,8.218,12.519,6.579l19.747-6.142c1.215-0.381,2.48,0.014,3.466,1.077l2.219,2.394    c6.185,6.669,15.334,9.214,23.878,6.636c0.177-0.054,0.353-0.111,0.526-0.175l17.257-6.267c2.045-0.741,4.328-0.313,5.963,1.121    c4.832,4.234,10.963,6.421,17.139,6.421c4.27,0,8.562-1.046,12.457-3.183C181.353,453.234,183.125,447.156,180.469,442.313z"/>
	</g>
</g>
<g>
	<g>
		<circle cx="200.208" cy="445.566" r="10"/>
	</g>
</g>
<g>
</g>
<g>
</g>
<g>
</g>
<g>
</g>
<g>
</g>
<g>
</g>
<g>
</g>
<g>
</g>
<g>
</g>
<g>
</g>
<g>
</g>
<g>
</g>
<g>
</g>
<g>
</g>
<g>
</g>
</svg>
