<?xml version="1.0" encoding="iso-8859-1"?>
<!-- Generator: Adobe Illustrator 19.0.0, SVG Export Plug-In . SVG Version: 6.00 Build 0)  -->
<svg xmlns="http://www.w3.org/2000/svg" xmlns:xlink="http://www.w3.org/1999/xlink" version="1.1" id="Layer_1" x="0px" y="0px" viewBox="0 0 512.001 512.001" style="enable-background:new 0 0 512.001 512.001;" xml:space="preserve">
<g>
	<g>
		<circle cx="147.609" cy="21.851" r="10"/>
	</g>
</g>
<g>
	<g>
		<circle cx="414.1" cy="193.24" r="10"/>
	</g>
</g>
<g>
	<g>
		<circle cx="216.14" cy="190.82" r="10"/>
	</g>
</g>
<g>
	<g>
		<path d="M511.148,189.194c-1.601-3.622-5.188-5.958-9.147-5.958H456.57c-5.522,0-10,4.477-10,10c0,5.523,4.478,10,10,10h22.797    l-59.573,65.411c-2.629,2.887-3.338,7.041-1.813,10.636l28.926,68.242H228.94l15.509-62.145h106.119    c4.611,0,8.625-3.153,9.716-7.635l39.995-164.289c0.727-2.981,0.043-6.131-1.853-8.543c-1.896-2.413-4.795-3.822-7.863-3.822    H157.422l3.781-15.532c2.133-8.759,0.453-17.478-4.609-23.921c-4.935-6.281-12.707-9.883-21.325-9.883    c-16.429,0-32.405,12.771-36.373,29.073l-6.711,27.569c-0.031,0.11-0.068,0.217-0.095,0.329l-39.98,164.289L0.286,485.889    c-1.236,5.078,1.646,10.252,6.616,11.873c4.902,1.598,9.99,2.388,15.067,2.388c8.234,0,16.436-2.078,23.741-6.149    c11.809-6.581,20.415-17.889,23.612-31.024l43.235-177.597h111.279l-17.4,69.723c-0.746,2.987-0.074,6.151,1.821,8.577    c1.896,2.427,4.802,3.845,7.881,3.845h245.868c3.354,0,6.485-1.682,8.338-4.479c1.852-2.797,2.179-6.336,0.869-9.424    l-32.318-76.246l70.5-77.407C512.06,197.041,512.747,192.816,511.148,189.194z M118.328,85.559    c1.79-7.353,9.707-13.803,16.941-13.803c1.752,0,4.145,0.389,5.6,2.24c1.264,1.608,1.584,4.035,0.903,6.833l-4.933,20.263h-22.292    L118.328,85.559z M49.89,458.246c-1.912,7.855-6.854,14.349-13.917,18.284c-4.292,2.393-8.977,3.621-13.716,3.655L69.682,285.38    h22.292L49.89,458.246z M74.551,265.38l15.716-64.556h83.738c5.522,0,10-4.477,10-10c0-5.523-4.478-10-10-10h-78.87l14.542-59.733    h268.16L342.711,265.38H74.551z"/>
	</g>
</g>
<g>
</g>
<g>
</g>
<g>
</g>
<g>
</g>
<g>
</g>
<g>
</g>
<g>
</g>
<g>
</g>
<g>
</g>
<g>
</g>
<g>
</g>
<g>
</g>
<g>
</g>
<g>
</g>
<g>
</g>
</svg>
