<?xml version="1.0" encoding="iso-8859-1"?>
<!-- Generator: Adobe Illustrator 19.0.0, SVG Export Plug-In . SVG Version: 6.00 Build 0)  -->
<svg xmlns="http://www.w3.org/2000/svg" xmlns:xlink="http://www.w3.org/1999/xlink" version="1.1" id="Layer_1" x="0px" y="0px" viewBox="0 0 512 512" style="enable-background:new 0 0 512 512;" xml:space="preserve">
<g>
	<g>
		<circle cx="254.4" cy="237.32" r="10"/>
	</g>
</g>
<g>
	<g>
		<circle cx="172.07" cy="55.21" r="10"/>
	</g>
</g>
<g>
	<g>
		<circle cx="254.4" cy="290.4" r="10"/>
	</g>
</g>
<g>
	<g>
		<circle cx="254.4" cy="343.47" r="10"/>
	</g>
</g>
<g>
	<g>
		<path d="M341.92,254.731c34.292-22.056,54.765-59.534,54.765-100.256V64.863c25.227-2.897,44.887-24.371,44.887-50.36V10    c0-5.522-4.478-10-10-10H80.429c-5.522,0-10,4.478-10,10v4.503c0,26.1,19.826,47.651,45.207,50.401v89.572    c0,40.722,20.473,78.2,54.765,100.257c0.466,0.3,0.702,0.726,0.702,1.268c0,0.542-0.236,0.968-0.702,1.269    c-34.292,22.056-54.765,59.534-54.765,100.256v89.272c-24.94,0.077-45.207,20.386-45.207,45.344V502c0,5.522,4.478,10,10,10    h351.143c5.522,0,10-4.478,10-10v-9.859c0-24.85-20.094-45.087-44.887-45.336v-89.28c0-40.722-20.473-78.2-54.765-100.257    c-0.466-0.3-0.702-0.726-0.702-1.268S341.454,255.032,341.92,254.731z M396.224,466.793c13.929,0,25.271,11.295,25.347,25.207    H90.429c0.076-13.912,11.418-25.207,25.348-25.207h9.839c0.01,0,0.019,0.002,0.028,0.002c0.011,0,0.023-0.002,0.034-0.002h261.007    H396.224z M168.265,446.793l87.888-43.633l87.673,43.633H168.265z M331.102,274.089c28.543,18.358,45.583,49.549,45.583,83.436    v83.282l-116.069-57.766c-2.803-1.396-6.099-1.396-8.901-0.005l-116.078,57.628v-83.14c0-33.887,17.04-65.077,45.583-83.435    c6.189-3.98,9.884-10.743,9.884-18.09s-3.694-14.109-9.884-18.089c-28.543-18.358-45.583-49.549-45.583-83.436V56.94    c0.099-0.564,0.16-1.141,0.16-1.733c0-5.522-4.478-10-10-10h-4.663c-15.055,0-27.613-10.89-30.211-25.207h330.156    c-2.598,14.317-15.156,25.207-30.212,25.207h-172.63c-5.522,0-10,4.478-10,10c0,5.522,4.478,10,10,10h158.447v89.269    c0,33.887-17.04,65.077-45.583,83.435c-6.189,3.98-9.884,10.743-9.884,18.09C321.217,263.348,324.911,270.109,331.102,274.089z"/>
	</g>
</g>
<g>
	<g>
		<path d="M338.63,159.11h-60.178c-11.712,0-18.942,4.568-23.031,8.58c-5.659-5.049-13.826-8.58-25.07-8.58h-60.177    c-5.522,0-10,4.478-10,10c0,5.522,4.478,10,10,10h60.177c13.767,0,15.557,8.457,15.683,12.13c0,0.049,0.001,0.092,0.002,0.127    c0.133,5.433,4.576,9.756,9.995,9.756c0.041,0,0.083,0,0.124-0.001c5.475-0.066,9.878-4.523,9.878-9.999c0-0.07,0-0.14-0.001-0.21    c0.021-4.447,1.683-11.803,12.421-11.803h60.178c5.521,0,9.999-4.477,9.999-10C348.63,163.588,344.152,159.11,338.63,159.11z"/>
	</g>
</g>
<g>
</g>
<g>
</g>
<g>
</g>
<g>
</g>
<g>
</g>
<g>
</g>
<g>
</g>
<g>
</g>
<g>
</g>
<g>
</g>
<g>
</g>
<g>
</g>
<g>
</g>
<g>
</g>
<g>
</g>
</svg>
