<?xml version="1.0" encoding="iso-8859-1"?>
<!-- Generator: Adobe Illustrator 19.0.0, SVG Export Plug-In . SVG Version: 6.00 Build 0)  -->
<svg xmlns="http://www.w3.org/2000/svg" xmlns:xlink="http://www.w3.org/1999/xlink" version="1.1" id="Layer_1" x="0px" y="0px" viewBox="0 0 511.999 511.999" style="enable-background:new 0 0 511.999 511.999;" xml:space="preserve">
<g>
	<g>
		<path d="M309.618,96.455c-19.229-18.964-44.714-29.208-71.73-28.824c-26.001,0.362-50.549,10.737-69.122,29.213    c-18.574,18.478-29.075,42.971-29.568,68.969c-0.549,28.923,11.418,56.66,32.834,76.098c8.175,7.419,12.863,18.059,12.863,29.19    v13.297c0,8.577,4.053,16.221,10.338,21.133v30.505c0,13.899,11.306,25.204,25.203,25.204h37.75    c13.897,0,25.203-11.306,25.203-25.203v-30.505c6.285-4.912,10.338-12.556,10.338-21.133v-13.297    c0-11.1,4.744-21.79,13.016-29.329c20.782-18.94,32.701-45.919,32.701-74.019C339.444,140.744,328.852,115.422,309.618,96.455z     M258.186,341.24h-37.75c-2.869,0-5.203-2.334-5.203-5.203v-24.822h48.155v24.822h0.001    C263.389,338.906,261.055,341.24,258.186,341.24z M293.271,226.992c-12.421,11.32-19.544,27.397-19.544,44.111V284.4    c0,3.758-3.057,6.815-6.814,6.815h-55.204c-3.757,0-6.814-3.058-6.814-6.815v-13.297c0-16.76-7.079-32.797-19.422-44    c-17.141-15.558-26.719-37.758-26.28-60.909c0.811-42.725,36.237-77.968,78.972-78.563c0.386-0.005,0.767-0.008,1.152-0.008    c21.202,0,41.143,8.168,56.257,23.074c15.392,15.179,23.869,35.443,23.869,57.059    C319.443,190.242,309.903,211.833,293.271,226.992z"/>
	</g>
</g>
<g>
	<g>
		<path d="M437.431,263.396l-31.065-56.746v-38.896C406.366,75.254,331.112,0,238.612,0S70.859,75.254,70.859,167.754v28.807    c0,35.785,10.757,70.015,31.144,99.213v82.576c0,5.522,4.477,10,10,10c5.523,0,10-4.478,10-10v-85.772    c0-2.111-0.668-4.168-1.909-5.876c-19.125-26.335-29.235-57.505-29.235-90.141v-28.807C90.858,86.282,157.141,20,238.612,20    s147.754,66.282,147.754,147.754v41.455c0,1.678,0.422,3.33,1.229,4.802L419.888,273c2.44,4.457,0.688,8.321-0.178,9.775    c-0.863,1.45-3.412,4.812-8.459,4.812c-0.017,0-0.035,0-0.052,0l-14.787-0.067c-2.702-0.022-5.216,1.036-7.101,2.913    c-1.885,1.876-2.945,4.427-2.945,7.087v44.629c0,23.848-19.402,43.25-43.25,43.25h-30.021c-13.624,0-24.708,11.084-24.708,24.709    v76.435L152.446,425.44c-5.039-2.267-10.957-0.016-13.221,5.021s-0.016,10.956,5.021,13.221l150.041,67.438    c1.309,0.588,2.707,0.879,4.099,0.879c1.899,0,3.789-0.541,5.432-1.604c2.849-1.843,4.568-5.004,4.568-8.396v-91.893    c0-2.597,2.112-4.709,4.708-4.709h30.021c34.876,0,63.25-28.374,63.25-63.25v-34.583l4.741,0.021c0.048,0,0.095,0,0.143,0    c10.623,0,20.201-5.44,25.643-14.575C442.358,283.836,442.56,272.765,437.431,263.396z"/>
	</g>
</g>
<g>
	<g>
		<circle cx="112.909" cy="417.49" r="10"/>
	</g>
</g>
<g>
</g>
<g>
</g>
<g>
</g>
<g>
</g>
<g>
</g>
<g>
</g>
<g>
</g>
<g>
</g>
<g>
</g>
<g>
</g>
<g>
</g>
<g>
</g>
<g>
</g>
<g>
</g>
<g>
</g>
</svg>
