<?xml version="1.0" encoding="iso-8859-1"?>
<!-- Generator: Adobe Illustrator 19.0.0, SVG Export Plug-In . SVG Version: 6.00 Build 0)  -->
<svg xmlns="http://www.w3.org/2000/svg" xmlns:xlink="http://www.w3.org/1999/xlink" version="1.1" id="Layer_1" x="0px" y="0px" viewBox="0 0 512 512" style="enable-background:new 0 0 512 512;" xml:space="preserve">
<g>
	<g>
		<path d="M496.732,150.921l-70.726-80.126c-1.898-2.151-4.628-3.383-7.497-3.383H144.863V34.423    C144.863,15.442,129.421,0,110.441,0C91.46,0,76.018,15.442,76.018,34.423v42.989v204.522v152.627H54.874    c-12.387,0-22.464,10.077-22.464,22.464V492H14.417c-5.523,0-10,4.478-10,10c0,5.522,4.477,10,10,10H205.14    c5.523,0,10-4.478,10-10c0-5.522-4.477-10-10-10h-16.763v-34.975c0-12.387-10.077-22.464-22.464-22.464h-21.049v-71.29    c0-5.522-4.477-10-10-10s-10,4.478-10,10v71.29H96.018V291.935h322.491c2.869,0,5.599-1.231,7.497-3.383l70.726-80.126    C511.201,192.034,511.201,167.312,496.732,150.921z M134.863,454.561v0.001h31.049c1.358,0,2.464,1.105,2.464,2.464V492H52.41    v-34.975c0-1.358,1.105-2.464,2.464-2.464h31.145H134.863z M96.018,34.423c0-7.953,6.47-14.423,14.423-14.423    s14.422,6.47,14.422,14.423v32.989H96.018V34.423z M481.737,195.191l-67.74,76.743H96.018V87.412h38.826    c0.007,0,0.013,0.001,0.019,0.001c0.006,0,0.013-0.001,0.019-0.001h279.114l67.74,76.744    C489.546,173.002,489.546,186.344,481.737,195.191z"/>
	</g>
</g>
<g>
	<g>
		<path d="M134.863,115.021c-5.523,0-10,4.478-10,10v112.852c0,5.522,4.477,10,10,10c5.523,0,10-4.478,10-10V125.021    C144.863,119.499,140.386,115.021,134.863,115.021z"/>
	</g>
</g>
<g>
	<g>
		<path d="M374.122,131.528h-32.27c-10.392,0-18.847,8.454-18.847,18.847v65.31c0,10.392,8.455,18.846,18.846,18.846h32.27    c10.392,0,18.847-8.454,18.847-18.847v-65.309C392.968,139.982,384.514,131.528,374.122,131.528z M372.968,214.53h-29.962v-63.002    h29.962V214.53z"/>
	</g>
</g>
<g>
	<g>
		<path d="M286.554,131.528h-32.27c-10.392,0-18.847,8.454-18.847,18.847v9.688v31.428v30.427c0,5.522,4.477,10,10,10    c5.523,0,10-4.478,10-10v-20.427h31.116c10.392,0,18.846-8.454,18.846-18.847v-32.27    C305.4,139.982,296.945,131.528,286.554,131.528z M285.4,181.491h-29.962v-21.428v-8.535H285.4V181.491z"/>
	</g>
</g>
<g>
	<g>
		<path d="M205.011,131.528c-5.523,0-10,4.478-10,10v83.002c0,5.522,4.477,10,10,10c5.523,0,10-4.478,10-10v-83.002    C215.011,136.006,210.534,131.528,205.011,131.528z"/>
	</g>
</g>
<g>
	<g>
		<circle cx="133.59" cy="321.08" r="10"/>
	</g>
</g>
<g>
</g>
<g>
</g>
<g>
</g>
<g>
</g>
<g>
</g>
<g>
</g>
<g>
</g>
<g>
</g>
<g>
</g>
<g>
</g>
<g>
</g>
<g>
</g>
<g>
</g>
<g>
</g>
<g>
</g>
</svg>
