<?xml version="1.0" encoding="iso-8859-1"?>
<!-- Generator: Adobe Illustrator 19.0.0, SVG Export Plug-In . SVG Version: 6.00 Build 0)  -->
<svg xmlns="http://www.w3.org/2000/svg" xmlns:xlink="http://www.w3.org/1999/xlink" version="1.1" id="Layer_1" x="0px" y="0px" viewBox="0 0 511.999 511.999" style="enable-background:new 0 0 511.999 511.999;" xml:space="preserve">
<g>
	<g>
		<path d="M436.275,39.807H304.797C300.155,17.119,280.039,0,256,0s-44.156,17.119-48.798,39.807H75.725    c-14.771,0-26.789,12.018-26.789,26.789V351.16c0,14.771,12.017,26.789,26.789,26.789H200.63l-40.566,120.866    c-1.757,5.235,1.063,10.904,6.299,12.662c1.055,0.354,2.128,0.522,3.183,0.522c4.179,0,8.076-2.641,9.479-6.821l42.702-127.229    h68.546l42.702,127.229c1.403,4.181,5.3,6.821,9.479,6.821c1.055,0,2.128-0.169,3.183-0.522c5.236-1.758,8.056-7.427,6.299-12.662    l-40.566-120.866h124.905c14.771,0,26.789-12.018,26.789-26.789V66.596C463.063,51.824,451.046,39.807,436.275,39.807z M256,20    c12.93,0,23.963,8.274,28.082,19.807h-56.163C232.038,28.274,243.071,20,256,20z M443.063,351.16c0,3.743-3.045,6.789-6.789,6.789    h-26.121v-142.56c0-5.522-4.477-10-10-10c-5.523,0-10,4.478-10,10V357.95H359.39V245.979c0-5.522-4.477-10-10-10    c-5.523,0-10,4.478-10,10v111.97h-28.084v-79.255c0-5.522-4.477-10-10-10c-5.523,0-10,4.478-10,10v79.255h-25.308V253.277    c0-5.522-4.477-10-10-10c-5.523,0-10,4.478-10,10v104.672h-29.037v-55.023c0-5.522-4.477-10-10-10c-5.523,0-10,4.478-10,10v55.023    h-23.221v-50.985c0-5.522-4.477-10-10-10s-10,4.478-10,10v50.985h-26.777v-39.337c0-5.522-4.477-10-10-10s-10,4.478-10,10v39.337    h-31.24c-3.743,0-6.789-3.046-6.789-6.789V66.596c0-3.743,3.045-6.789,6.789-6.789h140.468h79.614h140.468    c3.743,0,6.789,3.046,6.789,6.789V351.16z"/>
	</g>
</g>
<g>
	<g>
		<path d="M410.105,106.884c-0.013-0.137-0.039-0.269-0.058-0.404c-0.026-0.188-0.049-0.377-0.086-0.564    c-0.031-0.158-0.075-0.312-0.114-0.467c-0.04-0.161-0.076-0.323-0.124-0.482c-0.046-0.153-0.104-0.301-0.158-0.451    c-0.056-0.158-0.109-0.317-0.173-0.473c-0.058-0.139-0.125-0.272-0.189-0.407c-0.075-0.161-0.147-0.323-0.231-0.48    c-0.068-0.127-0.146-0.249-0.22-0.373c-0.093-0.156-0.181-0.314-0.283-0.466c-0.089-0.134-0.19-0.259-0.285-0.388    c-0.098-0.133-0.191-0.268-0.297-0.397c-0.179-0.218-0.37-0.425-0.567-0.627c-0.033-0.033-0.06-0.07-0.093-0.103    c-0.032-0.032-0.068-0.059-0.1-0.09c-0.203-0.198-0.412-0.39-0.631-0.57c-0.122-0.1-0.25-0.188-0.376-0.281    c-0.136-0.102-0.269-0.207-0.41-0.302c-0.144-0.096-0.293-0.179-0.44-0.267c-0.133-0.08-0.264-0.163-0.401-0.237    c-0.146-0.078-0.296-0.144-0.445-0.214c-0.147-0.07-0.292-0.143-0.444-0.206c-0.141-0.058-0.285-0.105-0.427-0.156    c-0.166-0.06-0.329-0.123-0.499-0.174c-0.139-0.042-0.279-0.072-0.419-0.108c-0.176-0.045-0.35-0.094-0.53-0.129    c-0.156-0.031-0.314-0.049-0.471-0.072c-0.166-0.025-0.329-0.055-0.497-0.072c-0.267-0.026-0.535-0.036-0.804-0.041    c-0.06-0.001-0.118-0.009-0.178-0.009h-43.197c-5.523,0-10,4.478-10,10s4.477,10,10,10h19.054l-83.028,83.028l-21.797-21.798    c-1.875-1.875-4.419-2.929-7.071-2.929s-5.196,1.054-7.071,2.929l-72.161,72.162l-21.543-21.543    c-3.905-3.904-10.237-3.904-14.142,0l-36.492,36.492c-3.905,3.905-3.905,10.237,0,14.143c1.953,1.952,4.512,2.929,7.071,2.929    c2.559,0,5.119-0.977,7.071-2.929l29.42-29.421l21.543,21.542c3.905,3.904,10.237,3.904,14.142,0l72.161-72.161l21.797,21.798    c1.875,1.875,4.419,2.929,7.071,2.929s5.196-1.054,7.071-2.929l90.099-90.099v19.054c0,5.522,4.477,10,10,10    c5.523,0,10-4.478,10-10v-43.191C410.155,107.546,410.138,107.214,410.105,106.884z"/>
	</g>
</g>
<g>
	<g>
		<circle cx="119.779" cy="107.869" r="10"/>
	</g>
</g>
<g>
	<g>
		<circle cx="119.779" cy="148.639" r="10"/>
	</g>
</g>
<g>
	<g>
		<circle cx="119.779" cy="189.409" r="10"/>
	</g>
</g>
<g>
</g>
<g>
</g>
<g>
</g>
<g>
</g>
<g>
</g>
<g>
</g>
<g>
</g>
<g>
</g>
<g>
</g>
<g>
</g>
<g>
</g>
<g>
</g>
<g>
</g>
<g>
</g>
<g>
</g>
</svg>
