<?xml version="1.0" encoding="iso-8859-1"?>
<!-- Generator: Adobe Illustrator 19.0.0, SVG Export Plug-In . SVG Version: 6.00 Build 0)  -->
<svg xmlns="http://www.w3.org/2000/svg" xmlns:xlink="http://www.w3.org/1999/xlink" version="1.1" id="Layer_1" x="0px" y="0px" viewBox="0 0 512 512" style="enable-background:new 0 0 512 512;" xml:space="preserve">
<g>
	<g>
		<path d="M502,60.76h-55.958c-2.391-26.506-24.733-47.348-51.853-47.348c-27.118,0-49.46,20.842-51.851,47.348H230.634v-8.697    C230.634,23.355,207.278,0,178.57,0c-28.707,0-52.063,23.355-52.063,52.063v8.697H70.76c-5.522,0-10,4.477-10,10v55.747h-8.696    C23.355,126.507,0,149.862,0,178.57s23.355,52.063,52.063,52.063h8.696v54.747c0,0.169,0,0.831,0,1v62.699c0,5.523,4.478,10,10,10    h22.012c19.36,0,35.111,15.751,35.111,35.111s-15.751,35.111-35.111,35.111H70.76c-5.522,0-10,4.477-10,10V502    c0,5.523,4.478,10,10,10H502c5.522,0,10-4.477,10-10V70.76C512,65.237,507.522,60.76,502,60.76z M70.76,210.633H52.063    C34.384,210.633,20,196.25,20,178.57s14.384-32.063,32.063-32.063H70.76c5.522,0,10-4.477,10-10V80.76h55.748    c5.522,0,10-4.477,10-10V52.063c0-17.68,14.383-32.063,32.063-32.063c17.68,0,32.063,14.383,32.063,32.063V70.76    c0,5.523,4.478,10,10,10h55.746v55.747c0,5.523,4.478,10,10,10h18.696c17.68,0,32.063,14.383,32.063,32.063    s-14.384,32.063-32.063,32.063H286.38c-5.522,0-10,4.477-10,10v55.747h-93.659v-53.93c0-5.523-4.478-10-10-10    c-5.522,0-10,4.477-10,10v53.93H80.76v-55.747C80.76,215.11,76.282,210.633,70.76,210.633z M286.38,426.233    c-5.522,0-10,4.477-10,10V492h-63.83v-53.93c0-5.523-4.478-10-10-10c-5.522,0-10,4.477-10,10V492H80.76v-42.699h12.012    c30.389,0,55.111-24.723,55.111-55.111s-24.723-55.111-55.111-55.111H80.76V296.38h195.62v55.766c0,5.523,4.478,10,10,10h5.915    c17.669,0,32.044,14.375,32.044,32.043c0,17.668-14.375,32.044-32.044,32.044H286.38z M492,414.854h-53.93    c-5.522,0-10,4.477-10,10s4.478,10,10,10H492V492H296.38v-45.925c26.795-2.091,47.959-24.563,47.959-51.885    s-21.164-49.794-47.959-51.885V296.38h45.747v22.108c0,28.708,23.355,52.063,52.063,52.063c28.708,0,52.063-23.355,52.063-52.063    V296.38H492V414.854z M492,160.125h-53.93c-5.522,0-10,4.477-10,10s4.478,10,10,10H492v96.255h-55.746c-5.522,0-10,4.477-10,10    v32.108c0,17.68-14.384,32.063-32.064,32.063s-32.063-14.383-32.063-32.063V286.38c0-5.523-4.478-10-10-10H296.38v-45.747h8.696    c28.708,0,52.063-23.355,52.063-52.063s-23.355-52.063-52.063-52.063h-8.696V80.76h55.747c5.522,0,10-4.477,10-10v-5.285    c0-17.68,14.384-32.063,32.063-32.063c17.679,0,32.063,14.383,32.063,32.063v5.285c0,5.523,4.478,10,10,10H492V160.125z"/>
	</g>
</g>
<g>
	<g>
		<circle cx="202.55" cy="400.47" r="10"/>
	</g>
</g>
<g>
	<g>
		<circle cx="400.47" cy="424.85" r="10"/>
	</g>
</g>
<g>
	<g>
		<circle cx="400.47" cy="170.12" r="10"/>
	</g>
</g>
<g>
	<g>
		<circle cx="172.72" cy="184.85" r="10"/>
	</g>
</g>
<g>
</g>
<g>
</g>
<g>
</g>
<g>
</g>
<g>
</g>
<g>
</g>
<g>
</g>
<g>
</g>
<g>
</g>
<g>
</g>
<g>
</g>
<g>
</g>
<g>
</g>
<g>
</g>
<g>
</g>
</svg>
