<?xml version="1.0" encoding="iso-8859-1"?>
<!-- Generator: Adobe Illustrator 16.0.0, SVG Export Plug-In . SVG Version: 6.00 Build 0)  -->
<!DOCTYPE svg PUBLIC "-//W3C//DTD SVG 1.1//EN" "http://www.w3.org/Graphics/SVG/1.1/DTD/svg11.dtd">
<svg version="1.1" id="Capa_1" xmlns="http://www.w3.org/2000/svg" xmlns:xlink="http://www.w3.org/1999/xlink" x="0px" y="0px"
	 width="22.191px" height="22.192px" viewBox="0 0 22.191 22.192" style="enable-background:new 0 0 22.191 22.192;"
	 xml:space="preserve">
<g>
	<path style="fill:#121111;" d="M18.627,5.585c-1.408,1.096-1.658,0.908-1.71-0.791c-0.021-0.649-0.224-1.245-0.841-1.464
		c-0.633-0.227-0.846,0.474-1.147,0.821c-0.95,1.09-2.766,1.659-4.183,1.222c-2.49-0.771-2.958-0.596-4.661,1.576
		C5.851,7.244,5.404,7.365,5.062,7.573C4.633,7.83,3.943,7.676,3.855,8.49c-0.032,0.318-0.686,0.531-0.89,0.393
		C1.415,7.84,1.14,8.998,0.441,10.029c-0.749,1.106-0.358,2.144-0.167,3.085c0.154,0.778-0.52,2.052,0.714,2.374
		c1.464,0.38,0.953,0.946,0.347,1.651c-0.263,0.305-0.506,0.627-0.798,0.993c2.24,1.11,4.521,0.781,6.787,0.495
		C8.268,18.508,9.158,18.312,9,16.983c-0.056-0.481,0.377-0.882,0.785-1.057c1.611-0.688,3.889-0.425,4.116-3.01
		c0.007-0.067,0.146-0.166,0.228-0.173c1.281-0.108,0.771-0.851,0.465-1.494c1.435-0.025,2.861-1.686,2.322-2.867
		c-0.483-1.06,0.041-1.27,0.75-1.675c0.653-0.376,1.322-0.549,2.039-0.484c0.851,0.075,1.614-0.03,2.486-1.191
		C20.817,5.477,19.782,4.684,18.627,5.585z"/>
</g>
<g>
</g>
<g>
</g>
<g>
</g>
<g>
</g>
<g>
</g>
<g>
</g>
<g>
</g>
<g>
</g>
<g>
</g>
<g>
</g>
<g>
</g>
<g>
</g>
<g>
</g>
<g>
</g>
<g>
</g>
</svg>
