<?xml version="1.0" encoding="iso-8859-1"?>
<!-- Generator: Adobe Illustrator 16.0.0, SVG Export Plug-In . SVG Version: 6.00 Build 0)  -->
<!DOCTYPE svg PUBLIC "-//W3C//DTD SVG 1.1//EN" "http://www.w3.org/Graphics/SVG/1.1/DTD/svg11.dtd">
<svg version="1.1" id="Capa_1" xmlns="http://www.w3.org/2000/svg" xmlns:xlink="http://www.w3.org/1999/xlink" x="0px" y="0px"
	 width="21.207px" height="21.207px" viewBox="0 0 21.207 21.207" style="enable-background:new 0 0 21.207 21.207;"
	 xml:space="preserve">
<g>
	<path d="M9.988,0.711C9.819,0.681,9.619,0.791,9.439,0.854c-0.618,0.214-1.35,0.762-1.348-0.566c0-0.354-0.368-0.349-0.523-0.158
		C6.764,1.111,5.597,2.024,5.49,3.247C5.428,3.951,5.208,5.271,6.217,5.76C7.285,6.273,7.101,6.891,6.65,7.627
		C6.412,8.018,6.103,8.5,6.247,8.853c0.92,2.258-1.276,4.44-0.11,6.68c-1.156,1.751,0.598,1.896,1.427,2.347
		c0.941,0.515,1.585,1.155,1.804,2.161c0.177,0.814,0.689,1.354,1.397,1.107c0.596-0.204,1.344-0.749,0.966-1.687
		c-0.28-0.696,0.261-1.022,0.663-1.045c1.121-0.056,1.277-0.877,1.559-1.645c0.201-0.549,0.376-1.063,1.043-1.306
		c0.518-0.189,0.957-0.816,0.72-1.293c-0.312-0.618,0.02-1.602-0.846-1.878c-1.528-0.486-2.084-1.665-2.307-3.071
		c-0.229-1.457,0.363-2.834,0.556-4.251C13.13,4.195,10.692,0.844,9.988,0.711z"/>
</g>
<g>
</g>
<g>
</g>
<g>
</g>
<g>
</g>
<g>
</g>
<g>
</g>
<g>
</g>
<g>
</g>
<g>
</g>
<g>
</g>
<g>
</g>
<g>
</g>
<g>
</g>
<g>
</g>
<g>
</g>
</svg>
