<?xml version="1.0" encoding="iso-8859-1"?>
<!-- Generator: Adobe Illustrator 16.0.0, SVG Export Plug-In . SVG Version: 6.00 Build 0)  -->
<!DOCTYPE svg PUBLIC "-//W3C//DTD SVG 1.1//EN" "http://www.w3.org/Graphics/SVG/1.1/DTD/svg11.dtd">
<svg version="1.1" id="Capa_1" xmlns="http://www.w3.org/2000/svg" xmlns:xlink="http://www.w3.org/1999/xlink" x="0px" y="0px"
	 width="21.038px" height="21.039px" viewBox="0 0 21.038 21.039" style="enable-background:new 0 0 21.038 21.039;"
	 xml:space="preserve">
<g>
	<path d="M12.376,20.413c0.202,0.363,1.974,0.059,2.772-0.662c1.508-1.357,3.281-2.3,4.961-3.391
		c0.361-0.235,1.027-0.303,0.916-0.974c-0.094-0.564-0.58-0.703-1.055-0.892c-0.93-0.368-1.188-1.061-1.093-2.078
		c0.229-2.451,0.175-4.871-1.433-6.978c-0.305-0.398-1.057-0.969-0.725-1.301c1.057-1.059,0.444-2.411,0.875-3.534
		C16.389,0.232,15.2,0.775,14.02,0.69c-2.532-0.182-4.771,0.534-6.881,1.851c-0.285,0.177-0.458,0.251-0.28,0.64
		c0.4,0.876,0.106,1.92,0.861,2.915C6.119,5.864,5.28,6.582,4.45,7.597C3.335,8.961,1.243,8.669,0,9.922c0,0.59,0,1.18,0,1.771
		c3.566,2.196,7.169,4.339,10.322,7.137C10.955,19.392,11.857,19.479,12.376,20.413z"/>
</g>
<g>
</g>
<g>
</g>
<g>
</g>
<g>
</g>
<g>
</g>
<g>
</g>
<g>
</g>
<g>
</g>
<g>
</g>
<g>
</g>
<g>
</g>
<g>
</g>
<g>
</g>
<g>
</g>
<g>
</g>
</svg>
