<?xml version="1.0" encoding="iso-8859-1"?>
<!-- Generator: Adobe Illustrator 16.0.0, SVG Export Plug-In . SVG Version: 6.00 Build 0)  -->
<!DOCTYPE svg PUBLIC "-//W3C//DTD SVG 1.1//EN" "http://www.w3.org/Graphics/SVG/1.1/DTD/svg11.dtd">
<svg version="1.1" id="Capa_1" xmlns="http://www.w3.org/2000/svg" xmlns:xlink="http://www.w3.org/1999/xlink" x="0px" y="0px"
	 width="21.19px" height="21.19px" viewBox="0 0 21.19 21.19" style="enable-background:new 0 0 21.19 21.19;" xml:space="preserve"
	>
<g>
	<path d="M2.137,10.992c1.113,1.564,0.862,2.451-0.965,3.229c-0.398,0.167-0.75,0.353-0.778,0.771
		c-0.029,0.431,0.432,0.212,0.654,0.332c0.362,0.199,0.414,0.515,0.403,0.875c-0.056,1.941,0.806,2.997,2.836,2.918
		c0.146-0.005,0.298,0.002,0.44,0.036c2.289,0.548,3.143,0.116,3.806-1.843c0.523-0.339,0.71,1.053,1.101,0.245
		c0.452-0.93,1.093-0.788,1.813-0.788c2.133,0.003,2.432-0.237,2.94-2.205c0.095-0.367,0.022-0.718,0.748-0.27
		c1.534,0.947,2.22,0.156,2.813-1.619c0.484-1.442-0.201-3.95,2.611-3.991c0.272-0.005,0.668-0.257,0.627-0.702
		c-0.048-0.519-0.447-0.434-0.775-0.391c-0.54,0.069-0.906-0.398-1.367-0.438c-1.248-0.113-1.415-0.557-0.666-1.539
		c0.326-0.429,0.223-0.735-0.1-0.762c-2.172-0.174-4.25-0.973-6.467-0.884C10.859,4.003,9.978,3.72,9.413,2.733
		C8.958,1.936,8.21,1.636,7.199,1.928C6.531,2.12,5.895,2.615,5.115,2.373c-1.258-0.39-2.204,0.423-1.794,1.713
		c0.354,1.112-0.064,1.34-0.984,1.604C1.474,5.938,0.75,7.259,1.002,7.518c0.972,1.01,0.246,1.335-0.344,1.955
		C0.298,9.853,0.211,10.494,0,11.02C0.789,11.331,1.433,10.001,2.137,10.992z"/>
</g>
<g>
</g>
<g>
</g>
<g>
</g>
<g>
</g>
<g>
</g>
<g>
</g>
<g>
</g>
<g>
</g>
<g>
</g>
<g>
</g>
<g>
</g>
<g>
</g>
<g>
</g>
<g>
</g>
<g>
</g>
</svg>
