<?xml version="1.0" encoding="iso-8859-1"?>
<!-- Generator: Adobe Illustrator 16.0.0, SVG Export Plug-In . SVG Version: 6.00 Build 0)  -->
<!DOCTYPE svg PUBLIC "-//W3C//DTD SVG 1.1//EN" "http://www.w3.org/Graphics/SVG/1.1/DTD/svg11.dtd">
<svg version="1.1" id="Capa_1" xmlns="http://www.w3.org/2000/svg" xmlns:xlink="http://www.w3.org/1999/xlink" x="0px" y="0px"
	 width="21.106px" height="21.106px" viewBox="0 0 21.106 21.106" style="enable-background:new 0 0 21.106 21.106;"
	 xml:space="preserve">
<g>
	<path d="M1.92,1.933C2.764,2.252,2.2,1.287,2.465,0.987C2.749,0.667,3.176,0.467,3.28,0C2.887,0,2.494,0,2.099,0
		C2.086,0.09,2.105,0.232,2.056,0.262C1.21,0.775,1.563,1.798,1.92,1.933z"/>
	<path d="M3.15,19.615c0.313-0.135,0.58,0.04,0.799,0.238c0.49,0.442,1.042,0.348,1.644,0.338c1.91-0.03,3.924-0.441,5.707,0.207
		c2.579,0.938,5.021,0.896,7.63,0.152c-2.072-2.312-2.072-2.312-2.072-4.931c0-0.295,0.047-0.599-0.008-0.882
		c-0.236-1.264,0.314-1.67,1.504-1.461c1.088,0.191,1.664-0.125,1.664-1.391c0.002-1.756,0.084-1.748-1.772-1.695
		c-0.263,0.007-0.528-0.104-0.794-0.168c0,0.004,0,0.009,0,0.014l-0.03-0.021c0.009,0.002,0.021,0.006,0.029,0.008
		c0.038-1.389-0.99-2.562-0.784-4.043c0.045-0.328,0.609-1.731-0.738-1.604c-0.789,0.075-1.224-0.685-1.979-0.548
		C13.498,3.91,13.045,3.9,12.955,4.479c-0.231,1.507-1.569,0.708-2.346,1.066C9.903,5.87,9.733,4.932,9.433,4.495
		c-0.288-0.42-0.439-0.959-0.551-1.469C8.773,2.527,8.539,2.154,8.043,2.165c-1.664,0.032-3.332-0.218-4.992,0.04
		c-0.914,0.141-1.278,0.432-0.63,1.418C2.963,4.449,3.788,5.6,3.428,6.384c-0.546,1.195-0.02,1.934,0.415,2.777
		c0.518,1.002,0.751,2.22-0.012,2.877c-1.689,1.456-1.768,3.5-2.464,5.324c-0.305,0.8-0.41,1.765-0.065,2.39
		C1.609,20.309,2.524,19.887,3.15,19.615z"/>
</g>
<g>
</g>
<g>
</g>
<g>
</g>
<g>
</g>
<g>
</g>
<g>
</g>
<g>
</g>
<g>
</g>
<g>
</g>
<g>
</g>
<g>
</g>
<g>
</g>
<g>
</g>
<g>
</g>
<g>
</g>
</svg>
