<?xml version="1.0" encoding="iso-8859-1"?>
<!-- Generator: Adobe Illustrator 16.0.0, SVG Export Plug-In . SVG Version: 6.00 Build 0)  -->
<!DOCTYPE svg PUBLIC "-//W3C//DTD SVG 1.1//EN" "http://www.w3.org/Graphics/SVG/1.1/DTD/svg11.dtd">
<svg version="1.1" id="Capa_1" xmlns="http://www.w3.org/2000/svg" xmlns:xlink="http://www.w3.org/1999/xlink" x="0px" y="0px"
	 width="21.17px" height="21.169px" viewBox="0 0 21.17 21.169" style="enable-background:new 0 0 21.17 21.169;"
	 xml:space="preserve">
<g>
	<path d="M11.055,21.168c0.689,0.038,2.358-1.594,2.396-2.344c0.044-0.864-2.107-2.541-3.41-2.656
		c-0.653-0.062-2.304,1.564-2.322,2.284C7.672,20.148,8.763,21.04,11.055,21.168z"/>
	<path d="M9.22,0.222C8.906,0.16,8.52-0.224,8.334,0.189c-0.462,1.03,0.324,1.954,0.398,2.949c0.005,0.049,0.005,0.11,0.03,0.142
		c0.674,0.8,1.601,1.432,2.539,1.486c0.629,0.036,0.414-1.044,0.42-1.606C12.204,1.012,10.823,0.542,9.22,0.222z"/>
</g>
<g>
</g>
<g>
</g>
<g>
</g>
<g>
</g>
<g>
</g>
<g>
</g>
<g>
</g>
<g>
</g>
<g>
</g>
<g>
</g>
<g>
</g>
<g>
</g>
<g>
</g>
<g>
</g>
<g>
</g>
</svg>
