<?xml version="1.0" encoding="iso-8859-1"?>
<!-- Generator: Adobe Illustrator 16.0.0, SVG Export Plug-In . SVG Version: 6.00 Build 0)  -->
<!DOCTYPE svg PUBLIC "-//W3C//DTD SVG 1.1//EN" "http://www.w3.org/Graphics/SVG/1.1/DTD/svg11.dtd">
<svg version="1.1" id="Capa_1" xmlns="http://www.w3.org/2000/svg" xmlns:xlink="http://www.w3.org/1999/xlink" x="0px" y="0px"
	 width="22.021px" height="22.021px" viewBox="0 0 22.021 22.021" style="enable-background:new 0 0 22.021 22.021;"
	 xml:space="preserve">
<g>
	<path style="fill:#121111;" d="M0.904,3.609C1.693,4.534,2.42,5.652,1.5,6.747c-1.259,1.493,0.207,2.626,0.364,3.89
		c0.076,0.629,1.441,1.07,2.268,0.856c1.914-0.493,3.127,0.48,4.284,1.698c0.64,0.673,1.28,1.144,2.241,0.603
		c0.546-0.304,0.884,0.077,1.129,0.474c0.833,1.344,1.966,1.721,3.443,1.188c0.378-0.134,1.001-0.579,1.078,0.193
		c0.179,1.845,1.67,3.02,2.211,4.699c0.462,1.44,1.667,0.065,2.537,0.263c0.649,0.146,0.338-0.674,0.431-1.067
		c0.113-0.479-1.053-1.314,0.438-1.438c0.245-0.019-0.027-0.438-0.185-0.601c-0.341-0.349-0.717-0.663-1.127-1.038
		c0.332-0.369,1.062-0.443,0.775-1.038c-0.232-0.486-0.801-0.754-1.275-0.694c-0.565,0.066-0.962-0.043-1.382-0.391
		c-1.08-0.896-2.191-1.757-3.453-2.76c0.369-0.021,0.554-0.07,0.725-0.036c1.024,0.206,1.514-0.354,1.742-1.234
		c0.26-1.008-0.678-0.979-1.192-1.27c-0.894-0.508-1.733-1.056-2.357-1.902C13.698,6.47,13.477,5.89,14.42,5.423
		c0.843-0.417,0.894-0.868,0.094-1.432c-0.486-0.345-0.84-0.822-1.554-0.839c-0.269-0.007-0.916,0.015-0.958-0.681
		c-0.058-1.041-1.011-1.668-1.978-1.403c-0.47,0.129-0.846,0.459-1.408,0.419C5.718,1.286,2.926,2.118,0,2.458
		C0.147,3.091,0.615,3.274,0.904,3.609z"/>
</g>
<g>
</g>
<g>
</g>
<g>
</g>
<g>
</g>
<g>
</g>
<g>
</g>
<g>
</g>
<g>
</g>
<g>
</g>
<g>
</g>
<g>
</g>
<g>
</g>
<g>
</g>
<g>
</g>
<g>
</g>
</svg>
