<?xml version="1.0" encoding="iso-8859-1"?>
<!-- Generator: Adobe Illustrator 16.0.0, SVG Export Plug-In . SVG Version: 6.00 Build 0)  -->
<!DOCTYPE svg PUBLIC "-//W3C//DTD SVG 1.1//EN" "http://www.w3.org/Graphics/SVG/1.1/DTD/svg11.dtd">
<svg version="1.1" id="Capa_1" xmlns="http://www.w3.org/2000/svg" xmlns:xlink="http://www.w3.org/1999/xlink" x="0px" y="0px"
	 width="22.124px" height="22.124px" viewBox="0 0 22.124 22.124" style="enable-background:new 0 0 22.124 22.124;"
	 xml:space="preserve">
<g>
	<path style="fill:#121111;" d="M20.274,22.089c1.038-0.015,1.201-0.277,0.901-1.341c-0.205-0.735-0.239-1.54-0.558-2.215
		c-0.626-1.321-0.495-3.047-1.682-4c-1.245-1-2.722-1.943-3.48-3.215c-1.085-1.816-2.869-2.369-4.351-3.475
		c-1.07-0.795-2.332-1.256-3.293-2.278C6.192,3.848,4.934,1.769,2.829,0.521C2.399,0.27,2.051-0.255,1.515,0.146
		c-0.598,0.45,0,0.817,0.127,1.27C2.119,3.13,3.356,4.781,1.75,6.7c-0.472,0.562-1.63,1.789-0.356,2.922
		c1.985,1.768,3.879,3.653,5.98,5.266c0.717,0.553,1.831,0.61,2.557,1.384c2.254,2.387,5.302,3.52,8.193,4.809
		C18.831,21.396,19.322,22.315,20.274,22.089z"/>
	<path style="fill:#121111;" d="M14.827,19.018c-1.056-0.672-1.836-1.183-3.105-0.388C12.845,18.814,13.632,19.302,14.827,19.018z"
		/>
</g>
<g>
</g>
<g>
</g>
<g>
</g>
<g>
</g>
<g>
</g>
<g>
</g>
<g>
</g>
<g>
</g>
<g>
</g>
<g>
</g>
<g>
</g>
<g>
</g>
<g>
</g>
<g>
</g>
<g>
</g>
</svg>
