<?xml version="1.0" encoding="iso-8859-1"?>
<!-- Generator: Adobe Illustrator 16.0.0, SVG Export Plug-In . SVG Version: 6.00 Build 0)  -->
<!DOCTYPE svg PUBLIC "-//W3C//DTD SVG 1.1//EN" "http://www.w3.org/Graphics/SVG/1.1/DTD/svg11.dtd">
<svg version="1.1" id="Capa_1" xmlns="http://www.w3.org/2000/svg" xmlns:xlink="http://www.w3.org/1999/xlink" x="0px" y="0px"
	 width="22.035px" height="22.035px" viewBox="0 0 22.035 22.035" style="enable-background:new 0 0 22.035 22.035;"
	 xml:space="preserve">
<g>
	<path style="fill:#121111;" d="M18.735,6.999c-0.232-1.773-1.59-3-1.816-4.945c-0.803,1.09-0.889,2.073-0.971,3.068
		c-0.047,0.573-0.337,1.437-0.779,1.304c-0.833-0.25-1.597-0.869-2.271-1.468c-0.458-0.406-0.111-0.926,0.23-1.335
		c0.311-0.369,0.134-1.083-0.065-0.958c-1.034,0.64-2.075-0.78-3.109,0.192C9.126,3.635,8.542,4.919,6.807,4.351
		c-0.472-0.154-1.92,1.25-2.166,2.147C4.286,7.792,3.477,8.162,2.494,8.553c-2.902,1.15-3.023,2.481-1.629,5.153
		c0.534,1.019,1.243,1.979,1.001,3.223c-0.179,0.917,0.758,1.064,1,0.905c1.125-0.751,2.597-0.649,3.624-1.536
		c1.876-1.622,4.002-1.481,5.467,0.443c0.296,0.388,0.454,0.49,0.727,0.043c0.074,0.091,0.148,0.185,0.224,0.276
		c0.559,0.545,1.108,1.007,1.47,1.812c0.571,1.282,4.169,1.542,4.906,0.294c0.716-1.216,1.61-2.324,2.236-3.59
		c1.02-2.06,0.402-3.833-0.776-5.657C20.095,8.914,18.892,8.189,18.735,6.999z"/>
</g>
<g>
</g>
<g>
</g>
<g>
</g>
<g>
</g>
<g>
</g>
<g>
</g>
<g>
</g>
<g>
</g>
<g>
</g>
<g>
</g>
<g>
</g>
<g>
</g>
<g>
</g>
<g>
</g>
<g>
</g>
</svg>
