<?xml version="1.0" encoding="iso-8859-1"?>
<!-- Generator: Adobe Illustrator 17.1.0, SVG Export Plug-In . SVG Version: 6.00 Build 0)  -->
<!DOCTYPE svg PUBLIC "-//W3C//DTD SVG 1.1//EN" "http://www.w3.org/Graphics/SVG/1.1/DTD/svg11.dtd">
<svg version="1.1" id="Capa_1" xmlns="http://www.w3.org/2000/svg" xmlns:xlink="http://www.w3.org/1999/xlink" x="0px" y="0px"
	 viewBox="0 0 202.071 202.071" style="enable-background:new 0 0 202.071 202.071;" xml:space="preserve">
<g>
	<path d="M188.458,85.156c-1.972-2.349-3.683-4.361-7.82-4.173c-1.368,0.062-2.505,0.091-3.578,0.091
		c-1.484,0-2.82-0.057-4.084-0.175c-1.479-0.137-3.43-0.308-5.411-0.417l-0.276-0.015c-1.289-0.067-2.402-0.125-3.411-0.984
		c-0.6-0.511-1.039-1.265-1.238-2.122c-0.351-1.512,0.182-2.143,0.854-2.942l0.156-0.187c0.741-0.894,1.04-1.816,0.891-2.743
		c-0.173-1.069-0.947-2.061-2.238-2.867c-0.752-0.469-1.554-0.768-2.328-1.057c-0.759-0.283-1.477-0.551-2.138-0.964
		c-2.42-1.513-3.132-2.957-4.311-5.349l-0.305-0.614c-1.182-2.375-1.642-4.708-2.128-7.177c-0.246-1.251-0.501-2.545-0.859-3.87
		c-0.933-3.451-3.483-6.789-5.602-9.312c-1.328-1.583-2.443-3.452-3.624-5.431c-1.667-2.793-3.363-5.705-5.888-7.822
		c-0.671-0.563-1.398-1.057-2.16-1.488c-0.561-0.317-1.415-0.935-2.082-0.923c-1.043,0.018-1.174,1.687-1.453,2.409
		c-0.586,1.519-1.858,2.319-2.707,3.641c-0.446,0.695-0.781,1.388-1.105,2.058c-0.575,1.188-1.117,2.31-2.226,3.356
		c-1.53,1.444-3.479,2.022-5.541,2.635c-2.595,0.77-5.278,1.567-7.182,4.188c-1.093,1.504-1.541,3.116-1.937,4.537
		c-0.629,2.26-1.171,4.211-4.053,5.308c-1.111,0.422-2.287,0.441-3.533,0.461c-0.872,0.014-1.774,0.029-2.743,0.174
		c-0.872,0.131-1.424,0.21-1.764,0.21c-0.361,0-0.403-0.047-0.805-0.505c-0.389-0.441-0.976-1.109-2.241-2.076
		c-0.938-0.716-1.928-1.281-2.885-1.827c-1.687-0.963-3.28-1.873-4.469-3.506c-1.167-1.604-1.991-3.488-2.58-4.951
		c-0.102-0.252-0.194-0.59-0.296-0.958c-0.32-1.15-0.683-2.454-1.577-2.938c-0.386-0.207-0.959-0.078-1.475,0.079
		c-0.242,0.074-0.488,0.146-0.679,0.149c-1.441-0.225-2.158-0.389-2.715-1.66c-0.168-0.383-0.221-0.803-0.277-1.247
		c-0.083-0.659-0.169-1.339-0.638-1.943c-0.419-0.542-0.981-0.813-1.476-1.053c-0.354-0.171-0.652-0.466-0.975-0.699
		c-0.354-0.256-0.722-0.294-1.105-0.467c-0.748-0.337-1.089-1.165-1.405-1.867c-0.377-0.837-0.805-1.787-1.736-2.351
		c-0.822-0.499-2.045-0.408-3.35-0.19c-0.608,0.101-1.236,0.206-1.858,0.206c-0.427-0.002-0.816-0.233-0.969-0.576
		c-0.448-1.006-1.429-1.652-2.558-1.688c-2.619-0.076-3.835,0.388-5.655,2.347c-1.324,1.427-2.785,2.55-4.598,3.535
		c-1.034,0.562-1.512,1.776-1.112,2.825c0.596,1.56,2.125,2.708,3.654,3.271c0.615,0.227,1.072,0.757,1.125,1.41
		c0.167,2.062,0.566,3.202,2.691,4.901c2.519,2.013,4.694,3.751,7.156,6.432c0.184,0.2,0.386,0.408,0.596,0.623
		c1.101,1.127,2.35,2.404,2.043,3.867c-0.076,0.362-0.369,0.703-0.678,1.064c-0.34,0.396-0.691,0.806-0.833,1.327
		c-0.176,0.647,0.048,1.066,0.213,1.373c0.158,0.295,0.23,0.429,0.029,0.83c-0.549,1.097-1.453,1.63-2.764,1.63
		c-2.38,0-5.418-1.764-6.904-2.626c-2.063-1.198-3.984-1.352-5.426-1.352c-0.731,0-1.467,0.044-2.218,0.089
		c-1.465,0.088-3.069,0.143-4.409-0.033c-1.624-0.212-3.465-0.781-5.632-1.739l-0.452-0.198c-2.006-0.877-2.612-1.142-2.929-3.166
		c-0.104-0.661-0.129-1.208-0.151-1.691c-0.067-1.462-0.111-2.429-2.187-3.646c-1.751-1.027-3.394-1.133-5.133-1.246
		c-0.523-0.034-1.061-0.068-1.622-0.13c-1.155-0.127-1.772-0.555-2.425-1.008c-0.664-0.461-1.351-0.938-2.537-1.088
		c-0.2-0.025-0.403-0.038-0.608-0.038c-2.461,0-4.86,1.7-5.537,2.221c-3.312,2.549-5.26,6.51-5.072,10.061
		c0.054,1.012,0.792,1.861,1.809,2.016c0.834,0.128,1.698,0.261,2.518,0.531c0.002,0.019,0.003,0.064-0.044,0.093
		c-1.891,1.155-2.667,2.276-3.291,3.177c-0.319,0.46-0.355,1.055-0.096,1.552c0.262,0.5,0.774,0.811,1.367,0.811
		c4.431-0.079,7.277,0.008,11.491,2.227c1.956,1.029,5.083,3.315,5.588,4.955c0.463,1.503,0.476,2.552,0.04,3.206
		c-0.393,0.588-1.176,0.941-2.566,1.14c-0.562,0.08-1.05,0.402-1.397,0.85c-0.177,0.229-0.397,0.447-0.625,0.673
		c-0.466,0.461-0.995,0.984-1.255,1.724c-2.073,5.892,4.205,10.802,9.25,14.746c1.661,1.299,3.229,2.524,4.248,3.604
		c0.255,0.271,0.516,0.54,0.777,0.811c2.686,2.784,5.222,5.413,3.146,9.171c-1.07,1.938-3.015,2.009-5.266,2.091
		c-2.126,0.077-4.325,0.156-5.803,1.975c-0.086,0.106-0.125,0.242-0.108,0.378s0.089,0.258,0.198,0.339
		c0.978,0.726,1.927,1.032,2.846,1.329c1.193,0.386,2.223,0.719,3.199,1.917c0.304,0.373,0.577,0.783,0.865,1.216
		c0.44,0.66,0.895,1.343,1.479,1.908c0.482,0.467,0.992,0.828,1.485,1.179c0.662,0.47,1.288,0.914,1.806,1.578
		c0.326,0.418,0.601,0.865,0.892,1.339c0.432,0.703,0.878,1.431,1.505,2.055c1.469,1.464,3.412,2.569,5.777,3.285
		c0.86,0.261,1.747,0.294,2.423,0.294c0.385,0,0.773-0.013,1.16-0.025c0.375-0.013,0.75-0.024,1.12-0.024
		c0.908,0,1.564,0.079,2.129,0.259c0.917,0.291,1.725,0.622,2.506,0.941c0.503,0.206,1.014,0.415,1.555,0.614
		c1.353,0.497,1.517,2.417,0.199,3.002c-0.646,0.287-1.462,0.401-2.327,0.523c-1.551,0.218-3.155,0.442-3.609,1.915
		c-0.522,1.692,1.401,2.747,2.673,3.445c0.306,0.168,0.576,0.314,0.758,0.445c0.963,0.69,1.215,1.141,1.564,1.764
		c0.213,0.381,0.456,0.813,0.885,1.357c0.355,0.452,0.883,0.801,1.394,1.138c1.077,0.711,1.561,1.123,1.352,1.827
		c-0.263,0.888-1.25,1.016-2.617,1.101c-0.415,0.026-0.807,0.051-1.147,0.119c-1.698,0.346-2.409,0.755-2.456,1.412
		c-0.068,0.956,1.411,1.533,3.83,2.396c0.216,0.077,0.43,0.153,0.635,0.228c0.798,0.29,1.266,1.151,1.018,1.963
		c-0.215,0.705-0.562,1.387-0.92,2.091c-0.737,1.448-1.499,2.945-1.142,4.789c0.027,0.141,0.113,0.264,0.237,0.336
		c0.125,0.073,0.274,0.091,0.409,0.045c2.684-0.875,6.26-4.985,7.48-6.726c0.283-0.404,0.517-0.83,0.743-1.241
		c0.517-0.94,1.005-1.829,2.013-2.327c0.467-0.23,0.979-0.333,1.66-0.333c0.304,0,0.609,0.019,0.914,0.037
		c0.841,0.052,1.669,0.057,2.332-0.114c2.224-0.575,3.008-2.181,3.767-3.732c0.557-1.138,1.082-2.213,2.157-2.963
		c0.915-0.639,1.977-1.147,3.102-1.687c1.492-0.715,3.035-1.454,4.292-2.549c0.788-0.688,1.257-1.431,1.711-2.149
		c0.429-0.68,0.834-1.322,1.5-1.923c1.481-1.336,3.321-2.428,5.088-3.407c1.212-0.673,2.258-1.395,3.27-2.093
		c2.029-1.4,3.782-2.61,6.298-3.086c4.674-0.882,5.787,0.297,9.036,3.52l1.07,1.054c2.104,2.062,5.284,5.176,6.592,7.561
		c0.278,0.506,0.564,1.193,0.354,1.593c-0.31,0.591-1.744,0.736-3.009,0.865c-1.254,0.127-2.55,0.259-3.408,0.799
		c-0.945,0.595-1.545,1.518-1.733,2.67c-0.33,2.009,0.605,4.235,1.678,5.551c0.48,0.589,1.232,1.203,2.029,1.853
		c1.346,1.099,3.02,2.466,2.861,3.5c-0.093,0.602-0.848,1.202-2.184,1.736c-0.598,0.238-1.605,0.412-2.673,0.596
		c-2.517,0.434-5.649,0.973-6.794,2.857c-0.506,0.833-0.574,1.841-0.206,2.996c0.474,1.481,2.112,1.992,3.558,2.442
		c0.713,0.223,1.386,0.433,1.905,0.731c1.251,0.722,2.457,1.864,3.795,3.596c0.269,0.347,0.403,0.841,0.534,1.318
		c0.128,0.468,0.249,0.91,0.501,1.242c0.558,0.733,0.919,0.911,1.406,1.1c0.219,0.084,0.445,0.172,0.769,0.385
		c0.294,0.194,0.607,0.391,0.93,0.593c1.183,0.741,2.522,1.581,3.412,2.661c0.518,0.629,0.855,1.13,1.152,1.573
		c0.874,1.3,1.359,1.901,3.688,2.517c0.884,0.233,1.536,0.338,2.115,0.338c0.965,0,1.668-0.3,2.641-0.716
		c0.296-0.127,0.626-0.268,1.007-0.419l0.282-0.112c2.437-0.967,2.771-1.213,3.359-4.4c0.312-1.683,0.891-4.813,0.34-6.85
		c-0.239-0.887-0.641-1.521-0.995-2.082c-0.517-0.816-0.925-1.462-0.838-2.722c0.125-1.788,0.754-2.183,1.796-2.837
		c0.521-0.327,1.11-0.697,1.73-1.297c1.915-1.852,1.473-5.015,1.045-8.074c-0.163-1.162-0.316-2.26-0.34-3.26
		c-0.007-0.283,0.195-0.521,0.459-0.542c0.718-0.054,1.488,0.254,2.316,0.581c0.849,0.336,1.727,0.683,2.734,0.683
		c3.138-0.072,3.962-2.131,4.354-4.135c0.145-0.732,0.105-1.499,0.071-2.176c-0.032-0.644-0.068-1.373,0.125-1.577
		c0.1-0.104,0.396-0.106,0.824,0.005c0.867,0.217,1.623,0.722,2.424,1.257l0.328,0.218c0.643,0.426,1.54,0.261,2.001-0.342
		c0.281-0.371,0.371-0.846,0.245-1.302c-0.504-1.821-1.249-3.909-2.96-5.591c-2.628-2.582-2.908-4.83-0.969-7.759
		c0.246-0.372,0.729-0.783,1.194-1.181c0.783-0.669,1.594-1.36,1.77-2.207c0.246-1.185-0.27-1.845-0.684-2.376
		c-0.405-0.519-0.725-0.929-0.584-1.853c0.092-0.603,0.612-1.104,1.162-1.636c0.652-0.629,1.391-1.342,1.427-2.35
		c0.033-0.949-0.467-1.524-0.831-1.943c-0.467-0.536-0.68-0.781-0.064-1.672c0.148-0.215,0.396-0.291,0.787-0.397
		c0.558-0.152,1.321-0.36,1.648-1.349c0.361-1.091-0.071-1.754-0.419-2.287c-0.145-0.223-0.281-0.432-0.374-0.673
		c-0.106-0.275-0.215-0.537-0.318-0.787c-0.66-1.592-1.059-2.552,0.294-4.16c2.164-2.573,6.673-5.055,9.947-6.271
		c2.785-1.035,7.58-2.083,11.355-2.083c0.777,0,1.479,0.045,2.087,0.135c1.532,0.224,5.105,1.954,6.187,4.326
		c0.211,0.464,0.664,0.752,1.182,0.752c0.646,0,1.191-0.431,1.33-1.046c0.647-2.894-0.524-6.029-3.391-9.067
		C189.467,86.359,188.954,85.747,188.458,85.156z"/>
	<path d="M151.219,149.414c-0.263,0.06-0.515,0.151-0.75,0.276c-0.958,0.509-1.896,1.517-2.698,2.42
		c-1.52,1.706-1.169,2.848-0.607,3.504c0.473,0.552,1.104,0.843,1.828,0.844c1.11,0,2.426-0.701,3.518-1.874
		c0.995-1.069,1.549-2.263,1.482-3.193c-0.045-0.626-0.327-1.198-0.774-1.568C152.705,149.399,151.975,149.248,151.219,149.414z"/>
	<path d="M46.799,152.861c-0.257-0.61-0.511-1.214-0.729-1.803c-0.084-0.229-0.162-0.469-0.24-0.711
		c-0.188-0.582-0.383-1.183-0.688-1.715c-0.125-0.218-0.265-0.419-0.404-0.617c-0.258-0.368-0.48-0.687-0.582-1.096l-0.178-0.708
		c-0.179-0.708-0.354-1.396-0.503-2.145c-0.204-1.022-0.221-1.833-0.062-2.891c0.428-2.846-2.654-3.959-4.904-4.771
		c-0.557-0.201-1.083-0.392-1.473-0.579c-0.659-0.316-0.714-0.525-0.392-1.496c0.652-1.963,1.392-4.736,0.295-6.159
		c-1.058-1.374-2.94-2.76-4.76-2.76c-0.444,0-0.869,0.082-1.263,0.243c-1.029,0.422-2.116,0.957-3.322,1.637
		c-0.376,0.212-0.743,0.485-1.098,0.751c-0.875,0.652-1.706,1.247-2.573,1.003c-1.108-0.313-2.158-0.813-3.122-1.485
		c-0.508-0.354-0.921-0.771-1.359-1.211c-0.325-0.327-0.651-0.654-1.017-0.959c-0.478-0.398-1.163-0.516-1.988-0.34
		c-0.153,0.033-0.287,0.074-0.404,0.111c-0.012,0.004-0.025,0.008-0.039,0.012c-0.007-0.029-0.015-0.063-0.023-0.104
		c-0.066-0.341-0.077-0.669-0.089-1.017c-0.023-0.69-0.047-1.404-0.527-2.156c-0.597-0.938-1.514-1.813-2.723-2.604l-0.213-0.141
		c-0.653-0.432-1.394-0.922-2.182-1.091c-0.849-0.181-1.752,0.173-2.483,0.492c-0.139,0.061-0.276,0.121-0.413,0.177
		c-1.268,0.516-2.713,0.697-4.072,0.515l-0.193-0.027c-0.335-0.048-0.683-0.097-1.035-0.097c-0.613,0-1.089,0.158-1.453,0.483
		c-0.769,0.687-0.709,1.866-0.253,2.678c0.319,0.567,0.779,0.991,1.224,1.402c0.125,0.114,0.249,0.229,0.369,0.346
		c1.409,1.376,2.322,3.233,3.204,5.029l0.424,0.857c0.532,1.062,1.193,2.294,2.068,3.396c0.735,0.926,1.622,1.592,2.48,2.236
		l0.572,0.433c0.813,0.626,1.365,1.322,1.737,2.191c0.162,0.378,0.192,0.707,0.231,1.124l0.029,0.296
		c0.035,0.32,0.13,0.589,0.214,0.826c0.068,0.191,0.133,0.373,0.159,0.564c0.031,0.229,0.042,0.443,0.053,0.644
		c0.042,0.771,0.085,1.569,1.142,2.161c0.899,0.506,1.751,0.604,2.654,0.708c0.248,0.028,0.503,0.058,0.768,0.097
		c0.998,0.148,1.771,0.487,2.584,1.134c2.089,1.658,3.371,3.482,3.809,5.423c0.528,2.336,2.806,2.747,4.636,3.076
		c0.403,0.073,0.801,0.145,1.175,0.233c0.573,0.137,1.159,0.245,1.745,0.353c0.995,0.184,2.023,0.372,2.949,0.711
		c0.687,0.251,1.363,0.546,2.037,0.839c0.671,0.292,1.342,0.583,2.021,0.834c1.401,0.519,2.893,0.736,4.336,0.947
		c0.908,0.133,1.847,0.271,2.732,0.48c0.234,0.056,0.469,0.084,0.696,0.084c0.629,0,1.132-0.212,1.493-0.661
		c0.29-0.391,0.381-0.932,0.251-1.482C47.836,155.327,47.309,154.073,46.799,152.861z"/>
	<path d="M201.84,90.441c-0.34-0.651-0.982-1.024-1.763-1.024c-0.316,0-0.646,0.064-0.952,0.188
		c-0.899,0.362-1.503,1.181-1.745,2.369c-0.063,0.313-0.103,0.63-0.142,0.947c-0.053,0.429-0.103,0.833-0.242,1.309
		c-0.075,0.25-0.161,0.534-0.132,0.845c0.013,0.132,0.047,0.257,0.099,0.369c0.165,0.363,0.527,0.624,0.969,0.699
		c0.11,0.019,0.223,0.028,0.336,0.028c0.413,0,0.836-0.123,1.19-0.346c0.802-0.502,1.379-1.335,1.744-1.917
		C202.075,92.515,202.296,91.317,201.84,90.441z"/>
</g>
<g>
</g>
<g>
</g>
<g>
</g>
<g>
</g>
<g>
</g>
<g>
</g>
<g>
</g>
<g>
</g>
<g>
</g>
<g>
</g>
<g>
</g>
<g>
</g>
<g>
</g>
<g>
</g>
<g>
</g>
</svg>
