<?xml version="1.0" encoding="iso-8859-1"?>
<!-- Generator: Adobe Illustrator 16.0.0, SVG Export Plug-In . SVG Version: 6.00 Build 0)  -->
<!DOCTYPE svg PUBLIC "-//W3C//DTD SVG 1.1//EN" "http://www.w3.org/Graphics/SVG/1.1/DTD/svg11.dtd">
<svg version="1.1" id="Capa_1" xmlns="http://www.w3.org/2000/svg" xmlns:xlink="http://www.w3.org/1999/xlink" x="0px" y="0px"
	 width="24.202px" height="24.202px" viewBox="0 0 24.202 24.202" style="enable-background:new 0 0 24.202 24.202;"
	 xml:space="preserve">
<g>
	<g>
		<g>
			<path d="M0,2.36c0,0.196,0,0.394,0,0.591c0.452,0.26,0.829,0.885,1.411,0.614c0.895-0.415,2.102,0.07,2.757-1.009
				c0.217-0.354,0.515-0.135,0.733,0.075c0.565,0.542,1.004,1.117,0.341,1.891C4.875,4.949,5.125,5.226,5.485,5.475
				C5.754,5.661,6.013,5.715,6.277,5.46C6.868,4.884,6.841,3.179,6.26,2.555c-0.327-0.348-0.826-0.55-0.949-1.078
				c-0.688,0-1.376,0-2.064,0C2.896,1.852,2.443,1.765,2.002,1.746C1.262,1.711,0.563,1.817,0,2.36z"/>
			<path d="M17.119,22.726c0.197,0,0.394,0,0.589,0c1.012-0.354,2.338-0.562,2.367-2.05c0.008-0.385,0.123-0.726-0.428-0.897
				c-0.409-0.127-0.688,0.122-0.713,0.517c-0.028,0.416,0.213,0.629-0.752,0.645C16.916,20.961,16.744,21.695,17.119,22.726z"/>
			<path d="M21.272,19.371c0.051,0.394,0.412,0.494,0.656,0.367c0.782-0.414,1.518,0.098,2.273,0.035c0-0.295,0-0.589,0-0.884
				c-0.779-0.298-1.281-0.849-2.409-0.187C21.441,18.912,21.222,18.977,21.272,19.371z"/>
			<path d="M2.188,10.333c0.826,0.471,1.213,1.273,1.55,2.07c0.213,0.508,0.489,0.689,0.973,0.643
				c0.607-0.061,0.609-0.528,0.627-1.211c-0.55-1.088-0.598-2.581-1.453-3.791C3.613,7.66,3.322,7.331,2.827,7.421
				C2.23,7.532,2.538,8.004,2.486,8.358C2.439,8.675,2.241,9.002,2.021,9.25C1.615,9.71,1.738,10.075,2.188,10.333z"/>
			<path d="M7.736,7.431c0.45,0.156,1.276,0.351,1.034,0.975c-0.303,0.786-0.146,1.42,0.515,1.468
				c0.685,0.053,0.436-0.917,0.788-1.402c0.185-1.066-0.847-1.662-1.726-2.164C7.82,6.007,7.41,6.013,7.143,6.564
				C6.868,7.141,7.247,7.263,7.736,7.431z"/>
			<path d="M15.173,16.436c0.2,0.177,0.577,0.158,0.606,0.562c-0.132,0.116-0.269,0.262-0.427,0.375
				c-0.279,0.198-0.404,0.51-0.213,0.748c0.276,0.344,0.604,0.11,0.896-0.092c0.614-0.425,1.201-0.845,1.078-1.738
				c-0.252-1.82-0.848-0.306-1.393-0.775c-0.238-0.206-0.554-0.188-0.74,0.145C14.81,15.969,14.957,16.24,15.173,16.436z"/>
			<path d="M11.903,13.215c0.229,0.968,0.413,1.972,1.406,2.504c0.162,0.087,0.373,0.212,0.508,0.166
				c0.135-0.045,0.201-0.286,0.324-0.484c-0.732-1.171-1.21-1.945-1.641-2.6c-0.052-0.077-0.332-0.12-0.387-0.062
				C11.996,12.856,11.871,13.074,11.903,13.215z"/>
			<path d="M11.511,11.463c-0.043,0.414,0.526,0.292,0.85,0.22c0.117-0.023,0.338-0.158,0.3-0.283
				c-0.557-1.811-1.509-2.246-1.578-2.241c-0.091,0.03-0.232,0.03-0.268,0.09C10.303,10.195,11.601,10.578,11.511,11.463z"/>
			<path d="M20.076,17.912c0.243,0.154,0.507-0.152,0.534-0.55c-0.76-1.473-0.469-0.505-1.471-0.653
				c-0.313-0.045-0.578,0.225-0.502,0.551C18.817,18.035,19.613,17.619,20.076,17.912z"/>
			<path d="M9.467,13.094c0.154,0.673,0.785,0.787,1.312,0.966c0.255,0.084,0.532-0.179,0.438-0.415
				c-0.221-0.582-0.756-0.836-1.263-1.018C9.617,12.657,9.405,12.817,9.467,13.094z"/>
			<path d="M6.162,8.312C6.129,7.871,5.807,7.74,5.451,7.724C5.048,7.707,4.605,7.806,4.533,8.269
				C4.461,8.707,4.854,8.835,5.211,8.848C5.618,8.862,5.987,8.75,6.162,8.312z"/>
			<path d="M14.165,11.777c0.02,0.327,0.156,0.602,0.521,0.541c0.379-0.062,0.521-0.395,0.606-0.732
				c-0.075-0.323-0.245-0.573-0.589-0.538C14.298,11.088,14.144,11.387,14.165,11.777z"/>
		</g>
	</g>
</g>
<g>
</g>
<g>
</g>
<g>
</g>
<g>
</g>
<g>
</g>
<g>
</g>
<g>
</g>
<g>
</g>
<g>
</g>
<g>
</g>
<g>
</g>
<g>
</g>
<g>
</g>
<g>
</g>
<g>
</g>
</svg>
