<?xml version="1.0" encoding="iso-8859-1"?>
<!-- Generator: Adobe Illustrator 16.0.0, SVG Export Plug-In . SVG Version: 6.00 Build 0)  -->
<!DOCTYPE svg PUBLIC "-//W3C//DTD SVG 1.1//EN" "http://www.w3.org/Graphics/SVG/1.1/DTD/svg11.dtd">
<svg version="1.1" id="Capa_1" xmlns="http://www.w3.org/2000/svg" xmlns:xlink="http://www.w3.org/1999/xlink" x="0px" y="0px"
	 width="21.359px" height="21.359px" viewBox="0 0 21.359 21.359" style="enable-background:new 0 0 21.359 21.359;"
	 xml:space="preserve">
<g>
	<path d="M7.908,13.961c2.214,1.955,3.522,4.396,4.109,7.398c0.938-0.985,1.708-1.974,1.919-3.183
		c0.346-1.975,0.658-3.978,0.706-5.977c0.08-3.449,0.785-7.138-3.044-9.785c0.715,0,1.006,0.01,1.297-0.002
		c0.413-0.02,0.917,0.219,1.162-0.336c0.302-0.683-0.389-1.036-0.564-1.562c-0.211-0.632-0.714-0.351-1.097-0.156
		c-0.808,0.413-1.559,0.315-2.383-0.017C9.035-0.052,7.824-0.338,7.292,0.85c-0.649,1.45-1.115,2.971-0.017,4.59
		c1.273,1.874,1.758,3.92,0.266,6.009C6.893,12.355,7.142,13.285,7.908,13.961z"/>
</g>
<g>
</g>
<g>
</g>
<g>
</g>
<g>
</g>
<g>
</g>
<g>
</g>
<g>
</g>
<g>
</g>
<g>
</g>
<g>
</g>
<g>
</g>
<g>
</g>
<g>
</g>
<g>
</g>
<g>
</g>
</svg>
