<?xml version="1.0" encoding="iso-8859-1"?>
<!-- Generator: Adobe Illustrator 16.0.0, SVG Export Plug-In . SVG Version: 6.00 Build 0)  -->
<!DOCTYPE svg PUBLIC "-//W3C//DTD SVG 1.1//EN" "http://www.w3.org/Graphics/SVG/1.1/DTD/svg11.dtd">
<svg version="1.1" id="Capa_1" xmlns="http://www.w3.org/2000/svg" xmlns:xlink="http://www.w3.org/1999/xlink" x="0px" y="0px"
	 width="21.654px" height="21.653px" viewBox="0 0 21.654 21.653" style="enable-background:new 0 0 21.654 21.653;"
	 xml:space="preserve">
<g>
	<path style="fill:#121111;" d="M14.049,9.027C12.148,6.684,10.029,4.501,8.3,2.04C6.876,0.014,5.457-0.459,3.128,0.426
		c-1.371,0.52-1.844,1.062-1.683,2.438C1.82,6.073,1.667,9.3,1.747,12.521c0.024,1.004,0.308,1.847,0.744,2.751
		c1.105,2.291,2.801,3.778,5.192,4.596c1.198,0.41,2.334,1.01,3.473,1.576c0.664,0.33,1.152,0.265,1.797-0.154
		c2.94-1.911,4.706-4.943,7.285-7.36c-0.545-0.393-1.014-0.698-1.442-1.051C17.227,11.58,15.367,10.653,14.049,9.027z"/>
</g>
<g>
</g>
<g>
</g>
<g>
</g>
<g>
</g>
<g>
</g>
<g>
</g>
<g>
</g>
<g>
</g>
<g>
</g>
<g>
</g>
<g>
</g>
<g>
</g>
<g>
</g>
<g>
</g>
<g>
</g>
</svg>
