<?xml version="1.0" encoding="iso-8859-1"?>
<!-- Generator: Adobe Illustrator 16.0.0, SVG Export Plug-In . SVG Version: 6.00 Build 0)  -->
<!DOCTYPE svg PUBLIC "-//W3C//DTD SVG 1.1//EN" "http://www.w3.org/Graphics/SVG/1.1/DTD/svg11.dtd">
<svg version="1.1" id="Capa_1" xmlns="http://www.w3.org/2000/svg" xmlns:xlink="http://www.w3.org/1999/xlink" x="0px" y="0px"
	 width="21.253px" height="21.253px" viewBox="0 0 21.253 21.253" style="enable-background:new 0 0 21.253 21.253;"
	 xml:space="preserve">
<g>
	<path d="M14.952,2.802c0.235-0.837,0.33-1.74-1.044-1.645c-0.337,0.024-0.735,0.039-0.858-0.385
		c-0.094-0.319,0.193-0.83-0.506-0.767c-0.542,0.049-0.757,0.45-0.903,0.849c-0.432,1.172-1.323,2.051-1.922,3.114
		C9.385,4.57,8.915,4.963,8.161,4.47C7.083,3.768,6.822,4.322,6.784,5.353c-0.158,4.307-0.351,8.612-0.53,12.918
		c-0.01,0-0.022,0-0.034,0c0,0.54-0.063,1.091,0.019,1.616c0.07,0.437-0.427,1.199,0.459,1.252c0.682,0.039,1.489,0.477,1.947-0.67
		c0.33-0.82,0.974-1.713,1.726-2.127c2.803-1.545,3.37-4.068,3.156-6.867c-0.141-1.822,0.415-3.544,0.387-5.341
		C13.892,4.953,14.635,3.924,14.952,2.802z"/>
</g>
<g>
</g>
<g>
</g>
<g>
</g>
<g>
</g>
<g>
</g>
<g>
</g>
<g>
</g>
<g>
</g>
<g>
</g>
<g>
</g>
<g>
</g>
<g>
</g>
<g>
</g>
<g>
</g>
<g>
</g>
</svg>
