<?xml version="1.0" encoding="iso-8859-1"?>
<!-- Generator: Adobe Illustrator 16.0.0, SVG Export Plug-In . SVG Version: 6.00 Build 0)  -->
<!DOCTYPE svg PUBLIC "-//W3C//DTD SVG 1.1//EN" "http://www.w3.org/Graphics/SVG/1.1/DTD/svg11.dtd">
<svg version="1.1" id="Capa_1" xmlns="http://www.w3.org/2000/svg" xmlns:xlink="http://www.w3.org/1999/xlink" x="0px" y="0px"
	 width="22.039px" height="22.04px" viewBox="0 0 22.039 22.04" style="enable-background:new 0 0 22.039 22.04;"
	 xml:space="preserve">
<g>
	<path style="fill:#121111;" d="M5.98,7.527c2.215,1.184,1.995,3.511,2.459,5.438c0.69,2.865-0.347,5.857,0.4,8.753L8.8,21.716
		c0.021,0.021,0.043,0.043,0.064,0.062c-0.006-0.019-0.01-0.036-0.017-0.055c2.883,0.563,3.82-0.118,3.867-2.774
		c0.016-0.906-0.155-1.848-0.046-2.698c0.202-1.567-0.951-3.567,1.229-4.631c0.136-0.065,0.21-0.355,0.229-0.548
		c0.09-0.849,0.569-1.444,1.19-1.968c0.23-0.196,1.211-2.86,1.135-3.095c-0.694-2.129-0.92-4.509-3.085-5.867
		C13.336,0.124,13.339,0.049,13.326,0c-0.308,0-0.615,0-0.924,0c-0.672,0.355-1.153,0.654-1.177,1.669
		c-0.025,1.043-0.929,1.729-2.15,1.724C7.479,3.388,5.911,4.652,5.675,6.137C5.602,6.605,5.403,7.218,5.98,7.527z"/>
	<path style="fill:#121111;" d="M9.058,21.966c-0.065-0.063-0.129-0.125-0.194-0.188c0.027,0.088,0.053,0.176,0.077,0.261
		C8.979,22.016,9.02,21.991,9.058,21.966z"/>
</g>
<g>
</g>
<g>
</g>
<g>
</g>
<g>
</g>
<g>
</g>
<g>
</g>
<g>
</g>
<g>
</g>
<g>
</g>
<g>
</g>
<g>
</g>
<g>
</g>
<g>
</g>
<g>
</g>
<g>
</g>
</svg>
