<?xml version="1.0" encoding="iso-8859-1"?>
<!-- Generator: Adobe Illustrator 16.0.0, SVG Export Plug-In . SVG Version: 6.00 Build 0)  -->
<!DOCTYPE svg PUBLIC "-//W3C//DTD SVG 1.1//EN" "http://www.w3.org/Graphics/SVG/1.1/DTD/svg11.dtd">
<svg version="1.1" id="Capa_1" xmlns="http://www.w3.org/2000/svg" xmlns:xlink="http://www.w3.org/1999/xlink" x="0px" y="0px"
	 width="23.961px" height="23.961px" viewBox="0 0 23.961 23.961" style="enable-background:new 0 0 23.961 23.961;"
	 xml:space="preserve">
<g>
	<path style="fill:#121111;" d="M22.021,6.601c-0.065-0.06-0.16-0.108-0.295-0.139c-0.302-0.474-0.678-0.442-1.093-0.163
		l0.007,0.006l0,0l0.004,0.002c0-0.002,0,0,0,0l-0.004-0.002c-0.002,0-0.002,0.002-0.005,0.002c-0.308-0.048-0.395,0.282-0.62,0.38
		c-0.473-0.037-0.946-0.077-1.436-0.117c0.487-1.189,1.342-1.218,2.453-0.733C20.75,5.38,20.53,5.148,20.445,4.873
		c-0.373-1.237-0.975-0.907-1.685-0.305c-0.884,0.742-1.474,1.815-2.64,2.256c-0.191,0.072-0.282,0.415,0.155,0.777
		c0.876,0.724,2.179-0.482,2.818,0.766c0.113-0.09,0.283-0.158,0.329-0.275c0.368-0.94,0.982-0.51,1.215-0.057
		c0.759,1.466,0.926,0.477,1.204-0.228c0.101,0.002,0.165-0.014,0.211-0.038c0.135-0.078,0.057-0.257,0.012-0.419
		C22.139,7.065,22.215,6.781,22.021,6.601z"/>
	<path style="fill:#121111;" d="M2.748,19.883c3.367,0.365,5.957-1.474,8.405-3.244c2.656-1.92,4.819-4.502,7.875-5.916
		c0.325-0.149,0.825-0.27,0.573-0.976c-0.916,0.662-2.14,0.521-2.439-0.277c-0.699-1.837-1.201-1.417-2.488-0.494
		c-1.02,0.727-0.987,1.537-1.032,2.426c-0.011,0.178,0.544,0.226-0.037,0.62C11.812,13.232,10,13.89,7.871,13
		c-0.457-0.189-1.233,0.021-1.091,0.362c0.281,0.674,0.887,1.504,1.51,1.664c0.532,0.134,1.117,0.399,1.53,0.319
		c-1.123,1.289-3.22,1.21-4.301,2.915c-0.338,0.536-1.309,0.783-2.092,0.685c-0.539-0.068-0.934-0.492-0.942-1.056
		c-0.014-0.755,0.498-0.123,0.737-0.225c0.26-0.112,0.663-0.163,0.619-0.528c-0.027-0.22-0.324-0.343-0.619-0.336
		c-1.014,0.028-1.943-0.232-2.817-0.972c-0.276,1.228,0.751,1.886,0.835,2.858C1.319,19.547,1.936,19.793,2.748,19.883z"/>
	<path style="fill:#121111;" d="M0.494,16.156c0.577,0.127,0.566-0.412,0.618-0.808c0.046-0.335,0.263-0.594,0.551-0.658
		c0.632-0.141,0.615-0.462,0.453-0.976c-0.192-0.602-0.747-0.608-1.149-0.846c-1.342,0.411-0.978,1.36-0.718,2.249
		C0.352,15.469-0.093,16.026,0.494,16.156z"/>
	<path style="fill:#121111;" d="M2.398,13.374c1.449-0.113,1.085-1.574,1.534-2.139C3.324,11.648,2.504,12.15,2.398,13.374z"/>
	<path style="fill:#121111;" d="M23.961,6.833c-0.033-0.061-0.068-0.125-0.105-0.19c-0.031,0.032-0.094,0.072-0.09,0.098
		c0.019,0.069,0.061,0.135,0.093,0.2C23.893,6.908,23.923,6.874,23.961,6.833z"/>
</g>
<g>
</g>
<g>
</g>
<g>
</g>
<g>
</g>
<g>
</g>
<g>
</g>
<g>
</g>
<g>
</g>
<g>
</g>
<g>
</g>
<g>
</g>
<g>
</g>
<g>
</g>
<g>
</g>
<g>
</g>
</svg>
