<?xml version="1.0" encoding="iso-8859-1"?>
<!-- Generator: Adobe Illustrator 16.0.0, SVG Export Plug-In . SVG Version: 6.00 Build 0)  -->
<!DOCTYPE svg PUBLIC "-//W3C//DTD SVG 1.1//EN" "http://www.w3.org/Graphics/SVG/1.1/DTD/svg11.dtd">
<svg version="1.1" id="Capa_1" xmlns="http://www.w3.org/2000/svg" xmlns:xlink="http://www.w3.org/1999/xlink" x="0px" y="0px"
	 width="20.984px" height="20.985px" viewBox="0 0 20.984 20.985" style="enable-background:new 0 0 20.984 20.985;"
	 xml:space="preserve">
<g>
	<path d="M20.984,8.517c-1.684-1.715-3.426-2.596-5.594-2.087c-1.145,0.269-2.119,0.015-3.112-0.462
		c-0.837-0.4-1.682-0.787-2.537-1.146c-1.173-0.49-2.274-0.372-3.339,0.37C5.845,5.581,5.208,5.857,4.589,6.153
		C3.154,6.835,2.138,7.902,1.499,9.355c-0.374,0.851-0.785,1.686-1.229,2.5c-0.645,1.18-0.093,2.549,1.236,2.657
		c0.828,0.062,1.511,0.362,2.195,0.717c0.766,0.396,1.573,0.688,2.401,0.497c1.366-0.316,2.62,0.021,3.876,0.438
		c0.666,0.219,1.372,0.379,2.028,0.245c2.194-0.455,4.367-0.352,6.578-0.118c1.53,0.16,2.299-0.729,2.389-2.312
		c0.076-1.356-0.25-2.646-0.746-3.869C19.894,9.29,19.916,8.787,20.984,8.517z"/>
</g>
<g>
</g>
<g>
</g>
<g>
</g>
<g>
</g>
<g>
</g>
<g>
</g>
<g>
</g>
<g>
</g>
<g>
</g>
<g>
</g>
<g>
</g>
<g>
</g>
<g>
</g>
<g>
</g>
<g>
</g>
</svg>
