<?xml version="1.0" encoding="iso-8859-1"?>
<!-- Generator: Adobe Illustrator 16.0.0, SVG Export Plug-In . SVG Version: 6.00 Build 0)  -->
<!DOCTYPE svg PUBLIC "-//W3C//DTD SVG 1.1//EN" "http://www.w3.org/Graphics/SVG/1.1/DTD/svg11.dtd">
<svg version="1.1" id="Capa_1" xmlns="http://www.w3.org/2000/svg" xmlns:xlink="http://www.w3.org/1999/xlink" x="0px" y="0px"
	 width="21.096px" height="21.097px" viewBox="0 0 21.096 21.097" style="enable-background:new 0 0 21.096 21.097;"
	 xml:space="preserve">
<g>
	<path d="M2.123,2.325C1.648,1.792,1.108,1.299,0.367,1.877c-0.423,0.326-0.512,2.814-0.098,3.151
		c1.162,0.943,2.089,2.007,2.384,3.547c0.065,0.336,0.421,0.673,0.726,0.896c1.688,1.236,2.674,3.29,4.746,4.08
		c0.141,0.053,0.238,0.281,0.306,0.449c1.124,2.8,3.577,4.149,6.026,5.492c0.265,0.143,0.569,0.104,0.814-0.138
		c0.3-0.293,0.237-0.571,0.066-0.922c-0.321-0.651-0.926-1.282,0.212-1.902c0.672-0.364,0.44-1.582,1.337-1.938
		c0.047-0.02,0.099-0.067,0.136-0.057c1.87,0.562,0.838-0.697,0.782-1.313c3.528-0.374,3.548-0.403,1.733-3.001
		c0.477-0.352,1.356,0.273,1.534-0.388c0.188-0.701-0.764-0.894-1.126-1.388c-0.109-0.149-0.301-0.268-0.478-0.334
		c-1.094-0.408-0.827-1.15-0.473-1.9c0.146-0.307,0.411-0.559,0.538-0.872c0.175-0.432,0.638-0.879,0.282-1.353
		c-0.344-0.455-0.863-0.267-1.354-0.142c-0.502,0.13-1.18,0.382-1.494-0.155c-1.134-1.943-2.994-1.458-4.66-1.42
		c-1.724,0.041-3.402-0.117-5.026-0.627c-0.924-0.288-3.053-0.077-3.6,0.7C3.07,3.213,2.652,2.92,2.123,2.325z"/>
</g>
<g>
</g>
<g>
</g>
<g>
</g>
<g>
</g>
<g>
</g>
<g>
</g>
<g>
</g>
<g>
</g>
<g>
</g>
<g>
</g>
<g>
</g>
<g>
</g>
<g>
</g>
<g>
</g>
<g>
</g>
</svg>
