<?xml version="1.0" encoding="iso-8859-1"?>
<!-- Generator: Adobe Illustrator 16.0.0, SVG Export Plug-In . SVG Version: 6.00 Build 0)  -->
<!DOCTYPE svg PUBLIC "-//W3C//DTD SVG 1.1//EN" "http://www.w3.org/Graphics/SVG/1.1/DTD/svg11.dtd">
<svg version="1.1" id="Capa_1" xmlns="http://www.w3.org/2000/svg" xmlns:xlink="http://www.w3.org/1999/xlink" x="0px" y="0px"
	 width="22.035px" height="22.036px" viewBox="0 0 22.035 22.036" style="enable-background:new 0 0 22.035 22.036;"
	 xml:space="preserve">
<g>
	<path style="fill:#121111;" d="M0.326,15.906C0.32,16.492,0.5,16.888,0.914,17.37c0.835,0.969,1.742,2.013,1.031,3.526
		c-0.267,0.565-0.099,1.012,0.732,1.116c1.597,0.198,3.576-0.884,4.154-2.597c0.459-1.361,1.062-1.565,2.23-0.757
		c1.183,0.819,3.222,1.373,3.763,0.457c0.997-1.688,2.945-2.452,3.598-4.299c0.178-0.502,0.402-0.909,0.903-1.155
		c1.354-0.673,2.19-2.055,3.701-2.567c1.261-0.428,0.543-1.127-0.06-1.565c-0.346-0.251-0.854-0.304-1.303-0.38
		c-0.826-0.139-1.377-0.758-1.39-1.421c-0.026-1.441-1.083-1.979-2.011-2.517C14.21,4.021,13.609,1.932,12.723,0
		c-0.41,0-0.82,0-1.229,0C10.3,0.122,9.428,2.111,7.922,0.593c-0.168-0.169-0.69-0.019-1.04,0.036
		c-1.107,0.173-2.207,0.456-3.32,0.53c-0.811,0.056-0.997,0.346-0.98,1.104C2.63,4.464,2.554,6.668,2.621,8.867
		c0.028,0.937-0.229,1.349-1.19,1.187c-0.863-0.146-1.153,0.213-1.117,1.091C0.379,12.729,0.343,14.319,0.326,15.906z"/>
</g>
<g>
</g>
<g>
</g>
<g>
</g>
<g>
</g>
<g>
</g>
<g>
</g>
<g>
</g>
<g>
</g>
<g>
</g>
<g>
</g>
<g>
</g>
<g>
</g>
<g>
</g>
<g>
</g>
<g>
</g>
</svg>
