<?xml version="1.0" encoding="iso-8859-1"?>
<!-- Generator: Adobe Illustrator 16.0.0, SVG Export Plug-In . SVG Version: 6.00 Build 0)  -->
<!DOCTYPE svg PUBLIC "-//W3C//DTD SVG 1.1//EN" "http://www.w3.org/Graphics/SVG/1.1/DTD/svg11.dtd">
<svg version="1.1" id="Capa_1" xmlns="http://www.w3.org/2000/svg" xmlns:xlink="http://www.w3.org/1999/xlink" x="0px" y="0px"
	 width="22.096px" height="22.096px" viewBox="0 0 22.096 22.096" style="enable-background:new 0 0 22.096 22.096;"
	 xml:space="preserve">
<g>
	<path style="fill:#121111;" d="M13.552,5.676c-0.476,0.133-0.799,0.168-0.718-0.489c0.22-1.774-0.39-2.563-2.164-2.769
		c-0.303-0.038-0.667,0.066-0.858-0.205c-1.406-1.989-3.74-1.486-5.652-2.1C3.067-0.239,2.48,0.228,2.502,1.5
		c0.057,3.228,0.034,6.455,0.005,9.684c-0.009,0.692,0.122,1.133,0.862,1.361c0.696,0.211,1.313,0.631,1.312,1.495
		c-0.003,2.197,0.156,4.414-0.108,6.577c-0.152,1.239-0.008,1.598,1.189,1.445c0.303-0.038,0.613-0.006,0.92-0.006
		c0.255,0,0.526,0.053,0.766-0.01c1.108-0.274,2.904,0.572,2.819-1.696c-0.007-0.23,0.213-0.151,0.341-0.194
		c1.606-0.521,2.379-1.923,2.843-3.286c0.307-0.903,0.784-1.413,1.473-1.479c1.863-0.172,2.39-1.55,2.571-2.931
		c0.154-1.171,0.664-1.95,1.447-2.664c0.658-0.601,0.846-1.317,0.438-2.062C18.911,6.874,14.576,5.395,13.552,5.676z"/>
</g>
<g>
</g>
<g>
</g>
<g>
</g>
<g>
</g>
<g>
</g>
<g>
</g>
<g>
</g>
<g>
</g>
<g>
</g>
<g>
</g>
<g>
</g>
<g>
</g>
<g>
</g>
<g>
</g>
<g>
</g>
</svg>
