<?xml version="1.0" encoding="iso-8859-1"?>
<!-- Generator: Adobe Illustrator 16.0.0, SVG Export Plug-In . SVG Version: 6.00 Build 0)  -->
<!DOCTYPE svg PUBLIC "-//W3C//DTD SVG 1.1//EN" "http://www.w3.org/Graphics/SVG/1.1/DTD/svg11.dtd">
<svg version="1.1" id="Capa_1" xmlns="http://www.w3.org/2000/svg" xmlns:xlink="http://www.w3.org/1999/xlink" x="0px" y="0px"
	 width="21.463px" height="21.462px" viewBox="0 0 21.463 21.462" style="enable-background:new 0 0 21.463 21.462;"
	 xml:space="preserve">
<g>
	<path d="M4.162,14.577c0.034,0.347,0.418,0.701,0.878,0.654c1.011-0.101,1.453,0.577,1.932,1.283
		c0.467,0.688,1.003,1.328,1.527,1.978c0.643,0.795,1.316,0.767,2.162,0.213c2.068-1.348,1.914-3.721,2.701-5.653
		c0.063-0.153-0.148-0.451-0.282-0.647c-0.931-1.369-0.679-3.02-1.084-4.514c-0.125-0.456,0.222-0.743,0.549-0.948
		c1.194-0.76,2.405-1.49,3.933-2.429c-0.144,2.637,0.051,4.893,0.828,7.09c0.544,1.54,1.455,2.281,3.084,2.161
		c0.93-0.068,1.473-0.379,0.719-1.345c-0.457-0.588-0.506-1.296-0.483-1.962c0.063-1.851-0.687-3.421-1.487-5.001
		c-0.342-0.677-0.752-1.129-1.58-1.019c-0.58,0.078-0.873-0.04-0.807-0.785c0.119-1.354-0.227-1.568-1.455-1.004
		c-1.65,0.757-3.23,1.631-4.591,2.867C9.167,6.911,7.387,7.911,5.501,8.786C3.884,9.538,2.166,9.503,0,9.68
		C2.443,10.835,3.928,12.205,4.162,14.577z"/>
</g>
<g>
</g>
<g>
</g>
<g>
</g>
<g>
</g>
<g>
</g>
<g>
</g>
<g>
</g>
<g>
</g>
<g>
</g>
<g>
</g>
<g>
</g>
<g>
</g>
<g>
</g>
<g>
</g>
<g>
</g>
</svg>
