<?xml version="1.0" encoding="iso-8859-1"?>
<!-- Generator: Adobe Illustrator 16.0.0, SVG Export Plug-In . SVG Version: 6.00 Build 0)  -->
<!DOCTYPE svg PUBLIC "-//W3C//DTD SVG 1.1//EN" "http://www.w3.org/Graphics/SVG/1.1/DTD/svg11.dtd">
<svg version="1.1" id="Capa_1" xmlns="http://www.w3.org/2000/svg" xmlns:xlink="http://www.w3.org/1999/xlink" x="0px" y="0px"
	 width="21.159px" height="21.159px" viewBox="0 0 21.159 21.159" style="enable-background:new 0 0 21.159 21.159;"
	 xml:space="preserve">
<g>
	<path d="M18.833,9.817c0.059-1.014,0.313-1.864,1.576-1.833c0.655,0.014,0.635-0.512,0.725-0.913
		c0.138-0.617-0.343-0.532-0.722-0.617c-0.424-0.093-0.865-0.218-1.226-0.446c-2.688-1.681-4.892-1.636-7.382,0.217
		c-0.627,0.468-1.307,0.616-2.062,0.525C7.112,6.431,4.479,6.114,1.83,5.792c0.059-0.283,0.872-0.56,0.097-0.927
		c-0.372-0.179-0.655-0.658-1.2-0.005c-1.023,1.222-1.036,2.133,0.408,3.228C2.092,8.816,2.019,9.544,1.07,9.892
		c-0.848,0.31-0.713,0.786-0.836,1.396c-0.24,1.182,0.034,1.96,1.191,2.455c0.276,0.12,0.589,0.718,0.517,0.997
		c-0.61,2.306,0.905,1.554,2.024,1.503c0.61-0.026,1.172-0.173,1.698-0.408c0.579-0.26,1.198-0.39,1.672-0.043
		c1.506,1.102,3.163,0.851,4.825,0.715c0.326-0.026,0.76-0.272,0.699-0.413c-0.638-1.472,0.848-1.396,1.419-1.888
		c0.647-0.555,1.701-0.981,2.393-0.578c0.915,0.53,1.626,0.175,2.483,0.146c-0.994-1.688-0.992-1.685-0.384-3.374
		C18.836,10.222,18.824,10.011,18.833,9.817z"/>
</g>
<g>
</g>
<g>
</g>
<g>
</g>
<g>
</g>
<g>
</g>
<g>
</g>
<g>
</g>
<g>
</g>
<g>
</g>
<g>
</g>
<g>
</g>
<g>
</g>
<g>
</g>
<g>
</g>
<g>
</g>
</svg>
