<?xml version="1.0" encoding="iso-8859-1"?>
<!-- Generator: Adobe Illustrator 16.0.0, SVG Export Plug-In . SVG Version: 6.00 Build 0)  -->
<!DOCTYPE svg PUBLIC "-//W3C//DTD SVG 1.1//EN" "http://www.w3.org/Graphics/SVG/1.1/DTD/svg11.dtd">
<svg version="1.1" id="Capa_1" xmlns="http://www.w3.org/2000/svg" xmlns:xlink="http://www.w3.org/1999/xlink" x="0px" y="0px"
	 width="21.019px" height="21.018px" viewBox="0 0 21.019 21.018" style="enable-background:new 0 0 21.019 21.018;"
	 xml:space="preserve">
<g>
	<path d="M0.189,15.594c1.205,0.418,1.41,2.086,2.821,2.08c0.136,0,0.29-0.04,0.406-0.111c1.55-0.948,2.913-0.804,4.244,0.604
		c-0.09-0.87-0.003-1.811-0.311-2.597c-0.476-1.216-0.06-1.581,1.049-1.458c2.682,0.297,5.362-0.589,8.047,0.028
		c0.521,0.12,1.088-0.063,1.453-0.534c0.426-0.547,0.981-0.646,1.641-0.675c1.386-0.062,1.793-0.785,1.244-2.048
		c-0.056-0.131-0.174-0.292-0.14-0.398c0.44-1.333-0.28-1.078-1.185-1.06c-0.864,0.018-2.047-0.804-1.823-1.449
		c0.294-0.845-0.138-0.967-0.504-1.156c-0.659-0.34-0.89-0.926-1.279-1.472c-0.512-0.716,0.056-1.882-0.907-2.208
		c-0.893-0.301-1.865-0.535-2.777,0.204C11.221,4.11,9.859,4.224,9.049,5.24c-1.947-0.638-2.09,1.386-3.04,2.168
		C5.566,7.772,5.448,7.981,4.887,7.707C3.889,7.22,3.507,7.614,3.288,8.636c-0.22,1.028-0.235,2.366-1.751,2.588
		c-0.695,0.101-1.106,0.416-0.843,1.186c0.146,0.425-0.01,0.798-0.234,1.101C-0.054,14.197-0.126,15.484,0.189,15.594z"/>
</g>
<g>
</g>
<g>
</g>
<g>
</g>
<g>
</g>
<g>
</g>
<g>
</g>
<g>
</g>
<g>
</g>
<g>
</g>
<g>
</g>
<g>
</g>
<g>
</g>
<g>
</g>
<g>
</g>
<g>
</g>
</svg>
