<?xml version="1.0" encoding="iso-8859-1"?>
<!-- Generator: Adobe Illustrator 16.0.0, SVG Export Plug-In . SVG Version: 6.00 Build 0)  -->
<!DOCTYPE svg PUBLIC "-//W3C//DTD SVG 1.1//EN" "http://www.w3.org/Graphics/SVG/1.1/DTD/svg11.dtd">
<svg version="1.1" id="Capa_1" xmlns="http://www.w3.org/2000/svg" xmlns:xlink="http://www.w3.org/1999/xlink" x="0px" y="0px"
	 width="22.154px" height="22.154px" viewBox="0 0 22.154 22.154" style="enable-background:new 0 0 22.154 22.154;"
	 xml:space="preserve">
<g>
	<path style="fill:#121111;" d="M2.404,5.657c1.207,1.163,1.752,2.46,1.519,4.232c-0.237,1.807-0.06,3.669-0.051,5.506
		c0.003,0.565,0.056,1.129,0.403,1.607c0.836,1.155,1.121,2.494,1.312,3.867c0.105,0.758,0.349,1.131,1.31,1.243
		c2.258,0.265,3.857-0.785,5.221-2.273c1.711-1.866,2.989-4.052,4.162-6.297c0.689-1.319,1.976-2.199,2.998-3.188
		c0.697-0.676,1.07-1.114,1.064-2.015c-0.005-0.964-0.247-1.645-1.372-1.75c-0.545-0.051-1.079-0.278-1.609-0.456
		c-0.377-0.125-0.88-0.229-0.84-0.742c0.072-0.953,0.062-1.971,0.413-2.828c0.415-1.019,0.86-1.857-0.367-2.564
		c-0.513,0-1.025,0-1.537,0c-0.958,0.443-1.813,1.429-3.012,0.375c-0.423-0.37-0.877-0.151-0.909,0.513
		c-0.02,0.409-0.057,0.816-0.063,1.226c-0.022,1.356-0.525,2.329-1.948,2.71C7.398,5.28,5.702,4.924,4.929,3.906
		C4.331,3.118,3.433,2.726,2.533,2.934c-0.71,0.164-0.724,1.014-0.722,1.697C1.815,5.092,2.111,5.375,2.404,5.657z"/>
</g>
<g>
</g>
<g>
</g>
<g>
</g>
<g>
</g>
<g>
</g>
<g>
</g>
<g>
</g>
<g>
</g>
<g>
</g>
<g>
</g>
<g>
</g>
<g>
</g>
<g>
</g>
<g>
</g>
<g>
</g>
</svg>
