<?xml version="1.0" encoding="iso-8859-1"?>
<!-- Generator: Adobe Illustrator 16.0.0, SVG Export Plug-In . SVG Version: 6.00 Build 0)  -->
<!DOCTYPE svg PUBLIC "-//W3C//DTD SVG 1.1//EN" "http://www.w3.org/Graphics/SVG/1.1/DTD/svg11.dtd">
<svg version="1.1" id="Capa_1" xmlns="http://www.w3.org/2000/svg" xmlns:xlink="http://www.w3.org/1999/xlink" x="0px" y="0px"
	 width="22.164px" height="22.163px" viewBox="0 0 22.164 22.163" style="enable-background:new 0 0 22.164 22.163;"
	 xml:space="preserve">
<g>
	<path style="fill:#121111;" d="M1.626,11.823c0.362,1.192,0.73,2.334,1.333,3.423c0.174,0.312,0.802,0.688-0.014,1.006
		c0.504,0.508,0.242,1.331,0.702,1.811c0.225,0.236,0.674,0.155,0.998-0.064c0.289-0.195,0.332-1.072,0.949-0.363
		c0.345,0.397,0.423,0.801-0.093,1.168c-0.267,0.189-0.403,0.491-0.185,0.791c0.21,0.292,0.523,0.265,0.823,0.12
		c0.745-0.363,1.482-0.093,2.153,0.145c1.277,0.45,2.708-0.063,3.389-1.348c0.053-0.053,0.106-0.104,0.16-0.153
		c0.794-0.089,1.577-0.339,2.37-0.311c0.159,0.006,0.317,0.022,0.478,0.055c0.319,0.064,0.64,0.188,0.966,0.395
		c0.602,0.385,0.489-0.432,0.498-0.724c0.014-0.463-0.481-0.607-0.771-0.881c-0.497-0.465-0.629-1.148-0.412-1.647
		c0.207-0.475,0.851-0.686,1.459-0.434c0.562,0.233,0.88,0.115,0.837-0.561c-0.029-0.451,0.354-0.354,0.606-0.485
		c1.949-1.008,5.05-1.08,3.912-4.681c-0.039-0.125,0.036-0.307,0.102-0.44c0.49-0.966,0.283-1.864-0.226-2.75
		c-0.636-1.107-0.656-2.203,0.12-3.265c0.076-0.172,0.12-0.34-0.052-0.483c-0.075,0.09-0.15,0.183-0.226,0.273
		c-0.288,0.078-0.658,0.065-0.851,0.245c-0.922,0.85-1.707,1.159-2.848,0.165c-0.626-0.545-1.376,0.458-2.118,0.643
		c-0.646,0.165-0.117,0.63,0.006,0.966c0.155,0.434,0.08,1.073-0.41,0.761c-0.907-0.582-1.926-0.675-2.858-1.066
		c-1.049-0.44-1.941-1.153-3.259-0.785C8.263,3.598,7.218,3.528,6.27,3.385C4.342,3.096,2.891,3.619,1.931,5.379
		c-0.263,0.485-0.602,1.149-1.04,1.276c-1.284,0.376-0.89,1.156-0.594,1.888C0.746,9.64,1.31,10.784,1.626,11.823z"/>
</g>
<g>
</g>
<g>
</g>
<g>
</g>
<g>
</g>
<g>
</g>
<g>
</g>
<g>
</g>
<g>
</g>
<g>
</g>
<g>
</g>
<g>
</g>
<g>
</g>
<g>
</g>
<g>
</g>
<g>
</g>
</svg>
