<?xml version="1.0" encoding="iso-8859-1"?>
<!-- Generator: Adobe Illustrator 16.0.0, SVG Export Plug-In . SVG Version: 6.00 Build 0)  -->
<!DOCTYPE svg PUBLIC "-//W3C//DTD SVG 1.1//EN" "http://www.w3.org/Graphics/SVG/1.1/DTD/svg11.dtd">
<svg version="1.1" id="Capa_1" xmlns="http://www.w3.org/2000/svg" xmlns:xlink="http://www.w3.org/1999/xlink" x="0px" y="0px"
	 width="21.046px" height="21.046px" viewBox="0 0 21.046 21.046" style="enable-background:new 0 0 21.046 21.046;"
	 xml:space="preserve">
<g>
	<path d="M4.209,16.523c1.199,0.785,1.92,1.709,1.585,3.228c-0.096,0.433,0.227,0.597,0.632,0.591
		c0.639-0.007,1.292,0.075,1.914-0.029c3.117-0.525,6.13,0.043,9.141,0.733c0.021-0.995,0.299-2.038-0.777-2.872
		c-1.183-0.917-1.634-2.34-2.012-3.736c-0.349-1.287,0.402-2.306,1.093-3.211c1.001-1.317,0.321-2.233-0.488-3.175
		c-0.283-0.33-0.694-0.546-1.006-0.856c-0.267-0.265-0.707-0.519-0.572-0.952c0.184-0.586,0.741-0.312,1.147-0.334
		c0.517-0.029,1.037-0.007,1.814-0.007C14.929,4.116,15.923,1.707,14.639,0c-0.393,0-0.787,0-1.181,0
		c0.404,0.39,0.084,1.077,0.604,1.43c1.112,0.757,0.522,1.378-0.248,1.818c-0.507,0.289-0.938,0.642-1.092,1.134
		c-0.773,2.486-2.627,4.409-3.511,6.838c-0.233,0.64-0.646,1.54-1.42,0.31c-0.15-0.239-0.393-0.277-0.749-0.233
		c-1.519,0.185-2.385,1.218-2.93,2.416C3.732,14.55,2.944,15.693,4.209,16.523z"/>
</g>
<g>
</g>
<g>
</g>
<g>
</g>
<g>
</g>
<g>
</g>
<g>
</g>
<g>
</g>
<g>
</g>
<g>
</g>
<g>
</g>
<g>
</g>
<g>
</g>
<g>
</g>
<g>
</g>
<g>
</g>
</svg>
