<?xml version="1.0" encoding="iso-8859-1"?>
<!-- Generator: Adobe Illustrator 16.0.0, SVG Export Plug-In . SVG Version: 6.00 Build 0)  -->
<!DOCTYPE svg PUBLIC "-//W3C//DTD SVG 1.1//EN" "http://www.w3.org/Graphics/SVG/1.1/DTD/svg11.dtd">
<svg version="1.1" id="Capa_1" xmlns="http://www.w3.org/2000/svg" xmlns:xlink="http://www.w3.org/1999/xlink" x="0px" y="0px"
	 width="23.161px" height="23.161px" viewBox="0 0 23.161 23.161" style="enable-background:new 0 0 23.161 23.161;"
	 xml:space="preserve">
<g>
	<path d="M21.436,15.083c-0.878-0.854-1.352-1.945-0.611-3.191c0.181-0.304,0.324-0.654,0.054-0.958
		c-1.3-1.447-2.718-2.739-4.595-3.287c0.815-1.515,2.08-2.595,3.662-3.341c0.467-0.219,1.107-0.418,1.022-1.094
		c-0.084-0.655-0.838-0.328-1.194-0.633c-1.279,0-2.557,0-3.836,0c-0.793,0.244-1.625,0.199-2.435,0.314
		c-1.835,0.262-2.855,1.39-2.697,3.19c0.094,1.071-0.355,1.367-1.287,1.5C8.232,7.766,7.028,7.562,5.78,7.22
		C4.24,6.796,3.486,7.662,3.914,9.185c0.271,0.264,0.691,0.215,0.982,0.431c-0.398-0.202-0.86-0.245-1.254-0.459
		C2.426,9.302,1.2,9.373,0,9.663c0,1.476,0,2.949,0,4.428c1.271,0.762,2.121,1.896,2.928,3.115c0.694,1.052,1.846,1.402,3.086,1.41
		c1.617,0.012,3.236-0.004,4.855,0.007c1.692,0.012,3.333,0.142,4.182,1.96c0.098,0,0.196,0,0.295,0
		c1.15-0.331,2.36-0.521,3.303-1.357c0.293-0.262,0.021,0.144,0.123,0.1c0.075,0.303,0.26,0.555,0.539,0.644
		c1.326,0.431,2.104-1.12,3.396-0.958c0.4,0.051,0.472-0.41,0.451-0.773C22.924,16.999,22.361,15.983,21.436,15.083z M15.439,15.684
		c-0.699-0.324-1.438-0.57-2.09-0.967c-0.403-0.244-1.325-0.438-0.81-1.15c0.331-0.451,0.764-1.174,1.769-0.699
		c1.065,0.51,2.143,0.831,2.09,2.385C16.283,15.608,16.033,15.958,15.439,15.684z M15.436,12c-0.324-0.234,0.307-1.412,0.572-1.185
		c0.34,0.287,0.734,0.365,1.12,0.685C16.441,11.372,16.146,12.522,15.436,12z"/>
</g>
<g>
</g>
<g>
</g>
<g>
</g>
<g>
</g>
<g>
</g>
<g>
</g>
<g>
</g>
<g>
</g>
<g>
</g>
<g>
</g>
<g>
</g>
<g>
</g>
<g>
</g>
<g>
</g>
<g>
</g>
</svg>
