<?xml version="1.0" encoding="iso-8859-1"?>
<!-- Generator: Adobe Illustrator 16.0.0, SVG Export Plug-In . SVG Version: 6.00 Build 0)  -->
<!DOCTYPE svg PUBLIC "-//W3C//DTD SVG 1.1//EN" "http://www.w3.org/Graphics/SVG/1.1/DTD/svg11.dtd">
<svg version="1.1" id="Capa_1" xmlns="http://www.w3.org/2000/svg" xmlns:xlink="http://www.w3.org/1999/xlink" x="0px" y="0px"
	 width="21.422px" height="21.422px" viewBox="0 0 21.422 21.422" style="enable-background:new 0 0 21.422 21.422;"
	 xml:space="preserve">
<g>
	<path d="M14.021,19.745c0.375,0.034,0.747,0.137,1.04-0.308c0.324-0.496,0.063-0.815-0.189-1.165
		c-0.538-0.743-1.475-1.068-1.993-2.227c-0.23,0.805-0.392,1.217-0.461,1.645C12.252,18.686,13.015,19.653,14.021,19.745z"/>
	<path d="M0.927,3.157c0.879-0.209,1.521-0.717,2.006-1.39C2.69,1.162,2.244,0.712,1.816,0.929C1.138,1.271-0.065,1.105,0.003,2.38
		C0.032,2.927,0.252,3.318,0.927,3.157z"/>
	<path d="M20.193,8.843c-1.167-0.254-0.766,0.855-0.998,1.328c-0.27,0.546,0.39,0.812,0.765,0.809
		c0.711-0.005,1.417-0.317,1.46-1.146C21.455,9.119,20.905,8.843,20.193,8.843z"/>
	<path d="M8.145,6.61c0.609-1.043,1.647-0.047,2.474-0.603C9.809,5.205,8.808,5.63,8.02,5.221C7.741,5.076,7.405,5.337,7.489,5.678
		C7.588,6.066,8.075,6.73,8.145,6.61z"/>
	<path d="M7.597,20.547c0.579-0.023,0.864-0.346,0.881-0.917c-0.182-0.423-0.215-1.02-0.896-0.897
		c-0.533,0.097-1.095,0.336-1.007,0.98C6.641,20.183,7.018,20.571,7.597,20.547z"/>
	<path d="M17.362,17.942c0.495-0.044,0.655-0.352,0.604-0.843c0.036-0.435-0.17-0.745-0.647-0.742
		c-0.562,0.004-0.498,0.473-0.548,0.851C16.712,17.667,16.806,17.994,17.362,17.942z"/>
	<path d="M2.038,3.863C2.04,4.216,2.472,4.318,2.861,4.32c0.313-0.063,0.831,0.071,0.766-0.527c-0.035-0.32-0.216-0.715-0.644-0.632
		C2.583,3.238,2.035,3.343,2.038,3.863z"/>
	<path d="M19.59,5.868c0.237-0.788,0.262-1.441-0.067-2.027c-0.118-0.209-0.502,0.013-0.576,0.214
		C18.684,4.75,18.893,5.318,19.59,5.868z"/>
</g>
<g>
</g>
<g>
</g>
<g>
</g>
<g>
</g>
<g>
</g>
<g>
</g>
<g>
</g>
<g>
</g>
<g>
</g>
<g>
</g>
<g>
</g>
<g>
</g>
<g>
</g>
<g>
</g>
<g>
</g>
</svg>
