<?xml version="1.0" encoding="iso-8859-1"?>
<!-- Generator: Adobe Illustrator 16.0.0, SVG Export Plug-In . SVG Version: 6.00 Build 0)  -->
<!DOCTYPE svg PUBLIC "-//W3C//DTD SVG 1.1//EN" "http://www.w3.org/Graphics/SVG/1.1/DTD/svg11.dtd">
<svg version="1.1" id="Capa_1" xmlns="http://www.w3.org/2000/svg" xmlns:xlink="http://www.w3.org/1999/xlink" x="0px" y="0px"
	 width="21.123px" height="21.123px" viewBox="0 0 21.123 21.123" style="enable-background:new 0 0 21.123 21.123;"
	 xml:space="preserve">
<g>
	<path d="M2.778,17.849c0.271-2.229,1.554-2.439,3.265-2.04c0.478,0.111,0.746-0.218,0.835-0.85c0.25-1.728,1.329-2.167,2.631-1.117
		c0.406,0.327,0.819,0.515,1.29,0.604c1.144,0.219,2.124-0.061,3.28-0.407c1.864-0.559,3.905-1.424,6.03-0.8
		c0.301,0.088,0.976-0.12,0.995-0.262c0.058-0.394,0-0.901-0.474-1.122c-0.609-0.285-0.79-0.991-1.185-1.328
		c-0.976-0.829-1.653-1.943-2.751-2.649c-0.833-0.537-1.99-0.829-1.635-2.399c0.211-0.931-0.716-1.768-1.534-2.119
		c-0.762-0.326-1.313,0.317-1.853,0.998c-0.925,1.167-1.962,2.359-3.741,2.176C7.72,6.514,7.3,6.652,7.292,6.743
		c-0.199,2.385-2.57,1.076-3.547,2.104c-3.038-0.525-4.59,3.08-3.273,5.531C1.112,15.568,2.427,16.274,2.778,17.849z"/>
</g>
<g>
</g>
<g>
</g>
<g>
</g>
<g>
</g>
<g>
</g>
<g>
</g>
<g>
</g>
<g>
</g>
<g>
</g>
<g>
</g>
<g>
</g>
<g>
</g>
<g>
</g>
<g>
</g>
<g>
</g>
</svg>
