<?xml version="1.0" encoding="iso-8859-1"?>
<!-- Generator: Adobe Illustrator 16.0.0, SVG Export Plug-In . SVG Version: 6.00 Build 0)  -->
<!DOCTYPE svg PUBLIC "-//W3C//DTD SVG 1.1//EN" "http://www.w3.org/Graphics/SVG/1.1/DTD/svg11.dtd">
<svg version="1.1" id="Capa_1" xmlns="http://www.w3.org/2000/svg" xmlns:xlink="http://www.w3.org/1999/xlink" x="0px" y="0px"
	 width="22.078px" height="22.078px" viewBox="0 0 22.078 22.078" style="enable-background:new 0 0 22.078 22.078;"
	 xml:space="preserve">
<g>
	<path style="fill:#121111;" d="M4.918,14.439c0.764,0.478,1.089,1.182,1.117,2.027c0.02,0.649-0.053,1.303,0.366,1.844
		c-0.576,0.456-1.379-0.133-1.721,0.605c-0.093,0.204,2.281,3.169,2.517,3.162c0.048-0.002,0.095-0.053,0.142-0.053
		c2.442-0.014,4.21-1.761,6.372-2.495c0.17-0.058,0.259-0.324,0.424-0.433c0.824-0.537,1.111-1.76,2.347-1.792
		c0.292-0.009,0.4-0.39,0.175-0.574c-0.504-0.417-0.361-1.041-0.601-1.531c-0.485-0.995,0.165-4.067,1.101-4.242
		c1.206-0.226,0.948-0.931,0.956-1.643c0.01-0.871-0.062-1.748,0.021-2.61c0.096-0.967-0.32-1.4-1.156-1.843
		C13.935,3.256,10.75,1.918,7.879,0C7.468,0,7.06,0,6.646,0C5.636,0.921,5.902,2.021,6.43,2.978C7.003,4.016,6.958,5.022,6.89,6.13
		C6.774,8,6.493,9.739,4.893,10.982c-0.229,0.177-0.337,0.507-0.51,0.759C3.644,12.823,3.805,13.743,4.918,14.439z"/>
</g>
<g>
</g>
<g>
</g>
<g>
</g>
<g>
</g>
<g>
</g>
<g>
</g>
<g>
</g>
<g>
</g>
<g>
</g>
<g>
</g>
<g>
</g>
<g>
</g>
<g>
</g>
<g>
</g>
<g>
</g>
</svg>
