<?xml version="1.0" encoding="iso-8859-1"?>
<!-- Generator: Adobe Illustrator 16.0.0, SVG Export Plug-In . SVG Version: 6.00 Build 0)  -->
<!DOCTYPE svg PUBLIC "-//W3C//DTD SVG 1.1//EN" "http://www.w3.org/Graphics/SVG/1.1/DTD/svg11.dtd">
<svg version="1.1" id="Capa_1" xmlns="http://www.w3.org/2000/svg" xmlns:xlink="http://www.w3.org/1999/xlink" x="0px" y="0px"
	 width="21.995px" height="21.995px" viewBox="0 0 21.995 21.995" style="enable-background:new 0 0 21.995 21.995;"
	 xml:space="preserve">
<g>
	<path style="fill:#121111;" d="M12.523,1.229c-0.229-0.391-0.111-1.261-0.613-1.229c-0.715,0.047-0.245,0.798-0.207,1.256
		c-0.407,2.699-0.693,5.426-1.261,8.094c-0.326,1.534-1.073,2.928-0.329,4.576c0.23,0.505,0.268,1.458-0.629,1.835
		C9.127,15.91,8.784,16.08,9.247,16.5c0.393,0.356,0.183,0.746,0.058,1.132c-0.47,1.427,0.742,3.951,2.093,4.246
		c0.345,0.075,0.968,0.376,1.048-0.427c0.079-0.799-0.112-1.52-0.996-1.586c-1.085-0.082-1.505-1.228-1.295-1.554
		c1.491-2.322,0.154-4.974,1.037-7.354c0.438-1.186,0.781-2.469,0.447-3.826c-0.106-0.421,0.182-0.979,0.382-1.436
		C12.66,4.256,13.505,2.885,12.523,1.229z"/>
</g>
<g>
</g>
<g>
</g>
<g>
</g>
<g>
</g>
<g>
</g>
<g>
</g>
<g>
</g>
<g>
</g>
<g>
</g>
<g>
</g>
<g>
</g>
<g>
</g>
<g>
</g>
<g>
</g>
<g>
</g>
</svg>
