<?xml version="1.0" encoding="iso-8859-1"?>
<!-- Generator: Adobe Illustrator 16.0.0, SVG Export Plug-In . SVG Version: 6.00 Build 0)  -->
<!DOCTYPE svg PUBLIC "-//W3C//DTD SVG 1.1//EN" "http://www.w3.org/Graphics/SVG/1.1/DTD/svg11.dtd">
<svg version="1.1" id="Capa_1" xmlns="http://www.w3.org/2000/svg" xmlns:xlink="http://www.w3.org/1999/xlink" x="0px" y="0px"
	 width="21.209px" height="21.209px" viewBox="0 0 21.209 21.209" style="enable-background:new 0 0 21.209 21.209;"
	 xml:space="preserve">
<g>
	<path d="M1.926,13.05c-0.005,0.074,0.212,0.188,0.343,0.248c1.556,0.688,3.04,1.646,4.887,0.67
		c0.308-0.162,1.776-0.206,1.153,1.202c-0.283,0.641,0.468,0.86,0.686,1.307c0.167,0.338,0.515,0.17,0.916-0.077
		c0.967-0.598,1.709-0.146,2.161,1.082c0.038,0.104,0.206,0.248,0.281,0.23c0.174-0.039,0.464-0.155,0.469-0.255
		c0.052-1.09,0.95-1.007,1.637-1.24c1.538-0.519,2.75-2.616,2.021-3.747c-0.558-0.87-0.527-1.385,0.551-1.815
		c-0.35-0.157-0.475-0.229-0.608-0.27c-0.27-0.086-0.802,0.248-0.721-0.353c0.026-0.198,0.395-0.983,0.819-0.133
		c0.018,0.036,0.245-0.002,0.354-0.051c1.801-0.804,3.558-1.662,4.334-3.866c-1.463,0.23-2.257-0.38-2.793-1.509
		c-0.415-0.874-1.702-1.292-2.161-0.701c-0.389,0.499-0.328,1.302-1.118,1.562c-1.152,0.377-0.576,0.813-0.007,1.227
		c-0.056,0.065-0.097,0.157-0.167,0.195c-1.035,0.579-2.014,1.381-3.127,1.671c-1.541,0.406-3.1,0.188-4.544-0.754
		c-0.617-0.401-1.15-0.701-1.557-1.381C5.251,5.484,2.612,6.296,2.382,7.517C2.153,8.735,1.5,8.972,0.584,9.229
		c-0.539,0.15-0.772,0.384-0.411,1.058C0.692,11.253,2.031,11.695,1.926,13.05z"/>
</g>
<g>
</g>
<g>
</g>
<g>
</g>
<g>
</g>
<g>
</g>
<g>
</g>
<g>
</g>
<g>
</g>
<g>
</g>
<g>
</g>
<g>
</g>
<g>
</g>
<g>
</g>
<g>
</g>
<g>
</g>
</svg>
