<?xml version="1.0" encoding="iso-8859-1"?>
<!-- Generator: Adobe Illustrator 16.0.0, SVG Export Plug-In . SVG Version: 6.00 Build 0)  -->
<!DOCTYPE svg PUBLIC "-//W3C//DTD SVG 1.1//EN" "http://www.w3.org/Graphics/SVG/1.1/DTD/svg11.dtd">
<svg version="1.1" id="Capa_1" xmlns="http://www.w3.org/2000/svg" xmlns:xlink="http://www.w3.org/1999/xlink" x="0px" y="0px"
	 width="23.116px" height="23.116px" viewBox="0 0 23.116 23.116" style="enable-background:new 0 0 23.116 23.116;"
	 xml:space="preserve">
<g>
	<path style="fill:#121111;" d="M3.315,12.206c0.903,0.239,1.226-0.362,0.983-1.141c-0.271-0.87-0.616-1.736-1.069-2.527
		c-0.563-0.986-0.697-2.001-0.585-3.09c0.021-0.153,0.038-0.305,0.058-0.457C2.819,4.099,2.92,3.106,1.7,3.03
		C0.549,2.958,0.374,3.961,0.264,4.84C0.162,5.652,0.18,6.478,0.07,7.289C-0.285,9.943,0.702,11.514,3.315,12.206z"/>
	<path style="fill:#121111;" d="M23.081,19.028c0.15-1.264-0.207-2.421-0.703-3.56c-0.308-0.71-0.966-0.681-1.142-0.173
		c-0.57,1.667-1.905,1.153-3.127,1.424c1.416,0.835,2.734,1.727,3.897,2.857C22.614,20.168,22.994,19.763,23.081,19.028z"/>
	<path style="fill:#121111;" d="M8.953,19.724c0.846,0.155,1.704,0.229,2.771,0.365c-0.582-1.085-1.468-1.511-2.296-1.929
		c-0.408-0.204-1.193-0.563-1.42,0.098C7.797,18.872,8.155,19.578,8.953,19.724z"/>
</g>
<g>
</g>
<g>
</g>
<g>
</g>
<g>
</g>
<g>
</g>
<g>
</g>
<g>
</g>
<g>
</g>
<g>
</g>
<g>
</g>
<g>
</g>
<g>
</g>
<g>
</g>
<g>
</g>
<g>
</g>
</svg>
