<?xml version="1.0" encoding="iso-8859-1"?>
<!-- Generator: Adobe Illustrator 16.0.0, SVG Export Plug-In . SVG Version: 6.00 Build 0)  -->
<!DOCTYPE svg PUBLIC "-//W3C//DTD SVG 1.1//EN" "http://www.w3.org/Graphics/SVG/1.1/DTD/svg11.dtd">
<svg version="1.1" id="Capa_1" xmlns="http://www.w3.org/2000/svg" xmlns:xlink="http://www.w3.org/1999/xlink" x="0px" y="0px"
	 width="21.115px" height="21.115px" viewBox="0 0 21.115 21.115" style="enable-background:new 0 0 21.115 21.115;"
	 xml:space="preserve">
<g>
	<path d="M20.734,10.557c-0.705-0.099-1.1-0.625-1.523-1.081c-1.947-2.106-4.086-4.088-4.702-7.179
		c-1.267,1.44-2.618,1.397-3.922,0.203C9.713,1.701,8.486,1.198,7.396,1.593C6.408,1.95,5.646,1.896,4.759,1.53
		C3.217,0.895,1.606-0.1,0.388,2.062C0.331,2.163,0.132,2.185,0,2.242c0,0.099,0,0.197,0,0.296c0.534,0.609,2.126,0.571,1.168,2.087
		c-1.342,2.123-0.657,3.908,1.744,4.629c0.442,0.134,0.794,0.3,1.112,0.634c0.926,0.972,1.562,0.826,2.329-0.263
		c0.339-0.482-0.45-0.943,0.164-1.292c0.597,0.255,1.358,0.622,1.28,1.247c-0.184,1.463,0.827,1.537,1.739,1.827
		c1.55,0.497,2.946,1.283,4.172,2.347c0.678,0.588,0.974,1.328,0.612,2.236c-0.613,1.542-0.428,1.855,1.262,2.255
		c0.318,0.075,0.706,0.392,0.938,0.054c0.26-0.381-0.078-0.724-0.361-1.008c-0.137-0.141-0.256-0.297-0.383-0.445
		c0.076-0.066,0.149-0.135,0.225-0.203c0.62,0.142,1.361,0.369,1.381,1.031c0.033,1.129,0.799,1.662,1.453,2.328
		c0.057,0.125,0.113,0.25,0.171,0.373c0.263-0.156,0.162-0.363,0.078-0.566c-0.251-0.567-1.031-1.11,0.112-1.662
		c0.484-0.236,0.354-0.88,0.104-1.322c-0.303-0.537-0.219-0.953,0.299-1.238c0.955-0.529,0.416-0.926-0.123-1.236
		c-1.121-0.651-0.611-1.689-0.5-2.5c0.098-0.719,0.756-1.031,1.526-0.506c0.212,0.145,0.505-0.025,0.592-0.275
		C21.186,10.793,20.979,10.59,20.734,10.557z M4.395,7.223c0.01-0.048,0.021-0.096,0.03-0.146c-0.01,0.051-0.02,0.099-0.03,0.149
		V7.223L4.395,7.223C4.361,7.172,4.327,7.122,4.293,7.069C4.327,7.124,4.361,7.173,4.395,7.223z M4.429,7.286
		c0.889-0.063,1.458,0.396,1.824,1.179C5.887,7.682,5.318,7.227,4.429,7.286z"/>
</g>
<g>
</g>
<g>
</g>
<g>
</g>
<g>
</g>
<g>
</g>
<g>
</g>
<g>
</g>
<g>
</g>
<g>
</g>
<g>
</g>
<g>
</g>
<g>
</g>
<g>
</g>
<g>
</g>
<g>
</g>
</svg>
