<?xml version="1.0" encoding="iso-8859-1"?>
<!-- Generator: Adobe Illustrator 16.0.0, SVG Export Plug-In . SVG Version: 6.00 Build 0)  -->
<!DOCTYPE svg PUBLIC "-//W3C//DTD SVG 1.1//EN" "http://www.w3.org/Graphics/SVG/1.1/DTD/svg11.dtd">
<svg version="1.1" id="Capa_1" xmlns="http://www.w3.org/2000/svg" xmlns:xlink="http://www.w3.org/1999/xlink" x="0px" y="0px"
	 width="22.092px" height="22.092px" viewBox="0 0 22.092 22.092" style="enable-background:new 0 0 22.092 22.092;"
	 xml:space="preserve">
<g>
	<path style="fill:#121111;" d="M20.536,6.716c-0.133-1.388-0.72-2.319-2.242-1.028c-0.181,0.152-0.597,0.061-0.902,0.038
		c-1.872-0.143-3.276-1.214-4.553-2.44c-1.023-0.983-1.984-1.598-3.277-0.456C9.228,3.125,8.808,3.361,8.391,3.508
		C7.88,3.69,7.968,3.991,7.835,4.414c-0.316,0.987-1.068,1.861-1.771,2.67C5.986,7.172,4.886,7.203,4.41,6.667
		C4.258,6.497,4.049,6.147,3.812,6.384C2.707,7.472,1.326,6.9,0,7.055c0.135,1.143,0.311,2.319,1.324,2.944
		c0.834,0.516,0.723-1.109,1.594-0.982c0.137,0.663-0.036,1.428,0.695,1.97c0.037-0.599,0.073-1.121,0.103-1.603
		c1.424-0.244,0.747,0.813,0.874,1.313c0.248,0.978,1.454,1.328,1.498,2.411c-0.328,0.067-0.657,0.139-0.965,0.204
		c0.315,1.041,1.119,1.046,1.952,0.987c1.441,0.411,2.102,2.493,4.021,1.877c0.258,0.239-0.078,0.375-0.104,0.568l0.058,0.061
		l-0.06-0.056c-0.068,0.05-0.136,0.103-0.2,0.153c0.083,0.076,0.165,0.151,0.247,0.229h-0.002c-0.195,0.338-0.253,0.564,0.245,0.744
		c0.86,0.308,1.702,0.175,2.557,0.066c0.186,0.159,0.563,0.032,0.611,0.406c-0.893,0-1.788,0-2.676,0
		c-0.037,0.202-0.071,0.407-0.106,0.612c2.049-0.51,3.623,0.967,5.736,0.917c-0.752-0.6-1.373-1.097-1.994-1.591
		c-0.607-0.646-0.998-1.662-1.637-2.038c-2.396-1.405-3.423-3.924-5.157-5.852C8.166,9.905,8.417,9.118,8.701,8.675
		c0.341-0.536,0.769,0,1.068,0.318c0.425,0.451,0.799,0.36,1.111-0.102c0.268-0.403,0.677-0.322,1.056-0.438
		c1.296-0.398,2.439,0.355,3.686,0.403c1.12,0.042,2.351-0.434,3.382,0.242c0.896,0.584,1.709,1.686,2.089-0.39
		c0.045-0.246,0.701,0.025,0.999-0.396C21.597,7.788,20.638,7.769,20.536,6.716z"/>
</g>
<g>
</g>
<g>
</g>
<g>
</g>
<g>
</g>
<g>
</g>
<g>
</g>
<g>
</g>
<g>
</g>
<g>
</g>
<g>
</g>
<g>
</g>
<g>
</g>
<g>
</g>
<g>
</g>
<g>
</g>
</svg>
