<?xml version="1.0" encoding="iso-8859-1"?>
<!-- Generator: Adobe Illustrator 16.0.0, SVG Export Plug-In . SVG Version: 6.00 Build 0)  -->
<!DOCTYPE svg PUBLIC "-//W3C//DTD SVG 1.1//EN" "http://www.w3.org/Graphics/SVG/1.1/DTD/svg11.dtd">
<svg version="1.1" id="Capa_1" xmlns="http://www.w3.org/2000/svg" xmlns:xlink="http://www.w3.org/1999/xlink" x="0px" y="0px"
	 width="21.092px" height="21.091px" viewBox="0 0 21.092 21.091" style="enable-background:new 0 0 21.092 21.091;"
	 xml:space="preserve">
<g>
	<path d="M14.016,9.57c-0.808-0.648-1.375-1.639-2.66-0.923c-0.344,0.192-0.729-0.137-1.049-0.389
		C8.57,6.886,6.509,6.954,4.502,7.131C2.627,7.299,0.794,7.773,0,9.751c0.921,0.216,1.784-0.039,3.401-1.185
		c0.653-0.463,1.541-0.826,1.846-0.055c0.289,0.734,0.714,0.605,1.158,0.754c2.159,0.723,4.748,0.413,6.283,2.647
		c0.234,0.343,0.684,0.323,1.086,0.321c0.332-0.003,0.746-0.091,0.918,0.292c0.205,0.455-0.284,0.541-0.516,0.747
		c-0.195,0.177-0.35,0.337-0.16,0.782c2.184-0.713,4.58,0.296,7.076-0.863c-1.494-0.762-2.693-1.578-4.018-1.986
		C15.912,10.849,14.916,10.291,14.016,9.57z"/>
	<path d="M3.64,10.734c0.3-0.057,0.723-0.11,0.625-0.571C4.196,9.829,3.991,9.536,3.562,9.556c-0.496,0.031-0.41,0.495-0.479,0.762
		C2.98,10.718,3.349,10.79,3.64,10.734z"/>
</g>
<g>
</g>
<g>
</g>
<g>
</g>
<g>
</g>
<g>
</g>
<g>
</g>
<g>
</g>
<g>
</g>
<g>
</g>
<g>
</g>
<g>
</g>
<g>
</g>
<g>
</g>
<g>
</g>
<g>
</g>
</svg>
