<?xml version="1.0" encoding="iso-8859-1"?>
<!-- Generator: Adobe Illustrator 16.0.0, SVG Export Plug-In . SVG Version: 6.00 Build 0)  -->
<!DOCTYPE svg PUBLIC "-//W3C//DTD SVG 1.1//EN" "http://www.w3.org/Graphics/SVG/1.1/DTD/svg11.dtd">
<svg version="1.1" id="Capa_1" xmlns="http://www.w3.org/2000/svg" xmlns:xlink="http://www.w3.org/1999/xlink" x="0px" y="0px"
	 width="21.075px" height="21.075px" viewBox="0 0 21.075 21.075" style="enable-background:new 0 0 21.075 21.075;"
	 xml:space="preserve">
<g>
	<path d="M21.053,11.506c-0.17-0.597-0.584-1.309-1.251-1.49c-0.5-0.134-0.958-0.535-1.535-0.377
		c-0.354,0.097-0.647-0.144-0.695-0.394c-0.274-1.384-1.698-0.603-2.356-1.28c-0.148-0.151-0.25,0.202-0.204,0.38
		c0.178,0.688-0.591,0.862-0.725,0.762c-0.426-0.319-0.977-0.656-1.033-1.153c0.196-0.355,0.353-0.627,0.166-0.706
		c-1.417-0.596-2.822-1.354-4.302-1.566C8.731,5.627,8.103,6.299,7.521,5.574C7.428,5.459,6.98,5.454,6.854,5.57
		C5.373,6.918,3.5,7.429,1.661,7.96C1.123,8.113,0.8,9.022,0.057,8.455c-0.24,0.771,0.328,1.081,0.818,1.44
		c0.171,0.125,0.212,0.299,0.16,0.514c-0.227,0.962,0.424,1.529,1.041,2.016c1.137,0.895,2.354,1.679,3.514,2.536
		c1.15,0.854,2.366,0.892,3.132-0.223c0.587-0.849,1.18-0.921,1.879-0.499c1.371,0.824,3.063,0.218,4.414,1.062
		c0.064,0.04,0.357-0.133,0.421-0.265c0.24-0.52,0.646-0.497,1.112-0.454c1.039,0.099,1.771-0.514,2.269-1.28
		c0.347-0.533,0.88-0.761,1.265-1.188C20.364,11.798,21.225,12.112,21.053,11.506z"/>
</g>
<g>
</g>
<g>
</g>
<g>
</g>
<g>
</g>
<g>
</g>
<g>
</g>
<g>
</g>
<g>
</g>
<g>
</g>
<g>
</g>
<g>
</g>
<g>
</g>
<g>
</g>
<g>
</g>
<g>
</g>
</svg>
