<?xml version="1.0" encoding="iso-8859-1"?>
<!-- Generator: Adobe Illustrator 16.0.0, SVG Export Plug-In . SVG Version: 6.00 Build 0)  -->
<!DOCTYPE svg PUBLIC "-//W3C//DTD SVG 1.1//EN" "http://www.w3.org/Graphics/SVG/1.1/DTD/svg11.dtd">
<svg version="1.1" id="Capa_1" xmlns="http://www.w3.org/2000/svg" xmlns:xlink="http://www.w3.org/1999/xlink" x="0px" y="0px"
	 width="22.112px" height="22.112px" viewBox="0 0 22.112 22.112" style="enable-background:new 0 0 22.112 22.112;"
	 xml:space="preserve">
<g>
	<path style="fill:#121111;" d="M1.564,13.416c0.692-0.238,1.518-0.065,2.283-0.106c0.856-0.046,1.428-0.046,1.678,1.132
		c0.341,1.605,2.22,2.049,2.998,0.777c0.647-1.054,1.219-0.214,1.816-0.249c0.805-0.046,0.836,0.713,0.736,1.056
		c-0.375,1.263,0.505,2.247,0.472,3.492c1.395-0.603,2.489-0.291,3.535,0.544c0.332,0.265,0.879,0.489,1.265,0.412
		c1.171-0.231,1.921,0.232,2.505,1.166c0.237,0.387,0.567,0.602,1.024,0.389c0.372-0.176,0.456-0.511,0.435-0.901
		c-0.026-0.517-0.306-0.46-0.72-0.468c-0.75-0.015-0.968-0.54-0.896-1.253c0.072-0.692,0.388-1.347,0.171-2.099
		c-0.078-0.271,0.299-0.968,0.497-0.978c2.321-0.114,1.247-1.037,0.581-2.027c-0.485-0.72-0.552-1.632-0.535-2.507
		c0.016-0.749,0.065-1.498,0.129-2.245c0.143-1.735,0.309-3.612,1.54-4.83c1.01-0.999,0.51-1.897,0.317-2.701
		C21.229,1.332,20.41,0.7,19.448,0.898C18.5,1.093,17.817,0.717,17.26,0c-0.718,0-1.434,0-2.151,0
		c-0.646,0.539-1.509,0.201-2.225,0.587c-1.328,0.717-2.604,0.795-3.983-0.174c-0.571-0.401-1.42,0.26-1.456,1.094
		C7.376,3.228,6.681,4.745,6.08,6.296c-0.499,1.283-1.412,2.366-1.362,3.916c0.021,0.591-0.363,1.909-1.808,1.257
		c-0.456-0.205-1.176,0.068-1.736,0.239c-0.375,0.114-0.973,0.216-0.669,0.923C0.709,13.11,0.629,13.735,1.564,13.416z"/>
</g>
<g>
</g>
<g>
</g>
<g>
</g>
<g>
</g>
<g>
</g>
<g>
</g>
<g>
</g>
<g>
</g>
<g>
</g>
<g>
</g>
<g>
</g>
<g>
</g>
<g>
</g>
<g>
</g>
<g>
</g>
</svg>
