<?xml version="1.0" encoding="iso-8859-1"?>
<!-- Generator: Adobe Illustrator 16.0.0, SVG Export Plug-In . SVG Version: 6.00 Build 0)  -->
<!DOCTYPE svg PUBLIC "-//W3C//DTD SVG 1.1//EN" "http://www.w3.org/Graphics/SVG/1.1/DTD/svg11.dtd">
<svg version="1.1" id="Capa_1" xmlns="http://www.w3.org/2000/svg" xmlns:xlink="http://www.w3.org/1999/xlink" x="0px" y="0px"
	 width="21.24px" height="21.239px" viewBox="0 0 21.24 21.239" style="enable-background:new 0 0 21.24 21.239;"
	 xml:space="preserve">
<g>
	<path d="M20.697,14.515c-0.329-0.187-0.639-0.334-0.841,0.12c-0.226,0.507,0.132,0.734,0.522,0.845
		c0.271,0.077,0.573,0.024,0.861,0.032c0-0.297,0-0.592,0-0.887C21.06,14.591,20.849,14.603,20.697,14.515z"/>
	<path d="M1.362,13.844c0.298,0.132,0.341,0.624,0.223,1.064c-0.196,0.73,0.116,1.01,0.914,1.248
		c1.186,0.354,2.264,0.104,3.386-0.062c0.497,0.063,0.918,0.015,0.909-0.644c0.285,0.006,0.573,0.008,0.861,0.012
		c0.084,0.191,0.171,0.385,0.257,0.576c-0.233-0.006-0.466-0.01-0.696-0.016c0.005,0.086-0.023,0.221,0.02,0.254
		c0.287,0.2,0.545,0.121,0.766-0.131c0.267-0.016,0.533-0.029,0.8-0.042c0.766,1.274,1.482,1.399,2.47,0.435
		c0.708-0.289,1.414-0.58,2.116-0.864c-0.351-0.63-0.851-0.271-1.324-0.187c0.076-0.828,1.617-1.053,0.632-2.041
		c-0.017-0.018,0.092-0.222,0.13-0.219c1.468,0.129,0.667-0.842,0.724-1.428c0.054-0.549,0.071-0.996-0.646-1.018
		c-0.659-0.019-1.317,0.08-1.444,0.842c-0.06,0.363-0.057,0.647-0.455,0.83c-0.235-1.896-0.816-0.705-1.372-0.19
		c-0.248,0.229-1.105,0.168-0.86,0.427c0.592,0.631,0.053,1.939,1.084,2.045c1.021,0.105,0.991,0.734,1.13,1.383
		c-0.755,0.229-1.306-0.637-2.067-0.389c-0.062-0.367-0.023-0.807-0.583-0.824c-0.257-2.02-0.507-2.188-2.486-1.75
		c-0.168,0.035-0.351,0.016-0.53,0.016c0.002-0.016,0-0.026,0.002-0.045c0.002-0.002,0.005-0.006,0.007-0.01
		c0.644-0.711,0.892-1.808,1.667-2.396c0.024-0.019,0.041-0.038,0.063-0.054c0.109-0.076,0.239-0.133,0.371-0.186
		c0.039-0.017,0.07-0.041,0.11-0.053c0.181-0.061,0.382-0.1,0.612-0.107c0.327-0.018,0.443-0.482,0.399-0.854
		C8.508,9.081,8.22,9.011,7.914,9.036C6.379,9.161,6.546,7.929,6.851,7.276C7.35,6.21,7.333,5.148,7.422,4.064
		c-0.003,0-0.003,0-0.005,0l0,0C7.326,4.068,7.232,4.078,7.139,4.083c-0.102,0.008-0.201,0.008-0.305,0.02
		C6.742,4.115,6.657,4.138,6.569,4.155c-0.101,0.02-0.207,0.031-0.303,0.061C6.128,4.257,6.008,4.316,5.888,4.378
		c-0.04,0.02-0.085,0.029-0.122,0.051c-0.148,0.091-0.278,0.204-0.38,0.341C4.534,5.94,3.526,6.499,2.093,6.51
		C1.296,6.518,0.681,7.031,0.552,7.837C0.384,8.883,1.565,8.15,1.865,8.694C1.501,9.232,1.174,8.678,0.849,8.698
		C0.405,8.726-0.03,8.814,0.085,9.325C0.427,10.847-0.908,12.843,1.362,13.844z"/>
</g>
<g>
</g>
<g>
</g>
<g>
</g>
<g>
</g>
<g>
</g>
<g>
</g>
<g>
</g>
<g>
</g>
<g>
</g>
<g>
</g>
<g>
</g>
<g>
</g>
<g>
</g>
<g>
</g>
<g>
</g>
</svg>
