<?xml version="1.0" encoding="iso-8859-1"?>
<!-- Generator: Adobe Illustrator 16.0.0, SVG Export Plug-In . SVG Version: 6.00 Build 0)  -->
<!DOCTYPE svg PUBLIC "-//W3C//DTD SVG 1.1//EN" "http://www.w3.org/Graphics/SVG/1.1/DTD/svg11.dtd">
<svg version="1.1" id="Capa_1" xmlns="http://www.w3.org/2000/svg" xmlns:xlink="http://www.w3.org/1999/xlink" x="0px" y="0px"
	 width="21.137px" height="21.137px" viewBox="0 0 21.137 21.137" style="enable-background:new 0 0 21.137 21.137;"
	 xml:space="preserve">
<g>
	<path d="M20.22,5.936c-0.278-2.379-2.02-3.956-3.343-5.754c-0.078-0.106-0.143-0.256-0.335-0.141
		c-1.229,0.743-2.973,0.592-3.591,2.41C12.35,4.22,11.996,4.23,10.446,3.064c-1.532-1.153-1.725-1.11-2.842,0.515
		C6.161,5.68,5.021,8.133,3.168,9.778c-2.577,2.289-2.344,4.955-2.178,7.788c0.035,0.587,0.139,1.169,0.187,1.755
		C1.283,20.632,2,21.314,3.292,21.098c1.875-0.315,3.76-0.654,5.582-1.183c1.391-0.402,2.598-0.508,3.906,0.284
		c0.919,0.56,1.811,0.428,2.438-0.726c0.747-1.373,1.688-2.641,2.532-3.96c0.736-1.151,0.523-1.675-0.798-2.028
		c-1.624-0.434-3.187-0.208-4.74,0.367c-0.676,0.25-1.357,0.786-2.245,0.039c1.365,0.262,1.885-0.716,2.485-1.508
		c0.539-0.713,1.277-1.044,2.079-1.28c1.579-0.464,2.921-1.363,4.23-2.306C19.722,8.106,20.362,7.152,20.22,5.936z"/>
</g>
<g>
</g>
<g>
</g>
<g>
</g>
<g>
</g>
<g>
</g>
<g>
</g>
<g>
</g>
<g>
</g>
<g>
</g>
<g>
</g>
<g>
</g>
<g>
</g>
<g>
</g>
<g>
</g>
<g>
</g>
</svg>
