<?xml version="1.0" encoding="iso-8859-1"?>
<!-- Generator: Adobe Illustrator 16.0.0, SVG Export Plug-In . SVG Version: 6.00 Build 0)  -->
<!DOCTYPE svg PUBLIC "-//W3C//DTD SVG 1.1//EN" "http://www.w3.org/Graphics/SVG/1.1/DTD/svg11.dtd">
<svg version="1.1" id="Capa_1" xmlns="http://www.w3.org/2000/svg" xmlns:xlink="http://www.w3.org/1999/xlink" x="0px" y="0px"
	 width="21.987px" height="21.987px" viewBox="0 0 21.987 21.987" style="enable-background:new 0 0 21.987 21.987;"
	 xml:space="preserve">
<g>
	<path style="fill:#121111;" d="M21.36,11.332c-1.016-0.806-2.03-1.545-3.328-1.797c-1.188-0.228-2.38-0.452-3.571-0.675
		c-0.008-0.118-0.015-0.237-0.023-0.356c0.504,0,1.006,0.016,1.507-0.006c0.265-0.012,0.542-0.13,0.562-0.419
		c0.027-0.428-0.355-0.462-0.643-0.468c-0.562-0.01-1.127,0.024-1.685,0.08c-0.598,0.061-1.109-0.188-1.188-0.723
		c-0.197-1.301-0.863-1.678-2.1-1.424c-0.286,0.062-0.635-0.302-0.974-0.357C8.432,4.949,7.178,3.754,5.6,4.037
		C4.833,4.175,4.163,4.255,3.375,4.052c-1.28-0.33-1.933,0.586-1.986,1.931C1.34,7.231,2.479,8.593,1.147,9.758
		c-0.05,0.046-0.049,0.221-0.003,0.293C2.006,11.446,0.948,11.849,0,12.196c0.13,1.012,1.516,1.261,1.34,2.157
		c-0.205,1.05,0.438,1.745,0.665,2.594c0.233,0.871,1.525,1.363,1.886,0.843c0.579-0.838,1.163-1.688,1.591-2.605
		c0.522-1.125,1.872-1.723,2.883-0.989c0.96,0.697,2.096,0.569,2.712,0.047c1.795-1.525,3.797-0.757,5.703-0.825
		c0.601-0.022,1.49-0.261,1.895,0.311c1.21,1.706,1.937,0.134,2.684-0.396C22.086,12.812,22.3,12.077,21.36,11.332z"/>
</g>
<g>
</g>
<g>
</g>
<g>
</g>
<g>
</g>
<g>
</g>
<g>
</g>
<g>
</g>
<g>
</g>
<g>
</g>
<g>
</g>
<g>
</g>
<g>
</g>
<g>
</g>
<g>
</g>
<g>
</g>
</svg>
