<?xml version="1.0" encoding="iso-8859-1"?>
<!-- Generator: Adobe Illustrator 16.0.0, SVG Export Plug-In . SVG Version: 6.00 Build 0)  -->
<!DOCTYPE svg PUBLIC "-//W3C//DTD SVG 1.1//EN" "http://www.w3.org/Graphics/SVG/1.1/DTD/svg11.dtd">
<svg version="1.1" id="Capa_1" xmlns="http://www.w3.org/2000/svg" xmlns:xlink="http://www.w3.org/1999/xlink" x="0px" y="0px"
	 width="22.229px" height="22.229px" viewBox="0 0 22.229 22.229" style="enable-background:new 0 0 22.229 22.229;"
	 xml:space="preserve">
<g>
	<path style="fill:#121111;" d="M11.404,22.229c0.597-0.01,1.075-0.123,1.35-0.51c0.665-0.941,1.447-1.483,2.685-1.372
		c0.693,0.064,0.794-0.657,0.978-1.185c0.951-2.737,0.413-5.549,0.314-8.317c-0.039-1.136,0.517-2.191-0.008-3.437
		c-0.688-1.639-2.607-2.464-2.718-4.412c-0.004-0.062-0.258-0.127-0.401-0.167c-0.977-0.264-1.938-0.714-2.964-0.571
		c-0.829,0.118-1.265-0.25-1.561-0.905C8.54,0.164,7.424-0.375,6.504,0.286C5.8,0.792,5.668,2.098,5.297,3.05
		c-0.01,0.027,0.13,0.152,0.213,0.168c1.436,0.275,0.586,1.144,0.203,1.426c-0.703,0.516-0.416,0.958-0.29,1.56
		c0.611,2.91,2.024,5.456,3.558,7.947c0.319,0.518,0.405,0.972,0.387,1.562c-0.02,0.663-0.03,1.562,0.359,1.954
		c1.071,1.066,0.033,2.717,1.194,3.672C10.185,22.266,11.061,22.106,11.404,22.229z"/>
</g>
<g>
</g>
<g>
</g>
<g>
</g>
<g>
</g>
<g>
</g>
<g>
</g>
<g>
</g>
<g>
</g>
<g>
</g>
<g>
</g>
<g>
</g>
<g>
</g>
<g>
</g>
<g>
</g>
<g>
</g>
</svg>
