<?xml version="1.0" encoding="iso-8859-1"?>
<!-- Generator: Adobe Illustrator 16.0.0, SVG Export Plug-In . SVG Version: 6.00 Build 0)  -->
<!DOCTYPE svg PUBLIC "-//W3C//DTD SVG 1.1//EN" "http://www.w3.org/Graphics/SVG/1.1/DTD/svg11.dtd">
<svg version="1.1" id="Capa_1" xmlns="http://www.w3.org/2000/svg" xmlns:xlink="http://www.w3.org/1999/xlink" x="0px" y="0px"
	 width="21.781px" height="21.781px" viewBox="0 0 21.781 21.781" style="enable-background:new 0 0 21.781 21.781;"
	 xml:space="preserve">
<g>
	<path style="fill:#121111;" d="M6.789,12.662c-1.007,0.098-0.708,0.587-0.401,1.137c0.197,0.35,0.337,0.732,0.531,1.162
		c1.248-0.86,2.437-1.715,3.897-2.118c1.402-0.391,2.763-0.931,4.126-1.447c1.932-0.728,3.861-1.489,5.615-2.588
		c0.513-0.321,1.475-0.848,1.163-1.356c-0.369-0.608-1.409-0.668-2.228-0.616c-0.282,0.018-0.554,0.228-0.827,0.358
		c-0.793,0.378-1.606,0.586-2.502,0.591c-2.247,0.009-4.476,0.151-6.707,0.548C7.732,8.639,6.856,9.8,5.953,10.997
		c-0.29,0.386-0.304,1.045,0.588,0.817c0.285-0.072,0.664-0.288,0.798,0.098C7.477,12.299,7.188,12.623,6.789,12.662z"/>
	<path style="fill:#121111;" d="M2.725,13.141c0.12-0.313-0.172-0.518-0.43-0.406c-0.798,0.347-1.98,0.182-2.276,1.2
		c-0.149,0.514,0.641,0.463,1.146,0.542C2.047,14.531,2.44,13.874,2.725,13.141z"/>
</g>
<g>
</g>
<g>
</g>
<g>
</g>
<g>
</g>
<g>
</g>
<g>
</g>
<g>
</g>
<g>
</g>
<g>
</g>
<g>
</g>
<g>
</g>
<g>
</g>
<g>
</g>
<g>
</g>
<g>
</g>
</svg>
