<?xml version="1.0" encoding="iso-8859-1"?>
<!-- Generator: Adobe Illustrator 16.0.0, SVG Export Plug-In . SVG Version: 6.00 Build 0)  -->
<!DOCTYPE svg PUBLIC "-//W3C//DTD SVG 1.1//EN" "http://www.w3.org/Graphics/SVG/1.1/DTD/svg11.dtd">
<svg version="1.1" id="Capa_1" xmlns="http://www.w3.org/2000/svg" xmlns:xlink="http://www.w3.org/1999/xlink" x="0px" y="0px"
	 width="21.022px" height="21.022px" viewBox="0 0 21.022 21.022" style="enable-background:new 0 0 21.022 21.022;"
	 xml:space="preserve">
<g>
	<path d="M18.568,4.393c-0.521-0.188-0.939-0.467-1.347-0.841c-0.289-0.267-0.759-0.728-1.131-0.336
		c-1.051,1.1-2.649,0.492-3.003,0.01c-1.131-1.554-3.088-1.557-4.312-2.781C8.551,0.218,7.947-0.029,7.927,0.003
		c-0.887,1.345-2.601,0.961-3.726,1.8C3.892,2.034,3.873,2.272,3.916,2.532c0.188,1.152-0.003,2.13-1.048,2.832
		C2.652,5.508,2.549,5.799,2.589,6.147c0.085,0.684-0.213,1.224-0.884,1.485c-0.302,0.12-0.614,0.325-0.47,0.622
		c0.812,1.689-1.06,4.314,1.83,5.272c0.046,0.016,0.116,0.054,0.116,0.083c0.072,1.269,0.653,0.695,1.331,0.353
		c-0.51,1.183-1.647,2.051-1.228,3.474c0.005,0.021-0.332,0.141-0.51,0.217c-0.813,0.351,0.137,0.899-0.132,1.408
		c-0.12,0.228,0.446,0.032,0.73,0.01c0.937-0.082,1.86-0.055,2.426,0.972c0.731,1.331,1.073,1.262,2.159,0.068
		c0.425-0.47,0.562-0.929,0.745-1.482c0.764-2.337,1.947-4.307,4.615-4.92c3.354-0.771,5.068-3.323,6.461-6.172
		C20.042,6.999,19.105,4.583,18.568,4.393z"/>
</g>
<g>
</g>
<g>
</g>
<g>
</g>
<g>
</g>
<g>
</g>
<g>
</g>
<g>
</g>
<g>
</g>
<g>
</g>
<g>
</g>
<g>
</g>
<g>
</g>
<g>
</g>
<g>
</g>
<g>
</g>
</svg>
