<?xml version="1.0" encoding="iso-8859-1"?>
<!-- Generator: Adobe Illustrator 16.0.0, SVG Export Plug-In . SVG Version: 6.00 Build 0)  -->
<!DOCTYPE svg PUBLIC "-//W3C//DTD SVG 1.1//EN" "http://www.w3.org/Graphics/SVG/1.1/DTD/svg11.dtd">
<svg version="1.1" id="Capa_1" xmlns="http://www.w3.org/2000/svg" xmlns:xlink="http://www.w3.org/1999/xlink" x="0px" y="0px"
	 width="21.99px" height="21.99px" viewBox="0 0 21.99 21.99" style="enable-background:new 0 0 21.99 21.99;" xml:space="preserve"
	>
<g>
	<path style="fill:#121111;" d="M0.326,9.416c-0.127,3.171,0.018,6.354-0.058,9.527c-0.027,1.129,0.246,1.484,1.43,1.463
		c4.194-0.079,8.389-0.031,12.583-0.031c2.48,0,4.959,0,7.709,0c-1.06-1.415-3.104-1.962-2.331-4.042
		c0.041-0.11-0.357-0.344-0.483-0.56c-1.294-2.224-2.535-4.474-3.425-7.292c1.46,0.887,1.379,0.853,1.871-0.357
		c0.688-1.688,0.713-3.266-0.088-4.945c-0.354-0.743-0.521-1.042-1.404-0.724C15.449,2.7,14.547,2.8,13.909,2.367
		c-1.786-1.214-3.43-0.792-5.051,0.253C8.241,3.018,7.7,2.932,7.007,2.786C5.088,2.38,3.303,1.415,1.224,1.607
		C0.276,1.695,0.274,2.014,0.134,2.778C-0.283,5.019,0.414,7.194,0.326,9.416z"/>
</g>
<g>
</g>
<g>
</g>
<g>
</g>
<g>
</g>
<g>
</g>
<g>
</g>
<g>
</g>
<g>
</g>
<g>
</g>
<g>
</g>
<g>
</g>
<g>
</g>
<g>
</g>
<g>
</g>
<g>
</g>
</svg>
