<?xml version="1.0" encoding="iso-8859-1"?>
<!-- Generator: Adobe Illustrator 16.0.0, SVG Export Plug-In . SVG Version: 6.00 Build 0)  -->
<!DOCTYPE svg PUBLIC "-//W3C//DTD SVG 1.1//EN" "http://www.w3.org/Graphics/SVG/1.1/DTD/svg11.dtd">
<svg version="1.1" id="Capa_1" xmlns="http://www.w3.org/2000/svg" xmlns:xlink="http://www.w3.org/1999/xlink" x="0px" y="0px"
	 width="19.748px" height="19.748px" viewBox="0 0 19.748 19.748" style="enable-background:new 0 0 19.748 19.748;"
	 xml:space="preserve">
<g>
	<path d="M8.463,9.588c-0.42,1.438,0.002,2.663-0.626,3.938c-0.668,1.354-1.989,2.304-2.249,3.887
		c-0.089,0.547-0.273,0.839,0.502,0.982c1.57,0.291,2.981,1.059,4.722,0.895c2.532-0.24,5.104-0.098,7.657-0.042
		c0.917,0.021,1.315-0.163,1.277-1.191c-0.079-2.109-0.071-4.226-0.002-6.335c0.031-0.942-0.305-1.158-1.184-1.141
		c-2.503,0.051-5.01,0-7.515,0.026C10.095,10.617,9.213,10.527,8.463,9.588z"/>
	<path d="M1.194,4.48C1.764,4.649,2.281,4.5,2.5,3.877c0.262-0.746,0.745-1.354,1.142-2.019c0.5-0.839,0.274-1.398-0.787-1.419
		C2.061,0.396,1.532,0.664,1.372,1.51C1.292,1.931,1.214,2.46,0.729,2.588C0.037,2.771-0.068,3.24,0.033,3.793
		C0.146,4.41,0.763,4.352,1.194,4.48z"/>
</g>
<g>
</g>
<g>
</g>
<g>
</g>
<g>
</g>
<g>
</g>
<g>
</g>
<g>
</g>
<g>
</g>
<g>
</g>
<g>
</g>
<g>
</g>
<g>
</g>
<g>
</g>
<g>
</g>
<g>
</g>
</svg>
