<?xml version="1.0" encoding="iso-8859-1"?>
<!-- Generator: Adobe Illustrator 16.0.0, SVG Export Plug-In . SVG Version: 6.00 Build 0)  -->
<!DOCTYPE svg PUBLIC "-//W3C//DTD SVG 1.1//EN" "http://www.w3.org/Graphics/SVG/1.1/DTD/svg11.dtd">
<svg version="1.1" id="Capa_1" xmlns="http://www.w3.org/2000/svg" xmlns:xlink="http://www.w3.org/1999/xlink" x="0px" y="0px"
	 width="21.288px" height="21.287px" viewBox="0 0 21.288 21.287" style="enable-background:new 0 0 21.288 21.287;"
	 xml:space="preserve">
<g>
	<path d="M1.535,13.735c0.675-0.001,1.475-0.821,2.006,0.345c0.104,0.228,0.378-0.125,0.456-0.355
		c0.45-1.346,1.031-2.146,2.258-0.598c0.204,0.258,0.615,0.254,0.825,0.117c0.866-0.57,1.795-0.213,2.677-0.216
		c1.685-0.003,3.283,0.492,4.52,1.666c1.445,1.372,2.77,2.874,4.136,4.329c0.236,0.251,0.553,0.355,0.81,0.529
		c1.139,0.775,1.669-0.463,1.938-0.856c0.5-0.729-0.62-0.243-0.826-0.598c-0.049-0.084-0.107-0.163-0.167-0.242
		c-1.34-1.825-3.368-2.996-4.643-4.886c-0.155-0.229-0.435-0.377-0.665-0.549c-1.116-0.826-2.909-0.658-3.441-2.354
		c-0.049-0.152-0.366-0.319-0.483-0.138c-0.398,0.618-0.499,0.148-0.701-0.136C9.583,8.872,9.06,7.925,8.934,6.751
		C8.738,4.926,8.06,3.249,6.968,1.484C6.291,2.604,5.42,3.123,4.34,3.4c-0.892,0.23-1.173,1.59-2.369,1.394
		c-0.02-0.003-0.124,0.346-0.146,0.536c-0.224,1.952-0.974,3.737-1.644,5.563C-0.368,12.392,0.402,13.737,1.535,13.735z"/>
</g>
<g>
</g>
<g>
</g>
<g>
</g>
<g>
</g>
<g>
</g>
<g>
</g>
<g>
</g>
<g>
</g>
<g>
</g>
<g>
</g>
<g>
</g>
<g>
</g>
<g>
</g>
<g>
</g>
<g>
</g>
</svg>
