<?xml version="1.0" encoding="iso-8859-1"?>
<!-- Generator: Adobe Illustrator 16.0.0, SVG Export Plug-In . SVG Version: 6.00 Build 0)  -->
<!DOCTYPE svg PUBLIC "-//W3C//DTD SVG 1.1//EN" "http://www.w3.org/Graphics/SVG/1.1/DTD/svg11.dtd">
<svg version="1.1" id="Capa_1" xmlns="http://www.w3.org/2000/svg" xmlns:xlink="http://www.w3.org/1999/xlink" x="0px" y="0px"
	 width="22.001px" height="22.001px" viewBox="0 0 22.001 22.001" style="enable-background:new 0 0 22.001 22.001;"
	 xml:space="preserve">
<g>
	<path style="fill:#121111;" d="M0.537,14.623c0.75-1.49,2.245-1.604,3.439-2.233c0.31-0.165,0.679-0.253,0.937-0.476
		c0.259-0.225,0.432-0.615,0.295-0.95c-0.145-0.351-0.471-0.516-0.861-0.243c-0.504,0.357-1.081,0.007-1.606,0.164
		c-0.019-0.371,0.274-0.537,0.524-0.644c0.361-0.157,0.829-0.151,0.763-0.73c-0.05-0.448-0.484-0.43-0.737-0.633
		C2.208,8.01,1.694,9.53,0.774,9.341c0.771,0.368,1.731,0.515,1.217,1.714C1.367,11.386,0.708,11.541,0,11.422
		c0,0.514,0,1.024,0,1.537C1.566,12.987,0.345,13.931,0.537,14.623z"/>
	<path style="fill:#121111;" d="M21.771,7.337c0.139-0.065,0.326-0.27,0.174-0.502c-0.145-0.226-0.3-0.288-0.615-0.248
		c-1.51,0.187-2.979,0.005-4.472-0.375c-1.219-0.307-2.614-0.973-3.739-0.493C11.157,6.558,8.998,6.333,7.03,7.336
		c-1.327,0.675-1.633,1.33-1.425,2.51c0.169,0.959,0.428,1.908,1.26,2.582c0.781,0.631,1.545,0.143,2.445-0.144
		c-0.275,0.919-0.488,1.631-0.758,2.537c2.999-0.971,3.709-1.08,5.48,0.158c1.217,0.853,2.161,1.611,3.878,1.448
		c0.968-0.09,1.292-0.414,1.947-0.883c1.037-0.741,0.463-1.309,0.282-2.071c-0.297-1.24-0.964-2.672-0.196-3.755
		C20.501,8.931,20.768,7.82,21.771,7.337z"/>
</g>
<g>
</g>
<g>
</g>
<g>
</g>
<g>
</g>
<g>
</g>
<g>
</g>
<g>
</g>
<g>
</g>
<g>
</g>
<g>
</g>
<g>
</g>
<g>
</g>
<g>
</g>
<g>
</g>
<g>
</g>
</svg>
