<?xml version="1.0" encoding="iso-8859-1"?>
<!-- Generator: Adobe Illustrator 16.0.0, SVG Export Plug-In . SVG Version: 6.00 Build 0)  -->
<!DOCTYPE svg PUBLIC "-//W3C//DTD SVG 1.1//EN" "http://www.w3.org/Graphics/SVG/1.1/DTD/svg11.dtd">
<svg version="1.1" id="Capa_1" xmlns="http://www.w3.org/2000/svg" xmlns:xlink="http://www.w3.org/1999/xlink" x="0px" y="0px"
	 width="20.954px" height="20.953px" viewBox="0 0 20.954 20.953" style="enable-background:new 0 0 20.954 20.953;"
	 xml:space="preserve">
<g>
	<path d="M6.997,20.933c1.47-0.296,2.919-0.701,4.395-0.956c0.739-0.125,1.334-0.349,1.959-0.807
		c1.156-0.846,2.142-1.862,3.187-2.814c1.065-0.979,1.006-1.359-0.202-2.266c-0.247-0.188-0.852-0.377-0.586-0.666
		c0.829-0.898-0.177-1.47-0.419-1.997c-0.214-0.462-0.333-0.947-0.178-1.226c0.555-1.004,0.105-1.792-0.438-2.518
		c-0.486-0.648-0.448-1.134,0.152-1.608c0.74-0.584,0.489-1.199-0.152-1.482c-1.67-0.736-0.998-1.813-0.487-2.829
		c0.163-0.327,0.481-0.644,0.088-0.839c-0.703-0.349-1.271-1.061-2.192-0.902c-1.107,0.188-2.118,0.535-2.219,1.856
		C9.841,2.692,9.071,3.154,8.727,3.021C7.499,2.543,5.812,3.657,4.948,1.898c-0.19-0.385-0.696-0.309-1.085,0.137
		c-0.52,0.59,0.102,0.665,0.328,0.821c0.478,0.329,0.995,0.631,1.539,0.826c0.818,0.29,1.318,0.711,1.309,1.667
		C7.03,6.25,7.611,7.036,7.333,8.073c-0.166,0.62,0.641,1.319,1.441,1.564c0.666,0.204,0.541,0.729,0.486,1.21
		c-0.031,0.271-0.186,0.278-0.347,0.082c-0.037-0.139-0.05-0.313-0.247-0.219c-0.077,0.036-0.142,0.132-0.177,0.217
		c-0.518,1.24-1.564,1.941-2.605,2.689c-1.351,0.968-2.478,2.082-1.355,3.958c0.123,0.207,0.002,0.573-0.043,0.864
		C4.311,19.559,5.878,21.155,6.997,20.933z"/>
</g>
<g>
</g>
<g>
</g>
<g>
</g>
<g>
</g>
<g>
</g>
<g>
</g>
<g>
</g>
<g>
</g>
<g>
</g>
<g>
</g>
<g>
</g>
<g>
</g>
<g>
</g>
<g>
</g>
<g>
</g>
</svg>
