<?xml version="1.0" encoding="iso-8859-1"?>
<!-- Generator: Adobe Illustrator 16.0.0, SVG Export Plug-In . SVG Version: 6.00 Build 0)  -->
<!DOCTYPE svg PUBLIC "-//W3C//DTD SVG 1.1//EN" "http://www.w3.org/Graphics/SVG/1.1/DTD/svg11.dtd">
<svg version="1.1" id="Capa_1" xmlns="http://www.w3.org/2000/svg" xmlns:xlink="http://www.w3.org/1999/xlink" x="0px" y="0px"
	 width="21.162px" height="21.161px" viewBox="0 0 21.162 21.161" style="enable-background:new 0 0 21.162 21.161;"
	 xml:space="preserve">
<g>
	<path d="M8.938,21.161c0.515-0.535,0.865-1.63,1.998-0.674c0.333,0.281,0.484-0.084,0.615-0.484
		c0.323-0.986-0.511-1.542-0.762-2.296c-0.451-1.361-0.3-1.689,1.148-1.588c0.688,0.049,1.404,0.099,1.639-0.785
		c0.096-0.354-0.442-0.917,0.301-1.046c0.555-0.097,0.734,0.402,0.932,0.778c0.628,1.193,1.49,1.453,2.609,0.68
		c0.334-0.231,0.604-0.41,0.712,0.167c0.075,0.398,0.268,0.671,0.694,0.506c0.309-0.12,0.428-0.419,0.588-0.742
		c0.73-1.479,0.826-3.002,0.851-4.624c0.015-0.966-0.103-1.458-0.927-1.966c-1.411-0.87-1.326-1.96,0.105-2.955
		c0.69-0.479,0.881-1.011,0.521-1.875c-0.557-1.331-1.479-1.492-2.586-0.979C16.208,3.819,16,3.222,16,2.294
		c0.002-0.382,0.078-0.785,0.217-1.14c0.242-0.621,0.117-0.932-0.583-0.956c-1.716-0.054-3.431-0.103-5.143-0.194
		C9.799-0.033,9.561,0.195,9.535,0.909C9.494,2.066,10.13,3.684,9.307,4.257C8.474,4.838,6.946,4.434,5.721,4.432
		c-0.432,0-0.89,0.16-1.299-0.096C4.116,4.145,3.812,4.145,3.719,4.5c-0.328,1.266-1.166,2.348-1,3.815
		c0.131,1.165-0.683,1.891-1.821,1.899C2.045,14.876,5.687,17.804,8.938,21.161z"/>
</g>
<g>
</g>
<g>
</g>
<g>
</g>
<g>
</g>
<g>
</g>
<g>
</g>
<g>
</g>
<g>
</g>
<g>
</g>
<g>
</g>
<g>
</g>
<g>
</g>
<g>
</g>
<g>
</g>
<g>
</g>
</svg>
