<?xml version="1.0" encoding="iso-8859-1"?>
<!-- Generator: Adobe Illustrator 16.0.0, SVG Export Plug-In . SVG Version: 6.00 Build 0)  -->
<!DOCTYPE svg PUBLIC "-//W3C//DTD SVG 1.1//EN" "http://www.w3.org/Graphics/SVG/1.1/DTD/svg11.dtd">
<svg version="1.1" id="Capa_1" xmlns="http://www.w3.org/2000/svg" xmlns:xlink="http://www.w3.org/1999/xlink" x="0px" y="0px"
	 width="21.217px" height="21.217px" viewBox="0 0 21.217 21.217" style="enable-background:new 0 0 21.217 21.217;"
	 xml:space="preserve">
<g>
	<path d="M20.595,10.137c-0.358-0.175-0.761-0.395-1.122-0.235c-2.208,0.972-3.825-0.54-5.53-1.387
		c-1.396-0.693-2.946-0.853-3.828,0.094c-1.06,1.136-2.108,0.906-3.26,0.924C5.529,9.554,4.199,9.598,2.876,9.521
		c-1.242-0.073-1.165,0.481-0.762,1.304c0.117,0.239,0.494,0.335,0.391,0.69c-1.031,0.67-0.695-1.778-1.959-0.802
		c-1.1,0.85-0.194,1.667-0.226,2.557c1.845-0.583,3.589-0.515,5.339-0.429c0.46,0.021,1.247,0.279,1.336-0.211
		c0.294-1.622,1.58-1.118,2.515-1.333c0.56-0.128,1.345,0.125,1.639-0.43c0.6-1.132,1.246-0.711,2.032-0.314
		c0.826,0.417,1.729,0.675,2.555,1.093c1.566,0.794,3.121,0.622,4.692,0.078c0.349-0.121,0.783-0.123,0.788-0.691
		C21.218,10.554,20.97,10.321,20.595,10.137z"/>
</g>
<g>
</g>
<g>
</g>
<g>
</g>
<g>
</g>
<g>
</g>
<g>
</g>
<g>
</g>
<g>
</g>
<g>
</g>
<g>
</g>
<g>
</g>
<g>
</g>
<g>
</g>
<g>
</g>
<g>
</g>
</svg>
