<?xml version="1.0" encoding="iso-8859-1"?>
<!-- Generator: Adobe Illustrator 16.0.0, SVG Export Plug-In . SVG Version: 6.00 Build 0)  -->
<!DOCTYPE svg PUBLIC "-//W3C//DTD SVG 1.1//EN" "http://www.w3.org/Graphics/SVG/1.1/DTD/svg11.dtd">
<svg version="1.1" id="Capa_1" xmlns="http://www.w3.org/2000/svg" xmlns:xlink="http://www.w3.org/1999/xlink" x="0px" y="0px"
	 width="21.989px" height="21.99px" viewBox="0 0 21.989 21.99" style="enable-background:new 0 0 21.989 21.99;"
	 xml:space="preserve">
<g>
	<path style="fill:#121111;" d="M5.727,14.504c1.996-0.341,3.918-0.43,5.496,1.182c0.278,0.283,0.724,0.242,1.023,0.133
		c1.617-0.578,3.522,0.181,4.987-1.113c0.268-0.234,0.807-0.177,1.005,0.084c0.682,0.892,1.777,0.622,2.614,1.037
		c0.445,0.223,0.803,0.171,1.037-0.254c0.238-0.441,0.028-0.733-0.381-0.999c-0.571-0.369-1.448-0.678-0.464-1.589
		c0.324-0.296-0.132-0.51-0.397-0.619c-0.918-0.374-2.187-0.406-1.818-1.976c0.014-0.055-0.213-0.199-0.348-0.25
		c-1.711-0.635-3.425-1.288-5.233-0.309c-0.276,0.147-0.421,0.196-0.732-0.113c-1.479-1.476-3.271-2.382-5.407-2.299
		C6.272,7.449,5.529,7.324,4.734,7.081C3.529,6.714,2.412,6.017,1.088,6.044c-0.403,0.01-0.88-0.13-1.055,0.363
		c-0.166,0.468,0.334,0.557,0.594,0.762C1.19,7.612,1.816,7.914,2.507,8.146c2.454,0.836,4.051,4.376,2.533,6.049
		C5.278,14.31,5.527,14.54,5.727,14.504z"/>
</g>
<g>
</g>
<g>
</g>
<g>
</g>
<g>
</g>
<g>
</g>
<g>
</g>
<g>
</g>
<g>
</g>
<g>
</g>
<g>
</g>
<g>
</g>
<g>
</g>
<g>
</g>
<g>
</g>
<g>
</g>
</svg>
