<?xml version="1.0" encoding="iso-8859-1"?>
<!-- Generator: Adobe Illustrator 16.0.0, SVG Export Plug-In . SVG Version: 6.00 Build 0)  -->
<!DOCTYPE svg PUBLIC "-//W3C//DTD SVG 1.1//EN" "http://www.w3.org/Graphics/SVG/1.1/DTD/svg11.dtd">
<svg version="1.1" id="Capa_1" xmlns="http://www.w3.org/2000/svg" xmlns:xlink="http://www.w3.org/1999/xlink" x="0px" y="0px"
	 width="20.953px" height="20.954px" viewBox="0 0 20.953 20.954" style="enable-background:new 0 0 20.953 20.954;"
	 xml:space="preserve">
<g>
	<path d="M3.766,13.417c-1.165,1.855-0.34,3.429,0.492,4.775c0.67,1.08,0.45,1.39-0.57,1.956c0.769,0.166,1.479,0.149,1.99,0.462
		c1.183,0.722,2.102,0.122,3.243-0.154c2.607-0.631,4.706-2.708,7.548-2.553c0.683,0.038,0.903-0.569,1.183-0.976
		c0.401-0.58-0.375-0.749-0.609-0.911c-0.706-0.485-1.271-1.181-1.209-1.894c0.115-1.307-0.02-2.601,0.052-3.896
		c0.022-0.412,0.568-0.745,0.185-1.218c-1.134-1.388-0.438-3.128-0.862-4.673c-0.213-0.771-0.035-1.597-0.853-2.148
		C13.995,1.943,13.625,1.699,13.857,1c0.336-1.003-0.38-1.204-1.127-0.814c-0.653,0.339-1.287,0.335-1.968,0.328
		c-1.77-0.017-3.54,0.051-5.306-0.013C4.476,0.467,4.088,1.055,4.333,1.747c0.742,2.093,0.225,4.358,1.004,6.437
		c0.18,0.479,0.329,1.262,0.079,1.561C4.495,10.843,4.454,12.322,3.766,13.417z"/>
</g>
<g>
</g>
<g>
</g>
<g>
</g>
<g>
</g>
<g>
</g>
<g>
</g>
<g>
</g>
<g>
</g>
<g>
</g>
<g>
</g>
<g>
</g>
<g>
</g>
<g>
</g>
<g>
</g>
<g>
</g>
</svg>
