<?xml version="1.0" encoding="iso-8859-1"?>
<!-- Generator: Adobe Illustrator 16.0.0, SVG Export Plug-In . SVG Version: 6.00 Build 0)  -->
<!DOCTYPE svg PUBLIC "-//W3C//DTD SVG 1.1//EN" "http://www.w3.org/Graphics/SVG/1.1/DTD/svg11.dtd">
<svg version="1.1" id="Capa_1" xmlns="http://www.w3.org/2000/svg" xmlns:xlink="http://www.w3.org/1999/xlink" x="0px" y="0px"
	 width="23.479px" height="23.479px" viewBox="0 0 23.479 23.479" style="enable-background:new 0 0 23.479 23.479;"
	 xml:space="preserve">
<g>
	<path style="fill:#121111;" d="M2.384,4.288C2.187,4.24,2.164,4.547,2.137,4.756c-0.108,0.841-0.807,1.3-1.224,1.941
		C0.578,7.209-0.495,7.929,0.269,8.468c0.988,0.7,0.633,2.051,1.798,2.692c0.522,0.287,1.067,0.71,1.721,0.847
		c-0.96,0.685-1.746,1.282-0.322,2.199c0.44,0.286,0.397,0.645,0.294,1.164c-0.099,0.491,0.188,1.523,0.926,1.005
		c0.736-0.517,0.673,0.071,0.896,0.301c0.2,0.203,0.038,0.612,0.398,0.77c0.198-0.294,0.395-0.585,0.589-0.873
		c0.436,0.191,0.501,0.802,1.077,0.849c0.203-1.011-0.318-1.85-0.602-2.736c-0.005-0.006-0.009-0.011-0.014-0.016l0,0l0,0l0,0l0,0
		c0.014-0.023,0.03-0.044,0.046-0.064c0.013-0.017,0.026-0.029,0.041-0.042c0.01-0.01,0.022-0.021,0.032-0.03
		c0.018-0.013,0.038-0.015,0.057-0.02c0.009,0,0.018-0.006,0.027-0.006c0.03,0.006,0.062,0.02,0.096,0.059
		c0.384,0.411,0.839,0.46,1.151,0.047c0.385-0.51-0.33-0.439-0.472-0.682c-0.12-0.203-0.136-0.468-0.197-0.709
		c0.379-0.046,0.708-0.405,1.144-0.125c0.371,0.241,0.572,0.723,1.099,0.769c0.057-0.506-0.037-1.095,0.199-1.485
		c0.589-0.979,0.404-1.483-0.712-1.693c-0.526-0.098-1.095-0.399-1.169-0.874c-0.17-1.131-1.033-1.779-1.611-2.612
		c-0.453-0.653-0.393-1.15-0.053-1.67c0.123,0.023,0.233,0.066,0.333,0.118c0.043,0.026,0.08,0.059,0.121,0.085
		c0.053,0.035,0.11,0.068,0.158,0.11c0.005,0.004,0.01,0.013,0.017,0.018c0.503,0.442,0.805,1.136,1.6,1.08
		C8.941,6.948,8.947,6.955,8.951,6.96c0.002,0.01,0.003,0.025,0.005,0.035C8.927,7.038,8.898,7.083,8.87,7.125
		c0.037,0.021,0.074,0.038,0.11,0.058c-0.008-0.06-0.017-0.122-0.024-0.185C8.969,6.98,8.98,6.962,8.994,6.942h0.003
		C8.974,6.944,8.957,6.937,8.935,6.94C8.899,6.89,8.858,6.839,8.821,6.79C8.815,6.784,8.812,6.777,8.806,6.771
		c-0.042-0.059-0.08-0.114-0.104-0.18c-0.1-0.263,0.133-0.224,0.253-0.211c0.392,0.04,0.373,0.801,0.945,0.553
		c-0.651-1.636-0.214-2.591,1.366-2.669c1.128-0.055,2.332-0.338,3.396,0.284c0.641,0.373,1.062,0.03,1.229-0.412
		c0.191-0.507,0.321-0.958,0.729-1.391c0.415-0.443-0.108-0.811-0.513-1.03c-0.25-0.138-0.718-0.333-0.743,0.091
		c-0.11,1.74-1.695,1.325-2.224,1.066C11.287,1.957,9.537,2.552,7.72,2.682C6.958,2.737,6.58,3.518,5.789,3.36
		C4.526,3.116,3.706,4.613,2.384,4.288z"/>
	<path style="fill:#121111;" d="M14.361,20.838c-1.527-0.539-3.265-0.306-4.834-0.903c-0.434-0.165-0.691,0.152-0.806,0.488
		c-0.106,0.312,0.053,0.643,0.408,0.686c2.048,0.24,4.015,1.207,6.156,0.655c0.413-0.108,0.641-0.254,0.63-0.805
		C15.41,20.685,14.958,21.049,14.361,20.838z"/>
	<path style="fill:#121111;" d="M16.562,9.582c-0.147-0.41-0.335-0.923-0.936-0.795c-0.362,0.077-0.998,0.115-0.856,0.616
		c0.134,0.472,0.772,0.58,1.192,0.68C16.387,10.092,16.715,10.002,16.562,9.582z"/>
	<path style="fill:#121111;" d="M21.986,18.622c-0.021,0.225,0.111,0.465,0.32,0.395c0.646-0.22,1.073-0.668,1.173-1.598
		C22.646,17.605,22.061,17.806,21.986,18.622z"/>
</g>
<g>
</g>
<g>
</g>
<g>
</g>
<g>
</g>
<g>
</g>
<g>
</g>
<g>
</g>
<g>
</g>
<g>
</g>
<g>
</g>
<g>
</g>
<g>
</g>
<g>
</g>
<g>
</g>
<g>
</g>
</svg>
