<?xml version="1.0" encoding="iso-8859-1"?>
<!-- Generator: Adobe Illustrator 16.0.0, SVG Export Plug-In . SVG Version: 6.00 Build 0)  -->
<!DOCTYPE svg PUBLIC "-//W3C//DTD SVG 1.1//EN" "http://www.w3.org/Graphics/SVG/1.1/DTD/svg11.dtd">
<svg version="1.1" id="Capa_1" xmlns="http://www.w3.org/2000/svg" xmlns:xlink="http://www.w3.org/1999/xlink" x="0px" y="0px"
	 width="21.105px" height="21.105px" viewBox="0 0 21.105 21.105" style="enable-background:new 0 0 21.105 21.105;"
	 xml:space="preserve">
<g>
	<path d="M15.141,9.681c-0.33-0.29-1.01-0.749,0.153-0.889c0.614-0.075,0.49-0.675,0.441-1.045c-0.123-0.935-0.518-1.843-0.81-2.7
		c-0.393-1.152-0.683-2.199-0.409-3.364c0.088-0.377-0.1-0.73-0.31-0.587c-0.854,0.589-0.974-0.162-1.384-0.57
		c-0.601-0.599-1.267-0.747-2.076-0.125C10.323,0.727,9.95,1.515,9.094,1.068C8.223,0.967,7.249,1.52,7.029,2.08
		C6.693,2.939,6.263,2.921,5.571,3.053c-0.862,0.163-0.186,1.146-0.61,1.664C4.804,4.909,4.74,5.524,5.301,5.665
		C7.364,6.186,6.718,7.864,6.81,9.213c0.034,0.505-0.928,1.282,0.417,1.391c-0.021,0.194,0.251,0.564-0.166,0.531
		c-0.471-0.038-0.62,0.111-0.273,0.399c0.861,0.716,0.672,1.194-0.171,1.742c-0.643,0.417-0.708,1.261-0.664,1.863
		c0.113,1.537,0.261,3.127,0.979,4.521c0.414,0.806,1.363,1.402,2.164,1.443c0.85,0.041,0.567-1.126,0.857-1.728
		c0.623-1.292,0.438-3.138,2.406-3.535c0.201-0.038,0.467-0.296,0.507-0.492c0.234-1.148,1.16-1.549,2.027-2.085
		C16.645,12.178,16.682,11.028,15.141,9.681z"/>
</g>
<g>
</g>
<g>
</g>
<g>
</g>
<g>
</g>
<g>
</g>
<g>
</g>
<g>
</g>
<g>
</g>
<g>
</g>
<g>
</g>
<g>
</g>
<g>
</g>
<g>
</g>
<g>
</g>
<g>
</g>
</svg>
