<?xml version="1.0" encoding="iso-8859-1"?>
<!-- Generator: Adobe Illustrator 16.0.0, SVG Export Plug-In . SVG Version: 6.00 Build 0)  -->
<!DOCTYPE svg PUBLIC "-//W3C//DTD SVG 1.1//EN" "http://www.w3.org/Graphics/SVG/1.1/DTD/svg11.dtd">
<svg version="1.1" id="Capa_1" xmlns="http://www.w3.org/2000/svg" xmlns:xlink="http://www.w3.org/1999/xlink" x="0px" y="0px"
	 width="21.842px" height="21.842px" viewBox="0 0 21.842 21.842" style="enable-background:new 0 0 21.842 21.842;"
	 xml:space="preserve">
<g>
	<path style="fill:#121111;" d="M16.51,17.743c0.585-0.261,0.806-0.594,0.878-1.232c0.535-4.766,0.735-9.574,1.75-14.286
		c0.105-0.484,0.188-1-0.621-1.313c-2.685-1.045-5.226-1.816-7.066,1.359c-0.075,0.128-0.203,0.231-0.324,0.326
		c-3.688,2.925-4.912,7.111-5.775,11.44c-0.454,2.275-0.26,4.727-2.216,6.493c-0.31,0.277-0.573,0.712-0.477,1.313
		c3.126-0.046,6.188-0.263,9.028-1.797C13.254,19.202,14.883,18.468,16.51,17.743z"/>
</g>
<g>
</g>
<g>
</g>
<g>
</g>
<g>
</g>
<g>
</g>
<g>
</g>
<g>
</g>
<g>
</g>
<g>
</g>
<g>
</g>
<g>
</g>
<g>
</g>
<g>
</g>
<g>
</g>
<g>
</g>
</svg>
