<?xml version="1.0" encoding="iso-8859-1"?>
<!-- Generator: Adobe Illustrator 16.0.0, SVG Export Plug-In . SVG Version: 6.00 Build 0)  -->
<!DOCTYPE svg PUBLIC "-//W3C//DTD SVG 1.1//EN" "http://www.w3.org/Graphics/SVG/1.1/DTD/svg11.dtd">
<svg version="1.1" id="Capa_1" xmlns="http://www.w3.org/2000/svg" xmlns:xlink="http://www.w3.org/1999/xlink" x="0px" y="0px"
	 width="20.918px" height="20.918px" viewBox="0 0 20.918 20.918" style="enable-background:new 0 0 20.918 20.918;"
	 xml:space="preserve">
<g>
	<path d="M16.525,14.154c1.346-0.722,2.431-1.812,3.617-2.761c0.278-0.224,0.627-0.499,0.084-0.739
		c-0.505-0.227-1.275-1.102-1.438-0.614c-0.298,0.902-0.641,0.371-0.899,0.229c-0.424-0.229-0.854-0.269-1.282-0.216
		c-0.822,0.104-1.079-0.173-1.028-1.026c0.156-2.546,0.008-5.107,0.317-7.648c0.114-0.945-0.096-1.419-1.227-1.376
		c-2.357,0.092-4.722,0.061-7.082,0.01C6.786-0.002,6.36,0.186,6.524,1.051C6.82,2.598,6.328,3.375,4.33,2.845
		c0.728,0.767,1.126,1.264,1.607,1.669c0.481,0.411,1.034,0.737,1.57,1.08c0.78,0.505,0.898,1.516,1.723,2.068
		c0.514,0.344-0.215,1.483-0.962,1.49c-1.524,0.017-3.05,0.047-4.572-0.012c-0.743-0.028-1.035,0.334-1.487,0.862
		c-1.544,1.794-1.647,3.91-1.672,6.076c-0.005,0.518-0.43,0.992,0.278,1.537c2.146,1.647,4.283,3.156,7.199,2.697
		c0.28-0.043,0.61-0.015,0.874,0.091c1.139,0.452,1.962,1.033,3.229-0.364c0.93-1.021,1.893-2.329,3.323-2.953
		c0.532-0.233,0.51-0.72,0.311-1.265C15.479,15.071,15.793,14.548,16.525,14.154z"/>
</g>
<g>
</g>
<g>
</g>
<g>
</g>
<g>
</g>
<g>
</g>
<g>
</g>
<g>
</g>
<g>
</g>
<g>
</g>
<g>
</g>
<g>
</g>
<g>
</g>
<g>
</g>
<g>
</g>
<g>
</g>
</svg>
