<?xml version="1.0" encoding="iso-8859-1"?>
<!-- Generator: Adobe Illustrator 16.0.0, SVG Export Plug-In . SVG Version: 6.00 Build 0)  -->
<!DOCTYPE svg PUBLIC "-//W3C//DTD SVG 1.1//EN" "http://www.w3.org/Graphics/SVG/1.1/DTD/svg11.dtd">
<svg version="1.1" id="Capa_1" xmlns="http://www.w3.org/2000/svg" xmlns:xlink="http://www.w3.org/1999/xlink" x="0px" y="0px"
	 width="21.212px" height="21.212px" viewBox="0 0 21.212 21.212" style="enable-background:new 0 0 21.212 21.212;"
	 xml:space="preserve">
<g>
	<path d="M1.054,8.489C0.979,8.884,1.434,9.657,1.823,9.806c1.541,0.591,2.295,1.897,3.111,3.138
		c0.342,0.518,0.589,0.414,0.908,0.123c0.355-0.326,0.854-0.654,0.963-1.065c0.401-1.539,1.761-1.036,2.707-1.376
		c1.564-0.563,2.124,0.761,2.646,1.701c0.489,0.879,1.001,1.937,0.189,3.108c2.755-0.877,3.854-0.8,3.694,2.229
		c-0.034,0.662,0.59,0.671,0.86,0.763c1.061,0.36,1.367-1.624,2.705-0.955c0.222,0.11,0.286-0.742,0.485-1.124
		c0.086-0.17,0.104-0.307-0.002-0.52c-0.419-0.834-0.388-0.902,0.571-0.754c0.399,0.062,0.687-0.16,0.481-0.306
		c-1.016-0.723,0.12-2.256-1.146-2.846c-0.138-0.063-0.233-0.487-0.161-0.672c0.367-0.959,0.013-1.681-0.309-2.625
		c-0.547-1.618-1.531-3.01-2.023-4.636c-0.171-0.562-0.67-1.489-1.425-0.178c-0.252,0.437-1.007,0.892-1.771,0.434
		c-0.957-0.572-1.912,0.879-3.013,0.039c-0.163-0.125-0.979,0.457-0.905-0.572c0.026-0.356-0.338-0.309-0.545-0.267
		c-1.73,0.342-3.329-0.134-4.941-0.678c-0.687-0.232-1.945,1.073-1.57,1.62c0.703,1.025,0.216,1.084-0.654,1.208
		c-1.072,0.155-1.894,0.6-2.504,1.695C-0.55,8.6,1.204,7.672,1.054,8.489z"/>
</g>
<g>
</g>
<g>
</g>
<g>
</g>
<g>
</g>
<g>
</g>
<g>
</g>
<g>
</g>
<g>
</g>
<g>
</g>
<g>
</g>
<g>
</g>
<g>
</g>
<g>
</g>
<g>
</g>
<g>
</g>
</svg>
