<?xml version="1.0" encoding="iso-8859-1"?>
<!-- Generator: Adobe Illustrator 16.0.0, SVG Export Plug-In . SVG Version: 6.00 Build 0)  -->
<!DOCTYPE svg PUBLIC "-//W3C//DTD SVG 1.1//EN" "http://www.w3.org/Graphics/SVG/1.1/DTD/svg11.dtd">
<svg version="1.1" id="Capa_1" xmlns="http://www.w3.org/2000/svg" xmlns:xlink="http://www.w3.org/1999/xlink" x="0px" y="0px"
	 width="20.878px" height="20.878px" viewBox="0 0 20.878 20.878" style="enable-background:new 0 0 20.878 20.878;"
	 xml:space="preserve">
<g>
	<path d="M2.705,9.304c0.027,0.327,0.914,1.637,1.331,1.562c1.148-0.205,2.436,0.578,3.469-0.447c0.244-0.245,0.541-0.621,1.1-0.267
		c-0.728,0.468-0.66,1.256-0.349,1.744c0.34,0.522,0.949-0.029,1.434-0.185c0.375-0.12,0.735-0.099,1.164,0.273
		c-0.539,0.152-1.023,0.212-1.428,0.425c-0.56,0.297-1.333,0.255-0.759,1.534c0.354,0.792,0.877,1.146,1.319,1.712
		c0.922,1.182,1.597,1.168,2.279-0.136c0.111-0.218,0.192-0.452,0.322-0.657c0.416-0.646,0.473-1.729,1.262-1.884
		c1.568-0.309,2.855-1.408,4.609-1.278c1.768,0.13,2.344-0.673,2.092-2.097c-0.117-0.656-0.74-0.729-1.057-1.144
		c-0.325-0.426-0.539-0.813,0.225-0.868c1.266-0.09,1.219-0.988,1.107-1.816c-0.117-0.855-0.487-1.495-1.609-1.351
		c-0.916,0.116-1.865-0.053-2.798-0.017c-2.985,0.119-6.11-0.654-8.821,1.333C7.42,5.871,7.126,5.854,6.886,5.879
		C4.572,6.13,2.22,6.141,0,6.919c0.028,0.039,0.075,0.119,0.137,0.178C0.945,7.849,2.559,7.576,2.705,9.304z"/>
</g>
<g>
</g>
<g>
</g>
<g>
</g>
<g>
</g>
<g>
</g>
<g>
</g>
<g>
</g>
<g>
</g>
<g>
</g>
<g>
</g>
<g>
</g>
<g>
</g>
<g>
</g>
<g>
</g>
<g>
</g>
</svg>
