<?xml version="1.0" encoding="iso-8859-1"?>
<!-- Generator: Adobe Illustrator 16.0.0, SVG Export Plug-In . SVG Version: 6.00 Build 0)  -->
<!DOCTYPE svg PUBLIC "-//W3C//DTD SVG 1.1//EN" "http://www.w3.org/Graphics/SVG/1.1/DTD/svg11.dtd">
<svg version="1.1" id="Capa_1" xmlns="http://www.w3.org/2000/svg" xmlns:xlink="http://www.w3.org/1999/xlink" x="0px" y="0px"
	 width="20.685px" height="20.685px" viewBox="0 0 20.685 20.685" style="enable-background:new 0 0 20.685 20.685;"
	 xml:space="preserve">
<g>
	<path d="M15.329,15.402c-0.169-0.347-0.006-0.893-0.635-1.02c-0.792-0.161-1.104-0.887-1.45-1.509
		c-0.39-0.701,0.26-2.826,0.881-3.009c1.073-0.311,1.907-2.936,1.021-3.583C14.118,5.529,13.35,4.299,11.898,4.2
		c-0.063-0.067-0.133-0.13-0.203-0.186c0.113-2.065-1.626-2.697-2.872-3.703C7.679-0.617,7.389,0.799,6.697,1.109
		C6.433,1.229,6.184,1.38,5.936,1.534C5.511,1.792,5.165,2.147,5.229,2.669c0.067,0.548,0.205,1.114,1.062,0.975
		C5.892,4.326,5.388,4.429,4.853,4.539C4.34,4.643,3.078,6.91,3.384,7.268c0.754,0.88,1.235,2.248,2.8,1.965
		C7.031,9.08,7.365,9.5,7.112,10.193c-0.273,0.754-0.018,0.889,0.577,1.292c0.411,0.281,0.98,1.085,0.376,2.006
		c-0.68,1.035-1.061,2.219-0.65,3.555c0.475,1.549,1.325,2.763,2.672,3.639c0.492,0,0.984,0,1.475,0
		c-0.012-0.481,0.188-0.856,0.686-0.907c1.612-0.163,2.927-1.585,4.692-1.101c0.11,0.028,0.265-0.099,0.408-0.155
		C16.22,17.755,15.875,16.522,15.329,15.402z"/>
</g>
<g>
</g>
<g>
</g>
<g>
</g>
<g>
</g>
<g>
</g>
<g>
</g>
<g>
</g>
<g>
</g>
<g>
</g>
<g>
</g>
<g>
</g>
<g>
</g>
<g>
</g>
<g>
</g>
<g>
</g>
</svg>
