<?xml version="1.0" encoding="iso-8859-1"?>
<!-- Generator: Adobe Illustrator 16.0.0, SVG Export Plug-In . SVG Version: 6.00 Build 0)  -->
<!DOCTYPE svg PUBLIC "-//W3C//DTD SVG 1.1//EN" "http://www.w3.org/Graphics/SVG/1.1/DTD/svg11.dtd">
<svg version="1.1" id="Capa_1" xmlns="http://www.w3.org/2000/svg" xmlns:xlink="http://www.w3.org/1999/xlink" x="0px" y="0px"
	 width="22.026px" height="22.026px" viewBox="0 0 22.026 22.026" style="enable-background:new 0 0 22.026 22.026;"
	 xml:space="preserve">
<g>
	<path style="fill:#121111;" d="M21.525,7.668c0.084-0.876,0.383-2.185-1.037-2.402c-1.967-0.3-3.895-0.59-5.761-1.394
		c-1.805-0.776-3.716-0.465-5.544,0.15C8.596,4.22,7.97,4.493,8.099,5.286c0.121,0.754,0.867,0.719,1.35,0.744
		c1.271,0.057,2.384,0.493,3.483,1.061c0.504,0.261,0.717,0.464,0.491,1.15c-0.606,1.836-0.161,3.409,1.573,4.477
		c0.085,0.055,0.18,0.116,0.235,0.198c0.313,0.471,1.386,0.386,1.104,1.214c-0.228,0.665-1.006,0.192-1.507,0.355
		c-0.279,0.092-0.622,0.205-0.777,0.423c-0.45,0.63-1.059,0.542-1.663,0.465c-3.125-0.401-6.281-0.607-9.328-1.509
		c-0.581-0.17-1.182-0.2-1.813-0.075c-0.917,0.187-1.059,0.941-1.219,1.586c-0.163,0.648,0.416,0.953,0.951,1.181
		c0.7,0.304,1.473,0.506,2.07,0.946c0.992,0.729,1.825,1.739,2.88,0.061c0.175-0.28,0.838-0.285,1.286-0.36
		c1.19-0.195,2.35,0.01,3.476,0.369c1.208,0.391,2.46,0.428,3.641,0.148c2.363-0.561,4.651-0.996,6.575,0.896
		c1.291-2.045-0.82-2.883-1.455-4.43c1.11,0.064,1.919-0.477,1.859-1.324c-0.079-1.149-0.396-2.213,0.701-3.055
		c0.05-0.041-0.048-0.416-0.171-0.519C21.265,8.811,21.458,8.31,21.525,7.668z"/>
	<path style="fill:#121111;" d="M12.223,13.245c0.247,0.096,0.571,0.342,0.752-0.11c0.11-0.277-0.013-0.499-0.238-0.652
		c-0.802-0.536-1.618-1.041-2.539-1.217c-0.342,0.04-0.715-0.115-0.873,0.237c-0.207,0.47,0.202,0.642,0.511,0.778
		C10.619,12.625,11.42,12.942,12.223,13.245z"/>
</g>
<g>
</g>
<g>
</g>
<g>
</g>
<g>
</g>
<g>
</g>
<g>
</g>
<g>
</g>
<g>
</g>
<g>
</g>
<g>
</g>
<g>
</g>
<g>
</g>
<g>
</g>
<g>
</g>
<g>
</g>
</svg>
