<?xml version="1.0" encoding="iso-8859-1"?>
<!-- Generator: Adobe Illustrator 16.0.0, SVG Export Plug-In . SVG Version: 6.00 Build 0)  -->
<!DOCTYPE svg PUBLIC "-//W3C//DTD SVG 1.1//EN" "http://www.w3.org/Graphics/SVG/1.1/DTD/svg11.dtd">
<svg version="1.1" id="Capa_1" xmlns="http://www.w3.org/2000/svg" xmlns:xlink="http://www.w3.org/1999/xlink" x="0px" y="0px"
	 width="20.843px" height="20.843px" viewBox="0 0 20.843 20.843" style="enable-background:new 0 0 20.843 20.843;"
	 xml:space="preserve">
<g>
	<path d="M9.626,13.07c0.85,0.217,0.932-1.141,1.515-0.805c1.72,0.986,2.191-0.723,2.926-1.409c0.663-0.62,0.776-1.81,2.068-0.901
		c0.163,0.116,0.545-0.085,0.828-0.127c1.353-0.191,2.558-0.813,3.879-1.292c-0.471-0.461-0.652-1.315-1.576-0.903
		c-0.239,0.106-0.382,0.039-0.44-0.17c-0.48-1.686-1.984-1.835-3.311-2.051c-1.35-0.222-2.885-0.541-4.09-0.113
		C9.723,5.902,8.043,6.032,6.447,5.643C5.017,5.292,4.134,5.914,3.145,6.545C2.362,7.042,1.675,7.692,0.893,8.192
		c-0.984,0.627-0.324,1.784-0.889,2.569c-0.125,0.176,3.112,1.79,3.598,1.691c0.651-0.134,1.674,0.344,1.641,0.417
		c-0.577,1.221,0.644,1.466,1.054,2.124c0.306,0.486,0.684,0.938,1.29,0.691c0.661-0.267,1.151-0.819,1.271-1.537
		C8.946,13.616,8.603,12.81,9.626,13.07z"/>
</g>
<g>
</g>
<g>
</g>
<g>
</g>
<g>
</g>
<g>
</g>
<g>
</g>
<g>
</g>
<g>
</g>
<g>
</g>
<g>
</g>
<g>
</g>
<g>
</g>
<g>
</g>
<g>
</g>
<g>
</g>
</svg>
