<?xml version="1.0" encoding="iso-8859-1"?>
<!-- Generator: Adobe Illustrator 16.0.0, SVG Export Plug-In . SVG Version: 6.00 Build 0)  -->
<!DOCTYPE svg PUBLIC "-//W3C//DTD SVG 1.1//EN" "http://www.w3.org/Graphics/SVG/1.1/DTD/svg11.dtd">
<svg version="1.1" id="Capa_1" xmlns="http://www.w3.org/2000/svg" xmlns:xlink="http://www.w3.org/1999/xlink" x="0px" y="0px"
	 width="21.862px" height="21.862px" viewBox="0 0 21.862 21.862" style="enable-background:new 0 0 21.862 21.862;"
	 xml:space="preserve">
<g>
	<path style="fill:#121111;" d="M21.631,7.214c-1.06-0.353-1.571-2.072-3.076-1.263c-0.131,0.069-0.397-0.022-0.56-0.113
		c-1.857-1.037-2.95-0.921-4.67,0.385c-0.412,0.311-0.95,0.42-1.527,0.502C10.57,6.898,9.115,6.678,8.288,8.026
		c-0.214,0.348-0.62,0.33-0.965,0.339c-1.17,0.039-2.35,0.152-3.327-0.75C3.51,7.167,2.973,7.275,2.851,7.929
		C2.699,8.729,2.367,8.81,1.698,8.542c-0.334-0.135-0.788-0.13-0.705,0.42c0.192,1.274-0.192,2.429-0.993,2.93
		c0.631,1.799,2.303,2.622,3.649,3.688c1.28,1.018,2.729,1.582,4.623,0.709c1.513-0.695,3.192-1.426,5.09-1.117
		c1.144,0.184,2.42-0.134,3.191-1.199c0.65-0.897,1.159-1.898,1.73-2.854c0.709-1.192,1.158-2.601,2.897-2.79
		C21.596,8.287,22.197,7.404,21.631,7.214z"/>
</g>
<g>
</g>
<g>
</g>
<g>
</g>
<g>
</g>
<g>
</g>
<g>
</g>
<g>
</g>
<g>
</g>
<g>
</g>
<g>
</g>
<g>
</g>
<g>
</g>
<g>
</g>
<g>
</g>
<g>
</g>
</svg>
