<?xml version="1.0" encoding="iso-8859-1"?>
<!-- Generator: Adobe Illustrator 16.0.0, SVG Export Plug-In . SVG Version: 6.00 Build 0)  -->
<!DOCTYPE svg PUBLIC "-//W3C//DTD SVG 1.1//EN" "http://www.w3.org/Graphics/SVG/1.1/DTD/svg11.dtd">
<svg version="1.1" id="Capa_1" xmlns="http://www.w3.org/2000/svg" xmlns:xlink="http://www.w3.org/1999/xlink" x="0px" y="0px"
	 width="21.08px" height="21.08px" viewBox="0 0 21.08 21.08" style="enable-background:new 0 0 21.08 21.08;" xml:space="preserve"
	>
<g>
	<path d="M4.076,13.49c-0.27,0.062-0.791-0.362-0.749,0.278c0.038,0.566,0.591,0.431,0.942,0.387c1.388-0.18,2.587,0.103,3.9,0.727
		c1.292,0.617,2.952,1.172,4.381,0.242c1.552-1.009,3.317-1.519,4.99-2.133c1.393-0.515,2.313-1.315,3.155-2.364
		c0.692-0.861,0.41-1.679-0.526-2.174c-0.904-0.477-1.791-1.063-1.412-2.449c-0.821,0.457-1.498,0.645-2.188-0.242
		c-0.316-0.406-1.131-0.533-1.199,0.471c-0.012,0.201-0.002,0.408-0.231,0.464c-1.237,0.29-2.583,0.514-3.735,0.201
		c-1.171-0.316-1.483,0.186-1.91,0.979C8.874,7.543,7.964,5.815,7.824,8.204C7.806,8.512,6.84,8.643,6.379,9.025
		c-0.172,0.142-0.373-0.384-0.33-0.523c0.479-1.595-0.917-1.831-1.76-2.401C3.515,5.578,3.354,5.676,2.92,6.655
		c-0.183,0.413-0.387,0.09-0.563,0.07c-0.445-0.054-0.816,0.099-0.935,0.5C1.19,7.996,0.474,8.325,0,8.866
		c1.495,1.073,3.156-0.938,4.507,0.297c-0.605,1.269-1.825,1.367-3.043,1.477c-0.239,0.021-0.569,0.078-0.539,0.353
		c0.036,0.331,0.388,0.509,0.67,0.347c0.625-0.358,1.261-0.181,1.872-0.093c0.869,0.123,1.214,0.885,1.408,1.599
		C4.996,13.281,4.459,13.403,4.076,13.49z"/>
</g>
<g>
</g>
<g>
</g>
<g>
</g>
<g>
</g>
<g>
</g>
<g>
</g>
<g>
</g>
<g>
</g>
<g>
</g>
<g>
</g>
<g>
</g>
<g>
</g>
<g>
</g>
<g>
</g>
<g>
</g>
</svg>
