<?xml version="1.0" encoding="iso-8859-1"?>
<!-- Generator: Adobe Illustrator 16.0.0, SVG Export Plug-In . SVG Version: 6.00 Build 0)  -->
<!DOCTYPE svg PUBLIC "-//W3C//DTD SVG 1.1//EN" "http://www.w3.org/Graphics/SVG/1.1/DTD/svg11.dtd">
<svg version="1.1" id="Capa_1" xmlns="http://www.w3.org/2000/svg" xmlns:xlink="http://www.w3.org/1999/xlink" x="0px" y="0px"
	 width="21.477px" height="21.478px" viewBox="0 0 21.477 21.478" style="enable-background:new 0 0 21.477 21.478;"
	 xml:space="preserve">
<g>
	<path style="fill:#121111;" d="M17.782,4.736c-2.172-1.708-4.248-1.705-6.36-0.141C9.248,6.203,5.35,4.935,4.904,2.339
		C4.702,1.158,4.373,1.303,3.708,1.802C2.775,2.503,1.91,2.79,1.095,1.652C0.871,1.342,0.623,1.396,0.317,1.618
		c-0.295,0.218-0.37,0.427-0.284,0.771C0.407,3.899,0.62,5.485,1.877,6.6c0.31,0.272,0.466,0.64,0.255,0.893
		C0.765,9.143,2.157,9.903,3.18,10.72c0.579,0.46,0.972,0.84,1.054,1.683c0.05,0.508,0.223,1.724,1.038,1.555
		c1.742-0.364,2.017,0.871,2.751,1.876c0.984,1.351,2.489,2.471,4.113,2.386c1.329-0.066,2.246-0.939,3.266,0.938
		c0.546,1.011,2.75,0.57,4.194,0.867c0.934,0.191,0.398-1.01,0.926-1.305c0.088-0.051,0.171-0.115,0.253-0.174
		c0.402-0.287,0.763-1.446,0.693-1.911c-0.064-0.415-0.307-0.552-0.61-0.773c-0.93-0.668-2.031-1.346-0.711-2.661
		c0.259-0.259,0.379-0.816-0.034-0.912c-1.441-0.326-0.783-1.525-1.035-2.321c-0.365-1.154,0.618-2.102,0.661-3.535
		C20.003,5.2,18.499,5.3,17.782,4.736z"/>
</g>
<g>
</g>
<g>
</g>
<g>
</g>
<g>
</g>
<g>
</g>
<g>
</g>
<g>
</g>
<g>
</g>
<g>
</g>
<g>
</g>
<g>
</g>
<g>
</g>
<g>
</g>
<g>
</g>
<g>
</g>
</svg>
