<?xml version="1.0" encoding="iso-8859-1"?>
<!-- Generator: Adobe Illustrator 16.0.0, SVG Export Plug-In . SVG Version: 6.00 Build 0)  -->
<!DOCTYPE svg PUBLIC "-//W3C//DTD SVG 1.1//EN" "http://www.w3.org/Graphics/SVG/1.1/DTD/svg11.dtd">
<svg version="1.1" id="Capa_1" xmlns="http://www.w3.org/2000/svg" xmlns:xlink="http://www.w3.org/1999/xlink" x="0px" y="0px"
	 width="21.123px" height="21.123px" viewBox="0 0 21.123 21.123" style="enable-background:new 0 0 21.123 21.123;"
	 xml:space="preserve">
<g>
	<path d="M1.633,13.497c1.221,0.176,2.338,0.581,3.43,1.183c2.562,1.404,4.687,3.383,6.992,5.122
		c1.361,1.028,2.918,0.675,4.393,0.755c0.997,0.052,1.173-1.028,1.559-1.739c0.305-0.558,0.791-0.752,1.355-0.55
		c0.522,0.188,1.035,0.188,1.761,0.177c-0.207-0.384-0.304-0.603-0.431-0.799c-0.64-0.979-1.435-1.856-1.155-3.219
		c0.187-0.901-0.54-1.573-1.174-2.008c-1.025-0.702-2.092-1.145-2.803-2.391c-1.058-1.855-1.278-2.063,0.144-3.743
		c0.567-0.667-0.324-1.393,0.24-1.99c-1.761-0.092-2.094-1.576-2.711-2.781c-0.128-0.25-0.177-0.644-0.551-0.563
		C11.729,1.16,10.9,0.62,9.982,0.566c-0.886-0.05-4.304,1.609-4.605,2.458C5.299,3.242,5.314,3.511,5.336,3.752
		C5.536,5.87,5.416,7.796,2.925,8.611C2.239,8.835,1.615,9.276,1,9.674c-0.437,0.285-1.309,0.394-0.889,1.221
		C0.565,11.787,0.059,13.267,1.633,13.497z"/>
</g>
<g>
</g>
<g>
</g>
<g>
</g>
<g>
</g>
<g>
</g>
<g>
</g>
<g>
</g>
<g>
</g>
<g>
</g>
<g>
</g>
<g>
</g>
<g>
</g>
<g>
</g>
<g>
</g>
<g>
</g>
</svg>
