<?xml version="1.0" encoding="iso-8859-1"?>
<!-- Generator: Adobe Illustrator 16.0.0, SVG Export Plug-In . SVG Version: 6.00 Build 0)  -->
<!DOCTYPE svg PUBLIC "-//W3C//DTD SVG 1.1//EN" "http://www.w3.org/Graphics/SVG/1.1/DTD/svg11.dtd">
<svg version="1.1" id="Capa_1" xmlns="http://www.w3.org/2000/svg" xmlns:xlink="http://www.w3.org/1999/xlink" x="0px" y="0px"
	 width="20.959px" height="20.959px" viewBox="0 0 20.959 20.959" style="enable-background:new 0 0 20.959 20.959;"
	 xml:space="preserve">
<g>
	<path d="M4.625,20.952c2.71,0.115,4.929-1.292,7.222-2.393c1.31-0.627,2.591-1.35,4.05-1.313c1.297,0.031,2.116-0.351,2.334-1.664
		c0.195-1.184,1.289-2.154,0.877-3.463c-0.422-1.343-0.162-2.856-1.004-4.084c-0.425-0.621,0.477-0.578,0.459-1.217
		c-1.326,0.254-2.183-0.281-2.857-1.367c-0.475-0.762-0.998-0.428-1.229,0.285C14.184,6.634,13.57,6.634,12.85,6.41
		c-0.848-0.265-1.41-0.867-1.95-1.562c2.077-0.981,2.652-3.293,4.62-4.263c-0.873-0.648-1.375-0.737-2.354-0.367
		c-1.604,0.605-3.466,0.499-4.071,2.625C9.008,3.143,8.177,3.042,8.35,3.55c0.168,0.5,0.803,0.429,1.264,0.521
		c0.234,0.046,0.576-0.31,0.706,0.202c-1.023,0.74-1.914,1.804-3.372,1.575C5.951,5.69,4.973,5.602,3.953,5.675
		c-1.346,0.097-1.18,0.597-0.5,1.33C3.175,7.383,2.651,6.919,2.404,7.378c0.657,0.65,1.503,0.696,2.399,0.78
		C3.854,8.25,3.736,9.146,3.205,9.6c-0.622,0.528-0.639,0.783,0.224,1.097c1.22,0.447,2.375,1.077,3.797,0.945
		c-0.639,0.315-1.458,0.417-1.646,1.118c-0.189,0.703-0.449,1.282-1.091,1.611c-0.587,0.301-0.687,0.629-0.205,1.1
		c-0.625,0.248-0.419,1.652-1.655,1.138c-0.299-0.123-0.855,0.175-0.869,0.7c0.438,0.426,0.965-0.01,1.479,0.242
		c-0.43,0.337-0.859,0.627-1.234,0.977c-0.283,0.267-0.416,0.729,0.149,0.682c0.85-0.074,0.82,1.42,1.834,0.908
		c0.186-0.094,0.212,0.201,0.162,0.288C3.743,21.099,4.228,20.938,4.625,20.952z"/>
</g>
<g>
</g>
<g>
</g>
<g>
</g>
<g>
</g>
<g>
</g>
<g>
</g>
<g>
</g>
<g>
</g>
<g>
</g>
<g>
</g>
<g>
</g>
<g>
</g>
<g>
</g>
<g>
</g>
<g>
</g>
</svg>
