<?xml version="1.0" encoding="iso-8859-1"?>
<!-- Generator: Adobe Illustrator 16.0.0, SVG Export Plug-In . SVG Version: 6.00 Build 0)  -->
<!DOCTYPE svg PUBLIC "-//W3C//DTD SVG 1.1//EN" "http://www.w3.org/Graphics/SVG/1.1/DTD/svg11.dtd">
<svg version="1.1" id="Capa_1" xmlns="http://www.w3.org/2000/svg" xmlns:xlink="http://www.w3.org/1999/xlink" x="0px" y="0px"
	 width="21.704px" height="21.704px" viewBox="0 0 21.704 21.704" style="enable-background:new 0 0 21.704 21.704;"
	 xml:space="preserve">
<g>
	<path style="fill:#121111;" d="M11.606,5.008c1.211,0.736,1.463-0.101,2.253-0.863c0.952-0.922,1.181-1.752,1.161-2.855
		C15.012,0.822,14.85,0.354,14.78,0c-1.28-0.003-1.551,1.653-2.734,1.6c-0.971-0.045-1.193,0.453-1.437,1.169
		c-1.075,3.146-1.854,6.417-3.785,9.212c-0.166,0.24-0.175,0.468-0.084,0.719c1.076,2.986,2.154,5.971,3.231,8.955
		c0.13,0.017,0.26,0.034,0.391,0.049c0.527-3.744,1.955-7.268,2.556-11.131c-1.094,0.235-2.169,1.197-2.738,0.48
		c-0.532-0.673,0.558-1.328,1.208-1.809c0.048-0.035,0.025-0.166,0.035-0.25c-1.214-0.626-1.428-2.939-0.351-3.78
		C11.218,5.097,11.503,4.946,11.606,5.008z"/>
</g>
<g>
</g>
<g>
</g>
<g>
</g>
<g>
</g>
<g>
</g>
<g>
</g>
<g>
</g>
<g>
</g>
<g>
</g>
<g>
</g>
<g>
</g>
<g>
</g>
<g>
</g>
<g>
</g>
<g>
</g>
</svg>
