<?xml version="1.0" encoding="iso-8859-1"?>
<!-- Generator: Adobe Illustrator 16.0.0, SVG Export Plug-In . SVG Version: 6.00 Build 0)  -->
<!DOCTYPE svg PUBLIC "-//W3C//DTD SVG 1.1//EN" "http://www.w3.org/Graphics/SVG/1.1/DTD/svg11.dtd">
<svg version="1.1" id="Capa_1" xmlns="http://www.w3.org/2000/svg" xmlns:xlink="http://www.w3.org/1999/xlink" x="0px" y="0px"
	 width="21.925px" height="21.925px" viewBox="0 0 21.925 21.925" style="enable-background:new 0 0 21.925 21.925;"
	 xml:space="preserve">
<g>
	<path style="fill:#121111;" d="M20.862,14.09c-0.858-0.732-1.874-1.208-2.895-1.665c-0.381-0.169-1.126-0.202-0.945-0.743
		c0.317-0.948-0.228-0.766-0.734-0.75c-1.466,0.046-2.491-0.72-2.946-1.999c-0.396-1.106-1.02-1.916-2.044-2.301
		c-1.572-0.59-0.412-1.919-0.837-2.835c-0.189-0.412,0.787-0.34,1.155-0.645c0.182-0.151,0.455-0.263,0.689-0.269
		c0.743-0.021,0.521-0.535,0.391-0.848c-0.154-0.368,0.411-1.058-0.494-1.116c-0.503-0.034-1.231,0.002-1.46-0.299
		c-0.875-1.146-1.801-0.35-2.757-0.369C6.822,0.23,6.348,2.055,5.044,1.141c-0.396,1.014-0.889,1.244-1.569,0.21
		C3.448,1.312,3.128,1.37,3.106,1.432c-0.311,0.976-1.158,0.819-1.88,0.913c-0.263,0.035-0.633,0.27-0.57,0.35
		C1.382,3.626,0.238,4.52,0.695,5.521c0.468,1.023,1.628,1.84,2.362,1.259c1.729-1.367,3.295-0.938,3.881,1.208
		c0.282,1.041,0.993,1.603,1.724,2.133c1.315,0.958,2.381,2.187,4.146,2.652c1.195,0.319,2.126,1.67,3.295,2.425
		c0.745,0.48,0.938,1.509,0.888,2.292c-0.026,0.469-0.673,1.016-1.44,1.248c-1.406,0.425-2.777,0.195-4.161,0.145
		c-0.435-0.015-0.705,0.062-0.778,0.496c-0.069,0.42,0.152,0.604,0.547,0.769c0.979,0.405,1.95,0.849,2.87,1.37
		c0.413,0.232,0.775,0.584,1.231,0.301c0.455-0.284,0.438-0.766,0.221-1.306c0.071-0.457,0.048-1.31,0.658-1.215
		c1.351,0.214,1.325-0.943,1.947-1.481c1.042-0.905,1.234-1.444-0.018-2.199c-0.097-0.057-0.04-0.484,0.044-0.706
		c0.309-0.837,1.21-0.837,2.124-0.002c0.268,0.245,0.442,0.828,0.905,0.348C21.574,14.812,21.221,14.398,20.862,14.09z"/>
	<path style="fill:#121111;" d="M4.772,12.595c-0.62,0.242-2.5,0.355-1.308,2.063c0.163,0.232,0.022,0.675,0.022,1.168
		c-0.112,0.552-0.347,1.512,0.688,1.451c0.688-0.04,1.806-0.304,1.607-1.631c-0.081-0.517,0.271-1.101,0.195-1.62
		C5.876,13.34,5.726,12.223,4.772,12.595z"/>
</g>
<g>
</g>
<g>
</g>
<g>
</g>
<g>
</g>
<g>
</g>
<g>
</g>
<g>
</g>
<g>
</g>
<g>
</g>
<g>
</g>
<g>
</g>
<g>
</g>
<g>
</g>
<g>
</g>
<g>
</g>
</svg>
