<?xml version="1.0" encoding="iso-8859-1"?>
<!-- Generator: Adobe Illustrator 16.0.0, SVG Export Plug-In . SVG Version: 6.00 Build 0)  -->
<!DOCTYPE svg PUBLIC "-//W3C//DTD SVG 1.1//EN" "http://www.w3.org/Graphics/SVG/1.1/DTD/svg11.dtd">
<svg version="1.1" id="Capa_1" xmlns="http://www.w3.org/2000/svg" xmlns:xlink="http://www.w3.org/1999/xlink" x="0px" y="0px"
	 width="22.025px" height="22.025px" viewBox="0 0 22.025 22.025" style="enable-background:new 0 0 22.025 22.025;"
	 xml:space="preserve">
<g>
	<path style="fill:#121111;" d="M3.031,15.716c1.147,1.136,2.384,2.303,1.089,4.156c-0.218,0.313-0.023,0.903-0.056,1.362
		c-0.067,0.891,0.308,0.938,0.991,0.587c4.309-2.214,8.837-3.172,13.682-2.507c0.619,0.086,1.439,0.471,1.874-0.331
		c0.393-0.729,0.067-1.319-0.604-1.778c-0.171-0.118-0.146-0.484-0.272-0.7c-1.374-2.319-0.073-4.447,0.894-6.277
		c0.858-1.627,0.896-2.872,0.375-4.502c-0.981-3.083-2.344-3.593-4.886-2.59c-1.593,0.629-2.387,0.177-3.191-1.103
		c-0.585-0.93-1.824-1.474-2.61-0.946C8.247,2.477,9.077,0.756,8.965,0C8.658,0,8.351,0,8.042,0c-0.107,0.56-1.258,0.197-0.98,1.102
		C6.382,1.266,5.854,2.016,4.985,1.464C3.878,0.763,2.154,1.71,2.227,3.018C2.322,4.696,3,6.243,3.705,7.758
		c-0.116,0.107-0.22,0.063-0.372,0.035C2.855,7.7,2.25,7.43,1.915,7.903C1.607,8.335,2.183,8.65,2.323,9.002
		c0.221,0.557,0.139,1.548-0.616,1.716c-0.713,0.159-0.688,0.324-0.437,0.825c0.58,1.152,0.391,2.166-0.59,2.935
		C1.262,15.397,2.411,15.103,3.031,15.716z"/>
</g>
<g>
</g>
<g>
</g>
<g>
</g>
<g>
</g>
<g>
</g>
<g>
</g>
<g>
</g>
<g>
</g>
<g>
</g>
<g>
</g>
<g>
</g>
<g>
</g>
<g>
</g>
<g>
</g>
<g>
</g>
</svg>
