<?xml version="1.0" encoding="iso-8859-1"?>
<!-- Generator: Adobe Illustrator 16.0.0, SVG Export Plug-In . SVG Version: 6.00 Build 0)  -->
<!DOCTYPE svg PUBLIC "-//W3C//DTD SVG 1.1//EN" "http://www.w3.org/Graphics/SVG/1.1/DTD/svg11.dtd">
<svg version="1.1" id="Capa_1" xmlns="http://www.w3.org/2000/svg" xmlns:xlink="http://www.w3.org/1999/xlink" x="0px" y="0px"
	 width="21.991px" height="21.991px" viewBox="0 0 21.991 21.991" style="enable-background:new 0 0 21.991 21.991;"
	 xml:space="preserve">
<g>
	<path style="fill:#121111;" d="M20.331,10.529c-3.067-0.726-5.604-2.843-8.834-3.143C8.13,7.074,4.775,6.44,1.421,7.406
		C0.64,7.632,0.029,8.129,0.001,9.014c-0.033,1.012,0.756,0.999,1.479,1.132c0.573,0.105,1.21,0.047,1.661,0.625
		c1.489,1.899,3.104,3.556,5.875,3.12c0.571-0.088,1.196,0.266,1.662,0.695c0.718,0.665,1.105,0.807,1.63-0.334
		c0.563-1.232,2.716,0.313,3.252-1.51c0.072-0.247,0.421,0.07,0.646,0.125c0.28,0.068,0.553,0.166,0.823,0.271
		c0.812,0.318,1.604,0.712,2.521,0.613c0.663-0.024,1.328-0.019,1.964-0.277c0.316-0.131,0.597-0.249,0.424-0.64
		C21.547,11.958,21.246,10.746,20.331,10.529z"/>
</g>
<g>
</g>
<g>
</g>
<g>
</g>
<g>
</g>
<g>
</g>
<g>
</g>
<g>
</g>
<g>
</g>
<g>
</g>
<g>
</g>
<g>
</g>
<g>
</g>
<g>
</g>
<g>
</g>
<g>
</g>
</svg>
