<?xml version="1.0" encoding="iso-8859-1"?>
<!-- Generator: Adobe Illustrator 16.0.0, SVG Export Plug-In . SVG Version: 6.00 Build 0)  -->
<!DOCTYPE svg PUBLIC "-//W3C//DTD SVG 1.1//EN" "http://www.w3.org/Graphics/SVG/1.1/DTD/svg11.dtd">
<svg version="1.1" id="Capa_1" xmlns="http://www.w3.org/2000/svg" xmlns:xlink="http://www.w3.org/1999/xlink" x="0px" y="0px"
	 width="22.249px" height="22.25px" viewBox="0 0 22.249 22.25" style="enable-background:new 0 0 22.249 22.25;"
	 xml:space="preserve">
<g>
	<path style="fill:#121111;" d="M15.812,4.962c1.237,0.686,2.063,0.064,3.235-0.388c1.427-0.553,1.946-1.704,3.201-2.54
		C19.215,2.447,19.21,2.451,16.807,0.5c-0.26-0.212-0.488-0.377-0.805-0.257c-0.398,0.15-0.236,0.491-0.212,0.778
		c0.083,0.98,0.037,2.193-0.83,2.554c-1.602,0.664-1.62,1.67-1.257,3.052c0.439-0.275,1.174-0.685,1.152-0.728
		C14.199,4.55,15.699,4.898,15.812,4.962z"/>
	<path style="fill:#121111;" d="M0.333,19.694c0.923-0.147,0.677,0.282,0.615,0.766c-0.076,0.582-0.328,1.356,0.432,1.562
		c0.688,0.185,0.746-0.675,1.066-1.082c0.123-0.157,0.189-0.359,0.302-0.523c0.341-0.492,0.392-1,1.428-0.869
		c1.734,0.22,2.762-1.267,2.3-2.763c0.352,0.032,0.663,0.019,0.751,0.535c0.208,1.211,0.781,1.466,1.583,0.604
		c0.912-0.98,2.153-0.743,3.184-1.188c1.084-0.469,2.691-0.265,2.63-2.361c-0.028-0.917,0.004-2.463,0.616-2.949
		c1.403-1.11,0.977-2.167,0.517-3.353c-0.179-0.464,0.124-1.468-0.879-1.191c-0.817,0.228-1.758,0.686-1.562,1.772
		c0.285,1.584-0.653,2.643-1.429,3.761c-0.299,0.434-1.101,0.965-1.406,0.721c-1.221-0.973-1.125,0.12-1.514,0.731
		c-0.344,0.538-0.369,1.473-1.418,1.388c-2.177-0.174-4.065,0.588-5.749,1.919c-0.311,0.246-0.133,0.556-0.069,0.847
		c-0.583,0.072-1.036,0.4-1.451,0.778C-0.081,19.125-0.124,19.766,0.333,19.694z"/>
</g>
<g>
</g>
<g>
</g>
<g>
</g>
<g>
</g>
<g>
</g>
<g>
</g>
<g>
</g>
<g>
</g>
<g>
</g>
<g>
</g>
<g>
</g>
<g>
</g>
<g>
</g>
<g>
</g>
<g>
</g>
</svg>
