<?xml version="1.0" encoding="iso-8859-1"?>
<!-- Generator: Adobe Illustrator 16.0.0, SVG Export Plug-In . SVG Version: 6.00 Build 0)  -->
<!DOCTYPE svg PUBLIC "-//W3C//DTD SVG 1.1//EN" "http://www.w3.org/Graphics/SVG/1.1/DTD/svg11.dtd">
<svg version="1.1" id="Capa_1" xmlns="http://www.w3.org/2000/svg" xmlns:xlink="http://www.w3.org/1999/xlink" x="0px" y="0px"
	 width="21.817px" height="21.817px" viewBox="0 0 21.817 21.817" style="enable-background:new 0 0 21.817 21.817;"
	 xml:space="preserve">
<g>
	<path style="fill:#121111;" d="M20.333,5.34c-0.273-0.125-0.423-0.303-0.37-0.578c0.283-1.489-0.663-2.709-0.88-4.089
		c-0.114-0.729-0.438-0.855-1.117-0.432c-2.249,1.401-4.643,2.591-6.788,4.136C8.81,6.079,7.222,5.12,5.618,3.807
		C5.087,3.369,4.657,3.136,3.989,3.36C3.258,3.608,3.303,4.276,3.336,4.757C3.65,9.25,1.99,13.394,1.052,17.653
		c-0.735,3.337-0.876,3.303,2.434,3.922c0.1,0.021,0.194,0.061,0.295,0.082c2.092,0.431,3.268,0.045,4.351-1.801
		c0.675-1.149,1.573-1.566,2.788-1.764c0.739-0.12,1.729,0.038,2.045-0.982c0.243-0.78,0.694-1.348,1.446-1.656
		c0.639-0.261,0.572-0.544,0.146-0.993c-1.371-1.445-2.708-2.918-4.235-4.571c2.835-0.778,5.569-1.525,8.301-2.287
		c0.682-0.19,1.346-0.405,1.898-0.915C21.439,5.84,21.464,5.856,20.333,5.34z"/>
</g>
<g>
</g>
<g>
</g>
<g>
</g>
<g>
</g>
<g>
</g>
<g>
</g>
<g>
</g>
<g>
</g>
<g>
</g>
<g>
</g>
<g>
</g>
<g>
</g>
<g>
</g>
<g>
</g>
<g>
</g>
</svg>
