<?xml version="1.0" encoding="iso-8859-1"?>
<!-- Generator: Adobe Illustrator 16.0.0, SVG Export Plug-In . SVG Version: 6.00 Build 0)  -->
<!DOCTYPE svg PUBLIC "-//W3C//DTD SVG 1.1//EN" "http://www.w3.org/Graphics/SVG/1.1/DTD/svg11.dtd">
<svg version="1.1" id="Capa_1" xmlns="http://www.w3.org/2000/svg" xmlns:xlink="http://www.w3.org/1999/xlink" x="0px" y="0px"
	 width="21.11px" height="21.11px" viewBox="0 0 21.11 21.11" style="enable-background:new 0 0 21.11 21.11;" xml:space="preserve"
	>
<g>
	<path d="M0.541,8.35c0.273,0.207,0.188,0.524,0.288,0.702c0.836,1.489,1.761,2.928,2.688,4.363c0.06,0.092,0.382-0.012,0.569,0.029
		c1.796,0.387,3.858,3.813,3.206,5.295c-0.265,0.599-0.863,1.244-0.352,1.866c0.58,0.706,0.862-0.481,1.468-0.42
		c0.368,0.038,1.038,0.151,0.863-0.831c-0.403-2.263-0.278-2.355,1.857-3.211c0.314-0.125,0.716-0.138,0.951-0.347
		c0.979-0.867,1.729-0.673,2.325,0.415c0.329,0.597,0.919,0.676,1.1,0.133c0.55-1.677,2.001-1.741,3.169-1.993
		c0.54-0.747-1.132-0.836-0.278-1.463c1.338-0.985,1.682-2.584,2.604-3.814c0.344-0.456-0.194-0.9-0.347-0.844
		c-1.229,0.479-2.034-0.746-3.152-0.705c-0.704,0.026-1.114-0.354-0.688-1.112c0.394-0.701,0.004-0.555-0.511-0.78
		c-0.595-0.262-1.399-0.305-1.801-1.365c-0.283-0.747-0.922-2.156-2.472-2.145c-0.809,0.007-2.085,0.157-1.988-1.427
		c0.014-0.23-0.38-0.54-0.925-0.365c-0.766,0.25-1.42,0.801-2.496,0.757c1.593,1.639,1.557,1.9-0.15,2.986
		c-0.281,0.177-0.813,0.43-0.786,0.554c0.375,1.82-1.001,1.379-1.916,1.545C3.528,6.215,3.139,6.286,3.1,6.424
		C2.762,7.601,1.981,7.382,1.16,7.109c-0.425-0.142-0.844-0.005-1.059,0.31C-0.204,7.861,0.25,8.129,0.541,8.35z"/>
</g>
<g>
</g>
<g>
</g>
<g>
</g>
<g>
</g>
<g>
</g>
<g>
</g>
<g>
</g>
<g>
</g>
<g>
</g>
<g>
</g>
<g>
</g>
<g>
</g>
<g>
</g>
<g>
</g>
<g>
</g>
</svg>
