<?xml version="1.0" encoding="iso-8859-1"?>
<!-- Generator: Adobe Illustrator 16.0.0, SVG Export Plug-In . SVG Version: 6.00 Build 0)  -->
<!DOCTYPE svg PUBLIC "-//W3C//DTD SVG 1.1//EN" "http://www.w3.org/Graphics/SVG/1.1/DTD/svg11.dtd">
<svg version="1.1" id="Capa_1" xmlns="http://www.w3.org/2000/svg" xmlns:xlink="http://www.w3.org/1999/xlink" x="0px" y="0px"
	 width="22.119px" height="22.119px" viewBox="0 0 22.119 22.119" style="enable-background:new 0 0 22.119 22.119;"
	 xml:space="preserve">
<g>
	<path style="fill:#121111;" d="M17.806,10.874c-0.118-0.717-0.732-0.688-1.343-0.646c-0.789,0.055-1.63,0.269-2.425-0.415
		c0.647-0.6,1.275-1.176,1.895-1.762c0.378-0.358,0.771-0.776,1.331-0.511c0.66,0.314,1.228,0.072,1.876-0.012
		c1.24-0.166,1.989-0.815,1.91-1.94c-0.083-1.198-0.981-2.304-1.946-2.759c-0.499-0.239-0.75,1.324-1.202,2.019
		c-0.078,0.12-0.109,0.27-0.258,0.643c-0.286-0.62-0.687-1.088-0.673-1.541c0.04-1.217-0.715-1.592-1.627-2.056
		c-1.69-0.86-3.386-0.793-5.207-0.6c-2.068,0.222-3.4,1.121-4.136,3.059c-0.78,2.051-1.704,4.049-3.011,5.829
		C2.074,11.43,1.049,12.599,0,13.895c2.657,0.335,5.134,0.688,7.621,0.955c2.935,0.317,3.328,0.621,4.057,3.485
		c0.101,0.395,0.135,0.848,0.352,1.166c0.412,0.611,0.718,1.429,1.64,1.437c2.784,0.018,5.569,0.005,8.45,0.005
		C20.984,17.31,18.408,14.517,17.806,10.874z"/>
</g>
<g>
</g>
<g>
</g>
<g>
</g>
<g>
</g>
<g>
</g>
<g>
</g>
<g>
</g>
<g>
</g>
<g>
</g>
<g>
</g>
<g>
</g>
<g>
</g>
<g>
</g>
<g>
</g>
<g>
</g>
</svg>
