<?xml version="1.0" encoding="iso-8859-1"?>
<!-- Generator: Adobe Illustrator 16.0.0, SVG Export Plug-In . SVG Version: 6.00 Build 0)  -->
<!DOCTYPE svg PUBLIC "-//W3C//DTD SVG 1.1//EN" "http://www.w3.org/Graphics/SVG/1.1/DTD/svg11.dtd">
<svg version="1.1" id="Capa_1" xmlns="http://www.w3.org/2000/svg" xmlns:xlink="http://www.w3.org/1999/xlink" x="0px" y="0px"
	 width="21.268px" height="21.268px" viewBox="0 0 21.268 21.268" style="enable-background:new 0 0 21.268 21.268;"
	 xml:space="preserve">
<g>
	<path d="M20.791,7.948c-1.045-0.37-1.829-1.236-3.02-1.347c-1.317-0.12-2.633-0.157-3.951-0.219
		C12.167,6.3,10.468,6.934,8.862,5.777c-0.704-0.51-1.675-0.013-1.919,0.925C6.715,7.58,6.219,7.512,5.676,7.24
		c-0.864-0.431-1.75-0.599-2.698-0.51c-0.702,0.067-1.54,0.581-1.3,1.078c0.471,0.976-0.271,0.987-0.673,1.235
		C0.593,9.295,0.26,9.555,0,10.04c0.654,0.235,1.195,0.351,1.641,0.794c0.622,0.622,1.122,0.024,1.605-0.367
		c0.028-0.021,0.222,0.11,0.296,0.204c0.584,0.74,1.531,0.776,2.616,1.372c-1.537,0.086-2.301,1.419-3.852,1.025
		c-0.782-0.2-1.655,0.482-1.513,1.525c0.149,1.095,0.893,0.769,1.553,0.45c0.251-0.119,0.443-0.021,0.661,0.14
		c1.514,1.111,3.026,0.085,4.539-0.038c0.278-0.021,0.307-0.293,0.39-0.538c0.463-1.369,2.361-2.168,3.695-1.604
		c0.587,0.25,1.53-0.019,1.596-0.236c0.496-1.655,1.885-1.231,2.998-1.455c0.237-0.049,0.586-0.078,0.678-0.236
		c0.84-1.429,2.451-1.496,3.732-2.102C21.439,8.593,21.459,8.185,20.791,7.948z"/>
</g>
<g>
</g>
<g>
</g>
<g>
</g>
<g>
</g>
<g>
</g>
<g>
</g>
<g>
</g>
<g>
</g>
<g>
</g>
<g>
</g>
<g>
</g>
<g>
</g>
<g>
</g>
<g>
</g>
<g>
</g>
</svg>
