<?xml version="1.0" encoding="iso-8859-1"?>
<!-- Generator: Adobe Illustrator 16.0.0, SVG Export Plug-In . SVG Version: 6.00 Build 0)  -->
<!DOCTYPE svg PUBLIC "-//W3C//DTD SVG 1.1//EN" "http://www.w3.org/Graphics/SVG/1.1/DTD/svg11.dtd">
<svg version="1.1" id="Capa_1" xmlns="http://www.w3.org/2000/svg" xmlns:xlink="http://www.w3.org/1999/xlink" x="0px" y="0px"
	 width="21.359px" height="21.359px" viewBox="0 0 21.359 21.359" style="enable-background:new 0 0 21.359 21.359;"
	 xml:space="preserve">
<g>
	<path d="M19.516,18.946c0.387-0.867-0.6-1.753-0.535-2.049c0.312-1.434-0.726-1.626-1.469-2.148
		c-0.109-0.076-0.188-0.203-0.267-0.316c-1.59-2.309-3.09-4.696-5.649-6.11c-0.267-0.146-0.692-0.181-0.425-0.719
		C11.349,7.247,11.499,7,11.913,7.176c0.447,0.189,0.712,0.007,1.003-0.327c0.569-0.653,0.083-0.92-0.232-1.501
		c-0.626-1.155-1.034-1.83-2.496-1.095C9.583,4.559,8.41,3.921,8.534,3.226C8.826,1.58,7.179,1.441,6.726,0.422
		c-0.22-0.495-0.836-0.518-1.264-0.26c-0.431,0.26-0.43,0.739-0.183,1.177C5.5,1.731,5.633,2.094,5.532,2.586
		C5.393,3.269,4.851,3.29,4.622,2.98C3.792,1.862,3.505,3.001,3.04,3.294C2.725,3.492,2.791,3.976,2.375,4.186
		C0.608,5.086,3.262,5.914,2.453,6.854C2.301,7.031,2.537,7.313,2.78,7.417c0.131,0.055,0.306,0.112,0.427,0.069
		c1.41-0.485,1.252,0.747,1.154,1.299c-0.149,0.836-0.208,1.694-0.417,2.52c-0.09,0.358-0.529,0.771-0.13,1.061
		c0.432,0.312,0.781-0.151,1.134-0.411c0.814-0.596,1.518-1.631,2.723-0.49C8.045,11.819,8.568,11.328,8.92,11
		c0.999-0.927,1.635-0.887,2.459,0.17c0.75,0.961,1.789,1.749,1.401,3.26c-0.146,0.568,0.467,1.07,0.891,1.443
		c0.519,0.452,1.324,0.714,0.986,1.598c-0.271,0.715,0.291,1.567-0.268,2.125c-0.78,0.781-0.752,1.055,0.384,1.147
		c0.349,0.028,0.674,0.337,1.202,0.616c0.126-1.076,0.165-1.974,1.63-1.271C18.374,20.456,19.149,19.77,19.516,18.946z"/>
</g>
<g>
</g>
<g>
</g>
<g>
</g>
<g>
</g>
<g>
</g>
<g>
</g>
<g>
</g>
<g>
</g>
<g>
</g>
<g>
</g>
<g>
</g>
<g>
</g>
<g>
</g>
<g>
</g>
<g>
</g>
</svg>
