<?xml version="1.0" encoding="iso-8859-1"?>
<!-- Generator: Adobe Illustrator 16.0.0, SVG Export Plug-In . SVG Version: 6.00 Build 0)  -->
<!DOCTYPE svg PUBLIC "-//W3C//DTD SVG 1.1//EN" "http://www.w3.org/Graphics/SVG/1.1/DTD/svg11.dtd">
<svg version="1.1" id="Capa_1" xmlns="http://www.w3.org/2000/svg" xmlns:xlink="http://www.w3.org/1999/xlink" x="0px" y="0px"
	 width="22.195px" height="22.195px" viewBox="0 0 22.195 22.195" style="enable-background:new 0 0 22.195 22.195;"
	 xml:space="preserve">
<g>
	<path style="fill:#121111;" d="M20.981,9.64c0.138-0.177-0.035-0.465-0.248-0.663c-0.878-0.823-1.88-1.333-3.101-1.039
		c-0.683,0.164-1.233,0.076-1.643-0.47c-0.629-0.833-1.616-1.065-2.47-1.469c-1.061-0.502-2.102,0.109-3.048,0.563
		c-0.875,0.42-0.218,1.229-0.15,1.778c0.152,1.221-0.606,1.726-1.441,2.044c-0.895,0.338-1.574-0.065-2.104-0.98
		C5.621,7.421,3.007,6.79,1.981,8.344c-1.184,1.79-2.534,3.704-1.746,6.313c1.598-1.176,3.267-1.468,5.136-1.405
		c2.062,0.073,4.145,1.196,6.211,0.017c0.065-0.038,0.233-0.009,0.281,0.051c1.092,1.357,3.137,1.104,4.216,2.54
		c0.473,0.63,1.28,0.694,1.919,0.188c0.42-0.335,0.802-0.363,1.27-0.283c1.361,0.239,1.831-1.094,2.676-1.684
		c0.632-0.438-0.085-1.356-0.43-2.038C21.146,11.311,20.189,10.67,20.981,9.64z"/>
</g>
<g>
</g>
<g>
</g>
<g>
</g>
<g>
</g>
<g>
</g>
<g>
</g>
<g>
</g>
<g>
</g>
<g>
</g>
<g>
</g>
<g>
</g>
<g>
</g>
<g>
</g>
<g>
</g>
<g>
</g>
</svg>
