<?xml version="1.0" encoding="iso-8859-1"?>
<!-- Generator: Adobe Illustrator 16.0.0, SVG Export Plug-In . SVG Version: 6.00 Build 0)  -->
<!DOCTYPE svg PUBLIC "-//W3C//DTD SVG 1.1//EN" "http://www.w3.org/Graphics/SVG/1.1/DTD/svg11.dtd">
<svg version="1.1" id="Capa_1" xmlns="http://www.w3.org/2000/svg" xmlns:xlink="http://www.w3.org/1999/xlink" x="0px" y="0px"
	 width="21.188px" height="21.188px" viewBox="0 0 21.188 21.188" style="enable-background:new 0 0 21.188 21.188;"
	 xml:space="preserve">
<g>
	<path d="M17.354,0.622c-0.34-0.512-1.024-0.79-1.396-0.51c-0.946,0.725-1.965,0.38-2.952,0.485
		c-0.398,0.043-0.962-0.169-0.938,0.564c0.031,0.984-0.749,1.277-1.405,1.681c-1.211,0.75-2.135,1.884-2.392,3.176
		c-0.34,1.713-0.932,3.25-1.747,4.766c-0.924,1.717-1.304,3.702-2.423,5.323c-1.035,1.495-1.167,3.318-2.179,4.885
		c1.078,0.062,1.914,0.067,2.74,0.166c1.129,0.137,1.91-0.141,2.1-1.405c0.057-0.368,0.158-0.879,0.594-0.94
		c1.652-0.237,2.737-1.448,3.729-2.511c0.535-0.574,2.829-1.162,0.92-2.796c-0.293-0.25-0.021-0.757,0.228-1.059
		c0.572-0.697,1.193-1.29,2.217-1.22c0.746,0.055,1.5,0.013,2.355,0.013c-1.23-1.333-1.154-1.837,0.496-2.701
		c1.137-0.596,2.139-1.568,1.937-2.656c-0.269-1.451-0.453-3.372-2.944-3.551c0.365-0.398,0.543-0.557,0.678-0.747
		C17.173,1.296,17.683,1.111,17.354,0.622z"/>
</g>
<g>
</g>
<g>
</g>
<g>
</g>
<g>
</g>
<g>
</g>
<g>
</g>
<g>
</g>
<g>
</g>
<g>
</g>
<g>
</g>
<g>
</g>
<g>
</g>
<g>
</g>
<g>
</g>
<g>
</g>
</svg>
