<?xml version="1.0" encoding="iso-8859-1"?>
<!-- Generator: Adobe Illustrator 16.0.0, SVG Export Plug-In . SVG Version: 6.00 Build 0)  -->
<!DOCTYPE svg PUBLIC "-//W3C//DTD SVG 1.1//EN" "http://www.w3.org/Graphics/SVG/1.1/DTD/svg11.dtd">
<svg version="1.1" id="Capa_1" xmlns="http://www.w3.org/2000/svg" xmlns:xlink="http://www.w3.org/1999/xlink" x="0px" y="0px"
	 width="22.151px" height="22.152px" viewBox="0 0 22.151 22.152" style="enable-background:new 0 0 22.151 22.152;"
	 xml:space="preserve">
<g>
	<path style="fill:#121111;" d="M20.725,5.416c-2.042-1.107-3.598-2.828-5.274-4.383c-0.384-0.355-0.666-0.631-1.153-0.466
		c-3.444,1.163-6.828,2.417-9.159,5.458c-1.363,1.777-2.172,4.095-4.667,4.792c-0.431,0.119-0.553,0.545-0.417,1.015
		c0.673,2.3,2.295,4.12,3.207,6.334c0.398,0.965,1.814,1.966,2.904,2.792c0.909,0.687,2.06,0.707,3.075,0.664
		c0.843-0.036,0.753-1.213,1.16-1.805c0.961-1.39,1.391-3.48,3.684-3.398c1.289,0.047,2.406-0.424,3.456-1.016
		c2.49-1.397,2.731-4.343,4.25-6.42c0.227-0.307,0.236-0.771,0.362-1.215C21.817,6.914,21.71,5.95,20.725,5.416z"/>
</g>
<g>
</g>
<g>
</g>
<g>
</g>
<g>
</g>
<g>
</g>
<g>
</g>
<g>
</g>
<g>
</g>
<g>
</g>
<g>
</g>
<g>
</g>
<g>
</g>
<g>
</g>
<g>
</g>
<g>
</g>
</svg>
