<?xml version="1.0" encoding="iso-8859-1"?>
<!-- Generator: Adobe Illustrator 16.0.0, SVG Export Plug-In . SVG Version: 6.00 Build 0)  -->
<!DOCTYPE svg PUBLIC "-//W3C//DTD SVG 1.1//EN" "http://www.w3.org/Graphics/SVG/1.1/DTD/svg11.dtd">
<svg version="1.1" id="Capa_1" xmlns="http://www.w3.org/2000/svg" xmlns:xlink="http://www.w3.org/1999/xlink" x="0px" y="0px"
	 width="22.112px" height="22.112px" viewBox="0 0 22.112 22.112" style="enable-background:new 0 0 22.112 22.112;"
	 xml:space="preserve">
<g>
	<path style="fill:#121111;" d="M4.74,12.224c1.216,0.798,2.544,1.458,3.563,2.515c3.211,3.335,7.021,5.679,11.395,7.165
		c0.864,0.296,1.348,0.455,1.146-0.778c-0.19-1.164-0.11-2.308,0.475-3.412c0.46-0.872,0.754-2.067,0.229-2.802
		c-0.828-1.157-1.932-2.324-3.19-2.899c-0.875-0.398-1.816-0.656-2.7-1.344c1.588-1.144,1.657-2.597,1.01-4.239
		c-0.307-0.778-0.608-1.654-1.459-1.781c-0.826-0.124-0.41,1.017-0.926,1.367c-0.153,0.102-0.178,0.371-0.312,0.518
		c-0.329,0.366-0.945,0.547-1.194,0.306c-0.482-0.464-1.626-0.605-1.455-1.256c0.353-1.331-0.329-2.393-0.55-3.553
		c-0.3-1.583-2.822-2.68-3.897-1.592C6.148,1.173,5.25,2.094,4.941,3.067c-0.38,1.196-1.107,1.892-1.994,2.566
		C2.008,6.35,1.152,7.132,0.523,8.153c-0.279,0.45-0.384,0.769,0.087,1.161C1.91,10.393,3.359,11.317,4.74,12.224z"/>
</g>
<g>
</g>
<g>
</g>
<g>
</g>
<g>
</g>
<g>
</g>
<g>
</g>
<g>
</g>
<g>
</g>
<g>
</g>
<g>
</g>
<g>
</g>
<g>
</g>
<g>
</g>
<g>
</g>
<g>
</g>
</svg>
