<?xml version="1.0" encoding="iso-8859-1"?>
<!-- Generator: Adobe Illustrator 16.0.0, SVG Export Plug-In . SVG Version: 6.00 Build 0)  -->
<!DOCTYPE svg PUBLIC "-//W3C//DTD SVG 1.1//EN" "http://www.w3.org/Graphics/SVG/1.1/DTD/svg11.dtd">
<svg version="1.1" id="Capa_1" xmlns="http://www.w3.org/2000/svg" xmlns:xlink="http://www.w3.org/1999/xlink" x="0px" y="0px"
	 width="21.07px" height="21.07px" viewBox="0 0 21.07 21.07" style="enable-background:new 0 0 21.07 21.07;" xml:space="preserve"
	>
<g>
	<path d="M0.11,10.881c-0.067,0.285,1.217,2.65,1.496,2.69c1.636,0.229,2.555,1.764,4.162,2.218
		c0.788,0.223,1.325,0.475,1.968-0.008c0.769-0.579,1.419-0.531,2.262-0.053c2.727,1.545,5.508,2.986,8.27,4.467
		c1.564,0.838,2.643,0.204,2.651-1.552c0.025-5.044-0.055-10.093,0.145-15.13c0.059-1.466-0.238-1.908-1.604-1.883
		c-0.419,0.007-0.847-0.223-1.154-0.585c-0.382-0.448-0.894-0.585-1.394-0.523c-1.95,0.02-2.829,0.943-2.735,2.758
		c0.059,1.105-0.687,1.203-1.475,1.009c-0.402-0.099-0.724-0.493-1.105-0.714c-1.325-0.769-3.038-0.467-4.129-2.171
		C6.753,0.289,4.761,0.712,3.332,0.522c-0.725-0.095-0.307,0.86-0.999,1.086C0.692,2.145,1.339,4.351,0.009,5.223
		c-0.029,0.019,0.017,0.189,0.06,0.271C1.043,7.284,0.525,9.082,0.11,10.881z"/>
</g>
<g>
</g>
<g>
</g>
<g>
</g>
<g>
</g>
<g>
</g>
<g>
</g>
<g>
</g>
<g>
</g>
<g>
</g>
<g>
</g>
<g>
</g>
<g>
</g>
<g>
</g>
<g>
</g>
<g>
</g>
</svg>
