<?xml version="1.0" encoding="iso-8859-1"?>
<!-- Generator: Adobe Illustrator 16.0.0, SVG Export Plug-In . SVG Version: 6.00 Build 0)  -->
<!DOCTYPE svg PUBLIC "-//W3C//DTD SVG 1.1//EN" "http://www.w3.org/Graphics/SVG/1.1/DTD/svg11.dtd">
<svg version="1.1" id="Capa_1" xmlns="http://www.w3.org/2000/svg" xmlns:xlink="http://www.w3.org/1999/xlink" x="0px" y="0px"
	 width="22.178px" height="22.178px" viewBox="0 0 22.178 22.178" style="enable-background:new 0 0 22.178 22.178;"
	 xml:space="preserve">
<g>
	<path style="fill:#121111;" d="M7.159,18.927c-0.666,0.467-1.34,0.923-2.019,1.375c-0.484,0.323-0.693,0.735-0.467,1.306
		c0.237,0.606,0.661,0.352,1.123,0.334c1.001-0.039,1.881-0.36,2.756-0.783c0.656-0.319,1.503-0.651,1.947,0.079
		c0.755,1.245,1.683,1.003,2.756,0.68c1.055-0.321,2.276-0.391,2.365-1.896c0.028-0.478,0.312-0.701,0.729-0.866
		c1.362-0.521,1.587-1.253,0.777-2.451c-0.21-0.31-0.654-0.467-0.46-1.02c0.608-1.731,0.291-2.371-1.218-3.373
		c-0.874-0.582-1.663-1.326-2.36-2.117c-0.415-0.473-0.648-1.153-0.29-1.851c0.93-1.804,0.906-1.959-0.81-3.025
		c-0.545-0.34-0.876-0.6-0.255-1.103c0.879-0.709,0.459-1.312-0.125-1.89C10.884,1.61,10.132,0.925,9.152,0
		C9.117,1.986,7.836,3.209,7.165,4.714c-0.987,2.218-2.554,4.501-0.66,6.998c1.065,1.408,1.342,3.032,1.641,4.696
		C8.34,17.508,8.038,18.306,7.159,18.927z"/>
</g>
<g>
</g>
<g>
</g>
<g>
</g>
<g>
</g>
<g>
</g>
<g>
</g>
<g>
</g>
<g>
</g>
<g>
</g>
<g>
</g>
<g>
</g>
<g>
</g>
<g>
</g>
<g>
</g>
<g>
</g>
</svg>
