<?xml version="1.0" encoding="iso-8859-1"?>
<!-- Generator: Adobe Illustrator 16.0.0, SVG Export Plug-In . SVG Version: 6.00 Build 0)  -->
<!DOCTYPE svg PUBLIC "-//W3C//DTD SVG 1.1//EN" "http://www.w3.org/Graphics/SVG/1.1/DTD/svg11.dtd">
<svg version="1.1" id="Capa_1" xmlns="http://www.w3.org/2000/svg" xmlns:xlink="http://www.w3.org/1999/xlink" x="0px" y="0px"
	 width="20.623px" height="20.624px" viewBox="0 0 20.623 20.624" style="enable-background:new 0 0 20.623 20.624;"
	 xml:space="preserve">
<g>
	<path d="M20.368,9.574c-0.848-0.04-0.6-0.528-0.437-0.986c0.137-0.384,0.199-0.615-0.281-0.938
		c-3.955-2.646-3.94-2.666-8.323-2.896c-0.097-0.005-0.197-0.022-0.289-0.051C8.775,4.002,6.397,4.39,4.016,3.973
		C2.729,4.189,1.489,4.751,0.34,5.523c-0.14,0.093-0.26,0.293-0.29,0.46c-0.243,1.269,0.461,2.393,0.644,3.599
		c0.055,0.353,1.035,0.543,1.565,0.854c0.801,0.469,1.662,0.493,2.553,0.528C5.645,11,6.521,11.515,6.166,12.36
		c-0.622,1.469-0.047,2.076,1.216,2.379c0.965,0.232,1.182,0.971,1.563,1.713c0.243,0.467,4.208,0.025,4.667-0.477
		c0.508-0.555,1.265-0.559,1.837-0.945c0.645-0.439,0.676,0.965,1.387,0.448c0.986-0.719-0.537-0.772-0.334-1.466
		c0.517-1.766,1.326-3.086,3.275-3.376c0.406-0.061,0.497-0.436,0.75-0.648C20.739,9.809,20.56,9.587,20.368,9.574z"/>
</g>
<g>
</g>
<g>
</g>
<g>
</g>
<g>
</g>
<g>
</g>
<g>
</g>
<g>
</g>
<g>
</g>
<g>
</g>
<g>
</g>
<g>
</g>
<g>
</g>
<g>
</g>
<g>
</g>
<g>
</g>
</svg>
