<?xml version="1.0" encoding="iso-8859-1"?>
<!-- Generator: Adobe Illustrator 16.0.0, SVG Export Plug-In . SVG Version: 6.00 Build 0)  -->
<!DOCTYPE svg PUBLIC "-//W3C//DTD SVG 1.1//EN" "http://www.w3.org/Graphics/SVG/1.1/DTD/svg11.dtd">
<svg version="1.1" id="Capa_1" xmlns="http://www.w3.org/2000/svg" xmlns:xlink="http://www.w3.org/1999/xlink" x="0px" y="0px"
	 width="22.06px" height="22.06px" viewBox="0 0 22.06 22.06" style="enable-background:new 0 0 22.06 22.06;" xml:space="preserve"
	>
<g>
	<path style="fill:#121111;" d="M3.838,18.676c-0.738,0.587-0.194,1.217,0.193,1.327c1.529,0.438,2.765,1.459,4.243,1.957
		c0.658,0.22,1.46,0.062,1.909-0.336c1.806-1.604,3.584-1.4,5.435-0.178c0.81,0.535,0.849,0.107,0.931-0.608
		c0.275-2.464,0.874-4.769,2.857-6.547c1.151-1.034,0.543-3.005-0.91-3.464c-0.729-0.234-1.452-0.481-2.153-0.776
		c-2.319-0.975-5.793-4.603-5.355-7.707c0.319-0.763,0.134-1.877-0.719-2.011C9.18,0.167,8.014-0.507,6.774,0.729
		C5.083,2.412,4.272,4.532,3.05,6.447c-1.306,2.048-1.371,3.907,0.047,5.844c0.751,1.025,1.374,2.141,2.077,3.204
		c0.193,0.289,0.242,0.531,0.029,0.828C4.668,17.063,4.591,18.078,3.838,18.676z"/>
</g>
<g>
</g>
<g>
</g>
<g>
</g>
<g>
</g>
<g>
</g>
<g>
</g>
<g>
</g>
<g>
</g>
<g>
</g>
<g>
</g>
<g>
</g>
<g>
</g>
<g>
</g>
<g>
</g>
<g>
</g>
</svg>
