<?xml version="1.0" encoding="iso-8859-1"?>
<!-- Generator: Adobe Illustrator 16.0.0, SVG Export Plug-In . SVG Version: 6.00 Build 0)  -->
<!DOCTYPE svg PUBLIC "-//W3C//DTD SVG 1.1//EN" "http://www.w3.org/Graphics/SVG/1.1/DTD/svg11.dtd">
<svg version="1.1" id="Capa_1" xmlns="http://www.w3.org/2000/svg" xmlns:xlink="http://www.w3.org/1999/xlink" x="0px" y="0px"
	 width="20.857px" height="20.857px" viewBox="0 0 20.857 20.857" style="enable-background:new 0 0 20.857 20.857;"
	 xml:space="preserve">
<g>
	<path d="M0.28,13.309c0.04,1.646,1.161,3.146,2.122,3.771c1.29,0.838,3.272,1.119,5.02,0.528c0.385-0.13,0.744-0.293,1.127-0.146
		c1.22,0.466,2.214-0.181,2.787-0.995c1.141-1.62,2.646-1.696,4.259-1.35c1.087,0.233,2.253,0.242,2.923-0.425
		c0.676-0.675,1.004-1.698,2.09-1.965c0.018-0.002,0.014-0.092,0.018-0.14c0.156-1.999,0.693-4.03-0.702-5.856
		c-0.247-0.321-0.465-0.639-0.858-0.741c-1.26-0.327-2.121-1.181-2.877-2.162C15.812,3.346,15.38,2.85,14.76,2.949
		c-2.289,0.367-4.566,0.813-6.845,1.246C7.569,4.259,7.253,4.458,7.126,4.796c-0.23,0.61-0.483,0.499-0.964,0.211
		C5.309,4.496,2.819,5.17,2.547,6.035c-0.282,0.894-0.089,1.912-1.61,1.83c-0.389-0.02-0.55,1.168-0.51,1.835
		C0.458,10.22,0.566,10.673,0,10.952c0,0.395,0,0.785,0,1.179C0.538,12.412,0.271,12.914,0.28,13.309z"/>
</g>
<g>
</g>
<g>
</g>
<g>
</g>
<g>
</g>
<g>
</g>
<g>
</g>
<g>
</g>
<g>
</g>
<g>
</g>
<g>
</g>
<g>
</g>
<g>
</g>
<g>
</g>
<g>
</g>
<g>
</g>
</svg>
