<?xml version="1.0" encoding="iso-8859-1"?>
<!-- Generator: Adobe Illustrator 16.0.0, SVG Export Plug-In . SVG Version: 6.00 Build 0)  -->
<!DOCTYPE svg PUBLIC "-//W3C//DTD SVG 1.1//EN" "http://www.w3.org/Graphics/SVG/1.1/DTD/svg11.dtd">
<svg version="1.1" id="Capa_1" xmlns="http://www.w3.org/2000/svg" xmlns:xlink="http://www.w3.org/1999/xlink" x="0px" y="0px"
	 width="21.153px" height="21.153px" viewBox="0 0 21.153 21.153" style="enable-background:new 0 0 21.153 21.153;"
	 xml:space="preserve">
<g>
	<path d="M5.617,18.192c0.019,0.04,0,0.098,0.001,0.146c0.062,1.441,1.095,2.612,2.479,2.809c0.793,0.111,2.909-1.094,3.162-1.862
		c0.852-2.591,1.699-5.187,2.495-7.795c0.338-1.109,0.487-2.375,0.909-3.334c0.367-0.833-0.249-2.327,1.244-2.639
		c0.068-0.015,0.157-0.289,0.12-0.405c-0.504-1.556-0.306-3.321-1.402-4.703c-0.278-0.351-0.754-0.646-0.858-0.127
		c-0.217,1.082-1.317,1.6-1.573,2.335C11.536,4.504,10.075,5.182,8.54,5.78C6.55,6.554,5.773,7.84,6.344,9.937
		c0.166,0.607,0.336,1.211,0.488,1.762c-0.074,0.312-0.063,0.598-0.197,0.774C5.33,14.214,4.553,16.034,5.617,18.192z"/>
</g>
<g>
</g>
<g>
</g>
<g>
</g>
<g>
</g>
<g>
</g>
<g>
</g>
<g>
</g>
<g>
</g>
<g>
</g>
<g>
</g>
<g>
</g>
<g>
</g>
<g>
</g>
<g>
</g>
<g>
</g>
</svg>
