<?xml version="1.0" encoding="iso-8859-1"?>
<!-- Generator: Adobe Illustrator 16.0.0, SVG Export Plug-In . SVG Version: 6.00 Build 0)  -->
<!DOCTYPE svg PUBLIC "-//W3C//DTD SVG 1.1//EN" "http://www.w3.org/Graphics/SVG/1.1/DTD/svg11.dtd">
<svg version="1.1" id="Capa_1" xmlns="http://www.w3.org/2000/svg" xmlns:xlink="http://www.w3.org/1999/xlink" x="0px" y="0px"
	 width="21.106px" height="21.106px" viewBox="0 0 21.106 21.106" style="enable-background:new 0 0 21.106 21.106;"
	 xml:space="preserve">
<g>
	<path d="M14.622,17.816c0.053-0.024,0.041-0.185,0.062-0.279c0.514-2.424-0.572-5.084-2.633-6.449
		c-0.669-0.441-1.434-3.207-1.054-3.924c0.051-0.094,0.289-0.089,0.461-0.119c-0.159-0.538-0.246-1.048,0.534-1.165
		c0.316-0.047,0.494-0.285,0.246-0.465c-1.13-0.821-0.566-2.073-0.852-3.103c-0.241-0.876-0.619-2.056-1.453-1.972
		C8.837,0.45,7.884,0.029,7.017,0c0.107,1.378,2.852,2.159,0.707,4.017C7.683,4.051,7.895,4.329,7.848,4.41
		C7.03,5.806,8.993,7.757,6.957,8.92c-0.081,0.046-0.04,0.367-0.001,0.548c0.098,0.468-0.02,0.955-0.282,1.253
		c-0.817,0.928-0.151,1.398,0.532,1.75c0.263,0.137,0.529,0.232,0.635,0.485c0.431,1.028,1.225,1.167,2.14,0.848
		c0.745-0.261,1.003,0.122,1.122,0.712c0.126,0.627,0.208,1.277-0.2,1.846c-0.833,1.158-0.25,2.021,0.514,2.916
		c0.416,0.486,1.157,0.724,1.178,1.559c0.007,0.242,0.638,0.432,0.566,0.064C12.882,19.454,13.266,18.438,14.622,17.816z"/>
	<path d="M11.605,7.31c0.037,0.007,0.082-0.042,0.123-0.066c-0.08-0.054-0.162-0.107-0.242-0.161
		C11.432,7.198,11.461,7.282,11.605,7.31z"/>
	<path d="M11.488,7.084c0.007-0.017-0.002-0.026,0.01-0.044c-0.012,0.003-0.027,0.003-0.041,0.006
		c0.002,0.008,0.004,0.015,0.007,0.023C11.473,7.074,11.48,7.078,11.488,7.084z"/>
</g>
<g>
</g>
<g>
</g>
<g>
</g>
<g>
</g>
<g>
</g>
<g>
</g>
<g>
</g>
<g>
</g>
<g>
</g>
<g>
</g>
<g>
</g>
<g>
</g>
<g>
</g>
<g>
</g>
<g>
</g>
</svg>
