<?xml version="1.0" encoding="iso-8859-1"?>
<!-- Generator: Adobe Illustrator 16.0.0, SVG Export Plug-In . SVG Version: 6.00 Build 0)  -->
<!DOCTYPE svg PUBLIC "-//W3C//DTD SVG 1.1//EN" "http://www.w3.org/Graphics/SVG/1.1/DTD/svg11.dtd">
<svg version="1.1" id="Capa_1" xmlns="http://www.w3.org/2000/svg" xmlns:xlink="http://www.w3.org/1999/xlink" x="0px" y="0px"
	 width="21.232px" height="21.232px" viewBox="0 0 21.232 21.232" style="enable-background:new 0 0 21.232 21.232;"
	 xml:space="preserve">
<g>
	<path d="M19.38,7.785c-0.532-0.846-1.146-0.644-1.524,0.137c-0.813,1.674-2.735,2.108-3.815,3.481
		c-0.146,0.187-0.538,0.232-0.821,0.247c-0.396,0.021-0.729,0.209-0.798,0.533c-0.267,1.246-1.05,0.963-2.181,0.452
		c0.94,1.401,0.946,1.297,2.048,1.358c0.702,0.04,1.104-0.741,1.567-0.582c2.392,0.824,2.754-1.034,3.307-2.481
		c0.242-0.643,0.678-0.844,1.066-0.694c1.356,0.521,2.166-0.227,3.004-1.094C20.701,8.576,19.83,8.499,19.38,7.785z"/>
	<path d="M0.346,9.326c0.267,1.893,1.393,3.09,3.021,3.953c0.394,0.209,0.799,0.305,1.077,0.11c0.422-0.29,0.09-0.702-0.122-0.997
		c-0.468-0.66-0.691-1.346-0.552-2.174c0.105-0.612-0.189-1.093-0.661-1.532C2.242,7.873,0.908,8.526,0,7.664
		C0.117,8.216,0.267,8.766,0.346,9.326z"/>
</g>
<g>
</g>
<g>
</g>
<g>
</g>
<g>
</g>
<g>
</g>
<g>
</g>
<g>
</g>
<g>
</g>
<g>
</g>
<g>
</g>
<g>
</g>
<g>
</g>
<g>
</g>
<g>
</g>
<g>
</g>
</svg>
