<?xml version="1.0" encoding="iso-8859-1"?>
<!-- Generator: Adobe Illustrator 16.0.0, SVG Export Plug-In . SVG Version: 6.00 Build 0)  -->
<!DOCTYPE svg PUBLIC "-//W3C//DTD SVG 1.1//EN" "http://www.w3.org/Graphics/SVG/1.1/DTD/svg11.dtd">
<svg version="1.1" id="Capa_1" xmlns="http://www.w3.org/2000/svg" xmlns:xlink="http://www.w3.org/1999/xlink" x="0px" y="0px"
	 width="21.327px" height="21.327px" viewBox="0 0 21.327 21.327" style="enable-background:new 0 0 21.327 21.327;"
	 xml:space="preserve">
<g>
	<path d="M19.289,7.771c-1.111-0.69-2.011-1.605-3.073-2.319c-1.91-1.286-3.829-2.563-5.67-3.942
		C9.725,0.895,8.885,0.811,7.94,0.802C7.194,0.796,7.068,1.03,7.165,1.758C7.646,5.39,7.769,9.066,8.529,12.666
		c0.098,0.466-0.003,0.845-0.656,0.854c-2.125,0.028-4.246-0.062-6.376,0.191c-1.178,0.14-1.597,0.457-1.478,1.646
		c0.09,0.917,1.078,1.457,0.851,2.49c-0.084,0.384,0.393,0.264,0.673,0.258c0.633-0.015,1.269,0.076,1.887-0.152
		c0.201-0.075,0.455-0.515,0.634,0.038c0.548,1.683,1.139,3.131,3.497,2.284c0.401-0.146,1.074-0.005,1.087-0.545
		c0.033-1.318,1.584-1.758,1.611-3.03c0.001-0.079,0.243-0.245,0.292-0.219c0.923,0.487,0.989-0.571,1.49-0.792
		c1.152-0.509,2.119-1.49,3.542-1.353c1.469,0.143,2.821-0.689,4.31-0.579c0.481,0.036,0.721-0.443,0.898-0.853
		c0.321-0.735,0.397-1.511,0.324-2.439C21.973,8.771,19.985,8.203,19.289,7.771z"/>
</g>
<g>
</g>
<g>
</g>
<g>
</g>
<g>
</g>
<g>
</g>
<g>
</g>
<g>
</g>
<g>
</g>
<g>
</g>
<g>
</g>
<g>
</g>
<g>
</g>
<g>
</g>
<g>
</g>
<g>
</g>
</svg>
