<?xml version="1.0" encoding="iso-8859-1"?>
<!-- Generator: Adobe Illustrator 16.0.0, SVG Export Plug-In . SVG Version: 6.00 Build 0)  -->
<!DOCTYPE svg PUBLIC "-//W3C//DTD SVG 1.1//EN" "http://www.w3.org/Graphics/SVG/1.1/DTD/svg11.dtd">
<svg version="1.1" id="Capa_1" xmlns="http://www.w3.org/2000/svg" xmlns:xlink="http://www.w3.org/1999/xlink" x="0px" y="0px"
	 width="21.826px" height="21.826px" viewBox="0 0 21.826 21.826" style="enable-background:new 0 0 21.826 21.826;"
	 xml:space="preserve">
<g>
	<path style="fill:#121111;" d="M9.121,15.623c1.973,1.878,4.302,3.223,7.02,3.554c1.572,0.191,3.224,1.588,4.847-0.303
		c0.877-1.02,1.223-3.021,0.266-3.994c-0.708-0.72-1.875-0.708-2.401-1.471c-1.125-1.631-2.879-2.236-4.479-3.121
		c-0.501-0.276-0.933-0.617-1.496-0.008c-0.177,0.19-1.031,0.61-0.773-0.496c0.144-0.619-0.555-0.427-0.87-0.59
		C10.734,8.933,10.3,9.622,9.624,9.261C9.915,8.993,10.107,8.74,10.36,8.6c0.377-0.213,0.781-0.358,0.4-0.886
		c-0.324-0.448-0.548-0.102-0.865,0.058C9.465,7.992,9.031,8.22,8.461,8.124C7.897,8.033,8.043,8.748,7.772,9.045
		c-0.228,0.25,0.085,0.429,0.379,0.406C8.59,9.419,8.75,9.8,8.664,10.029c-0.38,1.024,0.183,2.123-0.226,3.087
		C7.982,14.194,8.454,14.991,9.121,15.623z"/>
	<path style="fill:#121111;" d="M2.673,6.237c1.95,0.898,3.715-0.235,5.541-0.576c0.818-0.154,0.54-0.728,0.083-1.097
		c-1.789-1.44-3.848-2.241-5.894-2.591c-0.907,0.202-1.901-0.289-2.22,0.323c-0.413,0.792-0.023,1.896,0.181,2.71
		C0.504,5.574,1.85,5.859,2.673,6.237z"/>
	<path style="fill:#121111;" d="M7.694,6.554C7.712,6.767,7.829,7.404,8.195,7.31C8.854,7.19,9.49,7.28,9.519,6.752
		C9.543,6.344,9.049,6.04,8.541,6.031C8.129,6.018,7.651,6.069,7.694,6.554z"/>
</g>
<g>
</g>
<g>
</g>
<g>
</g>
<g>
</g>
<g>
</g>
<g>
</g>
<g>
</g>
<g>
</g>
<g>
</g>
<g>
</g>
<g>
</g>
<g>
</g>
<g>
</g>
<g>
</g>
<g>
</g>
</svg>
