<?xml version="1.0" encoding="iso-8859-1"?>
<!-- Generator: Adobe Illustrator 16.0.0, SVG Export Plug-In . SVG Version: 6.00 Build 0)  -->
<!DOCTYPE svg PUBLIC "-//W3C//DTD SVG 1.1//EN" "http://www.w3.org/Graphics/SVG/1.1/DTD/svg11.dtd">
<svg version="1.1" id="Capa_1" xmlns="http://www.w3.org/2000/svg" xmlns:xlink="http://www.w3.org/1999/xlink" x="0px" y="0px"
	 width="21.449px" height="21.449px" viewBox="0 0 21.449 21.449" style="enable-background:new 0 0 21.449 21.449;"
	 xml:space="preserve">
<g>
	<path d="M19.18,14.66c-0.212-0.916-0.737-1.458-1.312-2.137c-0.657-0.774-2.308-1.501-0.81-3.104
		c-0.629-0.031-1.054-0.095-1.473-0.064c-0.364,0.026-0.795,0.73-1.058,0.02c-0.194-0.535,0.471-0.831,0.813-0.908
		c1.386-0.319,0.175-0.78,0.07-1.129c-0.048-0.168-0.358-0.341-0.567-0.36c-0.681-0.064-0.533-0.648-0.445-0.907
		c0.212-0.623,0.61-0.183,0.928-0.02c0.668,0.342,1.965-0.382,1.967-1.096c0-0.453-0.5-0.744-0.629-0.607
		c-0.869,0.925-2.401,0.411-3.185,1.67c-0.548-1.28-1.552-2.06-2.315-3.034C10.101,1.628,8.347,1.363,6.956,0.52
		C5.661-0.263,3.995-0.122,2.597,0.676c-1.451,0.825-1.507,2.43-0.348,3.72c0.566,0.631,1.785,0.987,1.367,2.176
		C3.275,7.541,3.692,8.195,4.077,9.026c0.734,1.581,2.329,2.149,3.483,3.196c0.559,0.513,1.901,0.997,2.897-0.114
		c-0.05,0.78,0.447,1.246,0.661,1.83c0.101,0.278,0.819,0.271,0.411,0.73c-0.306,0.345-1.002,0.458-1.216,0.173
		c-1.386-1.853-1.977,0.254-2.676,0.652c-1.095,0.621,0.186,1.427,0.346,2.161c0.236,1.067,0.992,1.244,1.795,0.515
		c0.313-0.28,0.65-0.476,1.061-0.318c1.313,0.504,2.774,0.172,4.035,0.636c0.598,0.22,2.669-0.29,1.564,1.731
		c-0.181,0.334,0.229,0.699,0.517,0.971c0.338,0.322,0.788,0.327,1.083,0.11c0.767-0.555,2.391-2.918,1.873-3.903
		C19.451,16.513,19.389,15.569,19.18,14.66z"/>
</g>
<g>
</g>
<g>
</g>
<g>
</g>
<g>
</g>
<g>
</g>
<g>
</g>
<g>
</g>
<g>
</g>
<g>
</g>
<g>
</g>
<g>
</g>
<g>
</g>
<g>
</g>
<g>
</g>
<g>
</g>
</svg>
