<?xml version="1.0" encoding="iso-8859-1"?>
<!-- Generator: Adobe Illustrator 16.0.0, SVG Export Plug-In . SVG Version: 6.00 Build 0)  -->
<!DOCTYPE svg PUBLIC "-//W3C//DTD SVG 1.1//EN" "http://www.w3.org/Graphics/SVG/1.1/DTD/svg11.dtd">
<svg version="1.1" id="Capa_1" xmlns="http://www.w3.org/2000/svg" xmlns:xlink="http://www.w3.org/1999/xlink" x="0px" y="0px"
	 width="21.945px" height="21.945px" viewBox="0 0 21.945 21.945" style="enable-background:new 0 0 21.945 21.945;"
	 xml:space="preserve">
<g>
	<path style="fill:#121111;" d="M19.791,7.486c-0.878-2.558-2.443-4.674-4.01-6.811c-0.415-0.567-0.843-0.711-1.538-0.668
		c-2.806,0.167-4.535,1.366-5.24,4.102c-0.44,1.707-1.234,2.95-2.875,3.629C5.494,8.001,5.06,8.481,4.716,9.081
		c-1.199,2.099-1.479,4.414-1.537,6.757c-0.025,1.016,0.004,1.921-1.205,2.26c-0.362,0.101-0.621,0.282-0.5,0.771
		c0.208,0.843,2.569,2.936,3.458,2.972c2.839,0.108,5.667,0.332,8.462-0.575c2.23-0.726,3.96-1.788,4.288-4.318
		c0.07-0.543,0.278-1.011,0.767-1.254c1.854-0.92,2.21-2.505,1.945-4.329C20.719,9.964,20.227,8.753,19.791,7.486z"/>
</g>
<g>
</g>
<g>
</g>
<g>
</g>
<g>
</g>
<g>
</g>
<g>
</g>
<g>
</g>
<g>
</g>
<g>
</g>
<g>
</g>
<g>
</g>
<g>
</g>
<g>
</g>
<g>
</g>
<g>
</g>
</svg>
