<?xml version="1.0" encoding="iso-8859-1"?>
<!-- Generator: Adobe Illustrator 16.0.0, SVG Export Plug-In . SVG Version: 6.00 Build 0)  -->
<!DOCTYPE svg PUBLIC "-//W3C//DTD SVG 1.1//EN" "http://www.w3.org/Graphics/SVG/1.1/DTD/svg11.dtd">
<svg version="1.1" id="Capa_1" xmlns="http://www.w3.org/2000/svg" xmlns:xlink="http://www.w3.org/1999/xlink" x="0px" y="0px"
	 width="22.186px" height="22.186px" viewBox="0 0 22.186 22.186" style="enable-background:new 0 0 22.186 22.186;"
	 xml:space="preserve">
<g>
	<path style="fill:#121111;" d="M5.939,10.589c-1.322-0.103-2.658-0.013-3.988-0.027c-0.564-0.007-1.071,0.246-0.649,0.759
		c0.898,1.083,0.774,2.387,1.133,3.584c0.341,1.134,0.359,2.069-0.192,3.057c-0.335,0.601-0.677,1.188-0.375,1.836
		c0.543,0.031,0.42-0.535,0.843-0.652c1.913-0.53,3.427,0.098,4.84,1.471c0.482,0.471,1.299,2.977,2.596,0.479
		c0.031-0.061,0.227-0.115,0.25-0.09c0.744,0.874,1.543,0.047,2.301,0.044c2.295-0.01,4.588-0.168,6.882-0.231
		c1.211-0.034,1.455-0.778,0.975-1.604c-0.472-0.807-0.532-1.646-0.627-2.477c-0.384-3.348-0.67-6.705-1.02-10.054
		c-0.24-2.326-0.26-2.323,2.017-2.565c0.043-0.005,0.069-0.155,0.114-0.262C19.129,2.609,17.218,1.365,15.122,0
		c-0.109,2.321-0.109,2.321-2.174,2.321c-0.052,0-0.102,0-0.153,0c-3.302,0-3.32,0-3.312,3.342c0.001,0.819-0.03,1.502-0.98,1.801
		C7.828,7.676,7.554,8.232,7.688,8.921C7.976,10.412,7.239,10.689,5.939,10.589z"/>
</g>
<g>
</g>
<g>
</g>
<g>
</g>
<g>
</g>
<g>
</g>
<g>
</g>
<g>
</g>
<g>
</g>
<g>
</g>
<g>
</g>
<g>
</g>
<g>
</g>
<g>
</g>
<g>
</g>
<g>
</g>
</svg>
