<?xml version="1.0" encoding="iso-8859-1"?>
<!-- Generator: Adobe Illustrator 16.0.0, SVG Export Plug-In . SVG Version: 6.00 Build 0)  -->
<!DOCTYPE svg PUBLIC "-//W3C//DTD SVG 1.1//EN" "http://www.w3.org/Graphics/SVG/1.1/DTD/svg11.dtd">
<svg version="1.1" id="Capa_1" xmlns="http://www.w3.org/2000/svg" xmlns:xlink="http://www.w3.org/1999/xlink" x="0px" y="0px"
	 width="21.981px" height="21.981px" viewBox="0 0 21.981 21.981" style="enable-background:new 0 0 21.981 21.981;"
	 xml:space="preserve">
<g>
	<path style="fill:#121111;" d="M21.683,12.551c-0.658-0.313-2.249,0.315-2.442,1.062c-0.278,1.091-1.107,1.138-1.975,1.284
		c-0.878,0.152-1.619,0.012-2.136-0.747c-0.824-1.202-1.482-2.45-0.871-3.983c0.116-0.295,0.38-0.848-0.076-0.938
		c-1.346-0.26-1.541-1.493-2.176-2.347c-0.413-0.555-0.96-0.956-1.537-0.545c-0.873,0.62-1.073,0.069-1.494-0.516
		c-0.57-0.796-1.338-1.59-2.421-1.076C5.571,5.211,4.715,4.992,3.777,4.76C2.8,4.518,1.955,3.887,0.906,3.868
		C0.029,3.853-0.276,4.183,0.28,4.919c1.023,1.348,1.203,3.279,2.896,4.169c0.155,0.079,0.326,0.314,0.326,0.479
		c0.008,1.338,1.308,1.281,1.789,2.097c0.095-0.085,0.188-0.17,0.283-0.255c-0.823-1.391-1.648-2.78-2.473-4.171l0.108,0.013
		l0.07-0.085c2.127,1.211,3.301,3.35,4.906,5.067c0.13,0.137,0.271,0.401,0.224,0.547c-0.553,1.669,0.894,1.936,1.798,2.455
		c1.095,0.625,2.316,1.027,3.473,1.541c0.476,0.209,1.047,0.489,1.468,0.259c1.252-0.684,1.985,0.112,3,1.079
		c-0.417-1.291,1.991-1.055,0.506-2.734c2.201,0.572,2.755-0.704,3.248-2.09C22.025,12.944,22.04,12.722,21.683,12.551z"/>
</g>
<g>
</g>
<g>
</g>
<g>
</g>
<g>
</g>
<g>
</g>
<g>
</g>
<g>
</g>
<g>
</g>
<g>
</g>
<g>
</g>
<g>
</g>
<g>
</g>
<g>
</g>
<g>
</g>
<g>
</g>
</svg>
