<?xml version="1.0" encoding="iso-8859-1"?>
<!-- Generator: Adobe Illustrator 16.0.0, SVG Export Plug-In . SVG Version: 6.00 Build 0)  -->
<!DOCTYPE svg PUBLIC "-//W3C//DTD SVG 1.1//EN" "http://www.w3.org/Graphics/SVG/1.1/DTD/svg11.dtd">
<svg version="1.1" id="Capa_1" xmlns="http://www.w3.org/2000/svg" xmlns:xlink="http://www.w3.org/1999/xlink" x="0px" y="0px"
	 width="22.011px" height="22.01px" viewBox="0 0 22.011 22.01" style="enable-background:new 0 0 22.011 22.01;"
	 xml:space="preserve">
<g>
	<path style="fill:#121111;" d="M19.831,12.387c-1.151-0.998-2.492-1.678-2.162-3.537c0.016-0.084-0.536-0.215-0.749-0.405
		c-0.806-0.716-1.961-1.174-1.187-2.744c0.348-0.704,0.547-2.178-1.279-1.849c-0.375,0.067-0.578-0.346-0.764-0.659
		c-0.209-0.35-0.429-0.785-0.896-0.74c-1.957,0.196-3.284-1.125-4.829-1.932c-0.668-0.348-1.33-0.692-2.162-0.428
		C4.672,0.452,3.59,1.015,2.285,0.654c-0.447-0.125-1.117,0.278-1.43,1c2.083,0.035,2.748,1.61,3.363,3.016
		c0.978,2.239,2.535,4.015,4.167,5.731c1.157,1.213,1.91,2.66,1.625,4.2c-0.358,1.952-0.771,3.818-0.567,5.845
		c0.071,0.708,0.129,1.156,0.644,1.564c0.434-0.594,2.02,0.331,1.69-1.305c-0.091-0.456,0.463-0.626,0.662-0.953
		c0.813-1.324,2.894-2.091,1.859-4.258c-0.267-0.556,0.332-0.754,0.727-0.97c0.69-0.369,0.604,0.15,0.648,0.553
		c0.029,0.274,0.202,0.326,0.405,0.156c0.573-0.476,1.196,0.032,1.691-0.065c1.094-0.215,2.145,1.055,3.385-0.192
		C19.616,14.548,20.472,12.942,19.831,12.387z"/>
</g>
<g>
</g>
<g>
</g>
<g>
</g>
<g>
</g>
<g>
</g>
<g>
</g>
<g>
</g>
<g>
</g>
<g>
</g>
<g>
</g>
<g>
</g>
<g>
</g>
<g>
</g>
<g>
</g>
<g>
</g>
</svg>
