<?xml version="1.0" encoding="iso-8859-1"?>
<!-- Generator: Adobe Illustrator 16.0.0, SVG Export Plug-In . SVG Version: 6.00 Build 0)  -->
<!DOCTYPE svg PUBLIC "-//W3C//DTD SVG 1.1//EN" "http://www.w3.org/Graphics/SVG/1.1/DTD/svg11.dtd">
<svg version="1.1" id="Capa_1" xmlns="http://www.w3.org/2000/svg" xmlns:xlink="http://www.w3.org/1999/xlink" x="0px" y="0px"
	 width="21.834px" height="21.834px" viewBox="0 0 21.834 21.834" style="enable-background:new 0 0 21.834 21.834;"
	 xml:space="preserve">
<g>
	<path style="fill:#121111;" d="M10.01,12.509c0.556-0.074,1.117-0.256,1.664-0.215c1.171,0.084,2.371-0.579,2.518-1.347
		c0.359-1.869,1.517-3.365,1.947-5.158c0.222-0.924,2.033-1.685,2.808-1.198c0.281,0.177,0.539,0.217,0.857,0.074
		c0.39-0.175,0.271-0.477,0.284-0.775c0.042-0.881-0.568-1.654-0.401-2.552C19.833,0.548,19.338,0.253,18.543,0
		c0.186,0.963-0.098,1.402-0.994,1.579c-2.412,0.483-3.863,1.851-4.493,4.373c-0.306,1.221-0.957,2.94-3.023,2.438
		C9.895,8.354,9.67,8.559,9.52,8.693c-1.629,1.455-3.221,2.959-4.896,4.362c-0.661,0.552-1.026,1.136-0.849,1.954
		c0.188,0.866-0.193,1.178-0.94,1.543c-1.439,0.7-1.429,1.406-0.156,2.329c0.95,0.69,1.959,1.327,2.793,2.146
		c1.077,1.05,1.844,1.125,2.944-0.062c1.159-1.251,1.205-1.619-0.396-2.222c-0.339-0.128-0.737-0.327-0.582-0.747
		c0.2-0.542,0.544-0.177,0.835-0.014c1.184,0.667,2.188,0.565,3.376-0.259c1.612-1.114,1.894-1.647,0.975-3.428
		c-0.288,1.031-1.145,0.678-1.859,0.681c-0.702,0.005-0.869-0.271-0.576-0.916c0.095-0.207,0.014-0.548-0.347-0.525
		c-0.491,0.03-0.65-0.188-0.556-0.631C9.369,12.5,9.716,12.551,10.01,12.509z"/>
</g>
<g>
</g>
<g>
</g>
<g>
</g>
<g>
</g>
<g>
</g>
<g>
</g>
<g>
</g>
<g>
</g>
<g>
</g>
<g>
</g>
<g>
</g>
<g>
</g>
<g>
</g>
<g>
</g>
<g>
</g>
</svg>
