<?xml version="1.0" encoding="iso-8859-1"?>
<!-- Generator: Adobe Illustrator 16.0.0, SVG Export Plug-In . SVG Version: 6.00 Build 0)  -->
<!DOCTYPE svg PUBLIC "-//W3C//DTD SVG 1.1//EN" "http://www.w3.org/Graphics/SVG/1.1/DTD/svg11.dtd">
<svg version="1.1" id="Capa_1" xmlns="http://www.w3.org/2000/svg" xmlns:xlink="http://www.w3.org/1999/xlink" x="0px" y="0px"
	 width="21.088px" height="21.087px" viewBox="0 0 21.088 21.087" style="enable-background:new 0 0 21.088 21.087;"
	 xml:space="preserve">
<g>
	<path d="M18.423,9.738c-0.103-0.337,0.089-0.512,0.193-0.726c0.13-0.26,0.21-0.543,0.314-0.833
		c-1.028-0.459-1.896-0.483-2.801,0.12c-0.41,0.273-1.071,0.392-1.557,0.288c-1.519-0.325-2.878-1.377-4.575-0.915
		c-0.255,0.069-0.37-0.377-0.546-0.594C8.89,6.384,8.015,6.331,7.208,6.274C6.911,6.252,6.524,6.587,6.556,6.962
		c0.159,2.032-1.544,1.127-1.907,0.879c-1.32-0.905-2.369-0.449-3.506,0.197C-0.39,8.912-0.392,8.897,1.201,9.914
		c0.197,0.127,0.507,0.36,0.485,0.504c-0.267,1.85,1.223,1.729,2.286,2.119c0.354,0.129,0.824,0.339,0.944,0.632
		c0.377,0.927,1.111,0.968,1.91,0.989c1.068,0.03,2.089,0.234,3.143,0.509c1.756,0.456,3.474-0.229,5.108-0.92
		c0.348-0.149,0.812-0.324,0.62-0.971c-0.16-0.549,0.262-0.487,0.622-0.39c0.404,0.111,0.725-0.108,1.092-0.229
		c1.238-0.403,2.118-1.692,3.678-1.19C20.605,9.178,19.307,9.92,18.423,9.738z"/>
</g>
<g>
</g>
<g>
</g>
<g>
</g>
<g>
</g>
<g>
</g>
<g>
</g>
<g>
</g>
<g>
</g>
<g>
</g>
<g>
</g>
<g>
</g>
<g>
</g>
<g>
</g>
<g>
</g>
<g>
</g>
</svg>
