<?xml version="1.0" encoding="iso-8859-1"?>
<!-- Generator: Adobe Illustrator 16.0.0, SVG Export Plug-In . SVG Version: 6.00 Build 0)  -->
<!DOCTYPE svg PUBLIC "-//W3C//DTD SVG 1.1//EN" "http://www.w3.org/Graphics/SVG/1.1/DTD/svg11.dtd">
<svg version="1.1" id="Capa_1" xmlns="http://www.w3.org/2000/svg" xmlns:xlink="http://www.w3.org/1999/xlink" x="0px" y="0px"
	 width="21.187px" height="21.188px" viewBox="0 0 21.187 21.188" style="enable-background:new 0 0 21.187 21.188;"
	 xml:space="preserve">
<g>
	<path d="M18.016,10.027c0.825,0.219,1.191-0.51,1.82-0.646c0.375-0.078,0.771-0.146,0.788-0.698
		c0.014-0.485-0.257-0.759-0.627-0.896c-1.736-0.635-3.129-1.922-5.028-2.338c-1.247-0.273-2.379-1.111-3.416-2.11
		c-1.336-1.29-2.356-3.231-4.644-3.255C6.58,0.079,6.232-0.161,5.977,0.192C5.687,0.59,5.985,0.929,6.158,1.274
		c0.291,0.582,0.9,1.089,0.422,1.925c-0.562-0.25-0.926-1.183-1.713-0.68C4.003,3.072,3.013,3.592,2.737,4.662
		C2.476,5.683,2.529,6.787,1.005,6.821C0.61,6.83,0.56,7.443,0.631,7.83c0.176,0.945,0.044,1.981,0.751,2.788
		c0.456,0.521,0.349,1.007-0.193,1.354C0,12.737,0.766,13.734,1.333,13.909c1.308,0.405,2.046,1.509,3.186,2.099
		c1.385,0.719,2.601,1.836,3.353,3.22c0.538,0.991,1.248,1.526,2.261,1.96c0.21-1.028,0.515-2.172,0.064-2.82
		c-0.918-1.314-0.131-2.143,0.508-2.956c1.028-1.313,1.838-2.828,3.153-3.969c0.565,0.704-0.148,1.793,0.805,2.035
		c1.064,0.271,2.034-0.308,2.878-0.874c0.688-0.463,0.464-1.199,0.125-1.843C17.451,10.346,17.409,9.866,18.016,10.027z"/>
</g>
<g>
</g>
<g>
</g>
<g>
</g>
<g>
</g>
<g>
</g>
<g>
</g>
<g>
</g>
<g>
</g>
<g>
</g>
<g>
</g>
<g>
</g>
<g>
</g>
<g>
</g>
<g>
</g>
<g>
</g>
</svg>
