<?xml version="1.0" encoding="iso-8859-1"?>
<!-- Generator: Adobe Illustrator 16.0.0, SVG Export Plug-In . SVG Version: 6.00 Build 0)  -->
<!DOCTYPE svg PUBLIC "-//W3C//DTD SVG 1.1//EN" "http://www.w3.org/Graphics/SVG/1.1/DTD/svg11.dtd">
<svg version="1.1" id="Capa_1" xmlns="http://www.w3.org/2000/svg" xmlns:xlink="http://www.w3.org/1999/xlink" x="0px" y="0px"
	 width="21.93px" height="21.93px" viewBox="0 0 21.93 21.93" style="enable-background:new 0 0 21.93 21.93;" xml:space="preserve"
	>
<g>
	<path style="fill:#121111;" d="M3.551,15.049c2.902,0.136,3.163,2.821,4.833,4.096c1.476,1.129,2.483,2.463,4.778,2.737
		c2.736,0.327,3.701-1.069,4.965-2.687c0.401-0.515,0.272-0.974-0.031-1.384c-0.455-0.617-0.769-1.152-0.193-1.902
		c0.247-0.322,0.063-0.839-0.229-1.138c-0.796-0.805-0.513-1.57-0.177-2.498c0.389-1.064,0.234-2.596-0.698-2.952
		c-2.205-0.843-1.987-3.077-3.108-4.493c-0.322-0.411-0.545-1.005-0.567-1.526c-0.112-2.55-0.098-2.507-2.252-3.183
		C9.899-0.186,9.373,0.085,9.315,1.041C9.212,2.705,8.587,4.138,7.764,5.565C6.77,7.28,6.731,9.492,5.026,10.869
		c-0.221,0.177,0.005,0.554,0.073,0.854C5.391,12.973,5.09,14.045,3.551,15.049z"/>
</g>
<g>
</g>
<g>
</g>
<g>
</g>
<g>
</g>
<g>
</g>
<g>
</g>
<g>
</g>
<g>
</g>
<g>
</g>
<g>
</g>
<g>
</g>
<g>
</g>
<g>
</g>
<g>
</g>
<g>
</g>
</svg>
