<?xml version="1.0" encoding="iso-8859-1"?>
<!-- Generator: Adobe Illustrator 16.0.0, SVG Export Plug-In . SVG Version: 6.00 Build 0)  -->
<!DOCTYPE svg PUBLIC "-//W3C//DTD SVG 1.1//EN" "http://www.w3.org/Graphics/SVG/1.1/DTD/svg11.dtd">
<svg version="1.1" id="Capa_1" xmlns="http://www.w3.org/2000/svg" xmlns:xlink="http://www.w3.org/1999/xlink" x="0px" y="0px"
	 width="21.996px" height="21.996px" viewBox="0 0 21.996 21.996" style="enable-background:new 0 0 21.996 21.996;"
	 xml:space="preserve">
<g>
	<path style="fill:#121111;" d="M8.125,19.512c0.256-0.619-0.478-1.609,0.385-2.273c1.367-1.058,2.894-1.841,4.58-2.193
		c1.594-0.336,2.432-1.886,3.957-2.286c0.075-0.021,0.158-0.148,0.175-0.238c0.37-1.979,1.909-1.993,3.431-2.066
		c0.425-0.021,0.993,0.25,1.237-0.287c0.219-0.485,0.081-1.015-0.244-1.449C21.344,8.32,21.043,8,21.105,7.387
		c0.271-2.593-0.586-3.751-3.853-3.63c-0.999,0.037-1.875,0.036-2.647-0.798c-0.74-0.798-1.449-0.548-1.9,0.436
		c-0.274,0.602-0.629,1.171-0.854,1.789c-0.479,1.321-1.391,2.049-2.746,2.382c-1.578,0.387-3.854,3.681-3.36,5.203
		c0.621,1.914-0.448,2.823-1.623,3.845C2.915,17.665,1.714,18.71,0,18.977c0.047,0.178,0.093,0.354,0.141,0.534
		C2.77,19.512,5.396,19.512,8.125,19.512z"/>
</g>
<g>
</g>
<g>
</g>
<g>
</g>
<g>
</g>
<g>
</g>
<g>
</g>
<g>
</g>
<g>
</g>
<g>
</g>
<g>
</g>
<g>
</g>
<g>
</g>
<g>
</g>
<g>
</g>
<g>
</g>
</svg>
