<?xml version="1.0" encoding="iso-8859-1"?>
<!-- Generator: Adobe Illustrator 16.0.0, SVG Export Plug-In . SVG Version: 6.00 Build 0)  -->
<!DOCTYPE svg PUBLIC "-//W3C//DTD SVG 1.1//EN" "http://www.w3.org/Graphics/SVG/1.1/DTD/svg11.dtd">
<svg version="1.1" id="Capa_1" xmlns="http://www.w3.org/2000/svg" xmlns:xlink="http://www.w3.org/1999/xlink" x="0px" y="0px"
	 width="21.044px" height="21.044px" viewBox="0 0 21.044 21.044" style="enable-background:new 0 0 21.044 21.044;"
	 xml:space="preserve">
<g>
	<path d="M8.503,4.595C6.932,3.955,5.825,4.882,4.53,5.211C4.104,5.32,3.99,5.544,4.045,5.951C4.1,6.347,4.101,6.848,4.566,6.902
		c2.304,0.266,3.066,1.144,2.607,3.715c-0.272,1.526-0.625,2.745-1.554,3.877c-0.187,0.229-0.463,0.407-0.353,0.745
		c0.559,1.716,1.082,3.431,0.894,5.277c-0.028,0.267,0.115,0.603,0.531,0.514c0.273-0.058,0.721-0.092,0.581-0.476
		c-0.618-1.691,0.816-1.738,1.71-2.098c1.05-0.42,1.523-1.032,1.514-2.195c-0.009-1.046-0.05-2.101-0.532-2.988
		c-0.5-0.923-0.311-1.633,0.405-2.118c1.426-0.964,2.322-2.583,4.198-3.032c1.523-0.364,2.663-2.152,2.409-3.426
		c-0.243-1.218-0.209-2.437-0.222-3.653c-0.01-0.956-0.09-1.337-1.188-0.798c-1.25,0.614-2.643,1.199-4.029,1.051
		c-2.2-0.235-2.395-0.133-1.735,1.992c0.086,0.279,0.075,0.66,0.26,0.826c1.438,1.289,0.829,2.368-0.335,3.46
		C9.375,7.001,8.877,6.559,9.262,5.73C9.531,5.151,9.259,4.903,8.503,4.595z"/>
</g>
<g>
</g>
<g>
</g>
<g>
</g>
<g>
</g>
<g>
</g>
<g>
</g>
<g>
</g>
<g>
</g>
<g>
</g>
<g>
</g>
<g>
</g>
<g>
</g>
<g>
</g>
<g>
</g>
<g>
</g>
</svg>
