<?xml version="1.0" encoding="iso-8859-1"?>
<!-- Generator: Adobe Illustrator 16.0.0, SVG Export Plug-In . SVG Version: 6.00 Build 0)  -->
<!DOCTYPE svg PUBLIC "-//W3C//DTD SVG 1.1//EN" "http://www.w3.org/Graphics/SVG/1.1/DTD/svg11.dtd">
<svg version="1.1" id="Capa_1" xmlns="http://www.w3.org/2000/svg" xmlns:xlink="http://www.w3.org/1999/xlink" x="0px" y="0px"
	 width="21.275px" height="21.275px" viewBox="0 0 21.275 21.275" style="enable-background:new 0 0 21.275 21.275;"
	 xml:space="preserve">
<g>
	<path style="fill:#121111;" d="M12.458,3.649c0.89-1.083,0.846-2.393-0.282-3.355c-1.137-0.97-0.906,0.765-1.53,0.882
		c-0.14,0.028-0.268,0.118-0.405,0.171C9.225,1.73,8.608,2.438,8.362,3.51C7.985,5.167,6.554,6.22,5.9,7.766
		c-0.477,1.131-0.485,1.797,0.468,2.557c1.174,0.938,1.849,2.135,1.545,3.731c-0.058,0.307-0.622,0.772,0.128,0.971
		c0.485,0.128,0.954,0.698,1.508,0.023c0.243-0.295,0.738-0.374,1.009-0.658c0.458-0.472,0.736-0.319,0.812,0.206
		c0.317,2.235,1.982,4.188,1.295,6.68c1.425-0.936,1.526-2.646,0.346-4.269c-0.224-0.308-0.745-0.538-0.426-1.017
		c0.73-1.096,0.237-1.898-0.447-2.798c-0.763-1.01-0.338-1.957,0.783-2.524c1.061-0.535,2.21-1.029,2.771-2.381
		c-0.914,0.055-1.789-0.413-1.97-1.02c-0.272-0.928-0.407-1.944-1.709-2.062c-0.244-0.021-0.369-0.358-0.21-0.736
		C11.958,4.114,12.236,3.917,12.458,3.649z"/>
</g>
<g>
</g>
<g>
</g>
<g>
</g>
<g>
</g>
<g>
</g>
<g>
</g>
<g>
</g>
<g>
</g>
<g>
</g>
<g>
</g>
<g>
</g>
<g>
</g>
<g>
</g>
<g>
</g>
<g>
</g>
</svg>
