<?xml version="1.0" encoding="iso-8859-1"?>
<!-- Generator: Adobe Illustrator 16.0.0, SVG Export Plug-In . SVG Version: 6.00 Build 0)  -->
<!DOCTYPE svg PUBLIC "-//W3C//DTD SVG 1.1//EN" "http://www.w3.org/Graphics/SVG/1.1/DTD/svg11.dtd">
<svg version="1.1" id="Capa_1" xmlns="http://www.w3.org/2000/svg" xmlns:xlink="http://www.w3.org/1999/xlink" x="0px" y="0px"
	 width="22.046px" height="22.046px" viewBox="0 0 22.046 22.046" style="enable-background:new 0 0 22.046 22.046;"
	 xml:space="preserve">
<g>
	<path style="fill:#121111;" d="M4.187,9.409c0.266,0.411,0.477,0.918,0.398,1.454c-0.34,2.289,0.75,4.397,0.833,6.63
		c0.049,1.376,0.825,2.373,1.664,3.351c0.415,0.481,0.779,0.838,1.302,0.088c0.401-0.568,0.719-0.365,0.981,0.192
		c0.625,1.334,1.863,0.867,2.801,0.719c0.934-0.149,1.402-0.91,1.37-2.039c-0.089-3.169-0.012-6.342-0.044-9.514
		c-0.011-0.773,0.092-1.308,1.021-1.284c0.679,0.017,0.833-0.398,0.823-1.004c-0.027-1.432,0.028-2.866-0.025-4.296
		c-0.027-0.755,0.317-0.896,0.95-1.221c1.584-0.809,3.353,0.325,4.859-0.661c0.306-0.199,0.993-0.029,0.919-0.548
		c-0.089-0.607-0.731-0.41-1.15-0.363c-2.313,0.258-4.578,0.759-6.959,0.499c-1.187-0.13-2.346-0.454-3.515-0.501
		c-3.005-0.122-6.037,0.184-8.96-0.874C0.906-0.119,0.553,0.292,0.251,0.578c-0.566,0.536-0.038,1.111,0.234,1.477
		C2.154,4.292,2.683,7.093,4.187,9.409z"/>
</g>
<g>
</g>
<g>
</g>
<g>
</g>
<g>
</g>
<g>
</g>
<g>
</g>
<g>
</g>
<g>
</g>
<g>
</g>
<g>
</g>
<g>
</g>
<g>
</g>
<g>
</g>
<g>
</g>
<g>
</g>
</svg>
