<?xml version="1.0" encoding="iso-8859-1"?>
<!-- Generator: Adobe Illustrator 16.0.0, SVG Export Plug-In . SVG Version: 6.00 Build 0)  -->
<!DOCTYPE svg PUBLIC "-//W3C//DTD SVG 1.1//EN" "http://www.w3.org/Graphics/SVG/1.1/DTD/svg11.dtd">
<svg version="1.1" id="Capa_1" xmlns="http://www.w3.org/2000/svg" xmlns:xlink="http://www.w3.org/1999/xlink" x="0px" y="0px"
	 width="21.156px" height="21.156px" viewBox="0 0 21.156 21.156" style="enable-background:new 0 0 21.156 21.156;"
	 xml:space="preserve">
<g>
	<path d="M18.104,1.738c-1.888-1.835-4.363-1.51-6.658-1.729c-0.609-0.061-1.401,0.186-1.904,0.889
		C7.845,3.275,5.648,5.179,3.351,6.935c-3.468,2.649-3.902,7.51-1.007,10.815c1.324,1.511,3.387,1.886,4.646,3.406
		c1.278,0,2.558,0,3.836,0c1.9-0.515,3.293-1.979,5.089-2.717c1.163-0.479,1.744-1.479,1.562-2.858
		c-0.313-2.438,0.197-4.635,2.073-6.381c0.877-0.817,1.269-1.864,1.155-3.038C20.524,4.301,19.379,2.975,18.104,1.738z"/>
</g>
<g>
</g>
<g>
</g>
<g>
</g>
<g>
</g>
<g>
</g>
<g>
</g>
<g>
</g>
<g>
</g>
<g>
</g>
<g>
</g>
<g>
</g>
<g>
</g>
<g>
</g>
<g>
</g>
<g>
</g>
</svg>
