<?xml version="1.0" encoding="iso-8859-1"?>
<!-- Generator: Adobe Illustrator 16.0.0, SVG Export Plug-In . SVG Version: 6.00 Build 0)  -->
<!DOCTYPE svg PUBLIC "-//W3C//DTD SVG 1.1//EN" "http://www.w3.org/Graphics/SVG/1.1/DTD/svg11.dtd">
<svg version="1.1" id="Capa_1" xmlns="http://www.w3.org/2000/svg" xmlns:xlink="http://www.w3.org/1999/xlink" x="0px" y="0px"
	 width="22.072px" height="22.072px" viewBox="0 0 22.072 22.072" style="enable-background:new 0 0 22.072 22.072;"
	 xml:space="preserve">
<g>
	<path style="fill:#121111;" d="M21.453,12.526c-1.618,0.824-2.964-0.486-4.51-0.495c-1.831-0.014-3.436-1.387-5.094-2.269
		c-0.55-0.289-0.489-1.215-1.041-1.223C8.881,8.518,7.791,6.96,6.284,6.19C5.437,5.755,4.739,4.427,3.757,5.399
		C2.999,6.155,1.86,5.495,1.27,6.533C0.859,7.255,0.71,8.072,0.293,8.742c-0.685,1.106-0.069,1.534,0.8,1.757
		c0.864,0.22,1.496,0.761,2.228,1.18c1.938,1.109,3.841,2.332,6.233,2.336c0.781,0,1.741-0.43,2.366,0.243
		c0.91,0.976,1.936,1.354,3.226,1.751c1.759,0.546,3.517,0.673,4.971,1.012c2.055-0.103,2.117-0.2,1.688-1.973
		c-0.15-0.615-0.05-1.202,0.197-1.788C22.222,12.748,21.887,12.305,21.453,12.526z"/>
</g>
<g>
</g>
<g>
</g>
<g>
</g>
<g>
</g>
<g>
</g>
<g>
</g>
<g>
</g>
<g>
</g>
<g>
</g>
<g>
</g>
<g>
</g>
<g>
</g>
<g>
</g>
<g>
</g>
<g>
</g>
</svg>
