<?xml version="1.0" encoding="iso-8859-1"?>
<!-- Generator: Adobe Illustrator 16.0.0, SVG Export Plug-In . SVG Version: 6.00 Build 0)  -->
<!DOCTYPE svg PUBLIC "-//W3C//DTD SVG 1.1//EN" "http://www.w3.org/Graphics/SVG/1.1/DTD/svg11.dtd">
<svg version="1.1" id="Capa_1" xmlns="http://www.w3.org/2000/svg" xmlns:xlink="http://www.w3.org/1999/xlink" x="0px" y="0px"
	 width="21.023px" height="21.023px" viewBox="0 0 21.023 21.023" style="enable-background:new 0 0 21.023 21.023;"
	 xml:space="preserve">
<g>
	<path d="M20.809,0.356c-0.361-0.23-0.902-0.194-1.264,0.077C18.24,1.409,16.6,1.35,15.168,1.927
		c-0.441,0.178-0.881,0.156-1.232-0.192c-0.756-0.752-1.263-0.433-1.742,0.331c-0.676,1.076-1.343,2.15-2.444,2.893
		c-0.663,0.446-1.2,1.123-1.969,0.163C7.464,4.728,7.101,5.025,6.925,5.29c-0.476,0.718-1.028,1.093-1.942,0.9
		C4.368,6.06,4.131,6.435,4.144,7.062c0.038,1.766-0.928,2.727-2.629,3.06C0.907,10.242,0.57,9.228,0,9.935c0,0.296,0,0.591,0,0.887
		c1.753,0.708,3.156,2.035,4.174,3.443c1.302,1.8,3.195,2.896,4.527,4.593c0.101,0.128,0.355,0.258,0.489,0.217
		c1.847-0.535,3.464,1.129,5.393,0.463c0.995-0.34,1.617,1.084,2.653,1.247c0.585,0.094,1.104,0.022,1.488-0.398
		c0.487-0.536-0.211-0.724-0.401-1.055c-0.226-0.392-0.427-0.792-0.364-1.249c0.143-1.045,1.462-1.957,0.348-3.151
		c-0.026-0.027,0.051-0.18,0.104-0.257c1.137-1.599,1.187-3.425,1.026-5.267c-0.092-1.043-0.051-2.057,0.289-3.043
		c0.549-1.589,1.845-3.041,0.86-4.9c-0.016-0.028,0.038-0.089,0.046-0.137C20.686,0.995,21.357,0.705,20.809,0.356z"/>
</g>
<g>
</g>
<g>
</g>
<g>
</g>
<g>
</g>
<g>
</g>
<g>
</g>
<g>
</g>
<g>
</g>
<g>
</g>
<g>
</g>
<g>
</g>
<g>
</g>
<g>
</g>
<g>
</g>
<g>
</g>
</svg>
