<?xml version="1.0" encoding="iso-8859-1"?>
<!-- Generator: Adobe Illustrator 16.0.0, SVG Export Plug-In . SVG Version: 6.00 Build 0)  -->
<!DOCTYPE svg PUBLIC "-//W3C//DTD SVG 1.1//EN" "http://www.w3.org/Graphics/SVG/1.1/DTD/svg11.dtd">
<svg version="1.1" id="Capa_1" xmlns="http://www.w3.org/2000/svg" xmlns:xlink="http://www.w3.org/1999/xlink" x="0px" y="0px"
	 width="22.099px" height="22.099px" viewBox="0 0 22.099 22.099" style="enable-background:new 0 0 22.099 22.099;"
	 xml:space="preserve">
<g>
	<path style="fill:#121111;" d="M2.768,19.175c1.012,0.666,2.316,0.562,2.907-0.542c0.914-1.703,2.382-2.012,3.882-0.779
		c0.206,0.172,0.4,0.373,0.642,0.255c0.844-0.411,1.567,0.217,2.297,0.228c1.877,0.027,3.703-0.935,5.643-0.421
		c1.173-2.161,3.069-4.016,3.607-6.401c0.605-2.694,0.498-5.532-0.834-8.271c-0.232-0.115-0.572,0.658-1.057,0.191
		c-1.653-1.596-3.164-0.852-4.778,0.182C12.67,5.158,10.473,7.13,7.959,8.332c-1.803,0.861-2.322,1.66-2.104,3.374
		c0.024,0.2,0.016,0.413-0.022,0.611c-0.227,1.331-0.586,2.454-2.337,2.396c-0.883-0.028-1.777,0.273-2.661,0.469
		c-1.181,0.262-0.876,0.79-0.496,1.352C1.014,17.523,1.704,18.475,2.768,19.175z"/>
</g>
<g>
</g>
<g>
</g>
<g>
</g>
<g>
</g>
<g>
</g>
<g>
</g>
<g>
</g>
<g>
</g>
<g>
</g>
<g>
</g>
<g>
</g>
<g>
</g>
<g>
</g>
<g>
</g>
<g>
</g>
</svg>
