<?xml version="1.0" encoding="iso-8859-1"?>
<!-- Generator: Adobe Illustrator 16.0.0, SVG Export Plug-In . SVG Version: 6.00 Build 0)  -->
<!DOCTYPE svg PUBLIC "-//W3C//DTD SVG 1.1//EN" "http://www.w3.org/Graphics/SVG/1.1/DTD/svg11.dtd">
<svg version="1.1" id="Capa_1" xmlns="http://www.w3.org/2000/svg" xmlns:xlink="http://www.w3.org/1999/xlink" x="0px" y="0px"
	 width="22.163px" height="22.163px" viewBox="0 0 22.163 22.163" style="enable-background:new 0 0 22.163 22.163;"
	 xml:space="preserve">
<g>
	<path style="fill:#121111;" d="M20.957,3.436c-0.449-0.881-1.043-1.422-2.007-0.63c-0.771,0.635-1.528,0.735-2.498,0.368
		c-1.081-0.408-2.303-0.341-3.185,0.447c-0.694,0.624-1.302,0.538-1.94,0.212c-0.971-0.497-1.896-0.966-2.974-0.304
		C8.034,3.725,7.811,3.53,7.557,3.321c-1.522-1.256-3.24-1.538-4.411-0.75c-1.007,0.677-1.89,3.49-1.345,4.737
		c0.364,0.835,0.125,1.656-0.278,2.124c-1.316,1.527-1.864,3.158-1.296,5.133c-0.698,1.645,0.335,1.676,1.473,1.529
		c1.507-0.191,2.405,0.594,3.062,1.805c1.291,2.385,1.296,2.42,3.798,1.781c0.41-0.104,0.792-0.085,1.183-0.128
		c0.869-0.094,1.562-0.551,1.654-1.347c0.143-1.221,0.953-1.91,1.743-2.581c0.63-0.533,1.499-1.061,2.192,0.011
		c0.491,0.763,0.788,0.336,1.095-0.118c0.91-1.355,1.307-2.967,2.371-4.278c1.116-1.375,0.998-3.568,2.962-4.479
		c0.45-0.208,0.549-1.195,0.173-1.513C21.32,4.729,21.265,4.043,20.957,3.436z"/>
</g>
<g>
</g>
<g>
</g>
<g>
</g>
<g>
</g>
<g>
</g>
<g>
</g>
<g>
</g>
<g>
</g>
<g>
</g>
<g>
</g>
<g>
</g>
<g>
</g>
<g>
</g>
<g>
</g>
<g>
</g>
</svg>
