<?xml version="1.0" encoding="iso-8859-1"?>
<!-- Generator: Adobe Illustrator 16.0.0, SVG Export Plug-In . SVG Version: 6.00 Build 0)  -->
<!DOCTYPE svg PUBLIC "-//W3C//DTD SVG 1.1//EN" "http://www.w3.org/Graphics/SVG/1.1/DTD/svg11.dtd">
<svg version="1.1" id="Capa_1" xmlns="http://www.w3.org/2000/svg" xmlns:xlink="http://www.w3.org/1999/xlink" x="0px" y="0px"
	 width="22px" height="22px" viewBox="0 0 22 22" style="enable-background:new 0 0 22 22;" xml:space="preserve">
<g>
	<path style="fill:#121111;" d="M2.228,17.591c-0.721,0.778-0.125,3.283,0.868,3.646c0.306,0.11,0.63,0.117,0.849-0.147
		c0.773-0.945,1.75-0.595,2.696-0.457c0.324,0.047,0.629,0.403,0.975,0.06c1.43-1.418,3.199-1.844,5.156-1.913
		c0.779-0.029,1.245-0.543,0.405-1.291c-0.647-0.579-1.267-1.189-1.925-1.752c-1.239-1.064-1.105-2.289,0.443-2.91
		c2.019-0.807,3.663-2.199,5.479-3.322c0.64-0.396,0.933-0.994,0.896-1.671c-0.088-1.699,0.691-2.93,1.912-3.98
		C20.67,3.263,21.33,2.634,22,2.021c-1.228,0.085-2.095-0.591-3.021-1.185c-0.498-0.321-0.983-0.084-1.234,0.49
		c-0.841,1.937-2.204,3.268-4.334,3.668c-0.565,0.104-0.721,0.434-0.498,0.857c0.446,0.86-0.017,0.965-0.682,0.899
		c-0.75-0.071-1.559,0.041-2.212-0.437c-1.083-0.788-1.8-0.348-2.354,0.651c-0.591,1.062-1.413,1.841-2.52,2.364
		c-1.196,0.566-2.33,1.27-3.548,1.777C0.763,11.453,0.257,11.973,0,12.869c0.445,0.156,0.778,0.278,1.113,0.39
		C4.252,14.319,4.47,15.169,2.228,17.591z"/>
</g>
<g>
</g>
<g>
</g>
<g>
</g>
<g>
</g>
<g>
</g>
<g>
</g>
<g>
</g>
<g>
</g>
<g>
</g>
<g>
</g>
<g>
</g>
<g>
</g>
<g>
</g>
<g>
</g>
<g>
</g>
</svg>
