<?xml version="1.0" encoding="iso-8859-1"?>
<!-- Generator: Adobe Illustrator 16.0.0, SVG Export Plug-In . SVG Version: 6.00 Build 0)  -->
<!DOCTYPE svg PUBLIC "-//W3C//DTD SVG 1.1//EN" "http://www.w3.org/Graphics/SVG/1.1/DTD/svg11.dtd">
<svg version="1.1" id="Capa_1" xmlns="http://www.w3.org/2000/svg" xmlns:xlink="http://www.w3.org/1999/xlink" x="0px" y="0px"
	 width="21.268px" height="21.268px" viewBox="0 0 21.268 21.268" style="enable-background:new 0 0 21.268 21.268;"
	 xml:space="preserve">
<g>
	<path d="M0.291,17.449c0.292,1.695,1.657,2.237,3.07,1.252c0.599-0.415,1.128-1.182,2.033-0.642
		c0.19,0.113,0.273,0.013,0.294-0.112c0.192-1.132,1.154-2.024,0.611-3.43c-0.346-0.894-1.043-2.546,1.085-2.753
		c0.114-0.013,0.319-0.183,0.308-0.25C7.44,9.984,8.85,9.137,9.185,7.961c0.653-2.296,3.181-1.561,4.212-3.071
		c0.216-0.316,0.462,0.144,0.68,0.289c1.154,0.761,2.515,0.438,3.139-0.738c0.431-0.81,2.139-1.081,2.322-0.314
		c0.307,1.289,0.749,0.36,1.153,0.267c0.188-0.041,0.371-0.108,0.577-0.173c-0.012-0.625-0.732-0.295-0.688-0.637
		c0.129-0.973,0.158-0.932-0.778-1.292c-1.072-0.413-2.19-0.101-3.258-0.127c-0.91-0.021-2.13-0.049-2.906,0.978
		c-0.251,0.333-0.937,0.482-1.416,0.468c-0.811-0.028-2.081,0.502-2.388,1.179C9.634,5.23,9.548,5.302,9.261,4.964
		C8.625,4.219,8.454,5.346,8,5.216c0.019,0.336-0.556,0.637-0.137,0.97c0.59,0.469,0.227,0.949-0.077,1.181
		C6.925,8.02,6.628,9.045,5.974,9.812c-0.815,0.958-1.616,1.882-2.817,2.502c-1.821,0.938-3.855,1.957-2.922,4.703
		C0.28,17.149,0.266,17.305,0.291,17.449z"/>
</g>
<g>
</g>
<g>
</g>
<g>
</g>
<g>
</g>
<g>
</g>
<g>
</g>
<g>
</g>
<g>
</g>
<g>
</g>
<g>
</g>
<g>
</g>
<g>
</g>
<g>
</g>
<g>
</g>
<g>
</g>
</svg>
