<?xml version="1.0" encoding="iso-8859-1"?>
<!-- Generator: Adobe Illustrator 16.0.0, SVG Export Plug-In . SVG Version: 6.00 Build 0)  -->
<!DOCTYPE svg PUBLIC "-//W3C//DTD SVG 1.1//EN" "http://www.w3.org/Graphics/SVG/1.1/DTD/svg11.dtd">
<svg version="1.1" id="Capa_1" xmlns="http://www.w3.org/2000/svg" xmlns:xlink="http://www.w3.org/1999/xlink" x="0px" y="0px"
	 width="18.006px" height="18.007px" viewBox="0 0 18.006 18.007" style="enable-background:new 0 0 18.006 18.007;"
	 xml:space="preserve">
<g>
	<path d="M14.358,9.919c0.304,0.013,0.551-0.12,0.506-0.536c-0.065-0.62,0.366-0.999,0.795-1.313
		c0.665-0.49,0.965-1.213,1.356-1.886c0.723-1.239-0.804-1.032-1.109-1.659c-0.422-0.857-0.994-1.782-2.241-1.842
		c-1.577-0.077-2.824-0.813-3.461-2.309c-0.235-0.553-0.485-0.27-0.757-0.188C8.249-0.429,8.8,0.65,8.634,1.007
		c-0.146,0.322,0.399,0.629,0.06,0.971C7.341,3.342,7.117,4.373,7.965,5.967c0.269,0.502,0.202,0.92,0.067,1.386
		c-0.971,3.396-0.971,3.398-4.377,4.586c-0.736,0.257-1.481,0.493-2.229,0.727C0.868,12.84,0.607,13.039,0.96,13.7
		c0.66,1.247,1.221,2.547,1.801,3.833c0.108,0.238,0.233,0.527,0.485,0.465c1.353-0.337,2.688-0.744,4.091-0.854
		c0.064-0.005,0.166-0.142,0.176-0.223c0.117-1.336,1.082-1.556,2.149-1.648c0.465-0.039,0.687-0.346,0.759-0.766
		c0.151-0.89,0.793-1.23,1.568-1.275c0.749-0.047,0.947-0.219,0.874-1.058C12.778,11.172,12.611,9.842,14.358,9.919z"/>
</g>
<g>
</g>
<g>
</g>
<g>
</g>
<g>
</g>
<g>
</g>
<g>
</g>
<g>
</g>
<g>
</g>
<g>
</g>
<g>
</g>
<g>
</g>
<g>
</g>
<g>
</g>
<g>
</g>
<g>
</g>
</svg>
