<?xml version="1.0" encoding="iso-8859-1"?>
<!-- Generator: Adobe Illustrator 16.0.0, SVG Export Plug-In . SVG Version: 6.00 Build 0)  -->
<!DOCTYPE svg PUBLIC "-//W3C//DTD SVG 1.1//EN" "http://www.w3.org/Graphics/SVG/1.1/DTD/svg11.dtd">
<svg version="1.1" id="Capa_1" xmlns="http://www.w3.org/2000/svg" xmlns:xlink="http://www.w3.org/1999/xlink" x="0px" y="0px"
	 width="22.059px" height="22.059px" viewBox="0 0 22.059 22.059" style="enable-background:new 0 0 22.059 22.059;"
	 xml:space="preserve">
<g>
	<path style="fill:#121111;" d="M1.562,14.122c0.496,0.164,1.06,0.345,0.909,1c-0.144,0.634,0.642,0.821,0.559,1.227
		c-0.115,0.562-0.902,0.255-1.25,0.654c-0.191,0.22-0.497,0.299-0.603,0.644c-0.118,0.393-0.387,0.788-0.191,1.171
		c0.238,0.466,0.744,0.258,1.096,0.171c1.349-0.333,2.751,0.072,4.067-0.266c1.388-0.357,2.028,0.391,2.449,1.431
		c0.342,0.845,1.036,1.054,1.55,0.643c0.802-0.64,1.641-0.462,2.455-0.46c1.446,0.003,1.466-0.615,0.926-1.669
		c-0.319-0.623-1.069-0.963-1.08-1.829c-0.002-0.201-0.953-0.369-0.384-0.918c0.386-0.37,0.486-1.474,1.543-0.732
		c0.204,0.143,1.074,0.035,1.485-0.501c0.897-1.171,1.706-2.465,2.806-3.414c0.958-0.831,0.462-2.365,1.878-2.814
		c-1.289-0.759-2.277-2.25-1.897-3.202c0.43-1.078,1.407-0.056,2.117-0.226c0.494-0.12,0.999-0.216,1.475-0.386
		c0.312-0.112,0.665-0.255,0.574-0.748c-0.121-0.653-2.449-2.998-3.08-2.831c-1.147,0.304-2.379-0.098-3.437,0.46
		c-0.553,0.29-1.514,0.328-1.385,1.313c0.211,1.611-0.065,2.159-1.608,2.83c-0.222,0.095-0.277,0.233-0.227,0.462
		c0.27,1.234-1.383,1.681-1.2,2.926c0.034,0.235-0.445-0.014-0.639,0.037c-1.118,0.3-2.722,0.494-2.972,1.517
		c-0.379,1.56-1.208,1.58-2.42,1.796C3.312,12.719,1.664,12.525,0,12.019c0,0.103,0,0.203,0,0.308
		C0.754,12.72,0.686,13.831,1.562,14.122z"/>
</g>
<g>
</g>
<g>
</g>
<g>
</g>
<g>
</g>
<g>
</g>
<g>
</g>
<g>
</g>
<g>
</g>
<g>
</g>
<g>
</g>
<g>
</g>
<g>
</g>
<g>
</g>
<g>
</g>
<g>
</g>
</svg>
