<?xml version="1.0" encoding="iso-8859-1"?>
<!-- Generator: Adobe Illustrator 16.0.0, SVG Export Plug-In . SVG Version: 6.00 Build 0)  -->
<!DOCTYPE svg PUBLIC "-//W3C//DTD SVG 1.1//EN" "http://www.w3.org/Graphics/SVG/1.1/DTD/svg11.dtd">
<svg version="1.1" id="Capa_1" xmlns="http://www.w3.org/2000/svg" xmlns:xlink="http://www.w3.org/1999/xlink" x="0px" y="0px"
	 width="17.251px" height="17.251px" viewBox="0 0 17.251 17.251" style="enable-background:new 0 0 17.251 17.251;"
	 xml:space="preserve">
<g>
	<path d="M13.099,1.343c0.234,0.533,0.271,1.305-0.28,1.372c-1.971,0.232-2.225,2.015-3.097,3.206
		c-0.386,0.531-0.69,1.3,0.148,1.871c0.433,0.295,0.42,0.79,0.26,1.195C9.895,9.586,9.479,9.329,9.049,9.139
		C8.672,8.97,8.542,9.262,8.542,9.605c-0.596,0.891-1.032,2.006-2.705,1.646c0.445,0.562,0.755,0.956,1.065,1.348
		c-0.177,0.821-1.019,1.158-1.295,1.815c1.74,0.774,1.993-0.226,1.858-1.667c-0.005-0.043,0.031-0.091,0.046-0.137
		c0.689-0.662,1.378-1.322,2.068-1.986c1.027-0.061,1.719-0.889,2.65-1.182c0.125-0.038,0.271-0.318,0.248-0.464
		c-0.242-1.635,1.048-2.884,1.088-4.453C13.607,2.999,14.091,1.443,13.222,0C12.452,0.383,12.887,0.87,13.099,1.343z"/>
	<path d="M3.555,17.251c1.069-0.709,1.069-0.709,1.107-2.416C3.452,16.626,3.452,16.626,3.555,17.251z"/>
</g>
<g>
</g>
<g>
</g>
<g>
</g>
<g>
</g>
<g>
</g>
<g>
</g>
<g>
</g>
<g>
</g>
<g>
</g>
<g>
</g>
<g>
</g>
<g>
</g>
<g>
</g>
<g>
</g>
<g>
</g>
</svg>
