<?xml version="1.0" encoding="iso-8859-1"?>
<!-- Generator: Adobe Illustrator 16.0.0, SVG Export Plug-In . SVG Version: 6.00 Build 0)  -->
<!DOCTYPE svg PUBLIC "-//W3C//DTD SVG 1.1//EN" "http://www.w3.org/Graphics/SVG/1.1/DTD/svg11.dtd">
<svg version="1.1" id="Capa_1" xmlns="http://www.w3.org/2000/svg" xmlns:xlink="http://www.w3.org/1999/xlink" x="0px" y="0px"
	 width="22.068px" height="22.068px" viewBox="0 0 22.068 22.068" style="enable-background:new 0 0 22.068 22.068;"
	 xml:space="preserve">
<g>
	<path style="fill:#121111;" d="M20.962,2.544c-1.187-0.643-1.994-1.822-3.23-2.244c-2.783-0.953-4.431,0.439-5.037,3.027
		c-0.377,1.606-0.909,3.158-0.511,4.903c0.222,0.971,0.425,2.1-0.151,3.146c-0.25,0.455,0.212,0.696,0.579,0.535
		c1.212-0.527,2.036,0.181,3.095,0.878c-1.953,0.941-3.679,1.854-4.377,3.976c-1.03,3.133-1.019,3.354,2.259,2.668
		c2.883-0.602,6.326-0.87,6.671-5.039c0.03-0.374,0.334-0.735,0.541-1.087c0.245-0.411,0.344-0.83,0.25-1.311
		c-0.417-2.181-0.421-4.356,0.088-6.532C21.374,4.453,21.442,2.805,20.962,2.544z"/>
	<path style="fill:#121111;" d="M4.251,16.251C3.39,17.184,2.631,18.249,1.634,19c-1.265,0.955-1.014,1.856-0.253,3.068
		c1.783-1.432,2.154-3.895,4.009-5.184c0.392-0.273-0.073-0.626-0.307-0.862C4.688,15.622,4.484,16.001,4.251,16.251z"/>
</g>
<g>
</g>
<g>
</g>
<g>
</g>
<g>
</g>
<g>
</g>
<g>
</g>
<g>
</g>
<g>
</g>
<g>
</g>
<g>
</g>
<g>
</g>
<g>
</g>
<g>
</g>
<g>
</g>
<g>
</g>
</svg>
