<?xml version="1.0" encoding="iso-8859-1"?>
<!-- Generator: Adobe Illustrator 16.0.0, SVG Export Plug-In . SVG Version: 6.00 Build 0)  -->
<!DOCTYPE svg PUBLIC "-//W3C//DTD SVG 1.1//EN" "http://www.w3.org/Graphics/SVG/1.1/DTD/svg11.dtd">
<svg version="1.1" id="Capa_1" xmlns="http://www.w3.org/2000/svg" xmlns:xlink="http://www.w3.org/1999/xlink" x="0px" y="0px"
	 width="21.701px" height="21.701px" viewBox="0 0 21.701 21.701" style="enable-background:new 0 0 21.701 21.701;"
	 xml:space="preserve">
<g>
	<path style="fill:#121111;" d="M14.457,6.423c-0.946-0.177-1.648-0.152-2.522,0.458c-1.308,0.91-2.83,1.535-4.311,2.164
		C6.709,9.433,5.732,9.507,5.015,8.522C4.876,8.331,4.601,8.11,4.396,8.116c-1.249,0.038-1.328,0.099-1.873-1.03
		C2.1,6.21,1.312,6.245,0.745,6.395C-0.04,6.603,0.079,7.48,0.225,8.107c0.194,0.835,0.263,1.781-0.167,2.732
		c-0.186,0.414,0.124,0.543,0.234,0.786c0.13,0.288,0.192,0.039,0.348-0.024c1.592-0.649,3.711,0.002,4.693,1.385
		c0.724,1.019,1.27,1.025,1.908,0.02c0.172,0.477,0.442,0.941,0.495,1.43c0.115,1.067,0.811,1.028,1.529,0.87
		c1.998-0.438,2.278-1.171,0.975-2.721c-0.688-0.821-0.542-1.122,0.437-1.435c0.633-0.201,1.278-0.524,1.643-1.236
		c0.76-1.476,1.643-1.588,3.101-0.931c0.987,0.443,1.268,1.545,2.231,1.911c0.061,0.076,0.127,0.147,0.196,0.215
		c-1.016,1.869,0.305,2.96,1.392,4.248c0.393-0.761,0.795-1.233,1.658-1.529c1.274-0.438,0.906-3.357-0.229-4.607
		C18.969,7.344,16.765,6.855,14.457,6.423z"/>
</g>
<g>
</g>
<g>
</g>
<g>
</g>
<g>
</g>
<g>
</g>
<g>
</g>
<g>
</g>
<g>
</g>
<g>
</g>
<g>
</g>
<g>
</g>
<g>
</g>
<g>
</g>
<g>
</g>
<g>
</g>
</svg>
