<?xml version="1.0" encoding="iso-8859-1"?>
<!-- Generator: Adobe Illustrator 16.0.0, SVG Export Plug-In . SVG Version: 6.00 Build 0)  -->
<!DOCTYPE svg PUBLIC "-//W3C//DTD SVG 1.1//EN" "http://www.w3.org/Graphics/SVG/1.1/DTD/svg11.dtd">
<svg version="1.1" id="Capa_1" xmlns="http://www.w3.org/2000/svg" xmlns:xlink="http://www.w3.org/1999/xlink" x="0px" y="0px"
	 width="21.984px" height="21.984px" viewBox="0 0 21.984 21.984" style="enable-background:new 0 0 21.984 21.984;"
	 xml:space="preserve">
<g>
	<path style="fill:#121111;" d="M13.843,16.123c-1.719-1.025-3.045-2.511-4.449-3.902c-0.362-0.362-0.777-0.851,0.225-0.98
		c0.999-0.131,0.555-0.921,0.203-0.967c-2.084-0.266-2.73-2.435-4.395-3.173C3.733,6.349,1.973,5.733,0.006,4.961
		c0,2.658-0.016,5.09,0.005,7.522c0.018,2.328,0.035,2.311,2.243,2.483c0.633,0.049,1.185-0.147,1.402-0.666
		c0.81-1.905,2.952-2.394,3.969-0.615c1.368,2.4,3.686,2.605,5.859,3.281c0.245,0.076,0.643,0.144,0.738-0.291
		C14.285,16.383,14.091,16.271,13.843,16.123z"/>
	<path style="fill:#121111;" d="M21.649,10.481c-0.482-0.361-0.743-0.98-1.455-1.224c-0.388,0.985,0.527,1.319,0.759,1.944
		c0.113,0.306,0.543,0.351,0.804,0.157C22.167,11.06,21.954,10.711,21.649,10.481z"/>
	<path style="fill:#121111;" d="M17.041,6.813c-0.09-0.074-0.217-0.238-0.263-0.217c-0.272,0.119-0.061,0.265,0.01,0.4
		c0.117,0.247,0.427,0.526-0.108,0.669c-0.511-0.121-1.063-0.69-1.262,0.468c-0.087,0.511-0.785,1.417-1.546,1.111
		c-1.134-0.454-1.994,0.467-3.031,0.143c1.8,2.134,4.786,1.103,5.859-1.021c0.32-0.326,1.039,0.305,1.164-0.483
		C17.963,7.244,17.441,7.074,17.041,6.813z"/>
	<path style="fill:#121111;" d="M16.38,6.423c0.262-0.382-0.226-0.489-0.553-0.547c-0.13-0.236-0.379-0.442-0.565-0.243
		c-0.284,0.306,0.182,0.321,0.297,0.479C15.828,6.268,16.156,6.753,16.38,6.423z"/>
</g>
<g>
</g>
<g>
</g>
<g>
</g>
<g>
</g>
<g>
</g>
<g>
</g>
<g>
</g>
<g>
</g>
<g>
</g>
<g>
</g>
<g>
</g>
<g>
</g>
<g>
</g>
<g>
</g>
<g>
</g>
</svg>
