<?xml version="1.0" encoding="iso-8859-1"?>
<!-- Generator: Adobe Illustrator 16.0.0, SVG Export Plug-In . SVG Version: 6.00 Build 0)  -->
<!DOCTYPE svg PUBLIC "-//W3C//DTD SVG 1.1//EN" "http://www.w3.org/Graphics/SVG/1.1/DTD/svg11.dtd">
<svg version="1.1" id="Capa_1" xmlns="http://www.w3.org/2000/svg" xmlns:xlink="http://www.w3.org/1999/xlink" x="0px" y="0px"
	 width="22.157px" height="22.157px" viewBox="0 0 22.157 22.157" style="enable-background:new 0 0 22.157 22.157;"
	 xml:space="preserve">
<g>
	<path style="fill:#121111;" d="M19.917,12.474c-0.829,0.22-1.096,0.052-1.2-0.74c-0.071-0.551-0.269-1.084-0.396-1.629
		c-0.564-2.44-0.648-2.464-3.228-2.247c-0.799,0.07-1.699,0.005-2.363-0.453c-0.6-0.417,0.01-1.118,0.005-1.694
		c-0.013-1.509-0.289-3.038-1.099-4.192c-1.231-1.761-7.167-2.021-8.892-0.625C2.706,0.928,2.678,0.973,2.646,1.013
		C1.092,2.929,1.284,5.431,0.456,7.597C0.074,8.595,1.414,8.59,1.693,9.31c0.775,1.994,2.583,2.882,4.417,3.458
		c2.299,0.718,4.086,2.449,6.439,3.019c0.354,0.084,1.079,0.603,0.489,1.141c-1.19,1.079-1.178,2.77-2.172,3.917
		c-0.476,0.546-0.261,0.694,0.34,0.883c0.701,0.218,1.535-0.244,2.127,0.431c1.64,0,3.279,0,4.919,0
		c0.146-0.756,0.628-1.237,1.289-1.567c0.806-0.397,1.193-1.085,1.347-1.928c0.277-1.504,0.57-3.007,0.804-4.514
		C21.958,12.44,21.575,12.036,19.917,12.474z"/>
</g>
<g>
</g>
<g>
</g>
<g>
</g>
<g>
</g>
<g>
</g>
<g>
</g>
<g>
</g>
<g>
</g>
<g>
</g>
<g>
</g>
<g>
</g>
<g>
</g>
<g>
</g>
<g>
</g>
<g>
</g>
</svg>
