<?xml version="1.0" encoding="iso-8859-1"?>
<!-- Generator: Adobe Illustrator 16.0.0, SVG Export Plug-In . SVG Version: 6.00 Build 0)  -->
<!DOCTYPE svg PUBLIC "-//W3C//DTD SVG 1.1//EN" "http://www.w3.org/Graphics/SVG/1.1/DTD/svg11.dtd">
<svg version="1.1" id="Capa_1" xmlns="http://www.w3.org/2000/svg" xmlns:xlink="http://www.w3.org/1999/xlink" x="0px" y="0px"
	 width="21.228px" height="21.229px" viewBox="0 0 21.228 21.229" style="enable-background:new 0 0 21.228 21.229;"
	 xml:space="preserve">
<g>
	<path d="M16.738,12.591c-1.674,0.179-0.745-1.146-1.149-1.656c-0.659,0.128-1.209,1.07-1.997,0.012
		c-0.609-0.818-1.684-1.473-1.448-2.576c0.518-2.426,1.668-3.286,4.171-3.498c0.111-0.432-0.791-0.46-0.384-1.049
		c0.764-1.096-0.188-1.377-0.842-1.226c-1.816,0.424-2.703-0.769-3.723-1.82c-0.235-0.245-0.473-0.517-0.766-0.665
		c-0.309-0.158-0.657-0.24-0.572,0.389c0.18,1.345-0.636,2.035-1.753,2.503C7.561,3.306,6.744,3.506,6.574,4.441
		C6.356,5.64,5.801,5.401,4.932,5.013c-0.71-0.319,0.3-0.958-0.523-1.122C3.734,4.398,3.298,4.83,3.49,6.067
		c0.194,1.261,1.211,1.479,1.719,2.267c1.427,2.212,2.689,4.574,3.642,6.953c0.815,2.035,2.153,2.909,3.816,3.729
		c1.095,0.536,2.088,1.163,2.756,2.212c0.395,0,0.788,0,1.183,0c0.242-1.374,1.083-2.572,0.753-4.172
		c-0.117-0.564,0.065-1.71,0.38-2.584C17.976,13.808,17.217,12.542,16.738,12.591z"/>
</g>
<g>
</g>
<g>
</g>
<g>
</g>
<g>
</g>
<g>
</g>
<g>
</g>
<g>
</g>
<g>
</g>
<g>
</g>
<g>
</g>
<g>
</g>
<g>
</g>
<g>
</g>
<g>
</g>
<g>
</g>
</svg>
