<?xml version="1.0" encoding="iso-8859-1"?>
<!-- Generator: Adobe Illustrator 16.0.0, SVG Export Plug-In . SVG Version: 6.00 Build 0)  -->
<!DOCTYPE svg PUBLIC "-//W3C//DTD SVG 1.1//EN" "http://www.w3.org/Graphics/SVG/1.1/DTD/svg11.dtd">
<svg version="1.1" id="Capa_1" xmlns="http://www.w3.org/2000/svg" xmlns:xlink="http://www.w3.org/1999/xlink" x="0px" y="0px"
	 width="21.508px" height="21.509px" viewBox="0 0 21.508 21.509" style="enable-background:new 0 0 21.508 21.509;"
	 xml:space="preserve">
<g>
	<path style="fill:#121111;" d="M20.925,8.095c-1.567-0.045-2.902-0.936-4.45-0.987C11.734,6.951,6.987,7.331,2.247,6.96
		C1.574,6.908,1.29,7.284,0.802,7.829c-1.139,1.274-1.029,2.095,0.107,3.131c0.125,0.111-0.072,0.555-0.081,0.847
		c-0.018,0.553-0.423,1.065-0.13,1.705c-0.735,1.493,0.529,0.945,1.106,0.93c0.525-0.014,1.068-0.542,1.586-0.195
		c0.871,0.59,1.648,0.155,2.416-0.123c0.379-0.137,0.711-0.258,1.132-0.277c3.203-0.144,6.407,0.723,9.629-0.164
		c1.124-0.311,2.056-0.672,2.485-1.713c0.333-0.801,0.874-1.203,1.599-1.497c0.346-0.141,1.039-0.305,0.812-0.622
		C21.037,9.258,21.287,8.104,20.925,8.095z"/>
</g>
<g>
</g>
<g>
</g>
<g>
</g>
<g>
</g>
<g>
</g>
<g>
</g>
<g>
</g>
<g>
</g>
<g>
</g>
<g>
</g>
<g>
</g>
<g>
</g>
<g>
</g>
<g>
</g>
<g>
</g>
</svg>
