<?xml version="1.0" encoding="iso-8859-1"?>
<!-- Generator: Adobe Illustrator 16.0.0, SVG Export Plug-In . SVG Version: 6.00 Build 0)  -->
<!DOCTYPE svg PUBLIC "-//W3C//DTD SVG 1.1//EN" "http://www.w3.org/Graphics/SVG/1.1/DTD/svg11.dtd">
<svg version="1.1" id="Capa_1" xmlns="http://www.w3.org/2000/svg" xmlns:xlink="http://www.w3.org/1999/xlink" x="0px" y="0px"
	 width="21.332px" height="21.332px" viewBox="0 0 21.332 21.332" style="enable-background:new 0 0 21.332 21.332;"
	 xml:space="preserve">
<g>
	<path d="M14.487,2.781c-0.845-0.737-1.774-1.394-2.375-2.386C11.779-0.154,11.3-0.046,10.83,0.208
		c-1.997,1.09-3.35,2.652-3.649,4.991C7.054,6.178,6.894,7.238,6.231,7.937c-1.491,1.57-1.151,3.25-0.678,5.046
		c0.447,1.696,0.906,3.4,0.67,5.204c-0.238,1.824,1.013,3.142,3.525,3.145c0.967-0.094,2.969-0.25,3.769-1.411
		c1.946-2.829,3.798-5.925,1.811-9.638c-0.673-1.256-0.68-2.589-0.015-3.946C15.974,4.995,15.63,3.78,14.487,2.781z"/>
</g>
<g>
</g>
<g>
</g>
<g>
</g>
<g>
</g>
<g>
</g>
<g>
</g>
<g>
</g>
<g>
</g>
<g>
</g>
<g>
</g>
<g>
</g>
<g>
</g>
<g>
</g>
<g>
</g>
<g>
</g>
</svg>
