<?xml version="1.0" encoding="iso-8859-1"?>
<!-- Generator: Adobe Illustrator 16.0.0, SVG Export Plug-In . SVG Version: 6.00 Build 0)  -->
<!DOCTYPE svg PUBLIC "-//W3C//DTD SVG 1.1//EN" "http://www.w3.org/Graphics/SVG/1.1/DTD/svg11.dtd">
<svg version="1.1" id="Capa_1" xmlns="http://www.w3.org/2000/svg" xmlns:xlink="http://www.w3.org/1999/xlink" x="0px" y="0px"
	 width="21.916px" height="21.916px" viewBox="0 0 21.916 21.916" style="enable-background:new 0 0 21.916 21.916;"
	 xml:space="preserve">
<g>
	<path style="fill:#121111;" d="M3.088,21.275c0.23,0.776,0.677,0.842,1.284,0.225c0.674-0.688,1.433-1.128,2.307-0.196
		c0.367,0.391,0.905,0.425,1.193-0.043c0.423-0.682,1.146-0.578,1.721-0.873c0.203,0.454-0.172,1.125,0.437,1.348
		c0.682,0.248,0.952-0.401,1.351-0.777c0.519-0.486,1.024-1.024,1.636-1.363c0.928-0.513,1.325-1.305,1.297-2.254
		c-0.038-1.403,0.079-2.642,1.117-3.778c0.536-0.585,0.875-1.294,1.651-1.706c0.711-0.377,1.087-0.981,1.255-1.924
		c0.497-2.818,0.304-5.816,1.947-8.368C20.637,1.019,20.438,0.506,20.18,0c-1.125,0-2.255,0-3.38,0
		c-0.388,0.667-1.556-0.125-1.653,0.694c-0.178,1.468-1.111,2.657-1.283,4.02C11.826,4.125,9.78,3.605,7.612,3.762
		c-1.3,0.094-1.013,1.021-0.97,1.812c0.058,1.08,0.728,0.532,1.181,0.398c0.701-0.206,1.218-0.25,1.643,0.558
		c0.42,0.793,0,1.013-0.504,1.453c-0.619,0.541-1.099,1.307-0.296,2.082c1.059,1.022,1.504,2.835,0.744,4.085
		c-0.14,0.228,0.109,2.354-1.258,0.681c-0.033-0.039-0.207-0.021-0.26,0.03c-1.142,1.058-1.646,0.165-2.234-0.674
		c-0.28-0.395-0.821-0.483-0.858,0.145c-0.058,0.971-0.489,1.033-1.294,0.909c-1.051-0.162-1.198,0.573-0.902,1.305
		c0.123,0.3,0.202,0.652,0.399,0.948c0.381,0.567,0.515,0.997-0.493,0.729c-0.408-0.108-0.75,0.264-0.976,0.617
		c-0.277,0.428,0.145,0.62,0.329,0.904C2.226,20.29,2.881,20.567,3.088,21.275z"/>
</g>
<g>
</g>
<g>
</g>
<g>
</g>
<g>
</g>
<g>
</g>
<g>
</g>
<g>
</g>
<g>
</g>
<g>
</g>
<g>
</g>
<g>
</g>
<g>
</g>
<g>
</g>
<g>
</g>
<g>
</g>
</svg>
