<?xml version="1.0" encoding="iso-8859-1"?>
<!-- Generator: Adobe Illustrator 16.0.0, SVG Export Plug-In . SVG Version: 6.00 Build 0)  -->
<!DOCTYPE svg PUBLIC "-//W3C//DTD SVG 1.1//EN" "http://www.w3.org/Graphics/SVG/1.1/DTD/svg11.dtd">
<svg version="1.1" id="Capa_1" xmlns="http://www.w3.org/2000/svg" xmlns:xlink="http://www.w3.org/1999/xlink" x="0px" y="0px"
	 width="21.151px" height="21.151px" viewBox="0 0 21.151 21.151" style="enable-background:new 0 0 21.151 21.151;"
	 xml:space="preserve">
<g>
	<path d="M2.372,13.05c0.474,0.354,0.86,1.498,1.612,1.391c0.952-0.137,1.075,0.49,1.393,0.942c0.5,0.713,0.985,1.197,1.988,1.199
		c1.259,0.003,2.513,0.311,3.773,0.45c0.48,0.05,0.976,0.066,1.391-0.306c1.511-1.357,3.123-1.018,4.732-0.231
		c0.865,0.424,1.563,0.733,1.604-0.729c0.025-0.953,0.57-1.524,1.547-1.821c0.686-0.205,0.811-0.715,0.707-1.261
		c-0.113-0.609-0.592-0.642-1.143-0.525c-2.172,0.454-2.66-0.063-2.168-2.296c0.178-0.805,0.166-1.605-0.416-2.212
		c-0.82-0.86-1.455-1.829-2.047-2.847c-0.481-0.828-1.07-0.935-1.918-0.316c-0.959,0.693-2.195,1.138-3.309,0.832
		c-3.024-0.835-5.38-0.823-6.953,2.271c-0.668,1.31-1.4,2.51-3.166,2.671C1.056,11.033,1.352,12.282,2.372,13.05z"/>
</g>
<g>
</g>
<g>
</g>
<g>
</g>
<g>
</g>
<g>
</g>
<g>
</g>
<g>
</g>
<g>
</g>
<g>
</g>
<g>
</g>
<g>
</g>
<g>
</g>
<g>
</g>
<g>
</g>
<g>
</g>
</svg>
