<?xml version="1.0" encoding="iso-8859-1"?>
<!-- Generator: Adobe Illustrator 16.0.0, SVG Export Plug-In . SVG Version: 6.00 Build 0)  -->
<!DOCTYPE svg PUBLIC "-//W3C//DTD SVG 1.1//EN" "http://www.w3.org/Graphics/SVG/1.1/DTD/svg11.dtd">
<svg version="1.1" id="Capa_1" xmlns="http://www.w3.org/2000/svg" xmlns:xlink="http://www.w3.org/1999/xlink" x="0px" y="0px"
	 width="20.863px" height="20.863px" viewBox="0 0 20.863 20.863" style="enable-background:new 0 0 20.863 20.863;"
	 xml:space="preserve">
<g>
	<path d="M0.966,9.386c-0.688-0.355-1.172-0.118-0.879,0.807c0.072,0.224,0.123,0.483,0.084,0.706
		c-0.266,1.533,0.795,3.255,2.302,3.699c0.434-1.812,2.216-2.524,4.035-1.693c1.662,0.756,3.468,0.444,5.174,0.324
		c1.133-0.08,1.652,0,1.711,1.227c1.287-0.68,1.271-0.677,0.973-2.122c-0.064-0.321,0.23-0.559,0.513-0.642
		c1.123-0.339,1.893-0.12,1.782,1.511c0.891-1.733,2.38-2.246,3.904-2.71c0.114-0.033,0.262-0.158,0.286-0.267
		C20.93,9.88,20.614,9.883,20.41,9.78c-1.787-0.918-3.903-0.423-5.69-1.333c0.002,0.007,0.011,0.017,0.007,0.023
		c-0.014,0.039-0.045,0.089-0.077,0.099c-1.809,0.44-3.25-0.331-4.61-1.386c-0.374-0.29-0.741-0.59-1.141-0.84
		C8.682,6.208,8.375,6.246,8.25,6.48C8.092,6.773,8.396,6.878,8.589,7.01c0.185,0.125,0.49,0.076,0.566,0.43
		C7.306,8.144,5.452,8.852,3.598,9.559C3.703,8.54,4.402,8,5.706,7.505C3.302,7.77,2.922,8.139,3.184,9.539
		C2.442,9.584,1.729,9.782,0.966,9.386z"/>
	<path d="M14.696,8.436c0.007,0.005,0.017,0.005,0.022,0.01c-0.005-0.021-0.012-0.046-0.021-0.067
		C14.697,8.398,14.688,8.431,14.696,8.436z"/>
</g>
<g>
</g>
<g>
</g>
<g>
</g>
<g>
</g>
<g>
</g>
<g>
</g>
<g>
</g>
<g>
</g>
<g>
</g>
<g>
</g>
<g>
</g>
<g>
</g>
<g>
</g>
<g>
</g>
<g>
</g>
</svg>
