<?xml version="1.0" encoding="iso-8859-1"?>
<!-- Generator: Adobe Illustrator 16.0.0, SVG Export Plug-In . SVG Version: 6.00 Build 0)  -->
<!DOCTYPE svg PUBLIC "-//W3C//DTD SVG 1.1//EN" "http://www.w3.org/Graphics/SVG/1.1/DTD/svg11.dtd">
<svg version="1.1" id="Capa_1" xmlns="http://www.w3.org/2000/svg" xmlns:xlink="http://www.w3.org/1999/xlink" x="0px" y="0px"
	 width="22.109px" height="22.108px" viewBox="0 0 22.109 22.108" style="enable-background:new 0 0 22.109 22.108;"
	 xml:space="preserve">
<g>
	<path style="fill:#121111;" d="M21.408,8.908c0.15-1.54-0.138-2.964-1.54-3.894c-1.143-0.758-2.067-1.679-2.165-3.103
		c-0.043-0.626-0.371-0.495-0.692-0.489c-0.686,0.013-1.061,0.484-1.477,0.964c-0.932,1.071-1.715,2.302-3.006,3.023
		c-0.697,0.392-1.38,0.851-1.667-0.431c-0.079-0.368-0.359-0.518-0.814-0.49C5.71,4.749,2.61,8.184,2.95,12.458
		c0.076,0.97-0.156,1.69-1.017,2.198c-0.483,0.285-0.929,0.637-1.363,0.991c-0.761,0.619-0.769,3.102,0.031,3.638
		c0.286,0.19,0.688,0.6,1.15-0.003c0.888-1.152,2.352-1.001,3.032,0.386c0.419,0.856,0.933,1.113,1.79,1.015
		C7.483,20.58,8.407,20.554,9.31,20.4c1.14-0.195,1.906-0.715,2.051-2.068c0.096-0.905,0.12-1.831,0.391-3.22
		c1.16,1.543,2.232,1.173,3.454,0.521c0.641-0.342,1.471-0.4,2.284,0.196c1.228,0.901,2.734,0.199,3.749-0.305
		c0.898-0.446,1.104-2.107,0.603-3.213C21.32,11.168,21.292,10.088,21.408,8.908z"/>
</g>
<g>
</g>
<g>
</g>
<g>
</g>
<g>
</g>
<g>
</g>
<g>
</g>
<g>
</g>
<g>
</g>
<g>
</g>
<g>
</g>
<g>
</g>
<g>
</g>
<g>
</g>
<g>
</g>
<g>
</g>
</svg>
