<?xml version="1.0" encoding="iso-8859-1"?>
<!-- Generator: Adobe Illustrator 16.0.0, SVG Export Plug-In . SVG Version: 6.00 Build 0)  -->
<!DOCTYPE svg PUBLIC "-//W3C//DTD SVG 1.1//EN" "http://www.w3.org/Graphics/SVG/1.1/DTD/svg11.dtd">
<svg version="1.1" id="Capa_1" xmlns="http://www.w3.org/2000/svg" xmlns:xlink="http://www.w3.org/1999/xlink" x="0px" y="0px"
	 width="21.153px" height="21.153px" viewBox="0 0 21.153 21.153" style="enable-background:new 0 0 21.153 21.153;"
	 xml:space="preserve">
<g>
	<path d="M10.245,4.264C8.932,4.462,8.582,5.502,8.242,6.461C7.58,8.32,5.966,9.641,5.474,11.593
		c-0.137,0.546-0.4,1.285,0.012,1.494c1.396,0.704,0.1,1.56,0.234,2.312c0.025,0.139-0.403,0.334-0.209,0.604
		c0.796,1.109,1.337,2.48,2.886,2.826c0.917,0.205,2.535,1.326,3.202,2.158c0.093,0.115,0.327,0.158,0.498,0.162
		c0.167,0.006,0.481,0.039,0.442-0.224c-0.214-1.438,0.28-2.399,1.721-2.858c0.197-0.062,0.312-0.478,0.409-0.75
		c1.05-2.978,0.556-6.154,1.168-9.19c0.324-1.603-0.979-3.003-0.508-4.969c0.006-0.248-0.265-0.627-0.811-0.88
		c-0.484-0.224-1.025-0.684-0.908-1.139C13.928-0.087,12.92,0.271,12.442,0c-0.229,0.504-1.43,0.367-0.9,1.383
		c0.184,0.354-0.032,0.538-0.368,0.63c-0.645,0.17-0.704,0.644-0.512,1.152C10.864,3.699,10.623,4.206,10.245,4.264z"/>
</g>
<g>
</g>
<g>
</g>
<g>
</g>
<g>
</g>
<g>
</g>
<g>
</g>
<g>
</g>
<g>
</g>
<g>
</g>
<g>
</g>
<g>
</g>
<g>
</g>
<g>
</g>
<g>
</g>
<g>
</g>
</svg>
