<?xml version="1.0" encoding="iso-8859-1"?>
<!-- Generator: Adobe Illustrator 16.0.0, SVG Export Plug-In . SVG Version: 6.00 Build 0)  -->
<!DOCTYPE svg PUBLIC "-//W3C//DTD SVG 1.1//EN" "http://www.w3.org/Graphics/SVG/1.1/DTD/svg11.dtd">
<svg version="1.1" id="Capa_1" xmlns="http://www.w3.org/2000/svg" xmlns:xlink="http://www.w3.org/1999/xlink" x="0px" y="0px"
	 width="21.251px" height="21.251px" viewBox="0 0 21.251 21.251" style="enable-background:new 0 0 21.251 21.251;"
	 xml:space="preserve">
<g>
	<path d="M3.074,5.972C3.615,6.12,4.199,6.357,4.542,6.886c0.619,0.957,1.59,1.336,2.627,1.341c1.762,0.012,3.39,0.288,4.988,1.129
		c1.084,0.571,1.5,1.328,1.164,2.338c-0.24,0.716,0.082,1.124,0.312,2.054c0.27-0.803,0.473-1.14,1.109-1.109
		c0.564,0.024,1.177-0.419,1.137-1.079c-0.035-0.591-0.364-1.134-1.182-0.812c-0.075,0.031-0.262-0.216-0.395-0.339
		c-1.08-1.006-2.264-1.854-2.886-3.336c-0.37-0.879-1.007-1.734-1.554-2.57C8.81,2.894,7.107,2.203,5.744,1.067
		c-1.69-1.41-4.122-1.095-5.288,0.354C0.041,1.939-0.167,2.695,0.165,3.045C1.105,4.035,1.536,5.542,3.074,5.972z"/>
	<path d="M20.995,16.004c-0.049-0.3-0.179-0.601-0.364-0.882c-0.555-0.844-1.612-1.517-2.541-1.496
		c-0.717,0.048-1.285,0.214-1.744,0.713c-0.152,0.168-0.293,0.373-0.424,0.62c-0.537,1.028-0.481,2.059-0.659,3.098
		c-0.201,1.184,0.459,1.89,1.181,2.631c0.709,0.732,1.309,0.323,1.965-0.05c0.247-0.143,0.559-0.174,0.842-0.245
		c1.554-0.403,2.173-1.325,1.96-2.944C21.148,16.965,21.073,16.484,20.995,16.004z"/>
</g>
<g>
</g>
<g>
</g>
<g>
</g>
<g>
</g>
<g>
</g>
<g>
</g>
<g>
</g>
<g>
</g>
<g>
</g>
<g>
</g>
<g>
</g>
<g>
</g>
<g>
</g>
<g>
</g>
<g>
</g>
</svg>
