<?xml version="1.0" encoding="iso-8859-1"?>
<!-- Generator: Adobe Illustrator 16.0.0, SVG Export Plug-In . SVG Version: 6.00 Build 0)  -->
<!DOCTYPE svg PUBLIC "-//W3C//DTD SVG 1.1//EN" "http://www.w3.org/Graphics/SVG/1.1/DTD/svg11.dtd">
<svg version="1.1" id="Capa_1" xmlns="http://www.w3.org/2000/svg" xmlns:xlink="http://www.w3.org/1999/xlink" x="0px" y="0px"
	 width="19.32px" height="19.319px" viewBox="0 0 19.32 19.319" style="enable-background:new 0 0 19.32 19.319;"
	 xml:space="preserve">
<g>
	<path style="fill:#121111;" d="M12.109,6.373c0.347-1.351,1.195-2.625,0.817-3.898c0-0.377,0.037-0.542-0.008-0.682
		c-0.185-0.585,0.522-1.553-0.57-1.726c-1.019-0.162-2.062-0.124-2.474,1.187C9.743,1.671,9.44,2.055,9.157,2.405
		c-1.406,1.733-1.04,3.501,0.866,4.661C11.101,7.722,11.842,7.415,12.109,6.373z"/>
	<path style="fill:#121111;" d="M10.434,9.249c-1.069,0.187-1.216,1.54-2.315,1.622c0.231,0.48,0.906,0.146,0.869,0.76
		c0.285-0.16,0.617-0.279,0.815-0.516C10.243,10.596,10.546,9.986,10.434,9.249z"/>
	<path style="fill:#121111;" d="M8.988,11.651c0-0.01-0.002-0.015-0.001-0.021c-0.021,0.012-0.043,0.021-0.062,0.032
		C8.946,11.657,8.988,11.657,8.988,11.651z"/>
	<path style="fill:#121111;" d="M6.299,18.95c-0.012,0.003,0.174,0.319,0.428,0.369c0.603-0.12,0.88-0.623,1.05-1.148
		c0.1-0.308-0.209-0.373-0.491-0.393C6.432,17.72,6.948,18.825,6.299,18.95z"/>
</g>
<g>
</g>
<g>
</g>
<g>
</g>
<g>
</g>
<g>
</g>
<g>
</g>
<g>
</g>
<g>
</g>
<g>
</g>
<g>
</g>
<g>
</g>
<g>
</g>
<g>
</g>
<g>
</g>
<g>
</g>
</svg>
