<?xml version="1.0" encoding="iso-8859-1"?>
<!-- Generator: Adobe Illustrator 16.0.0, SVG Export Plug-In . SVG Version: 6.00 Build 0)  -->
<!DOCTYPE svg PUBLIC "-//W3C//DTD SVG 1.1//EN" "http://www.w3.org/Graphics/SVG/1.1/DTD/svg11.dtd">
<svg version="1.1" id="Capa_1" xmlns="http://www.w3.org/2000/svg" xmlns:xlink="http://www.w3.org/1999/xlink" x="0px" y="0px"
	 width="21.188px" height="21.188px" viewBox="0 0 21.188 21.188" style="enable-background:new 0 0 21.188 21.188;"
	 xml:space="preserve">
<g>
	<path d="M3.521,8.174C3.462,8.268,3.017,8.232,2.832,8.119C1.674,7.412,1.73,8.261,1.794,8.954
		c0.079,0.862,0.204,1.659,0.912,2.384c0.785,0.8,1.287,1.855,0.123,2.898c-0.536,0.479-0.395,1.108-0.265,1.774
		c0.145,0.734,0.759,1.467,0.265,2.25c-0.73,1.161,0.045,1.428,0.9,1.399c1.076-0.036,2.276-0.175,3.173-0.583
		c1.225-0.555,1.414-0.077,1.695,0.81c0.395,1.247,1.298,1.581,2.401,1.073c0.709-0.326,1.396-0.402,2.208-0.399
		c0.548-0.253,1.524,0.59,1.832-0.729c0.172-0.736,1.035-1.49,0.905-2.09c-0.321-1.475-0.344-2.566,1.328-3.106
		c0.12-0.038,0.098-0.457,0.184-0.681c0.249-0.639,0.492-1.318,1.024-1.753c1.211-0.99,1.074-2.221,0.345-3.229
		c-1.652-2.281,0.005-4.531-0.146-6.782c-0.012-0.148,0.18-0.367,0.337-0.464c0.688-0.435,0.356-1.065,0.063-1.37
		c-0.4-0.421-1.162-0.527-1.557,0.002C16.958,1.12,16.161,1.446,15.369,1.7c-3.202,1.023-5.974,2.662-8.126,5.282
		C7.101,7.155,6.852,7.323,6.642,7.336C5.551,7.414,4.311,6.884,3.521,8.174z"/>
</g>
<g>
</g>
<g>
</g>
<g>
</g>
<g>
</g>
<g>
</g>
<g>
</g>
<g>
</g>
<g>
</g>
<g>
</g>
<g>
</g>
<g>
</g>
<g>
</g>
<g>
</g>
<g>
</g>
<g>
</g>
</svg>
