<?xml version="1.0" encoding="iso-8859-1"?>
<!-- Generator: Adobe Illustrator 16.0.0, SVG Export Plug-In . SVG Version: 6.00 Build 0)  -->
<!DOCTYPE svg PUBLIC "-//W3C//DTD SVG 1.1//EN" "http://www.w3.org/Graphics/SVG/1.1/DTD/svg11.dtd">
<svg version="1.1" id="Capa_1" xmlns="http://www.w3.org/2000/svg" xmlns:xlink="http://www.w3.org/1999/xlink" x="0px" y="0px"
	 width="22.319px" height="22.319px" viewBox="0 0 22.319 22.319" style="enable-background:new 0 0 22.319 22.319;"
	 xml:space="preserve">
<g>
	<path style="fill:#121111;" d="M21.193,15.28c-0.94-0.314-0.932-0.773-0.978-1.601c-0.094-1.642-0.521-3.267-1.854-4.389
		c-0.505-0.423-0.91-0.957-1.384-1.322c-0.965-0.746-1.167-2.344-2.103-2.595c-1.191-0.32-1.887-1.043-2.717-1.721
		c-0.428-0.348-0.941-0.324-1.454-0.376c-1.562-0.162-3.096,0.82-4.499,0.508C4.508,3.406,4.323,4.516,4.058,5.381
		C3.409,7.497,2.391,9.249,0,10.439c1.937,0.008,2.334,1.318,2.875,2.387c0.453,0.893,0.623,1.974,1.997,1.76
		c1.016-0.155,2.113,0.512,3.072-0.368c0.278-0.255,0.815-0.532,1.093-0.428c1.435,0.534,2.78,1.313,4.401,1.291
		c-1.18,0.906-2.249,0.46-3.347,0.002c-0.438-0.183-0.835-0.622-1.414-0.357c-1.514,0.691-3.01,1.314-4.763,1.294
		c-1.443-0.017-0.691,1.285-0.836,2.017c-0.096,0.478-0.185,1.121,0.65,1.014c1.299-0.169,2.638-0.238,3.871-0.631
		c2.775-0.882,5.748-0.894,8.308-0.177c2.201,0.618,4.229,0.646,6.41,0.632c0.008-0.518-0.041-1.005-0.004-1.5
		C22.375,16.496,22.016,15.555,21.193,15.28z"/>
</g>
<g>
</g>
<g>
</g>
<g>
</g>
<g>
</g>
<g>
</g>
<g>
</g>
<g>
</g>
<g>
</g>
<g>
</g>
<g>
</g>
<g>
</g>
<g>
</g>
<g>
</g>
<g>
</g>
<g>
</g>
</svg>
