<?xml version="1.0" encoding="iso-8859-1"?>
<!-- Generator: Adobe Illustrator 16.0.0, SVG Export Plug-In . SVG Version: 6.00 Build 0)  -->
<!DOCTYPE svg PUBLIC "-//W3C//DTD SVG 1.1//EN" "http://www.w3.org/Graphics/SVG/1.1/DTD/svg11.dtd">
<svg version="1.1" id="Capa_1" xmlns="http://www.w3.org/2000/svg" xmlns:xlink="http://www.w3.org/1999/xlink" x="0px" y="0px"
	 width="21.263px" height="21.264px" viewBox="0 0 21.263 21.264" style="enable-background:new 0 0 21.263 21.264;"
	 xml:space="preserve">
<g>
	<path d="M13.475,21.128c0.244,0.272,0.627,0.063,0.966-0.005c0.748-0.148,1.516-0.275,2.275-0.305
		c0.914-0.035,1.224-0.375,0.919-1.271c-0.271-0.795-0.332-1.348,0.799-1.708c1.473-0.47,1.552-1.712,0.349-2.666
		c-0.189-0.151-0.438-0.228-0.622-0.388c-1.088-0.926-1.121-2.107-0.259-3.203c0.29-0.367,1.085-0.927,0.425-1.437
		c-1.111-0.855-0.31-1.103,0.444-1.499c-0.584-0.507-1.211-0.932-1.588-0.54c-1.162,1.215-2.116,0.01-3.105-0.184
		c-0.918-0.18-1.226-1.047-0.928-1.938c0.132-0.392,0.06-0.533-0.255-0.646c-1.438-0.516-2.541-1.107-3.022-2.906
		C9.618,1.488,8.297,0.372,6.928,0.082C5.115-0.303,3.627,0.77,2.031,1.309C1.754,1.405,1.523,1.794,1.719,2.277
		c0.464,1.127,0.434,2.546,2.134,3.074c-2.03-0.408-0.849,1.242-1.417,1.737C2.848,7.238,3.32,6.89,3.69,7.248
		C3.738,8.247,2.535,8.857,2.782,9.82c0.235,0.917,1.54,0.969,1.905,1.902c-0.37,0.332-0.964-0.142-1.353,0.408
		c0.134,0.176,0.303,0.349,0.417,0.548c0.289,0.505,1.421,1.102-0.267,1.352c-0.646,0.098-0.316,0.645,0.085,1.08
		c1.07,1.156,2.642,1.471,3.816,2.375c1.407,1.08,1.796,0.096,2.138-0.854c0.255-0.707,0.3-0.574,0.937-0.317
		c1.513,0.612,1.97,2.582,3.835,2.707c-0.193,0.418-0.34,0.776-0.528,1.109C13.587,20.449,13.11,20.723,13.475,21.128z"/>
</g>
<g>
</g>
<g>
</g>
<g>
</g>
<g>
</g>
<g>
</g>
<g>
</g>
<g>
</g>
<g>
</g>
<g>
</g>
<g>
</g>
<g>
</g>
<g>
</g>
<g>
</g>
<g>
</g>
<g>
</g>
</svg>
