<?xml version="1.0" encoding="iso-8859-1"?>
<!-- Generator: Adobe Illustrator 16.0.0, SVG Export Plug-In . SVG Version: 6.00 Build 0)  -->
<!DOCTYPE svg PUBLIC "-//W3C//DTD SVG 1.1//EN" "http://www.w3.org/Graphics/SVG/1.1/DTD/svg11.dtd">
<svg version="1.1" id="Capa_1" xmlns="http://www.w3.org/2000/svg" xmlns:xlink="http://www.w3.org/1999/xlink" x="0px" y="0px"
	 width="22.038px" height="22.037px" viewBox="0 0 22.038 22.037" style="enable-background:new 0 0 22.038 22.037;"
	 xml:space="preserve">
<g>
	<path d="M0.754,9.258c-0.05,0.564,0.212,1.323,1.175,0.818c0.209-0.109,0.546-0.154,0.874,0.191
		c-0.629,0.222-0.773,1.358-1.789,0.647c-0.221-0.156-0.732,0.074-0.519,0.387c0.37,0.546,0.449,1.488,1.15,1.588
		c1.15,0.165,1.204,0.979,1.393,1.774c0.322,1.341,1.461,1.989,2.824,1.601c-0.083,0.722-0.616,0.55-1.082,0.57
		c-0.668,0.028-1.412-0.168-1.982,0.59c1.221,0.448,2.453,0.7,3.498,1.396c2.126,0.845,4.419,1.355,6.176,2.952
		c0.605,0.551,0.857,0.139,1.086-0.295c0.837-1.567,2.19-2.597,3.569-3.631c0.813-0.61,1.72-1.268,2.051-2.24
		c0.347-1.017,0.403-1.976,1.701-2.453c0.642-0.237,1.058-1.601,0.581-2.19c-0.593-0.734-0.968,0.336-1.394,0.708
		c-0.324,0.284-0.726,0.463-1.055,0.156c-0.347-0.323,0.063-0.674,0.15-1.015c0.156-0.596,1.086-0.761,0.849-1.572
		c-0.415-1.418-1.649-2.592-1.274-4.253c0.019-0.091-0.169-0.226-0.255-0.343c-0.668-0.908-1.26-1.887-2.027-2.699
		c-0.641-0.676-0.946-1.896-2.088-1.873c-1.659,0.034-3.393-0.423-4.954,0.608c-0.456,0.303-0.978,0.25-1.54,0.023
		c-0.66-0.267-1.602-0.201-1.883,0.4c-0.869,1.858-1.955,3.49-3.521,4.839c-0.44,0.377-0.646,0.951-1.386,0.789
		c-0.32-0.07-0.938,0.194-0.627,0.419C1.407,7.846,0.827,8.507,0.754,9.258z"/>
</g>
<g>
</g>
<g>
</g>
<g>
</g>
<g>
</g>
<g>
</g>
<g>
</g>
<g>
</g>
<g>
</g>
<g>
</g>
<g>
</g>
<g>
</g>
<g>
</g>
<g>
</g>
<g>
</g>
<g>
</g>
</svg>
