<?xml version="1.0" encoding="iso-8859-1"?>
<!-- Generator: Adobe Illustrator 16.0.0, SVG Export Plug-In . SVG Version: 6.00 Build 0)  -->
<!DOCTYPE svg PUBLIC "-//W3C//DTD SVG 1.1//EN" "http://www.w3.org/Graphics/SVG/1.1/DTD/svg11.dtd">
<svg version="1.1" id="Capa_1" xmlns="http://www.w3.org/2000/svg" xmlns:xlink="http://www.w3.org/1999/xlink" x="0px" y="0px"
	 width="22.083px" height="22.083px" viewBox="0 0 22.083 22.083" style="enable-background:new 0 0 22.083 22.083;"
	 xml:space="preserve">
<g>
	<path style="fill:#121111;" d="M16.127,7.988c-1.38,0.284-2.894,0.446-4.202,0.439c-1.036-0.002-2.179-0.803-3.621-0.82
		C6.8,7.591,5.797,7.982,4.847,8.857c-0.861,0.791-1.731,1.467-2.945,1.244c-1.115-0.208-1.405,0.542-1.764,1.287
		c-0.45,0.938,0.298,1.546,0.806,1.937c2.004,1.533,4.747,1.5,6.875,0.108c0.197-0.13,0.491-0.204,0.722-0.178
		c1.184,0.151,2.23-0.74,3.484-0.386c0.42,0.12,1.213-0.225,1.498-0.61c1.29-1.738,3.42-1.138,4.434-0.63
		c1.874,0.941,2.516,0.116,3.36-1.064c0.266-0.37,0.476-0.776,0.766-1.255c-0.669-0.493-1.459-0.324-2.062-0.776
		C18.841,7.649,17.545,7.696,16.127,7.988z"/>
</g>
<g>
</g>
<g>
</g>
<g>
</g>
<g>
</g>
<g>
</g>
<g>
</g>
<g>
</g>
<g>
</g>
<g>
</g>
<g>
</g>
<g>
</g>
<g>
</g>
<g>
</g>
<g>
</g>
<g>
</g>
</svg>
