<?xml version="1.0" encoding="iso-8859-1"?>
<!-- Generator: Adobe Illustrator 16.0.0, SVG Export Plug-In . SVG Version: 6.00 Build 0)  -->
<!DOCTYPE svg PUBLIC "-//W3C//DTD SVG 1.1//EN" "http://www.w3.org/Graphics/SVG/1.1/DTD/svg11.dtd">
<svg version="1.1" id="Capa_1" xmlns="http://www.w3.org/2000/svg" xmlns:xlink="http://www.w3.org/1999/xlink" x="0px" y="0px"
	 width="21.146px" height="21.146px" viewBox="0 0 21.146 21.146" style="enable-background:new 0 0 21.146 21.146;"
	 xml:space="preserve">
<g>
	<path d="M17.445,6.417c-0.106,0.145-0.243,0.444-0.291,0.43c-1.457-0.451-2.754,0.556-4.193,0.424
		c-1.305-0.12-2.598-0.075-3.741,0.858C8.61,8.627,7.817,8.793,6.895,8.675C4.558,8.374,2.089,7.393,0,9.448
		c0,0.295,0,0.591,0,0.887c0.476-0.095,0.946-0.153,1.337,0.226c-0.06,0.492-0.898,0.905-0.672,0.97
		c0.98,0.281,0.455,1.749,1.604,1.831c0.271,0.02,0.742,0.283,0.73,0.812c-0.452,0.387-1.289,0.084-1.58,0.851
		c1.314,0.981,2.686-0.003,4.018,0.112c0.81,0.069,1.697,0.199,2.212-0.742c0.205-0.372,0.467-0.237,0.698,0.018
		c1.176,1.287,2.832,0.578,4.223,0.984c0.234,0.069,0.754,0.135,0.559-0.627c-0.229-0.891,0.082-1.731,1.289-1.789
		c0.971-0.047,1.492-0.849,1.059-1.489c-0.9-1.328,0.221-1.177,0.824-1.402c0.59-0.219,1.232-0.624,1.736-0.662
		c1.225-0.094,1.604-1.795,3.109-1.166c-0.494-0.725-0.862-1.231-1.194-1.757C19.29,5.446,18.201,5.403,17.445,6.417z"/>
</g>
<g>
</g>
<g>
</g>
<g>
</g>
<g>
</g>
<g>
</g>
<g>
</g>
<g>
</g>
<g>
</g>
<g>
</g>
<g>
</g>
<g>
</g>
<g>
</g>
<g>
</g>
<g>
</g>
<g>
</g>
</svg>
