<?xml version="1.0" encoding="iso-8859-1"?>
<!-- Generator: Adobe Illustrator 16.0.0, SVG Export Plug-In . SVG Version: 6.00 Build 0)  -->
<!DOCTYPE svg PUBLIC "-//W3C//DTD SVG 1.1//EN" "http://www.w3.org/Graphics/SVG/1.1/DTD/svg11.dtd">
<svg version="1.1" id="Capa_1" xmlns="http://www.w3.org/2000/svg" xmlns:xlink="http://www.w3.org/1999/xlink" x="0px" y="0px"
	 width="21.974px" height="21.974px" viewBox="0 0 21.974 21.974" style="enable-background:new 0 0 21.974 21.974;"
	 xml:space="preserve">
<g>
	<path style="fill:#121111;" d="M3.813,21.974c1.609-2.226,3.373-4.278,5.747-5.66c1.17-0.681,2.123-1.562,3.081-2.483
		c1.995-1.914,3.097-4.385,4.373-6.754c1.059-1.962,2.404-3.782,2.279-6.226c-0.058-1.106-0.485-0.896-1.127-0.673
		c-1.715,0.598-3.28,1.291-2.643,3.622c0.104,0.371-0.282,0.627-0.452,0.932c-1.418,2.558-3.955,4.105-5.72,6.352
		c-0.338,0.429-0.838,0.201-1.282,0.241c-1.697,0.151-3.067,0.981-4.3,2.13c-1.558,1.445-0.975,3.304-1.048,5.027
		C2.668,19.737,2.444,21.078,3.813,21.974z"/>
</g>
<g>
</g>
<g>
</g>
<g>
</g>
<g>
</g>
<g>
</g>
<g>
</g>
<g>
</g>
<g>
</g>
<g>
</g>
<g>
</g>
<g>
</g>
<g>
</g>
<g>
</g>
<g>
</g>
<g>
</g>
</svg>
