<?xml version="1.0" encoding="iso-8859-1"?>
<!-- Generator: Adobe Illustrator 16.0.0, SVG Export Plug-In . SVG Version: 6.00 Build 0)  -->
<!DOCTYPE svg PUBLIC "-//W3C//DTD SVG 1.1//EN" "http://www.w3.org/Graphics/SVG/1.1/DTD/svg11.dtd">
<svg version="1.1" id="Capa_1" xmlns="http://www.w3.org/2000/svg" xmlns:xlink="http://www.w3.org/1999/xlink" x="0px" y="0px"
	 width="21.291px" height="21.291px" viewBox="0 0 21.291 21.291" style="enable-background:new 0 0 21.291 21.291;"
	 xml:space="preserve">
<g>
	<path d="M4.958,13.244c2.987,1.199,6.069,2.188,9.169,3.063c1.251,0.354,3.062,0.826,3.883-0.257
		c1.662-2.195,3.931-4.313,3.107-7.2c0-0.784-0.021-1.178,0.003-1.57c0.128-2.007,0.294-2.56-2.667-1.866
		c-1.803,0.42-3.699,0.384-5.329,1.483c-0.3,0.203-0.898,0.126-1.293-0.011C10.688,6.49,9.736,6.925,8.762,7.407
		C6.351,8.602,5.253,8.372,3.526,6.31c-0.344-0.41-0.613-0.886-0.95-1.304C2.4,4.786,2.2,4.515,1.859,4.58
		C1.498,4.648-0.163,7.587,0.013,7.909C1.209,10.105,2.555,12.281,4.958,13.244z"/>
</g>
<g>
</g>
<g>
</g>
<g>
</g>
<g>
</g>
<g>
</g>
<g>
</g>
<g>
</g>
<g>
</g>
<g>
</g>
<g>
</g>
<g>
</g>
<g>
</g>
<g>
</g>
<g>
</g>
<g>
</g>
</svg>
