<?xml version="1.0" encoding="iso-8859-1"?>
<!-- Generator: Adobe Illustrator 16.0.0, SVG Export Plug-In . SVG Version: 6.00 Build 0)  -->
<!DOCTYPE svg PUBLIC "-//W3C//DTD SVG 1.1//EN" "http://www.w3.org/Graphics/SVG/1.1/DTD/svg11.dtd">
<svg version="1.1" id="Capa_1" xmlns="http://www.w3.org/2000/svg" xmlns:xlink="http://www.w3.org/1999/xlink" x="0px" y="0px"
	 width="22.005px" height="22.004px" viewBox="0 0 22.005 22.004" style="enable-background:new 0 0 22.005 22.004;"
	 xml:space="preserve">
<g>
	<path style="fill:#121111;" d="M2.632,11.989c1.462,0.993,2.435,2.434,3.345,3.827c0.846,1.299,1.789,1.788,3.164,1.458
		c0.947-0.229,1.606-0.09,2.222,0.695c0.377,0.481,0.957,0.804,1.448,1.196c0.545-1.332,1.508-0.197,2.253-0.374
		c1.354-0.323,2.803-0.193,3.869-1.5c0.731-0.895,1.835-1.646,2.97-0.22c0.558-1.729-1.297-1.873-1.681-2.967
		c-0.521-1.491-1.533-2.606-2.983-3.284c-0.593-0.278-0.645-0.634-0.093-0.97c1.694-1.027,1.922-2.022,0.619-3.526
		c-0.694-0.801-0.955-1.642-0.894-2.663c0.02-0.315,0.238-1.012-0.482-0.775c-0.519,0.167-1.707,0.186-1.428,0.751
		c0.751,1.519-0.584,1.954-1.095,2.809c-0.521,0.875-1.25,0.875-2.117,0.492c-1.4-0.617-2.94,0.677-4.352-0.256
		C7.345,6.649,7.089,6.91,6.938,7.044c-1.11,0.984-2.277,0.938-3.084-0.217C3.206,5.901,2.307,5.976,1.772,6.592
		C1.025,7.456,0.593,8.593,0.046,9.625c-0.095,0.181-0.044,0.515,0.158,0.506C1.56,10.072,1.796,11.422,2.632,11.989z"/>
</g>
<g>
</g>
<g>
</g>
<g>
</g>
<g>
</g>
<g>
</g>
<g>
</g>
<g>
</g>
<g>
</g>
<g>
</g>
<g>
</g>
<g>
</g>
<g>
</g>
<g>
</g>
<g>
</g>
<g>
</g>
</svg>
