<?xml version="1.0" encoding="iso-8859-1"?>
<!-- Generator: Adobe Illustrator 16.0.0, SVG Export Plug-In . SVG Version: 6.00 Build 0)  -->
<!DOCTYPE svg PUBLIC "-//W3C//DTD SVG 1.1//EN" "http://www.w3.org/Graphics/SVG/1.1/DTD/svg11.dtd">
<svg version="1.1" id="Capa_1" xmlns="http://www.w3.org/2000/svg" xmlns:xlink="http://www.w3.org/1999/xlink" x="0px" y="0px"
	 width="21.843px" height="21.844px" viewBox="0 0 21.843 21.844" style="enable-background:new 0 0 21.843 21.844;"
	 xml:space="preserve">
<g>
	<path style="fill:#121111;" d="M21.666,9.344c0.045-0.258,0.392-0.622-0.026-0.783c-0.335-0.128-0.847-0.38-1.099,0.083
		c-0.518,0.951-0.965,0.29-1.234-0.091c-0.391-0.556,0.079-1.448,0.406-1.393c1.633,0.282,0.874-0.923,1-1.494
		c0.163-0.736-0.366-1.35-0.571-2.023c-0.475-1.551-2.159-2.26-3.667-1.568c-1.888,0.865-3.035,2.537-4.243,4.072
		c-0.473,0.6-1.009,0.933-1.46,0.705C9.293,6.107,8.198,6.178,7.5,7.83C7.481,7.872,7.421,7.894,7.387,7.932
		C6.958,8.388,6.413,8.523,5.849,8.331C5.232,8.118,5.785,7.635,5.697,7.278C5.538,6.627,5.367,6.003,4.481,5.48
		c0,1.562-0.028,2.926,0.008,4.289c0.031,1.116-0.623,1.463-1.571,1.597c-1.036,0.148-1.746-0.277-2.177-1.214
		c-0.899,0.869-0.864,0.853-0.509,1.72c0.539,1.317,1.032,2.647,1.838,3.84c0.157,0.233,0.292,0.771,0.197,0.843
		c-1.011,0.743-0.159,1.375,0.057,2.055c0.32,1.009,1.771,1.615,2.787,1.374c1.246-0.293,2.412-0.886,3.782-0.778
		c3.344,0.266,6.055-0.96,8.39-3.433c1.18-1.253,1.735-2.935,3.014-3.995C21.136,11.076,21.497,10.31,21.666,9.344z"/>
</g>
<g>
</g>
<g>
</g>
<g>
</g>
<g>
</g>
<g>
</g>
<g>
</g>
<g>
</g>
<g>
</g>
<g>
</g>
<g>
</g>
<g>
</g>
<g>
</g>
<g>
</g>
<g>
</g>
<g>
</g>
</svg>
