<?xml version="1.0" encoding="iso-8859-1"?>
<!-- Generator: Adobe Illustrator 16.0.0, SVG Export Plug-In . SVG Version: 6.00 Build 0)  -->
<!DOCTYPE svg PUBLIC "-//W3C//DTD SVG 1.1//EN" "http://www.w3.org/Graphics/SVG/1.1/DTD/svg11.dtd">
<svg version="1.1" id="Capa_1" xmlns="http://www.w3.org/2000/svg" xmlns:xlink="http://www.w3.org/1999/xlink" x="0px" y="0px"
	 width="21.91px" height="21.91px" viewBox="0 0 21.91 21.91" style="enable-background:new 0 0 21.91 21.91;" xml:space="preserve"
	>
<g>
	<path style="fill:#121111;" d="M4.756,21.881c3.095-0.405,5.99-1.269,8.239-3.612c1.176-1.228,2.411-2.033,4.318-1.579
		c1.574,0.369,2.416-0.901,1.719-2.322c-0.902-1.836-1.229-3.78-1.113-5.794c0.083-1.449-0.31-2.734-1.104-3.9
		c-0.803-1.179-1.721-2.281-2.524-3.462c-0.731-1.075-1.491-1.667-2.779-0.78c-0.349,0.237-0.899,0.309-1.334,0.265
		C7.981,0.459,6.313,1.452,4.554,2.628C3.121,3.593,3.396,4.484,3.898,5.657c0.238,0.56,0.762,0.627,1.214,0.834
		c0.501,0.233,0.642,0.64,0.532,1.141C5.54,8.111,5.153,8.28,4.722,8.23c-1.64-0.189-1.645,0.918-1.484,1.976
		c0.11,0.737,0.407,1.489,0.793,2.132c0.606,1.008,0.574,1.956-0.062,2.863c-0.936,1.345-2.019,2.616-0.784,4.35
		c0.128,0.178,0.05,0.499,0.063,0.701C2.983,21.567,3.565,22.036,4.756,21.881z"/>
</g>
<g>
</g>
<g>
</g>
<g>
</g>
<g>
</g>
<g>
</g>
<g>
</g>
<g>
</g>
<g>
</g>
<g>
</g>
<g>
</g>
<g>
</g>
<g>
</g>
<g>
</g>
<g>
</g>
<g>
</g>
</svg>
