<?xml version="1.0" encoding="iso-8859-1"?>
<!-- Generator: Adobe Illustrator 16.0.0, SVG Export Plug-In . SVG Version: 6.00 Build 0)  -->
<!DOCTYPE svg PUBLIC "-//W3C//DTD SVG 1.1//EN" "http://www.w3.org/Graphics/SVG/1.1/DTD/svg11.dtd">
<svg version="1.1" id="Capa_1" xmlns="http://www.w3.org/2000/svg" xmlns:xlink="http://www.w3.org/1999/xlink" x="0px" y="0px"
	 width="21.29px" height="21.29px" viewBox="0 0 21.29 21.29" style="enable-background:new 0 0 21.29 21.29;" xml:space="preserve"
	>
<g>
	<path d="M18.73,7.452c-0.356-1.83,0.374-2.911,1.488-4.14c1.114-1.227,0.574-2.509-1.085-2.771
		c-2.789-0.445-5.61-1.112-8.328,0.377c-0.139,0.076-0.399,0.015-0.57-0.061C9.088,0.365,7.834,0.42,6.646,0.144
		c-0.43-0.101-0.976-0.258-1.204,0.221C4.926,1.449,4.16,2.585,4.167,3.693c0.007,1.132-0.249,1.344-1.21,1.4
		c-1.1,0.068-2.25,0.162-1.794,1.848c0.087,0.32-0.095,0.805-0.309,1.103c-1.207,1.684-0.217,2.992,0.844,4.104
		c0.445,0.467,0.346,1.586,1.178,1.42c1.316-0.262,1.24,0.701,1.505,1.394c1.017,2.638,1.814,5.439,5.028,6.329
		c0.591,0,1.181,0,1.771,0c0.019-0.64,0.053-1.275-0.526-1.746c-0.346-0.283-0.421-0.569-0.07-0.976
		c0.31-0.357,0.429-0.589,1.025-0.326c0.863,0.377,1.819,0.252,2.695-0.207c0.723-0.381,1.317-0.403,2.124,0.127
		c1.573,1.034,2.088,0.762,3.068-0.973c0.768-1.353,0.378-3.051,1.39-4.355c0.292-0.375-0.096-0.96-0.456-1.305
		C19.253,10.407,19.029,8.982,18.73,7.452z"/>
</g>
<g>
</g>
<g>
</g>
<g>
</g>
<g>
</g>
<g>
</g>
<g>
</g>
<g>
</g>
<g>
</g>
<g>
</g>
<g>
</g>
<g>
</g>
<g>
</g>
<g>
</g>
<g>
</g>
<g>
</g>
</svg>
