<?xml version="1.0" encoding="iso-8859-1"?>
<!-- Generator: Adobe Illustrator 16.0.0, SVG Export Plug-In . SVG Version: 6.00 Build 0)  -->
<!DOCTYPE svg PUBLIC "-//W3C//DTD SVG 1.1//EN" "http://www.w3.org/Graphics/SVG/1.1/DTD/svg11.dtd">
<svg version="1.1" id="Capa_1" xmlns="http://www.w3.org/2000/svg" xmlns:xlink="http://www.w3.org/1999/xlink" x="0px" y="0px"
	 width="21.215px" height="21.215px" viewBox="0 0 21.215 21.215" style="enable-background:new 0 0 21.215 21.215;"
	 xml:space="preserve">
<g>
	<path d="M19.013,14.845c0-1.08,0.021-1.912-0.003-2.743c-0.074-2.419-1.143-4.729-0.569-7.251c0.278-1.229-0.652-1.964-1.971-1.868
		c-0.536,0.041-0.949-0.091-1.38-0.322c-1.164-0.626-2.341-1.229-3.492-1.877C9.64-0.317,9.382-0.322,7.75,1.177
		C7.212,1.672,6.656,2.221,6.33,2.858c-1.078,2.099-2.553,3.946-3.692,5.99c-0.786,1.413-0.287,3.076-0.301,4.632
		c-0.008,0.891,0.831,0.471,1.137,0.812c0.216,0.241,0.254,0.633,0.427,0.926c0.83,1.412,1.392,2.943,2.863,3.987
		c2.951,2.092,6.261,2.01,9.602,2.01c0.769,0,0.733-0.467,0.706-0.978c-0.083-1.525,0.099-3.03,0.265-4.548
		C17.462,14.546,17.807,14.136,19.013,14.845z"/>
</g>
<g>
</g>
<g>
</g>
<g>
</g>
<g>
</g>
<g>
</g>
<g>
</g>
<g>
</g>
<g>
</g>
<g>
</g>
<g>
</g>
<g>
</g>
<g>
</g>
<g>
</g>
<g>
</g>
<g>
</g>
</svg>
