<?xml version="1.0" encoding="iso-8859-1"?>
<!-- Generator: Adobe Illustrator 16.0.0, SVG Export Plug-In . SVG Version: 6.00 Build 0)  -->
<!DOCTYPE svg PUBLIC "-//W3C//DTD SVG 1.1//EN" "http://www.w3.org/Graphics/SVG/1.1/DTD/svg11.dtd">
<svg version="1.1" id="Capa_1" xmlns="http://www.w3.org/2000/svg" xmlns:xlink="http://www.w3.org/1999/xlink" x="0px" y="0px"
	 width="22.325px" height="22.325px" viewBox="0 0 22.325 22.325" style="enable-background:new 0 0 22.325 22.325;"
	 xml:space="preserve">
<g>
	<path style="fill:#121111;" d="M20.079,1.514c-1.36-0.662-2.855-1.059-4.319-1.481c-0.829-0.24-0.457,0.914-1.03,1.046
		c-0.05,0.013-0.112,0.061-0.146,0.045c-1.394-0.685-2.591,0.243-3.879,0.455C9.964,1.7,8.934,2.21,8.917,2.533
		c-0.051,1.019-0.77,1.379-1.374,1.579C6.089,4.59,6.036,6.221,4.947,6.946c-0.183,0.123-0.34,0.317-0.136,0.482
		C5.847,8.266,5.039,8.184,4.47,8.072C3.483,7.883,2.6,8.214,2.254,9.025c-0.404,0.948-0.159,2.083,0.222,3.027
		c0.284,0.705,0.228,2.218-0.414,2.696c-1.455,1.092-1.562,2.142-0.49,3.686c0.573,0.826,1.425,1.416,1.505,2.655
		c0.066,1.001,2.203,1.66,2.502,0.916c0.517-1.282,1.451-0.89,2.316-1.101c0.149-0.038,0.315-0.065,0.481-0.093
		c0.824-0.141,1.732-0.3,1.364-1.67l0,0c0.009,0,0.019-0.003,0.027-0.003c0.08,0.067,0.159,0.134,0.238,0.197
		c0.042-0.068,0.084-0.142,0.127-0.215c-0.12,0.009-0.239,0.013-0.359,0.018c-0.014-0.009-0.026-0.022-0.04-0.031
		c0-0.003,0.002,0.007,0.004,0.021l0,0l-0.005-0.024c0.004,0.014,0.003,0.024,0.006,0.041c-0.062,0.05-0.124,0.094-0.186,0.139
		c0.001,0.019,0.001,0.029,0.004,0.045L9.534,19.3c0.005-0.005,0.011-0.011,0.018-0.016c-0.219-1.501,0.19-2.583,1.893-2.847
		c0.862-0.136,1.624-0.863,1.681-1.479c0.071-0.764-0.991-1.021-1.693-1.193c-1.141-0.278-1.166-0.89-0.796-1.805
		c0.287-0.705,0.673-1.271,1.318-1.704c1.028-0.691,2.162-1.09,3.337-1.42c0.821-0.233,1.855-0.67,1.833-1.447
		c-0.026-0.88,0.445-1.026,0.893-1.424c1.026-0.917,2.335-0.267,3.43-0.603c0.151-0.552-0.524-0.67-0.352-1.37
		C21.287,3.225,20.966,1.944,20.079,1.514z"/>
	<path style="fill:#121111;" d="M13.292,5.275c-0.792-0.083-1.396,0.071-1.519,0.908C11.745,6.37,12.091,6.795,12.12,6.78
		C12.73,6.51,13.199,6.093,13.292,5.275z"/>
</g>
<g>
</g>
<g>
</g>
<g>
</g>
<g>
</g>
<g>
</g>
<g>
</g>
<g>
</g>
<g>
</g>
<g>
</g>
<g>
</g>
<g>
</g>
<g>
</g>
<g>
</g>
<g>
</g>
<g>
</g>
</svg>
