<?xml version="1.0" encoding="iso-8859-1"?>
<!-- Generator: Adobe Illustrator 16.0.0, SVG Export Plug-In . SVG Version: 6.00 Build 0)  -->
<!DOCTYPE svg PUBLIC "-//W3C//DTD SVG 1.1//EN" "http://www.w3.org/Graphics/SVG/1.1/DTD/svg11.dtd">
<svg version="1.1" id="Capa_1" xmlns="http://www.w3.org/2000/svg" xmlns:xlink="http://www.w3.org/1999/xlink" x="0px" y="0px"
	 width="22.048px" height="22.048px" viewBox="0 0 22.048 22.048" style="enable-background:new 0 0 22.048 22.048;"
	 xml:space="preserve">
<g>
	<path style="fill:#121111;" d="M0.396,10.369c-0.033,0.705-0.03,1.473,1.096,1.38c0.575-0.044,0.822,0.544,1.05,0.949
		c0.266,0.473-0.196,0.7-0.542,0.926c-1.276,0.832-2.114,1.88-1.596,3.48c-0.103,0.242-0.212,0.422-0.247,0.618
		c-0.039,0.213,0.137,0.325,0.28,0.48c1.096,1.183,2.666,1.438,4.127,0.677c3.788-1.972,7.533-4.035,11.406-5.824
		c1.606-0.742,2.531-1.554,2.316-3.362c-0.014-0.1,0.002-0.207,0.021-0.305c0.206-0.992,2.239-4.437,3.061-5.184
		c0.375-0.337,0.938-0.673,0.547-1.24c-0.363-0.526-0.811,0.007-1.227,0.108c-0.593,0.145-1.221,0.398-1.796,0.32
		c-1.797-0.238-3.392,0.3-5.031,0.918c-1.341,0.502-2.838,0.711-4.181,0.114C8.74,4.009,7.954,4.011,7.054,4.35
		C6.005,4.743,4.969,5.057,3.836,4.449C3.145,4.081,2.647,4.471,2.617,5.276c-0.048,1.247-0.686,1.926-1.91,2.11
		C-0.068,7.503-0.11,8.224,0.128,8.622C0.483,9.222,0.426,9.752,0.396,10.369z"/>
</g>
<g>
</g>
<g>
</g>
<g>
</g>
<g>
</g>
<g>
</g>
<g>
</g>
<g>
</g>
<g>
</g>
<g>
</g>
<g>
</g>
<g>
</g>
<g>
</g>
<g>
</g>
<g>
</g>
<g>
</g>
</svg>
