<?xml version="1.0" encoding="iso-8859-1"?>
<!-- Generator: Adobe Illustrator 16.0.0, SVG Export Plug-In . SVG Version: 6.00 Build 0)  -->
<!DOCTYPE svg PUBLIC "-//W3C//DTD SVG 1.1//EN" "http://www.w3.org/Graphics/SVG/1.1/DTD/svg11.dtd">
<svg version="1.1" id="Capa_1" xmlns="http://www.w3.org/2000/svg" xmlns:xlink="http://www.w3.org/1999/xlink" x="0px" y="0px"
	 width="22.18px" height="22.18px" viewBox="0 0 22.18 22.18" style="enable-background:new 0 0 22.18 22.18;" xml:space="preserve"
	>
<g>
	<path style="fill:#121111;" d="M14.432,11.184c0.275-1.218,0.18-2.865,0.945-3.556c1.694-1.535,0.085-4.014,1.905-5.323
		c0.012-0.011-0.123-0.258-0.216-0.375C16.386,1.082,15.158,1.099,14.375,0c-0.757,1.601-2.726,1.131-3.464,2.396
		c-0.767,1.322-1.876,2.355-2.676,3.625c-0.961,1.519-2.236,2.95-2.742,4.612c-0.585,1.913-1.066,4.003,0.21,6.051
		c0.567,0.909,0.897,1.897,1.959,2.358c0.798,0.348,1.075,1.067,1.183,1.839c0.08,0.575-0.178,1.397,0.776,1.288
		c0.7-0.077,0.692-0.805,0.645-1.371c-0.101-1.233,0.173-2.51,0.98-3.277C13.1,15.745,13.896,13.56,14.432,11.184z"/>
</g>
<g>
</g>
<g>
</g>
<g>
</g>
<g>
</g>
<g>
</g>
<g>
</g>
<g>
</g>
<g>
</g>
<g>
</g>
<g>
</g>
<g>
</g>
<g>
</g>
<g>
</g>
<g>
</g>
<g>
</g>
</svg>
