<?xml version="1.0" encoding="iso-8859-1"?>
<!-- Generator: Adobe Illustrator 16.0.0, SVG Export Plug-In . SVG Version: 6.00 Build 0)  -->
<!DOCTYPE svg PUBLIC "-//W3C//DTD SVG 1.1//EN" "http://www.w3.org/Graphics/SVG/1.1/DTD/svg11.dtd">
<svg version="1.1" id="Capa_1" xmlns="http://www.w3.org/2000/svg" xmlns:xlink="http://www.w3.org/1999/xlink" x="0px" y="0px"
	 width="21.675px" height="21.675px" viewBox="0 0 21.675 21.675" style="enable-background:new 0 0 21.675 21.675;"
	 xml:space="preserve">
<g>
	<path style="fill:#121111;" d="M4.354,6.837C4.164,6.821,3.853,6.712,3.867,7.165C3.91,8.574,3.049,8.81,1.878,8.655
		C1.48,8.603,1.026,8.537,0.678,8.681c-0.53,0.213-1.053,0.803-0.304,1.167c1.044,0.513,1.539,1.168,1.973,2.262
		c0.303,0.763,0.218,1.001-0.232,1.446c-0.284,0.285-0.663,0.591-0.741,0.942c-0.101,0.449-0.44,0.994,0.037,1.432
		c0.458,0.419,0.913,0.193,1.395-0.04c0.778-0.38,1.54-1.073,2.467-0.247c0.212,0.191,0.595,0.064,0.6-0.213
		c0.013-1.248,0.858-0.995,1.601-0.945c0.449,0.032,0.874-0.011,0.853-0.583c-0.027-0.746,0.602-1.041,0.988-1.461
		c0.664-0.724,1.39-0.438,1.854,0.438c0.417,0.789,0.568,1.471,0.405,2.397c-0.25,1.42,0.658,2.021,1.854,1.232
		c2.034-1.341,4.289-1.522,6.588-1.522c1.887-0.003,1.887,0.059,1.358-1.758c-0.027-0.099-0.1-0.194-0.1-0.288
		c0.005-1.639-0.96-1.873-2.273-1.543c-0.687,0.174-0.764-0.178-0.798-0.725c-0.037-0.666-0.173-1.685-0.828-1.629
		c-2.023,0.173-3.913,0.243-5.995-0.205c-1.341-0.291-3.093-0.449-4.67-0.196C6.35,8.702,5.732,9.023,5.564,8.313
		C5.416,7.688,6.103,7.647,6.392,7.382C6.863,6.954,7.583,6.938,8.12,7.277c0.789,0.499,1.372,0.199,2.066-0.34
		C9.054,6.644,9.029,6.631,9.519,5.743c0.257-0.467-0.094-0.657-0.313-0.901C9.02,4.636,5.297,5.732,5.333,5.983
		C5.456,6.83,4.99,6.883,4.354,6.837z"/>
</g>
<g>
</g>
<g>
</g>
<g>
</g>
<g>
</g>
<g>
</g>
<g>
</g>
<g>
</g>
<g>
</g>
<g>
</g>
<g>
</g>
<g>
</g>
<g>
</g>
<g>
</g>
<g>
</g>
<g>
</g>
</svg>
