<?xml version="1.0" encoding="iso-8859-1"?>
<!-- Generator: Adobe Illustrator 16.0.0, SVG Export Plug-In . SVG Version: 6.00 Build 0)  -->
<!DOCTYPE svg PUBLIC "-//W3C//DTD SVG 1.1//EN" "http://www.w3.org/Graphics/SVG/1.1/DTD/svg11.dtd">
<svg version="1.1" id="Capa_1" xmlns="http://www.w3.org/2000/svg" xmlns:xlink="http://www.w3.org/1999/xlink" x="0px" y="0px"
	 width="20.985px" height="20.985px" viewBox="0 0 20.985 20.985" style="enable-background:new 0 0 20.985 20.985;"
	 xml:space="preserve">
<g>
	<path d="M20.634,17.966c-1.399-0.784-1.394-2.299-1.628-3.562c-0.25-1.34,0.517-2.844-0.896-3.991
		c-0.451-0.368,0.109-0.986,0.18-1.491c0.073-0.535,0.805-1.225,0.146-1.601c-2.249-1.286-3.354-3.863-5.919-4.86
		c-2.247-0.872-4.146-2.74-6.439-2.043c-1.298,0-2.183-0.009-3.067,0.004C2.671,0.428,2.092,0.686,2.189,0.8
		c0.935,1.108,0.518,2.049-0.219,3C1.941,3.838,2.006,4.017,2.069,4.049c0.95,0.472,0.173,0.856-0.02,1.327
		c-0.414,1.007-1.955,1.32-1.99,2.063C0,8.666-0.208,10.23,0.771,11.205c0.809,0.805,1.216,1.742,1.693,2.69
		c0.175,0.346,0.243,0.797,0.617,0.968c1.583,0.721,3.115,1.787,4.829,1.914c1.649,0.123,1.953,0.913,1.99,2.217
		c0.037,1.315,0.663,1.881,1.988,1.54c0.187-0.048,0.404-0.146,0.565-0.094c2.726,0.88,5.069-0.535,7.529-1.237
		c0.226-0.064,0.41-0.262,0.616-0.396C21.002,18.543,21.199,18.283,20.634,17.966z"/>
</g>
<g>
</g>
<g>
</g>
<g>
</g>
<g>
</g>
<g>
</g>
<g>
</g>
<g>
</g>
<g>
</g>
<g>
</g>
<g>
</g>
<g>
</g>
<g>
</g>
<g>
</g>
<g>
</g>
<g>
</g>
</svg>
