<?xml version="1.0" encoding="iso-8859-1"?>
<!-- Generator: Adobe Illustrator 16.0.0, SVG Export Plug-In . SVG Version: 6.00 Build 0)  -->
<!DOCTYPE svg PUBLIC "-//W3C//DTD SVG 1.1//EN" "http://www.w3.org/Graphics/SVG/1.1/DTD/svg11.dtd">
<svg version="1.1" id="Capa_1" xmlns="http://www.w3.org/2000/svg" xmlns:xlink="http://www.w3.org/1999/xlink" x="0px" y="0px"
	 width="22.173px" height="22.173px" viewBox="0 0 22.173 22.173" style="enable-background:new 0 0 22.173 22.173;"
	 xml:space="preserve">
<g>
	<path style="fill:#121111;" d="M15.688,9.245c0.527-0.045,1.23,0.348,1.429-0.38c0.194-0.72,0.54-1.599-0.314-2.213
		c-0.547-0.398-0.63-0.928-0.737-1.569c-0.16-0.98-1.095-2.158-1.798-1.845c-1.087,0.489-2.341-0.064-3.255,0.786
		c-0.108-0.098-0.222-0.194-0.332-0.29c0.72-1.499-0.465-2.448-1.186-3.369c-0.454-0.581-1.549-0.298-2.35-0.243
		C6.425,0.172,5.352-0.338,5.054,0.42C4.73,1.252,4.73,2.343,5.119,3.262c0.249,0.592,0.475,1.215,0.965,1.702
		c0.804,0.798,0.978,1.749,0.344,2.717c-0.267,0.413-0.366,0.81-0.021,1.096c0.934,0.767,1,1.881,1.387,2.896
		c0.406,1.063,0.2,1.724-0.409,2.627C6.6,15.463,6.15,16.852,6.29,18.327c0.016,0.165-0.139,0.375,0.152,0.511
		c1.443,0.683,1.637,0.719,1.937,1.351c0.481,1.019,2.13,0.633,2.269,1.984c0.396-0.301,1.167,0.08,1.303-0.556
		c0.163-0.766-0.456-1.264-1.073-1.366c-0.883-0.144-1.14-0.584-1.319-1.384c-0.159-0.722-0.436-1.766-0.952-1.994
		c-1.362-0.601-0.754-1.394-0.524-2.204c0.316-1.112,1.047-2.105,0.959-3.332c-0.025-0.385,0.006-0.698,0.523-0.737
		c0.558-0.043,0.736,0.157,0.637,0.701c-0.047,0.257,0.054,0.597,0.366,0.532c0.939-0.193,1.566,0.542,2.343,0.778
		c0.479-0.847-0.859-1.417-0.089-2.418C13.661,9.1,14.688,9.331,15.688,9.245z"/>
</g>
<g>
</g>
<g>
</g>
<g>
</g>
<g>
</g>
<g>
</g>
<g>
</g>
<g>
</g>
<g>
</g>
<g>
</g>
<g>
</g>
<g>
</g>
<g>
</g>
<g>
</g>
<g>
</g>
<g>
</g>
</svg>
