<?xml version="1.0" encoding="iso-8859-1"?>
<!-- Generator: Adobe Illustrator 16.0.0, SVG Export Plug-In . SVG Version: 6.00 Build 0)  -->
<!DOCTYPE svg PUBLIC "-//W3C//DTD SVG 1.1//EN" "http://www.w3.org/Graphics/SVG/1.1/DTD/svg11.dtd">
<svg version="1.1" id="Capa_1" xmlns="http://www.w3.org/2000/svg" xmlns:xlink="http://www.w3.org/1999/xlink" x="0px" y="0px"
	 width="21.955px" height="21.955px" viewBox="0 0 21.955 21.955" style="enable-background:new 0 0 21.955 21.955;"
	 xml:space="preserve">
<g>
	<path style="fill:#121111;" d="M12.621,21.955c0.906-0.224,1.856-0.25,2.345-0.909c0.343-0.461-0.431-0.927-0.591-1.426
		c-0.138-0.426-0.204-0.914-0.147-1.354c0.322-2.396-0.047-4.805,0.151-7.18c0.146-1.7-1.093-2.941-1.041-4.475
		c0.049-1.312-0.414-2.091-1.525-2.677c-0.541-0.285-1.392-0.583-1.046-1.439c0.608-1.518,0.385-2.294-1.441-2.042
		c-0.233,0.031-0.513-0.07-0.729-0.184c-1.623-0.845-1.48,0.498-1.672,1.362C6.781,2.277,7.391,2.533,7.768,2.794
		c0.98,0.685,1.078,1.584,1.008,2.668C8.734,6.136,7.44,7.29,9.336,7.484c0.04,0.004,0.062,0.571,0.027,0.868
		c-0.095,0.814-0.585,2.125-0.278,2.347c1.476,1.06,0.891,2.5,0.596,3.55c-0.396,1.402,0.614,2.691-0.13,4.101
		C9.113,19.182,11.757,21.964,12.621,21.955z"/>
</g>
<g>
</g>
<g>
</g>
<g>
</g>
<g>
</g>
<g>
</g>
<g>
</g>
<g>
</g>
<g>
</g>
<g>
</g>
<g>
</g>
<g>
</g>
<g>
</g>
<g>
</g>
<g>
</g>
<g>
</g>
</svg>
