<?xml version="1.0" encoding="iso-8859-1"?>
<!-- Generator: Adobe Illustrator 16.0.0, SVG Export Plug-In . SVG Version: 6.00 Build 0)  -->
<!DOCTYPE svg PUBLIC "-//W3C//DTD SVG 1.1//EN" "http://www.w3.org/Graphics/SVG/1.1/DTD/svg11.dtd">
<svg version="1.1" id="Capa_1" xmlns="http://www.w3.org/2000/svg" xmlns:xlink="http://www.w3.org/1999/xlink" x="0px" y="0px"
	 width="18.003px" height="18.003px" viewBox="0 0 18.003 18.003" style="enable-background:new 0 0 18.003 18.003;"
	 xml:space="preserve">
<g>
	<path d="M13.493,6.655c-0.999,0.351-1.042,1.638-0.849,1.789c1.281,0.98-0.096,1.183-0.383,1.687
		c-0.068-0.078-0.139-0.155-0.211-0.232c0.09-0.754-0.951-1.373-0.213-2.255c0.162-0.194-0.312-0.4-0.623-0.288
		C10.258,7.707,9.454,7.287,8.588,6.95c-1.376-0.53-2.633-1.544-4.355-0.588C3.439,6.801,2.098,6.657,1.376,5.815
		c-0.634-0.735-0.021-1.551,0.39-2.27C1.799,3.489,1.725,3.369,1.631,3.02C1.023,3.834,0.017,4.195,0,5.215
		c-0.043,2.479,2.716,5.277,5.267,5.678c1.338,0.211,2.903,0.283,3.663,1.703c0.548,1.024,1.335,1.642,2.358,2.065
		c0.742,0.31,1.443,0.557,2.188-0.057c0.746-0.611,0.924-1.348,0.688-2.227c-0.098-0.365-0.353-0.697,0.022-1.07
		c0.854-0.857,1.204-2.258,2.821-2.302c0.513-0.012,1.492-0.425,0.691-1.378C16.897,6.669,14.672,6.24,13.493,6.655z"/>
</g>
<g>
</g>
<g>
</g>
<g>
</g>
<g>
</g>
<g>
</g>
<g>
</g>
<g>
</g>
<g>
</g>
<g>
</g>
<g>
</g>
<g>
</g>
<g>
</g>
<g>
</g>
<g>
</g>
<g>
</g>
</svg>
