<?xml version="1.0" encoding="iso-8859-1"?>
<!-- Generator: Adobe Illustrator 16.0.0, SVG Export Plug-In . SVG Version: 6.00 Build 0)  -->
<!DOCTYPE svg PUBLIC "-//W3C//DTD SVG 1.1//EN" "http://www.w3.org/Graphics/SVG/1.1/DTD/svg11.dtd">
<svg version="1.1" id="Capa_1" xmlns="http://www.w3.org/2000/svg" xmlns:xlink="http://www.w3.org/1999/xlink" x="0px" y="0px"
	 width="22.451px" height="22.451px" viewBox="0 0 22.451 22.451" style="enable-background:new 0 0 22.451 22.451;"
	 xml:space="preserve">
<g>
	<path style="fill:#121111;" d="M0.064,20.611c0.159,0.283,0.548,0.146,0.813-0.053c0.81-0.601,1.801-0.585,2.652-0.42
		c2.782,0.543,5.541-0.143,8.31,0.013c1.08,0.062,2.255-0.572,2.729-1.195c0.534-0.702,0.509-2.166,0.187-3.114
		c-0.779-2.296-1.259-4.42,0.55-6.469c0.25-0.285,0.824-0.653,0.571-1.136C15.592,7.691,14.946,8,14.465,7.934
		c-0.231-0.032-0.483,0.098-0.729,0.145c-1.14,0.21-2.281,0.594-3.419,0.589c-2.453-0.013-4.663,0.733-7.281,1.755
		c0.834,0.242,1.217,0.427,1.612,0.455c2.156,0.151,2.82,1.021,2.25,3.104c-0.152,0.561-0.193,1.031,0.032,1.605
		c0.536,1.371-0.012,2.063-1.454,1.819c-0.632-0.108-1.069,0.084-1.555,0.39c-1.112,0.692-2.237,1.367-3.371,2.024
		C0.217,20.013-0.151,20.228,0.064,20.611z"/>
	<path style="fill:#121111;" d="M21.287,1.901c-0.54,0.138-1.129,0.269-1.572,0.579c-0.896,0.628-1.707,1.378-2.541,2.063
		c0.071,0.595,0.629,0.677,0.798,0.586c1.325-0.733,2.926-0.881,4.106-1.909c0.403-0.35,0.449-0.884,0.282-1.274
		C22.137,1.424,21.639,1.812,21.287,1.901z"/>
</g>
<g>
</g>
<g>
</g>
<g>
</g>
<g>
</g>
<g>
</g>
<g>
</g>
<g>
</g>
<g>
</g>
<g>
</g>
<g>
</g>
<g>
</g>
<g>
</g>
<g>
</g>
<g>
</g>
<g>
</g>
</svg>
