<?xml version="1.0" encoding="iso-8859-1"?>
<!-- Generator: Adobe Illustrator 16.0.0, SVG Export Plug-In . SVG Version: 6.00 Build 0)  -->
<!DOCTYPE svg PUBLIC "-//W3C//DTD SVG 1.1//EN" "http://www.w3.org/Graphics/SVG/1.1/DTD/svg11.dtd">
<svg version="1.1" id="Capa_1" xmlns="http://www.w3.org/2000/svg" xmlns:xlink="http://www.w3.org/1999/xlink" x="0px" y="0px"
	 width="22.015px" height="22.015px" viewBox="0 0 22.015 22.015" style="enable-background:new 0 0 22.015 22.015;"
	 xml:space="preserve">
<g>
	<path style="fill:#121111;" d="M6.565,9.074c-1.226,0.821-1.588,2.004-0.604,3.251c0.788,0.999,1.35,2.306,2.301,2.998
		c1.27,0.926,1.667,2.069,1.968,3.406c0.245,1.094,0.494,2.187,0.739,3.286c1.846-0.627,2.324-1.354,1.957-3.172
		c-0.095-0.466-0.09-0.804,0.252-1.082c0.698-0.567,1.349-1.37,2.154-1.593c1.723-0.48,1.283-1.814,1.094-2.755
		c-0.132-0.66-0.653-1.505-1.789-1.682c-0.636-0.101-1.755-0.26-1.958-1.333c-0.188-0.983,0.782-1.065,1.23-1.551
		c1.812-1.969,2.097-2.62,0.349-4.172c-0.535-0.477-0.724-1.097-0.017-1.686c0.309-0.254,0.549-0.589,0.796-0.908
		c0.232-0.304,0.703-0.606,0.32-1.04c-0.407-0.463-0.706,0.216-1.064,0.201s-0.741,1.114-1.048,0.021
		c-0.369-1.299-1.304-1.401-2.355-1.164c-1.594,0.36-3.353,1.811-3.316,2.734C7.62,3.941,7.521,5.044,7.678,6.161
		C7.827,7.257,7.683,8.324,6.565,9.074z"/>
</g>
<g>
</g>
<g>
</g>
<g>
</g>
<g>
</g>
<g>
</g>
<g>
</g>
<g>
</g>
<g>
</g>
<g>
</g>
<g>
</g>
<g>
</g>
<g>
</g>
<g>
</g>
<g>
</g>
<g>
</g>
</svg>
