<?xml version="1.0" encoding="iso-8859-1"?>
<!-- Generator: Adobe Illustrator 16.0.0, SVG Export Plug-In . SVG Version: 6.00 Build 0)  -->
<!DOCTYPE svg PUBLIC "-//W3C//DTD SVG 1.1//EN" "http://www.w3.org/Graphics/SVG/1.1/DTD/svg11.dtd">
<svg version="1.1" id="Capa_1" xmlns="http://www.w3.org/2000/svg" xmlns:xlink="http://www.w3.org/1999/xlink" x="0px" y="0px"
	 width="21.973px" height="21.973px" viewBox="0 0 21.973 21.973" style="enable-background:new 0 0 21.973 21.973;"
	 xml:space="preserve">
<g>
	<path style="fill:#121111;" d="M1.005,10.457c1.434,0.304,0.963,1.405,0.997,2.317c0.018,0.458-0.247,1.116,0.425,1.298
		c0.513,0.134,0.886-0.18,1.279-0.606c0.9-0.978,2.389-1.191,3.348-0.791c1.649,0.693,3.661,0.801,4.877,2.411
		c0.1,0.135,0.35,0.25,0.515,0.233c0.82-0.095,1.102,0.247,1.021,1.046c-0.094,0.893,0.585,0.961,1.232,1.227
		c0.724,0.295,1.303,0.335,1.777-0.252c0.841-1.045,2.723-1.053,2.823-2.834c0.004-0.05,0.187-0.147,0.256-0.127
		c0.653,0.195,0.98-0.89,1.783-0.375c0.494,0.315,0.455-0.327,0.563-0.624c0.304-0.808-0.443-0.825-0.829-0.993
		c-2.507-1.09-5.088-2.062-6.214-4.902c-0.28-0.703-0.855-0.714-1.517-0.662c-0.768,0.061-1.563,0.05-1.473-1.131
		c0.018-0.247-0.246-0.727-0.417-0.748C10.338,4.816,9.25,3.242,8.042,4.991C7.721,5.457,6.704,5.436,6.921,6.442
		c0.062,0.272-0.228,0.3-0.415,0.288C5.542,6.667,4.485,7.042,3.859,5.785C3.49,5.046,2.726,4.611,1.786,4.916
		C-0.189,5.321-0.36,5.574,0.47,7.015C0.634,6.18,0.717,5.314,1.816,5.338c0.502,0.375,0.403,1.137,1,1.488
		c0.871,0.507,0.238,0.661-0.229,0.932C2.128,8.021,1.795,7.557,1.425,7.667C1.101,7.765,0.809,7.091,0.539,7.64
		C0.34,8.051,0.175,8.481,0.3,8.97C0.438,9.514,1.761,9.495,1.005,10.457z"/>
</g>
<g>
</g>
<g>
</g>
<g>
</g>
<g>
</g>
<g>
</g>
<g>
</g>
<g>
</g>
<g>
</g>
<g>
</g>
<g>
</g>
<g>
</g>
<g>
</g>
<g>
</g>
<g>
</g>
<g>
</g>
</svg>
