<?xml version="1.0" encoding="iso-8859-1"?>
<!-- Generator: Adobe Illustrator 16.0.0, SVG Export Plug-In . SVG Version: 6.00 Build 0)  -->
<!DOCTYPE svg PUBLIC "-//W3C//DTD SVG 1.1//EN" "http://www.w3.org/Graphics/SVG/1.1/DTD/svg11.dtd">
<svg version="1.1" id="Capa_1" xmlns="http://www.w3.org/2000/svg" xmlns:xlink="http://www.w3.org/1999/xlink" x="0px" y="0px"
	 width="20.863px" height="20.863px" viewBox="0 0 20.863 20.863" style="enable-background:new 0 0 20.863 20.863;"
	 xml:space="preserve">
<g>
	<path d="M19.722,8.55c-0.018-0.009,0.012-0.093,0.008-0.141c-0.139-1.538-1.598-1.771-2.763-1.271
		c-2.001,0.855-3.909,0.677-5.814-0.243c-1.683-0.812-3.34-0.843-4.985,0.138c-1.161,0.688-2.967,0.497-4.05-0.38
		C1.209,5.922,0.479,6.142,0.14,7.247c-0.432,1.415,0.24,3.036,0.656,4.717c0.471,1.889,2.2,1.204,3.043,2.116
		c0.11,0.118,0.798-0.032,0.91-0.232c0.607-1.092,1.307-0.417,1.772-0.023c0.808,0.688,1.607,0.596,2.27,0.051
		c1.175-0.959,1.734-0.265,2.356,0.761c0.678-1.421,1.837-1.406,3.104-1.204c0.415,0.066,0.882-0.028,1.299-0.146
		c1.49-0.415,2.979-0.721,4.538-0.42c0.679,0.13,0.933-0.107,0.679-0.392C19.731,11.318,21.497,9.459,19.722,8.55z"/>
</g>
<g>
</g>
<g>
</g>
<g>
</g>
<g>
</g>
<g>
</g>
<g>
</g>
<g>
</g>
<g>
</g>
<g>
</g>
<g>
</g>
<g>
</g>
<g>
</g>
<g>
</g>
<g>
</g>
<g>
</g>
</svg>
