<?xml version="1.0" encoding="iso-8859-1"?>
<!-- Generator: Adobe Illustrator 16.0.0, SVG Export Plug-In . SVG Version: 6.00 Build 0)  -->
<!DOCTYPE svg PUBLIC "-//W3C//DTD SVG 1.1//EN" "http://www.w3.org/Graphics/SVG/1.1/DTD/svg11.dtd">
<svg version="1.1" id="Capa_1" xmlns="http://www.w3.org/2000/svg" xmlns:xlink="http://www.w3.org/1999/xlink" x="0px" y="0px"
	 width="22.067px" height="22.067px" viewBox="0 0 22.067 22.067" style="enable-background:new 0 0 22.067 22.067;"
	 xml:space="preserve">
<g>
	<path style="fill:#121111;" d="M6.295,9.312c-0.393,0.317-0.717,0.717-1.083,1.07c-1.476,1.424-3.223,2.496-3.78,4.802
		c-0.449,1.843-0.693,3.679-0.9,5.538c-0.037,0.337-0.206,1.046,0.294,1.01c0.641-0.049,1.317,0.802,1.91-0.041
		c0.943-1.341,2.358-1.369,3.785-1.369c3.07-0.002,6.143-0.058,9.21,0.026c1.242,0.034,1.824-0.143,1.738-1.605
		c-0.078-1.336-0.226-2.807,0.669-3.984c0.753-0.998,1.324-2.112,2.261-3.013c0.778-0.746,1.359-1.749,1.147-3.061
		C21.02,5.44,19.277,2.788,17.643,0c-1.132,0.98-1.98,2.552-3.792,1.358c-0.122-0.083-0.452,0.165-0.691,0.235
		c-0.95,0.281-2.009,0.23-2.816,0.938c-0.754-1.14-1.959-0.393-2.92-0.693C6.319,1.493,5.869,2.075,5.471,3.087
		c-0.369,0.938,0.07,1.846-0.245,2.73c-0.242,0.675-0.32,1.118,0.666,1.412C6.926,7.538,7.487,8.342,6.295,9.312z"/>
</g>
<g>
</g>
<g>
</g>
<g>
</g>
<g>
</g>
<g>
</g>
<g>
</g>
<g>
</g>
<g>
</g>
<g>
</g>
<g>
</g>
<g>
</g>
<g>
</g>
<g>
</g>
<g>
</g>
<g>
</g>
</svg>
