<?xml version="1.0" encoding="iso-8859-1"?>
<!-- Generator: Adobe Illustrator 16.0.0, SVG Export Plug-In . SVG Version: 6.00 Build 0)  -->
<!DOCTYPE svg PUBLIC "-//W3C//DTD SVG 1.1//EN" "http://www.w3.org/Graphics/SVG/1.1/DTD/svg11.dtd">
<svg version="1.1" id="Capa_1" xmlns="http://www.w3.org/2000/svg" xmlns:xlink="http://www.w3.org/1999/xlink" x="0px" y="0px"
	 width="21.944px" height="21.943px" viewBox="0 0 21.944 21.943" style="enable-background:new 0 0 21.944 21.943;"
	 xml:space="preserve">
<g>
	<path style="fill:#121111;" d="M21.578,9.098c-1.215-0.384-2.439-1.167-3.628-1.107c-1.629,0.08-2.27-1.186-3.05-1.935
		c-0.552-0.527-0.51-1.625-1.744-1.323c-0.912,0.224-2.145,0.142-2.664,0.713C9.845,6.158,9.331,6.077,8.618,6.017
		c-1.158-0.1-2.298-0.244-3.433-0.53C4.311,5.27,3.38,5.212,2.479,5.556c-0.621,0.24-1.167,0.448-0.577,1.259
		c0.357,0.487,0.312,0.9-0.318,1.221c-0.347,0.175-0.636,0.523-0.87,0.851c-1.004,1.401-0.948,2.742,0.149,2.835
		c1.483,0.125,2.997,0.739,4.499-0.346c1.022-0.74,2.46-0.052,3.076,1.126c0.25,0.479,0.586,0.913,0.944,1.458
		c-1.522-0.145-1.487,1.039-1.979,1.813c1.487,0.48,2.171-0.514,2.906-1.339c0.33-0.369,0.718-0.788,1.113-0.383
		c0.616,0.633,1.377,0.52,2.113,0.651c-0.017,0.141-0.077,0.239-0.161,0.316c-0.25,0.229-0.698,0.265-0.709,0.685
		c0.342,0.297,1.066,0.222,1.092,0.838c0.003,0.088-0.007,0.19-0.036,0.311c-0.068,0.286,0.373,0.48,0.521,0.385
		c1.024-0.648,2.25-0.825,3.254-1.631c-0.2-0.015-0.404-0.063-0.598-0.035c-0.556,0.078-1.063,0.023-1.24-0.589
		c-0.175-0.605,0.563-0.836,0.759-0.873c1.712-0.333,3.049-1.456,4.622-2.052c1.192-0.454,0.148-1.623,0.813-2.244
		C21.997,9.676,22.013,9.236,21.578,9.098z"/>
</g>
<g>
</g>
<g>
</g>
<g>
</g>
<g>
</g>
<g>
</g>
<g>
</g>
<g>
</g>
<g>
</g>
<g>
</g>
<g>
</g>
<g>
</g>
<g>
</g>
<g>
</g>
<g>
</g>
<g>
</g>
</svg>
