<?xml version="1.0" encoding="iso-8859-1"?>
<!-- Generator: Adobe Illustrator 16.0.0, SVG Export Plug-In . SVG Version: 6.00 Build 0)  -->
<!DOCTYPE svg PUBLIC "-//W3C//DTD SVG 1.1//EN" "http://www.w3.org/Graphics/SVG/1.1/DTD/svg11.dtd">
<svg version="1.1" id="Capa_1" xmlns="http://www.w3.org/2000/svg" xmlns:xlink="http://www.w3.org/1999/xlink" x="0px" y="0px"
	 width="21.248px" height="21.248px" viewBox="0 0 21.248 21.248" style="enable-background:new 0 0 21.248 21.248;"
	 xml:space="preserve">
<g>
	<path d="M17.786,4.924c-1.618,1.879-3.899,3.077-5.177,5.32c-0.457,0.803-1.255,2.018-2.568,0.768
		C9.955,10.93,9.437,11.077,9.402,11.2c-0.268,0.938-0.877,0.569-1.459,0.461c-1.659-0.312-3.277-0.403-4.878,0.413
		c-0.781,0.398-1.738,0.547-2.091-0.725C0.838,10.864,0.479,10.715,0,10.922c0,0.394,0,0.787,0,1.178
		c1.204,1.488,2.427,2.961,3.603,4.469c0.391,0.501,0.827,0.771,1.459,0.85c3.306,0.416,6.61,0.844,9.908,1.317
		c0.478,0.067,0.904-0.003,0.917-0.417c0.059-1.725,1.074-3.139,1.438-4.729c0.229-0.998,0.42-1.488,1.479-1.435
		c0.402,0.019,0.967-0.454,0.557-0.658c-1.211-0.598-0.637-1.581-0.754-2.404c-0.055-0.374-0.129-0.872,0.312-1.05
		c0.512-0.204,0.439,0.36,0.611,0.604c0.197,0.283,0.426,0.171,0.615,0.002c0.576-0.512,1.027-0.965,1.095-1.914
		c0.116-1.641-1.22-2.694-1.294-4.246C19.451,3.574,18.473,4.127,17.786,4.924z"/>
</g>
<g>
</g>
<g>
</g>
<g>
</g>
<g>
</g>
<g>
</g>
<g>
</g>
<g>
</g>
<g>
</g>
<g>
</g>
<g>
</g>
<g>
</g>
<g>
</g>
<g>
</g>
<g>
</g>
<g>
</g>
</svg>
