<?xml version="1.0" encoding="iso-8859-1"?>
<!-- Generator: Adobe Illustrator 16.0.0, SVG Export Plug-In . SVG Version: 6.00 Build 0)  -->
<!DOCTYPE svg PUBLIC "-//W3C//DTD SVG 1.1//EN" "http://www.w3.org/Graphics/SVG/1.1/DTD/svg11.dtd">
<svg version="1.1" id="Capa_1" xmlns="http://www.w3.org/2000/svg" xmlns:xlink="http://www.w3.org/1999/xlink" x="0px" y="0px"
	 width="21.026px" height="21.026px" viewBox="0 0 21.026 21.026" style="enable-background:new 0 0 21.026 21.026;"
	 xml:space="preserve">
<g>
	<path d="M20.276,11.719c-0.752,0.408-1.528,0.771-2.472,1.235c0.113-1.041-0.62-1.163-1.299-1.456
		c-2.337-1.016-4.743-0.161-7.107-0.347c-0.194-0.018-0.333,0.107-0.423,0.32c-0.537,1.274,0.341,3.287,1.72,3.775
		c1.223,0.434,2.683,0.225,3.637,1.388c0.137,0.166,0.29-0.005,0.462-0.122c1.412-0.979,2.346-0.857,3.34,0.446
		c0.521-0.601-0.514-1.228,0.18-1.688c1.107-0.734,1.292-2.238,2.479-2.896c0.369-0.207,0.231-0.49,0.055-0.735
		C20.62,11.332,20.48,11.609,20.276,11.719z"/>
	<path d="M3.161,8.585c0.74-0.737,1.422-0.619,2.209-0.631C6.022,8.349,6.658,8.773,7.109,9.4c0.235,0.331,0.505,0.275,0.729,0.091
		c0.287-0.238-0.061-0.378-0.151-0.569C7.266,8.05,6.346,7.984,5.63,7.589C5.625,6.855,5.613,6.122,5.613,5.388
		c0-0.396,0.041-0.854-0.471-0.939c-1.006-0.171-2.044-0.466-3.031-0.36C1.372,4.167,0.13,4.246,0.495,5.673
		c-1.257,0.39,0.324,0.915-0.067,1.4C0.207,7.35-0.186,7.807,0.574,8.032C1.444,8.293,2.371,9.372,3.161,8.585z"/>
</g>
<g>
</g>
<g>
</g>
<g>
</g>
<g>
</g>
<g>
</g>
<g>
</g>
<g>
</g>
<g>
</g>
<g>
</g>
<g>
</g>
<g>
</g>
<g>
</g>
<g>
</g>
<g>
</g>
<g>
</g>
</svg>
