<?xml version="1.0" encoding="iso-8859-1"?>
<!-- Generator: Adobe Illustrator 16.0.0, SVG Export Plug-In . SVG Version: 6.00 Build 0)  -->
<!DOCTYPE svg PUBLIC "-//W3C//DTD SVG 1.1//EN" "http://www.w3.org/Graphics/SVG/1.1/DTD/svg11.dtd">
<svg version="1.1" id="Capa_1" xmlns="http://www.w3.org/2000/svg" xmlns:xlink="http://www.w3.org/1999/xlink" x="0px" y="0px"
	 width="22.201px" height="22.201px" viewBox="0 0 22.201 22.201" style="enable-background:new 0 0 22.201 22.201;"
	 xml:space="preserve">
<g>
	<path style="fill:#121111;" d="M19.98,9.881c-0.2-0.791-0.867-1.27-1.645-1.685c-1.784-0.955-3.214-2.451-5.044-3.395
		c-0.733-0.376-1.092-1.511-2.204-0.696c-0.205,0.15-0.509,0.066-0.614-0.245C10.021,2.523,8.8,1.832,7.924,0.854
		C7.19,0.033,6.383-0.529,5.542,0.776c-0.24,0.373-0.545,0.138-0.794,0.003C3.522,0.115,3.1,0.966,2.876,1.868
		C2.416,3.736,2.258,5.669,1.639,7.515C1.227,8.741,1.166,10.031,1.475,11.3c0.247,1.01,0.118,1.838-0.592,2.685
		c-0.849,1.011-0.868,3.072-0.177,3.85c1.087,1.229,2.032,2.674,4.102,2.18c0.757-0.181,1.441,0.403,2.1,0.798
		c1.345,0.806,2.71,1.337,4.355,0.845c0.778-0.234,1.691-0.209,2.333,0.544c0.514,0,1.024,0,1.537,0
		c0.686-0.828,1.715-1.051,2.623-1.482c2.213-1.051,3.073-2.633,2.761-5.037c-0.058-0.448,0.027-0.91,0.024-1.365
		c-0.004-1.133,1.609-1.56,1.431-2.344C21.788,11.167,20.276,11.059,19.98,9.881z"/>
</g>
<g>
</g>
<g>
</g>
<g>
</g>
<g>
</g>
<g>
</g>
<g>
</g>
<g>
</g>
<g>
</g>
<g>
</g>
<g>
</g>
<g>
</g>
<g>
</g>
<g>
</g>
<g>
</g>
<g>
</g>
</svg>
