<?xml version="1.0" encoding="iso-8859-1"?>
<!-- Generator: Adobe Illustrator 16.0.0, SVG Export Plug-In . SVG Version: 6.00 Build 0)  -->
<!DOCTYPE svg PUBLIC "-//W3C//DTD SVG 1.1//EN" "http://www.w3.org/Graphics/SVG/1.1/DTD/svg11.dtd">
<svg version="1.1" id="Capa_1" xmlns="http://www.w3.org/2000/svg" xmlns:xlink="http://www.w3.org/1999/xlink" x="0px" y="0px"
	 width="18.723px" height="18.724px" viewBox="0 0 18.723 18.724" style="enable-background:new 0 0 18.723 18.724;"
	 xml:space="preserve">
<g>
	<path d="M3.305,1.242c0.056,0.284,0.01,0.589,0.01,0.884c0.401,0.614,0.461,1.314,0.6,2.017C4.13,5.23,4.084,6.667,5.94,6.279
		c0.226-0.049,0.514,0.201,0.771,0.312c-0.232,1.979,1.134,3.212,2.206,4.54c0.516,0.638,1.322,0.312,1.849-0.141
		c0.586-0.506-0.24-0.752-0.341-1.154c0.916,0.047,1.872-0.03,1.49,1.486c-0.245,0.977,0.241,1.598,1.365,1.461
		c0.171,0.144,0.343,0.284,0.513,0.426c-1.614,0.617-0.071,1.473-0.168,2.203c-2.006,1.094-2.088,1.871-0.322,3.107
		c0.029,0.021,0.029,0.087,0.047,0.135c0.193,0,0.392,0,0.587,0c1.252,0.264,1.655-0.219,1.504-1.479
		c-0.127-1.066-0.025-2.162-0.025-3.245c0-0.292,0-0.589,0-0.886c-1.162-0.92-1.921-2.022-1.894-3.603
		c0.008-0.399-0.524-0.662-0.413-1.292c0.386-2.138-0.334-4.198-0.695-6.279c-0.056-0.312-0.331-0.531-0.645-0.468
		c-0.334,0.067-0.456,0.36-0.334,0.69c0.346,0.914,0.146,1.448-0.913,1.63c-0.444,0.077-0.932,0.374-1.045,0.931
		C9.424,4.918,9.563,5.162,9.803,5.25c0.543,0.197,1.052,0.155,1.475-0.311c0.14-0.153,0.235-0.437,0.557-0.323
		c0,0.537-0.128,1.113,0.024,1.598c0.401,1.258,0.521,2.283-1.104,2.717c-0.183,0.048-0.253,0.521-0.363,0.837
		C9.496,8.696,8.603,7.622,7.704,6.547c0.317-0.479,0.403-0.98,0.188-1.527c-0.32-0.815-0.637-1.629-0.936-2.452
		C6.822,2.191,7.012,1.629,6.336,1.59C5.73,1.557,5.749,2.122,5.367,2.666c0.177-1.182-0.724-1.733-0.872-2.605
		C3.483-0.162,3.104,0.227,3.305,1.242z"/>
</g>
<g>
</g>
<g>
</g>
<g>
</g>
<g>
</g>
<g>
</g>
<g>
</g>
<g>
</g>
<g>
</g>
<g>
</g>
<g>
</g>
<g>
</g>
<g>
</g>
<g>
</g>
<g>
</g>
<g>
</g>
</svg>
