<?xml version="1.0" encoding="iso-8859-1"?>
<!-- Generator: Adobe Illustrator 16.0.0, SVG Export Plug-In . SVG Version: 6.00 Build 0)  -->
<!DOCTYPE svg PUBLIC "-//W3C//DTD SVG 1.1//EN" "http://www.w3.org/Graphics/SVG/1.1/DTD/svg11.dtd">
<svg version="1.1" id="Capa_1" xmlns="http://www.w3.org/2000/svg" xmlns:xlink="http://www.w3.org/1999/xlink" x="0px" y="0px"
	 width="21.254px" height="21.254px" viewBox="0 0 21.254 21.254" style="enable-background:new 0 0 21.254 21.254;"
	 xml:space="preserve">
<g>
	<path d="M19.949,9.961c0.033-0.833-0.073-1.688,0.065-2.502c0.247-1.444-0.405-2.054-1.731-2.232
		c-1.243-0.17-2.243-0.588-2.258-2.128c-0.008-0.696-0.486-0.585-1.033-0.478c-1.072,0.211-1.84,1.563-2.795,1.275
		C10.62,3.42,9.51,5.384,7.995,4.429C7.969,4.412,7.878,4.441,7.862,4.472C7.147,5.891,6.483,7.35,4.964,8.13
		c0.479,2.325-1.851,3.274-2.493,5.063C2.083,14.275,0.63,13.923,0,14.79c0.308,0.362,0.621,0.783,1.159,0.742
		c1.032-0.081,1.802,0.814,1.881,1.343c0.261,1.728,1.263,0.358,1.827,0.608c0.232-0.75,0.783-0.271,1.202-0.32
		c1.328-0.16,2.354,0.803,3.549,0.973c1.652,0.236,3.369-0.178,5.023,0.576c-0.07-2.761,0.299-3.205,2.27-3.201
		c0.582,0.002,0.861,0.355,1.259,0.615c1.067,0.695,2.138,0.415,2.704-0.721c0.521-1.048,0.562-2.188-0.227-3.039
		C19.947,11.613,19.912,10.845,19.949,9.961z"/>
</g>
<g>
</g>
<g>
</g>
<g>
</g>
<g>
</g>
<g>
</g>
<g>
</g>
<g>
</g>
<g>
</g>
<g>
</g>
<g>
</g>
<g>
</g>
<g>
</g>
<g>
</g>
<g>
</g>
<g>
</g>
</svg>
