<?xml version="1.0" encoding="iso-8859-1"?>
<!-- Generator: Adobe Illustrator 16.0.0, SVG Export Plug-In . SVG Version: 6.00 Build 0)  -->
<!DOCTYPE svg PUBLIC "-//W3C//DTD SVG 1.1//EN" "http://www.w3.org/Graphics/SVG/1.1/DTD/svg11.dtd">
<svg version="1.1" id="Capa_1" xmlns="http://www.w3.org/2000/svg" xmlns:xlink="http://www.w3.org/1999/xlink" x="0px" y="0px"
	 width="21.111px" height="21.111px" viewBox="0 0 21.111 21.111" style="enable-background:new 0 0 21.111 21.111;"
	 xml:space="preserve">
<g>
	<path d="M20.21,6.563c-0.279,0.044-0.862,0.255-0.677-0.312c0.431-1.326-0.641-1.277-1.312-1.596
		c-0.498-0.231-1.166-0.115-1.511-0.804c0.341-0.161,0.698-0.329,1.057-0.5c-1.016-0.537-2.304,0.55-3.146-0.684
		c-0.045-0.065-0.361-0.044-0.458,0.321c-0.313,1.191-1.167,1.647-2.196,0.976c-0.934-0.61-1.808-0.531-2.776-0.462
		C8.76,3.535,8.307,3.773,7.941,3.121c-0.69-1.236-2.02-1.396-3.346-0.889c-0.598,0.23-1.453,1.055-1.966,0.389
		c-0.737-0.951-1.054-0.17-1.406,0.148C0.423,3.495,0.506,4.649,0.03,5.56c-0.214,0.411,0.792,0.067,0.834,0.704
		C0.89,6.671,1.312,7.057,1.332,7.459c0.09,1.813,0.783,1.878,2.256,1.761c0.589-0.046,1.273-0.026,1.478,0.298
		c0.838,1.318,2.029,1.139,3.243,0.979c0.468-0.06,0.99,0.037,0.588,0.523c-1.272,1.545,0.833,3.2-0.252,4.698
		c-0.003,0.005,0.123,0.112,0.196,0.161c0.729,0.473,0.814,1.287,1.091,2.011c0.436,1.142,1.684,1.614,2.661,0.965
		c1.051-0.7,2.151-1.353,3.123-2.416c-1.577-0.17-1.282-1.368-1.511-2.337c0.838-0.143,1.923,0.493,2.076,0.333
		c0.806-0.84,1.955-0.679,2.826-1.222c0.745-0.465,1.126-0.867,0.338-1.68c-0.72-0.739-0.791-1.494,0.363-1.989
		c0.231-0.099,0.852-0.257,0.438-0.639c-0.776-0.714-0.023-0.846,0.319-1.167c0.231-0.221,0.688-0.339,0.502-0.781
		C20.922,6.616,20.602,6.507,20.21,6.563z"/>
</g>
<g>
</g>
<g>
</g>
<g>
</g>
<g>
</g>
<g>
</g>
<g>
</g>
<g>
</g>
<g>
</g>
<g>
</g>
<g>
</g>
<g>
</g>
<g>
</g>
<g>
</g>
<g>
</g>
<g>
</g>
</svg>
