<?xml version="1.0" encoding="iso-8859-1"?>
<!-- Generator: Adobe Illustrator 16.0.0, SVG Export Plug-In . SVG Version: 6.00 Build 0)  -->
<!DOCTYPE svg PUBLIC "-//W3C//DTD SVG 1.1//EN" "http://www.w3.org/Graphics/SVG/1.1/DTD/svg11.dtd">
<svg version="1.1" id="Capa_1" xmlns="http://www.w3.org/2000/svg" xmlns:xlink="http://www.w3.org/1999/xlink" x="0px" y="0px"
	 width="22.113px" height="22.113px" viewBox="0 0 22.113 22.113" style="enable-background:new 0 0 22.113 22.113;"
	 xml:space="preserve">
<g>
	<path style="fill:#121111;" d="M5.793,1.591C6.196,2.318,6.792,2.919,7.129,3.72c0.159,0.378,0.726,0.409,1.224,0.243
		c0.903-0.301,0.735,0.76,1.207,1.064c0.23,0.148-0.061,0.43-0.329,0.489C7.739,5.85,8.386,6.303,9.141,6.803
		c1.7,1.129,2.713,2.907,3.987,4.415c0.943,1.119,0.035,2.735,0.411,4.103c0.21,0.761-0.105,1.317-0.946,1.55
		c-1.353,0.372-1.9,1.898-3.231,2.331c-0.084,0.027-0.171,0.318-0.165,0.322c1.149,0.631-0.034,1.784,0.624,2.59
		c0.153-0.069,0.343-0.124,0.494-0.232c1.541-1.106,2.805-2.587,4.614-3.333c0.51-0.206,1.017-0.538,1.153-1.146
		c0.544-2.406,0.318-4.72-1.479-6.517c-1.03-1.028-2.034-2.047-2.954-3.18c-0.826-1.019-0.651-1.731,0.134-2.625
		c0.726-0.826,1.492-1.579,2.559-2.279c-1.558-0.467-2.011-0.692-1.906-1.244c0.16-0.825-0.161-1.105-0.821-0.945
		c-0.687,0.168-0.971-1.033-1.595-0.45C8.953,1.158,7.712,1.024,6.445,0.925C5.963,0.89,5.688,1.402,5.793,1.591z"/>
</g>
<g>
</g>
<g>
</g>
<g>
</g>
<g>
</g>
<g>
</g>
<g>
</g>
<g>
</g>
<g>
</g>
<g>
</g>
<g>
</g>
<g>
</g>
<g>
</g>
<g>
</g>
<g>
</g>
<g>
</g>
</svg>
