<?xml version="1.0" encoding="iso-8859-1"?>
<!-- Generator: Adobe Illustrator 16.0.0, SVG Export Plug-In . SVG Version: 6.00 Build 0)  -->
<!DOCTYPE svg PUBLIC "-//W3C//DTD SVG 1.1//EN" "http://www.w3.org/Graphics/SVG/1.1/DTD/svg11.dtd">
<svg version="1.1" id="Capa_1" xmlns="http://www.w3.org/2000/svg" xmlns:xlink="http://www.w3.org/1999/xlink" x="0px" y="0px"
	 width="21.867px" height="21.867px" viewBox="0 0 21.867 21.867" style="enable-background:new 0 0 21.867 21.867;"
	 xml:space="preserve">
<g>
	<path style="fill:#121111;" d="M1.149,15.961c0.084,0.593,0.67,0.69,1.379,0.706c0.128-0.03,0.422-0.168,0.714-0.166
		c1.259,0.016,1.948-1.313,3.154-1.337c1.05-0.022,1.965-0.631,2.883-0.757c1.795-0.24,2.889-1.856,4.627-1.986
		c2.323-0.175,3.596-1.932,5.12-3.312c0.277-0.25,0.11-0.567-0.028-0.844c-0.229-0.456-0.493-0.896-0.703-1.359
		c-1.164-2.57-1.155-2.538-3.918-2.161c-2.328,0.317-4.581,0.678-5.698,3.167C8.55,8.199,8.269,8.384,7.803,8.167
		c-2.067-0.96-4.359-0.448-6.517-0.881c-0.145-0.03-0.541,0.335-0.516,0.451c0.194,0.895-0.556,1.469-0.696,2.257
		C-0.305,12.132,0.865,13.96,1.149,15.961z"/>
	<path style="fill:#121111;" d="M21.867,16.744c-0.678-0.433-1.385-0.506-2.094-0.184c-0.188,0.088-0.089,0.363,0.097,0.483
		C20.601,17.522,21.243,17.314,21.867,16.744z"/>
</g>
<g>
</g>
<g>
</g>
<g>
</g>
<g>
</g>
<g>
</g>
<g>
</g>
<g>
</g>
<g>
</g>
<g>
</g>
<g>
</g>
<g>
</g>
<g>
</g>
<g>
</g>
<g>
</g>
<g>
</g>
</svg>
