<?xml version="1.0" encoding="iso-8859-1"?>
<!-- Generator: Adobe Illustrator 16.0.0, SVG Export Plug-In . SVG Version: 6.00 Build 0)  -->
<!DOCTYPE svg PUBLIC "-//W3C//DTD SVG 1.1//EN" "http://www.w3.org/Graphics/SVG/1.1/DTD/svg11.dtd">
<svg version="1.1" id="Capa_1" xmlns="http://www.w3.org/2000/svg" xmlns:xlink="http://www.w3.org/1999/xlink" x="0px" y="0px"
	 width="20.911px" height="20.911px" viewBox="0 0 20.911 20.911" style="enable-background:new 0 0 20.911 20.911;"
	 xml:space="preserve">
<g>
	<path d="M0.014,14.881c0.031,2.399,1.69,3.855,4.09,3.64c0.637-0.059,1.203,0.15,1.802,0.456c1.871,0.954,3.262,0.619,4.488-0.992
		c0.773-1.021,2.313-1.191,2.774-2.551c0.033-0.102,0.24-0.153,0.372-0.21c0.678-0.292,2.202,0.47,1.693-1.358
		c-0.015-0.051,0.654-0.321,1.019-0.441c1.333-0.439,2.677-0.86,4.188-1.344c-0.704-0.389-0.862-0.777-0.545-1.375
		c0.591-1.115,0.85-2.317,0.731-3.592c-0.021-0.229,0.018-0.478,0.087-0.701c0.466-1.494,0.133-2.361-1.243-3.095
		c-0.854-0.454-1.805-0.774-2.562-1.351c-1.166-0.886-2.355-0.504-3.558-0.322c-0.925,0.139-1.604,1.329-1.457,2.304
		c0.142,0.922,0.154,1.84-0.198,2.751C11.419,7.403,11.649,7.981,12.27,8.5c0.599,0.502,1.124,0.829,1.97,0.274
		c-0.473,0.579,0.502,1.306-0.423,1.792c-1.075,0.564-1.462-0.391-1.784-0.921c-0.613-1.013-2.188-0.708-2.518-2.019
		c-0.046-0.18-0.288,0.044-0.446,0.143C7.961,8.456,6.993,8.097,6.205,7.229C5.973,6.972,5.772,6.768,5.516,6.914
		c-0.804,0.454-1.081-0.415-1.85-0.681c0,0.322,0.005,0.502,0,0.681C3.597,9.824,3.6,9.852,0.813,10.031
		c-0.661,0.042-0.829,0.257-0.812,0.871C0.035,12.228-0.004,13.556,0.014,14.881z"/>
</g>
<g>
</g>
<g>
</g>
<g>
</g>
<g>
</g>
<g>
</g>
<g>
</g>
<g>
</g>
<g>
</g>
<g>
</g>
<g>
</g>
<g>
</g>
<g>
</g>
<g>
</g>
<g>
</g>
<g>
</g>
</svg>
