<?xml version="1.0" encoding="iso-8859-1"?>
<!-- Generator: Adobe Illustrator 16.0.0, SVG Export Plug-In . SVG Version: 6.00 Build 0)  -->
<!DOCTYPE svg PUBLIC "-//W3C//DTD SVG 1.1//EN" "http://www.w3.org/Graphics/SVG/1.1/DTD/svg11.dtd">
<svg version="1.1" id="Capa_1" xmlns="http://www.w3.org/2000/svg" xmlns:xlink="http://www.w3.org/1999/xlink" x="0px" y="0px"
	 width="21.193px" height="21.193px" viewBox="0 0 21.193 21.193" style="enable-background:new 0 0 21.193 21.193;"
	 xml:space="preserve">
<g>
	<path d="M21.052,6.171c0.146-1.99-0.295-2.194-2.319-2.752c-1.42-0.394-2.646-1.466-4.264-1.199
		c-0.101,0.017-0.298-0.11-0.331-0.21c-0.519-1.581-1.737-0.638-2.553-0.569c-0.76,0.064-1.794,0.328-1.831,1.529
		c-0.012,0.332-0.026,0.697-0.48,0.8C7.444,4.186,6.52,5.687,5.438,6.996C4.86,7.694,4.278,7.952,3.277,7.731
		C2.237,7.5,1.144,7.147,0.045,7.338c-0.181,0.586,0.226,0.915,0.504,1.197c1.236,1.259,1.275,3.296,2.855,4.321
		c1.482,0.96,3.194,1.646,3.387,3.856c0.06,0.674,0.769,1.403,1.787,1.458c0.716,0.038,1.561,0.017,1.842,1.04
		c0.063,0.226,0.676,0.452,1.011,0.422c0.767-0.068,1.438,0.275,2.152,0.352c1.803,0.19,3.46,0.347,4.833-1.5
		c1.168-1.572,1.345-3.576,2.661-5.013c0.289-0.316-0.031-0.664-0.209-0.929c-0.489-0.727-0.543-1.966-0.322-2.27
		C21.521,8.938,20.954,7.504,21.052,6.171z"/>
</g>
<g>
</g>
<g>
</g>
<g>
</g>
<g>
</g>
<g>
</g>
<g>
</g>
<g>
</g>
<g>
</g>
<g>
</g>
<g>
</g>
<g>
</g>
<g>
</g>
<g>
</g>
<g>
</g>
<g>
</g>
</svg>
