<?xml version="1.0" encoding="iso-8859-1"?>
<!-- Generator: Adobe Illustrator 19.0.0, SVG Export Plug-In . SVG Version: 6.00 Build 0)  -->
<svg xmlns="http://www.w3.org/2000/svg" xmlns:xlink="http://www.w3.org/1999/xlink" version="1.1" id="Capa_1" x="0px" y="0px" viewBox="0 0 512 512" style="enable-background:new 0 0 512 512;" xml:space="preserve">
<g>
	<g>
		<path d="M286.138,218.231L351.94,95.843l-12.758-7.234C313.931,74.292,285.167,66.724,256,66.724s-57.932,7.568-83.182,21.885    l-12.758,7.234l65.729,122.256L87.05,221.882l0.081,14.678c0.166,29.635,8.125,58.752,23.017,84.205    c14.447,24.692,35.084,45.471,59.68,60.092l12.631,7.508l73.461-117.976l72.924,118.309l12.665-7.45    c24.668-14.511,45.403-35.204,59.963-59.842c15.001-25.384,23.088-54.458,23.385-84.079l0.147-14.676L286.138,218.231z     M172.924,346.922c-31.039-23.069-50.766-57.479-54.957-95.872l88.522-2.414c2.288,8.773,6.86,16.73,13.246,23.109    L172.924,346.922z M200.744,108.164c17.348-7.515,36.192-11.44,55.255-11.44s37.907,3.925,55.255,11.44l-41.945,78.018    c-4.308-1.159-8.776-1.753-13.31-1.753c-4.533,0-9.002,0.594-13.31,1.753L200.744,108.164z M265.397,254.576l-9.449,4.696    l-9.432-4.741c-7.211-3.625-11.69-10.878-11.69-18.928c0-0.375,0.017-0.815,0.053-1.383l0.666-10.449l8.771-5.825    c3.465-2.301,7.505-3.517,11.683-3.517c4.177,0,8.217,1.216,11.683,3.518l8.825,5.86l0.62,10.506    c0.025,0.427,0.045,0.856,0.045,1.29C277.173,243.696,272.661,250.966,265.397,254.576z M338.568,347.299l-46.466-75.385    c6.418-6.35,11.026-14.288,13.352-23.053l88.504,2.816C389.595,290.05,369.713,324.37,338.568,347.299z"/>
	</g>
</g>
<g>
	<g>
		<path d="M487.754,425V0H24.246v425H0v87h512v-87H487.754z M54.246,30h403.508v395H54.246V30z M482,482H30v-27h452V482z"/>
	</g>
</g>
<g>
</g>
<g>
</g>
<g>
</g>
<g>
</g>
<g>
</g>
<g>
</g>
<g>
</g>
<g>
</g>
<g>
</g>
<g>
</g>
<g>
</g>
<g>
</g>
<g>
</g>
<g>
</g>
<g>
</g>
</svg>
