<?xml version="1.0" encoding="iso-8859-1"?>
<!-- Generator: Adobe Illustrator 19.0.0, SVG Export Plug-In . SVG Version: 6.00 Build 0)  -->
<svg xmlns="http://www.w3.org/2000/svg" xmlns:xlink="http://www.w3.org/1999/xlink" version="1.1" id="Capa_1" x="0px" y="0px" viewBox="0 0 512 512" style="enable-background:new 0 0 512 512;" xml:space="preserve">
<g>
	<g>
		<circle cx="255.998" cy="255.998" r="19.083"/>
	</g>
</g>
<g>
	<g>
		<path d="M511.991,251.158c-0.393-20.735-14.943-50.065-82.038-72.039c-6.897-2.258-14.122-4.351-21.622-6.28    c2.432-7.352,4.581-14.56,6.411-21.583c17.802-68.321,1-96.422-16.229-107.966c-17.231-11.545-49.611-16.393-106.025,26.058    c-12.021,9.045-24.255,19.625-36.488,31.483c-12.234-11.858-24.469-22.437-36.488-31.483    c-56.414-42.45-88.793-37.601-106.025-26.058c-17.23,11.544-34.03,39.645-16.229,107.966c2.201,8.447,4.86,17.161,7.928,26.077    c-9.067,2.584-17.735,5.391-25.922,8.419c-66.216,24.496-79.649,54.355-79.256,75.09c0.393,20.735,14.943,50.065,82.038,72.039    c6.899,2.259,14.117,4.357,21.619,6.287c-2.431,7.35-4.579,14.555-6.408,21.576c-17.802,68.321-1,96.422,16.229,107.966    c6.775,4.54,15.893,8.043,27.894,8.043c18.518,0,43.901-8.344,78.13-34.101c12.021-9.045,24.255-19.625,36.488-31.483    c12.234,11.858,24.468,22.437,36.488,31.483c34.234,25.76,59.613,34.101,78.13,34.101c11.999,0,21.119-3.505,27.894-8.043    c17.23-11.544,34.03-39.645,16.229-107.966c-2.201-8.447-4.86-17.161-7.928-26.077c9.067-2.584,17.735-5.391,25.923-8.419    C498.951,301.752,512.384,271.893,511.991,251.158z M310.53,93.323c24.099-18.133,45.704-28.031,60.091-28.031    c4.477,0,8.255,0.959,11.191,2.925c14.118,9.458,14.874,45.965-2.857,98.177c-22.383-4.134-46.567-6.969-71.827-8.413    c-9.906-12.6-20.024-24.529-30.228-35.644C288.204,111.389,299.477,101.64,310.53,93.323z M158.078,286.686    c5.001,8.163,10.221,16.318,15.655,24.431c2.5,3.732,5.028,7.421,7.575,11.075c-13.231-1.297-25.711-2.986-37.389-5    C148.065,307.405,152.777,297.218,158.078,286.686z M145.42,198.319c10.66-2.165,21.991-4.081,33.943-5.701    c-1.888,2.735-3.767,5.487-5.628,8.264c-5.436,8.113-10.656,16.268-15.655,24.432C153.41,216.037,149.19,207.023,145.42,198.319z     M174.685,256c7.211-12.467,15.186-25.297,23.977-38.417c6.692-9.987,13.561-19.679,20.554-29.022    c11.396-0.797,23.222-1.335,35.478-1.567h0.001c12.828-0.243,25.205-0.138,37.113,0.272c7.33,9.743,14.527,19.866,21.53,30.317    c8.79,13.12,16.765,25.949,23.977,38.417c-7.211,12.468-15.186,25.297-23.977,38.417c-6.692,9.987-13.561,19.679-20.554,29.022    c-11.397,0.797-23.223,1.335-35.479,1.567c-12.828,0.245-25.204,0.14-37.111-0.269c-7.33-9.743-14.529-19.868-21.532-30.32    C189.871,281.296,181.896,268.467,174.685,256z M338.266,311.118c5.436-8.113,10.656-16.268,15.655-24.432    c4.67,9.277,8.889,18.292,12.66,26.995c-10.66,2.165-21.991,4.081-33.943,5.701C334.526,316.647,336.405,313.895,338.266,311.118z     M353.92,225.314c-4.999-8.163-10.218-16.318-15.654-24.431c-2.499-3.73-5.025-7.418-7.572-11.07    c13.229,1.298,25.707,2.987,37.383,5C363.932,204.598,359.221,214.784,353.92,225.314z M256,143.918    c3.826,4.196,7.64,8.515,11.438,12.951c-4.419,0.002-8.856,0.041-13.311,0.125h0.001c-3.31,0.063-6.608,0.154-9.897,0.262    C248.138,152.685,252.063,148.236,256,143.918z M130.188,68.217c2.936-1.967,6.713-2.925,11.191-2.925    c14.387,0,35.994,9.899,60.091,28.031c11.053,8.317,22.326,18.066,33.63,29.014c-10.688,11.642-21.278,24.176-31.633,37.437    c-24.282,2.228-47.542,5.707-69.139,10.331C115.288,115.914,115.739,77.899,130.188,68.217z M30.007,260.275    c-0.329-17.391,30.59-39.513,85.928-54.907c6.95,16.514,15.143,33.496,24.433,50.631c-10.104,18.64-18.913,37.097-26.233,54.971    C60.631,297.647,30.329,277.264,30.007,260.275z M201.471,418.678c-31.596,23.774-58.909,33.396-71.281,25.106    c-14.118-9.458-14.874-45.963,2.856-98.175c22.385,4.134,46.57,6.973,71.832,8.416c9.905,12.598,20.021,24.525,30.224,35.639    C223.797,400.612,212.522,410.36,201.471,418.678z M256,368.082c-3.825-4.195-7.639-8.514-11.436-12.949    c4.416-0.002,8.857-0.043,13.308-0.127c3.31-0.063,6.608-0.154,9.897-0.262C263.863,359.316,259.937,363.764,256,368.082z     M381.811,443.783c-12.368,8.289-39.686-1.33-71.281-25.106c-11.053-8.317-22.326-18.066-33.63-29.014    c10.688-11.642,21.278-24.176,31.633-37.438c24.282-2.228,47.542-5.707,69.139-10.331    C396.712,396.086,396.261,434.102,381.811,443.783z M396.065,306.632c-6.95-16.515-15.143-33.497-24.432-50.631    c10.103-18.639,18.911-37.094,26.231-54.966c53.503,13.323,83.807,33.702,84.129,50.691    C482.322,269.116,451.403,291.238,396.065,306.632z"/>
	</g>
</g>
<g>
</g>
<g>
</g>
<g>
</g>
<g>
</g>
<g>
</g>
<g>
</g>
<g>
</g>
<g>
</g>
<g>
</g>
<g>
</g>
<g>
</g>
<g>
</g>
<g>
</g>
<g>
</g>
<g>
</g>
</svg>
