<?xml version="1.0" encoding="iso-8859-1"?>
<!-- Generator: Adobe Illustrator 19.0.0, SVG Export Plug-In . SVG Version: 6.00 Build 0)  -->
<svg xmlns="http://www.w3.org/2000/svg" xmlns:xlink="http://www.w3.org/1999/xlink" version="1.1" id="Capa_1" x="0px" y="0px" viewBox="0 0 512 512" style="enable-background:new 0 0 512 512;" xml:space="preserve">
<g>
	<g>
		<path d="M482.425,165.451c-1.903-8.617-8.156-28.868-26.541-42.304c-5.767-4.214-11.488-7.634-16.757-10.379    c0.57-2.049,0.878-4.202,0.878-6.424c0-13.732-11.606-24.865-25.923-24.865c-12.972,0-23.719,9.139-25.623,21.07h-53.301    l-66.331-26.242l-65.572,16.946l-33.684-1.559c-3.581-0.165-7.087-0.684-10.418-1.538c-20.827-5.344-73.617-14.708-113.827,13.702    C19.043,122.43,3.817,153.04,0.07,194.836L0,195.619l0.012,0.786c0.03,2.01,0.956,49.815,19.286,101.137    c15.115,42.323,21.28,71.633,22.496,77.809v60.341h118.56v-53.249l-28.15-12.064l5.876-38.26    c22.828,2.519,67.172,5.718,101.502-2.177l8.293,31.088v74.662H357.23V381.55l-29.626-14.468    c0.886-9.507,2.461-24.614,4.773-40.373c6.588-44.892,13.248-55.088,14.396-56.56c13.702-9.03,16.924-8.574,27.314-7.094    c13.493,1.922,50.481-8.246,72.885-14.987l42.006,0.84L512,208.107L482.425,165.451z M471.637,218.516l-28.822-0.576l-2.281,0.693    c-24.567,7.461-55.399,15.115-62.337,14.666c-15.491-2.198-26.529-2.448-48.537,12.155c-8.434,5.596-18.183,18.75-26.553,73.887    c-4.286,28.243-6.244,54.51-6.326,55.614l-0.745,10.137l31.157,15.216v5.346h-49.279v-48.563l-17.641-66.126l-15.67,6.165    c-32.25,12.689-95.265,6.746-116.82,3.386l-14.88-2.329l-13.922,90.632l31.336,13.43v3.405H71.831v-33.046l-0.231-1.305    c-0.24-1.352-6.093-33.683-24.014-83.864c-15.439-43.23-17.326-84.843-17.519-90.772c3.037-32.169,14-55.139,32.595-68.275    c30.809-21.77,75.935-12.499,89.029-9.138c5.317,1.364,10.866,2.188,16.496,2.448l38.205,1.768l60.484-15.63l62.559,24.749h79.429    c4.157,1.255,16.567,5.508,29.299,14.812c12.344,9.02,15.037,24.816,15.21,25.911l0.379,3.5l22.835,32.934L471.637,218.516z"/>
	</g>
</g>
<g>
</g>
<g>
</g>
<g>
</g>
<g>
</g>
<g>
</g>
<g>
</g>
<g>
</g>
<g>
</g>
<g>
</g>
<g>
</g>
<g>
</g>
<g>
</g>
<g>
</g>
<g>
</g>
<g>
</g>
</svg>
