<?xml version="1.0" encoding="iso-8859-1"?>
<!-- Generator: Adobe Illustrator 19.0.0, SVG Export Plug-In . SVG Version: 6.00 Build 0)  -->
<svg xmlns="http://www.w3.org/2000/svg" xmlns:xlink="http://www.w3.org/1999/xlink" version="1.1" id="Capa_1" x="0px" y="0px" viewBox="0 0 512 512" style="enable-background:new 0 0 512 512;" xml:space="preserve">
<g>
	<g>
		<path d="M434.347,44.945C425.2,18.59,400.029,0,371.216,0c-34.552,0-63.061,26.371-66.462,60.042    c-27.183,3.387-48.287,26.636-48.287,54.722c0,30.408,24.738,55.146,55.146,55.146h116.151c34.548,0,62.654-28.107,62.654-62.654    C490.418,74.931,465.813,48.245,434.347,44.945z M427.764,139.91H311.612c-13.865,0-25.146-11.28-25.146-25.146    c0-13.866,11.28-25.146,25.146-25.146c1.786,0,3.59,0.195,5.362,0.579l21.681,4.699l-3.715-21.871    c-0.349-2.053-0.525-4.147-0.525-6.225c0-20.292,16.509-36.801,36.801-36.801c18.369,0,34.048,13.701,36.472,31.869l1.935,14.511    l14.554-1.583c1.198-0.13,2.405-0.196,3.587-0.196c18.006,0,32.654,14.648,32.654,32.654    C460.418,125.262,445.77,139.91,427.764,139.91z"/>
	</g>
</g>
<g>
	<g>
		<path d="M216.418,208.685v-62.061H21.582V512h359.672V208.685H216.418z M186.418,482H51.582V176.624h134.836V482z M351.254,482    H216.418V238.685h134.836V482z"/>
	</g>
</g>
<g>
	<g>
		<rect x="79.81" y="202.25" width="29.75" height="29.75"/>
	</g>
</g>
<g>
	<g>
		<rect x="128.44" y="202.25" width="29.75" height="29.75"/>
	</g>
</g>
<g>
	<g>
		<rect x="79.81" y="259.75" width="29.75" height="29.75"/>
	</g>
</g>
<g>
	<g>
		<rect x="128.44" y="259.75" width="29.75" height="29.75"/>
	</g>
</g>
<g>
	<g>
		<rect x="79.81" y="317.25" width="29.75" height="29.75"/>
	</g>
</g>
<g>
	<g>
		<rect x="128.44" y="317.25" width="29.75" height="29.75"/>
	</g>
</g>
<g>
	<g>
		<rect x="79.81" y="374.75" width="29.75" height="29.75"/>
	</g>
</g>
<g>
	<g>
		<rect x="128.44" y="374.75" width="29.75" height="29.75"/>
	</g>
</g>
<g>
	<g>
		<rect x="244.65" y="259.75" width="29.75" height="29.75"/>
	</g>
</g>
<g>
	<g>
		<rect x="293.27" y="259.75" width="29.75" height="29.75"/>
	</g>
</g>
<g>
	<g>
		<rect x="244.65" y="317.25" width="29.75" height="29.75"/>
	</g>
</g>
<g>
	<g>
		<rect x="293.27" y="317.25" width="29.75" height="29.75"/>
	</g>
</g>
<g>
	<g>
		<rect x="244.65" y="374.75" width="29.75" height="29.75"/>
	</g>
</g>
<g>
	<g>
		<rect x="293.27" y="374.75" width="29.75" height="29.75"/>
	</g>
</g>
<g>
</g>
<g>
</g>
<g>
</g>
<g>
</g>
<g>
</g>
<g>
</g>
<g>
</g>
<g>
</g>
<g>
</g>
<g>
</g>
<g>
</g>
<g>
</g>
<g>
</g>
<g>
</g>
<g>
</g>
</svg>
