<?xml version="1.0" encoding="iso-8859-1"?>
<!-- Generator: Adobe Illustrator 19.0.0, SVG Export Plug-In . SVG Version: 6.00 Build 0)  -->
<svg xmlns="http://www.w3.org/2000/svg" xmlns:xlink="http://www.w3.org/1999/xlink" version="1.1" id="Capa_1" x="0px" y="0px" viewBox="0 0 512 512" style="enable-background:new 0 0 512 512;" xml:space="preserve">
<g>
	<g>
		<path d="M382.996,52.074c-34.749-34.26-80.801-52.737-129.612-52.056c-46.963,0.665-91.299,19.412-124.841,52.787    c-33.545,33.377-52.51,77.619-53.402,124.576c-0.484,25.479,4.228,50.204,14.004,73.487c9.427,22.45,23.084,42.487,40.594,59.555    c20.489,19.972,35.093,44.719,42.352,71.656V512h167.82V382.108c7.202-27.1,21.581-51.639,41.692-71.046    c35.654-34.406,55.29-80.635,55.29-130.169C436.893,132.09,417.752,86.341,382.996,52.074z M309.91,482H202.09v-28.451h107.82V482    z M309.91,423.549H202.09v-28.452h107.82V423.549z M360.771,289.474c-21.727,20.966-37.875,46.926-47.139,75.623H198.346    c-9.329-28.561-25.657-54.703-47.666-76.157c-30.171-29.41-46.346-68.827-45.545-110.989    c1.528-80.433,68.224-146.796,148.674-147.936c40.737-0.55,79.139,14.844,108.125,43.422    c28.992,28.585,44.959,66.746,44.959,107.456C406.893,222.211,390.513,260.773,360.771,289.474z"/>
	</g>
</g>
<g>
	<g>
		<path d="M301.673,121.163c-16.81-25.199-33.364-45.499-34.061-46.351L256,60.61l-11.612,14.203    c-0.696,0.852-17.251,21.152-34.059,46.35c-24.031,36.028-35.714,62.523-35.714,81c0,39.75,28.654,72.914,66.386,79.976v31.648h30    v-31.648c37.732-7.062,66.386-40.226,66.386-79.976C337.387,183.686,325.704,157.191,301.673,121.163z M241,251.308    c-21.038-6.434-36.386-26.029-36.386-49.146c0-15.333,17.511-45.615,36.386-72.866V251.308z M271,251.308V129.296    c18.876,27.251,36.386,57.533,36.386,72.866C307.386,225.279,292.039,244.874,271,251.308z"/>
	</g>
</g>
<g>
</g>
<g>
</g>
<g>
</g>
<g>
</g>
<g>
</g>
<g>
</g>
<g>
</g>
<g>
</g>
<g>
</g>
<g>
</g>
<g>
</g>
<g>
</g>
<g>
</g>
<g>
</g>
<g>
</g>
</svg>
