<?xml version="1.0" encoding="iso-8859-1"?>
<!-- Generator: Adobe Illustrator 19.0.0, SVG Export Plug-In . SVG Version: 6.00 Build 0)  -->
<svg xmlns="http://www.w3.org/2000/svg" xmlns:xlink="http://www.w3.org/1999/xlink" version="1.1" id="Capa_1" x="0px" y="0px" viewBox="0 0 512.001 512.001" style="enable-background:new 0 0 512.001 512.001;" xml:space="preserve">
<g>
	<g>
		<path d="M481.85,425.435v34.797L378.923,357.365c3.56-3.386,7.17-6.784,10.935-10.326c29.536-27.791,60.077-56.527,79.822-92.632    c25.644-46.89,24.929-98.972-1.961-142.892c-33.355-54.481-79.872-66.211-113.02-66.459c-0.358-0.002-0.714-0.004-1.073-0.004    c-27.883,0-55.444,8.094-79.73,23.413l-18.219,11.413L237.499,68.49c-24.327-15.345-51.885-23.438-79.77-23.438    c-0.356,0-0.716,0.002-1.073,0.004c-20.267,0.152-45.531,4.599-69.728,20.481L21.352,0L0.129,21.235l63.724,63.688    c-7.091,7.471-13.892,16.261-20.216,26.593c-26.891,43.921-27.604,96.003-1.961,142.892c4.417,8.077,9.378,15.784,14.744,23.196    v2.127h1.556c18.364,24.815,41.227,46.332,63.52,67.308c5.187,4.88,10.086,9.488,14.955,14.166    c18.281,17.552,36.787,34.472,54.684,50.836c17.763,16.24,36.131,33.034,54.145,50.332l10.397,9.983l10.397-9.983    c18.012-17.295,36.376-34.086,54.135-50.322c12.113-11.075,24.506-22.412,36.919-34.021l104.008,103.948h-37.332v30.023h88.067    v-86.566H481.85z M73.759,249.71c-2.023-3.187-3.946-6.419-5.743-9.704c-20.342-37.198-19.895-78.317,1.226-112.813    c21.001-34.301,50.488-51.835,87.639-52.112c0.282-0.003,0.564-0.004,0.848-0.004c22.206,0,44.234,6.495,63.793,18.832    l34.157,21.397l34.196-21.422c19.521-12.313,41.546-18.807,63.754-18.807c0.281,0,0.565,0.001,0.848,0.004    c37.152,0.277,66.638,17.811,87.639,52.112c21.12,34.497,21.568,75.616,1.225,112.811c-4.68,8.557-10.18,16.765-16.251,24.703    h-76.49l-37.848-89.054l-47.995,106.351l-50.15-134.097L161.582,249.71H73.759z M354.107,339.55    c-18.018,17.3-36.389,34.097-54.156,50.343c-14.506,13.262-29.411,26.891-44.274,40.926    c-14.865-14.038-29.776-27.67-44.285-40.936c-17.764-16.241-36.132-33.035-54.148-50.333c-4.981-4.782-10.164-9.659-15.177-14.376    c-15.558-14.638-31.41-29.556-45.416-45.442h83.143l30.299-58.174l52.059,139.199l49.77-110.287l18.81,44.261h70.001    c-10.173,10.422-20.88,20.499-31.452,30.446C364.27,329.892,359.087,334.769,354.107,339.55z"/>
	</g>
</g>
<g>
</g>
<g>
</g>
<g>
</g>
<g>
</g>
<g>
</g>
<g>
</g>
<g>
</g>
<g>
</g>
<g>
</g>
<g>
</g>
<g>
</g>
<g>
</g>
<g>
</g>
<g>
</g>
<g>
</g>
</svg>
