<?xml version="1.0" encoding="iso-8859-1"?>
<!-- Generator: Adobe Illustrator 19.0.0, SVG Export Plug-In . SVG Version: 6.00 Build 0)  -->
<svg xmlns="http://www.w3.org/2000/svg" xmlns:xlink="http://www.w3.org/1999/xlink" version="1.1" id="Capa_1" x="0px" y="0px" viewBox="0 0 512 512" style="enable-background:new 0 0 512 512;" xml:space="preserve">
<g>
	<g>
		<path d="M363.244,176.159c-2.32-1.028-57.279-24.849-94.929-0.942c-29.731,18.879-37.114,60.18-38.934,77.969l-21.191,13.432    l16.061,25.34l21.129-13.392c9.753,3.432,27.57,8.585,46.641,8.585c13.745,0,28.145-2.68,40.634-10.609    c37.649-23.908,39.463-83.778,39.522-86.315l0.232-10.018L363.244,176.159z M316.573,251.214    c-9.935,6.309-23.576,6.861-36.227,5.188l28.169-17.854l-16.06-25.34l-28.134,17.832c3.87-12.135,10.164-24.203,20.076-30.497    c15.878-10.085,41.22-5.462,56.863-0.558C339.043,216.243,332.447,241.134,316.573,251.214z"/>
	</g>
</g>
<g>
	<g>
		<path d="M475.636,154.167c-18.698-26.632-49.287-42.531-81.826-42.531H272.05c-18.204,0-36.062,4.967-51.647,14.365    l-91.005,54.892L61.64,203.485C24.771,215.766,0,250.13,0,288.996v66.37h41.499c6.678,25.848,30.195,44.998,58.101,44.998    s51.423-19.15,58.101-44.998H354.59c6.678,25.848,30.195,44.998,58.1,44.998c27.906,0,51.423-19.15,58.101-44.998H512v-149.41    L475.636,154.167z M99.6,370.364c-16.542,0-30-13.458-30-30s13.458-30,30-30c16.542,0,30,13.458,30,30    S116.142,370.364,99.6,370.364z M412.69,370.364c-16.542,0-29.999-13.458-29.999-30s13.457-30,29.999-30s30,13.458,30,30    S429.232,370.364,412.69,370.364z M482,325.366h-11.208c-6.677-25.85-30.195-45.002-58.102-45.002s-51.424,19.152-58.101,45.002    H157.702c-6.677-25.85-30.195-45.002-58.102-45.002c-27.907,0-51.425,19.152-58.102,45.002H30v-36.37    c0-25.93,16.525-48.856,41.124-57.051l70.919-23.645l93.853-56.609c10.908-6.578,23.41-10.055,36.154-10.055h121.76    c22.775,0,44.185,11.129,57.274,29.771L482,215.436V325.366z"/>
	</g>
</g>
<g>
</g>
<g>
</g>
<g>
</g>
<g>
</g>
<g>
</g>
<g>
</g>
<g>
</g>
<g>
</g>
<g>
</g>
<g>
</g>
<g>
</g>
<g>
</g>
<g>
</g>
<g>
</g>
<g>
</g>
</svg>
