<?xml version="1.0" encoding="iso-8859-1"?>
<!-- Generator: Adobe Illustrator 19.0.0, SVG Export Plug-In . SVG Version: 6.00 Build 0)  -->
<svg xmlns="http://www.w3.org/2000/svg" xmlns:xlink="http://www.w3.org/1999/xlink" version="1.1" id="Capa_1" x="0px" y="0px" viewBox="0 0 512 512" style="enable-background:new 0 0 512 512;" xml:space="preserve">
<g>
	<g>
		<polygon points="172.568,138.27 180.765,123.003 154.283,108.784 122.311,168.329 147.953,168.329 127.956,200.873     153.567,216.609 201.701,138.27   "/>
	</g>
</g>
<g>
	<g>
		<path d="M382.591,126.314c-49.74,0-90.207,40.467-90.207,90.206v121.175c0,32.859-26.733,59.592-59.592,59.592    s-59.591-26.733-59.591-59.592v-71.867c47.957-3.482,85.913-43.61,85.913-92.441v-81.88h18.029V61.449h-44.124V0H202.96v61.449    h-89.578V0H83.324v61.449H39.2v30.059h18.029v81.88c0,48.831,37.956,88.959,85.914,92.441v71.867    c0,49.434,40.217,89.651,89.651,89.651c49.434,0,89.651-40.217,89.651-89.651V216.52c0-33.165,26.982-60.148,60.148-60.148    s60.148,26.982,60.148,60.148V512H472.8V216.52C472.798,166.781,432.332,126.314,382.591,126.314z M166.425,236.018h-16.506    c-34.536,0.001-62.632-28.095-62.632-62.631v-81.88h141.769v81.88C229.056,207.922,200.96,236.018,166.425,236.018z"/>
	</g>
</g>
<g>
</g>
<g>
</g>
<g>
</g>
<g>
</g>
<g>
</g>
<g>
</g>
<g>
</g>
<g>
</g>
<g>
</g>
<g>
</g>
<g>
</g>
<g>
</g>
<g>
</g>
<g>
</g>
<g>
</g>
</svg>
