<?xml version="1.0" encoding="iso-8859-1"?>
<!-- Generator: Adobe Illustrator 19.0.0, SVG Export Plug-In . SVG Version: 6.00 Build 0)  -->
<svg xmlns="http://www.w3.org/2000/svg" xmlns:xlink="http://www.w3.org/1999/xlink" version="1.1" id="Capa_1" x="0px" y="0px" viewBox="0 0 512 512" style="enable-background:new 0 0 512 512;" xml:space="preserve">
<g>
	<g>
		<path d="M358.294,41.945c-27.99-27.597-65.073-42.472-104.4-41.931C216.062,0.55,180.349,15.649,153.333,42.53    c-27.019,26.883-42.293,62.521-43.012,100.348c-0.774,40.706,14.845,78.764,43.978,107.162    c15.632,15.237,26.8,34.089,32.407,54.607v85.102h138.588v-85.084c5.561-20.635,16.547-39.318,31.877-54.111    c28.719-27.714,44.535-64.95,44.535-104.849C401.706,106.396,386.289,69.546,358.294,41.945z M295.294,359.75h-78.588v-42.092    h78.588V359.75z M336.339,228.967c-16.938,16.345-29.666,36.458-37.229,58.691h-86.247c-7.616-22.136-20.479-42.388-37.624-59.1    c-23.136-22.552-35.538-52.778-34.924-85.11c1.172-61.675,52.313-112.563,114.002-113.436    c31.29-0.436,60.688,11.383,82.914,33.297c22.232,21.919,34.475,51.182,34.475,82.397    C371.706,177.389,359.145,206.958,336.339,228.967z"/>
	</g>
</g>
<g>
	<g>
		<path d="M332.971,160.804v-30h-22.388c-1.366-4.501-3.272-8.768-5.646-12.724l16.096-16.096L299.82,80.771l-16.507,16.507    c-3.856-2.113-7.985-3.783-12.313-4.965v-23.48h-30v23.48c-4.329,1.182-8.458,2.852-12.314,4.965L212.18,80.771l-21.213,21.213    l16.096,16.096c-2.374,3.957-4.28,8.223-5.645,12.724H179.03v30h21.559c1.189,4.887,2.998,9.533,5.358,13.84l-14.98,14.98    l21.213,21.213l14.569-14.569c4.401,2.641,9.188,4.698,14.251,6.08v20.427h30v-20.427c5.063-1.382,9.85-3.439,14.251-6.08    l14.569,14.569l21.213-21.213l-14.98-14.98c2.359-4.307,4.169-8.953,5.358-13.84H332.971z M256,174.363    c-14.906,0-27.033-12.127-27.033-27.033s12.127-27.033,27.033-27.033s27.033,12.127,27.033,27.033    C283.033,162.236,270.906,174.363,256,174.363z"/>
	</g>
</g>
<g>
	<g>
		<rect x="241" y="412.68" width="30" height="99.32"/>
	</g>
</g>
<g>
	<g>
		<rect x="192.48" y="412.68" width="30" height="52.824"/>
	</g>
</g>
<g>
	<g>
		<rect x="192.48" y="488" width="30" height="24"/>
	</g>
</g>
<g>
	<g>
		<rect x="289.52" y="412.68" width="30" height="52.824"/>
	</g>
</g>
<g>
	<g>
		<rect x="289.52" y="488" width="30" height="24"/>
	</g>
</g>
<g>
</g>
<g>
</g>
<g>
</g>
<g>
</g>
<g>
</g>
<g>
</g>
<g>
</g>
<g>
</g>
<g>
</g>
<g>
</g>
<g>
</g>
<g>
</g>
<g>
</g>
<g>
</g>
<g>
</g>
</svg>
