<?xml version="1.0" encoding="iso-8859-1"?>
<!-- Generator: Adobe Illustrator 19.0.0, SVG Export Plug-In . SVG Version: 6.00 Build 0)  -->
<svg xmlns="http://www.w3.org/2000/svg" xmlns:xlink="http://www.w3.org/1999/xlink" version="1.1" id="Capa_1" x="0px" y="0px" viewBox="0 0 512 512" style="enable-background:new 0 0 512 512;" xml:space="preserve">
<g>
	<g>
		<path d="M378.046,320.867v-60.645L254.03,331.853h-40.768L194.698,146H91.946L73.383,331.853H28.959V512h454.082V260.222    L378.046,320.867z M119.099,176h48.446l2.664,26.667h-53.773L119.099,176z M113.439,232.667h59.766l9.907,99.187h-79.58    L113.439,232.667z M243.05,482H58.959V361.853H243.05V482z M273.05,482V355.512l74.995-43.317v26.001V482H273.05z M453.041,482    h-74.995V355.512l74.995-43.317V482z"/>
	</g>
</g>
<g>
	<g>
		<path d="M294.596,0c-30.921,0-56.727,22.325-62.15,51.701c-19.414,7.554-32.927,26.477-32.927,48.105    c0,28.456,23.151,51.607,51.607,51.607c18.542,0,35.124-9.685,44.273-25.021c34.48-0.432,62.396-28.614,62.396-63.194    C357.795,28.351,329.444,0,294.596,0z M294.596,96.397c-1.918,0-3.892-0.178-5.866-0.529l-13.043-2.32l-3.914,12.657    c-2.814,9.097-11.111,15.209-20.647,15.209c-11.915,0-21.607-9.693-21.607-21.607c0-10.83,8.084-20.037,18.804-21.419    l13.144-1.693l-0.061-13.254c-0.001-0.141-0.003-0.28-0.007-0.424C261.497,44.794,276.351,30,294.596,30    c18.306,0,33.198,14.893,33.198,33.198C327.794,81.504,312.901,96.397,294.596,96.397z"/>
	</g>
</g>
<g>
	<g>
		<rect x="293.05" y="365" width="35" height="30"/>
	</g>
</g>
<g>
	<g>
		<rect x="398.04" y="365" width="35" height="30"/>
	</g>
</g>
<g>
</g>
<g>
</g>
<g>
</g>
<g>
</g>
<g>
</g>
<g>
</g>
<g>
</g>
<g>
</g>
<g>
</g>
<g>
</g>
<g>
</g>
<g>
</g>
<g>
</g>
<g>
</g>
<g>
</g>
</svg>
