<?xml version="1.0" encoding="iso-8859-1"?>
<!-- Generator: Adobe Illustrator 19.0.0, SVG Export Plug-In . SVG Version: 6.00 Build 0)  -->
<svg xmlns="http://www.w3.org/2000/svg" xmlns:xlink="http://www.w3.org/1999/xlink" version="1.1" id="Capa_1" x="0px" y="0px" viewBox="0 0 512 512" style="enable-background:new 0 0 512 512;" xml:space="preserve">
<g>
	<g>
		<path d="M367.89,235v-59.75h98.175v-30h-98.177v-24.183h-41.85V101h20.417V90.5h38.666c21.918,0,39.75-17.832,39.75-39.75    c0-21.918-17.832-39.75-39.749-39.75h-38.666V0H213.122v11h-38.666c-21.918,0-39.75,17.832-39.75,39.75    c0,21.918,17.832,39.75,39.75,39.75h38.666V101h20.417v20.067h-44.5v24.183h-39.042c-57.297,0-103.911,46.614-103.911,103.911    v90.412h109.496v-66.845c0-4.262,3.467-7.728,7.729-7.728h25.729v37.997h178.85V265h98.177v-30H367.89z M346.456,41h38.666    c5.376,0,9.75,4.374,9.75,9.75s-4.374,9.75-9.75,9.75h-38.666V41z M213.121,60.5h-38.666c-5.376,0-9.75-4.374-9.75-9.75    s4.374-9.75,9.75-9.75h38.666V60.5z M189.038,235H163.31c-20.804,0-37.729,16.925-37.729,37.728v36.845H76.085v-60.412    c0-40.755,33.156-73.911,73.911-73.911h39.042V235z M243.122,30h73.334v41h-73.334V30z M296.039,101v20.067h-32.5V101H296.039z     M337.889,272.997L337.889,272.997h-118.85v-121.93h14.5h92.5h11.85V272.997z"/>
	</g>
</g>
<g>
	<g>
		<path d="M130.284,409.447c-9.787-14.509-19.453-26.198-19.86-26.688l-11.547-13.927L87.33,382.759    c-0.407,0.491-10.072,12.179-19.86,26.688c-19.305,28.615-21.537,42.018-21.537,49.609c0,29.193,23.751,52.944,52.944,52.944    c29.194,0,52.945-23.751,52.945-52.944C151.822,451.464,149.59,438.062,130.284,409.447z M98.877,482    c-12.651,0-22.944-10.293-22.944-22.944c0-0.867,0.457-9.146,16.277-32.64c2.26-3.355,4.531-6.568,6.667-9.501    c2.136,2.933,4.407,6.145,6.667,9.502c15.821,23.492,16.278,31.772,16.278,32.639C121.823,471.707,111.53,482,98.877,482z"/>
	</g>
</g>
<g>
</g>
<g>
</g>
<g>
</g>
<g>
</g>
<g>
</g>
<g>
</g>
<g>
</g>
<g>
</g>
<g>
</g>
<g>
</g>
<g>
</g>
<g>
</g>
<g>
</g>
<g>
</g>
<g>
</g>
</svg>
