<?xml version="1.0" encoding="iso-8859-1"?>
<!-- Generator: Adobe Illustrator 19.0.0, SVG Export Plug-In . SVG Version: 6.00 Build 0)  -->
<svg xmlns="http://www.w3.org/2000/svg" xmlns:xlink="http://www.w3.org/1999/xlink" version="1.1" id="Capa_1" x="0px" y="0px" viewBox="0 0 512 512" style="enable-background:new 0 0 512 512;" xml:space="preserve">
<g>
	<g>
		<path d="M482,292.014c0,18.306-14.894,33.2-33.2,33.2c-18.307,0-33.2-14.894-33.2-33.2h-20.55v-80.559l5.526,4.251l18.292-23.778    l-23.818-18.323V173.6l-57.956-44.58L256,66.636l-81.094,62.385l-57.956,44.58v0.005l-23.818,18.323l18.292,23.778l5.526-4.251    v80.559H96.4c0,18.306-14.893,33.2-33.2,33.2S30,310.32,30,292.014H0c0,34.849,28.352,63.2,63.2,63.2    c19.301,0,36.598-8.706,48.2-22.387c11.602,13.681,28.899,22.387,48.2,22.387c19.301,0,36.598-8.706,48.2-22.387    c11.602,13.681,28.899,22.387,48.2,22.387c19.301,0,36.598-8.706,48.2-22.387c11.602,13.681,28.899,22.387,48.2,22.387    s36.598-8.706,48.2-22.387c11.602,13.681,28.899,22.387,48.2,22.387c34.849,0,63.2-28.351,63.2-63.2H482z M276.1,318.415    c-5.584,4.262-12.55,6.8-20.1,6.8c-5.596-0.001-10.87-1.399-15.5-3.854v-76.074h35.6V318.415z M365.05,322.704    c-3.901,1.614-8.172,2.51-12.65,2.51c-18.306,0-33.2-14.894-33.2-33.2h-13.1v-76.728h-95.6v76.728h-17.7    c0,18.306-14.894,33.2-33.2,33.2c-4.478,0-8.749-0.896-12.65-2.51V188.376l42.956-33.045L256,104.491l66.094,50.84l42.956,33.046    V322.704z"/>
	</g>
</g>
<g>
	<g>
		<path d="M482,382.164c0,18.306-14.894,33.2-33.2,33.2c-18.307,0-33.2-14.894-33.2-33.2h-30c0,18.307-14.894,33.2-33.2,33.2    c-18.306,0-33.2-14.894-33.2-33.2h-30c0,18.307-14.894,33.2-33.2,33.2c-18.306,0-33.2-14.894-33.2-33.2h-30    c0,18.307-14.894,33.2-33.2,33.2c-18.307,0-33.2-14.894-33.2-33.2h-30c0,18.307-14.893,33.2-33.2,33.2S30,400.47,30,382.164H0    c0,34.849,28.352,63.2,63.2,63.2c19.301,0,36.598-8.707,48.2-22.387c11.602,13.681,28.899,22.387,48.2,22.387    c19.301,0,36.598-8.707,48.2-22.387c11.602,13.681,28.899,22.387,48.2,22.387c19.301,0,36.598-8.707,48.2-22.387    c11.602,13.681,28.899,22.387,48.2,22.387s36.598-8.707,48.2-22.387c11.602,13.681,28.899,22.387,48.2,22.387    c34.849,0,63.2-28.352,63.2-63.2H482z"/>
	</g>
</g>
<g>
</g>
<g>
</g>
<g>
</g>
<g>
</g>
<g>
</g>
<g>
</g>
<g>
</g>
<g>
</g>
<g>
</g>
<g>
</g>
<g>
</g>
<g>
</g>
<g>
</g>
<g>
</g>
<g>
</g>
</svg>
