<?xml version="1.0" encoding="iso-8859-1"?>
<!-- Generator: Adobe Illustrator 19.0.0, SVG Export Plug-In . SVG Version: 6.00 Build 0)  -->
<svg xmlns="http://www.w3.org/2000/svg" xmlns:xlink="http://www.w3.org/1999/xlink" version="1.1" id="Capa_1" x="0px" y="0px" viewBox="0 0 512 512" style="enable-background:new 0 0 512 512;" xml:space="preserve">
<g>
	<g>
		<path d="M411.218,358.578h37.4l-46.401-80.362c8.893-8.998,21.896-24.409,31.909-45.7c15.2-32.319,26.301-84.81-7.138-151.341    l-9.073-18.054l-16.814,16.33c-7.689-23.539-23.364-56.996-53.357-74.911l-7.6-4.54l-7.6,4.539    c-29.992,17.914-45.668,51.373-53.357,74.912l-16.928-16.44l-9.01,18.261c-35.589,72.141-24.229,124.427-8.432,155.586    c10.435,20.582,24.093,34.782,33.543,42.973l-45.47,78.746h37.411L228.3,431.32l-19.971-34.592h28.919l-89.222-154.537    L58.805,396.728h28.92l-44.52,77.11h89.999V512h29.643v-38.163h89.999l-8.972-15.54h82.059V512h29.643v-53.703h113.219    L411.218,358.578z M94.548,444.194l44.52-77.11h-28.92l37.879-65.608l37.879,65.608h-28.919l44.518,77.11H94.548z     M275.503,231.048c-1.466-2.4-2.893-4.925-4.246-7.595c-16.117-31.788-16.03-68.784,0.204-110.185l26.077,25.325l4.356-28.414    c2.261-14.749,13.335-54.264,38.27-74.825c30.033,24.571,38.15,74.308,38.231,74.825l4.356,28.415l26.07-25.32    c14.3,37.443,13.981,72.854-1,105.506c-1.501,3.271-3.099,6.358-4.743,9.297c1.687-15.888-0.656-35.171-11.679-57.104    l-9.073-18.053l-7.959,7.729c-5.175-11.632-13.593-24.555-27.036-32.584l-7.6-4.539l-7.6,4.539    c-13.441,8.028-21.86,20.952-27.035,32.583l-8.072-7.839l-9.01,18.263C276.263,194.891,273.745,214.959,275.503,231.048z     M368.859,242.52c-3.865,8.635-9.125,14.904-12.509,18.376h-34.01c-3.355-2.897-8.862-8.5-12.809-16.795    c-5.612-11.794-6.434-25.263-2.481-40.218l15.349,14.949l4.356-28.415c0.951-5.942,4.889-20.4,12.975-30.185    c8.086,9.783,12.022,24.233,12.967,30.138l4.355,28.414l15.164-14.726C375.343,217.643,374.228,230.521,368.859,242.52z     M264.069,428.654l57.577-99.72h-37.409l22.171-38.395h68.695l22.169,38.395h-37.4l57.577,99.72H264.069z"/>
	</g>
</g>
<g>
</g>
<g>
</g>
<g>
</g>
<g>
</g>
<g>
</g>
<g>
</g>
<g>
</g>
<g>
</g>
<g>
</g>
<g>
</g>
<g>
</g>
<g>
</g>
<g>
</g>
<g>
</g>
<g>
</g>
</svg>
