<?xml version="1.0" encoding="iso-8859-1"?>
<!-- Generator: Adobe Illustrator 19.0.0, SVG Export Plug-In . SVG Version: 6.00 Build 0)  -->
<svg xmlns="http://www.w3.org/2000/svg" xmlns:xlink="http://www.w3.org/1999/xlink" version="1.1" id="Capa_1" x="0px" y="0px" viewBox="0 0 512 512" style="enable-background:new 0 0 512 512;" xml:space="preserve">
<g>
	<g>
		<path d="M130.572,199.748h160.361V57.201H130.572V199.748z M160.572,87.201h100.361v82.547H160.572V87.201z"/>
	</g>
</g>
<g>
	<g>
		<path d="M442.948,59.563c0.019-3.157-0.402-27.06-16.993-43.822c-9.801-9.902-23.333-15.136-39.135-15.136v30    c11.088,0,17.945,3.887,22.233,12.603c3.73,7.581,3.889,15.787,3.895,16.231v10.779h-22.267V181.25h23.751v143.138    c0,18.794-15.29,34.084-34.085,34.084c-18.794,0-34.084-15.29-34.084-34.084v-67.34V0H75.241v423.563H43.818V512h333.869v-88.438    h-31.424v-44.946c9.881,6.232,21.564,9.855,34.085,9.855c35.336,0,64.084-28.748,64.084-64.084V181.25h23.75V70.218h-25.234    V59.563z M105.241,30h211.022v199H105.241V30z M105.241,259h211.023v65.388v99.175H105.241V259z M346.264,453.562h1.423v0.001V482    H73.818v-28.438h1.423H346.264z M438.182,151.25h-17.501v-51.032h17.501V151.25z"/>
	</g>
</g>
<g>
</g>
<g>
</g>
<g>
</g>
<g>
</g>
<g>
</g>
<g>
</g>
<g>
</g>
<g>
</g>
<g>
</g>
<g>
</g>
<g>
</g>
<g>
</g>
<g>
</g>
<g>
</g>
<g>
</g>
</svg>
