<?xml version="1.0" encoding="iso-8859-1"?>
<!-- Generator: Adobe Illustrator 19.0.0, SVG Export Plug-In . SVG Version: 6.00 Build 0)  -->
<svg xmlns="http://www.w3.org/2000/svg" xmlns:xlink="http://www.w3.org/1999/xlink" version="1.1" id="Capa_1" x="0px" y="0px" viewBox="0 0 512 512" style="enable-background:new 0 0 512 512;" xml:space="preserve">
<g>
	<g>
		<path d="M377.745,250.891c4.196-7.788,8.279-16.931,11.426-27.233c9.75-31.926,12.241-81.226-31.267-134.787l-9.947-12.247    l-18.766,17.084C320.514,66.861,301.544,25.5,263.286,4.08L256,0l-7.286,4.08c-38.258,21.42-57.229,62.781-65.904,89.626    l-18.765-17.083l-9.948,12.247c-43.508,53.561-41.018,102.861-31.268,134.787c3.146,10.302,7.23,19.445,11.426,27.233    c-23.87,28.426-37.195,64.5-37.195,102.169C97.06,440.7,168.36,512,256,512s158.94-71.3,158.94-158.94    C414.94,315.391,401.615,279.317,377.745,250.891z M384.676,342.444c-5.848,0.592-13.307-1.185-22.541-9.166    c-10.116-8.743-16.546-20.094-16.589-20.171l-1.249-2.255l-1.932-1.705c-7.472-6.595-22.028-16.923-35.548-12.012    c-3.403,1.237-11.34,5.319-13.653,16.929c-3.682-5.181-5.523-9.98-5.078-13.328c0.329-2.497,3.82-5.647,7.516-8.98    c2.114-1.907,4.631-4.178,7.032-6.882H352.6l4.387-4.482c0.195-0.2,1.375-1.42,3.203-3.565    C374.177,295.935,382.714,318.607,384.676,342.444z M217.373,255.049c-2.369-3.433-5.418-8.669-7.39-15.125    c-3.489-11.424-2.441-22.882,3.104-34.211l20.276,18.514l4.435-27.123c0.046-0.268,4.145-23.405,18.202-36.871    c14.057,13.465,18.155,36.597,18.193,36.823l4.435,27.123l20.283-18.465c5.387,11.006,6.531,22.132,3.393,33.227    c-1.952,6.902-5.184,12.491-7.684,16.108H217.373z M167.822,120.398l33.462,30.435l4.506-27.003    c0.107-0.641,10.59-60.891,50.209-89.104c39.618,28.214,50.101,88.462,50.204,89.081l4.435,27.122l33.525-30.52    c43.575,65.322,7.969,119.055-4.608,134.637h-11.273c0.812-2.034,1.575-4.171,2.26-6.412c5.464-17.893,6.92-45.449-17.177-75.114    l-9.947-12.247l-7.293,6.638c-5.9-13.638-16.023-29.739-32.84-39.155l-7.286-4.08l-7.286,4.08    c-16.818,9.416-26.94,25.517-32.841,39.156l-7.292-6.639l-9.948,12.247c-24.096,29.664-22.64,57.22-17.176,75.113    c0.684,2.241,1.447,4.378,2.26,6.412H172.52c-5.427-6.838-15.365-21.111-21.165-40.102    C141.599,182.997,147.143,151.254,167.822,120.398z M255.999,482.175c-65.37-0.002-119.543-48.839-127.967-111.943l5.609,0.743    c0.898,2.744,1.992,5.805,3.269,8.862c7.418,17.757,17.395,26.076,29.646,24.71c28.026-3.113,46.484-19.527,49.673-44.035    c0.994,0.325,2.214,0.797,3.652,1.475c1.948,0.918,3.438,2.635,4.086,4.713c1.301,4.166,2.239,9.807-0.687,13.016    c-12.244,13.434-17.774,33.217-13.448,48.108c2.857,9.835,9.869,16.941,19.236,19.496c8.1,2.209,19.802,7.096,28.355,14.184    c8.44,6.995,11.322,13.953,11.878,19.989C264.927,481.943,260.49,482.175,255.999,482.175z M298.461,474.991    c-2.246-13.75-9.705-26.261-22.003-36.454c-14.247-11.808-31.423-17.642-38.151-19.603c-0.689-3.455,0.908-12.422,7.019-19.126    c9.717-10.662,12.243-25.578,7.113-42.002c-3.13-10.024-10.364-18.336-19.847-22.803c-12.851-6.052-23.799-6.622-32.537-1.69    c-5.32,3.003-11.949,9.367-13.318,22.626c-0.436,4.224-1.547,14.979-19.393,18.358c-2.496-4.106-5.783-12.741-7.551-20.224    l-2.349-10.034l-29.894-3.957c2.316-22.971,10.737-44.779,24.262-63.253c1.827,2.145,3.007,3.365,3.203,3.565l4.387,4.482h103.047    c-1.884,3.444-3.328,7.375-3.932,11.946c-1.552,11.688,2.541,24.333,11.841,36.572c7.056,9.277,18.918,13.473,30.219,10.693    c8.481-2.087,15.25-7.558,18.979-14.987c0.494,0.354,0.986,0.719,1.46,1.087c3.046,4.911,10.382,15.759,20.931,25.062    c12.884,11.36,26.783,17.13,40.644,17.129c0.361,0,0.721-0.025,1.081-0.033C376.482,420.143,342.994,459.439,298.461,474.991z"/>
	</g>
</g>
<g>
</g>
<g>
</g>
<g>
</g>
<g>
</g>
<g>
</g>
<g>
</g>
<g>
</g>
<g>
</g>
<g>
</g>
<g>
</g>
<g>
</g>
<g>
</g>
<g>
</g>
<g>
</g>
<g>
</g>
</svg>
