<?xml version="1.0" encoding="iso-8859-1"?>
<!-- Generator: Adobe Illustrator 19.0.0, SVG Export Plug-In . SVG Version: 6.00 Build 0)  -->
<svg xmlns="http://www.w3.org/2000/svg" xmlns:xlink="http://www.w3.org/1999/xlink" version="1.1" id="Capa_1" x="0px" y="0px" viewBox="0 0 512 512" style="enable-background:new 0 0 512 512;" xml:space="preserve">
<g>
	<g>
		<path d="M281.204,151.81L113.36,288.342l-6.867,62.197l-50.812,4.915L0,491.025h512L281.204,151.81z M43.013,462.191    l32.739-79.712l56.83-5.497l8.139-73.731l119.247-97.001l-20.014,115.698L267,351.118v53.292l38.29,57.782H43.013z M297,395.373    V339.35l-24.954-26.913l16.941-97.933l168.522,247.689h-116.23L297,395.373z"/>
	</g>
</g>
<g>
	<g>
		<path d="M219.513,59.152c-1.509-22.728-18.918-36.664-20.898-38.178l-18.223,23.831c0.085,0.065,8.574,7.104,9.186,16.333    c0.432,6.51-3.162,13.625-10.682,21.144c-13.882,13.882-20.412,28.796-19.407,44.326c1.474,22.794,18.882,36.826,20.862,38.35    l18.305-23.769c-0.086-0.066-8.626-7.196-9.229-16.516c-0.423-6.54,3.171-13.665,10.683-21.177    C214.015,89.592,220.543,74.673,219.513,59.152z"/>
	</g>
</g>
<g>
	<g>
		<path d="M155.732,59.152c-1.509-22.728-18.918-36.664-20.898-38.178L116.61,44.806c0.085,0.065,8.574,7.104,9.187,16.333    c0.432,6.51-3.162,13.625-10.682,21.144c-13.882,13.882-20.412,28.796-19.407,44.326c1.474,22.793,18.882,36.825,20.861,38.349    l18.305-23.769c-0.086-0.066-8.626-7.196-9.228-16.516c-0.423-6.54,3.171-13.665,10.683-21.177    C150.234,89.592,156.762,74.673,155.732,59.152z"/>
	</g>
</g>
<g>
	<g>
		<path d="M91.95,59.152C90.44,36.426,73.031,22.49,71.051,20.975L52.828,44.806c0.085,0.065,8.574,7.104,9.187,16.333    c0.432,6.51-3.162,13.625-10.682,21.144c-13.882,13.883-20.412,28.797-19.407,44.327c1.473,22.792,18.882,36.824,20.861,38.348    l18.305-23.769c-0.086-0.066-8.626-7.196-9.228-16.516c-0.423-6.54,3.171-13.665,10.683-21.177    C86.452,89.592,92.98,74.673,91.95,59.152z"/>
	</g>
</g>
<g>
</g>
<g>
</g>
<g>
</g>
<g>
</g>
<g>
</g>
<g>
</g>
<g>
</g>
<g>
</g>
<g>
</g>
<g>
</g>
<g>
</g>
<g>
</g>
<g>
</g>
<g>
</g>
<g>
</g>
</svg>
