<?xml version="1.0" encoding="iso-8859-1"?>
<!-- Generator: Adobe Illustrator 19.0.0, SVG Export Plug-In . SVG Version: 6.00 Build 0)  -->
<svg xmlns="http://www.w3.org/2000/svg" xmlns:xlink="http://www.w3.org/1999/xlink" version="1.1" id="Capa_1" x="0px" y="0px" viewBox="0 0 512 512" style="enable-background:new 0 0 512 512;" xml:space="preserve">
<g>
	<g>
		<path d="M344.251,257.241c50.945,0,92.391-41.446,92.391-92.391c0-49.726-39.489-90.402-88.753-92.32    C336.145,30.362,297.239,0,252.384,0c-53.912,0-97.909,43.257-99.102,96.887c-43.175,1.205-77.924,36.701-77.924,80.161    c0,44.219,35.975,80.193,80.194,80.193h34.788l-38.707,99.821h59.428L169.839,512L371.26,279.247h-72.914l13.808-22.006H344.251z     M305.753,309.189l-73.598,85.046l17.856-67.114h-54.654l27.097-69.88h54.354l-32.596,51.948H305.753z M155.553,227.298    L155.553,227.298c-27.709,0.001-50.252-22.541-50.252-50.25c0-27.708,22.543-50.251,50.252-50.251    c3.569,0,7.171,0.388,10.703,1.153l21.637,4.689l-3.707-21.827c-0.654-3.855-0.986-7.787-0.986-11.687    c0-38.149,31.036-69.185,69.186-69.185c34.531,0,64.009,25.765,68.568,59.931l1.932,14.48l14.522-1.576    c2.29-0.249,4.594-0.375,6.845-0.375c34.435,0,62.45,28.015,62.45,62.449s-28.015,62.449-62.45,62.449H155.553z"/>
	</g>
</g>
<g>
</g>
<g>
</g>
<g>
</g>
<g>
</g>
<g>
</g>
<g>
</g>
<g>
</g>
<g>
</g>
<g>
</g>
<g>
</g>
<g>
</g>
<g>
</g>
<g>
</g>
<g>
</g>
<g>
</g>
</svg>
