<?xml version="1.0" encoding="iso-8859-1"?>
<!-- Generator: Adobe Illustrator 19.0.0, SVG Export Plug-In . SVG Version: 6.00 Build 0)  -->
<svg xmlns="http://www.w3.org/2000/svg" xmlns:xlink="http://www.w3.org/1999/xlink" version="1.1" id="Capa_1" x="0px" y="0px" viewBox="0 0 512.001 512.001" style="enable-background:new 0 0 512.001 512.001;" xml:space="preserve">
<g>
	<g>
		<path d="M419.92,338.854c-13.658-20.245-27.158-37.493-33.325-45.179v-0.257c16.179-4.752,28.03-19.723,28.03-37.419    c0-17.696-11.851-32.667-28.03-37.419V76.419c16.179-4.752,28.03-19.723,28.03-37.419c0-21.505-17.495-39-39-39h-283    c-21.505,0-39,17.495-39,39c0,17.696,11.851,32.667,28.03,37.419v142.163c-16.179,4.752-28.03,19.723-28.03,37.419    c0,17.696,11.851,32.667,28.03,37.419v142.148c-6.203,1.812-11.898,5.159-16.619,9.868c-7.358,7.376-11.411,17.165-11.411,27.565    c0,21.505,17.495,39,39,39h283c2.636,0,5.262-0.283,7.827-0.814c42.262-5.8,74.924-42.138,74.924-85.968    C458.376,405.46,445.797,377.21,419.92,338.854z M92.626,30h283c4.962,0,9,4.038,9,9s-4.038,9-9,9h-283c-4.962,0-9-4.038-9-9    S87.663,30,92.626,30z M356.596,78v139h-244.94V78H356.596z M92.626,247h283c4.962,0,9,4.038,9,9c0,4.962-4.038,9-9,9h-283    c-4.962,0-9-4.038-9-9C83.626,251.038,87.663,247,92.626,247z M285.256,434H111.655V295h243.881    c-6.562,8.228-19.341,24.696-32.266,43.854c-25.877,38.356-38.456,66.606-38.456,86.365    C284.815,428.183,284.965,431.112,285.256,434z M92.626,482c-4.963,0-9-4.038-9-9c0-2.399,0.941-4.664,2.624-6.351    c1.712-1.708,3.977-2.649,6.376-2.649h201.352c3.264,6.506,7.318,12.551,12.042,18H92.626z M379.874,481.39h-0.619l-0.751,0.175    c-2.266,0.276-4.569,0.435-6.909,0.435c-31.309,0-56.781-25.472-56.781-56.781c0-21.503,31.246-69.067,56.784-102.178    c25.538,33.096,56.778,80.646,56.778,102.178C428.376,453.716,407.272,477.37,379.874,481.39z"/>
	</g>
</g>
<g>
</g>
<g>
</g>
<g>
</g>
<g>
</g>
<g>
</g>
<g>
</g>
<g>
</g>
<g>
</g>
<g>
</g>
<g>
</g>
<g>
</g>
<g>
</g>
<g>
</g>
<g>
</g>
<g>
</g>
</svg>
