<?xml version="1.0" encoding="iso-8859-1"?>
<!-- Generator: Adobe Illustrator 19.0.0, SVG Export Plug-In . SVG Version: 6.00 Build 0)  -->
<svg xmlns="http://www.w3.org/2000/svg" xmlns:xlink="http://www.w3.org/1999/xlink" version="1.1" id="Capa_1" x="0px" y="0px" viewBox="0 0 512 512" style="enable-background:new 0 0 512 512;" xml:space="preserve">
<g>
	<g>
		<path d="M30,256.449l-30,0.029c0.01,9.912,0.594,19.902,1.736,29.692l29.798-3.476C30.524,274.043,30.009,265.213,30,256.449z"/>
	</g>
</g>
<g>
	<g>
		<path d="M6.775,197.459c-2.259,9.617-3.976,19.484-5.103,29.326l29.806,3.412c0.995-8.686,2.509-17.393,4.502-25.879    L6.775,197.459z"/>
	</g>
</g>
<g>
	<g>
		<path d="M27.054,141.546c-4.442,8.855-8.405,18.059-11.778,27.358l28.202,10.23c2.975-8.203,6.471-16.323,10.39-24.135    L27.054,141.546z"/>
	</g>
</g>
<g>
	<g>
		<path d="M102.853,51.048c-7.916,5.919-15.573,12.366-22.758,19.164l20.617,21.793c6.348-6.006,13.113-11.702,20.105-16.93    L102.853,51.048z"/>
	</g>
</g>
<g>
	<g>
		<path d="M59.699,91.875c-6.357,7.586-12.333,15.621-17.764,23.88l25.068,16.48c4.796-7.295,10.075-14.391,15.69-21.091    L59.699,91.875z"/>
	</g>
</g>
<g>
	<g>
		<path d="M154.237,21.235c-9.067,3.932-18.003,8.444-26.561,13.41l15.059,25.947c7.552-4.383,15.438-8.365,23.438-11.834    L154.237,21.235z"/>
	</g>
</g>
<g>
	<g>
		<path d="M408.533,50.593l-17.892,24.081c7.011,5.209,13.793,10.886,20.159,16.873l20.554-21.853    C424.148,62.917,416.47,56.49,408.533,50.593z"/>
	</g>
</g>
<g>
	<g>
		<path d="M211.169,4.122c-9.75,1.723-19.496,4.039-28.967,6.886l8.636,28.73c8.353-2.51,16.95-4.554,25.551-6.074L211.169,4.122z"/>
	</g>
</g>
<g>
	<g>
		<path d="M505.034,196.662l-29.183,6.954c2.021,8.478,3.563,17.18,4.585,25.864l29.794-3.507    C509.072,216.133,507.324,206.272,505.034,196.662z"/>
	</g>
</g>
<g>
	<g>
		<path d="M451.813,91.295l-22.938,19.336c5.634,6.683,10.932,13.761,15.746,21.038l25.02-16.554    C464.189,106.875,458.191,98.861,451.813,91.295z"/>
	</g>
</g>
<g>
	<g>
		<path d="M357.023,20.916l-11.849,27.561c8.017,3.447,15.922,7.407,23.496,11.772l14.979-25.994    C375.067,29.31,366.109,24.821,357.023,20.916z"/>
	</g>
</g>
<g>
	<g>
		<path d="M240.724,0.655l1.763,29.948c8.692-0.511,17.588-0.525,26.304-0.041l1.667-29.954    C260.607,0.061,250.551,0.077,240.724,0.655z"/>
	</g>
</g>
<g>
	<g>
		<path d="M300.024,3.981l-5.126,29.559c8.607,1.493,17.211,3.509,25.571,5.992l8.542-28.759    C319.532,7.958,309.78,5.672,300.024,3.981z"/>
	</g>
</g>
<g>
	<g>
		<path d="M484.589,140.84l-26.772,13.537c3.942,7.798,7.462,15.903,10.461,24.092l28.17-10.317    C493.048,158.868,489.057,149.679,484.589,140.84z"/>
	</g>
</g>
<g>
	<g>
		<path d="M295.372,478.791c-8.577,1.507-17.359,2.527-26.101,3.033l1.733,29.95c9.897-0.573,19.841-1.728,29.558-3.435    L295.372,478.791z"/>
	</g>
</g>
<g>
	<g>
		<path d="M345.606,463.751c-8.016,3.465-16.318,6.491-24.676,8.994l8.605,28.739c9.476-2.837,18.889-6.268,27.976-10.197    L345.606,463.751z"/>
	</g>
</g>
<g>
	<g>
		<path d="M429.151,401.453c-5.616,6.689-11.686,13.122-18.04,19.12l20.594,21.815c7.192-6.79,14.063-14.071,20.42-21.642    L429.151,401.453z"/>
	</g>
</g>
<g>
	<g>
		<path d="M390.987,437.481c-7.003,5.225-14.382,10.09-21.931,14.46l15.03,25.963c8.55-4.95,16.908-10.46,24.839-16.376    L390.987,437.481z"/>
	</g>
</g>
<g>
	<g>
		<path d="M511.998,255.651l-30,0.086l0.001,0.47c0,8.769-0.507,17.6-1.506,26.248l29.802,3.444    c1.131-9.787,1.705-19.777,1.705-29.735L511.998,255.651z"/>
	</g>
</g>
<g>
	<g>
		<path d="M458.022,357.629c-3.923,7.797-8.35,15.451-13.159,22.749l25.051,16.507c5.448-8.268,10.463-16.94,14.908-25.774    L458.022,357.629z"/>
	</g>
</g>
<g>
	<g>
		<path d="M475.961,308.328c-2.005,8.501-4.537,16.971-7.523,25.177l28.191,10.26c3.386-9.304,6.256-18.908,8.53-28.545    L475.961,308.328z"/>
	</g>
</g>
<g>
	<g>
		<path d="M166.603,463.841l-11.878,27.549c9.096,3.921,18.517,7.344,28.001,10.172l8.573-28.749    C182.935,470.319,174.626,467.3,166.603,463.841z"/>
	</g>
</g>
<g>
	<g>
		<path d="M82.967,401.598L60.01,420.911c6.365,7.566,13.241,14.841,20.437,21.623l20.576-21.832    C94.665,414.71,88.591,408.283,82.967,401.598z"/>
	</g>
</g>
<g>
	<g>
		<path d="M54.074,357.822L27.287,371.33c4.449,8.821,9.469,17.482,14.921,25.741l25.037-16.527    C62.431,373.252,58,365.607,54.074,357.822z"/>
	</g>
</g>
<g>
	<g>
		<path d="M121.164,437.595l-17.918,24.062c7.941,5.913,16.308,11.419,24.868,16.364l15.007-25.977    C135.564,447.678,128.176,442.816,121.164,437.595z"/>
	</g>
</g>
<g>
	<g>
		<path d="M216.863,478.834l-5.157,29.553c9.72,1.696,19.666,2.841,29.561,3.403l1.701-29.952    C234.228,481.342,225.445,480.331,216.863,478.834z"/>
	</g>
</g>
<g>
	<g>
		<path d="M36.09,308.563L6.9,315.486c2.284,9.63,5.163,19.226,8.556,28.521l28.181-10.289    C40.644,325.52,38.105,317.057,36.09,308.563z"/>
	</g>
</g>
<g>
	<g>
		<path d="M255.999,55.216c-110.827,0-200.991,90.164-200.991,200.991s90.164,200.991,200.991,200.991    S456.99,367.033,456.99,256.207C456.99,145.38,366.826,55.216,255.999,55.216z M321.872,130.348    c-2.516-8.806,1.994-20.473,6.603-28.987c55.264,25.969,94.453,80.666,98.208,144.736c-8.169,1.911-20.778,1.35-36.548-12.343    c-13.59-11.8-22.149-26.958-22.218-27.082l-1.255-2.268l-1.944-1.715c-7.201-6.355-25.671-20.505-41.642-14.704    c-4.786,1.74-13.124,6.693-15.193,20.329l-0.063,0.39c-0.089,0.528-0.361,2.135-2.45,2.648c-1.444,0.355-2.639-0.072-3.55-1.272    c-6.331-8.331-9.39-16.145-8.615-22.001c0.59-4.459,4.579-8.34,11.078-14.201C313.79,165.304,328.157,152.346,321.872,130.348z     M255.999,427.197c-88.469,0-161.459-67.536-170.127-153.76l15.35,2.032c1.254,4.036,2.905,8.857,4.916,13.671    c8.764,20.979,20.162,30.845,33.885,29.318c35.311-3.924,57.401-23.977,60.607-55.02c0.131-1.267,0.322-2.147,0.49-2.728    c1.638,0.096,4.956,0.766,10.053,3.167c3.59,1.691,6.334,4.85,7.526,8.668c2.928,9.374,2.321,16.421-1.805,20.948    c-14.865,16.31-21.618,40.188-16.424,58.069c3.267,11.244,11.239,19.355,21.873,22.255c10.889,2.97,26.646,9.56,38.214,19.147    c11.562,9.583,17.148,20.412,16.942,32.885C270.455,426.737,263.28,427.197,255.999,427.197z M307.34,419.318    c-1.533-18.73-10.863-35.547-27.639-49.451c-19.191-15.905-42.712-23.15-49.464-24.992c-0.145-0.039-0.214-0.072-0.22-0.072    c-0.229-0.217-1.086-1.655-1.241-4.949c-0.391-8.321,3.841-19.075,10.291-26.152c11.487-12.603,14.424-30.396,8.268-50.102    c-3.689-11.812-12.21-21.604-23.378-26.863c-15.276-7.196-28.099-7.978-38.11-2.328c-5.996,3.384-13.476,10.633-15.057,25.947    c-0.614,5.941-2.441,23.647-31.251,27.919c-3.685-4.506-9.123-17.902-11.928-29.797l-2.362-10.092l-39.743-5.26    c6.703-88.197,80.61-157.911,170.495-157.911c15.215,0,29.967,2.008,44.018,5.755c-6.257,12.669-11.915,30.382-6.99,47.617    c0.87,3.045,0.691,4.418-8.836,13.01c-7.869,7.097-18.645,16.816-20.727,32.544c-1.846,13.954,3.157,29.198,14.469,44.087    c8.199,10.79,21.457,15.485,34.598,12.254c11.335-2.786,20-10.852,23.578-21.59c2.254,1.322,4.807,3.071,7.077,4.886    c3.504,5.74,12.879,19.933,26.625,32.054c15.804,13.936,32.813,21.017,49.731,21.016c2.081,0,4.16-0.114,6.236-0.329    C417.762,343.928,370.385,399.43,307.34,419.318z"/>
	</g>
</g>
<g>
</g>
<g>
</g>
<g>
</g>
<g>
</g>
<g>
</g>
<g>
</g>
<g>
</g>
<g>
</g>
<g>
</g>
<g>
</g>
<g>
</g>
<g>
</g>
<g>
</g>
<g>
</g>
<g>
</g>
</svg>
