<?xml version="1.0" encoding="iso-8859-1"?>
<!-- Generator: Adobe Illustrator 19.0.0, SVG Export Plug-In . SVG Version: 6.00 Build 0)  -->
<svg xmlns="http://www.w3.org/2000/svg" xmlns:xlink="http://www.w3.org/1999/xlink" version="1.1" id="Capa_1" x="0px" y="0px" viewBox="0 0 512 512" style="enable-background:new 0 0 512 512;" xml:space="preserve">
<g>
	<g>
		<path d="M189.92,402.536l-0.204,0.744c-2.978,11.102-5.868,22.059-8.81,33.24l29.015,7.638c2.934-11.145,5.813-22.065,8.754-33.03    l0.179-0.655L189.92,402.536z"/>
	</g>
</g>
<g>
	<g>
		<path d="M208.857,335.582c-2.597,10.628-5.518,20.906-9.103,33.066l28.778,8.484c3.704-12.565,6.733-23.229,9.47-34.423    L208.857,335.582z"/>
	</g>
</g>
<g>
	<g>
		<path d="M171.972,470.309c-3.431,12.845-6.345,23.517-9.17,33.586L191.69,512c2.859-10.193,5.806-20.98,9.269-33.948    L171.972,470.309z"/>
	</g>
</g>
<g>
	<g>
		<path d="M127.626,335.581c-2.598,10.63-5.519,20.908-9.104,33.067l28.778,8.484c3.704-12.565,6.732-23.227,9.471-34.423    L127.626,335.581z"/>
	</g>
</g>
<g>
	<g>
		<path d="M90.739,470.309c-3.431,12.845-6.345,23.517-9.17,33.586L110.458,512c2.859-10.193,5.806-20.98,9.269-33.948    L90.739,470.309z"/>
	</g>
</g>
<g>
	<g>
		<path d="M108.684,402.543l-0.201,0.737c-2.978,11.102-5.868,22.059-8.811,33.24l29.015,7.638    c2.934-11.145,5.813-22.065,8.752-33.022l0.184-0.671L108.684,402.543z"/>
	</g>
</g>
<g>
	<g>
		<path d="M361.656,84.881C348.819,35.641,303.785,0,251.764,0C189.192,0,138.278,50.869,138.21,113.426    c-50.316,0.085-91.225,41.046-91.225,91.382c0,50.388,40.994,91.382,91.382,91.382h220.982    c58.264,0,105.666-47.402,105.666-105.667C465.014,133.03,418.858,86.113,361.656,84.881z M359.348,266.185H138.367    c-33.844,0-61.378-27.534-61.378-61.378c0-33.844,27.534-61.378,61.378-61.378c4.359,0,8.757,0.474,13.07,1.409l21.684,4.701    l-3.715-21.875c-0.79-4.651-1.191-9.397-1.191-14.109c0-46.07,37.48-83.551,83.551-83.551c41.702,0,77.301,31.116,82.807,72.38    l1.936,14.511l14.555-1.581c2.769-0.301,5.557-0.453,8.287-0.453c41.72,0,75.662,33.942,75.662,75.663    C435.011,232.244,401.069,266.185,359.348,266.185z"/>
	</g>
</g>
<g>
	<g>
		<path d="M290.031,335.581c-2.599,10.63-5.519,20.908-9.104,33.067l28.778,8.484c3.704-12.565,6.733-23.227,9.471-34.423    L290.031,335.581z"/>
	</g>
</g>
<g>
	<g>
		<path d="M271.092,402.536l-0.203,0.744c-2.978,11.102-5.868,22.059-8.811,33.24l29.015,7.638    c2.934-11.145,5.813-22.065,8.754-33.03l0.179-0.655L271.092,402.536z"/>
	</g>
</g>
<g>
	<g>
		<path d="M253.145,470.309c-3.431,12.845-6.345,23.517-9.17,33.586L272.863,512c2.859-10.193,5.806-20.98,9.269-33.948    L253.145,470.309z"/>
	</g>
</g>
<g>
	<g>
		<path d="M333.761,470.023c-1.142,4.15-2.28,8.311-3.428,12.547c-1.427,5.354-2.738,10.713-4.005,15.898    c-0.475,1.942-0.95,3.883-1.43,5.823l29.123,7.213c0.487-1.967,0.969-3.937,1.451-5.909c1.23-5.035,2.503-10.241,3.834-15.234    c1.121-4.135,2.247-8.255,3.379-12.362L333.761,470.023z"/>
	</g>
</g>
<g>
	<g>
		<path d="M352.826,402.548c-1.463,5.149-2.931,10.301-4.403,15.462c-1.726,6.057-3.454,12.122-5.181,18.205l28.863,8.191    c1.723-6.072,3.448-12.127,5.172-18.173c1.473-5.168,2.943-10.328,4.41-15.486L352.826,402.548z"/>
	</g>
</g>
<g>
	<g>
		<path d="M371.289,335.366c-2.701,10.379-5.655,21.366-9.03,33.589l28.921,7.986c3.415-12.367,6.407-23.496,9.145-34.018    L371.289,335.366z"/>
	</g>
</g>
<g>
</g>
<g>
</g>
<g>
</g>
<g>
</g>
<g>
</g>
<g>
</g>
<g>
</g>
<g>
</g>
<g>
</g>
<g>
</g>
<g>
</g>
<g>
</g>
<g>
</g>
<g>
</g>
<g>
</g>
</svg>
