<?xml version="1.0" encoding="iso-8859-1"?>
<!-- Generator: Adobe Illustrator 19.0.0, SVG Export Plug-In . SVG Version: 6.00 Build 0)  -->
<svg xmlns="http://www.w3.org/2000/svg" xmlns:xlink="http://www.w3.org/1999/xlink" version="1.1" id="Capa_1" x="0px" y="0px" viewBox="0 0 512 512" style="enable-background:new 0 0 512 512;" xml:space="preserve">
<g>
	<g>
		<path d="M107.525,92.187l30.554-54.204L88.794,0L70.482,23.761l12.25,9.441c-33.375,9.269-57.951,39.904-57.951,76.191    c0,43.606,35.476,79.081,79.081,79.081v-29.999c-27.063,0-49.082-22.018-49.082-49.082c0-22.217,14.843-41.023,35.13-47.05    l-8.519,15.114L107.525,92.187z"/>
	</g>
</g>
<g>
	<g>
		<path d="M487.219,402.606c0-43.606-35.476-79.081-79.081-79.081v29.999c27.063,0,49.082,22.018,49.082,49.082    c0,22.217-14.844,41.024-35.131,47.051l8.52-15.114l-26.134-14.73l-30.554,54.204L423.204,512l18.313-23.761l-12.249-9.441    C462.642,469.529,487.219,438.893,487.219,402.606z"/>
	</g>
</g>
<g>
	<g>
		<path d="M180.385,189.501v212.225h141.052V189.501H180.385z M291.437,371.726h-81.053v-31.71h81.053V371.726z M291.437,310.018    h-81.053v-30.836h81.053V310.018z M291.437,249.182h-81.053V219.5h81.053V249.182z"/>
	</g>
</g>
<g>
	<g>
		<path d="M300.049,93.728V43.78h0h-98.277v49.948h-71.256v358.539h240.789V93.728H300.049z M231.772,73.779h38.278v19.949h-38.278    V73.779z M341.306,422.267H160.515v-298.54h180.791V422.267z"/>
	</g>
</g>
<g>
</g>
<g>
</g>
<g>
</g>
<g>
</g>
<g>
</g>
<g>
</g>
<g>
</g>
<g>
</g>
<g>
</g>
<g>
</g>
<g>
</g>
<g>
</g>
<g>
</g>
<g>
</g>
<g>
</g>
</svg>
