<?xml version="1.0" encoding="iso-8859-1"?>
<!-- Generator: Adobe Illustrator 19.0.0, SVG Export Plug-In . SVG Version: 6.00 Build 0)  -->
<svg xmlns="http://www.w3.org/2000/svg" xmlns:xlink="http://www.w3.org/1999/xlink" version="1.1" id="Capa_1" x="0px" y="0px" viewBox="0 0 511.999 511.999" style="enable-background:new 0 0 511.999 511.999;" xml:space="preserve">
<g>
	<g>
		<path d="M387.651,139.928l-6.823,19.76L311.813,40.155C300.164,19.977,279.298,7.931,256,7.931    c-23.299,0-44.164,12.047-55.814,32.224L112.19,192.568l25.977,14.998l87.996-152.413c6.228-10.787,17.381-17.226,29.837-17.226    s23.608,6.439,29.837,17.226l69.014,119.535l-20.49-3.923l-5.64,29.462l65.514,12.541l21.771-63.051L387.651,139.928z"/>
	</g>
</g>
<g>
	<g>
		<path d="M503.264,371.943l-87.988-152.417l-25.979,14.996l87.988,152.417c6.226,10.787,6.226,23.667-0.002,34.453    c-6.228,10.786-17.382,17.226-29.837,17.225l-139.198-0.007l13.631-15.771l-22.693-19.615l-43.619,50.463l43.715,50.381    l22.656-19.66l-13.71-15.801l139.216,0.007c0.001,0,0.003,0,0.004,0c23.297,0,44.162-12.046,55.812-32.221    C514.911,416.215,514.912,392.121,503.264,371.943z"/>
	</g>
</g>
<g>
	<g>
		<path d="M240.584,438.223l-175.991,0.208c-0.015,0-0.027,0-0.042,0c-12.438,0-23.582-6.425-29.816-17.192    c-6.239-10.779-6.254-23.657-0.04-34.451l67.425-117.103l6.868,19.689l28.323-9.88l-15.408-44.168l0.016-0.028l-0.033-0.019    l-6.546-18.765l-65.473,12.749l5.733,29.444l20.529-3.998L8.7,371.819c-11.626,20.191-11.599,44.284,0.075,64.448    c11.661,20.143,32.505,32.16,55.775,32.16c0.026,0,0.053,0,0.078,0l175.991-0.207L240.584,438.223z"/>
	</g>
</g>
<g>
	<g>
		<path d="M301.574,211.346c-16.791-24.889-33.332-44.893-34.028-45.733L256,151.688l-11.546,13.925    c-0.696,0.84-17.237,20.844-34.029,45.733c-24.026,35.613-35.707,61.91-35.707,80.391c0,44.818,36.463,81.281,81.282,81.281    s81.281-36.463,81.281-81.281C337.281,273.256,325.601,246.959,301.574,211.346z M256,343.022    c-28.279,0-51.285-23.006-51.285-51.284c0-18.456,27.108-60.904,51.288-92.466c24.179,31.546,51.282,73.983,51.282,92.466    C307.285,320.015,284.279,343.022,256,343.022z"/>
	</g>
</g>
<g>
</g>
<g>
</g>
<g>
</g>
<g>
</g>
<g>
</g>
<g>
</g>
<g>
</g>
<g>
</g>
<g>
</g>
<g>
</g>
<g>
</g>
<g>
</g>
<g>
</g>
<g>
</g>
<g>
</g>
</svg>
