<?xml version="1.0" encoding="iso-8859-1"?>
<!-- Generator: Adobe Illustrator 19.0.0, SVG Export Plug-In . SVG Version: 6.00 Build 0)  -->
<svg xmlns="http://www.w3.org/2000/svg" xmlns:xlink="http://www.w3.org/1999/xlink" version="1.1" id="Capa_1" x="0px" y="0px" viewBox="0 0 512 512" style="enable-background:new 0 0 512 512;" xml:space="preserve">
<g>
	<g>
		<path d="M512,241.21h-36.608l19.705-23.599l-23.027-19.229l-35.762,42.827h-83.983c-2.404-15.723-8.585-30.217-17.577-42.536    l59.36-59.36l55.562,4.996l2.688-29.879l-30.613-2.753l25.881-25.881l-21.213-21.213L400.53,90.467l-2.753-30.619l-29.879,2.686    l4.996,55.57l-59.325,59.325c-12.292-9.031-26.768-15.252-42.479-17.705V76.269l42.819-35.755L294.68,17.487l-23.59,19.698V0h-30    v37.192l-23.6-19.706l-19.229,23.027l42.828,35.762v83.418c-15.708,2.422-30.187,8.614-42.49,17.612l-58.994-58.999l4.997-55.566    l-29.88-2.688l-2.753,30.615L85.676,64.374L64.463,85.587l26.295,26.297l-30.618,2.753l2.687,29.879l55.566-4.995l58.981,58.986    c-9.058,12.354-15.285,26.909-17.7,42.704H76.275l-35.761-42.827l-23.027,19.229l19.705,23.599H0v30h37.185l-19.699,23.592    l23.027,19.229l35.755-42.82h83.475c2.466,15.664,8.678,30.098,17.685,42.359L118.31,372.69l-55.57-4.996l-2.687,29.879    l30.62,2.754l-26.301,26.301l21.213,21.213l26.298-26.298l2.752,30.613l29.88-2.688l-4.996-55.562l59.154-59.154    c12.287,8.969,26.739,15.14,42.415,17.558v84.001l-42.828,35.762l19.229,23.027l23.6-19.706V512h30v-36.601l23.591,19.699    l19.229-23.027l-42.819-35.755v-84.039c15.679-2.448,30.128-8.649,42.404-17.65l59.484,59.484l-4.995,55.562l29.879,2.685    l2.753-30.611l25.879,25.879l21.213-21.213l-25.883-25.883l30.621-2.753l-2.686-29.879l-55.572,4.996l-59.493-59.492    c8.941-12.225,15.108-26.598,17.563-42.191h84.058l35.756,42.82l23.027-19.229l-19.699-23.592H512V241.21z M256,323.446    c-37.19,0-67.446-30.256-67.446-67.446S218.81,188.554,256,188.554S323.446,218.81,323.446,256S293.19,323.446,256,323.446z"/>
	</g>
</g>
<g>
</g>
<g>
</g>
<g>
</g>
<g>
</g>
<g>
</g>
<g>
</g>
<g>
</g>
<g>
</g>
<g>
</g>
<g>
</g>
<g>
</g>
<g>
</g>
<g>
</g>
<g>
</g>
<g>
</g>
</svg>
