<?xml version="1.0" encoding="iso-8859-1"?>
<!-- Generator: Adobe Illustrator 19.0.0, SVG Export Plug-In . SVG Version: 6.00 Build 0)  -->
<svg xmlns="http://www.w3.org/2000/svg" xmlns:xlink="http://www.w3.org/1999/xlink" version="1.1" id="Capa_1" x="0px" y="0px" viewBox="0 0 512 512" style="enable-background:new 0 0 512 512;" xml:space="preserve">
<g>
	<g>
		<path d="M323.104,318.319H512L440.121,62.324H71.878L0,318.319h188.895l-21.888,47.752h-46.369v83.605h270.722V366.07h-46.369    L323.104,318.319z M472.602,288.46H346.873l-5.867-63.917h113.649L472.602,288.46z M446.272,194.684H338.265l-3.73-40.644H434.86    L446.272,194.684z M417.492,92.184l8.985,31.997h-94.683l-2.937-31.997H417.492z M165.125,288.461H39.397l17.946-63.917h113.649    L165.125,288.461z M173.734,194.684H65.728L77.14,154.04h100.325L173.734,194.684z M180.206,124.18H85.523l8.985-31.997h88.636    L180.206,124.18z M213.127,92.184h85.744l2.937,31.997H210.19L213.127,92.184z M207.45,154.04h97.101l3.73,40.644H203.718    L207.45,154.04z M200.978,224.543h110.042l5.867,63.917H195.111L200.978,224.543z M312.145,366.07H199.854l21.888-47.752h68.517    L312.145,366.07z M361.501,419.818H150.498V395.93h211.004V419.818z"/>
	</g>
</g>
<g>
</g>
<g>
</g>
<g>
</g>
<g>
</g>
<g>
</g>
<g>
</g>
<g>
</g>
<g>
</g>
<g>
</g>
<g>
</g>
<g>
</g>
<g>
</g>
<g>
</g>
<g>
</g>
<g>
</g>
</svg>
