<?xml version="1.0" encoding="iso-8859-1"?>
<!-- Generator: Adobe Illustrator 19.0.0, SVG Export Plug-In . SVG Version: 6.00 Build 0)  -->
<svg xmlns="http://www.w3.org/2000/svg" xmlns:xlink="http://www.w3.org/1999/xlink" version="1.1" id="Capa_1" x="0px" y="0px" viewBox="0 0 512.001 512.001" style="enable-background:new 0 0 512.001 512.001;" xml:space="preserve">
<g>
	<g>
		<path d="M456.323,1.37c-1.236,0.093-30.653,2.335-64.275,8.174c-47.813,8.304-78.269,19.198-93.108,33.308    c-32.566,30.966-36.816,80.695-11.931,116.515L256,190.377l-31.006-31.006c10.878-15.608,16.506-34.196,16.017-53.571    c-0.604-24.029-10.531-46.385-27.951-62.947c-14.838-14.109-45.294-25.004-93.108-33.308C86.33,3.705,56.913,1.463,55.677,1.37    L37.4,0l2.288,18.185c0.155,1.23,3.876,30.496,11.401,63.783c10.701,47.335,23.116,77.203,37.954,91.312v-0.001    c16.857,16.029,38.776,24.776,61.949,24.776c0.773,0,1.55-0.01,2.325-0.029c18.537-0.467,36.066-6.502,50.72-17.224l36.976,36.977    v124.469c-35.418,6.736-62.649,36.871-64.915,73.661c-33.728,2.578-60.382,30.846-60.382,65.223c0,7.009,1.12,13.939,3.329,20.6    l3.405,10.269h268.362l4.038-8.64c4.661-9.972,7.024-20.623,7.024-31.659c0-39.454-30.684-71.875-69.442-74.653    c-8.771-28.085-32.59-49.251-61.448-54.782V217.78l36.991-36.992c15.695,11.442,34.324,17.225,52.992,17.225    c22.284,0,44.603-8.203,61.987-24.732c14.839-14.109,27.253-43.978,37.954-91.312c7.524-33.286,11.246-62.553,11.401-63.783    L474.601,0L456.323,1.37z M203.287,137.663l-48.568-48.569l-21.194,21.194l48.934,48.934c-8.915,5.493-19.151,8.571-29.896,8.841    c-16.032,0.406-31.248-5.457-42.867-16.504c-16.527-15.715-30.601-74.852-37.6-118.571C116.1,37.766,175.86,48.839,192.408,64.573    c11.617,11.047,18.237,25.956,18.641,41.982C211.328,117.613,208.62,128.289,203.287,137.663z M305.636,414.18l1.934,14.498    l14.541-1.582c1.643-0.179,3.298-0.27,4.92-0.27c24.743,0,44.873,20.13,44.873,44.873c0,3.518-0.4,6.969-1.193,10.328H145.702    c-0.008-0.299-0.012-0.597-0.012-0.896c0-19.542,15.899-35.443,35.443-35.443c2.516,0,5.058,0.274,7.553,0.814l21.659,4.694    l-3.711-21.849c-0.475-2.791-0.714-5.64-0.714-8.465c0-27.615,22.466-50.081,50.081-50.081    C280.996,370.802,302.336,389.451,305.636,414.18z M402.304,151.559c-11.595,11.026-26.478,16.497-41.341,16.495    c-10.923-0.001-21.835-2.957-31.416-8.836l48.93-48.93l-21.194-21.194l-48.552,48.552c-13.251-23.397-9.485-53.726,10.862-73.073    c16.527-15.715,76.299-26.793,120.315-31.582C432.92,76.699,418.852,135.826,402.304,151.559z"/>
	</g>
</g>
<g>
</g>
<g>
</g>
<g>
</g>
<g>
</g>
<g>
</g>
<g>
</g>
<g>
</g>
<g>
</g>
<g>
</g>
<g>
</g>
<g>
</g>
<g>
</g>
<g>
</g>
<g>
</g>
<g>
</g>
</svg>
