<?xml version="1.0" encoding="iso-8859-1"?>
<!-- Generator: Adobe Illustrator 19.0.0, SVG Export Plug-In . SVG Version: 6.00 Build 0)  -->
<svg xmlns="http://www.w3.org/2000/svg" xmlns:xlink="http://www.w3.org/1999/xlink" version="1.1" id="Capa_1" x="0px" y="0px" viewBox="0 0 511.993 511.993" style="enable-background:new 0 0 511.993 511.993;" xml:space="preserve">
<g>
	<g>
		<path d="M433.708,258.927c13.671-16.055,21.28-36.455,21.28-58.001c0-49.42-40.211-89.626-89.637-89.626    c-28.246,0-54.164,13.012-70.933,34.807c-19.372-12.099-42.169-19.057-66.332-19.057c-69.254,0-125.595,56.342-125.595,125.594    c0,0.618,0.005,1.238,0.013,1.857c-0.607-0.011-1.215-0.017-1.822-0.017C45.166,254.485,0,299.651,0,355.168    c0,55.517,45.166,100.683,100.683,100.683h248.275c64.366,0,116.732-52.366,116.732-116.733    C465.69,308.092,453.522,279.855,433.708,258.927z M365.352,141.04c33.027,0,59.897,26.865,59.897,59.886    c0,14.577-5.224,28.363-14.577,39.153c-17.641-11.032-38.421-17.491-60.671-17.688c-5.504-22.211-16.918-41.977-32.372-57.675    C328.825,149.9,346.297,141.04,365.352,141.04z M348.958,426.112H100.683c-39.118,0-70.943-31.825-70.943-70.944    c0-39.119,31.825-70.944,70.943-70.944c5.041,0,10.122,0.548,15.105,1.627l21.491,4.658l-3.682-21.68    c-0.906-5.339-1.366-10.784-1.366-16.185c0-52.854,43-95.855,95.856-95.855c47.843,0,88.684,35.7,95.001,83.041l1.919,14.384    l14.427-1.568c3.18-0.346,6.385-0.521,9.524-0.521c47.968,0,86.992,39.025,86.992,86.993    C435.95,387.087,396.926,426.112,348.958,426.112z"/>
	</g>
</g>
<g>
	<g>
		<rect x="339.836" y="57.319" transform="matrix(0.9965 -0.0831 0.0831 0.9965 -4.9372 29.7343)" width="29.739" height="33.709"/>
	</g>
</g>
<g>
	<g>
		
			<rect x="401.954" y="70.447" transform="matrix(0.4139 -0.9103 0.9103 0.4139 167.7944 431.2526)" width="33.708" height="29.739"/>
	</g>
</g>
<g>
	<g>
		<rect x="277.901" y="78.984" transform="matrix(0.8292 -0.559 0.559 0.8292 -3.5607 180.0257)" width="29.74" height="33.71"/>
	</g>
</g>
<g>
	<g>
		
			<rect x="452.483" y="111.459" transform="matrix(0.8056 -0.5925 0.5925 0.8056 16.4004 302.6374)" width="33.711" height="29.741"/>
	</g>
</g>
<g>
	<g>
		
			<rect x="476.571" y="171.89" transform="matrix(0.9923 -0.1239 0.1239 0.9923 -19.3376 62.5745)" width="33.709" height="29.739"/>
	</g>
</g>
<g>
	<g>
		
			<rect x="470.087" y="234.443" transform="matrix(0.3762 -0.9265 0.9265 0.3762 69.6745 606.0841)" width="29.739" height="33.708"/>
	</g>
</g>
<g>
</g>
<g>
</g>
<g>
</g>
<g>
</g>
<g>
</g>
<g>
</g>
<g>
</g>
<g>
</g>
<g>
</g>
<g>
</g>
<g>
</g>
<g>
</g>
<g>
</g>
<g>
</g>
<g>
</g>
</svg>
