<?xml version="1.0" encoding="iso-8859-1"?>
<!-- Generator: Adobe Illustrator 19.0.0, SVG Export Plug-In . SVG Version: 6.00 Build 0)  -->
<svg xmlns="http://www.w3.org/2000/svg" xmlns:xlink="http://www.w3.org/1999/xlink" version="1.1" id="Capa_1" x="0px" y="0px" viewBox="0 0 512 512" style="enable-background:new 0 0 512 512;" xml:space="preserve">
<g>
	<g>
		<path d="M348.5,271.596V92.5C348.5,41.495,307.005,0,256,0s-92.5,41.495-92.5,92.5v179.096C134.494,297.775,118,334.697,118,374    c0,76.093,61.907,138,138,138s138-61.907,138-138C394,334.697,377.506,297.775,348.5,271.596z M256,482    c-59.551,0-108-48.449-108-108c0-32.667,14.564-63.235,39.958-83.866l5.542-4.503V92.5c0-34.462,28.038-62.5,62.5-62.5    c34.462,0,62.5,28.038,62.5,62.5v193.131l5.542,4.503C349.435,310.765,364,341.333,364,374C364,433.551,315.551,482,256,482z"/>
	</g>
</g>
<g>
	<g>
		<path d="M298.667,306.336V106h-85.333v200.336C190.382,320.865,176,346.471,176,374c0,44.112,35.888,80,80,80s80-35.888,80-80    C336,346.471,321.618,320.865,298.667,306.336z M256,424c-27.57,0-50-22.43-50-50c0-19.268,11.276-37.031,28.727-45.253    l8.606-4.055V305H256v-30h-12.667v-26.5H256v-30h-12.667V192H256v-30h-12.667v-26h25.333v188.692l8.606,4.055    C294.724,336.969,306,354.732,306,374C306,401.57,283.57,424,256,424z"/>
	</g>
</g>
<g>
</g>
<g>
</g>
<g>
</g>
<g>
</g>
<g>
</g>
<g>
</g>
<g>
</g>
<g>
</g>
<g>
</g>
<g>
</g>
<g>
</g>
<g>
</g>
<g>
</g>
<g>
</g>
<g>
</g>
</svg>
