<?xml version="1.0" encoding="iso-8859-1"?>
<!-- Generator: Adobe Illustrator 19.0.0, SVG Export Plug-In . SVG Version: 6.00 Build 0)  -->
<svg xmlns="http://www.w3.org/2000/svg" xmlns:xlink="http://www.w3.org/1999/xlink" version="1.1" id="Capa_1" x="0px" y="0px" viewBox="0 0 511.998 511.998" style="enable-background:new 0 0 511.998 511.998;" xml:space="preserve">
<g>
	<g>
		<path d="M444.087,242.17l-12.186,27.397c17.206,7.653,20.974,14.337,20.974,16.266c0,3.22-8.17,12.606-33.422,21.057    c-6.743,2.257-14.07,4.255-21.869,5.984c1.648-8.218,2.037-16.766,1.11-25.621c-2.145-20.504-10.084-38.798-17.761-56.489    c-6.009-13.847-11.684-26.924-14.411-40.424c-5.391-26.691,16.41-56.883,35.643-83.519c5.553-7.691,10.801-14.966,15.382-22.084    c4.931-7.094,6.512-13.972,6.512-19.859c0-14.35-9.349-34.584-53.89-49.492C340.525,5.464,301.406,0,260.018,0    C218.63,0,179.51,5.464,149.864,15.386c-44.54,14.906-53.89,35.142-53.89,49.492c0,0.186,0.008,0.378,0.012,0.566h-0.003    c0.001,0.033,0.004,0.067,0.005,0.1c0.014,0.684,0.042,1.375,0.102,2.083c0.284,5.557,0.373,11.205,0.465,17.179    c0.413,27.102,0.906,58.9,22.683,87.981c-9.613-1.948-18.578-4.287-26.694-7.002c-25.252-8.452-33.422-17.837-33.422-21.057    c0-1.929,3.768-8.613,20.974-16.266l-12.186-27.397c-32.047,14.255-38.773,31.612-38.773,43.663c0,14.35,9.35,34.584,53.89,49.492    c21.863,7.317,48.887,12.201,78.165,14.265c42.355,25.948,67.587,56.901,71.141,87.404c0.591,5.069,0.571,10.111-0.051,15.116    c-9.837-2.502-18.691-5.438-26.229-8.763l-12.101,27.434c8.308,3.664,17.764,6.897,28.116,9.664    c-4.65,7.698-10.804,15.276-18.466,22.705c-20.291,19.676-29.956,41.754-28.726,65.617c2.346,45.541,44.754,79.439,46.559,80.86    l4.081,3.213h13.48l16.734,0.263l-1.796-16.544c-0.063-1.121-0.73-16.562,8.279-37.116c12.607-28.767,37.186-53.472,73.054-73.428    c20.552-11.435,35.66-23.633,46.185-37.291c0.388-0.503,0.746-1.016,1.121-1.522c17.004-2.582,32.716-6.197,46.394-10.774    c44.541-14.907,53.89-35.142,53.89-49.492C482.86,273.781,476.134,256.424,444.087,242.17z M125.968,64.75    c0.203-3.331,8.476-12.584,33.413-20.929c26.659-8.922,62.399-13.836,100.637-13.836c38.238,0,73.978,4.913,100.637,13.836    c25.253,8.452,33.422,17.837,33.422,21.057s-8.17,12.606-33.422,21.057c-26.658,8.922-62.399,13.836-100.637,13.836    c-38.238,0-73.979-4.914-100.637-13.836c-24.346-8.148-32.81-17.162-33.387-20.684C125.985,65.084,125.977,64.917,125.968,64.75z     M320.692,358.709c-67.281,37.434-88.015,84.128-94.223,112.873c-9.515-10.92-20.716-27.445-21.645-45.462    c-0.776-15.053,5.654-28.971,19.656-42.548c12.32-11.947,21.74-24.652,28.153-37.834c20.436,3.243,42.911,4.972,66.185,4.972    c5.157,0,10.279-0.085,15.351-0.253C330.048,353.247,325.566,355.996,320.692,358.709z M364.383,318.267    c-14.461,1.608-29.793,2.457-45.565,2.457c-19.884,0-39.318-1.391-57.08-3.965c1.191-8.037,1.329-16.17,0.378-24.343    c-3.403-29.208-20.563-57.852-49.335-83.23c41.43-1.757,79.039-9.05,105.262-20.617l-12.101-27.434    c-26.24,11.574-68.394,18.484-112.762,18.484c-7.683,0-15.258-0.208-22.686-0.598c-34.599-21.841-41.626-46.468-43.336-74.16    c6.304,3.321,13.789,6.522,22.706,9.506c29.646,9.922,68.766,15.386,110.153,15.386c35.98,0,70.239-4.134,98.057-11.732    c-14.924,23.834-26.544,50.515-20.941,78.253c3.352,16.598,9.933,31.761,16.296,46.424c7.086,16.33,13.781,31.755,15.446,47.672    C369.916,300.314,368.453,309.557,364.383,318.267z"/>
	</g>
</g>
<g>
</g>
<g>
</g>
<g>
</g>
<g>
</g>
<g>
</g>
<g>
</g>
<g>
</g>
<g>
</g>
<g>
</g>
<g>
</g>
<g>
</g>
<g>
</g>
<g>
</g>
<g>
</g>
<g>
</g>
</svg>
