<?xml version="1.0" encoding="iso-8859-1"?>
<!-- Generator: Adobe Illustrator 19.0.0, SVG Export Plug-In . SVG Version: 6.00 Build 0)  -->
<svg xmlns="http://www.w3.org/2000/svg" xmlns:xlink="http://www.w3.org/1999/xlink" version="1.1" id="Capa_1" x="0px" y="0px" viewBox="0 0 512 512" style="enable-background:new 0 0 512 512;" xml:space="preserve">
<g>
	<g>
		<polygon points="372.426,182.499 331.245,214.855 318.734,159.186 346.92,139.358 417.801,162.322 427.048,133.783     377.613,117.767 441.754,72.648 424.493,48.111 372.99,84.34 353.154,27.241 324.815,37.085 347.468,102.294 324.179,118.676     293.721,82.335 293.721,0 263.721,0 263.721,93.245 299.554,135.998 285.065,146.19 294.454,187.969 255.654,202.273     266.033,230.421 301.09,217.497 305.111,235.389 285.895,250.487 243.487,250.487 221.535,220.317 253.748,160.101     223.952,122.939 252.211,69.828 235.037,21.937 206.798,32.063 219.49,67.457 203.524,97.463 129.88,5.617 106.474,24.383     144.278,71.531 115.44,79.912 82.169,56.394 64.852,80.892 109.929,112.755 164.594,96.867 217.952,163.414 201.928,193.369     179.988,163.215 155.729,180.865 177.713,211.08 141.16,211.08 118.33,143.267 89.899,152.838 119.605,241.08 199.541,241.08     220.85,270.367 220.85,295.122 185.314,267.544 166.921,291.244 220.85,333.096 220.85,432.46 174.672,512 209.361,512     250.85,440.537 250.85,280.487 276.083,280.487 276.083,440.537 317.572,512 352.262,512 306.083,432.46 306.083,280.232     346.982,293.647 356.332,265.141 327.738,255.763 382.802,212.499 447.148,212.499 447.148,182.499   "/>
	</g>
</g>
<g>
</g>
<g>
</g>
<g>
</g>
<g>
</g>
<g>
</g>
<g>
</g>
<g>
</g>
<g>
</g>
<g>
</g>
<g>
</g>
<g>
</g>
<g>
</g>
<g>
</g>
<g>
</g>
<g>
</g>
</svg>
