<?xml version="1.0" encoding="iso-8859-1"?>
<!-- Generator: Adobe Illustrator 19.0.0, SVG Export Plug-In . SVG Version: 6.00 Build 0)  -->
<svg xmlns="http://www.w3.org/2000/svg" xmlns:xlink="http://www.w3.org/1999/xlink" version="1.1" id="Capa_1" x="0px" y="0px" viewBox="0 0 512.001 512.001" style="enable-background:new 0 0 512.001 512.001;" xml:space="preserve">
<g>
	<g>
		<path d="M453.597,186.579l-56.752,39.171V74.459c0-21.945-15.775-41.671-44.42-55.544C327.241,6.718,294.088,0,259.077,0    c-35.012,0-68.164,6.718-93.348,18.916C137.084,32.789,121.31,52.514,121.31,74.46V292.88l-63.054-42.965l-16.892,24.791    l79.945,54.475v108.36c0,21.945,15.774,41.671,44.419,55.544c25.185,12.198,58.337,18.916,93.348,18.916    c35.012,0,68.164-6.718,93.349-18.916c28.645-13.873,44.42-33.599,44.42-55.544V262.2l73.792-50.932L453.597,186.579z     M178.805,45.914c21.19-10.263,49.698-15.915,80.272-15.915c30.573,0,59.082,5.652,80.272,15.916    c17.218,8.339,27.498,19.01,27.498,28.546c0,9.534-10.279,20.206-27.498,28.545c-21.19,10.264-49.699,15.915-80.272,15.915    c-30.574,0-59.082-5.652-80.272-15.915c-17.218-8.339-27.497-19.01-27.497-28.546S161.587,54.252,178.805,45.914z     M366.848,437.541h-0.001c0,9.536-10.279,20.206-27.498,28.546c-21.19,10.263-49.699,15.916-80.272,15.916    c-30.573,0-59.082-5.652-80.272-15.916c-17.218-8.339-27.497-19.01-27.497-28.546V121.813c4.365,2.911,9.175,5.65,14.42,8.191    c25.185,12.198,58.337,18.916,93.348,18.916c35.012,0,68.164-6.718,93.349-18.916c5.247-2.541,10.057-5.28,14.421-8.192V437.541z"/>
	</g>
</g>
<g>
	<g>
		<rect x="223.17" y="375.972" width="29.999" height="75.776"/>
	</g>
</g>
<g>
	<g>
		<rect x="199.371" y="174.491" width="29.999" height="56.83"/>
	</g>
</g>
<g>
	<g>
		<rect x="291.366" y="202.9" width="29.999" height="34.917"/>
	</g>
</g>
<g>
	<g>
		<rect x="291.366" y="262.307" width="29.999" height="86.346"/>
	</g>
</g>
<g>
</g>
<g>
</g>
<g>
</g>
<g>
</g>
<g>
</g>
<g>
</g>
<g>
</g>
<g>
</g>
<g>
</g>
<g>
</g>
<g>
</g>
<g>
</g>
<g>
</g>
<g>
</g>
<g>
</g>
</svg>
