<?xml version="1.0" encoding="iso-8859-1"?>
<!-- Generator: Adobe Illustrator 19.0.0, SVG Export Plug-In . SVG Version: 6.00 Build 0)  -->
<svg xmlns="http://www.w3.org/2000/svg" xmlns:xlink="http://www.w3.org/1999/xlink" version="1.1" id="Capa_1" x="0px" y="0px" viewBox="0 0 512.001 512.001" style="enable-background:new 0 0 512.001 512.001;" xml:space="preserve">
<g>
	<g>
		<path d="M509.228,242.916c-9.52-59.565-40.071-114.151-86.024-153.703c-42.662-36.719-96.229-58.272-152.223-61.549V0.338h-29.96    v27.326c-55.994,3.277-109.561,24.829-152.223,61.549C42.842,128.764,12.293,183.35,2.772,242.916L0,260.26h34.138l4.269-7.757    c11.408-20.727,33.164-33.604,56.778-33.604s45.37,12.876,56.778,33.604l4.269,7.757h38.721l4.269-7.757    c8.94-16.243,24.235-27.661,41.798-31.844v235.826c0,13.905-11.313,25.218-25.218,25.218s-25.218-11.313-25.218-25.218h-29.96    c0,30.425,24.753,55.178,55.178,55.178c30.425,0,55.178-24.753,55.178-55.178V220.659c17.563,4.182,32.858,15.601,41.798,31.844    l4.269,7.757h38.721l4.269-7.757c11.408-20.728,33.164-33.604,56.778-33.604c23.614,0,45.37,12.876,56.778,33.604l4.269,7.757    h34.137L509.228,242.916z M161.266,215.824c-17.445-16.985-41.045-26.885-66.082-26.885c-18.576,0-36.362,5.444-51.43,15.19    c27.52-74.276,91.932-128.542,170.05-143.075c-21.4,26.267-36.895,60.803-45.537,102.045    C164.081,183.079,162.135,201.456,161.266,215.824z M256,188.939c-24.327,0-47.299,9.346-64.585,25.455    c2.86-40.84,15.133-113.307,64.583-153.515c49.292,40.114,61.629,112.596,64.542,153.474    C303.259,198.269,280.306,188.939,256,188.939z M416.816,188.939c-25.037,0-48.637,9.9-66.082,26.885    c-0.869-14.367-2.815-32.745-7.001-52.724c-8.642-41.243-24.137-75.778-45.537-102.045    c78.119,14.533,142.531,68.799,170.05,143.075C453.178,194.383,435.391,188.939,416.816,188.939z"/>
	</g>
</g>
<g>
</g>
<g>
</g>
<g>
</g>
<g>
</g>
<g>
</g>
<g>
</g>
<g>
</g>
<g>
</g>
<g>
</g>
<g>
</g>
<g>
</g>
<g>
</g>
<g>
</g>
<g>
</g>
<g>
</g>
</svg>
