<?xml version="1.0" encoding="iso-8859-1"?>
<!-- Generator: Adobe Illustrator 19.0.0, SVG Export Plug-In . SVG Version: 6.00 Build 0)  -->
<svg xmlns="http://www.w3.org/2000/svg" xmlns:xlink="http://www.w3.org/1999/xlink" version="1.1" id="Capa_1" x="0px" y="0px" viewBox="0 0 512 512" style="enable-background:new 0 0 512 512;" xml:space="preserve">
<g>
	<g>
		<rect x="419.92" y="238.149" width="31.04" height="31.04"/>
	</g>
</g>
<g>
	<g>
		<rect x="450.95" y="303.049" width="31.04" height="31.04"/>
	</g>
</g>
<g>
	<g>
		<rect x="480.96" y="162.229" width="31.04" height="31.04"/>
	</g>
</g>
<g>
	<g>
		<rect x="477.5" y="9.16" width="33.857" height="30"/>
	</g>
</g>
<g>
	<g>
		<path d="M197.458,481.999L197.458,481.999l44.282-166.137c7.535,7.442,16.915,12.863,27.285,15.628    c5.018,1.337,10.058,2.003,15.028,2.065v0.016h136.089v-30h-82.583c2.832-4.755,5.071-9.966,6.566-15.573    c0.754-2.829,1.302-5.69,1.644-8.574c30.381-8.704,54.284-32.667,62.595-63.845c6.174-23.164,3.046-47.392-8.809-68.22    c-2.63-4.622-5.633-8.951-8.951-12.975h86.899v-30h-114.27c5.467-23.148,0.819-46.49-11.161-65.224h97.729v-30h-130.85    c-5.164-2.612-10.67-4.735-16.479-6.283c-34.811-9.28-71.086,4.46-91.232,33.079c-0.581-0.172-1.165-0.337-1.75-0.493    c-34.462-9.186-69.958,11.377-79.142,45.832c-0.025,0.096-0.051,0.192-0.076,0.289c-29.274,1.7-54.884,21.864-62.75,51.378    c-7.994,29.991,5.045,60.725,30.03,76.489c-1.908,3.775-3.429,7.755-4.53,11.886c-8.714,32.695,10.795,66.384,43.49,75.098    c8.781,2.341,17.875,2.681,26.66,1.099l-49.595,184.465H0v30h512v-30H197.458z M144.64,481.999v-0.001l91.404-339.967    l-28.971-7.789l-34.62,128.767l-1.209-0.289l-4.889,2.458c-6.844,3.441-14.699,4.247-22.117,2.27    c-16.711-4.454-26.683-21.673-22.229-38.384c1.512-5.675,4.574-10.792,8.854-14.799l19.639-18.506l-26.127-6.964    c-20.947-5.583-33.448-27.163-27.866-48.105c5.227-19.614,24.251-31.951,44.255-28.693l17.14,2.79l0.269-17.363    c0.044-2.843,0.436-5.669,1.163-8.4c4.923-18.471,23.956-29.492,42.427-24.57c2.896,0.772,5.695,1.923,8.317,3.421l14.047,8.025    l6.942-14.613c11.334-23.859,38.108-36.235,63.676-29.419c29.245,7.795,46.696,37.93,38.901,67.175    c-1.206,4.525-2.986,8.885-5.29,12.957l-9.39,16.596l18.341,5.218c31.675,9.011,50.546,42.226,42.066,74.041    c-6.324,23.727-26.142,41.211-50.486,44.544l-14.434,1.976l1.554,14.485c0.413,3.853,0.119,7.694-0.872,11.415    c-4.453,16.711-21.678,26.681-38.385,22.228c-7.316-1.95-13.675-6.482-17.904-12.762l-3.143-4.666l-5.376-1.433l12.576-47.183    l57.924-23.437l-11.252-27.809l-37.004,14.972l12.057-45.236l-28.988-7.727l-89.231,334.777H144.64z"/>
	</g>
</g>
<g>
</g>
<g>
</g>
<g>
</g>
<g>
</g>
<g>
</g>
<g>
</g>
<g>
</g>
<g>
</g>
<g>
</g>
<g>
</g>
<g>
</g>
<g>
</g>
<g>
</g>
<g>
</g>
<g>
</g>
</svg>
