<?xml version="1.0" encoding="iso-8859-1"?>
<!-- Generator: Adobe Illustrator 19.0.0, SVG Export Plug-In . SVG Version: 6.00 Build 0)  -->
<svg xmlns="http://www.w3.org/2000/svg" xmlns:xlink="http://www.w3.org/1999/xlink" version="1.1" id="Capa_1" x="0px" y="0px" viewBox="0 0 512 512" style="enable-background:new 0 0 512 512;" xml:space="preserve">
<g>
	<g>
		<path d="M439.304,234.852l-115.647-35.68c-8.857-2.734-18.154-2.474-26.712,0.654c-2.084-3.99-4.733-7.637-7.845-10.837    c5.643-7.152,9.023-16.167,9.023-25.963V42c0-23.159-18.841-42-42-42s-42,18.841-42,42v121.026c0,9.796,3.38,18.811,9.022,25.963    c-2.884,2.965-5.376,6.31-7.384,9.961c-8.751-3.375-18.315-3.731-27.416-0.923l-115.649,35.68    c-22.128,6.828-34.577,30.386-27.751,52.515l0.001,0.001c5.56,18.021,22.214,29.621,40.156,29.621    c4.091,0,8.25-0.604,12.358-1.871l115.649-35.68c9.344-2.883,16.951-8.756,22.121-16.238c1.855,0.949,3.781,1.777,5.77,2.47V482    h-20.997v30h71.994v-30H271V264.608c1.801-0.617,3.555-1.334,5.248-2.161c5.172,7.844,12.986,14.011,22.643,16.99l115.648,35.681    c4.109,1.268,8.266,1.871,12.357,1.871c17.942,0,34.598-11.602,40.158-29.621l0.001-0.001    C473.882,265.237,461.433,241.68,439.304,234.852z M204.265,249.627l-115.65,35.68c-6.321,1.952-13.053-1.607-15.004-7.93    c-1.949-6.322,1.607-13.053,7.929-15.004l115.649-35.68c3.063-0.945,6.31-0.641,9.144,0.857c2.585,1.366,4.533,3.581,5.574,6.283    c0.154,0.531,0.315,1.059,0.488,1.582C213.828,241.498,210.322,247.757,204.265,249.627z M244.122,42c0-6.617,5.383-12,12-12    s12,5.383,12,12v121.026c0,6.617-5.383,12-12,12s-12-5.383-12-12V42z M256.122,237.09c-6.922,0-12.816-4.417-15.055-10.574    c-0.071-0.246-0.132-0.493-0.207-0.738c-0.079-0.255-0.17-0.503-0.253-0.755c-0.325-1.27-0.516-2.593-0.516-3.963    c0-8.84,7.192-16.032,16.032-16.032c8.84,0,16.031,7.192,16.031,16.032C272.153,229.898,264.962,237.09,256.122,237.09z     M438.389,278.522c-1.95,6.323-8.678,9.88-15.005,7.93l-115.648-35.681c-6.322-1.951-9.879-8.682-7.929-15.004    c0.945-3.063,3.026-5.575,5.86-7.072c1.753-0.927,3.664-1.396,5.592-1.396c1.189,0,2.384,0.179,3.553,0.539l115.648,35.68    C436.781,265.469,440.338,272.199,438.389,278.522z"/>
	</g>
</g>
<g>
</g>
<g>
</g>
<g>
</g>
<g>
</g>
<g>
</g>
<g>
</g>
<g>
</g>
<g>
</g>
<g>
</g>
<g>
</g>
<g>
</g>
<g>
</g>
<g>
</g>
<g>
</g>
<g>
</g>
</svg>
