<?xml version="1.0" encoding="iso-8859-1"?>
<!-- Generator: Adobe Illustrator 19.0.0, SVG Export Plug-In . SVG Version: 6.00 Build 0)  -->
<svg xmlns="http://www.w3.org/2000/svg" xmlns:xlink="http://www.w3.org/1999/xlink" version="1.1" id="Capa_1" x="0px" y="0px" viewBox="0 0 512 512" style="enable-background:new 0 0 512 512;" xml:space="preserve">
<g>
	<g>
		<path d="M349.418,123.048c-89.648,0-162.583,72.935-162.583,162.583c0,26.427,6.342,51.398,17.578,73.48    c-43.507-3.64-77.805-40.189-77.805-84.621v-40.392c48.382-7.264,85.601-49.106,85.601-99.481v-40.83h12.028v-30H170.18v30h12.028    v40.83c0,38.93-31.671,70.601-70.601,70.601s-70.602-31.671-70.602-70.601v-40.83h13.051v-30H0v30h11.006v40.83    c0,50.375,37.219,92.217,85.602,99.481v40.392c0,63.38,51.563,114.943,114.943,114.943c4.15,0,8.247-0.227,12.285-0.658    c29.843,36.269,75.057,59.438,125.583,59.438C439.066,448.213,512,375.28,512,285.631    C512,195.983,439.066,123.048,349.418,123.048z M393.868,244.832c0.664-5.018,2.852-10.662,5.169-16.638    c4.615-11.907,10.359-26.727,5.629-43.282c-1.448-5.071,0.739-12.072,3.625-18.051c40.773,20.293,69.694,60.966,73.323,108.604    c-3.059,0.639-5.732,0.546-7.989-0.297c-6.319-2.36-10.215-10.553-11.596-13.964c-3.189-7.879-9.529-14.147-17.399-17.198    c-12.096-4.687-20.388-2.339-25.214,0.458c-4.122,2.389-9.268,7.109-11.262,16.203c-2.441,0.621-6.682,0.262-8.208-0.861    C395.588,254.012,393.374,248.565,393.868,244.832z M349.418,418.212c-2.342,0.001-4.67-0.062-6.983-0.182    c3.637-2.142,7.207-4.558,10.567-7.301c17.369-14.183,24.995-33.769,22.055-56.643c-0.25-1.943-0.268-3.267-0.223-4.105    c0.724-0.181,1.84-0.405,3.547-0.643c4.122-0.577,7.3,0.075,8.141,0.564c3.546,2.952,6.699,7.748,5.772,10.241    c-4.726,12.71-3.495,26.637,3.375,38.21c1.903,3.206,4.179,6.137,6.781,8.778C386.201,414.251,368.265,418.212,349.418,418.212z     M430.48,390.469c-4.044-1.747-7.141-4.273-9.015-7.429c-2.252-3.793-2.625-8.211-1.052-12.441    c6.642-17.868-3.859-34.813-14.869-43.893c-10.703-8.829-25.448-7.896-31.295-7.082c-7.022,0.977-15.045,2.827-21.315,9.146    c-6.686,6.738-9.254,16.544-7.634,29.143c3.111,24.198-12.781,34.457-43.197,44.924c-3.169,1.09-5.963,2.059-8.464,3.055    c-13.786-6.42-26.291-15.14-37.02-25.667c41.043-17.561,69.876-58.342,69.876-105.734v-11.174    c17.777-6.233,30.564-23.172,30.564-43.051c0-25.15-20.462-45.612-45.612-45.612c-25.15,0-45.612,20.462-45.612,45.612    c0,19.915,12.834,36.879,30.661,43.084v11.141c0,38.033-25.127,70.307-59.652,81.098c-12.673-20.319-20.008-44.295-20.008-69.956    c0-73.106,59.476-132.583,132.583-132.583c10.514,0,20.744,1.237,30.558,3.561c-4.487,10.219-7.885,23.491-4.156,36.543    c1.962,6.868-1.151,14.899-4.756,24.199c-2.72,7.017-5.802,14.969-6.937,23.544c-1.575,11.899,2.604,24.785,12.085,37.264    c9.332,12.281,26.775,14.632,39.039,11.616c9.36-2.301,16.433-7.732,19.941-15.032c4.034,9.023,12.463,22.751,27.937,28.529    c4.721,1.763,9.633,2.643,14.718,2.643c0.866,0,1.741-0.04,2.617-0.091C475.203,340.111,456.754,370.107,430.48,390.469z     M295.834,220.265c0-8.608,7.004-15.612,15.612-15.612c8.608,0,15.612,7.004,15.612,15.612    c0.001,8.609-7.003,15.613-15.612,15.613C302.838,235.878,295.834,228.874,295.834,220.265z"/>
	</g>
</g>
<g>
</g>
<g>
</g>
<g>
</g>
<g>
</g>
<g>
</g>
<g>
</g>
<g>
</g>
<g>
</g>
<g>
</g>
<g>
</g>
<g>
</g>
<g>
</g>
<g>
</g>
<g>
</g>
<g>
</g>
</svg>
