<?xml version="1.0" encoding="iso-8859-1"?>
<!-- Generator: Adobe Illustrator 18.1.1, SVG Export Plug-In . SVG Version: 6.00 Build 0)  -->
<svg version="1.1" id="Capa_1" xmlns="http://www.w3.org/2000/svg" xmlns:xlink="http://www.w3.org/1999/xlink" x="0px" y="0px"
	 viewBox="0 0 19.393 19.393" style="enable-background:new 0 0 19.393 19.393;" xml:space="preserve">
<g>
	<g>
		<path style="fill:#090509;" d="M18.152,12.79v-1.112h-1.315v-1.112h-1.036V9.455H14.65V8.342h-1.391V7.229h-0.303V6.218h0.128
			l-0.231-0.912H6.541L6.309,6.218h0.127v1.011H6.131v1.114H4.74v1.115H3.59v1.111H2.554v1.112H1.239v1.114H0v1.294h19.393v-1.294
			h-1.239L18.152,12.79L18.152,12.79z M7.789,7.177H7.013V6.343h0.776V7.177z M8.483,13.673H8.052l0.563-6.228L8.83,7.396
			L8.483,13.673z M9.318,7.177H8.544V6.343h0.774V7.177z M10.072,6.343h0.776v0.833h-0.776V6.343z M10.909,13.673l-0.345-6.277
			l0.217,0.048l0.563,6.228L10.909,13.673L10.909,13.673z M12.377,7.177h-0.774V6.343h0.774V7.177z"/>
	</g>
</g>
<g>
</g>
<g>
</g>
<g>
</g>
<g>
</g>
<g>
</g>
<g>
</g>
<g>
</g>
<g>
</g>
<g>
</g>
<g>
</g>
<g>
</g>
<g>
</g>
<g>
</g>
<g>
</g>
<g>
</g>
</svg>
