<?xml version="1.0" encoding="iso-8859-1"?>
<!-- Generator: Adobe Illustrator 19.0.0, SVG Export Plug-In . SVG Version: 6.00 Build 0)  -->
<svg version="1.1" id="Capa_1" xmlns="http://www.w3.org/2000/svg" xmlns:xlink="http://www.w3.org/1999/xlink" x="0px" y="0px"
	 viewBox="0 0 470 470" style="enable-background:new 0 0 470 470;" xml:space="preserve">
<g>
	<path d="M156.011,212.5c4.142,0,7.5-3.357,7.5-7.5v-10c0-4.143-3.358-7.5-7.5-7.5s-7.5,3.357-7.5,7.5v10
		C148.511,209.143,151.869,212.5,156.011,212.5z"/>
	<path d="M383.511,220.616c-4.142,0-7.5,3.357-7.5,7.5v10c0,4.143,3.358,7.5,7.5,7.5s7.5-3.357,7.5-7.5v-10
		C391.011,223.974,387.653,220.616,383.511,220.616z"/>
	<path d="M413.589,134.425c-1.331-2.354-3.825-3.809-6.529-3.809h-23.549c-0.293,0-0.581,0.021-0.866,0.054
		c-0.074,0.009-0.146,0.023-0.22,0.034c-0.219,0.032-0.434,0.071-0.646,0.122c-0.036,0.009-0.073,0.011-0.109,0.021l-39.495,10
		c-3.328,0.843-5.659,3.837-5.659,7.271v16.894l-27.803,27.803c-1.407,1.407-2.197,3.314-2.197,5.304v82.5h-2.5
		c-4.142,0-7.5,3.357-7.5,7.5s3.358,7.5,7.5,7.5h111.079c-8.891,26.392-23.599,50.714-43.477,71.295
		c-2.878,2.979-2.795,7.727,0.184,10.604c1.456,1.406,3.333,2.105,5.209,2.105c1.963,0,3.924-0.766,5.396-2.29
		C419.547,338.88,440,288.332,440,235C440,199.766,430.867,164.987,413.589,134.425z M351.517,280.616v-52.5
		c0-4.143-3.358-7.5-7.5-7.5s-7.5,3.357-7.5,7.5v52.5h-15v-79.394l27.803-27.803c1.407-1.407,2.197-3.314,2.197-5.304v-14.162
		l24.495-6.202v50.364c0,4.143,3.358,7.5,7.5,7.5s7.5-3.357,7.5-7.5v-52.5h11.615C417.276,172.996,425,203.803,425,235
		c0,15.55-1.88,30.845-5.525,45.616H351.517z"/>
	<path d="M350.042,386.096C316.705,411.547,276.923,425,235,425c-93.881,0-173.276-68.424-187.68-160.366
		c11.265-2.217,21.561-8.215,29.707-17.284c10.491,11.584,24.673,18.267,39.476,18.267c14.808,0,29.002-6.691,39.504-18.291
		c10.494,11.6,24.686,18.291,39.499,18.291c14.828,0,29.023-6.689,39.511-18.284c10.493,11.595,24.682,18.284,39.491,18.284
		c3.764,0,7.525-0.423,11.18-1.258c4.038-0.922,6.564-4.942,5.643-8.98c-0.922-4.038-4.941-6.571-8.981-5.643
		c-2.561,0.584-5.199,0.881-7.841,0.881c-13.097,0-25.189-7.164-33.175-19.656c-1.378-2.155-3.76-3.46-6.319-3.46
		c-2.562,0.001-4.944,1.307-6.322,3.464c-6.425,10.065-15.529,16.663-25.686,18.848v-71.696c0-1.48-0.438-2.929-1.26-4.16
		l-19.279-28.919l-9.685-38.74c-0.834-3.339-3.834-5.681-7.276-5.681h-18.257l-26.933-13.232c-0.041-0.02-0.085-0.034-0.127-0.054
		c-0.175-0.082-0.353-0.157-0.536-0.226c-0.075-0.028-0.15-0.057-0.226-0.083c-0.185-0.063-0.375-0.117-0.566-0.166
		c-0.074-0.019-0.147-0.04-0.221-0.057c-0.201-0.045-0.406-0.078-0.613-0.106c-0.066-0.009-0.131-0.023-0.197-0.03
		c-0.27-0.029-0.543-0.047-0.821-0.047h-20.27c-1.965,0-3.852,0.771-5.254,2.147C51.836,127.681,30,179.616,30,235
		c0,7.904,0.473,15.954,1.404,23.928c5.81,49.56,29.564,95.242,66.903,128.717C135.964,421.407,184.509,440,235,440
		c45.241,0,88.17-14.518,124.145-41.982c3.292-2.513,3.923-7.22,1.41-10.512S353.336,383.581,350.042,386.096z M99.838,101.615h9.67
		v76.501c0,1.112,0.248,2.211,0.725,3.217l8.77,18.473v23.311c0,4.143,3.358,7.5,7.5,7.5s7.5-3.357,7.5-7.5v-25
		c0-1.112-0.248-2.211-0.725-3.217l-8.77-18.473v-70.27l17.69,8.691c1.029,0.506,2.161,0.769,3.307,0.769h14.144l8.58,34.319
		c0.208,0.834,0.559,1.626,1.036,2.341l18.74,28.11v69.423c-10.142-2.188-19.243-8.786-25.676-18.85
		c-1.377-2.154-3.758-3.459-6.316-3.46c-2.559,0-4.94,1.303-6.319,3.456c-8,12.494-20.097,19.66-33.191,19.66
		c-12.472,0-24.023-6.507-31.994-17.914V175c0-4.143-3.358-7.5-7.5-7.5s-7.5,3.357-7.5,7.5v57.708
		c-6.178,8.84-14.592,14.767-23.919,16.948C45.21,244.749,45,239.844,45,235C45,184.688,64.45,137.441,99.838,101.615z"/>
	<path d="M299.513,310.616h-10c-4.142,0-7.5,3.357-7.5,7.5s3.358,7.5,7.5,7.5h10c4.142,0,7.5-3.357,7.5-7.5
		S303.655,310.616,299.513,310.616z"/>
	<path d="M274.017,295.616c4.142,0,7.5-3.357,7.5-7.5s-3.358-7.5-7.5-7.5h-10c-4.142,0-7.5,3.357-7.5,7.5s3.358,7.5,7.5,7.5H274.017
		z"/>
	<path d="M358.49,310.616h-10c-4.142,0-7.5,3.357-7.5,7.5s3.358,7.5,7.5,7.5h10c4.142,0,7.5-3.357,7.5-7.5
		S362.632,310.616,358.49,310.616z"/>
	<path d="M129.003,288.116c0-4.143-3.358-7.5-7.5-7.5h-10c-4.142,0-7.5,3.357-7.5,7.5s3.358,7.5,7.5,7.5h10
		C125.646,295.616,129.003,292.259,129.003,288.116z"/>
	<path d="M239.265,368.956l-7.773,11.66h-5.986c-4.142,0-7.5,3.357-7.5,7.5s3.358,7.5,7.5,7.5h9.98c0.03,0,80.02,0,80.02,0
		c4.142,0,7.5-3.357,7.5-7.5s-3.358-7.5-7.5-7.5h-6.348l-21.248-27.125c-2.071-2.644-5.648-3.589-8.755-2.313l-36.5,15
		C241.273,366.747,240.093,367.714,239.265,368.956z M279.604,367.212l10.5,13.404h-40.584l0.956-1.434L279.604,367.212z"/>
	<path d="M125.505,355.616h9.96c0.063,0,70.04,0,70.04,0c4.142,0,7.5-3.357,7.5-7.5s-3.358-7.5-7.5-7.5h-2.5v-2.5
		c0-2.641-1.388-5.086-3.655-6.439l-33.5-20c-2.384-1.423-5.358-1.413-7.732,0.025l-16.5,10c-1.21,0.733-2.188,1.794-2.821,3.06
		l-7.927,15.854h-5.365c-4.142,0-7.5,3.357-7.5,7.5S121.363,355.616,125.505,355.616z M151.245,333.407l10.79-6.539l23.028,13.748
		h-37.422L151.245,333.407z"/>
	<path d="M401.17,68.83C356.785,24.444,297.771,0,235,0S113.215,24.444,68.83,68.83C24.444,113.216,0,172.229,0,235
		s24.444,121.784,68.83,166.17C113.215,445.556,172.229,470,235,470s121.785-24.444,166.17-68.83
		C445.556,356.784,470,297.771,470,235S445.556,113.216,401.17,68.83z M235,455c-121.309,0-220-98.691-220-220S113.691,15,235,15
		s220,98.691,220,220S356.309,455,235,455z"/>
</g>
<g>
</g>
<g>
</g>
<g>
</g>
<g>
</g>
<g>
</g>
<g>
</g>
<g>
</g>
<g>
</g>
<g>
</g>
<g>
</g>
<g>
</g>
<g>
</g>
<g>
</g>
<g>
</g>
<g>
</g>
</svg>
