<?xml version="1.0" encoding="iso-8859-1"?>
<!-- Generator: Adobe Illustrator 18.1.1, SVG Export Plug-In . SVG Version: 6.00 Build 0)  -->
<svg version="1.1" id="Capa_1" xmlns="http://www.w3.org/2000/svg" xmlns:xlink="http://www.w3.org/1999/xlink" x="0px" y="0px"
	 viewBox="0 0 16.008 16.008" style="enable-background:new 0 0 16.008 16.008;" xml:space="preserve">
<g>
	<g>
		<path style="fill:#030104;" d="M15.764,0.181c-0.145-0.055-0.31-0.014-0.413,0.104l-3.486,3.843L8.219,1.357
			c-0.148-0.113-0.358-0.1-0.491,0.033L4.407,4.702L0.64,1.84C0.532,1.734,0.371,1.702,0.231,1.759C0.091,1.817,0,1.954,0,2.105
			v10.247c0,0.1,0.04,0.195,0.11,0.266l4.033,3.125c0.073,0.072,0.168,0.109,0.264,0.109s0.192-0.037,0.265-0.109l3.353-3.346
			l3.665,2.785c0.155,0.119,0.378,0.096,0.508-0.051l3.717-4.105c0.06-0.068,0.093-0.156,0.093-0.248V0.532
			C16.007,0.376,15.91,0.236,15.764,0.181z M15.258,10.638l-3.394,3.736l-3.646-2.77c-0.148-0.113-0.358-0.1-0.491,0.033
			l-3.319,3.311L0.75,12.196V3.008l3.394,2.488c0.146,0.146,0.382,0.146,0.529,0L8.026,2.15l3.665,2.785
			c0.155,0.118,0.378,0.096,0.508-0.052l3.061-3.357v9.112H15.258z"/>
		<path style="fill:#030104;" d="M13.14,9.497c0.004-0.113,0.044-0.123,0.099-0.051c-0.042-0.283,0.107-0.287,0.172-0.412
			c-0.116-0.018-0.229-0.027-0.291,0.037C13.147,9.29,12.957,9.423,13.14,9.497z"/>
		<path style="fill:#030104;" d="M13.691,9.177c-0.161,0.287,0.373,0.291,0.249,0.566c0.142,0.156,0.243-0.068,0.337-0.035
			c0.029,0.012,0.053,0.389,0.184,0.137C14.339,9.417,13.973,9.29,13.691,9.177z"/>
		<path style="fill:#030104;" d="M13.858,10.222c-0.236-0.063,0.05-0.35-0.214-0.381c-0.331,0.223-0.654,0.455-1.005,0.648
			c0.024,0.309-0.118,0.623-0.055,0.783c0.236-0.053,0.468-0.111,0.686-0.189c0.047,0.172,0.259,0.166,0.211,0.441
			c0.281,0.229,0.431-0.125,0.641-0.254c0.43-0.262,0.034-1.057-0.048-1.396C13.986,9.966,14.03,10.251,13.858,10.222z"/>
		<path style="fill:#030104;" d="M13.568,11.651c0.002,0.092-0.032,0.221,0.031,0.246c0.05-0.104,0.183-0.088,0.207-0.227
			C13.688,11.669,13.651,11.773,13.568,11.651z"/>
		<path style="fill:#030104;" d="M9.334,5.461C9.35,5.462,9.365,5.455,9.381,5.453c-0.028-0.014-0.054-0.028-0.074-0.05
			C9.311,5.428,9.323,5.443,9.334,5.461z"/>
		<path style="fill:#030104;" d="M11.088,4.976c-0.021,0.026-0.041,0.05-0.062,0.071c-0.188,0.194-0.413,0.219-0.646,0.137
			c-0.075,0.132,0.106,0.236-0.017,0.241c-0.008-0.178-0.277-0.07-0.323-0.207c0.012-0.183,0.245-0.04,0.256-0.223
			C10.14,5.054,9.905,4.997,9.894,5.266c0.082,0.04,0.196,0.047,0.23,0.139C9.715,5.342,9.664,5.426,9.39,5.591
			C9.386,5.531,9.359,5.498,9.334,5.46C9.147,5.446,8.973,5.206,8.892,5.333C8.906,5.305,8.915,5.281,8.92,5.262l0,0
			c0.005-0.021,0.008-0.037,0.008-0.054C9.119,5.155,9.313,5.196,9.463,5.38c0.028-0.076,0.043-0.174,0.085-0.23
			C9.349,5.184,9.383,5.146,9.165,5.12c0.006-0.155-0.072-0.218-0.122-0.313C8.944,4.89,9.108,5.067,8.927,5.101
			C8.913,5.077,8.906,5.046,8.9,5.016C8.899,5.012,8.898,5.008,8.897,5.003C8.894,4.98,8.892,4.954,8.89,4.923
			c0.026,0.003,0.058-0.044,0.003-0.06c0.002,0.032-0.007,0.051-0.019,0.064C8.855,4.875,8.825,4.836,8.751,4.844
			c-0.014,0.162-0.129,0.28-0.202,0.165C8.56,4.914,8.673,4.971,8.656,4.836C8.423,4.345,8.037,4.792,7.824,5.073
			C8.043,5.042,8.205,4.927,8.5,5.006c-0.036,0.205,0.058,0.27,0.162,0.322c0.001-0.002,0.002-0.003,0.003-0.004
			C8.664,5.325,8.663,5.326,8.662,5.328l0,0C8.66,5.331,8.658,5.334,8.655,5.337C8.653,5.341,8.65,5.344,8.648,5.348
			C8.519,5.441,8.404,5.56,8.327,5.688c0.031,0.124,0.335,0.21,0.24,0.322l0,0C8.552,6.009,8.538,6.016,8.524,6.045
			C8.525,6.043,8.526,6.042,8.528,6.04C8.516,6.048,8.509,6.056,8.493,6.064C8.495,5.969,8.514,5.856,8.41,5.876
			C8.401,5.959,8.423,6.011,8.445,6.061C8.378,6.036,8.339,6.053,8.306,6.08C8.252,6.087,8.2,6.111,8.146,6.145
			c-0.02-0.14-0.174-0.133-0.114-0.358C7.919,5.931,7.715,5.942,7.668,6.183C7.887,6.222,7.81,6.09,7.972,5.964
			c-0.074,0.154-0.064,0.249,0.009,0.32C7.963,6.302,7.947,6.319,7.93,6.338C7.912,6.345,7.904,6.353,7.906,6.366
			C7.856,6.422,7.81,6.479,7.771,6.531c0.067-0.009,0.13-0.026,0.192-0.044c0.018,0.042,0.027,0.09,0.011,0.144
			C7.861,6.759,7.815,6.568,7.64,6.604C7.583,6.87,7.645,7.008,7.698,7.155c-1.013,0-0.797,0.628-0.319,1.187
			C7.66,8.401,7.858,9.004,8.056,8.941c-0.041,0.295,0.141,0.045,0.18,0.195c-0.097,0.551,0.29,0.783,0.012,1.211
			c0.056,0.424,0.13,0.826,0.256,1.172c0.731,0.127,0.697-0.869,1.089-1.24c0.001,0.051,0.007,0.102,0.024,0.154
			c0.249,0.016,0.372-0.725,0.249-0.828C9.774,9.769,9.602,10,9.593,10.248C9.561,10.109,9.508,9.99,9.536,9.783
			c0.144-0.365,0.662-0.531,0.553-1.047c-0.043,0.117-0.286,0.17-0.287-0.023c0.327-0.076,0.618-0.199,0.715-0.609
			c-0.096-0.025-0.118-0.131-0.179-0.196c-0.023,0.073-0.07,0.119-0.151,0.109c0.015-0.184-0.162-0.158-0.118-0.373
			c0.207,0.271,0.33,0.334,0.791,0.365c0.089,0.138,0.074,0.388,0.271,0.264c-0.076,0.231,0.046,0.678,0.181,0.862
			c0.078-0.129,0.14-0.281,0.134-0.535c0.238-0.002,0.251-0.338,0.502-0.324c0.096,0.232,0.194,0.462,0.272,0.712
			c0.05,0.166,0.094,0.34,0.123,0.531c-0.085-0.027-0.166-0.334-0.279-0.145c0.221,0.152,0.189,0.576,0.433,0.701
			c0.104-0.387-0.22-0.783-0.161-1.164c0.092,0.068,0.157,0.164,0.224,0.26c0.018-0.053,0.052-0.082,0.098-0.096
			c0.017,0.186,0.112,0.289,0.302,0.287c0.03-0.146,0.276-0.566,0.047-0.662c-0.099,0.076-0.154,0.213-0.276,0.256
			c0.025-0.26-0.184-0.262-0.117-0.568c0.187,0.166,0.199-0.094,0.435-0.026c0.015-0.105,0.053-0.177,0.092-0.245
			c0.017,0.239,0.281,0.208,0.257,0.492c-0.075,0-0.165-0.02-0.151,0.111c0.092-0.008,0.101,0.074,0.187,0.074
			c0.241-0.399-0.285-0.477-0.137-0.798c-0.03-0.002-0.061-0.005-0.091-0.008c0.006-0.012,0.013-0.023,0.017-0.037
			c-0.053-0.206-0.307-0.389-0.106-0.553c-0.084-0.021-0.244,0.042-0.183-0.136c0.047,0.004,0.06-0.044,0.1-0.053
			c-0.047,0.198,0.093,0.104,0.14,0.071c0.031,0.17,0.105,0.294,0.213,0.381c0.149-0.236-0.167-0.255-0.011-0.546
			c0.045,0.018,0.073,0.014,0.098,0.003c0.02,0.021,0.031,0.052,0.021,0.105c0.182-0.146,0.198-0.119,0.399-0.212
			c0.013-0.302-0.17-0.368-0.011-0.546c-0.091,0.007-0.102-0.076-0.188-0.075c-0.053,0.243,0.14,0.22,0.063,0.49
			c-0.013,0.007-0.027,0.012-0.041,0.018c-0.059-0.026,0.043-0.136,0.023-0.18c-0.05-0.103-0.145-0.025-0.188-0.074
			c0.04,0.044-0.05-0.245-0.318-0.268c-0.022-0.503,0.509,0.032,0.502-0.325c0.055,0.153,0.184-0.052,0.188,0.076
			c-0.054,0.337,0.07,0.479,0.249,0.565c0.072-0.303-0.063-0.379-0.158-0.498c0.152,0.003,0.22-0.119,0.391-0.091
			c0.089-0.207-0.16-0.049-0.131-0.191c0.086-0.166,0.214,0.144,0.291-0.038c-1.085-0.54-2.439-0.318-3.444-0.937
			C11.107,4.953,11.098,4.964,11.088,4.976z M8.634,5.403C8.635,5.42,8.643,5.436,8.661,5.452C8.643,5.436,8.635,5.42,8.634,5.403z
			 M8.791,5.4c0.022,0.003,0.045,0.006,0.065,0.006c0.01-0.018,0.016-0.031,0.022-0.046c-0.01,0.025-0.02,0.055-0.024,0.099
			C8.837,5.435,8.816,5.417,8.791,5.4c-0.001,0-0.003,0-0.004,0C8.788,5.4,8.79,5.4,8.791,5.4L8.791,5.4z M8.738,6.173
			c0.021,0.012,0.041,0.021,0.064,0.016C8.779,6.194,8.758,6.185,8.738,6.173z M8.742,5.396C8.737,5.395,8.733,5.397,8.728,5.397
			C8.734,5.397,8.738,5.396,8.742,5.396z M8.696,5.405C8.692,5.407,8.688,5.408,8.685,5.411C8.688,5.408,8.692,5.407,8.696,5.405z
			 M8.721,6.163C8.705,6.15,8.69,6.135,8.675,6.117C8.69,6.134,8.705,6.15,8.721,6.163z M8.916,5.123
			c-0.007-0.03-0.014-0.067-0.02-0.118C8.903,5.055,8.909,5.092,8.916,5.123z M8.844,4.948c0.012-0.005,0.022-0.01,0.03-0.02
			C8.866,4.938,8.856,4.943,8.844,4.948z M8.833,4.953C8.814,4.96,8.796,4.967,8.778,4.975C8.795,4.965,8.815,4.96,8.833,4.953z
			 M8.803,5.082C8.801,5.078,8.799,5.075,8.795,5.071C8.799,5.075,8.801,5.078,8.803,5.082z M8.767,4.981
			C8.752,4.992,8.741,5.006,8.738,5.033C8.74,5.006,8.752,4.992,8.767,4.981z M8.813,5.12c-0.001,0.002,0,0.004,0,0.006
			C8.813,5.124,8.812,5.122,8.813,5.12z M9.318,7.078c0.184,0.025,0.337,0.563,0.42,0.882C9.497,7.775,9.541,7.281,9.318,7.078z
			 M13.633,6.772c0.004,0.025,0.021,0.093,0.043,0.142c-0.046,0.017-0.092,0.034-0.133,0.059
			C13.561,6.887,13.573,6.796,13.633,6.772z"/>
		<path style="fill:#030104;" d="M9.381,5.453c0.043,0.021,0.093,0.036,0.161,0.029C9.519,5.44,9.489,5.413,9.463,5.38
			C9.454,5.403,9.444,5.425,9.432,5.443C9.415,5.452,9.398,5.45,9.381,5.453z"/>
		<path style="fill:#030104;" d="M12.844,9.597c0.123,0.082-0.203-0.193-0.373-0.15C12.424,9.681,12.727,9.536,12.844,9.597z"/>
		<path style="fill:#030104;" d="M7.302,5.036C7.067,5.074,7.46,4.928,7.365,4.844C7.318,4.855,7.258,4.907,7.234,4.848
			c0.313-0.171,0.059-0.556,0.334-0.743l-1.735,1.14C5.929,5.19,5.957,5.11,5.953,5.018C5.584,5.319,5.31,5.416,5.173,5.784
			C5.037,5.7,4.853,5.697,4.728,5.783c-0.036,0.12,0.046,0.115,0.068,0.174c-0.108-0.043-0.252,0.226-0.26,0.077
			c0.093-0.035-0.01-0.063-0.03-0.117C4.57,5.884,4.63,5.845,4.677,5.787C4.624,5.709,4.349,5.694,4.318,5.87
			c0.195-0.06-0.027,0.287-0.142,0.247c0.013-0.079-0.078-0.049-0.078-0.113c0.189-0.002,0.026-0.051,0.081-0.185
			C3.903,5.835,3.725,5.605,3.522,5.922C3.74,5.871,3.756,6.035,3.828,6.14c-0.115-0.095-0.54-0.103-0.776-0.068
			C2.653,6.13,1.956,5.859,1.825,6.332c0.011-0.141-0.214-0.021-0.209,0.074c0.057,0.005,0.144-0.021,0.139,0.05
			c-0.083,0.006-0.166,0.011-0.25,0.017C1.407,6.608,1.362,6.818,1.233,6.908c0.36-0.06,0.923-0.545,1.045-0.07
			c-0.035,0.29-0.186,0.416,0.016,0.475C1.976,7.428,1.855,7.79,1.81,8.12c-0.014,0.1,0.086,0.082,0.107,0.232
			c0.02,0.145-0.11,0.513,0.065,0.47c0.091-0.152-0.103-0.24,0.052-0.301c0.019,0.178,0.13,0.258,0.056,0.533
			C2.351,9.302,2.843,9.31,2.961,9.71c0.091,0.008,0.122-0.074,0.21-0.072c0.015,0.227-0.016,0.389-0.245,0.551
			c0.015,0.174,0.013,0.184-0.063,0.363c0.122,0.314,0.298,0.572,0.441,0.863c-0.082,0.496-0.148,0.977-0.143,1.379
			c0.11-0.119-0.081,0.559,0.305,0.518c-0.01,0.061-0.021,0.119-0.031,0.18c0.078-0.037,0.244,0.053,0.259-0.076
			c-0.336-0.094-0.229-0.783,0.168-0.965c0.031-0.113-0.034-0.129-0.008-0.236c0.082,0.094,0.064-0.012,0.2-0.014
			c0.055-0.246,0.238-0.311,0.254-0.613c0.11-0.041,0.168-0.158,0.32-0.139c0.094-0.443,0.313-0.705,0.438-1.102
			c-0.277-0.119-0.526-0.27-0.755-0.189c0.173-0.16,0.068-0.203,0.074-0.422c-0.322-0.002-0.57-0.393-0.923-0.355
			c-0.058,0.146-0.375,0.307-0.469,0.15C3.184,9.06,2.676,9.228,3.008,8.875C2.753,8.807,2.792,9.164,2.529,9.084
			C2.478,8.471,2.856,8.319,3.302,8.319C3.393,8.354,3.208,8.68,3.399,8.611c0.025-0.141,0.05-0.282,0.074-0.422
			c0.348-0.226,0.585-0.611,0.934-0.836c0.062,0.098,0.247,0.038,0.309-0.079C4.494,7.296,4.77,7.101,4.659,7.039
			c0.155,0.024,0.238-0.057,0.358-0.083C4.981,7.079,4.862,7.083,4.826,7.207c0.099-0.007,0.2-0.014,0.299-0.021
			C4.991,7.004,5.189,6.861,5.188,6.825C5.183,6.753,4.941,6.762,5.102,6.473C4.858,6.594,4.958,6.33,4.635,6.325
			c-0.125,0.297-0.314,0.5-0.514,0.689c0.127-0.293-0.187-0.253-0.204-0.522c0.212-0.07,0.402-0.316,0.619-0.16
			c0.044-0.17,0.222-0.309,0.422-0.444c0.066,0.028,0.105,0.085,0.118,0.171C4.997,6.07,4.905,6.062,4.905,6.189
			C4.889,6.272,4.906,6.32,4.924,6.367c0.201,0.014,0.2-0.266,0.431-0.207C5.366,6.02,5.32,5.916,5.249,5.842
			C5.52,5.668,5.565,5.456,5.773,5.44C5.731,5.443,5.67,5.572,5.686,5.57C5.987,5.521,6,5.342,6.296,5.581
			c-0.178,0.13-0.068,0.544,0.095,0.633c0.074-0.045,0.147-0.089,0.22-0.135C6.52,5.54,7.147,5.356,7.302,5.036z"/>
		<path style="fill:#030104;" d="M7.117,5.815C7.019,5.727,6.927,5.837,6.804,5.88C6.757,6.091,7.149,5.935,7.117,5.815z"/>
		<path style="fill:#030104;" d="M3.474,8.954C3.737,8.8,3.813,9.233,3.944,8.911C3.801,8.941,3.608,8.751,3.474,8.954z"/>
		<path style="fill:#030104;" d="M3.944,9.077C4.011,9.14,4.2,9.11,4.205,8.968C4.127,8.896,3.991,8.972,3.944,9.077z"/>
	</g>
</g>
<g>
</g>
<g>
</g>
<g>
</g>
<g>
</g>
<g>
</g>
<g>
</g>
<g>
</g>
<g>
</g>
<g>
</g>
<g>
</g>
<g>
</g>
<g>
</g>
<g>
</g>
<g>
</g>
<g>
</g>
</svg>
