<?xml version="1.0" encoding="iso-8859-1"?>
<!-- Generator: Adobe Illustrator 18.1.1, SVG Export Plug-In . SVG Version: 6.00 Build 0)  -->
<svg version="1.1" id="Capa_1" xmlns="http://www.w3.org/2000/svg" xmlns:xlink="http://www.w3.org/1999/xlink" x="0px" y="0px"
	 viewBox="0 0 40.287 40.287" style="enable-background:new 0 0 40.287 40.287;" xml:space="preserve">
<g>
	<g>
		<path d="M27.062,24.815l3.062,2.971c-2.308,1.803-4.347,4.039-7.778,4.039c0.062,0,0.045-8.685,0.022-14.551h2.715v-1.601h-2.72
			c-0.006-1.212-0.01-2.222-0.014-2.867c2.684-0.879,4.629-3.313,4.629-6.215c0-3.64-3.041-6.591-6.789-6.591
			C16.439,0,13.4,2.951,13.4,6.591c0,2.856,1.886,5.269,4.509,6.178v2.904h-2.706v1.601h2.706l0.009,14.479
			c-3.589,0-5.686-2.054-7.984-3.76l3.275-3.179L1.325,23.063l1.804,11.53l3.159-3.064c2.575,2.08,5.956,4.932,12.557,5.25
			l0.601,3.508h1.395l0.604-3.514c6.476-0.358,9.779-3.263,12.348-5.429l3.46,3.355l1.709-11.637L27.062,24.815z M16.687,6.488
			c0-1.875,1.568-3.398,3.502-3.398s3.5,1.523,3.5,3.398c0,1.876-1.566,3.398-3.5,3.398C18.256,9.888,16.687,8.364,16.687,6.488z"/>
	</g>
	<g>
	</g>
	<g>
	</g>
	<g>
	</g>
	<g>
	</g>
	<g>
	</g>
	<g>
	</g>
	<g>
	</g>
	<g>
	</g>
	<g>
	</g>
	<g>
	</g>
	<g>
	</g>
	<g>
	</g>
	<g>
	</g>
	<g>
	</g>
	<g>
	</g>
</g>
<g>
</g>
<g>
</g>
<g>
</g>
<g>
</g>
<g>
</g>
<g>
</g>
<g>
</g>
<g>
</g>
<g>
</g>
<g>
</g>
<g>
</g>
<g>
</g>
<g>
</g>
<g>
</g>
<g>
</g>
</svg>
