<?xml version="1.0" encoding="iso-8859-1"?>
<!-- Generator: Adobe Illustrator 16.0.0, SVG Export Plug-In . SVG Version: 6.00 Build 0)  -->
<!DOCTYPE svg PUBLIC "-//W3C//DTD SVG 1.1//EN" "http://www.w3.org/Graphics/SVG/1.1/DTD/svg11.dtd">
<svg version="1.1" id="Capa_1" xmlns="http://www.w3.org/2000/svg" xmlns:xlink="http://www.w3.org/1999/xlink" x="0px" y="0px"
	 width="580.582px" height="580.582px" viewBox="0 0 580.582 580.582" style="enable-background:new 0 0 580.582 580.582;"
	 xml:space="preserve">
<g>
	<g>
		<path d="M11.67,222.773c-1.562,0.902-3.121,1.799-4.675,2.648c-2.628,1.432-5.61,4.851-6.059,8.107
			c-1.02,7.373-1.003,14.811-0.873,20.469c0.061,2.652,2.905,4.961,4.594,6.104c5.112,3.447,7.397,7.336,7.413,12.599
			c0.021,6.834,7.833,14.508,16.394,16.104c1.812,0.339,3.644,0.478,5.418,0.612c0.306,0.025,0.616,0.049,0.926,0.074
			c2,9.34,4.562,11.158,14.207,11.158h0.576c1.828,0,3.129,0.363,3.574,0.996c0.384,0.543,0.322,1.596-0.171,2.963
			c-0.216,0.6-0.139,1.268,0.208,1.803c0.347,0.535,0.926,0.877,1.559,0.922l14.945,1.105l-1.697,4.766
			c-0.245,0.686-0.102,1.449,0.367,2.004c0.469,0.551,1.204,0.824,1.917,0.686c1.004-0.18,1.95-0.393,2.86-0.596
			c2.656-0.596,4.777-0.703,7.107-0.828c2.073-0.127,4.007-0.074,4.427,0.469c0.18,0.236,0.698,1.264-0.208,4.703
			c-1.285,4.885,2.424,9.883,9.025,12.154c1.277,0.441,2.677,0.801,4.109,1.164c5.035,1.285,9.796,2.496,11.236,7.816
			c0.29,1.068,1.371,1.705,2.452,1.449c1.448-0.355,2.901-0.801,4.353-1.248c3.032-0.936,5.892-1.812,8.646-1.812l0.429,0.004
			c2.113,0.078,4.463,1.303,7.185,2.721c1.473,0.768,3.048,1.588,4.782,2.344c0.588,0.252,1.261,0.219,1.816-0.096
			c0.2-0.113,1.012-0.48,3.088-0.48c5.149,0,10.628,2.027,11.2,2.893c0.126,0.783,0.698,1.424,1.46,1.637
			c2.713,0.762,5.484,1.15,8.246,1.15c8.715,0,16.132-3.68,23.309-7.238c2.489-1.236,4.859-2.412,7.213-3.395l13.823,16.943
			c0.657,0.809,1.808,0.996,2.685,0.426c1.069-0.686,2.158-1.482,3.272-2.293c2.464-1.801,5.01-3.66,7.74-4.57
			c2.668-0.885,5.81-0.938,9.135-0.996c1.636-0.027,3.325-0.057,5.055-0.176c0.942-0.064,1.718-0.77,1.869-1.701
			c0.375-2.252,1.628-4.365,8.205-4.576l0.412-0.006c2.04,0,3.733,0.486,4.81,1.352c-7.948,27.654-25.602,49.996-40.135,66.395
			l-5.194,5.598c-3.015,3.246-6.034,6.49-8.988,9.727c-3.631,3.799-7.283,7.551-10.91,11.277c-4.133,4.25-8.237,8.465-12.236,12.668
			c-1.163,1.225-1.477,2.934-0.824,4.459c1.126,2.631,4.794,3.473,6.797,1.367c3.913-4.117,7.919-8.242,11.955-12.395
			c7.723-7.953,15.708-16.174,23.235-24.541c1.216-1.225,2.419-2.461,3.599-3.727c11.22-12.064,20.323-22.424,28.291-33.777
			c3.341-4.762,5.149-10.514,6.899-16.08c0.808-2.574,1.616-5.152,2.575-7.625l0.596-1.551c1.057-2.77,2.052-5.385,3.509-7.686
			c0.449-0.715,1.587-1.359,2.685-1.98c0.078-0.045,0.155-0.084,0.232-0.135c0.069,0.086,0.139,0.172,0.204,0.258
			c0.849,1.053,1.648,2.049,1.856,2.945c0.645,2.812,1.122,5.75,1.583,8.594c0.645,3.98,1.314,8.094,2.464,12.064
			c2.754,9.498,6.112,19.4,10.563,31.162c2.269,5.994,4.827,11.754,7.54,17.85l2.101,4.742c0.649,1.48,3.085,1.48,3.733,0
			l2.102-4.742c2.713-6.1,5.271-11.859,7.539-17.85c4.451-11.762,7.809-21.668,10.562-31.162c1.156-3.971,1.82-8.088,2.465-12.068
			c0.461-2.84,0.936-5.781,1.584-8.59c0.207-0.9,1.008-1.896,1.855-2.949c0.07-0.086,0.135-0.172,0.205-0.258
			c0.076,0.045,0.154,0.09,0.232,0.135c1.098,0.621,2.23,1.266,2.684,1.979c1.453,2.303,2.453,4.922,3.51,7.691l0.596,1.547
			c0.959,2.473,1.766,5.051,2.574,7.625c1.75,5.564,3.557,11.318,6.898,16.08c7.965,11.354,17.07,21.717,28.291,33.781
			c1.176,1.266,2.379,2.502,3.525,3.652c7.598,8.441,15.586,16.662,23.305,24.615c4.035,4.156,8.041,8.277,11.955,12.395
			c0.791,0.832,1.818,1.289,2.896,1.289c1.648,0,3.215-1.068,3.896-2.656c0.656-1.525,0.338-3.234-0.824-4.459
			c-3.998-4.207-8.104-8.422-12.236-12.668c-3.627-3.73-7.279-7.479-10.881-11.246c-2.986-3.268-6.006-6.516-9.021-9.762
			l-5.164-5.566c-14.562-16.426-32.217-38.771-40.164-66.426c1.076-0.865,2.77-1.352,4.811-1.352l0.408,0.006
			c6.58,0.211,7.832,2.324,8.209,4.576c0.154,0.932,0.93,1.637,1.867,1.701c1.73,0.119,3.42,0.148,5.057,0.176
			c3.324,0.057,6.467,0.111,9.135,0.996c2.729,0.906,5.279,2.766,7.738,4.57c1.115,0.814,2.205,1.607,3.273,2.293
			c0.877,0.566,2.031,0.375,2.684-0.426l13.824-16.943c2.35,0.982,4.725,2.158,7.213,3.395c7.178,3.562,14.594,7.242,23.309,7.242
			c2.764,0,5.533-0.389,8.246-1.15c0.768-0.217,1.281-0.686,1.412-1.469c0.619-1.033,6.104-3.061,11.252-3.061
			c2.076,0,2.889,0.367,3.09,0.48c0.559,0.314,1.23,0.348,1.814,0.096c1.734-0.76,3.309-1.576,4.781-2.344
			c2.723-1.418,5.076-2.643,7.186-2.721l0.428-0.004c2.754,0,5.615,0.881,8.646,1.812c1.453,0.447,2.904,0.893,4.354,1.248
			c1.064,0.252,2.162-0.381,2.451-1.449c1.441-5.32,6.203-6.531,11.236-7.816c1.434-0.363,2.828-0.723,4.109-1.164
			c6.602-2.268,10.311-7.266,9.025-12.154c-0.906-3.439-0.393-4.467-0.209-4.699c0.42-0.547,2.359-0.592,4.428-0.473
			c2.207,0.129,4.377,0.223,7.107,0.828c0.908,0.203,1.855,0.416,2.859,0.596c0.693,0.125,1.443-0.135,1.918-0.686
			c0.469-0.555,0.607-1.318,0.367-2.004l-1.697-4.766l14.945-1.105c0.635-0.045,1.211-0.387,1.559-0.922
			c0.346-0.535,0.424-1.199,0.207-1.803c-0.494-1.367-0.555-2.42-0.172-2.963c0.445-0.633,1.746-0.996,3.645-0.996h0.506
			c9.648,0,12.207-1.818,14.207-11.158c0.309-0.024,0.615-0.049,0.926-0.074c1.773-0.134,3.602-0.277,5.418-0.612
			c8.561-1.595,16.373-9.27,16.393-16.104c0.018-5.268,2.303-9.151,7.414-12.599c1.689-1.143,4.533-3.452,4.594-6.104
			c0.131-5.655,0.146-13.093-0.873-20.47c-0.449-3.251-3.432-6.675-6.055-8.103c-1.555-0.849-3.113-1.747-4.676-2.648
			c-5.984-3.448-12.17-7.014-18.865-8.274c-18.512-3.493-34.994-5.386-50.393-5.79c-4.867-0.126-9.73-0.22-14.594-0.314
			c-21.078-0.412-42.873-0.836-64.182-4.019c-13.914-2.081-28.166-3.223-41.951-4.329c-6.148-0.494-12.293-0.988-18.43-1.563
			c-1.66-0.155-3.32-0.293-4.982-0.432c-3.623-0.302-7.363-0.616-10.994-1.106c-0.527-0.069-1.258-0.506-2.037-1.195
			c0.062-0.167,0.111-0.306,0.102-0.327c0.947-0.571,1.891-1.163,2.836-1.754c3.203-2.003,6.516-4.072,9.678-5.312
			c3.727-0.91,7.549-1.448,11.244-1.966l1.139-0.164c10.973-1.559,20.326-5.295,28.594-11.416
			c14.369-10.641,23.289-27.817,23.859-45.953c0.033-1.13-0.352-2.171-1.094-2.934c-0.758-0.783-1.855-1.232-3.012-1.232
			c-2.346,0-4.164,1.734-4.238,4.035c-0.633,20.184-13.848,38.797-32.877,46.32l-0.66,0.257c-1.881,0.461-3.791,0.861-5.695,1.265
			c-2.795,0.587-5.68,1.195-8.25,1.938l-1.061,0.171c-12.494,2.04-26.619,4.349-31.959,18.397c-2.705,1.293-5.549,1.403-9.176,1.403
			c-0.004,0-0.008,0-0.018,0c-4.43-0.008-8.119-1.444-10.668-4.153c-2.615-2.774-3.855-6.671-3.592-11.273
			c0.018-0.306,0.393-7.519-2.818-8.307c-5.721-1.403-7.965-6.087-9.939-10.216l-0.637-1.318c-0.252-0.51-0.709-0.894-1.26-1.053
			c-0.539-0.159-1.139-0.082-1.629,0.216l-1.06,0.641l-1.065-0.641c-0.494-0.294-1.085-0.375-1.628-0.216
			c-0.551,0.159-1.008,0.543-1.261,1.053l-0.636,1.318c-1.975,4.133-4.219,8.813-9.939,10.216c-3.215,0.788-2.84,8.001-2.819,8.311
			c0.261,4.602-0.979,8.499-3.59,11.273c-2.55,2.709-6.238,4.141-10.967,4.153c-3.358,0-6.185-0.11-8.894-1.403
			c-5.341-14.043-19.466-16.357-31.959-18.397l-0.836-0.122c-2.794-0.792-5.683-1.399-8.474-1.987
			c-1.905-0.404-3.811-0.804-5.765-1.301l-0.591-0.22c-19.029-7.524-32.24-26.137-32.876-46.32
			c-0.074-2.301-1.894-4.035-4.239-4.035c-1.155,0-2.256,0.449-3.011,1.232c-0.738,0.763-1.126,1.804-1.093,2.934
			c0.571,18.132,9.49,35.312,23.86,45.953c8.266,6.12,17.617,9.857,28.592,11.416l1.139,0.163c3.696,0.518,7.52,1.061,10.991,1.889
			c3.415,1.318,6.728,3.39,9.931,5.39c0.942,0.591,1.889,1.183,2.66,1.62c0.077,0.085,0.175,0.27,0.265,0.469
			c-0.775,0.686-1.501,1.114-2.024,1.187c-3.631,0.49-7.376,0.804-10.996,1.106c-1.661,0.139-3.321,0.277-4.981,0.433
			c-6.136,0.575-12.281,1.069-18.43,1.562c-13.786,1.105-28.042,2.248-41.95,4.329c-21.31,3.183-43.105,3.607-64.183,4.019
			c-4.863,0.094-9.727,0.188-14.594,0.314c-15.394,0.404-31.877,2.293-50.392,5.79C23.845,215.759,17.655,219.326,11.67,222.773z"/>
	</g>
</g>
<g>
</g>
<g>
</g>
<g>
</g>
<g>
</g>
<g>
</g>
<g>
</g>
<g>
</g>
<g>
</g>
<g>
</g>
<g>
</g>
<g>
</g>
<g>
</g>
<g>
</g>
<g>
</g>
<g>
</g>
</svg>
