<?xml version="1.0" encoding="iso-8859-1"?>
<!-- Generator: Adobe Illustrator 17.1.0, SVG Export Plug-In . SVG Version: 6.00 Build 0)  -->
<!DOCTYPE svg PUBLIC "-//W3C//DTD SVG 1.1//EN" "http://www.w3.org/Graphics/SVG/1.1/DTD/svg11.dtd">
<svg version="1.1" id="Capa_1" xmlns="http://www.w3.org/2000/svg" xmlns:xlink="http://www.w3.org/1999/xlink" x="0px" y="0px"
	 viewBox="0 0 298 298" style="enable-background:new 0 0 298 298;" xml:space="preserve">
<g>
	<g>
		<g>
			<path d="M298,222.5c-19,0-28.678-6.725-36.711-12.128c-6.795-4.57-11.704-7.872-22.759-7.872
				c-11.055,0-15.963,3.302-22.758,7.872c-8.033,5.403-18.032,12.128-36.712,12.128c-18.68,0-28.676-6.725-36.709-12.128
				c-6.794-4.57-11.704-7.872-22.757-7.872c-11.053,0-15.961,3.302-22.755,7.872c-8.032,5.403-18.031,12.128-36.71,12.128
				s-29.009-6.725-37.041-12.128C16.294,205.802,11,202.5,0,202.5v-25c19,0,29.009,6.725,37.041,12.128
				c6.795,4.57,11.869,7.872,22.922,7.872c11.054,0,16.045-3.302,22.839-7.872c8.032-5.403,18.072-12.128,36.751-12.128
				s28.697,6.725,36.73,12.128c6.794,4.57,11.714,7.872,22.768,7.872c11.055,0,15.968-3.302,22.762-7.872
				c8.033-5.403,18.035-12.128,36.715-12.128s28.68,6.725,36.713,12.128C282.035,194.198,287,197.5,298,197.5V222.5z"/>
		</g>
	</g>
	<g>
		<g>
			<path d="M298,171.5c-19,0-28.678-6.725-36.711-12.128c-6.795-4.57-11.704-7.872-22.759-7.872
				c-11.055,0-15.963,3.302-22.758,7.872c-8.033,5.403-18.032,12.128-36.712,12.128c-18.68,0-28.676-6.725-36.709-12.128
				c-6.794-4.57-11.704-7.872-22.757-7.872c-11.053,0-15.961,3.302-22.755,7.872c-8.032,5.403-18.031,12.128-36.71,12.128
				s-29.009-6.725-37.041-12.128C16.294,154.802,11,151.5,0,151.5v-25c19,0,29.009,6.725,37.041,12.128
				c6.795,4.57,11.869,7.872,22.922,7.872c11.054,0,16.045-3.302,22.839-7.872c8.032-5.403,18.072-12.128,36.751-12.128
				s28.697,6.725,36.73,12.128c6.794,4.57,11.714,7.872,22.768,7.872c11.055,0,15.968-3.302,22.762-7.872
				c8.033-5.403,18.035-12.128,36.715-12.128s28.68,6.725,36.713,12.128C282.035,143.198,287,146.5,298,146.5V171.5z"/>
		</g>
	</g>
	<g>
		<g>
			<path d="M298,120.5c-19,0-28.678-6.725-36.711-12.128c-6.795-4.57-11.704-7.872-22.759-7.872
				c-11.055,0-15.963,3.302-22.758,7.872c-8.033,5.403-18.032,12.128-36.712,12.128c-18.68,0-28.676-6.725-36.709-12.128
				c-6.794-4.57-11.704-7.872-22.757-7.872c-11.053,0-15.961,3.302-22.755,7.872c-8.032,5.403-18.031,12.128-36.71,12.128
				s-29.009-6.725-37.041-12.128C16.294,103.802,11,100.5,0,100.5v-25c19,0,29.009,6.725,37.041,12.128
				c6.795,4.57,11.869,7.872,22.922,7.872c11.054,0,16.045-3.302,22.839-7.872c8.032-5.403,18.072-12.128,36.751-12.128
				s28.697,6.725,36.73,12.128c6.794,4.57,11.714,7.872,22.768,7.872c11.055,0,15.968-3.302,22.762-7.872
				c8.033-5.403,18.035-12.128,36.715-12.128s28.68,6.725,36.713,12.128C282.035,92.198,287,95.5,298,95.5V120.5z"/>
		</g>
	</g>
</g>
<g>
</g>
<g>
</g>
<g>
</g>
<g>
</g>
<g>
</g>
<g>
</g>
<g>
</g>
<g>
</g>
<g>
</g>
<g>
</g>
<g>
</g>
<g>
</g>
<g>
</g>
<g>
</g>
<g>
</g>
</svg>
