<?xml version="1.0" encoding="iso-8859-1"?>
<!-- Generator: Adobe Illustrator 19.0.0, SVG Export Plug-In . SVG Version: 6.00 Build 0)  -->
<svg version="1.1" id="Capa_1" xmlns="http://www.w3.org/2000/svg" xmlns:xlink="http://www.w3.org/1999/xlink" x="0px" y="0px"
	 viewBox="0 0 512 512" style="enable-background:new 0 0 512 512;" xml:space="preserve">
<g>
	<g>
		<path d="M501.916,131.291L380.561,9.936C374.153,3.529,365.634,0,356.571,0s-17.582,3.529-23.99,9.936
			c-6.409,6.408-9.937,14.927-9.937,23.99c0,9.062,3.529,17.582,9.937,23.99L453.938,179.27c6.408,6.408,14.926,9.936,23.989,9.936
			c9.062,0,17.582-3.529,23.99-9.936C515.143,166.042,515.143,144.519,501.916,131.291z"/>
	</g>
</g>
<g>
	<g>
		<path d="M370.087,249.299l-24.276-9.804c-13.752-5.453-24.337-16.718-28.954-30.872l-0.764-2.343
			c-2.126-6.521-7.364-11.426-14.009-13.123c-16.79-4.286-30.35-17.247-35.391-33.826l-0.059-0.2l-4.436-15.353
			c-1.682-5.821-8.992-7.703-13.277-3.42L25.573,363.708c-33.879,33.879-33.879,89.003,0,122.882
			C42.513,503.53,64.763,512,87.013,512c22.251,0,44.502-8.47,61.441-25.409l224.28-224.28
			C376.768,258.276,375.376,251.435,370.087,249.299z M85.351,430.687c-0.05,0.49-0.12,0.979-0.22,1.459
			c-0.09,0.47-0.22,0.949-0.36,1.419c-0.14,0.47-0.31,0.929-0.49,1.379c-0.19,0.45-0.4,0.899-0.629,1.329s-0.48,0.859-0.749,1.259
			c-0.27,0.41-0.569,0.809-0.879,1.189s-0.639,0.749-0.989,1.089c-0.34,0.35-0.709,0.679-1.089,0.989s-0.779,0.599-1.189,0.879
			c-0.4,0.27-0.829,0.519-1.259,0.749s-0.879,0.44-1.329,0.629c-0.45,0.18-0.909,0.35-1.379,0.49c-0.47,0.14-0.949,0.26-1.419,0.36
			c-0.48,0.1-0.969,0.17-1.459,0.22c-0.49,0.05-0.979,0.07-1.469,0.07c-0.49,0-0.989-0.02-1.479-0.07
			c-0.49-0.05-0.969-0.12-1.459-0.22c-0.47-0.1-0.949-0.22-1.419-0.36c-0.47-0.14-0.929-0.31-1.379-0.49
			c-0.45-0.19-0.899-0.4-1.329-0.629c-0.43-0.23-0.859-0.48-1.259-0.749c-0.41-0.28-0.809-0.569-1.189-0.879
			s-0.749-0.639-1.089-0.989c-0.35-0.34-0.679-0.709-0.989-1.089s-0.609-0.779-0.879-1.189c-0.27-0.4-0.519-0.829-0.749-1.259
			c-0.23-0.43-0.44-0.879-0.629-1.329c-0.18-0.45-0.35-0.909-0.49-1.379c-0.14-0.47-0.27-0.949-0.36-1.419
			c-0.1-0.48-0.17-0.969-0.22-1.459c-0.05-0.49-0.08-0.989-0.08-1.479c0-0.48,0.03-0.979,0.08-1.469
			c0.05-0.49,0.12-0.979,0.22-1.459c0.09-0.47,0.22-0.949,0.36-1.419c0.14-0.47,0.31-0.929,0.49-1.379
			c0.19-0.45,0.4-0.899,0.629-1.329c0.23-0.43,0.48-0.849,0.749-1.259c0.27-0.41,0.569-0.809,0.879-1.189s0.639-0.739,0.989-1.089
			c0.34-0.35,0.709-0.679,1.089-0.989s0.779-0.599,1.189-0.879c0.4-0.27,0.829-0.519,1.259-0.749c0.43-0.23,0.879-0.44,1.329-0.629
			c0.45-0.18,0.909-0.35,1.379-0.49c0.47-0.14,0.949-0.26,1.419-0.36c0.49-0.1,0.969-0.17,1.459-0.22c0.979-0.1,1.968-0.1,2.947,0
			c0.49,0.05,0.979,0.12,1.459,0.22c0.47,0.1,0.949,0.22,1.419,0.36c0.47,0.14,0.929,0.31,1.379,0.49
			c0.45,0.19,0.899,0.4,1.329,0.629s0.859,0.48,1.259,0.749c0.41,0.28,0.809,0.569,1.189,0.879s0.749,0.639,1.089,0.989
			c0.35,0.35,0.679,0.709,0.989,1.089s0.609,0.779,0.879,1.189s0.519,0.829,0.749,1.259s0.44,0.879,0.629,1.329
			c0.18,0.45,0.35,0.909,0.49,1.379c0.14,0.47,0.27,0.949,0.36,1.419c0.1,0.48,0.17,0.969,0.22,1.459
			c0.05,0.49,0.08,0.989,0.08,1.469C85.431,429.698,85.401,430.198,85.351,430.687z M106.47,389.907c-0.49,0-0.989-0.03-1.479-0.07
			c-0.479-0.05-0.969-0.13-1.449-0.22c-0.48-0.1-0.959-0.22-1.429-0.36c-0.46-0.15-0.929-0.31-1.379-0.5
			c-0.45-0.19-0.899-0.4-1.329-0.629c-0.43-0.23-0.849-0.48-1.259-0.749c-0.41-0.27-0.809-0.56-1.179-0.869
			c-0.38-0.32-0.749-0.649-1.099-0.989c-0.34-0.35-0.679-0.719-0.989-1.099s-0.599-0.779-0.869-1.189
			c-0.27-0.4-0.529-0.829-0.759-1.259c-0.22-0.43-0.44-0.869-0.619-1.319c-0.19-0.46-0.36-0.919-0.5-1.389
			c-0.14-0.46-0.26-0.939-0.36-1.419c-0.09-0.48-0.17-0.969-0.22-1.459c-0.05-0.49-0.07-0.979-0.07-1.469
			c0-0.49,0.02-0.989,0.07-1.479c0.05-0.48,0.13-0.969,0.22-1.449c0.1-0.48,0.22-0.959,0.36-1.429c0.14-0.46,0.31-0.929,0.5-1.379
			c0.18-0.45,0.4-0.899,0.619-1.329c0.23-0.43,0.49-0.849,0.759-1.259c0.27-0.41,0.559-0.799,0.869-1.179s0.649-0.749,0.989-1.099
			c0.35-0.34,0.719-0.679,1.099-0.989c0.37-0.31,0.769-0.599,1.179-0.869s0.829-0.529,1.259-0.759c0.43-0.22,0.879-0.44,1.329-0.619
			c0.45-0.19,0.919-0.36,1.379-0.5c0.47-0.14,0.949-0.26,1.429-0.36c0.48-0.09,0.969-0.17,1.449-0.22c0.979-0.1,1.968-0.1,2.947,0
			c0.49,0.05,0.979,0.13,1.459,0.22c0.48,0.1,0.959,0.22,1.419,0.36c0.47,0.14,0.929,0.31,1.379,0.5
			c0.46,0.18,0.899,0.4,1.329,0.619c0.43,0.23,0.859,0.49,1.259,0.759c0.41,0.27,0.809,0.559,1.189,0.869s0.749,0.649,1.089,0.989
			c0.35,0.35,0.679,0.719,0.989,1.099s0.609,0.769,0.879,1.179c0.27,0.41,0.519,0.829,0.749,1.259c0.23,0.43,0.44,0.879,0.629,1.329
			c0.19,0.45,0.35,0.919,0.49,1.379c0.15,0.47,0.27,0.949,0.36,1.429c0.1,0.48,0.18,0.969,0.22,1.449
			c0.05,0.49,0.08,0.989,0.08,1.479c0,0.49-0.03,0.979-0.08,1.469c-0.04,0.49-0.12,0.979-0.22,1.459
			c-0.09,0.48-0.21,0.959-0.36,1.419c-0.14,0.47-0.3,0.929-0.49,1.389c-0.19,0.45-0.4,0.889-0.629,1.319
			c-0.23,0.43-0.48,0.859-0.749,1.259c-0.27,0.41-0.569,0.809-0.879,1.189s-0.639,0.749-0.989,1.099
			c-0.34,0.34-0.709,0.669-1.089,0.989c-0.38,0.31-0.779,0.599-1.189,0.869c-0.4,0.27-0.829,0.519-1.259,0.749
			c-0.43,0.23-0.869,0.44-1.329,0.629c-0.45,0.19-0.909,0.35-1.379,0.5c-0.46,0.14-0.939,0.26-1.419,0.36
			c-0.479,0.09-0.969,0.17-1.459,0.22C107.449,389.877,106.96,389.907,106.47,389.907z M139.038,433.514
			c-0.05,0.48-0.12,0.969-0.22,1.449c-0.1,0.48-0.22,0.959-0.36,1.429c-0.14,0.46-0.31,0.929-0.49,1.379
			c-0.19,0.45-0.4,0.899-0.629,1.329c-0.23,0.43-0.48,0.849-0.749,1.259c-0.27,0.41-0.569,0.809-0.879,1.179
			c-0.31,0.39-0.639,0.749-0.989,1.099c-0.34,0.35-0.709,0.679-1.089,0.989s-0.779,0.599-1.189,0.879
			c-0.4,0.27-0.829,0.519-1.259,0.749c-0.43,0.23-0.879,0.44-1.329,0.629c-0.45,0.18-0.909,0.35-1.379,0.49
			c-0.47,0.14-0.949,0.26-1.419,0.36c-0.479,0.1-0.969,0.17-1.459,0.22s-0.989,0.08-1.469,0.08c-0.49,0-0.989-0.03-1.479-0.08
			c-0.49-0.05-0.979-0.12-1.459-0.22c-0.47-0.1-0.949-0.22-1.419-0.36c-0.47-0.14-0.929-0.31-1.379-0.49
			c-0.45-0.19-0.899-0.4-1.329-0.629s-0.849-0.48-1.259-0.749c-0.41-0.28-0.809-0.569-1.189-0.879s-0.739-0.639-1.089-0.989
			c-0.35-0.35-0.679-0.709-0.989-1.099c-0.31-0.37-0.599-0.769-0.879-1.179c-0.27-0.41-0.52-0.829-0.749-1.259
			c-0.23-0.43-0.44-0.879-0.619-1.329c-0.19-0.45-0.36-0.919-0.5-1.379c-0.14-0.47-0.26-0.949-0.36-1.429
			c-0.1-0.479-0.17-0.969-0.22-1.449c-0.05-0.49-0.07-0.989-0.07-1.479c0-0.49,0.02-0.979,0.07-1.469
			c0.05-0.49,0.12-0.979,0.22-1.459c0.1-0.47,0.22-0.949,0.36-1.419c0.14-0.47,0.31-0.929,0.5-1.379
			c0.18-0.45,0.39-0.899,0.619-1.329c0.23-0.43,0.479-0.859,0.749-1.259c0.28-0.41,0.569-0.809,0.879-1.189s0.639-0.749,0.989-1.089
			c0.35-0.35,0.709-0.679,1.089-0.989s0.779-0.609,1.189-0.879s0.829-0.519,1.259-0.749s0.879-0.44,1.329-0.629
			c0.45-0.18,0.909-0.35,1.379-0.49c0.47-0.14,0.949-0.27,1.419-0.36c0.48-0.1,0.969-0.17,1.459-0.22c0.979-0.1,1.968-0.1,2.947,0
			c0.49,0.05,0.979,0.12,1.459,0.22c0.47,0.09,0.949,0.22,1.419,0.36c0.47,0.14,0.929,0.31,1.379,0.49
			c0.45,0.19,0.899,0.4,1.329,0.629c0.43,0.23,0.859,0.48,1.259,0.749c0.41,0.27,0.809,0.569,1.189,0.879s0.749,0.639,1.089,0.989
			c0.35,0.34,0.679,0.709,0.989,1.089c0.31,0.38,0.609,0.779,0.879,1.189c0.27,0.4,0.519,0.829,0.749,1.259
			c0.23,0.43,0.44,0.879,0.629,1.329c0.18,0.45,0.35,0.909,0.49,1.379s0.26,0.949,0.36,1.419c0.1,0.48,0.17,0.969,0.22,1.459
			c0.05,0.49,0.07,0.979,0.07,1.469C139.108,432.525,139.088,433.025,139.038,433.514z M180.318,376.39
			c-0.05,0.49-0.12,0.979-0.22,1.459c-0.09,0.48-0.21,0.959-0.36,1.419c-0.14,0.47-0.31,0.939-0.49,1.389
			c-0.19,0.45-0.4,0.889-0.629,1.319c-0.23,0.44-0.479,0.859-0.749,1.269c-0.27,0.4-0.569,0.799-0.879,1.179
			s-0.639,0.749-0.989,1.099c-0.34,0.34-0.709,0.669-1.089,0.989c-0.38,0.3-0.779,0.599-1.189,0.869
			c-0.4,0.27-0.829,0.519-1.259,0.749c-0.43,0.23-0.869,0.44-1.329,0.629c-0.45,0.19-0.909,0.35-1.379,0.5
			c-0.46,0.14-0.939,0.26-1.419,0.36c-0.48,0.09-0.969,0.17-1.459,0.22c-0.49,0.04-0.979,0.07-1.469,0.07
			c-0.49,0-0.989-0.03-1.479-0.07c-0.48-0.05-0.969-0.13-1.449-0.22c-0.479-0.1-0.959-0.22-1.429-0.36
			c-0.46-0.15-0.929-0.31-1.379-0.5c-0.45-0.19-0.899-0.4-1.329-0.629c-0.43-0.23-0.849-0.48-1.259-0.749
			c-0.41-0.27-0.809-0.569-1.179-0.869c-0.38-0.32-0.749-0.649-1.099-0.989c-0.34-0.35-0.679-0.719-0.989-1.099
			c-0.31-0.38-0.599-0.779-0.869-1.179c-0.27-0.41-0.529-0.829-0.759-1.269c-0.23-0.43-0.44-0.869-0.619-1.319
			c-0.19-0.45-0.36-0.919-0.5-1.389c-0.14-0.46-0.26-0.939-0.36-1.419s-0.17-0.969-0.22-1.459s-0.07-0.979-0.07-1.469
			s0.02-0.989,0.07-1.479c0.05-0.48,0.12-0.969,0.22-1.449s0.22-0.959,0.36-1.429c0.14-0.46,0.31-0.929,0.5-1.379
			c0.18-0.45,0.39-0.899,0.619-1.329c0.23-0.43,0.49-0.849,0.759-1.259c0.27-0.41,0.559-0.799,0.869-1.179s0.649-0.749,0.989-1.099
			c0.35-0.34,0.719-0.679,1.099-0.989c0.37-0.31,0.769-0.599,1.179-0.869c0.41-0.27,0.829-0.529,1.259-0.749
			c0.43-0.23,0.879-0.44,1.329-0.629c0.45-0.19,0.919-0.35,1.379-0.5c0.47-0.14,0.949-0.26,1.429-0.36
			c0.48-0.09,0.969-0.17,1.449-0.22c0.979-0.1,1.968-0.1,2.947,0c0.49,0.05,0.979,0.13,1.459,0.22c0.48,0.1,0.959,0.22,1.419,0.36
			c0.47,0.15,0.929,0.31,1.379,0.5c0.46,0.19,0.899,0.4,1.329,0.629c0.43,0.22,0.859,0.48,1.259,0.749
			c0.41,0.27,0.809,0.56,1.189,0.869s0.749,0.649,1.089,0.989c0.35,0.35,0.679,0.719,0.989,1.099s0.609,0.769,0.879,1.179
			c0.27,0.41,0.52,0.829,0.749,1.259c0.23,0.43,0.44,0.879,0.629,1.329c0.18,0.45,0.35,0.919,0.49,1.379
			c0.15,0.47,0.27,0.949,0.36,1.429c0.1,0.48,0.17,0.969,0.22,1.449c0.05,0.49,0.08,0.989,0.08,1.479
			S180.368,375.901,180.318,376.39z"/>
	</g>
</g>
<g>
	<g>
		<path d="M420.565,203.274L309.447,91.142c-3.105-3.133-8.165-3.144-11.283-0.026l-12.181,12.181
			c-2.05,2.05-2.823,5.053-2.019,7.838l11.431,39.561c2.042,6.609,7.479,11.763,14.194,13.444
			c16.844,4.214,29.975,17.441,35.359,33.949l0.405,1.24c1.843,5.651,6.069,10.148,11.595,12.34l42.434,17.137
			c2.961,1.196,6.352,0.506,8.61-1.752l12.549-12.549C423.638,211.407,423.649,206.387,420.565,203.274z"/>
	</g>
</g>
<g>
</g>
<g>
</g>
<g>
</g>
<g>
</g>
<g>
</g>
<g>
</g>
<g>
</g>
<g>
</g>
<g>
</g>
<g>
</g>
<g>
</g>
<g>
</g>
<g>
</g>
<g>
</g>
<g>
</g>
</svg>
